G04 #@! TF.GenerationSoftware,KiCad,Pcbnew,8.0.4-1.fc39*
G04 #@! TF.CreationDate,2024-09-17T18:41:10-04:00*
G04 #@! TF.ProjectId,Q9-Chimera,51392d43-6869-46d6-9572-612e6b696361,rev?*
G04 #@! TF.SameCoordinates,Original*
G04 #@! TF.FileFunction,Profile,NP*
%FSLAX46Y46*%
G04 Gerber Fmt 4.6, Leading zero omitted, Abs format (unit mm)*
G04 Created by KiCad (PCBNEW 8.0.4-1.fc39) date 2024-09-17 18:41:10*
%MOMM*%
%LPD*%
G01*
G04 APERTURE LIST*
G04 #@! TA.AperFunction,Profile*
%ADD10C,0.050000*%
G04 #@! TD*
G04 APERTURE END LIST*
D10*
X17462500Y-92075000D02*
G75*
G02*
X15875000Y-90487500I0J1587500D01*
G01*
X166290625Y-92075000D02*
G75*
G02*
X175021875Y-92075000I4365625J-3571874D01*
G01*
X19446875Y-92075000D02*
G75*
G02*
X28178125Y-92075000I4365625J-3571874D01*
G01*
X321865625Y-15875000D02*
G75*
G02*
X313134375Y-15875000I-4365625J6234760D01*
G01*
X321865625Y-92075000D02*
X323850000Y-92075000D01*
X175021875Y-92075000D02*
X313134375Y-92075000D01*
X325437500Y-90487500D02*
G75*
G02*
X323850000Y-92075000I-1587500J0D01*
G01*
X73025000Y-15875000D02*
X70246875Y-18653125D01*
X15875000Y-19446875D02*
G75*
G02*
X16668750Y-18653100I793800J-25D01*
G01*
X15875000Y-19446875D02*
X15875000Y-90487500D01*
X175021875Y-15875000D02*
G75*
G02*
X166290625Y-15875000I-4365625J5689393D01*
G01*
X313134375Y-92075000D02*
G75*
G02*
X321865625Y-92075000I4365625J-3571874D01*
G01*
X17462500Y-92075000D02*
X19446875Y-92075000D01*
X70246875Y-18653125D02*
X16668750Y-18653125D01*
X321865625Y-15875000D02*
X323850000Y-15875000D01*
X175021875Y-15875000D02*
X313134375Y-15875000D01*
X166290625Y-15875000D02*
X73025000Y-15875000D01*
X323850000Y-15875000D02*
G75*
G02*
X325437500Y-17462500I0J-1587500D01*
G01*
X166290625Y-92075000D02*
X28178125Y-92075000D01*
X325437500Y-17462500D02*
X325437500Y-90487500D01*
M02*
