G04 #@! TF.GenerationSoftware,KiCad,Pcbnew,8.0.3-1.fc39*
G04 #@! TF.CreationDate,2024-06-26T19:17:31-04:00*
G04 #@! TF.ProjectId,Q9-Chimera,51392d43-6869-46d6-9572-612e6b696361,rev?*
G04 #@! TF.SameCoordinates,Original*
G04 #@! TF.FileFunction,OtherDrawing,Comment*
%FSLAX46Y46*%
G04 Gerber Fmt 4.6, Leading zero omitted, Abs format (unit mm)*
G04 Created by KiCad (PCBNEW 8.0.3-1.fc39) date 2024-06-26 19:17:31*
%MOMM*%
%LPD*%
G01*
G04 APERTURE LIST*
G04 Aperture macros list*
%AMRoundRect*
0 Rectangle with rounded corners*
0 $1 Rounding radius*
0 $2 $3 $4 $5 $6 $7 $8 $9 X,Y pos of 4 corners*
0 Add a 4 corners polygon primitive as box body*
4,1,4,$2,$3,$4,$5,$6,$7,$8,$9,$2,$3,0*
0 Add four circle primitives for the rounded corners*
1,1,$1+$1,$2,$3*
1,1,$1+$1,$4,$5*
1,1,$1+$1,$6,$7*
1,1,$1+$1,$8,$9*
0 Add four rect primitives between the rounded corners*
20,1,$1+$1,$2,$3,$4,$5,0*
20,1,$1+$1,$4,$5,$6,$7,0*
20,1,$1+$1,$6,$7,$8,$9,0*
20,1,$1+$1,$8,$9,$2,$3,0*%
G04 Aperture macros list end*
%ADD10C,0.120000*%
%ADD11C,0.100000*%
%ADD12RoundRect,0.550000X0.550000X-1.150000X0.550000X1.150000X-0.550000X1.150000X-0.550000X-1.150000X0*%
G04 APERTURE END LIST*
D10*
G04 #@! TO.C,SW2*
X317912500Y-49212500D02*
G75*
G02*
X313912500Y-49212500I-2000000J0D01*
G01*
X313912500Y-49212500D02*
G75*
G02*
X317912500Y-49212500I2000000J0D01*
G01*
G04 #@! TO.C,S2*
X130175000Y-92075000D02*
X130175000Y-73025000D01*
X142225000Y-75550000D02*
X142225000Y-77550000D01*
X142225000Y-89550000D02*
X142225000Y-87550000D01*
X144225000Y-75550000D02*
X142225000Y-75550000D01*
X144225000Y-89550000D02*
X142225000Y-89550000D01*
X154225000Y-75550000D02*
X156225000Y-75550000D01*
X156225000Y-75550000D02*
X156225000Y-77550000D01*
X156225000Y-87550000D02*
X156225000Y-89550000D01*
X156225000Y-89550000D02*
X154225000Y-89550000D01*
X168275000Y-73025000D02*
X130175000Y-73025000D01*
X168275000Y-92075000D02*
X130175000Y-92075000D01*
X168275000Y-92075000D02*
X168275000Y-73025000D01*
G04 #@! TO.C,S5*
X73025000Y-92075000D02*
X73025000Y-73025000D01*
X94600000Y-75550000D02*
X94600000Y-77550001D01*
X94600000Y-89550000D02*
X94600000Y-87549999D01*
X96600001Y-75550000D02*
X94600000Y-75550000D01*
X96600001Y-89550000D02*
X94600000Y-89550000D01*
X106599999Y-75550000D02*
X108600000Y-75550000D01*
X108600000Y-75550000D02*
X108600000Y-77550001D01*
X108600000Y-87549999D02*
X108600000Y-89550000D01*
X108600000Y-89550000D02*
X106599999Y-89550000D01*
X130175000Y-73025000D02*
X73025000Y-73025000D01*
X130175000Y-92075000D02*
X73025000Y-92075000D01*
X130175000Y-92075000D02*
X130175000Y-73025000D01*
G04 #@! TO.C,S3*
X206375000Y-92075000D02*
X206375000Y-73025000D01*
X218425000Y-75550000D02*
X218425000Y-77550000D01*
X218425000Y-89550000D02*
X218425000Y-87550000D01*
X220425000Y-75550000D02*
X218425000Y-75550000D01*
X220425000Y-89550000D02*
X218425000Y-89550000D01*
X230425000Y-75550000D02*
X232425000Y-75550000D01*
X232425000Y-75550000D02*
X232425000Y-77550000D01*
X232425000Y-87550000D02*
X232425000Y-89550000D01*
X232425000Y-89550000D02*
X230425000Y-89550000D01*
X244475000Y-73025000D02*
X206375000Y-73025000D01*
X244475000Y-92075000D02*
X206375000Y-92075000D01*
X244475000Y-92075000D02*
X244475000Y-73025000D01*
G04 #@! TO.C,S7*
X206374824Y-15874992D02*
X206374824Y-34924992D01*
X206374824Y-15874992D02*
X244474824Y-15874992D01*
X206374824Y-34924992D02*
X244474824Y-34924992D01*
X218424824Y-18399992D02*
X220424825Y-18399992D01*
X218424824Y-20399993D02*
X218424824Y-18399992D01*
X218424824Y-32399992D02*
X218424824Y-30399991D01*
X220424825Y-32399992D02*
X218424824Y-32399992D01*
X230424823Y-18399992D02*
X232424824Y-18399992D01*
X230424823Y-32399992D02*
X232424824Y-32399992D01*
X232424824Y-18399992D02*
X232424824Y-20399993D01*
X232424824Y-32399992D02*
X232424824Y-30399991D01*
X244474824Y-15874992D02*
X244474824Y-34924992D01*
G04 #@! TO.C,S4*
X244474792Y-92075000D02*
X244474792Y-73025000D01*
X256524792Y-75550000D02*
X256524792Y-77550000D01*
X256524792Y-89550000D02*
X256524792Y-87550000D01*
X258524792Y-75550000D02*
X256524792Y-75550000D01*
X258524792Y-89550000D02*
X256524792Y-89550000D01*
X268524792Y-75550000D02*
X270524792Y-75550000D01*
X270524792Y-75550000D02*
X270524792Y-77550000D01*
X270524792Y-87550000D02*
X270524792Y-89550000D01*
X270524792Y-89550000D02*
X268524792Y-89550000D01*
X282574792Y-73025000D02*
X244474792Y-73025000D01*
X282574792Y-92075000D02*
X244474792Y-92075000D01*
X282574792Y-92075000D02*
X282574792Y-73025000D01*
G04 #@! TO.C,S6*
X130175000Y-92075000D02*
X130175000Y-73025000D01*
X151750000Y-75550000D02*
X151750000Y-77550001D01*
X151750000Y-89550000D02*
X151750000Y-87549999D01*
X153750001Y-75550000D02*
X151750000Y-75550000D01*
X153750001Y-89550000D02*
X151750000Y-89550000D01*
X163749999Y-75550000D02*
X165750000Y-75550000D01*
X165750000Y-75550000D02*
X165750000Y-77550001D01*
X165750000Y-87549999D02*
X165750000Y-89550000D01*
X165750000Y-89550000D02*
X163749999Y-89550000D01*
X187325000Y-73025000D02*
X130175000Y-73025000D01*
X187325000Y-92075000D02*
X130175000Y-92075000D01*
X187325000Y-92075000D02*
X187325000Y-73025000D01*
G04 #@! TO.C,S1*
X92075000Y-92075000D02*
X92075000Y-73025000D01*
X104125000Y-75550000D02*
X104125000Y-77550000D01*
X104125000Y-89550000D02*
X104125000Y-87550000D01*
X106125000Y-75550000D02*
X104125000Y-75550000D01*
X106125000Y-89550000D02*
X104125000Y-89550000D01*
X116125000Y-75550000D02*
X118125000Y-75550000D01*
X118125000Y-75550000D02*
X118125000Y-77550000D01*
X118125000Y-87550000D02*
X118125000Y-89550000D01*
X118125000Y-89550000D02*
X116125000Y-89550000D01*
X130175000Y-73025000D02*
X92075000Y-73025000D01*
X130175000Y-92075000D02*
X92075000Y-92075000D01*
X130175000Y-92075000D02*
X130175000Y-73025000D01*
G04 #@! TO.C,SW1*
X317912500Y-25400000D02*
G75*
G02*
X313912500Y-25400000I-2000000J0D01*
G01*
X313912500Y-25400000D02*
G75*
G02*
X317912500Y-25400000I2000000J0D01*
G01*
G04 #@! TO.C,MX9*
D11*
X168275000Y-34925000D02*
X187325000Y-34925000D01*
X187325000Y-15875000D01*
X168275000Y-15875000D01*
X168275000Y-34925000D01*
G04 #@! TO.C,MX20*
X73025000Y-53975000D02*
X92075000Y-53975000D01*
X92075000Y-34925000D01*
X73025000Y-34925000D01*
X73025000Y-53975000D01*
G04 #@! TO.C,MX90*
X220662318Y-73025000D02*
X244474818Y-73025000D01*
X244474818Y-53975000D01*
X220662318Y-53975000D01*
X220662318Y-73025000D01*
G04 #@! TO.C,MX49*
X53975000Y-92075000D02*
X34925000Y-92075000D01*
X34925000Y-73025000D01*
X53975000Y-73025000D01*
X53975000Y-92075000D01*
G04 #@! TO.C,MX36*
X92075000Y-73025000D02*
X73025000Y-73025000D01*
X73025000Y-53975000D01*
X92075000Y-53975000D01*
X92075000Y-73025000D01*
G04 #@! TO.C,MX16*
X306387500Y-34925000D02*
X325437500Y-34925000D01*
X325437500Y-15875000D01*
X306387500Y-15875000D01*
X306387500Y-34925000D01*
G04 #@! TO.C,MX5*
X92075000Y-34925000D02*
X111125000Y-34925000D01*
X111125000Y-15875000D01*
X92075000Y-15875000D01*
X92075000Y-34925000D01*
G04 #@! TO.C,MX37*
X111125000Y-73025000D02*
X92075000Y-73025000D01*
X92075000Y-53975000D01*
X111125000Y-53975000D01*
X111125000Y-73025000D01*
G04 #@! TO.C,MX82*
X68262448Y-73025000D02*
X87312448Y-73025000D01*
X87312448Y-53975000D01*
X68262448Y-53975000D01*
X68262448Y-73025000D01*
G04 #@! TO.C,MX44*
X244475000Y-73025000D02*
X225425000Y-73025000D01*
X225425000Y-53975000D01*
X244475000Y-53975000D01*
X244475000Y-73025000D01*
G04 #@! TO.C,MX30*
X263525000Y-53975000D02*
X282575000Y-53975000D01*
X282575000Y-34925000D01*
X263525000Y-34925000D01*
X263525000Y-53975000D01*
G04 #@! TO.C,MX52*
X92075000Y-92075000D02*
X111125000Y-92075000D01*
X111125000Y-73025000D01*
X92075000Y-73025000D01*
X92075000Y-92075000D01*
G04 #@! TO.C,MX50*
X73025000Y-92075000D02*
X53975000Y-92075000D01*
X53975000Y-73025000D01*
X73025000Y-73025000D01*
X73025000Y-92075000D01*
G04 #@! TO.C,MX83*
X87312432Y-73025000D02*
X106362432Y-73025000D01*
X106362432Y-53975000D01*
X87312432Y-53975000D01*
X87312432Y-73025000D01*
G04 #@! TO.C,MX74*
X134937408Y-53975000D02*
X115887408Y-53975000D01*
X115887408Y-34925000D01*
X134937408Y-34925000D01*
X134937408Y-53975000D01*
G04 #@! TO.C,MX47*
X282575000Y-73025000D02*
X301625000Y-73025000D01*
X301625000Y-53975000D01*
X282575000Y-53975000D01*
X282575000Y-73025000D01*
G04 #@! TO.C,MX73*
X115887424Y-53975000D02*
X96837424Y-53975000D01*
X96837424Y-34925000D01*
X115887424Y-34925000D01*
X115887424Y-53975000D01*
G04 #@! TO.C,MX1*
X15875000Y-34925000D02*
X34925000Y-34925000D01*
X34925000Y-15875000D01*
X15875000Y-15875000D01*
X15875000Y-34925000D01*
G04 #@! TO.C,MX65*
X301625000Y-92075000D02*
X320675000Y-92075000D01*
X320675000Y-73025000D01*
X301625000Y-73025000D01*
X301625000Y-92075000D01*
G04 #@! TO.C,MX84*
X106362416Y-73025000D02*
X125412416Y-73025000D01*
X125412416Y-53975000D01*
X106362416Y-53975000D01*
X106362416Y-73025000D01*
G04 #@! TO.C,MX28*
X244475000Y-53975000D02*
X225425000Y-53975000D01*
X225425000Y-34925000D01*
X244475000Y-34925000D01*
X244475000Y-53975000D01*
G04 #@! TO.C,MX67*
X273049792Y-73025000D02*
X253999792Y-73025000D01*
X253999792Y-92075000D01*
X273049792Y-92075000D01*
X273049792Y-73025000D01*
G04 #@! TO.C,MX71*
X77787456Y-53975000D02*
X58737456Y-53975000D01*
X58737456Y-34925000D01*
X77787456Y-34925000D01*
X77787456Y-53975000D01*
G04 #@! TO.C,MX80*
X49212486Y-73025000D02*
X15874986Y-73025000D01*
X15874986Y-53975000D01*
X49212486Y-53975000D01*
X49212486Y-73025000D01*
G04 #@! TO.C,MX19*
X53975000Y-53975000D02*
X73025000Y-53975000D01*
X73025000Y-34925000D01*
X53975000Y-34925000D01*
X53975000Y-53975000D01*
G04 #@! TO.C,MX51*
X92075000Y-92075000D02*
X73025000Y-92075000D01*
X73025000Y-73025000D01*
X92075000Y-73025000D01*
X92075000Y-92075000D01*
G04 #@! TO.C,MX69*
X39687490Y-53975000D02*
X15874990Y-53975000D01*
X15874990Y-34925000D01*
X39687490Y-34925000D01*
X39687490Y-53975000D01*
G04 #@! TO.C,MX35*
X73025000Y-73025000D02*
X53975000Y-73025000D01*
X53975000Y-53975000D01*
X73025000Y-53975000D01*
X73025000Y-73025000D01*
G04 #@! TO.C,MX31*
X282575000Y-53975000D02*
X301625000Y-53975000D01*
X301625000Y-34925000D01*
X282575000Y-34925000D01*
X282575000Y-53975000D01*
G04 #@! TO.C,MX10*
X187325000Y-34925000D02*
X206375000Y-34925000D01*
X206375000Y-15875000D01*
X187325000Y-15875000D01*
X187325000Y-34925000D01*
G04 #@! TO.C,MX12*
X244475000Y-34925000D02*
X225425000Y-34925000D01*
X225425000Y-15875000D01*
X244475000Y-15875000D01*
X244475000Y-34925000D01*
G04 #@! TO.C,MX77*
X192087360Y-53975000D02*
X173037360Y-53975000D01*
X173037360Y-34925000D01*
X192087360Y-34925000D01*
X192087360Y-53975000D01*
G04 #@! TO.C,MX23*
X130175000Y-53975000D02*
X149225000Y-53975000D01*
X149225000Y-34925000D01*
X130175000Y-34925000D01*
X130175000Y-53975000D01*
G04 #@! TO.C,MX17*
X15875000Y-53975000D02*
X34925000Y-53975000D01*
X34925000Y-34925000D01*
X15875000Y-34925000D01*
X15875000Y-53975000D01*
G04 #@! TO.C,MX24*
X149225000Y-53975000D02*
X168275000Y-53975000D01*
X168275000Y-34925000D01*
X149225000Y-34925000D01*
X149225000Y-53975000D01*
G04 #@! TO.C,MX75*
X153987392Y-53975000D02*
X134937392Y-53975000D01*
X134937392Y-34925000D01*
X153987392Y-34925000D01*
X153987392Y-53975000D01*
G04 #@! TO.C,MX81*
X68262464Y-73025000D02*
X49212464Y-73025000D01*
X49212464Y-53975000D01*
X68262464Y-53975000D01*
X68262464Y-73025000D01*
G04 #@! TO.C,MX85*
X125412400Y-73025000D02*
X144462400Y-73025000D01*
X144462400Y-53975000D01*
X125412400Y-53975000D01*
X125412400Y-73025000D01*
G04 #@! TO.C,MX27*
X225425000Y-53975000D02*
X206375000Y-53975000D01*
X206375000Y-34925000D01*
X225425000Y-34925000D01*
X225425000Y-53975000D01*
G04 #@! TO.C,MX26*
X187325000Y-53975000D02*
X206375000Y-53975000D01*
X206375000Y-34925000D01*
X187325000Y-34925000D01*
X187325000Y-53975000D01*
G04 #@! TO.C,MX13*
X244475000Y-34925000D02*
X263525000Y-34925000D01*
X263525000Y-15875000D01*
X244475000Y-15875000D01*
X244475000Y-34925000D01*
G04 #@! TO.C,MX53*
X120650000Y-73025000D02*
X101600000Y-73025000D01*
X101600000Y-92075000D01*
X120650000Y-92075000D01*
X120650000Y-73025000D01*
G04 #@! TO.C,MX62*
X244475000Y-92075000D02*
X263525000Y-92075000D01*
X263525000Y-73025000D01*
X244475000Y-73025000D01*
X244475000Y-92075000D01*
G04 #@! TO.C,MX78*
X211137344Y-53975000D02*
X192087344Y-53975000D01*
X192087344Y-34925000D01*
X211137344Y-34925000D01*
X211137344Y-53975000D01*
G04 #@! TO.C,MX4*
X73025000Y-34925000D02*
X92075000Y-34925000D01*
X92075000Y-15875000D01*
X73025000Y-15875000D01*
X73025000Y-34925000D01*
G04 #@! TO.C,MX61*
X225425000Y-92075000D02*
X244475000Y-92075000D01*
X244475000Y-73025000D01*
X225425000Y-73025000D01*
X225425000Y-92075000D01*
G04 #@! TO.C,MX41*
X187325000Y-73025000D02*
X168275000Y-73025000D01*
X168275000Y-53975000D01*
X187325000Y-53975000D01*
X187325000Y-73025000D01*
G04 #@! TO.C,MX15*
X282575000Y-34925000D02*
X301625000Y-34925000D01*
X301625000Y-15875000D01*
X282575000Y-15875000D01*
X282575000Y-34925000D01*
G04 #@! TO.C,MX57*
X168275000Y-92075000D02*
X187325000Y-92075000D01*
X187325000Y-73025000D01*
X168275000Y-73025000D01*
X168275000Y-92075000D01*
G04 #@! TO.C,MX39*
X149225000Y-73025000D02*
X130175000Y-73025000D01*
X130175000Y-53975000D01*
X149225000Y-53975000D01*
X149225000Y-73025000D01*
G04 #@! TO.C,MX68*
X234949824Y-34924992D02*
X215899824Y-34924992D01*
X215899824Y-15874992D01*
X234949824Y-15874992D01*
X234949824Y-34924992D01*
G04 #@! TO.C,MX66*
X158750000Y-73025000D02*
X139700000Y-73025000D01*
X139700000Y-92075000D01*
X158750000Y-92075000D01*
X158750000Y-73025000D01*
G04 #@! TO.C,MX14*
X263525000Y-34925000D02*
X282575000Y-34925000D01*
X282575000Y-15875000D01*
X263525000Y-15875000D01*
X263525000Y-34925000D01*
G04 #@! TO.C,MX88*
X182562352Y-73025000D02*
X201612352Y-73025000D01*
X201612352Y-53975000D01*
X182562352Y-53975000D01*
X182562352Y-73025000D01*
G04 #@! TO.C,MX40*
X168275000Y-73025000D02*
X149225000Y-73025000D01*
X149225000Y-53975000D01*
X168275000Y-53975000D01*
X168275000Y-73025000D01*
G04 #@! TO.C,MX11*
X225425000Y-34925000D02*
X206375000Y-34925000D01*
X206375000Y-15875000D01*
X225425000Y-15875000D01*
X225425000Y-34925000D01*
G04 #@! TO.C,MX89*
X201612336Y-73025000D02*
X220662336Y-73025000D01*
X220662336Y-53975000D01*
X201612336Y-53975000D01*
X201612336Y-73025000D01*
G04 #@! TO.C,MX48*
X34925000Y-92075000D02*
X15875000Y-92075000D01*
X15875000Y-73025000D01*
X34925000Y-73025000D01*
X34925000Y-92075000D01*
G04 #@! TO.C,MX54*
X111125000Y-92075000D02*
X130175000Y-92075000D01*
X130175000Y-73025000D01*
X111125000Y-73025000D01*
X111125000Y-92075000D01*
G04 #@! TO.C,MX70*
X58737472Y-53975000D02*
X39687472Y-53975000D01*
X39687472Y-34925000D01*
X58737472Y-34925000D01*
X58737472Y-53975000D01*
G04 #@! TO.C,MX21*
X92075000Y-53975000D02*
X111125000Y-53975000D01*
X111125000Y-34925000D01*
X92075000Y-34925000D01*
X92075000Y-53975000D01*
G04 #@! TO.C,MX59*
X206375000Y-92075000D02*
X225425000Y-92075000D01*
X225425000Y-73025000D01*
X206375000Y-73025000D01*
X206375000Y-92075000D01*
G04 #@! TO.C,MX25*
X168275000Y-53975000D02*
X187325000Y-53975000D01*
X187325000Y-34925000D01*
X168275000Y-34925000D01*
X168275000Y-53975000D01*
G04 #@! TO.C,MX32*
X306387500Y-58737500D02*
X325437500Y-58737500D01*
X325437500Y-39687500D01*
X306387500Y-39687500D01*
X306387500Y-58737500D01*
G04 #@! TO.C,MX43*
X225425000Y-73025000D02*
X206375000Y-73025000D01*
X206375000Y-53975000D01*
X225425000Y-53975000D01*
X225425000Y-73025000D01*
G04 #@! TO.C,MX86*
X144462384Y-73025000D02*
X163512384Y-73025000D01*
X163512384Y-53975000D01*
X144462384Y-53975000D01*
X144462384Y-73025000D01*
G04 #@! TO.C,MX22*
X111125000Y-53975000D02*
X130175000Y-53975000D01*
X130175000Y-34925000D01*
X111125000Y-34925000D01*
X111125000Y-53975000D01*
G04 #@! TO.C,MX46*
X282575000Y-73025000D02*
X263525000Y-73025000D01*
X263525000Y-53975000D01*
X282575000Y-53975000D01*
X282575000Y-73025000D01*
G04 #@! TO.C,MX56*
X149225000Y-92075000D02*
X168275000Y-92075000D01*
X168275000Y-73025000D01*
X149225000Y-73025000D01*
X149225000Y-92075000D01*
G04 #@! TO.C,MX72*
X96837440Y-53975000D02*
X77787440Y-53975000D01*
X77787440Y-34925000D01*
X96837440Y-34925000D01*
X96837440Y-53975000D01*
G04 #@! TO.C,MX29*
X244475000Y-53975000D02*
X263525000Y-53975000D01*
X263525000Y-34925000D01*
X244475000Y-34925000D01*
X244475000Y-53975000D01*
G04 #@! TO.C,MX42*
X206375000Y-73025000D02*
X187325000Y-73025000D01*
X187325000Y-53975000D01*
X206375000Y-53975000D01*
X206375000Y-73025000D01*
G04 #@! TO.C,MX33*
X15875000Y-73025000D02*
X34925000Y-73025000D01*
X34925000Y-53975000D01*
X15875000Y-53975000D01*
X15875000Y-73025000D01*
G04 #@! TO.C,MX34*
X34925000Y-73025000D02*
X53975000Y-73025000D01*
X53975000Y-53975000D01*
X34925000Y-53975000D01*
X34925000Y-73025000D01*
G04 #@! TO.C,MX87*
X163512368Y-73025000D02*
X182562368Y-73025000D01*
X182562368Y-53975000D01*
X163512368Y-53975000D01*
X163512368Y-73025000D01*
G04 #@! TO.C,MX45*
X263525000Y-73025000D02*
X244475000Y-73025000D01*
X244475000Y-53975000D01*
X263525000Y-53975000D01*
X263525000Y-73025000D01*
G04 #@! TO.C,MX64*
X282575000Y-92075000D02*
X301625000Y-92075000D01*
X301625000Y-73025000D01*
X282575000Y-73025000D01*
X282575000Y-92075000D01*
G04 #@! TO.C,MX18*
X34925000Y-53975000D02*
X53975000Y-53975000D01*
X53975000Y-34925000D01*
X34925000Y-34925000D01*
X34925000Y-53975000D01*
G04 #@! TO.C,MX63*
X263525000Y-92075000D02*
X282575000Y-92075000D01*
X282575000Y-73025000D01*
X263525000Y-73025000D01*
X263525000Y-92075000D01*
G04 #@! TO.C,MX60*
X234950000Y-73025000D02*
X215900000Y-73025000D01*
X215900000Y-92075000D01*
X234950000Y-92075000D01*
X234950000Y-73025000D01*
G04 #@! TO.C,MX76*
X173037376Y-53975000D02*
X153987376Y-53975000D01*
X153987376Y-34925000D01*
X173037376Y-34925000D01*
X173037376Y-53975000D01*
G04 #@! TO.C,MX2*
X34925000Y-34925000D02*
X53975000Y-34925000D01*
X53975000Y-15875000D01*
X34925000Y-15875000D01*
X34925000Y-34925000D01*
G04 #@! TO.C,MX58*
X187325000Y-92075000D02*
X206375000Y-92075000D01*
X206375000Y-73025000D01*
X187325000Y-73025000D01*
X187325000Y-92075000D01*
G04 #@! TO.C,MX6*
X111125000Y-34925000D02*
X130175000Y-34925000D01*
X130175000Y-15875000D01*
X111125000Y-15875000D01*
X111125000Y-34925000D01*
G04 #@! TO.C,MX8*
X149225000Y-34925000D02*
X168275000Y-34925000D01*
X168275000Y-15875000D01*
X149225000Y-15875000D01*
X149225000Y-34925000D01*
G04 #@! TO.C,MX38*
X130175000Y-73025000D02*
X111125000Y-73025000D01*
X111125000Y-53975000D01*
X130175000Y-53975000D01*
X130175000Y-73025000D01*
G04 #@! TO.C,MX79*
X244474822Y-53975000D02*
X211137322Y-53975000D01*
X211137322Y-34925000D01*
X244474822Y-34925000D01*
X244474822Y-53975000D01*
G04 #@! TO.C,MX7*
X130175000Y-34925000D02*
X149225000Y-34925000D01*
X149225000Y-15875000D01*
X130175000Y-15875000D01*
X130175000Y-34925000D01*
G04 #@! TO.C,MX3*
X53975000Y-34925000D02*
X73025000Y-34925000D01*
X73025000Y-15875000D01*
X53975000Y-15875000D01*
X53975000Y-34925000D01*
G04 #@! TO.C,MX55*
X130175000Y-92075000D02*
X149225000Y-92075000D01*
X149225000Y-73025000D01*
X130175000Y-73025000D01*
X130175000Y-92075000D01*
G04 #@! TD*
D12*
G04 #@! TO.C,SW2*
X310312500Y-49212500D03*
X321512500Y-49212500D03*
G04 #@! TD*
G04 #@! TO.C,SW1*
X310312500Y-25400000D03*
X321512500Y-25400000D03*
G04 #@! TD*
M02*
