G04 #@! TF.GenerationSoftware,KiCad,Pcbnew,8.0.4-1.fc39*
G04 #@! TF.CreationDate,2024-09-17T21:02:33-04:00*
G04 #@! TF.ProjectId,Q9-Chimera,51392d43-6869-46d6-9572-612e6b696361,rev?*
G04 #@! TF.SameCoordinates,Original*
G04 #@! TF.FileFunction,AssemblyDrawing,Top*
%FSLAX46Y46*%
G04 Gerber Fmt 4.6, Leading zero omitted, Abs format (unit mm)*
G04 Created by KiCad (PCBNEW 8.0.4-1.fc39) date 2024-09-17 21:02:33*
%MOMM*%
%LPD*%
G01*
G04 APERTURE LIST*
%ADD10C,0.150000*%
%ADD11C,0.120000*%
G04 APERTURE END LIST*
D10*
X107505952Y-86004819D02*
X107505952Y-85004819D01*
X107505952Y-85004819D02*
X107839285Y-85719104D01*
X107839285Y-85719104D02*
X108172618Y-85004819D01*
X108172618Y-85004819D02*
X108172618Y-86004819D01*
X108553571Y-85004819D02*
X109220237Y-86004819D01*
X109220237Y-85004819D02*
X108553571Y-86004819D01*
X109363095Y-86100057D02*
X110124999Y-86100057D01*
X110315476Y-85957200D02*
X110458333Y-86004819D01*
X110458333Y-86004819D02*
X110696428Y-86004819D01*
X110696428Y-86004819D02*
X110791666Y-85957200D01*
X110791666Y-85957200D02*
X110839285Y-85909580D01*
X110839285Y-85909580D02*
X110886904Y-85814342D01*
X110886904Y-85814342D02*
X110886904Y-85719104D01*
X110886904Y-85719104D02*
X110839285Y-85623866D01*
X110839285Y-85623866D02*
X110791666Y-85576247D01*
X110791666Y-85576247D02*
X110696428Y-85528628D01*
X110696428Y-85528628D02*
X110505952Y-85481009D01*
X110505952Y-85481009D02*
X110410714Y-85433390D01*
X110410714Y-85433390D02*
X110363095Y-85385771D01*
X110363095Y-85385771D02*
X110315476Y-85290533D01*
X110315476Y-85290533D02*
X110315476Y-85195295D01*
X110315476Y-85195295D02*
X110363095Y-85100057D01*
X110363095Y-85100057D02*
X110410714Y-85052438D01*
X110410714Y-85052438D02*
X110505952Y-85004819D01*
X110505952Y-85004819D02*
X110744047Y-85004819D01*
X110744047Y-85004819D02*
X110886904Y-85052438D01*
X111220238Y-85004819D02*
X111458333Y-86004819D01*
X111458333Y-86004819D02*
X111648809Y-85290533D01*
X111648809Y-85290533D02*
X111839285Y-86004819D01*
X111839285Y-86004819D02*
X112077381Y-85004819D01*
X112220238Y-86100057D02*
X112982142Y-86100057D01*
X113220238Y-86004819D02*
X113220238Y-85004819D01*
X113220238Y-85481009D02*
X113791666Y-85481009D01*
X113791666Y-86004819D02*
X113791666Y-85004819D01*
X114220238Y-85957200D02*
X114363095Y-86004819D01*
X114363095Y-86004819D02*
X114601190Y-86004819D01*
X114601190Y-86004819D02*
X114696428Y-85957200D01*
X114696428Y-85957200D02*
X114744047Y-85909580D01*
X114744047Y-85909580D02*
X114791666Y-85814342D01*
X114791666Y-85814342D02*
X114791666Y-85719104D01*
X114791666Y-85719104D02*
X114744047Y-85623866D01*
X114744047Y-85623866D02*
X114696428Y-85576247D01*
X114696428Y-85576247D02*
X114601190Y-85528628D01*
X114601190Y-85528628D02*
X114410714Y-85481009D01*
X114410714Y-85481009D02*
X114315476Y-85433390D01*
X114315476Y-85433390D02*
X114267857Y-85385771D01*
X114267857Y-85385771D02*
X114220238Y-85290533D01*
X114220238Y-85290533D02*
X114220238Y-85195295D01*
X114220238Y-85195295D02*
X114267857Y-85100057D01*
X114267857Y-85100057D02*
X114315476Y-85052438D01*
X114315476Y-85052438D02*
X114410714Y-85004819D01*
X114410714Y-85004819D02*
X114648809Y-85004819D01*
X114648809Y-85004819D02*
X114791666Y-85052438D01*
D11*
X109715476Y-82913855D02*
X109715476Y-82113855D01*
X109715476Y-82113855D02*
X109982142Y-82685283D01*
X109982142Y-82685283D02*
X110248809Y-82113855D01*
X110248809Y-82113855D02*
X110248809Y-82913855D01*
X110553571Y-82113855D02*
X111086905Y-82913855D01*
X111086905Y-82113855D02*
X110553571Y-82913855D01*
X111772619Y-82113855D02*
X111391667Y-82113855D01*
X111391667Y-82113855D02*
X111353571Y-82494807D01*
X111353571Y-82494807D02*
X111391667Y-82456712D01*
X111391667Y-82456712D02*
X111467857Y-82418617D01*
X111467857Y-82418617D02*
X111658333Y-82418617D01*
X111658333Y-82418617D02*
X111734524Y-82456712D01*
X111734524Y-82456712D02*
X111772619Y-82494807D01*
X111772619Y-82494807D02*
X111810714Y-82570998D01*
X111810714Y-82570998D02*
X111810714Y-82761474D01*
X111810714Y-82761474D02*
X111772619Y-82837664D01*
X111772619Y-82837664D02*
X111734524Y-82875760D01*
X111734524Y-82875760D02*
X111658333Y-82913855D01*
X111658333Y-82913855D02*
X111467857Y-82913855D01*
X111467857Y-82913855D02*
X111391667Y-82875760D01*
X111391667Y-82875760D02*
X111353571Y-82837664D01*
X112077381Y-82113855D02*
X112572619Y-82113855D01*
X112572619Y-82113855D02*
X112305953Y-82418617D01*
X112305953Y-82418617D02*
X112420238Y-82418617D01*
X112420238Y-82418617D02*
X112496429Y-82456712D01*
X112496429Y-82456712D02*
X112534524Y-82494807D01*
X112534524Y-82494807D02*
X112572619Y-82570998D01*
X112572619Y-82570998D02*
X112572619Y-82761474D01*
X112572619Y-82761474D02*
X112534524Y-82837664D01*
X112534524Y-82837664D02*
X112496429Y-82875760D01*
X112496429Y-82875760D02*
X112420238Y-82913855D01*
X112420238Y-82913855D02*
X112191667Y-82913855D01*
X112191667Y-82913855D02*
X112115476Y-82875760D01*
X112115476Y-82875760D02*
X112077381Y-82837664D01*
D10*
X126555856Y-86004811D02*
X126555856Y-85004811D01*
X126555856Y-85004811D02*
X126889189Y-85719096D01*
X126889189Y-85719096D02*
X127222522Y-85004811D01*
X127222522Y-85004811D02*
X127222522Y-86004811D01*
X127603475Y-85004811D02*
X128270141Y-86004811D01*
X128270141Y-85004811D02*
X127603475Y-86004811D01*
X128412999Y-86100049D02*
X129174903Y-86100049D01*
X129365380Y-85957192D02*
X129508237Y-86004811D01*
X129508237Y-86004811D02*
X129746332Y-86004811D01*
X129746332Y-86004811D02*
X129841570Y-85957192D01*
X129841570Y-85957192D02*
X129889189Y-85909572D01*
X129889189Y-85909572D02*
X129936808Y-85814334D01*
X129936808Y-85814334D02*
X129936808Y-85719096D01*
X129936808Y-85719096D02*
X129889189Y-85623858D01*
X129889189Y-85623858D02*
X129841570Y-85576239D01*
X129841570Y-85576239D02*
X129746332Y-85528620D01*
X129746332Y-85528620D02*
X129555856Y-85481001D01*
X129555856Y-85481001D02*
X129460618Y-85433382D01*
X129460618Y-85433382D02*
X129412999Y-85385763D01*
X129412999Y-85385763D02*
X129365380Y-85290525D01*
X129365380Y-85290525D02*
X129365380Y-85195287D01*
X129365380Y-85195287D02*
X129412999Y-85100049D01*
X129412999Y-85100049D02*
X129460618Y-85052430D01*
X129460618Y-85052430D02*
X129555856Y-85004811D01*
X129555856Y-85004811D02*
X129793951Y-85004811D01*
X129793951Y-85004811D02*
X129936808Y-85052430D01*
X130270142Y-85004811D02*
X130508237Y-86004811D01*
X130508237Y-86004811D02*
X130698713Y-85290525D01*
X130698713Y-85290525D02*
X130889189Y-86004811D01*
X130889189Y-86004811D02*
X131127285Y-85004811D01*
X131270142Y-86100049D02*
X132032046Y-86100049D01*
X132270142Y-86004811D02*
X132270142Y-85004811D01*
X132270142Y-85481001D02*
X132841570Y-85481001D01*
X132841570Y-86004811D02*
X132841570Y-85004811D01*
X133270142Y-85957192D02*
X133412999Y-86004811D01*
X133412999Y-86004811D02*
X133651094Y-86004811D01*
X133651094Y-86004811D02*
X133746332Y-85957192D01*
X133746332Y-85957192D02*
X133793951Y-85909572D01*
X133793951Y-85909572D02*
X133841570Y-85814334D01*
X133841570Y-85814334D02*
X133841570Y-85719096D01*
X133841570Y-85719096D02*
X133793951Y-85623858D01*
X133793951Y-85623858D02*
X133746332Y-85576239D01*
X133746332Y-85576239D02*
X133651094Y-85528620D01*
X133651094Y-85528620D02*
X133460618Y-85481001D01*
X133460618Y-85481001D02*
X133365380Y-85433382D01*
X133365380Y-85433382D02*
X133317761Y-85385763D01*
X133317761Y-85385763D02*
X133270142Y-85290525D01*
X133270142Y-85290525D02*
X133270142Y-85195287D01*
X133270142Y-85195287D02*
X133317761Y-85100049D01*
X133317761Y-85100049D02*
X133365380Y-85052430D01*
X133365380Y-85052430D02*
X133460618Y-85004811D01*
X133460618Y-85004811D02*
X133698713Y-85004811D01*
X133698713Y-85004811D02*
X133841570Y-85052430D01*
D11*
X128765380Y-82913847D02*
X128765380Y-82113847D01*
X128765380Y-82113847D02*
X129032046Y-82685275D01*
X129032046Y-82685275D02*
X129298713Y-82113847D01*
X129298713Y-82113847D02*
X129298713Y-82913847D01*
X129603475Y-82113847D02*
X130136809Y-82913847D01*
X130136809Y-82113847D02*
X129603475Y-82913847D01*
X130479666Y-82913847D02*
X130632047Y-82913847D01*
X130632047Y-82913847D02*
X130708237Y-82875752D01*
X130708237Y-82875752D02*
X130746333Y-82837656D01*
X130746333Y-82837656D02*
X130822523Y-82723371D01*
X130822523Y-82723371D02*
X130860618Y-82570990D01*
X130860618Y-82570990D02*
X130860618Y-82266228D01*
X130860618Y-82266228D02*
X130822523Y-82190037D01*
X130822523Y-82190037D02*
X130784428Y-82151942D01*
X130784428Y-82151942D02*
X130708237Y-82113847D01*
X130708237Y-82113847D02*
X130555856Y-82113847D01*
X130555856Y-82113847D02*
X130479666Y-82151942D01*
X130479666Y-82151942D02*
X130441571Y-82190037D01*
X130441571Y-82190037D02*
X130403475Y-82266228D01*
X130403475Y-82266228D02*
X130403475Y-82456704D01*
X130403475Y-82456704D02*
X130441571Y-82532894D01*
X130441571Y-82532894D02*
X130479666Y-82570990D01*
X130479666Y-82570990D02*
X130555856Y-82609085D01*
X130555856Y-82609085D02*
X130708237Y-82609085D01*
X130708237Y-82609085D02*
X130784428Y-82570990D01*
X130784428Y-82570990D02*
X130822523Y-82532894D01*
X130822523Y-82532894D02*
X130860618Y-82456704D01*
X131584428Y-82113847D02*
X131203476Y-82113847D01*
X131203476Y-82113847D02*
X131165380Y-82494799D01*
X131165380Y-82494799D02*
X131203476Y-82456704D01*
X131203476Y-82456704D02*
X131279666Y-82418609D01*
X131279666Y-82418609D02*
X131470142Y-82418609D01*
X131470142Y-82418609D02*
X131546333Y-82456704D01*
X131546333Y-82456704D02*
X131584428Y-82494799D01*
X131584428Y-82494799D02*
X131622523Y-82570990D01*
X131622523Y-82570990D02*
X131622523Y-82761466D01*
X131622523Y-82761466D02*
X131584428Y-82837656D01*
X131584428Y-82837656D02*
X131546333Y-82875752D01*
X131546333Y-82875752D02*
X131470142Y-82913847D01*
X131470142Y-82913847D02*
X131279666Y-82913847D01*
X131279666Y-82913847D02*
X131203476Y-82875752D01*
X131203476Y-82875752D02*
X131165380Y-82837656D01*
D10*
X221805952Y-86004819D02*
X221805952Y-85004819D01*
X221805952Y-85004819D02*
X222139285Y-85719104D01*
X222139285Y-85719104D02*
X222472618Y-85004819D01*
X222472618Y-85004819D02*
X222472618Y-86004819D01*
X222853571Y-85004819D02*
X223520237Y-86004819D01*
X223520237Y-85004819D02*
X222853571Y-86004819D01*
X223663095Y-86100057D02*
X224424999Y-86100057D01*
X224615476Y-85957200D02*
X224758333Y-86004819D01*
X224758333Y-86004819D02*
X224996428Y-86004819D01*
X224996428Y-86004819D02*
X225091666Y-85957200D01*
X225091666Y-85957200D02*
X225139285Y-85909580D01*
X225139285Y-85909580D02*
X225186904Y-85814342D01*
X225186904Y-85814342D02*
X225186904Y-85719104D01*
X225186904Y-85719104D02*
X225139285Y-85623866D01*
X225139285Y-85623866D02*
X225091666Y-85576247D01*
X225091666Y-85576247D02*
X224996428Y-85528628D01*
X224996428Y-85528628D02*
X224805952Y-85481009D01*
X224805952Y-85481009D02*
X224710714Y-85433390D01*
X224710714Y-85433390D02*
X224663095Y-85385771D01*
X224663095Y-85385771D02*
X224615476Y-85290533D01*
X224615476Y-85290533D02*
X224615476Y-85195295D01*
X224615476Y-85195295D02*
X224663095Y-85100057D01*
X224663095Y-85100057D02*
X224710714Y-85052438D01*
X224710714Y-85052438D02*
X224805952Y-85004819D01*
X224805952Y-85004819D02*
X225044047Y-85004819D01*
X225044047Y-85004819D02*
X225186904Y-85052438D01*
X225520238Y-85004819D02*
X225758333Y-86004819D01*
X225758333Y-86004819D02*
X225948809Y-85290533D01*
X225948809Y-85290533D02*
X226139285Y-86004819D01*
X226139285Y-86004819D02*
X226377381Y-85004819D01*
X226520238Y-86100057D02*
X227282142Y-86100057D01*
X227520238Y-86004819D02*
X227520238Y-85004819D01*
X227520238Y-85481009D02*
X228091666Y-85481009D01*
X228091666Y-86004819D02*
X228091666Y-85004819D01*
X228520238Y-85957200D02*
X228663095Y-86004819D01*
X228663095Y-86004819D02*
X228901190Y-86004819D01*
X228901190Y-86004819D02*
X228996428Y-85957200D01*
X228996428Y-85957200D02*
X229044047Y-85909580D01*
X229044047Y-85909580D02*
X229091666Y-85814342D01*
X229091666Y-85814342D02*
X229091666Y-85719104D01*
X229091666Y-85719104D02*
X229044047Y-85623866D01*
X229044047Y-85623866D02*
X228996428Y-85576247D01*
X228996428Y-85576247D02*
X228901190Y-85528628D01*
X228901190Y-85528628D02*
X228710714Y-85481009D01*
X228710714Y-85481009D02*
X228615476Y-85433390D01*
X228615476Y-85433390D02*
X228567857Y-85385771D01*
X228567857Y-85385771D02*
X228520238Y-85290533D01*
X228520238Y-85290533D02*
X228520238Y-85195295D01*
X228520238Y-85195295D02*
X228567857Y-85100057D01*
X228567857Y-85100057D02*
X228615476Y-85052438D01*
X228615476Y-85052438D02*
X228710714Y-85004819D01*
X228710714Y-85004819D02*
X228948809Y-85004819D01*
X228948809Y-85004819D02*
X229091666Y-85052438D01*
D11*
X224015476Y-82913855D02*
X224015476Y-82113855D01*
X224015476Y-82113855D02*
X224282142Y-82685283D01*
X224282142Y-82685283D02*
X224548809Y-82113855D01*
X224548809Y-82113855D02*
X224548809Y-82913855D01*
X224853571Y-82113855D02*
X225386905Y-82913855D01*
X225386905Y-82113855D02*
X224853571Y-82913855D01*
X226034524Y-82113855D02*
X225882143Y-82113855D01*
X225882143Y-82113855D02*
X225805952Y-82151950D01*
X225805952Y-82151950D02*
X225767857Y-82190045D01*
X225767857Y-82190045D02*
X225691667Y-82304331D01*
X225691667Y-82304331D02*
X225653571Y-82456712D01*
X225653571Y-82456712D02*
X225653571Y-82761474D01*
X225653571Y-82761474D02*
X225691667Y-82837664D01*
X225691667Y-82837664D02*
X225729762Y-82875760D01*
X225729762Y-82875760D02*
X225805952Y-82913855D01*
X225805952Y-82913855D02*
X225958333Y-82913855D01*
X225958333Y-82913855D02*
X226034524Y-82875760D01*
X226034524Y-82875760D02*
X226072619Y-82837664D01*
X226072619Y-82837664D02*
X226110714Y-82761474D01*
X226110714Y-82761474D02*
X226110714Y-82570998D01*
X226110714Y-82570998D02*
X226072619Y-82494807D01*
X226072619Y-82494807D02*
X226034524Y-82456712D01*
X226034524Y-82456712D02*
X225958333Y-82418617D01*
X225958333Y-82418617D02*
X225805952Y-82418617D01*
X225805952Y-82418617D02*
X225729762Y-82456712D01*
X225729762Y-82456712D02*
X225691667Y-82494807D01*
X225691667Y-82494807D02*
X225653571Y-82570998D01*
X226605953Y-82113855D02*
X226682143Y-82113855D01*
X226682143Y-82113855D02*
X226758334Y-82151950D01*
X226758334Y-82151950D02*
X226796429Y-82190045D01*
X226796429Y-82190045D02*
X226834524Y-82266236D01*
X226834524Y-82266236D02*
X226872619Y-82418617D01*
X226872619Y-82418617D02*
X226872619Y-82609093D01*
X226872619Y-82609093D02*
X226834524Y-82761474D01*
X226834524Y-82761474D02*
X226796429Y-82837664D01*
X226796429Y-82837664D02*
X226758334Y-82875760D01*
X226758334Y-82875760D02*
X226682143Y-82913855D01*
X226682143Y-82913855D02*
X226605953Y-82913855D01*
X226605953Y-82913855D02*
X226529762Y-82875760D01*
X226529762Y-82875760D02*
X226491667Y-82837664D01*
X226491667Y-82837664D02*
X226453572Y-82761474D01*
X226453572Y-82761474D02*
X226415476Y-82609093D01*
X226415476Y-82609093D02*
X226415476Y-82418617D01*
X226415476Y-82418617D02*
X226453572Y-82266236D01*
X226453572Y-82266236D02*
X226491667Y-82190045D01*
X226491667Y-82190045D02*
X226529762Y-82151950D01*
X226529762Y-82151950D02*
X226605953Y-82113855D01*
D10*
X324617319Y-56545834D02*
X324141128Y-56879167D01*
X324617319Y-57117262D02*
X323617319Y-57117262D01*
X323617319Y-57117262D02*
X323617319Y-56736310D01*
X323617319Y-56736310D02*
X323664938Y-56641072D01*
X323664938Y-56641072D02*
X323712557Y-56593453D01*
X323712557Y-56593453D02*
X323807795Y-56545834D01*
X323807795Y-56545834D02*
X323950652Y-56545834D01*
X323950652Y-56545834D02*
X324045890Y-56593453D01*
X324045890Y-56593453D02*
X324093509Y-56641072D01*
X324093509Y-56641072D02*
X324141128Y-56736310D01*
X324141128Y-56736310D02*
X324141128Y-57117262D01*
X324617319Y-55974405D02*
X324569700Y-56069643D01*
X324569700Y-56069643D02*
X324522080Y-56117262D01*
X324522080Y-56117262D02*
X324426842Y-56164881D01*
X324426842Y-56164881D02*
X324141128Y-56164881D01*
X324141128Y-56164881D02*
X324045890Y-56117262D01*
X324045890Y-56117262D02*
X323998271Y-56069643D01*
X323998271Y-56069643D02*
X323950652Y-55974405D01*
X323950652Y-55974405D02*
X323950652Y-55831548D01*
X323950652Y-55831548D02*
X323998271Y-55736310D01*
X323998271Y-55736310D02*
X324045890Y-55688691D01*
X324045890Y-55688691D02*
X324141128Y-55641072D01*
X324141128Y-55641072D02*
X324426842Y-55641072D01*
X324426842Y-55641072D02*
X324522080Y-55688691D01*
X324522080Y-55688691D02*
X324569700Y-55736310D01*
X324569700Y-55736310D02*
X324617319Y-55831548D01*
X324617319Y-55831548D02*
X324617319Y-55974405D01*
X323950652Y-55355357D02*
X323950652Y-54974405D01*
X323617319Y-55212500D02*
X324474461Y-55212500D01*
X324474461Y-55212500D02*
X324569700Y-55164881D01*
X324569700Y-55164881D02*
X324617319Y-55069643D01*
X324617319Y-55069643D02*
X324617319Y-54974405D01*
X324617319Y-54212500D02*
X324093509Y-54212500D01*
X324093509Y-54212500D02*
X323998271Y-54260119D01*
X323998271Y-54260119D02*
X323950652Y-54355357D01*
X323950652Y-54355357D02*
X323950652Y-54545833D01*
X323950652Y-54545833D02*
X323998271Y-54641071D01*
X324569700Y-54212500D02*
X324617319Y-54307738D01*
X324617319Y-54307738D02*
X324617319Y-54545833D01*
X324617319Y-54545833D02*
X324569700Y-54641071D01*
X324569700Y-54641071D02*
X324474461Y-54688690D01*
X324474461Y-54688690D02*
X324379223Y-54688690D01*
X324379223Y-54688690D02*
X324283985Y-54641071D01*
X324283985Y-54641071D02*
X324236366Y-54545833D01*
X324236366Y-54545833D02*
X324236366Y-54307738D01*
X324236366Y-54307738D02*
X324188747Y-54212500D01*
X324617319Y-53736309D02*
X323950652Y-53736309D01*
X324141128Y-53736309D02*
X324045890Y-53688690D01*
X324045890Y-53688690D02*
X323998271Y-53641071D01*
X323998271Y-53641071D02*
X323950652Y-53545833D01*
X323950652Y-53545833D02*
X323950652Y-53450595D01*
X323950652Y-53212499D02*
X324617319Y-52974404D01*
X323950652Y-52736309D02*
X324617319Y-52974404D01*
X324617319Y-52974404D02*
X324855414Y-53069642D01*
X324855414Y-53069642D02*
X324903033Y-53117261D01*
X324903033Y-53117261D02*
X324950652Y-53212499D01*
X324093509Y-52355356D02*
X324093509Y-52022023D01*
X324617319Y-51879166D02*
X324617319Y-52355356D01*
X324617319Y-52355356D02*
X323617319Y-52355356D01*
X323617319Y-52355356D02*
X323617319Y-51879166D01*
X323950652Y-51450594D02*
X324617319Y-51450594D01*
X324045890Y-51450594D02*
X323998271Y-51402975D01*
X323998271Y-51402975D02*
X323950652Y-51307737D01*
X323950652Y-51307737D02*
X323950652Y-51164880D01*
X323950652Y-51164880D02*
X323998271Y-51069642D01*
X323998271Y-51069642D02*
X324093509Y-51022023D01*
X324093509Y-51022023D02*
X324617319Y-51022023D01*
X324569700Y-50117261D02*
X324617319Y-50212499D01*
X324617319Y-50212499D02*
X324617319Y-50402975D01*
X324617319Y-50402975D02*
X324569700Y-50498213D01*
X324569700Y-50498213D02*
X324522080Y-50545832D01*
X324522080Y-50545832D02*
X324426842Y-50593451D01*
X324426842Y-50593451D02*
X324141128Y-50593451D01*
X324141128Y-50593451D02*
X324045890Y-50545832D01*
X324045890Y-50545832D02*
X323998271Y-50498213D01*
X323998271Y-50498213D02*
X323950652Y-50402975D01*
X323950652Y-50402975D02*
X323950652Y-50212499D01*
X323950652Y-50212499D02*
X323998271Y-50117261D01*
X324617319Y-49545832D02*
X324569700Y-49641070D01*
X324569700Y-49641070D02*
X324522080Y-49688689D01*
X324522080Y-49688689D02*
X324426842Y-49736308D01*
X324426842Y-49736308D02*
X324141128Y-49736308D01*
X324141128Y-49736308D02*
X324045890Y-49688689D01*
X324045890Y-49688689D02*
X323998271Y-49641070D01*
X323998271Y-49641070D02*
X323950652Y-49545832D01*
X323950652Y-49545832D02*
X323950652Y-49402975D01*
X323950652Y-49402975D02*
X323998271Y-49307737D01*
X323998271Y-49307737D02*
X324045890Y-49260118D01*
X324045890Y-49260118D02*
X324141128Y-49212499D01*
X324141128Y-49212499D02*
X324426842Y-49212499D01*
X324426842Y-49212499D02*
X324522080Y-49260118D01*
X324522080Y-49260118D02*
X324569700Y-49307737D01*
X324569700Y-49307737D02*
X324617319Y-49402975D01*
X324617319Y-49402975D02*
X324617319Y-49545832D01*
X324617319Y-48355356D02*
X323617319Y-48355356D01*
X324569700Y-48355356D02*
X324617319Y-48450594D01*
X324617319Y-48450594D02*
X324617319Y-48641070D01*
X324617319Y-48641070D02*
X324569700Y-48736308D01*
X324569700Y-48736308D02*
X324522080Y-48783927D01*
X324522080Y-48783927D02*
X324426842Y-48831546D01*
X324426842Y-48831546D02*
X324141128Y-48831546D01*
X324141128Y-48831546D02*
X324045890Y-48783927D01*
X324045890Y-48783927D02*
X323998271Y-48736308D01*
X323998271Y-48736308D02*
X323950652Y-48641070D01*
X323950652Y-48641070D02*
X323950652Y-48450594D01*
X323950652Y-48450594D02*
X323998271Y-48355356D01*
X324569700Y-47498213D02*
X324617319Y-47593451D01*
X324617319Y-47593451D02*
X324617319Y-47783927D01*
X324617319Y-47783927D02*
X324569700Y-47879165D01*
X324569700Y-47879165D02*
X324474461Y-47926784D01*
X324474461Y-47926784D02*
X324093509Y-47926784D01*
X324093509Y-47926784D02*
X323998271Y-47879165D01*
X323998271Y-47879165D02*
X323950652Y-47783927D01*
X323950652Y-47783927D02*
X323950652Y-47593451D01*
X323950652Y-47593451D02*
X323998271Y-47498213D01*
X323998271Y-47498213D02*
X324093509Y-47450594D01*
X324093509Y-47450594D02*
X324188747Y-47450594D01*
X324188747Y-47450594D02*
X324283985Y-47926784D01*
X324617319Y-47022022D02*
X323950652Y-47022022D01*
X324141128Y-47022022D02*
X324045890Y-46974403D01*
X324045890Y-46974403D02*
X323998271Y-46926784D01*
X323998271Y-46926784D02*
X323950652Y-46831546D01*
X323950652Y-46831546D02*
X323950652Y-46736308D01*
X324712557Y-46641070D02*
X324712557Y-45879165D01*
X324569700Y-45688688D02*
X324617319Y-45545831D01*
X324617319Y-45545831D02*
X324617319Y-45307736D01*
X324617319Y-45307736D02*
X324569700Y-45212498D01*
X324569700Y-45212498D02*
X324522080Y-45164879D01*
X324522080Y-45164879D02*
X324426842Y-45117260D01*
X324426842Y-45117260D02*
X324331604Y-45117260D01*
X324331604Y-45117260D02*
X324236366Y-45164879D01*
X324236366Y-45164879D02*
X324188747Y-45212498D01*
X324188747Y-45212498D02*
X324141128Y-45307736D01*
X324141128Y-45307736D02*
X324093509Y-45498212D01*
X324093509Y-45498212D02*
X324045890Y-45593450D01*
X324045890Y-45593450D02*
X323998271Y-45641069D01*
X323998271Y-45641069D02*
X323903033Y-45688688D01*
X323903033Y-45688688D02*
X323807795Y-45688688D01*
X323807795Y-45688688D02*
X323712557Y-45641069D01*
X323712557Y-45641069D02*
X323664938Y-45593450D01*
X323664938Y-45593450D02*
X323617319Y-45498212D01*
X323617319Y-45498212D02*
X323617319Y-45260117D01*
X323617319Y-45260117D02*
X323664938Y-45117260D01*
X323950652Y-44783926D02*
X324617319Y-44593450D01*
X324617319Y-44593450D02*
X324141128Y-44402974D01*
X324141128Y-44402974D02*
X324617319Y-44212498D01*
X324617319Y-44212498D02*
X323950652Y-44022022D01*
X324617319Y-43641069D02*
X323950652Y-43641069D01*
X323617319Y-43641069D02*
X323664938Y-43688688D01*
X323664938Y-43688688D02*
X323712557Y-43641069D01*
X323712557Y-43641069D02*
X323664938Y-43593450D01*
X323664938Y-43593450D02*
X323617319Y-43641069D01*
X323617319Y-43641069D02*
X323712557Y-43641069D01*
X323950652Y-43307736D02*
X323950652Y-42926784D01*
X323617319Y-43164879D02*
X324474461Y-43164879D01*
X324474461Y-43164879D02*
X324569700Y-43117260D01*
X324569700Y-43117260D02*
X324617319Y-43022022D01*
X324617319Y-43022022D02*
X324617319Y-42926784D01*
X324569700Y-42164879D02*
X324617319Y-42260117D01*
X324617319Y-42260117D02*
X324617319Y-42450593D01*
X324617319Y-42450593D02*
X324569700Y-42545831D01*
X324569700Y-42545831D02*
X324522080Y-42593450D01*
X324522080Y-42593450D02*
X324426842Y-42641069D01*
X324426842Y-42641069D02*
X324141128Y-42641069D01*
X324141128Y-42641069D02*
X324045890Y-42593450D01*
X324045890Y-42593450D02*
X323998271Y-42545831D01*
X323998271Y-42545831D02*
X323950652Y-42450593D01*
X323950652Y-42450593D02*
X323950652Y-42260117D01*
X323950652Y-42260117D02*
X323998271Y-42164879D01*
X324617319Y-41736307D02*
X323617319Y-41736307D01*
X324617319Y-41307736D02*
X324093509Y-41307736D01*
X324093509Y-41307736D02*
X323998271Y-41355355D01*
X323998271Y-41355355D02*
X323950652Y-41450593D01*
X323950652Y-41450593D02*
X323950652Y-41593450D01*
X323950652Y-41593450D02*
X323998271Y-41688688D01*
X323998271Y-41688688D02*
X324045890Y-41736307D01*
X314579167Y-49619700D02*
X314722024Y-49667319D01*
X314722024Y-49667319D02*
X314960119Y-49667319D01*
X314960119Y-49667319D02*
X315055357Y-49619700D01*
X315055357Y-49619700D02*
X315102976Y-49572080D01*
X315102976Y-49572080D02*
X315150595Y-49476842D01*
X315150595Y-49476842D02*
X315150595Y-49381604D01*
X315150595Y-49381604D02*
X315102976Y-49286366D01*
X315102976Y-49286366D02*
X315055357Y-49238747D01*
X315055357Y-49238747D02*
X314960119Y-49191128D01*
X314960119Y-49191128D02*
X314769643Y-49143509D01*
X314769643Y-49143509D02*
X314674405Y-49095890D01*
X314674405Y-49095890D02*
X314626786Y-49048271D01*
X314626786Y-49048271D02*
X314579167Y-48953033D01*
X314579167Y-48953033D02*
X314579167Y-48857795D01*
X314579167Y-48857795D02*
X314626786Y-48762557D01*
X314626786Y-48762557D02*
X314674405Y-48714938D01*
X314674405Y-48714938D02*
X314769643Y-48667319D01*
X314769643Y-48667319D02*
X315007738Y-48667319D01*
X315007738Y-48667319D02*
X315150595Y-48714938D01*
X315483929Y-48667319D02*
X315722024Y-49667319D01*
X315722024Y-49667319D02*
X315912500Y-48953033D01*
X315912500Y-48953033D02*
X316102976Y-49667319D01*
X316102976Y-49667319D02*
X316341072Y-48667319D01*
X316674405Y-48762557D02*
X316722024Y-48714938D01*
X316722024Y-48714938D02*
X316817262Y-48667319D01*
X316817262Y-48667319D02*
X317055357Y-48667319D01*
X317055357Y-48667319D02*
X317150595Y-48714938D01*
X317150595Y-48714938D02*
X317198214Y-48762557D01*
X317198214Y-48762557D02*
X317245833Y-48857795D01*
X317245833Y-48857795D02*
X317245833Y-48953033D01*
X317245833Y-48953033D02*
X317198214Y-49095890D01*
X317198214Y-49095890D02*
X316626786Y-49667319D01*
X316626786Y-49667319D02*
X317245833Y-49667319D01*
X324617319Y-32733334D02*
X324141128Y-33066667D01*
X324617319Y-33304762D02*
X323617319Y-33304762D01*
X323617319Y-33304762D02*
X323617319Y-32923810D01*
X323617319Y-32923810D02*
X323664938Y-32828572D01*
X323664938Y-32828572D02*
X323712557Y-32780953D01*
X323712557Y-32780953D02*
X323807795Y-32733334D01*
X323807795Y-32733334D02*
X323950652Y-32733334D01*
X323950652Y-32733334D02*
X324045890Y-32780953D01*
X324045890Y-32780953D02*
X324093509Y-32828572D01*
X324093509Y-32828572D02*
X324141128Y-32923810D01*
X324141128Y-32923810D02*
X324141128Y-33304762D01*
X324617319Y-32161905D02*
X324569700Y-32257143D01*
X324569700Y-32257143D02*
X324522080Y-32304762D01*
X324522080Y-32304762D02*
X324426842Y-32352381D01*
X324426842Y-32352381D02*
X324141128Y-32352381D01*
X324141128Y-32352381D02*
X324045890Y-32304762D01*
X324045890Y-32304762D02*
X323998271Y-32257143D01*
X323998271Y-32257143D02*
X323950652Y-32161905D01*
X323950652Y-32161905D02*
X323950652Y-32019048D01*
X323950652Y-32019048D02*
X323998271Y-31923810D01*
X323998271Y-31923810D02*
X324045890Y-31876191D01*
X324045890Y-31876191D02*
X324141128Y-31828572D01*
X324141128Y-31828572D02*
X324426842Y-31828572D01*
X324426842Y-31828572D02*
X324522080Y-31876191D01*
X324522080Y-31876191D02*
X324569700Y-31923810D01*
X324569700Y-31923810D02*
X324617319Y-32019048D01*
X324617319Y-32019048D02*
X324617319Y-32161905D01*
X323950652Y-31542857D02*
X323950652Y-31161905D01*
X323617319Y-31400000D02*
X324474461Y-31400000D01*
X324474461Y-31400000D02*
X324569700Y-31352381D01*
X324569700Y-31352381D02*
X324617319Y-31257143D01*
X324617319Y-31257143D02*
X324617319Y-31161905D01*
X324617319Y-30400000D02*
X324093509Y-30400000D01*
X324093509Y-30400000D02*
X323998271Y-30447619D01*
X323998271Y-30447619D02*
X323950652Y-30542857D01*
X323950652Y-30542857D02*
X323950652Y-30733333D01*
X323950652Y-30733333D02*
X323998271Y-30828571D01*
X324569700Y-30400000D02*
X324617319Y-30495238D01*
X324617319Y-30495238D02*
X324617319Y-30733333D01*
X324617319Y-30733333D02*
X324569700Y-30828571D01*
X324569700Y-30828571D02*
X324474461Y-30876190D01*
X324474461Y-30876190D02*
X324379223Y-30876190D01*
X324379223Y-30876190D02*
X324283985Y-30828571D01*
X324283985Y-30828571D02*
X324236366Y-30733333D01*
X324236366Y-30733333D02*
X324236366Y-30495238D01*
X324236366Y-30495238D02*
X324188747Y-30400000D01*
X324617319Y-29923809D02*
X323950652Y-29923809D01*
X324141128Y-29923809D02*
X324045890Y-29876190D01*
X324045890Y-29876190D02*
X323998271Y-29828571D01*
X323998271Y-29828571D02*
X323950652Y-29733333D01*
X323950652Y-29733333D02*
X323950652Y-29638095D01*
X323950652Y-29399999D02*
X324617319Y-29161904D01*
X323950652Y-28923809D02*
X324617319Y-29161904D01*
X324617319Y-29161904D02*
X324855414Y-29257142D01*
X324855414Y-29257142D02*
X324903033Y-29304761D01*
X324903033Y-29304761D02*
X324950652Y-29399999D01*
X324093509Y-28542856D02*
X324093509Y-28209523D01*
X324617319Y-28066666D02*
X324617319Y-28542856D01*
X324617319Y-28542856D02*
X323617319Y-28542856D01*
X323617319Y-28542856D02*
X323617319Y-28066666D01*
X323950652Y-27638094D02*
X324617319Y-27638094D01*
X324045890Y-27638094D02*
X323998271Y-27590475D01*
X323998271Y-27590475D02*
X323950652Y-27495237D01*
X323950652Y-27495237D02*
X323950652Y-27352380D01*
X323950652Y-27352380D02*
X323998271Y-27257142D01*
X323998271Y-27257142D02*
X324093509Y-27209523D01*
X324093509Y-27209523D02*
X324617319Y-27209523D01*
X324569700Y-26304761D02*
X324617319Y-26399999D01*
X324617319Y-26399999D02*
X324617319Y-26590475D01*
X324617319Y-26590475D02*
X324569700Y-26685713D01*
X324569700Y-26685713D02*
X324522080Y-26733332D01*
X324522080Y-26733332D02*
X324426842Y-26780951D01*
X324426842Y-26780951D02*
X324141128Y-26780951D01*
X324141128Y-26780951D02*
X324045890Y-26733332D01*
X324045890Y-26733332D02*
X323998271Y-26685713D01*
X323998271Y-26685713D02*
X323950652Y-26590475D01*
X323950652Y-26590475D02*
X323950652Y-26399999D01*
X323950652Y-26399999D02*
X323998271Y-26304761D01*
X324617319Y-25733332D02*
X324569700Y-25828570D01*
X324569700Y-25828570D02*
X324522080Y-25876189D01*
X324522080Y-25876189D02*
X324426842Y-25923808D01*
X324426842Y-25923808D02*
X324141128Y-25923808D01*
X324141128Y-25923808D02*
X324045890Y-25876189D01*
X324045890Y-25876189D02*
X323998271Y-25828570D01*
X323998271Y-25828570D02*
X323950652Y-25733332D01*
X323950652Y-25733332D02*
X323950652Y-25590475D01*
X323950652Y-25590475D02*
X323998271Y-25495237D01*
X323998271Y-25495237D02*
X324045890Y-25447618D01*
X324045890Y-25447618D02*
X324141128Y-25399999D01*
X324141128Y-25399999D02*
X324426842Y-25399999D01*
X324426842Y-25399999D02*
X324522080Y-25447618D01*
X324522080Y-25447618D02*
X324569700Y-25495237D01*
X324569700Y-25495237D02*
X324617319Y-25590475D01*
X324617319Y-25590475D02*
X324617319Y-25733332D01*
X324617319Y-24542856D02*
X323617319Y-24542856D01*
X324569700Y-24542856D02*
X324617319Y-24638094D01*
X324617319Y-24638094D02*
X324617319Y-24828570D01*
X324617319Y-24828570D02*
X324569700Y-24923808D01*
X324569700Y-24923808D02*
X324522080Y-24971427D01*
X324522080Y-24971427D02*
X324426842Y-25019046D01*
X324426842Y-25019046D02*
X324141128Y-25019046D01*
X324141128Y-25019046D02*
X324045890Y-24971427D01*
X324045890Y-24971427D02*
X323998271Y-24923808D01*
X323998271Y-24923808D02*
X323950652Y-24828570D01*
X323950652Y-24828570D02*
X323950652Y-24638094D01*
X323950652Y-24638094D02*
X323998271Y-24542856D01*
X324569700Y-23685713D02*
X324617319Y-23780951D01*
X324617319Y-23780951D02*
X324617319Y-23971427D01*
X324617319Y-23971427D02*
X324569700Y-24066665D01*
X324569700Y-24066665D02*
X324474461Y-24114284D01*
X324474461Y-24114284D02*
X324093509Y-24114284D01*
X324093509Y-24114284D02*
X323998271Y-24066665D01*
X323998271Y-24066665D02*
X323950652Y-23971427D01*
X323950652Y-23971427D02*
X323950652Y-23780951D01*
X323950652Y-23780951D02*
X323998271Y-23685713D01*
X323998271Y-23685713D02*
X324093509Y-23638094D01*
X324093509Y-23638094D02*
X324188747Y-23638094D01*
X324188747Y-23638094D02*
X324283985Y-24114284D01*
X324617319Y-23209522D02*
X323950652Y-23209522D01*
X324141128Y-23209522D02*
X324045890Y-23161903D01*
X324045890Y-23161903D02*
X323998271Y-23114284D01*
X323998271Y-23114284D02*
X323950652Y-23019046D01*
X323950652Y-23019046D02*
X323950652Y-22923808D01*
X324712557Y-22828570D02*
X324712557Y-22066665D01*
X324569700Y-21876188D02*
X324617319Y-21733331D01*
X324617319Y-21733331D02*
X324617319Y-21495236D01*
X324617319Y-21495236D02*
X324569700Y-21399998D01*
X324569700Y-21399998D02*
X324522080Y-21352379D01*
X324522080Y-21352379D02*
X324426842Y-21304760D01*
X324426842Y-21304760D02*
X324331604Y-21304760D01*
X324331604Y-21304760D02*
X324236366Y-21352379D01*
X324236366Y-21352379D02*
X324188747Y-21399998D01*
X324188747Y-21399998D02*
X324141128Y-21495236D01*
X324141128Y-21495236D02*
X324093509Y-21685712D01*
X324093509Y-21685712D02*
X324045890Y-21780950D01*
X324045890Y-21780950D02*
X323998271Y-21828569D01*
X323998271Y-21828569D02*
X323903033Y-21876188D01*
X323903033Y-21876188D02*
X323807795Y-21876188D01*
X323807795Y-21876188D02*
X323712557Y-21828569D01*
X323712557Y-21828569D02*
X323664938Y-21780950D01*
X323664938Y-21780950D02*
X323617319Y-21685712D01*
X323617319Y-21685712D02*
X323617319Y-21447617D01*
X323617319Y-21447617D02*
X323664938Y-21304760D01*
X323950652Y-20971426D02*
X324617319Y-20780950D01*
X324617319Y-20780950D02*
X324141128Y-20590474D01*
X324141128Y-20590474D02*
X324617319Y-20399998D01*
X324617319Y-20399998D02*
X323950652Y-20209522D01*
X324617319Y-19828569D02*
X323950652Y-19828569D01*
X323617319Y-19828569D02*
X323664938Y-19876188D01*
X323664938Y-19876188D02*
X323712557Y-19828569D01*
X323712557Y-19828569D02*
X323664938Y-19780950D01*
X323664938Y-19780950D02*
X323617319Y-19828569D01*
X323617319Y-19828569D02*
X323712557Y-19828569D01*
X323950652Y-19495236D02*
X323950652Y-19114284D01*
X323617319Y-19352379D02*
X324474461Y-19352379D01*
X324474461Y-19352379D02*
X324569700Y-19304760D01*
X324569700Y-19304760D02*
X324617319Y-19209522D01*
X324617319Y-19209522D02*
X324617319Y-19114284D01*
X324569700Y-18352379D02*
X324617319Y-18447617D01*
X324617319Y-18447617D02*
X324617319Y-18638093D01*
X324617319Y-18638093D02*
X324569700Y-18733331D01*
X324569700Y-18733331D02*
X324522080Y-18780950D01*
X324522080Y-18780950D02*
X324426842Y-18828569D01*
X324426842Y-18828569D02*
X324141128Y-18828569D01*
X324141128Y-18828569D02*
X324045890Y-18780950D01*
X324045890Y-18780950D02*
X323998271Y-18733331D01*
X323998271Y-18733331D02*
X323950652Y-18638093D01*
X323950652Y-18638093D02*
X323950652Y-18447617D01*
X323950652Y-18447617D02*
X323998271Y-18352379D01*
X324617319Y-17923807D02*
X323617319Y-17923807D01*
X324617319Y-17495236D02*
X324093509Y-17495236D01*
X324093509Y-17495236D02*
X323998271Y-17542855D01*
X323998271Y-17542855D02*
X323950652Y-17638093D01*
X323950652Y-17638093D02*
X323950652Y-17780950D01*
X323950652Y-17780950D02*
X323998271Y-17876188D01*
X323998271Y-17876188D02*
X324045890Y-17923807D01*
X314579167Y-25807200D02*
X314722024Y-25854819D01*
X314722024Y-25854819D02*
X314960119Y-25854819D01*
X314960119Y-25854819D02*
X315055357Y-25807200D01*
X315055357Y-25807200D02*
X315102976Y-25759580D01*
X315102976Y-25759580D02*
X315150595Y-25664342D01*
X315150595Y-25664342D02*
X315150595Y-25569104D01*
X315150595Y-25569104D02*
X315102976Y-25473866D01*
X315102976Y-25473866D02*
X315055357Y-25426247D01*
X315055357Y-25426247D02*
X314960119Y-25378628D01*
X314960119Y-25378628D02*
X314769643Y-25331009D01*
X314769643Y-25331009D02*
X314674405Y-25283390D01*
X314674405Y-25283390D02*
X314626786Y-25235771D01*
X314626786Y-25235771D02*
X314579167Y-25140533D01*
X314579167Y-25140533D02*
X314579167Y-25045295D01*
X314579167Y-25045295D02*
X314626786Y-24950057D01*
X314626786Y-24950057D02*
X314674405Y-24902438D01*
X314674405Y-24902438D02*
X314769643Y-24854819D01*
X314769643Y-24854819D02*
X315007738Y-24854819D01*
X315007738Y-24854819D02*
X315150595Y-24902438D01*
X315483929Y-24854819D02*
X315722024Y-25854819D01*
X315722024Y-25854819D02*
X315912500Y-25140533D01*
X315912500Y-25140533D02*
X316102976Y-25854819D01*
X316102976Y-25854819D02*
X316341072Y-24854819D01*
X317245833Y-25854819D02*
X316674405Y-25854819D01*
X316960119Y-25854819D02*
X316960119Y-24854819D01*
X316960119Y-24854819D02*
X316864881Y-24997676D01*
X316864881Y-24997676D02*
X316769643Y-25092914D01*
X316769643Y-25092914D02*
X316674405Y-25140533D01*
D11*
G04 #@! TO.C,SW2*
X310112500Y-43212500D02*
X321712500Y-43212500D01*
X310112500Y-54212500D02*
X310112500Y-43212500D01*
X311212500Y-55212500D02*
X310112500Y-54212500D01*
X321712500Y-43212500D02*
X321712500Y-55212500D01*
X321712500Y-55212500D02*
X311212500Y-55212500D01*
G04 #@! TO.C,SW1*
X310112500Y-19400000D02*
X321712500Y-19400000D01*
X310112500Y-30400000D02*
X310112500Y-19400000D01*
X311212500Y-31400000D02*
X310112500Y-30400000D01*
X321712500Y-19400000D02*
X321712500Y-31400000D01*
X321712500Y-31400000D02*
X311212500Y-31400000D01*
G04 #@! TD*
M02*
