G04 #@! TF.GenerationSoftware,KiCad,Pcbnew,8.0.4-1.fc39*
G04 #@! TF.CreationDate,2024-09-17T21:02:33-04:00*
G04 #@! TF.ProjectId,Q9-Chimera,51392d43-6869-46d6-9572-612e6b696361,rev?*
G04 #@! TF.SameCoordinates,Original*
G04 #@! TF.FileFunction,Other,ECO2*
%FSLAX46Y46*%
G04 Gerber Fmt 4.6, Leading zero omitted, Abs format (unit mm)*
G04 Created by KiCad (PCBNEW 8.0.4-1.fc39) date 2024-09-17 21:02:33*
%MOMM*%
%LPD*%
G01*
G04 APERTURE LIST*
%ADD10C,0.050000*%
G04 APERTURE END LIST*
D10*
G04 #@! TO.C,MX53*
X118125000Y-76050000D02*
X118125000Y-89050000D01*
X117625000Y-89550000D02*
X104625000Y-89550000D01*
X104625000Y-75550000D02*
X117625000Y-75550000D01*
X104125000Y-89050000D02*
X104125000Y-76050000D01*
X118125000Y-89050000D02*
G75*
G02*
X117625000Y-89550000I-500001J1D01*
G01*
X117625000Y-75550000D02*
G75*
G02*
X118125000Y-76050000I-1J-500001D01*
G01*
X104625000Y-89550000D02*
G75*
G02*
X104125000Y-89050000I0J500000D01*
G01*
X104127764Y-76051116D02*
G75*
G02*
X104627764Y-75551064I500036J16D01*
G01*
G04 #@! TO.C,MX95*
X137174904Y-76049992D02*
X137174904Y-89049992D01*
X136674904Y-89549992D02*
X123674904Y-89549992D01*
X123674904Y-75549992D02*
X136674904Y-75549992D01*
X123174904Y-89049992D02*
X123174904Y-76049992D01*
X137174904Y-89049992D02*
G75*
G02*
X136674904Y-89549992I-500001J1D01*
G01*
X136674904Y-75549992D02*
G75*
G02*
X137174904Y-76049992I-1J-500001D01*
G01*
X123674904Y-89549992D02*
G75*
G02*
X123174904Y-89049992I0J500000D01*
G01*
X123177668Y-76051108D02*
G75*
G02*
X123677668Y-75551056I500036J16D01*
G01*
G04 #@! TO.C,MX60*
X232425000Y-76050000D02*
X232425000Y-89050000D01*
X231925000Y-89550000D02*
X218925000Y-89550000D01*
X218925000Y-75550000D02*
X231925000Y-75550000D01*
X218425000Y-89050000D02*
X218425000Y-76050000D01*
X232425000Y-89050000D02*
G75*
G02*
X231925000Y-89550000I-500001J1D01*
G01*
X231925000Y-75550000D02*
G75*
G02*
X232425000Y-76050000I-1J-500001D01*
G01*
X218925000Y-89550000D02*
G75*
G02*
X218425000Y-89050000I0J500000D01*
G01*
X218427764Y-76051116D02*
G75*
G02*
X218927764Y-75551064I500036J16D01*
G01*
G04 #@! TO.C,MX9*
X170800000Y-18900000D02*
X170800000Y-31900000D01*
X171300000Y-32400000D02*
X184300000Y-32400000D01*
X184300000Y-18400000D02*
X171300000Y-18400000D01*
X184800000Y-31900000D02*
X184800000Y-18900000D01*
X170800000Y-18900000D02*
G75*
G02*
X171300000Y-18400000I500000J0D01*
G01*
X171300000Y-32400000D02*
G75*
G02*
X170800000Y-31900000I0J500000D01*
G01*
X184300000Y-18400000D02*
G75*
G02*
X184800000Y-18900000I-1J-500001D01*
G01*
X184797236Y-31898884D02*
G75*
G02*
X184297236Y-32398884I-500001J1D01*
G01*
G04 #@! TO.C,MX20*
X75550000Y-37950000D02*
X75550000Y-50950000D01*
X76050000Y-51450000D02*
X89050000Y-51450000D01*
X89050000Y-37450000D02*
X76050000Y-37450000D01*
X89550000Y-50950000D02*
X89550000Y-37950000D01*
X75550000Y-37950000D02*
G75*
G02*
X76050000Y-37450000I500000J0D01*
G01*
X76050000Y-51450000D02*
G75*
G02*
X75550000Y-50950000I0J500000D01*
G01*
X89050000Y-37450000D02*
G75*
G02*
X89550000Y-37950000I-1J-500001D01*
G01*
X89547236Y-50948884D02*
G75*
G02*
X89047236Y-51448884I-500001J1D01*
G01*
G04 #@! TO.C,MX90*
X225568568Y-57000000D02*
X225568568Y-70000000D01*
X226068568Y-70500000D02*
X239068568Y-70500000D01*
X239068568Y-56500000D02*
X226068568Y-56500000D01*
X239568568Y-70000000D02*
X239568568Y-57000000D01*
X225568568Y-57000000D02*
G75*
G02*
X226068568Y-56500000I500000J0D01*
G01*
X226068568Y-70500000D02*
G75*
G02*
X225568568Y-70000000I0J500000D01*
G01*
X239068568Y-56500000D02*
G75*
G02*
X239568568Y-57000000I-1J-500001D01*
G01*
X239565804Y-69998884D02*
G75*
G02*
X239065804Y-70498884I-500001J1D01*
G01*
G04 #@! TO.C,MX49*
X37450000Y-76050000D02*
X37450000Y-89050000D01*
X37950000Y-89550000D02*
X50950000Y-89550000D01*
X50950000Y-75550000D02*
X37950000Y-75550000D01*
X51450000Y-89050000D02*
X51450000Y-76050000D01*
X37450000Y-76050000D02*
G75*
G02*
X37950000Y-75550000I500000J0D01*
G01*
X37950000Y-89550000D02*
G75*
G02*
X37450000Y-89050000I0J500000D01*
G01*
X50950000Y-75550000D02*
G75*
G02*
X51450000Y-76050000I-1J-500001D01*
G01*
X51447236Y-89048884D02*
G75*
G02*
X50947236Y-89548884I-500001J1D01*
G01*
G04 #@! TO.C,MX36*
X75550000Y-57000000D02*
X75550000Y-70000000D01*
X76050000Y-70500000D02*
X89050000Y-70500000D01*
X89050000Y-56500000D02*
X76050000Y-56500000D01*
X89550000Y-70000000D02*
X89550000Y-57000000D01*
X75552764Y-57001116D02*
G75*
G02*
X76052764Y-56501116I500001J-1D01*
G01*
X76050000Y-70500000D02*
G75*
G02*
X75550000Y-70000000I1J500001D01*
G01*
X89050000Y-56500000D02*
G75*
G02*
X89550000Y-57000000I0J-500000D01*
G01*
X89550000Y-70000000D02*
G75*
G02*
X89050000Y-70500000I-500000J0D01*
G01*
G04 #@! TO.C,MX16*
X308912500Y-18900000D02*
X308912500Y-31900000D01*
X309412500Y-32400000D02*
X322412500Y-32400000D01*
X322412500Y-18400000D02*
X309412500Y-18400000D01*
X322912500Y-31900000D02*
X322912500Y-18900000D01*
X308912500Y-18900000D02*
G75*
G02*
X309412500Y-18400000I500000J0D01*
G01*
X309412500Y-32400000D02*
G75*
G02*
X308912500Y-31900000I0J500000D01*
G01*
X322412500Y-18400000D02*
G75*
G02*
X322912500Y-18900000I-1J-500001D01*
G01*
X322909736Y-31898884D02*
G75*
G02*
X322409736Y-32398884I-500001J1D01*
G01*
G04 #@! TO.C,MX5*
X94600000Y-18900000D02*
X94600000Y-31900000D01*
X95100000Y-32400000D02*
X108100000Y-32400000D01*
X108100000Y-18400000D02*
X95100000Y-18400000D01*
X108600000Y-31900000D02*
X108600000Y-18900000D01*
X94600000Y-18900000D02*
G75*
G02*
X95100000Y-18400000I500000J0D01*
G01*
X95100000Y-32400000D02*
G75*
G02*
X94600000Y-31900000I0J500000D01*
G01*
X108100000Y-18400000D02*
G75*
G02*
X108600000Y-18900000I-1J-500001D01*
G01*
X108597236Y-31898884D02*
G75*
G02*
X108097236Y-32398884I-500001J1D01*
G01*
G04 #@! TO.C,MX37*
X94600000Y-57000000D02*
X94600000Y-70000000D01*
X95100000Y-70500000D02*
X108100000Y-70500000D01*
X108100000Y-56500000D02*
X95100000Y-56500000D01*
X108600000Y-70000000D02*
X108600000Y-57000000D01*
X94602764Y-57001116D02*
G75*
G02*
X95102764Y-56501116I500001J-1D01*
G01*
X95100000Y-70500000D02*
G75*
G02*
X94600000Y-70000000I1J500001D01*
G01*
X108100000Y-56500000D02*
G75*
G02*
X108600000Y-57000000I0J-500000D01*
G01*
X108600000Y-70000000D02*
G75*
G02*
X108100000Y-70500000I-500000J0D01*
G01*
G04 #@! TO.C,MX82*
X70787448Y-57000000D02*
X70787448Y-70000000D01*
X71287448Y-70500000D02*
X84287448Y-70500000D01*
X84287448Y-56500000D02*
X71287448Y-56500000D01*
X84787448Y-70000000D02*
X84787448Y-57000000D01*
X70787448Y-57000000D02*
G75*
G02*
X71287448Y-56500000I500000J0D01*
G01*
X71287448Y-70500000D02*
G75*
G02*
X70787448Y-70000000I0J500000D01*
G01*
X84287448Y-56500000D02*
G75*
G02*
X84787448Y-57000000I-1J-500001D01*
G01*
X84784684Y-69998884D02*
G75*
G02*
X84284684Y-70498884I-500001J1D01*
G01*
G04 #@! TO.C,MX44*
X227950000Y-57000000D02*
X227950000Y-70000000D01*
X228450000Y-70500000D02*
X241450000Y-70500000D01*
X241450000Y-56500000D02*
X228450000Y-56500000D01*
X241950000Y-70000000D02*
X241950000Y-57000000D01*
X227952764Y-57001116D02*
G75*
G02*
X228452764Y-56501116I500001J-1D01*
G01*
X228450000Y-70500000D02*
G75*
G02*
X227950000Y-70000000I1J500001D01*
G01*
X241450000Y-56500000D02*
G75*
G02*
X241950000Y-57000000I0J-500000D01*
G01*
X241950000Y-70000000D02*
G75*
G02*
X241450000Y-70500000I-500000J0D01*
G01*
G04 #@! TO.C,MX30*
X266050000Y-37950000D02*
X266050000Y-50950000D01*
X266550000Y-51450000D02*
X279550000Y-51450000D01*
X279550000Y-37450000D02*
X266550000Y-37450000D01*
X280050000Y-50950000D02*
X280050000Y-37950000D01*
X266050000Y-37950000D02*
G75*
G02*
X266550000Y-37450000I500000J0D01*
G01*
X266550000Y-51450000D02*
G75*
G02*
X266050000Y-50950000I0J500000D01*
G01*
X279550000Y-37450000D02*
G75*
G02*
X280050000Y-37950000I-1J-500001D01*
G01*
X280047236Y-50948884D02*
G75*
G02*
X279547236Y-51448884I-500001J1D01*
G01*
G04 #@! TO.C,MX52*
X94600000Y-76049999D02*
X94600000Y-89050001D01*
X95099999Y-89550000D02*
X108100001Y-89550000D01*
X108100001Y-75550000D02*
X95099999Y-75550000D01*
X108600000Y-89050001D02*
X108600000Y-76049999D01*
X94600000Y-76049999D02*
G75*
G02*
X95099999Y-75550000I500000J-1D01*
G01*
X95099999Y-89550000D02*
G75*
G02*
X94600000Y-89050001I1J500000D01*
G01*
X108100001Y-75550000D02*
G75*
G02*
X108600000Y-76049999I-2J-500001D01*
G01*
X108597236Y-89048884D02*
G75*
G02*
X108097236Y-89548884I-500001J1D01*
G01*
G04 #@! TO.C,MX50*
X56500000Y-76050000D02*
X56500000Y-89050000D01*
X57000000Y-89550000D02*
X70000000Y-89550000D01*
X70000000Y-75550000D02*
X57000000Y-75550000D01*
X70500000Y-89050000D02*
X70500000Y-76050000D01*
X56500000Y-76050000D02*
G75*
G02*
X57000000Y-75550000I500000J0D01*
G01*
X57000000Y-89550000D02*
G75*
G02*
X56500000Y-89050000I0J500000D01*
G01*
X70000000Y-75550000D02*
G75*
G02*
X70500000Y-76050000I-1J-500001D01*
G01*
X70497236Y-89048884D02*
G75*
G02*
X69997236Y-89548884I-500001J1D01*
G01*
G04 #@! TO.C,MX83*
X89837432Y-57000000D02*
X89837432Y-70000000D01*
X90337432Y-70500000D02*
X103337432Y-70500000D01*
X103337432Y-56500000D02*
X90337432Y-56500000D01*
X103837432Y-70000000D02*
X103837432Y-57000000D01*
X89837432Y-57000000D02*
G75*
G02*
X90337432Y-56500000I500000J0D01*
G01*
X90337432Y-70500000D02*
G75*
G02*
X89837432Y-70000000I0J500000D01*
G01*
X103337432Y-56500000D02*
G75*
G02*
X103837432Y-57000000I-1J-500001D01*
G01*
X103834668Y-69998884D02*
G75*
G02*
X103334668Y-70498884I-500001J1D01*
G01*
G04 #@! TO.C,MX74*
X118412408Y-37950000D02*
X118412408Y-50950000D01*
X118912408Y-51450000D02*
X131912408Y-51450000D01*
X131912408Y-37450000D02*
X118912408Y-37450000D01*
X132412408Y-50950000D02*
X132412408Y-37950000D01*
X118415172Y-37951116D02*
G75*
G02*
X118915172Y-37451116I500001J-1D01*
G01*
X118912408Y-51450000D02*
G75*
G02*
X118412408Y-50950000I1J500001D01*
G01*
X131912408Y-37450000D02*
G75*
G02*
X132412408Y-37950000I0J-500000D01*
G01*
X132412408Y-50950000D02*
G75*
G02*
X131912408Y-51450000I-500000J0D01*
G01*
G04 #@! TO.C,MX47*
X285100000Y-57000000D02*
X285100000Y-70000000D01*
X285600000Y-70500000D02*
X298600000Y-70500000D01*
X298600000Y-56500000D02*
X285600000Y-56500000D01*
X299100000Y-70000000D02*
X299100000Y-57000000D01*
X285100000Y-57000000D02*
G75*
G02*
X285600000Y-56500000I500000J0D01*
G01*
X285600000Y-70500000D02*
G75*
G02*
X285100000Y-70000000I0J500000D01*
G01*
X298600000Y-56500000D02*
G75*
G02*
X299100000Y-57000000I-1J-500001D01*
G01*
X299097236Y-69998884D02*
G75*
G02*
X298597236Y-70498884I-500001J1D01*
G01*
G04 #@! TO.C,MX73*
X99362424Y-37950000D02*
X99362424Y-50950000D01*
X99862424Y-51450000D02*
X112862424Y-51450000D01*
X112862424Y-37450000D02*
X99862424Y-37450000D01*
X113362424Y-50950000D02*
X113362424Y-37950000D01*
X99365188Y-37951116D02*
G75*
G02*
X99865188Y-37451116I500001J-1D01*
G01*
X99862424Y-51450000D02*
G75*
G02*
X99362424Y-50950000I1J500001D01*
G01*
X112862424Y-37450000D02*
G75*
G02*
X113362424Y-37950000I0J-500000D01*
G01*
X113362424Y-50950000D02*
G75*
G02*
X112862424Y-51450000I-500000J0D01*
G01*
G04 #@! TO.C,MX1*
X18400000Y-18900000D02*
X18400000Y-31900000D01*
X18900000Y-32400000D02*
X31900000Y-32400000D01*
X31900000Y-18400000D02*
X18900000Y-18400000D01*
X32400000Y-31900000D02*
X32400000Y-18900000D01*
X18400000Y-18900000D02*
G75*
G02*
X18900000Y-18400000I500000J0D01*
G01*
X18900000Y-32400000D02*
G75*
G02*
X18400000Y-31900000I0J500000D01*
G01*
X31900000Y-18400000D02*
G75*
G02*
X32400000Y-18900000I-1J-500001D01*
G01*
X32397236Y-31898884D02*
G75*
G02*
X31897236Y-32398884I-500001J1D01*
G01*
G04 #@! TO.C,MX65*
X304150000Y-76050000D02*
X304150000Y-89050000D01*
X304650000Y-89550000D02*
X317650000Y-89550000D01*
X317650000Y-75550000D02*
X304650000Y-75550000D01*
X318150000Y-89050000D02*
X318150000Y-76050000D01*
X304150000Y-76050000D02*
G75*
G02*
X304650000Y-75550000I500000J0D01*
G01*
X304650000Y-89550000D02*
G75*
G02*
X304150000Y-89050000I0J500000D01*
G01*
X317650000Y-75550000D02*
G75*
G02*
X318150000Y-76050000I-1J-500001D01*
G01*
X318147236Y-89048884D02*
G75*
G02*
X317647236Y-89548884I-500001J1D01*
G01*
G04 #@! TO.C,S2*
X133943750Y-75049999D02*
X133943750Y-88049999D01*
X140193750Y-74549999D02*
X134443750Y-74549999D01*
X140193750Y-88549999D02*
X134443750Y-88549999D01*
X140693750Y-75049999D02*
X140693750Y-88049999D01*
X157756250Y-75049999D02*
X157756250Y-88049999D01*
X164005039Y-88549999D02*
X158256250Y-88549999D01*
X164006250Y-74549999D02*
X158256250Y-74549999D01*
X164506250Y-75049999D02*
X164505039Y-88049999D01*
X133943750Y-75049999D02*
G75*
G02*
X134443750Y-74549999I500001J-1D01*
G01*
X134443750Y-88549999D02*
G75*
G02*
X133943750Y-88049999I1J500001D01*
G01*
X140193750Y-74549999D02*
G75*
G02*
X140693750Y-75049999I-1J-500001D01*
G01*
X140693750Y-88049999D02*
G75*
G02*
X140193750Y-88549999I-500001J1D01*
G01*
X157756250Y-75049999D02*
G75*
G02*
X158256250Y-74550000I499970J29D01*
G01*
X158256250Y-88549999D02*
G75*
G02*
X157756201Y-88049999I50J500099D01*
G01*
X164006250Y-74549999D02*
G75*
G02*
X164506301Y-75049999I-50J-500101D01*
G01*
X164505039Y-88049999D02*
G75*
G02*
X164005039Y-88549999I-500039J39D01*
G01*
G04 #@! TO.C,MX84*
X108887416Y-57000000D02*
X108887416Y-70000000D01*
X109387416Y-70500000D02*
X122387416Y-70500000D01*
X122387416Y-56500000D02*
X109387416Y-56500000D01*
X122887416Y-70000000D02*
X122887416Y-57000000D01*
X108887416Y-57000000D02*
G75*
G02*
X109387416Y-56500000I500000J0D01*
G01*
X109387416Y-70500000D02*
G75*
G02*
X108887416Y-70000000I0J500000D01*
G01*
X122387416Y-56500000D02*
G75*
G02*
X122887416Y-57000000I-1J-500001D01*
G01*
X122884652Y-69998884D02*
G75*
G02*
X122384652Y-70498884I-500001J1D01*
G01*
G04 #@! TO.C,MX28*
X227950000Y-37950000D02*
X227950000Y-50950000D01*
X228450000Y-51450000D02*
X241450000Y-51450000D01*
X241450000Y-37450000D02*
X228450000Y-37450000D01*
X241950000Y-50950000D02*
X241950000Y-37950000D01*
X227952764Y-37951116D02*
G75*
G02*
X228452764Y-37451116I500001J-1D01*
G01*
X228450000Y-51450000D02*
G75*
G02*
X227950000Y-50950000I1J500001D01*
G01*
X241450000Y-37450000D02*
G75*
G02*
X241950000Y-37950000I0J-500000D01*
G01*
X241950000Y-50950000D02*
G75*
G02*
X241450000Y-51450000I-500000J0D01*
G01*
G04 #@! TO.C,MX67*
X256524792Y-76050000D02*
X256524792Y-89050000D01*
X257024792Y-89550000D02*
X270024792Y-89550000D01*
X270024792Y-75550000D02*
X257024792Y-75550000D01*
X270524792Y-89050000D02*
X270524792Y-76050000D01*
X256527556Y-76051116D02*
G75*
G02*
X257027556Y-75551116I500001J-1D01*
G01*
X257024792Y-89550000D02*
G75*
G02*
X256524792Y-89050000I1J500001D01*
G01*
X270024792Y-75550000D02*
G75*
G02*
X270524792Y-76050000I0J-500000D01*
G01*
X270524792Y-89050000D02*
G75*
G02*
X270024792Y-89550000I-500000J0D01*
G01*
G04 #@! TO.C,MX71*
X61262456Y-37950000D02*
X61262456Y-50950000D01*
X61762456Y-51450000D02*
X74762456Y-51450000D01*
X74762456Y-37450000D02*
X61762456Y-37450000D01*
X75262456Y-50950000D02*
X75262456Y-37950000D01*
X61265220Y-37951116D02*
G75*
G02*
X61765220Y-37451116I500001J-1D01*
G01*
X61762456Y-51450000D02*
G75*
G02*
X61262456Y-50950000I1J500001D01*
G01*
X74762456Y-37450000D02*
G75*
G02*
X75262456Y-37950000I0J-500000D01*
G01*
X75262456Y-50950000D02*
G75*
G02*
X74762456Y-51450000I-500000J0D01*
G01*
G04 #@! TO.C,S9*
X191093750Y-75049999D02*
X191093750Y-88049999D01*
X197343750Y-74549999D02*
X191593750Y-74549999D01*
X197343750Y-88549999D02*
X191593750Y-88549999D01*
X197843750Y-75049999D02*
X197843750Y-88049999D01*
X214906250Y-75049999D02*
X214906250Y-88049999D01*
X221155039Y-88549999D02*
X215406250Y-88549999D01*
X221156250Y-74549999D02*
X215406250Y-74549999D01*
X221656250Y-75049999D02*
X221655039Y-88049999D01*
X191093750Y-75049999D02*
G75*
G02*
X191593750Y-74549999I500001J-1D01*
G01*
X191593750Y-88549999D02*
G75*
G02*
X191093750Y-88049999I1J500001D01*
G01*
X197343750Y-74549999D02*
G75*
G02*
X197843750Y-75049999I-1J-500001D01*
G01*
X197843750Y-88049999D02*
G75*
G02*
X197343750Y-88549999I-500001J1D01*
G01*
X214906250Y-75049999D02*
G75*
G02*
X215406250Y-74550000I499970J29D01*
G01*
X215406250Y-88549999D02*
G75*
G02*
X214906201Y-88049999I50J500099D01*
G01*
X221156250Y-74549999D02*
G75*
G02*
X221656301Y-75049999I-50J-500101D01*
G01*
X221655039Y-88049999D02*
G75*
G02*
X221155039Y-88549999I-500039J39D01*
G01*
G04 #@! TO.C,MX80*
X25543736Y-56999999D02*
X25543736Y-70000001D01*
X26043735Y-70500000D02*
X39043737Y-70500000D01*
X39043737Y-56500000D02*
X26043735Y-56500000D01*
X39543736Y-70000001D02*
X39543736Y-56999999D01*
X25546500Y-57001116D02*
G75*
G02*
X26046500Y-56501116I500001J-1D01*
G01*
X26043735Y-70500000D02*
G75*
G02*
X25543736Y-70000001I2J500001D01*
G01*
X39043737Y-56500000D02*
G75*
G02*
X39543736Y-56999999I-1J-500000D01*
G01*
X39543736Y-70000001D02*
G75*
G02*
X39043737Y-70500000I-500000J1D01*
G01*
G04 #@! TO.C,MX19*
X56500000Y-37950000D02*
X56500000Y-50950000D01*
X57000000Y-51450000D02*
X70000000Y-51450000D01*
X70000000Y-37450000D02*
X57000000Y-37450000D01*
X70500000Y-50950000D02*
X70500000Y-37950000D01*
X56500000Y-37950000D02*
G75*
G02*
X57000000Y-37450000I500000J0D01*
G01*
X57000000Y-51450000D02*
G75*
G02*
X56500000Y-50950000I0J500000D01*
G01*
X70000000Y-37450000D02*
G75*
G02*
X70500000Y-37950000I-1J-500001D01*
G01*
X70497236Y-50948884D02*
G75*
G02*
X69997236Y-51448884I-500001J1D01*
G01*
G04 #@! TO.C,MX51*
X75550000Y-76050000D02*
X75550000Y-89050000D01*
X76050000Y-89550000D02*
X89050000Y-89550000D01*
X89050000Y-75550000D02*
X76050000Y-75550000D01*
X89550000Y-89050000D02*
X89550000Y-76050000D01*
X75550000Y-76050000D02*
G75*
G02*
X76050000Y-75550000I500000J0D01*
G01*
X76050000Y-89550000D02*
G75*
G02*
X75550000Y-89050000I0J500000D01*
G01*
X89050000Y-75550000D02*
G75*
G02*
X89550000Y-76050000I-1J-500001D01*
G01*
X89547236Y-89048884D02*
G75*
G02*
X89047236Y-89548884I-500001J1D01*
G01*
G04 #@! TO.C,S5*
X79175000Y-75049999D02*
X79175000Y-88049999D01*
X85425000Y-74549999D02*
X79675000Y-74549999D01*
X85425000Y-88549999D02*
X79675000Y-88549999D01*
X85925000Y-75049999D02*
X85925000Y-88049999D01*
X117275000Y-75049999D02*
X117275000Y-88049999D01*
X123523789Y-88549999D02*
X117775000Y-88549999D01*
X123525000Y-74549999D02*
X117775000Y-74549999D01*
X124025000Y-75049999D02*
X124023789Y-88049999D01*
X79175000Y-75049999D02*
G75*
G02*
X79675000Y-74549999I500001J-1D01*
G01*
X79675000Y-88549999D02*
G75*
G02*
X79175000Y-88049999I1J500001D01*
G01*
X85425000Y-74549999D02*
G75*
G02*
X85925000Y-75049999I-1J-500001D01*
G01*
X85925000Y-88049999D02*
G75*
G02*
X85425000Y-88549999I-500001J1D01*
G01*
X117275000Y-75049999D02*
G75*
G02*
X117775000Y-74550000I500000J-1D01*
G01*
X117775000Y-88549999D02*
G75*
G02*
X117275001Y-88049999I0J499999D01*
G01*
X123525000Y-74549999D02*
G75*
G02*
X124025001Y-75049999I0J-500001D01*
G01*
X124023789Y-88049999D02*
G75*
G02*
X123523789Y-88549989I-499989J-1D01*
G01*
G04 #@! TO.C,S3*
X210143750Y-75049999D02*
X210143750Y-88049999D01*
X216393750Y-74549999D02*
X210643750Y-74549999D01*
X216393750Y-88549999D02*
X210643750Y-88549999D01*
X216893750Y-75049999D02*
X216893750Y-88049999D01*
X233956250Y-75049999D02*
X233956250Y-88049999D01*
X240205039Y-88549999D02*
X234456250Y-88549999D01*
X240206250Y-74549999D02*
X234456250Y-74549999D01*
X240706250Y-75049999D02*
X240705039Y-88049999D01*
X210143750Y-75049999D02*
G75*
G02*
X210643750Y-74549999I500001J-1D01*
G01*
X210643750Y-88549999D02*
G75*
G02*
X210143750Y-88049999I1J500001D01*
G01*
X216393750Y-74549999D02*
G75*
G02*
X216893750Y-75049999I-1J-500001D01*
G01*
X216893750Y-88049999D02*
G75*
G02*
X216393750Y-88549999I-500001J1D01*
G01*
X233956250Y-75049999D02*
G75*
G02*
X234456250Y-74550000I499970J29D01*
G01*
X234456250Y-88549999D02*
G75*
G02*
X233956201Y-88049999I50J500099D01*
G01*
X240206250Y-74549999D02*
G75*
G02*
X240706301Y-75049999I-50J-500101D01*
G01*
X240705039Y-88049999D02*
G75*
G02*
X240205039Y-88549999I-500039J39D01*
G01*
G04 #@! TO.C,MX69*
X20781240Y-37949999D02*
X20781240Y-50950001D01*
X21281239Y-51450000D02*
X34281241Y-51450000D01*
X34281241Y-37450000D02*
X21281239Y-37450000D01*
X34781240Y-50950001D02*
X34781240Y-37949999D01*
X20784004Y-37951116D02*
G75*
G02*
X21284004Y-37451116I500001J-1D01*
G01*
X21281239Y-51450000D02*
G75*
G02*
X20781240Y-50950001I2J500001D01*
G01*
X34281241Y-37450000D02*
G75*
G02*
X34781240Y-37949999I-1J-500000D01*
G01*
X34781240Y-50950001D02*
G75*
G02*
X34281241Y-51450000I-500000J1D01*
G01*
G04 #@! TO.C,MX92*
X199375000Y-76050000D02*
X199375000Y-89050000D01*
X199875000Y-89550000D02*
X212875000Y-89550000D01*
X212875000Y-75550000D02*
X199875000Y-75550000D01*
X213375000Y-89050000D02*
X213375000Y-76050000D01*
X199377764Y-76051116D02*
G75*
G02*
X199877764Y-75551116I500001J-1D01*
G01*
X199875000Y-89550000D02*
G75*
G02*
X199375000Y-89050000I1J500001D01*
G01*
X212875000Y-75550000D02*
G75*
G02*
X213375000Y-76050000I0J-500000D01*
G01*
X213375000Y-89050000D02*
G75*
G02*
X212875000Y-89550000I-500000J0D01*
G01*
G04 #@! TO.C,MX35*
X56500000Y-57000000D02*
X56500000Y-70000000D01*
X57000000Y-70500000D02*
X70000000Y-70500000D01*
X70000000Y-56500000D02*
X57000000Y-56500000D01*
X70500000Y-70000000D02*
X70500000Y-57000000D01*
X56502764Y-57001116D02*
G75*
G02*
X57002764Y-56501116I500001J-1D01*
G01*
X57000000Y-70500000D02*
G75*
G02*
X56500000Y-70000000I1J500001D01*
G01*
X70000000Y-56500000D02*
G75*
G02*
X70500000Y-57000000I0J-500000D01*
G01*
X70500000Y-70000000D02*
G75*
G02*
X70000000Y-70500000I-500000J0D01*
G01*
G04 #@! TO.C,S13*
X60124904Y-75049990D02*
X60124904Y-88049992D01*
X66373693Y-88549991D02*
X60624903Y-88549991D01*
X66374903Y-74549991D02*
X60624903Y-74549991D01*
X66874904Y-75049991D02*
X66873693Y-88049991D01*
X69649905Y-75049991D02*
X69649904Y-88049992D01*
X75899903Y-74549991D02*
X70149904Y-74549992D01*
X75899903Y-88549991D02*
X70149903Y-88549991D01*
X76399904Y-75049991D02*
X76399904Y-88049991D01*
X183949904Y-75049991D02*
X183949904Y-88049991D01*
X190198693Y-88549991D02*
X184449905Y-88549991D01*
X190199904Y-74549992D02*
X184449905Y-74549991D01*
X190699903Y-75049991D02*
X190698693Y-88049991D01*
X193474904Y-75049991D02*
X193474904Y-88049991D01*
X199723693Y-88549991D02*
X193974905Y-88549991D01*
X199724905Y-74549991D02*
X193974905Y-74549991D01*
X200224904Y-75049990D02*
X200223693Y-88049991D01*
X60124904Y-75049990D02*
G75*
G02*
X60624903Y-74549991I500001J-2D01*
G01*
X60624903Y-88549991D02*
G75*
G02*
X60124904Y-88049992I-1J499998D01*
G01*
X66374903Y-74549991D02*
G75*
G02*
X66874904Y-75049991I0J-500001D01*
G01*
X66873693Y-88049991D02*
G75*
G02*
X66373693Y-88549991I-499981J-19D01*
G01*
X69649905Y-75049991D02*
G75*
G02*
X70149904Y-74549992I500001J-2D01*
G01*
X70149903Y-88549991D02*
G75*
G02*
X69649904Y-88049992I2J500001D01*
G01*
X75899903Y-74549991D02*
G75*
G02*
X76399904Y-75049991I0J-500001D01*
G01*
X76399904Y-88049991D02*
G75*
G02*
X75899903Y-88549991I-500001J1D01*
G01*
X183949904Y-75049991D02*
G75*
G02*
X184449905Y-74549992I500000J-1D01*
G01*
X184449905Y-88549991D02*
G75*
G02*
X183949905Y-88049991I-1J499999D01*
G01*
X190199904Y-74549992D02*
G75*
G02*
X190699904Y-75049991I0J-500000D01*
G01*
X190698693Y-88049991D02*
G75*
G02*
X190198693Y-88549981I-499989J-1D01*
G01*
X193474904Y-75049991D02*
G75*
G02*
X193974905Y-74549992I500000J-1D01*
G01*
X193974905Y-88549991D02*
G75*
G02*
X193474905Y-88049991I-1J499999D01*
G01*
X199724905Y-74549991D02*
G75*
G02*
X200224905Y-75049990I-1J-500001D01*
G01*
X200223693Y-88049991D02*
G75*
G02*
X199723693Y-88549981I-499989J-1D01*
G01*
G04 #@! TO.C,MX31*
X285100000Y-37950000D02*
X285100000Y-50950000D01*
X285600000Y-51450000D02*
X298600000Y-51450000D01*
X298600000Y-37450000D02*
X285600000Y-37450000D01*
X299100000Y-50950000D02*
X299100000Y-37950000D01*
X285100000Y-37950000D02*
G75*
G02*
X285600000Y-37450000I500000J0D01*
G01*
X285600000Y-51450000D02*
G75*
G02*
X285100000Y-50950000I0J500000D01*
G01*
X298600000Y-37450000D02*
G75*
G02*
X299100000Y-37950000I-1J-500001D01*
G01*
X299097236Y-50948884D02*
G75*
G02*
X298597236Y-51448884I-500001J1D01*
G01*
G04 #@! TO.C,MX10*
X189850000Y-18900000D02*
X189850000Y-31900000D01*
X190350000Y-32400000D02*
X203350000Y-32400000D01*
X203350000Y-18400000D02*
X190350000Y-18400000D01*
X203850000Y-31900000D02*
X203850000Y-18900000D01*
X189850000Y-18900000D02*
G75*
G02*
X190350000Y-18400000I500000J0D01*
G01*
X190350000Y-32400000D02*
G75*
G02*
X189850000Y-31900000I0J500000D01*
G01*
X203350000Y-18400000D02*
G75*
G02*
X203850000Y-18900000I-1J-500001D01*
G01*
X203847236Y-31898884D02*
G75*
G02*
X203347236Y-32398884I-500001J1D01*
G01*
G04 #@! TO.C,MX12*
X227950000Y-18900000D02*
X227950000Y-31900000D01*
X228450000Y-32400000D02*
X241450000Y-32400000D01*
X241450000Y-18400000D02*
X228450000Y-18400000D01*
X241950000Y-31900000D02*
X241950000Y-18900000D01*
X227952764Y-18901116D02*
G75*
G02*
X228452764Y-18401116I500001J-1D01*
G01*
X228450000Y-32400000D02*
G75*
G02*
X227950000Y-31900000I1J500001D01*
G01*
X241450000Y-18400000D02*
G75*
G02*
X241950000Y-18900000I0J-500000D01*
G01*
X241950000Y-31900000D02*
G75*
G02*
X241450000Y-32400000I-500000J0D01*
G01*
G04 #@! TO.C,MX77*
X175562360Y-37950000D02*
X175562360Y-50950000D01*
X176062360Y-51450000D02*
X189062360Y-51450000D01*
X189062360Y-37450000D02*
X176062360Y-37450000D01*
X189562360Y-50950000D02*
X189562360Y-37950000D01*
X175565124Y-37951116D02*
G75*
G02*
X176065124Y-37451116I500001J-1D01*
G01*
X176062360Y-51450000D02*
G75*
G02*
X175562360Y-50950000I1J500001D01*
G01*
X189062360Y-37450000D02*
G75*
G02*
X189562360Y-37950000I0J-500000D01*
G01*
X189562360Y-50950000D02*
G75*
G02*
X189062360Y-51450000I-500000J0D01*
G01*
G04 #@! TO.C,MX23*
X132700000Y-37950000D02*
X132700000Y-50950000D01*
X133200000Y-51450000D02*
X146200000Y-51450000D01*
X146200000Y-37450000D02*
X133200000Y-37450000D01*
X146700000Y-50950000D02*
X146700000Y-37950000D01*
X132700000Y-37950000D02*
G75*
G02*
X133200000Y-37450000I500000J0D01*
G01*
X133200000Y-51450000D02*
G75*
G02*
X132700000Y-50950000I0J500000D01*
G01*
X146200000Y-37450000D02*
G75*
G02*
X146700000Y-37950000I-1J-500001D01*
G01*
X146697236Y-50948884D02*
G75*
G02*
X146197236Y-51448884I-500001J1D01*
G01*
G04 #@! TO.C,MX17*
X18400000Y-37950000D02*
X18400000Y-50950000D01*
X18900000Y-51450000D02*
X31900000Y-51450000D01*
X31900000Y-37450000D02*
X18900000Y-37450000D01*
X32400000Y-50950000D02*
X32400000Y-37950000D01*
X18400000Y-37950000D02*
G75*
G02*
X18900000Y-37450000I500000J0D01*
G01*
X18900000Y-51450000D02*
G75*
G02*
X18400000Y-50950000I0J500000D01*
G01*
X31900000Y-37450000D02*
G75*
G02*
X32400000Y-37950000I-1J-500001D01*
G01*
X32397236Y-50948884D02*
G75*
G02*
X31897236Y-51448884I-500001J1D01*
G01*
G04 #@! TO.C,S8*
X76793750Y-75049999D02*
X76793750Y-88049999D01*
X83043750Y-74549999D02*
X77293750Y-74549999D01*
X83043750Y-88549999D02*
X77293750Y-88549999D01*
X83543750Y-75049999D02*
X83543750Y-88049999D01*
X100606250Y-75049999D02*
X100606250Y-88049999D01*
X106855039Y-88549999D02*
X101106250Y-88549999D01*
X106856250Y-74549999D02*
X101106250Y-74549999D01*
X107356250Y-75049999D02*
X107355039Y-88049999D01*
X76793750Y-75049999D02*
G75*
G02*
X77293750Y-74549999I500001J-1D01*
G01*
X77293750Y-88549999D02*
G75*
G02*
X76793750Y-88049999I1J500001D01*
G01*
X83043750Y-74549999D02*
G75*
G02*
X83543750Y-75049999I-1J-500001D01*
G01*
X83543750Y-88049999D02*
G75*
G02*
X83043750Y-88549999I-500001J1D01*
G01*
X100606250Y-75049999D02*
G75*
G02*
X101106250Y-74550000I499970J29D01*
G01*
X101106250Y-88549999D02*
G75*
G02*
X100606201Y-88049999I50J500099D01*
G01*
X106856250Y-74549999D02*
G75*
G02*
X107356301Y-75049999I-50J-500101D01*
G01*
X107355039Y-88049999D02*
G75*
G02*
X106855039Y-88549999I-500039J39D01*
G01*
G04 #@! TO.C,MX24*
X151750000Y-37950000D02*
X151750000Y-50950000D01*
X152250000Y-51450000D02*
X165250000Y-51450000D01*
X165250000Y-37450000D02*
X152250000Y-37450000D01*
X165750000Y-50950000D02*
X165750000Y-37950000D01*
X151750000Y-37950000D02*
G75*
G02*
X152250000Y-37450000I500000J0D01*
G01*
X152250000Y-51450000D02*
G75*
G02*
X151750000Y-50950000I0J500000D01*
G01*
X165250000Y-37450000D02*
G75*
G02*
X165750000Y-37950000I-1J-500001D01*
G01*
X165747236Y-50948884D02*
G75*
G02*
X165247236Y-51448884I-500001J1D01*
G01*
G04 #@! TO.C,MX75*
X137462392Y-37950000D02*
X137462392Y-50950000D01*
X137962392Y-51450000D02*
X150962392Y-51450000D01*
X150962392Y-37450000D02*
X137962392Y-37450000D01*
X151462392Y-50950000D02*
X151462392Y-37950000D01*
X137465156Y-37951116D02*
G75*
G02*
X137965156Y-37451116I500001J-1D01*
G01*
X137962392Y-51450000D02*
G75*
G02*
X137462392Y-50950000I1J500001D01*
G01*
X150962392Y-37450000D02*
G75*
G02*
X151462392Y-37950000I0J-500000D01*
G01*
X151462392Y-50950000D02*
G75*
G02*
X150962392Y-51450000I-500000J0D01*
G01*
G04 #@! TO.C,MX81*
X51737464Y-57000000D02*
X51737464Y-70000000D01*
X52237464Y-70500000D02*
X65237464Y-70500000D01*
X65237464Y-56500000D02*
X52237464Y-56500000D01*
X65737464Y-70000000D02*
X65737464Y-57000000D01*
X51737464Y-57000000D02*
G75*
G02*
X52237464Y-56500000I500000J0D01*
G01*
X52237464Y-70500000D02*
G75*
G02*
X51737464Y-70000000I0J500000D01*
G01*
X65237464Y-56500000D02*
G75*
G02*
X65737464Y-57000000I-1J-500001D01*
G01*
X65734700Y-69998884D02*
G75*
G02*
X65234700Y-70498884I-500001J1D01*
G01*
G04 #@! TO.C,MX85*
X127937400Y-57000000D02*
X127937400Y-70000000D01*
X128437400Y-70500000D02*
X141437400Y-70500000D01*
X141437400Y-56500000D02*
X128437400Y-56500000D01*
X141937400Y-70000000D02*
X141937400Y-57000000D01*
X127937400Y-57000000D02*
G75*
G02*
X128437400Y-56500000I500000J0D01*
G01*
X128437400Y-70500000D02*
G75*
G02*
X127937400Y-70000000I0J500000D01*
G01*
X141437400Y-56500000D02*
G75*
G02*
X141937400Y-57000000I-1J-500001D01*
G01*
X141934636Y-69998884D02*
G75*
G02*
X141434636Y-70498884I-500001J1D01*
G01*
G04 #@! TO.C,MX27*
X208900000Y-37950000D02*
X208900000Y-50950000D01*
X209400000Y-51450000D02*
X222400000Y-51450000D01*
X222400000Y-37450000D02*
X209400000Y-37450000D01*
X222900000Y-50950000D02*
X222900000Y-37950000D01*
X208902764Y-37951116D02*
G75*
G02*
X209402764Y-37451116I500001J-1D01*
G01*
X209400000Y-51450000D02*
G75*
G02*
X208900000Y-50950000I1J500001D01*
G01*
X222400000Y-37450000D02*
G75*
G02*
X222900000Y-37950000I0J-500000D01*
G01*
X222900000Y-50950000D02*
G75*
G02*
X222400000Y-51450000I-500000J0D01*
G01*
G04 #@! TO.C,MX26*
X189850000Y-37950000D02*
X189850000Y-50950000D01*
X190350000Y-51450000D02*
X203350000Y-51450000D01*
X203350000Y-37450000D02*
X190350000Y-37450000D01*
X203850000Y-50950000D02*
X203850000Y-37950000D01*
X189850000Y-37950000D02*
G75*
G02*
X190350000Y-37450000I500000J0D01*
G01*
X190350000Y-51450000D02*
G75*
G02*
X189850000Y-50950000I0J500000D01*
G01*
X203350000Y-37450000D02*
G75*
G02*
X203850000Y-37950000I-1J-500001D01*
G01*
X203847236Y-50948884D02*
G75*
G02*
X203347236Y-51448884I-500001J1D01*
G01*
G04 #@! TO.C,S7*
X210143574Y-32899993D02*
X210144785Y-19899993D01*
X210643574Y-33399993D02*
X216393574Y-33399993D01*
X210644785Y-19399993D02*
X216393574Y-19399993D01*
X216893574Y-32899993D02*
X216893574Y-19899993D01*
X233956074Y-32899993D02*
X233956074Y-19899993D01*
X234456074Y-19399993D02*
X240206074Y-19399993D01*
X234456074Y-33399993D02*
X240206074Y-33399993D01*
X240706074Y-32899993D02*
X240706074Y-19899993D01*
X210144785Y-19899993D02*
G75*
G02*
X210644785Y-19399993I500039J-39D01*
G01*
X210643574Y-33399993D02*
G75*
G02*
X210143523Y-32899993I50J500101D01*
G01*
X216393574Y-19399993D02*
G75*
G02*
X216893623Y-19899993I-50J-500099D01*
G01*
X216893574Y-32899993D02*
G75*
G02*
X216393574Y-33399992I-499970J-29D01*
G01*
X233956074Y-19899993D02*
G75*
G02*
X234456074Y-19399993I500001J-1D01*
G01*
X234456074Y-33399993D02*
G75*
G02*
X233956074Y-32899993I1J500001D01*
G01*
X240206074Y-19399993D02*
G75*
G02*
X240706074Y-19899993I-1J-500001D01*
G01*
X240706074Y-32899993D02*
G75*
G02*
X240206074Y-33399993I-500001J1D01*
G01*
G04 #@! TO.C,MX13*
X247000000Y-18900000D02*
X247000000Y-31900000D01*
X247500000Y-32400000D02*
X260500000Y-32400000D01*
X260500000Y-18400000D02*
X247500000Y-18400000D01*
X261000000Y-31900000D02*
X261000000Y-18900000D01*
X247000000Y-18900000D02*
G75*
G02*
X247500000Y-18400000I500000J0D01*
G01*
X247500000Y-32400000D02*
G75*
G02*
X247000000Y-31900000I0J500000D01*
G01*
X260500000Y-18400000D02*
G75*
G02*
X261000000Y-18900000I-1J-500001D01*
G01*
X260997236Y-31898884D02*
G75*
G02*
X260497236Y-32398884I-500001J1D01*
G01*
G04 #@! TO.C,S4*
X248243542Y-75049999D02*
X248243542Y-88049999D01*
X254493542Y-74549999D02*
X248743542Y-74549999D01*
X254493542Y-88549999D02*
X248743542Y-88549999D01*
X254993542Y-75049999D02*
X254993542Y-88049999D01*
X272056042Y-75049999D02*
X272056042Y-88049999D01*
X278304831Y-88549999D02*
X272556042Y-88549999D01*
X278306042Y-74549999D02*
X272556042Y-74549999D01*
X278806042Y-75049999D02*
X278804831Y-88049999D01*
X248243542Y-75049999D02*
G75*
G02*
X248743542Y-74549999I500001J-1D01*
G01*
X248743542Y-88549999D02*
G75*
G02*
X248243542Y-88049999I1J500001D01*
G01*
X254493542Y-74549999D02*
G75*
G02*
X254993542Y-75049999I-1J-500001D01*
G01*
X254993542Y-88049999D02*
G75*
G02*
X254493542Y-88549999I-500001J1D01*
G01*
X272056042Y-75049999D02*
G75*
G02*
X272556042Y-74550000I499970J29D01*
G01*
X272556042Y-88549999D02*
G75*
G02*
X272055993Y-88049999I50J500099D01*
G01*
X278306042Y-74549999D02*
G75*
G02*
X278806093Y-75049999I-50J-500101D01*
G01*
X278804831Y-88049999D02*
G75*
G02*
X278304831Y-88549999I-500039J39D01*
G01*
G04 #@! TO.C,S6*
X117275000Y-75049999D02*
X117275000Y-88049999D01*
X123525000Y-74549999D02*
X117775000Y-74549999D01*
X123525000Y-88549999D02*
X117775000Y-88549999D01*
X124025000Y-75049999D02*
X124025000Y-88049999D01*
X155375000Y-75049999D02*
X155375000Y-88049999D01*
X161623789Y-88549999D02*
X155875000Y-88549999D01*
X161625000Y-74549999D02*
X155875000Y-74549999D01*
X162125000Y-75049999D02*
X162123789Y-88049999D01*
X117275000Y-75049999D02*
G75*
G02*
X117775000Y-74549999I500001J-1D01*
G01*
X117775000Y-88549999D02*
G75*
G02*
X117275000Y-88049999I1J500001D01*
G01*
X123525000Y-74549999D02*
G75*
G02*
X124025000Y-75049999I-1J-500001D01*
G01*
X124025000Y-88049999D02*
G75*
G02*
X123525000Y-88549999I-500001J1D01*
G01*
X155375000Y-75049999D02*
G75*
G02*
X155875000Y-74550000I500000J-1D01*
G01*
X155875000Y-88549999D02*
G75*
G02*
X155375001Y-88049999I0J499999D01*
G01*
X161625000Y-74549999D02*
G75*
G02*
X162125001Y-75049999I0J-500001D01*
G01*
X162123789Y-88049999D02*
G75*
G02*
X161623789Y-88549989I-499989J-1D01*
G01*
G04 #@! TO.C,MX62*
X247000000Y-76050000D02*
X247000000Y-89050000D01*
X247500000Y-89550000D02*
X260500000Y-89550000D01*
X260500000Y-75550000D02*
X247500000Y-75550000D01*
X261000000Y-89050000D02*
X261000000Y-76050000D01*
X247000000Y-76050000D02*
G75*
G02*
X247500000Y-75550000I500000J0D01*
G01*
X247500000Y-89550000D02*
G75*
G02*
X247000000Y-89050000I0J500000D01*
G01*
X260500000Y-75550000D02*
G75*
G02*
X261000000Y-76050000I-1J-500001D01*
G01*
X260997236Y-89048884D02*
G75*
G02*
X260497236Y-89548884I-500001J1D01*
G01*
G04 #@! TO.C,MX78*
X194612344Y-37950000D02*
X194612344Y-50950000D01*
X195112344Y-51450000D02*
X208112344Y-51450000D01*
X208112344Y-37450000D02*
X195112344Y-37450000D01*
X208612344Y-50950000D02*
X208612344Y-37950000D01*
X194615108Y-37951116D02*
G75*
G02*
X195115108Y-37451116I500001J-1D01*
G01*
X195112344Y-51450000D02*
G75*
G02*
X194612344Y-50950000I1J500001D01*
G01*
X208112344Y-37450000D02*
G75*
G02*
X208612344Y-37950000I0J-500000D01*
G01*
X208612344Y-50950000D02*
G75*
G02*
X208112344Y-51450000I-500000J0D01*
G01*
G04 #@! TO.C,MX4*
X75550000Y-18900000D02*
X75550000Y-31900000D01*
X76050000Y-32400000D02*
X89050000Y-32400000D01*
X89050000Y-18400000D02*
X76050000Y-18400000D01*
X89550000Y-31900000D02*
X89550000Y-18900000D01*
X75550000Y-18900000D02*
G75*
G02*
X76050000Y-18400000I500000J0D01*
G01*
X76050000Y-32400000D02*
G75*
G02*
X75550000Y-31900000I0J500000D01*
G01*
X89050000Y-18400000D02*
G75*
G02*
X89550000Y-18900000I-1J-500001D01*
G01*
X89547236Y-31898884D02*
G75*
G02*
X89047236Y-32398884I-500001J1D01*
G01*
G04 #@! TO.C,MX61*
X227950000Y-76050000D02*
X227950000Y-89050000D01*
X228450000Y-89550000D02*
X241450000Y-89550000D01*
X241450000Y-75550000D02*
X228450000Y-75550000D01*
X241950000Y-89050000D02*
X241950000Y-76050000D01*
X227950000Y-76050000D02*
G75*
G02*
X228450000Y-75550000I500000J0D01*
G01*
X228450000Y-89550000D02*
G75*
G02*
X227950000Y-89050000I0J500000D01*
G01*
X241450000Y-75550000D02*
G75*
G02*
X241950000Y-76050000I-1J-500001D01*
G01*
X241947236Y-89048884D02*
G75*
G02*
X241447236Y-89548884I-500001J1D01*
G01*
G04 #@! TO.C,MX41*
X170800000Y-57000000D02*
X170800000Y-70000000D01*
X171300000Y-70500000D02*
X184300000Y-70500000D01*
X184300000Y-56500000D02*
X171300000Y-56500000D01*
X184800000Y-70000000D02*
X184800000Y-57000000D01*
X170802764Y-57001116D02*
G75*
G02*
X171302764Y-56501116I500001J-1D01*
G01*
X171300000Y-70500000D02*
G75*
G02*
X170800000Y-70000000I1J500001D01*
G01*
X184300000Y-56500000D02*
G75*
G02*
X184800000Y-57000000I0J-500000D01*
G01*
X184800000Y-70000000D02*
G75*
G02*
X184300000Y-70500000I-500000J0D01*
G01*
G04 #@! TO.C,MX15*
X285100000Y-18900000D02*
X285100000Y-31900000D01*
X285600000Y-32400000D02*
X298600000Y-32400000D01*
X298600000Y-18400000D02*
X285600000Y-18400000D01*
X299100000Y-31900000D02*
X299100000Y-18900000D01*
X285100000Y-18900000D02*
G75*
G02*
X285600000Y-18400000I500000J0D01*
G01*
X285600000Y-32400000D02*
G75*
G02*
X285100000Y-31900000I0J500000D01*
G01*
X298600000Y-18400000D02*
G75*
G02*
X299100000Y-18900000I-1J-500001D01*
G01*
X299097236Y-31898884D02*
G75*
G02*
X298597236Y-32398884I-500001J1D01*
G01*
G04 #@! TO.C,MX57*
X170800000Y-76050000D02*
X170800000Y-89050000D01*
X171300000Y-89550000D02*
X184300000Y-89550000D01*
X184300000Y-75550000D02*
X171300000Y-75550000D01*
X184800000Y-89050000D02*
X184800000Y-76050000D01*
X170800000Y-76050000D02*
G75*
G02*
X171300000Y-75550000I500000J0D01*
G01*
X171300000Y-89550000D02*
G75*
G02*
X170800000Y-89050000I0J500000D01*
G01*
X184300000Y-75550000D02*
G75*
G02*
X184800000Y-76050000I-1J-500001D01*
G01*
X184797236Y-89048884D02*
G75*
G02*
X184297236Y-89548884I-500001J1D01*
G01*
G04 #@! TO.C,MX39*
X132700000Y-57000000D02*
X132700000Y-70000000D01*
X133200000Y-70500000D02*
X146200000Y-70500000D01*
X146200000Y-56500000D02*
X133200000Y-56500000D01*
X146700000Y-70000000D02*
X146700000Y-57000000D01*
X132702764Y-57001116D02*
G75*
G02*
X133202764Y-56501116I500001J-1D01*
G01*
X133200000Y-70500000D02*
G75*
G02*
X132700000Y-70000000I1J500001D01*
G01*
X146200000Y-56500000D02*
G75*
G02*
X146700000Y-57000000I0J-500000D01*
G01*
X146700000Y-70000000D02*
G75*
G02*
X146200000Y-70500000I-500000J0D01*
G01*
G04 #@! TO.C,MX68*
X218424824Y-18899992D02*
X218424824Y-31899992D01*
X218924824Y-32399992D02*
X231924824Y-32399992D01*
X231924824Y-18399992D02*
X218924824Y-18399992D01*
X232424824Y-31899992D02*
X232424824Y-18899992D01*
X218424824Y-18899992D02*
G75*
G02*
X218924824Y-18399992I500000J0D01*
G01*
X218924824Y-32399992D02*
G75*
G02*
X218424824Y-31899992I0J500000D01*
G01*
X231924824Y-18399992D02*
G75*
G02*
X232424824Y-18899992I-1J-500001D01*
G01*
X232422060Y-31898876D02*
G75*
G02*
X231922060Y-32398876I-500001J1D01*
G01*
G04 #@! TO.C,MX66*
X142225000Y-76050000D02*
X142225000Y-89050000D01*
X142725000Y-89550000D02*
X155725000Y-89550000D01*
X155725000Y-75550000D02*
X142725000Y-75550000D01*
X156225000Y-89050000D02*
X156225000Y-76050000D01*
X142227764Y-76051116D02*
G75*
G02*
X142727764Y-75551116I500001J-1D01*
G01*
X142725000Y-89550000D02*
G75*
G02*
X142225000Y-89050000I1J500001D01*
G01*
X155725000Y-75550000D02*
G75*
G02*
X156225000Y-76050000I0J-500000D01*
G01*
X156225000Y-89050000D02*
G75*
G02*
X155725000Y-89550000I-500000J0D01*
G01*
G04 #@! TO.C,MX14*
X266050000Y-18900000D02*
X266050000Y-31900000D01*
X266550000Y-32400000D02*
X279550000Y-32400000D01*
X279550000Y-18400000D02*
X266550000Y-18400000D01*
X280050000Y-31900000D02*
X280050000Y-18900000D01*
X266050000Y-18900000D02*
G75*
G02*
X266550000Y-18400000I500000J0D01*
G01*
X266550000Y-32400000D02*
G75*
G02*
X266050000Y-31900000I0J500000D01*
G01*
X279550000Y-18400000D02*
G75*
G02*
X280050000Y-18900000I-1J-500001D01*
G01*
X280047236Y-31898884D02*
G75*
G02*
X279547236Y-32398884I-500001J1D01*
G01*
G04 #@! TO.C,MX88*
X185087352Y-57000000D02*
X185087352Y-70000000D01*
X185587352Y-70500000D02*
X198587352Y-70500000D01*
X198587352Y-56500000D02*
X185587352Y-56500000D01*
X199087352Y-70000000D02*
X199087352Y-57000000D01*
X185087352Y-57000000D02*
G75*
G02*
X185587352Y-56500000I500000J0D01*
G01*
X185587352Y-70500000D02*
G75*
G02*
X185087352Y-70000000I0J500000D01*
G01*
X198587352Y-56500000D02*
G75*
G02*
X199087352Y-57000000I-1J-500001D01*
G01*
X199084588Y-69998884D02*
G75*
G02*
X198584588Y-70498884I-500001J1D01*
G01*
G04 #@! TO.C,MX40*
X151750000Y-57000000D02*
X151750000Y-70000000D01*
X152250000Y-70500000D02*
X165250000Y-70500000D01*
X165250000Y-56500000D02*
X152250000Y-56500000D01*
X165750000Y-70000000D02*
X165750000Y-57000000D01*
X151752764Y-57001116D02*
G75*
G02*
X152252764Y-56501116I500001J-1D01*
G01*
X152250000Y-70500000D02*
G75*
G02*
X151750000Y-70000000I1J500001D01*
G01*
X165250000Y-56500000D02*
G75*
G02*
X165750000Y-57000000I0J-500000D01*
G01*
X165750000Y-70000000D02*
G75*
G02*
X165250000Y-70500000I-500000J0D01*
G01*
G04 #@! TO.C,MX11*
X208900000Y-18900000D02*
X208900000Y-31900000D01*
X209400000Y-32400000D02*
X222400000Y-32400000D01*
X222400000Y-18400000D02*
X209400000Y-18400000D01*
X222900000Y-31900000D02*
X222900000Y-18900000D01*
X208902764Y-18901116D02*
G75*
G02*
X209402764Y-18401116I500001J-1D01*
G01*
X209400000Y-32400000D02*
G75*
G02*
X208900000Y-31900000I1J500001D01*
G01*
X222400000Y-18400000D02*
G75*
G02*
X222900000Y-18900000I0J-500000D01*
G01*
X222900000Y-31900000D02*
G75*
G02*
X222400000Y-32400000I-500000J0D01*
G01*
G04 #@! TO.C,MX89*
X204137336Y-57000000D02*
X204137336Y-70000000D01*
X204637336Y-70500000D02*
X217637336Y-70500000D01*
X217637336Y-56500000D02*
X204637336Y-56500000D01*
X218137336Y-70000000D02*
X218137336Y-57000000D01*
X204137336Y-57000000D02*
G75*
G02*
X204637336Y-56500000I500000J0D01*
G01*
X204637336Y-70500000D02*
G75*
G02*
X204137336Y-70000000I0J500000D01*
G01*
X217637336Y-56500000D02*
G75*
G02*
X218137336Y-57000000I-1J-500001D01*
G01*
X218134572Y-69998884D02*
G75*
G02*
X217634572Y-70498884I-500001J1D01*
G01*
G04 #@! TO.C,MX48*
X18400000Y-76050000D02*
X18400000Y-89050000D01*
X18900000Y-89550000D02*
X31900000Y-89550000D01*
X31900000Y-75550000D02*
X18900000Y-75550000D01*
X32400000Y-89050000D02*
X32400000Y-76050000D01*
X18400000Y-76050000D02*
G75*
G02*
X18900000Y-75550000I500000J0D01*
G01*
X18900000Y-89550000D02*
G75*
G02*
X18400000Y-89050000I0J500000D01*
G01*
X31900000Y-75550000D02*
G75*
G02*
X32400000Y-76050000I-1J-500001D01*
G01*
X32397236Y-89048884D02*
G75*
G02*
X31897236Y-89548884I-500001J1D01*
G01*
G04 #@! TO.C,MX54*
X113650000Y-76050000D02*
X113650000Y-89050000D01*
X114150000Y-89550000D02*
X127150000Y-89550000D01*
X127150000Y-75550000D02*
X114150000Y-75550000D01*
X127650000Y-89050000D02*
X127650000Y-76050000D01*
X113650000Y-76050000D02*
G75*
G02*
X114150000Y-75550000I500000J0D01*
G01*
X114150000Y-89550000D02*
G75*
G02*
X113650000Y-89050000I0J500000D01*
G01*
X127150000Y-75550000D02*
G75*
G02*
X127650000Y-76050000I-1J-500001D01*
G01*
X127647236Y-89048884D02*
G75*
G02*
X127147236Y-89548884I-500001J1D01*
G01*
G04 #@! TO.C,MX70*
X42212472Y-37950000D02*
X42212472Y-50950000D01*
X42712472Y-51450000D02*
X55712472Y-51450000D01*
X55712472Y-37450000D02*
X42712472Y-37450000D01*
X56212472Y-50950000D02*
X56212472Y-37950000D01*
X42215236Y-37951116D02*
G75*
G02*
X42715236Y-37451116I500001J-1D01*
G01*
X42712472Y-51450000D02*
G75*
G02*
X42212472Y-50950000I1J500001D01*
G01*
X55712472Y-37450000D02*
G75*
G02*
X56212472Y-37950000I0J-500000D01*
G01*
X56212472Y-50950000D02*
G75*
G02*
X55712472Y-51450000I-500000J0D01*
G01*
G04 #@! TO.C,MX21*
X94600000Y-37950000D02*
X94600000Y-50950000D01*
X95100000Y-51450000D02*
X108100000Y-51450000D01*
X108100000Y-37450000D02*
X95100000Y-37450000D01*
X108600000Y-50950000D02*
X108600000Y-37950000D01*
X94600000Y-37950000D02*
G75*
G02*
X95100000Y-37450000I500000J0D01*
G01*
X95100000Y-51450000D02*
G75*
G02*
X94600000Y-50950000I0J500000D01*
G01*
X108100000Y-37450000D02*
G75*
G02*
X108600000Y-37950000I-1J-500001D01*
G01*
X108597236Y-50948884D02*
G75*
G02*
X108097236Y-51448884I-500001J1D01*
G01*
G04 #@! TO.C,MX59*
X208900000Y-76050000D02*
X208900000Y-89050000D01*
X209400000Y-89550000D02*
X222400000Y-89550000D01*
X222400000Y-75550000D02*
X209400000Y-75550000D01*
X222900000Y-89050000D02*
X222900000Y-76050000D01*
X208900000Y-76050000D02*
G75*
G02*
X209400000Y-75550000I500000J0D01*
G01*
X209400000Y-89550000D02*
G75*
G02*
X208900000Y-89050000I0J500000D01*
G01*
X222400000Y-75550000D02*
G75*
G02*
X222900000Y-76050000I-1J-500001D01*
G01*
X222897236Y-89048884D02*
G75*
G02*
X222397236Y-89548884I-500001J1D01*
G01*
G04 #@! TO.C,MX25*
X170800000Y-37950000D02*
X170800000Y-50950000D01*
X171300000Y-51450000D02*
X184300000Y-51450000D01*
X184300000Y-37450000D02*
X171300000Y-37450000D01*
X184800000Y-50950000D02*
X184800000Y-37950000D01*
X170800000Y-37950000D02*
G75*
G02*
X171300000Y-37450000I500000J0D01*
G01*
X171300000Y-51450000D02*
G75*
G02*
X170800000Y-50950000I0J500000D01*
G01*
X184300000Y-37450000D02*
G75*
G02*
X184800000Y-37950000I-1J-500001D01*
G01*
X184797236Y-50948884D02*
G75*
G02*
X184297236Y-51448884I-500001J1D01*
G01*
G04 #@! TO.C,MX32*
X308912500Y-42712500D02*
X308912500Y-55712500D01*
X309412500Y-56212500D02*
X322412500Y-56212500D01*
X322412500Y-42212500D02*
X309412500Y-42212500D01*
X322912500Y-55712500D02*
X322912500Y-42712500D01*
X308912500Y-42712500D02*
G75*
G02*
X309412500Y-42212500I500000J0D01*
G01*
X309412500Y-56212500D02*
G75*
G02*
X308912500Y-55712500I0J500000D01*
G01*
X322412500Y-42212500D02*
G75*
G02*
X322912500Y-42712500I-1J-500001D01*
G01*
X322909736Y-55711384D02*
G75*
G02*
X322409736Y-56211384I-500001J1D01*
G01*
G04 #@! TO.C,MX43*
X208900000Y-57000000D02*
X208900000Y-70000000D01*
X209400000Y-70500000D02*
X222400000Y-70500000D01*
X222400000Y-56500000D02*
X209400000Y-56500000D01*
X222900000Y-70000000D02*
X222900000Y-57000000D01*
X208902764Y-57001116D02*
G75*
G02*
X209402764Y-56501116I500001J-1D01*
G01*
X209400000Y-70500000D02*
G75*
G02*
X208900000Y-70000000I1J500001D01*
G01*
X222400000Y-56500000D02*
G75*
G02*
X222900000Y-57000000I0J-500000D01*
G01*
X222900000Y-70000000D02*
G75*
G02*
X222400000Y-70500000I-500000J0D01*
G01*
G04 #@! TO.C,MX86*
X146987384Y-57000000D02*
X146987384Y-70000000D01*
X147487384Y-70500000D02*
X160487384Y-70500000D01*
X160487384Y-56500000D02*
X147487384Y-56500000D01*
X160987384Y-70000000D02*
X160987384Y-57000000D01*
X146987384Y-57000000D02*
G75*
G02*
X147487384Y-56500000I500000J0D01*
G01*
X147487384Y-70500000D02*
G75*
G02*
X146987384Y-70000000I0J500000D01*
G01*
X160487384Y-56500000D02*
G75*
G02*
X160987384Y-57000000I-1J-500001D01*
G01*
X160984620Y-69998884D02*
G75*
G02*
X160484620Y-70498884I-500001J1D01*
G01*
G04 #@! TO.C,MX22*
X113650000Y-37950000D02*
X113650000Y-50950000D01*
X114150000Y-51450000D02*
X127150000Y-51450000D01*
X127150000Y-37450000D02*
X114150000Y-37450000D01*
X127650000Y-50950000D02*
X127650000Y-37950000D01*
X113650000Y-37950000D02*
G75*
G02*
X114150000Y-37450000I500000J0D01*
G01*
X114150000Y-51450000D02*
G75*
G02*
X113650000Y-50950000I0J500000D01*
G01*
X127150000Y-37450000D02*
G75*
G02*
X127650000Y-37950000I-1J-500001D01*
G01*
X127647236Y-50948884D02*
G75*
G02*
X127147236Y-51448884I-500001J1D01*
G01*
G04 #@! TO.C,MX46*
X266050000Y-57000000D02*
X266050000Y-70000000D01*
X266550000Y-70500000D02*
X279550000Y-70500000D01*
X279550000Y-56500000D02*
X266550000Y-56500000D01*
X280050000Y-70000000D02*
X280050000Y-57000000D01*
X266050000Y-57000000D02*
G75*
G02*
X266550000Y-56500000I500000J0D01*
G01*
X266550000Y-70500000D02*
G75*
G02*
X266050000Y-70000000I0J500000D01*
G01*
X279550000Y-56500000D02*
G75*
G02*
X280050000Y-57000000I-1J-500001D01*
G01*
X280047236Y-69998884D02*
G75*
G02*
X279547236Y-70498884I-500001J1D01*
G01*
G04 #@! TO.C,MX56*
X151750000Y-76050000D02*
X151750000Y-89050000D01*
X152250000Y-89550000D02*
X165250000Y-89550000D01*
X165250000Y-75550000D02*
X152250000Y-75550000D01*
X165750000Y-89050000D02*
X165750000Y-76050000D01*
X151750000Y-76050000D02*
G75*
G02*
X152250000Y-75550000I500000J0D01*
G01*
X152250000Y-89550000D02*
G75*
G02*
X151750000Y-89050000I0J500000D01*
G01*
X165250000Y-75550000D02*
G75*
G02*
X165750000Y-76050000I-1J-500001D01*
G01*
X165747236Y-89048884D02*
G75*
G02*
X165247236Y-89548884I-500001J1D01*
G01*
G04 #@! TO.C,MX72*
X80312440Y-37950000D02*
X80312440Y-50950000D01*
X80812440Y-51450000D02*
X93812440Y-51450000D01*
X93812440Y-37450000D02*
X80812440Y-37450000D01*
X94312440Y-50950000D02*
X94312440Y-37950000D01*
X80315204Y-37951116D02*
G75*
G02*
X80815204Y-37451116I500001J-1D01*
G01*
X80812440Y-51450000D02*
G75*
G02*
X80312440Y-50950000I1J500001D01*
G01*
X93812440Y-37450000D02*
G75*
G02*
X94312440Y-37950000I0J-500000D01*
G01*
X94312440Y-50950000D02*
G75*
G02*
X93812440Y-51450000I-500000J0D01*
G01*
G04 #@! TO.C,MX91*
X85075000Y-76050000D02*
X85075000Y-89050000D01*
X85575000Y-89550000D02*
X98575000Y-89550000D01*
X98575000Y-75550000D02*
X85575000Y-75550000D01*
X99075000Y-89050000D02*
X99075000Y-76050000D01*
X85077764Y-76051116D02*
G75*
G02*
X85577764Y-75551116I500001J-1D01*
G01*
X85575000Y-89550000D02*
G75*
G02*
X85075000Y-89050000I1J500001D01*
G01*
X98575000Y-75550000D02*
G75*
G02*
X99075000Y-76050000I0J-500000D01*
G01*
X99075000Y-89050000D02*
G75*
G02*
X98575000Y-89550000I-500000J0D01*
G01*
G04 #@! TO.C,MX29*
X247000000Y-37950000D02*
X247000000Y-50950000D01*
X247500000Y-51450000D02*
X260500000Y-51450000D01*
X260500000Y-37450000D02*
X247500000Y-37450000D01*
X261000000Y-50950000D02*
X261000000Y-37950000D01*
X247000000Y-37950000D02*
G75*
G02*
X247500000Y-37450000I500000J0D01*
G01*
X247500000Y-51450000D02*
G75*
G02*
X247000000Y-50950000I0J500000D01*
G01*
X260500000Y-37450000D02*
G75*
G02*
X261000000Y-37950000I-1J-500001D01*
G01*
X260997236Y-50948884D02*
G75*
G02*
X260497236Y-51448884I-500001J1D01*
G01*
G04 #@! TO.C,MX42*
X189850000Y-57000000D02*
X189850000Y-70000000D01*
X190350000Y-70500000D02*
X203350000Y-70500000D01*
X203350000Y-56500000D02*
X190350000Y-56500000D01*
X203850000Y-70000000D02*
X203850000Y-57000000D01*
X189852764Y-57001116D02*
G75*
G02*
X190352764Y-56501116I500001J-1D01*
G01*
X190350000Y-70500000D02*
G75*
G02*
X189850000Y-70000000I1J500001D01*
G01*
X203350000Y-56500000D02*
G75*
G02*
X203850000Y-57000000I0J-500000D01*
G01*
X203850000Y-70000000D02*
G75*
G02*
X203350000Y-70500000I-500000J0D01*
G01*
G04 #@! TO.C,MX33*
X18400000Y-57000000D02*
X18400000Y-70000000D01*
X18900000Y-70500000D02*
X31900000Y-70500000D01*
X31900000Y-56500000D02*
X18900000Y-56500000D01*
X32400000Y-70000000D02*
X32400000Y-57000000D01*
X18400000Y-57000000D02*
G75*
G02*
X18900000Y-56500000I500000J0D01*
G01*
X18900000Y-70500000D02*
G75*
G02*
X18400000Y-70000000I0J500000D01*
G01*
X31900000Y-56500000D02*
G75*
G02*
X32400000Y-57000000I-1J-500001D01*
G01*
X32397236Y-69998884D02*
G75*
G02*
X31897236Y-70498884I-500001J1D01*
G01*
G04 #@! TO.C,MX34*
X37450000Y-57000000D02*
X37450000Y-70000000D01*
X37950000Y-70500000D02*
X50950000Y-70500000D01*
X50950000Y-56500000D02*
X37950000Y-56500000D01*
X51450000Y-70000000D02*
X51450000Y-57000000D01*
X37450000Y-57000000D02*
G75*
G02*
X37950000Y-56500000I500000J0D01*
G01*
X37950000Y-70500000D02*
G75*
G02*
X37450000Y-70000000I0J500000D01*
G01*
X50950000Y-56500000D02*
G75*
G02*
X51450000Y-57000000I-1J-500001D01*
G01*
X51447236Y-69998884D02*
G75*
G02*
X50947236Y-70498884I-500001J1D01*
G01*
G04 #@! TO.C,S1*
X95843750Y-75049999D02*
X95843750Y-88049999D01*
X102093750Y-74549999D02*
X96343750Y-74549999D01*
X102093750Y-88549999D02*
X96343750Y-88549999D01*
X102593750Y-75049999D02*
X102593750Y-88049999D01*
X119656250Y-75049999D02*
X119656250Y-88049999D01*
X125905039Y-88549999D02*
X120156250Y-88549999D01*
X125906250Y-74549999D02*
X120156250Y-74549999D01*
X126406250Y-75049999D02*
X126405039Y-88049999D01*
X95843750Y-75049999D02*
G75*
G02*
X96343750Y-74549999I500001J-1D01*
G01*
X96343750Y-88549999D02*
G75*
G02*
X95843750Y-88049999I1J500001D01*
G01*
X102093750Y-74549999D02*
G75*
G02*
X102593750Y-75049999I-1J-500001D01*
G01*
X102593750Y-88049999D02*
G75*
G02*
X102093750Y-88549999I-500001J1D01*
G01*
X119656250Y-75049999D02*
G75*
G02*
X120156250Y-74550000I499970J29D01*
G01*
X120156250Y-88549999D02*
G75*
G02*
X119656201Y-88049999I50J500099D01*
G01*
X125906250Y-74549999D02*
G75*
G02*
X126406301Y-75049999I-50J-500101D01*
G01*
X126405039Y-88049999D02*
G75*
G02*
X125905039Y-88549999I-500039J39D01*
G01*
G04 #@! TO.C,MX87*
X166037368Y-57000000D02*
X166037368Y-70000000D01*
X166537368Y-70500000D02*
X179537368Y-70500000D01*
X179537368Y-56500000D02*
X166537368Y-56500000D01*
X180037368Y-70000000D02*
X180037368Y-57000000D01*
X166037368Y-57000000D02*
G75*
G02*
X166537368Y-56500000I500000J0D01*
G01*
X166537368Y-70500000D02*
G75*
G02*
X166037368Y-70000000I0J500000D01*
G01*
X179537368Y-56500000D02*
G75*
G02*
X180037368Y-57000000I-1J-500001D01*
G01*
X180034604Y-69998884D02*
G75*
G02*
X179534604Y-70498884I-500001J1D01*
G01*
G04 #@! TO.C,MX45*
X247000000Y-57000000D02*
X247000000Y-70000000D01*
X247500000Y-70500000D02*
X260500000Y-70500000D01*
X260500000Y-56500000D02*
X247500000Y-56500000D01*
X261000000Y-70000000D02*
X261000000Y-57000000D01*
X247000000Y-57000000D02*
G75*
G02*
X247500000Y-56500000I500000J0D01*
G01*
X247500000Y-70500000D02*
G75*
G02*
X247000000Y-70000000I0J500000D01*
G01*
X260500000Y-56500000D02*
G75*
G02*
X261000000Y-57000000I-1J-500001D01*
G01*
X260997236Y-69998884D02*
G75*
G02*
X260497236Y-70498884I-500001J1D01*
G01*
G04 #@! TO.C,S10*
X136325000Y-75049999D02*
X136325000Y-88049999D01*
X142575000Y-74549999D02*
X136825000Y-74549999D01*
X142575000Y-88549999D02*
X136825000Y-88549999D01*
X143075000Y-75049999D02*
X143075000Y-88049999D01*
X174425000Y-75049999D02*
X174425000Y-88049999D01*
X180673789Y-88549999D02*
X174925000Y-88549999D01*
X180675000Y-74549999D02*
X174925000Y-74549999D01*
X181175000Y-75049999D02*
X181173789Y-88049999D01*
X136325000Y-75049999D02*
G75*
G02*
X136825000Y-74549999I500001J-1D01*
G01*
X136825000Y-88549999D02*
G75*
G02*
X136325000Y-88049999I1J500001D01*
G01*
X142575000Y-74549999D02*
G75*
G02*
X143075000Y-75049999I-1J-500001D01*
G01*
X143075000Y-88049999D02*
G75*
G02*
X142575000Y-88549999I-500001J1D01*
G01*
X174425000Y-75049999D02*
G75*
G02*
X174925000Y-74550000I500000J-1D01*
G01*
X174925000Y-88549999D02*
G75*
G02*
X174425001Y-88049999I0J499999D01*
G01*
X180675000Y-74549999D02*
G75*
G02*
X181175001Y-75049999I0J-500001D01*
G01*
X181173789Y-88049999D02*
G75*
G02*
X180673789Y-88549989I-499989J-1D01*
G01*
G04 #@! TO.C,MX64*
X285100000Y-76050000D02*
X285100000Y-89050000D01*
X285600000Y-89550000D02*
X298600000Y-89550000D01*
X298600000Y-75550000D02*
X285600000Y-75550000D01*
X299100000Y-89050000D02*
X299100000Y-76050000D01*
X285100000Y-76050000D02*
G75*
G02*
X285600000Y-75550000I500000J0D01*
G01*
X285600000Y-89550000D02*
G75*
G02*
X285100000Y-89050000I0J500000D01*
G01*
X298600000Y-75550000D02*
G75*
G02*
X299100000Y-76050000I-1J-500001D01*
G01*
X299097236Y-89048884D02*
G75*
G02*
X298597236Y-89548884I-500001J1D01*
G01*
G04 #@! TO.C,MX18*
X37450000Y-37950000D02*
X37450000Y-50950000D01*
X37950000Y-51450000D02*
X50950000Y-51450000D01*
X50950000Y-37450000D02*
X37950000Y-37450000D01*
X51450000Y-50950000D02*
X51450000Y-37950000D01*
X37450000Y-37950000D02*
G75*
G02*
X37950000Y-37450000I500000J0D01*
G01*
X37950000Y-51450000D02*
G75*
G02*
X37450000Y-50950000I0J500000D01*
G01*
X50950000Y-37450000D02*
G75*
G02*
X51450000Y-37950000I-1J-500001D01*
G01*
X51447236Y-50948884D02*
G75*
G02*
X50947236Y-51448884I-500001J1D01*
G01*
G04 #@! TO.C,MX63*
X266050000Y-76050000D02*
X266050000Y-89050000D01*
X266550000Y-89550000D02*
X279550000Y-89550000D01*
X279550000Y-75550000D02*
X266550000Y-75550000D01*
X280050000Y-89050000D02*
X280050000Y-76050000D01*
X266050000Y-76050000D02*
G75*
G02*
X266550000Y-75550000I500000J0D01*
G01*
X266550000Y-89550000D02*
G75*
G02*
X266050000Y-89050000I0J500000D01*
G01*
X279550000Y-75550000D02*
G75*
G02*
X280050000Y-76050000I-1J-500001D01*
G01*
X280047236Y-89048884D02*
G75*
G02*
X279547236Y-89548884I-500001J1D01*
G01*
G04 #@! TO.C,MX76*
X156512376Y-37950000D02*
X156512376Y-50950000D01*
X157012376Y-51450000D02*
X170012376Y-51450000D01*
X170012376Y-37450000D02*
X157012376Y-37450000D01*
X170512376Y-50950000D02*
X170512376Y-37950000D01*
X156515140Y-37951116D02*
G75*
G02*
X157015140Y-37451116I500001J-1D01*
G01*
X157012376Y-51450000D02*
G75*
G02*
X156512376Y-50950000I1J500001D01*
G01*
X170012376Y-37450000D02*
G75*
G02*
X170512376Y-37950000I0J-500000D01*
G01*
X170512376Y-50950000D02*
G75*
G02*
X170012376Y-51450000I-500000J0D01*
G01*
G04 #@! TO.C,MX2*
X37450000Y-18900000D02*
X37450000Y-31900000D01*
X37950000Y-32400000D02*
X50950000Y-32400000D01*
X50950000Y-18400000D02*
X37950000Y-18400000D01*
X51450000Y-31900000D02*
X51450000Y-18900000D01*
X37450000Y-18900000D02*
G75*
G02*
X37950000Y-18400000I500000J0D01*
G01*
X37950000Y-32400000D02*
G75*
G02*
X37450000Y-31900000I0J500000D01*
G01*
X50950000Y-18400000D02*
G75*
G02*
X51450000Y-18900000I-1J-500001D01*
G01*
X51447236Y-31898884D02*
G75*
G02*
X50947236Y-32398884I-500001J1D01*
G01*
G04 #@! TO.C,MX58*
X189850000Y-76050000D02*
X189850000Y-89050000D01*
X190350000Y-89550000D02*
X203350000Y-89550000D01*
X203350000Y-75550000D02*
X190350000Y-75550000D01*
X203850000Y-89050000D02*
X203850000Y-76050000D01*
X189850000Y-76050000D02*
G75*
G02*
X190350000Y-75550000I500000J0D01*
G01*
X190350000Y-89550000D02*
G75*
G02*
X189850000Y-89050000I0J500000D01*
G01*
X203350000Y-75550000D02*
G75*
G02*
X203850000Y-76050000I-1J-500001D01*
G01*
X203847236Y-89048884D02*
G75*
G02*
X203347236Y-89548884I-500001J1D01*
G01*
G04 #@! TO.C,MX6*
X113650000Y-18900000D02*
X113650000Y-31900000D01*
X114150000Y-32400000D02*
X127150000Y-32400000D01*
X127150000Y-18400000D02*
X114150000Y-18400000D01*
X127650000Y-31900000D02*
X127650000Y-18900000D01*
X113650000Y-18900000D02*
G75*
G02*
X114150000Y-18400000I500000J0D01*
G01*
X114150000Y-32400000D02*
G75*
G02*
X113650000Y-31900000I0J500000D01*
G01*
X127150000Y-18400000D02*
G75*
G02*
X127650000Y-18900000I-1J-500001D01*
G01*
X127647236Y-31898884D02*
G75*
G02*
X127147236Y-32398884I-500001J1D01*
G01*
G04 #@! TO.C,MX8*
X151750000Y-18900000D02*
X151750000Y-31900000D01*
X152250000Y-32400000D02*
X165250000Y-32400000D01*
X165250000Y-18400000D02*
X152250000Y-18400000D01*
X165750000Y-31900000D02*
X165750000Y-18900000D01*
X151750000Y-18900000D02*
G75*
G02*
X152250000Y-18400000I500000J0D01*
G01*
X152250000Y-32400000D02*
G75*
G02*
X151750000Y-31900000I0J500000D01*
G01*
X165250000Y-18400000D02*
G75*
G02*
X165750000Y-18900000I-1J-500001D01*
G01*
X165747236Y-31898884D02*
G75*
G02*
X165247236Y-32398884I-500001J1D01*
G01*
G04 #@! TO.C,MX38*
X113650000Y-57000000D02*
X113650000Y-70000000D01*
X114150000Y-70500000D02*
X127150000Y-70500000D01*
X127150000Y-56500000D02*
X114150000Y-56500000D01*
X127650000Y-70000000D02*
X127650000Y-57000000D01*
X113652764Y-57001116D02*
G75*
G02*
X114152764Y-56501116I500001J-1D01*
G01*
X114150000Y-70500000D02*
G75*
G02*
X113650000Y-70000000I1J500001D01*
G01*
X127150000Y-56500000D02*
G75*
G02*
X127650000Y-57000000I0J-500000D01*
G01*
X127650000Y-70000000D02*
G75*
G02*
X127150000Y-70500000I-500000J0D01*
G01*
G04 #@! TO.C,MX79*
X220806072Y-37949999D02*
X220806072Y-50950001D01*
X221306071Y-51450000D02*
X234306073Y-51450000D01*
X234306073Y-37450000D02*
X221306071Y-37450000D01*
X234806072Y-50950001D02*
X234806072Y-37949999D01*
X220806072Y-37949999D02*
G75*
G02*
X221306071Y-37450000I500000J-1D01*
G01*
X221306071Y-51450000D02*
G75*
G02*
X220806072Y-50950001I1J500000D01*
G01*
X234306073Y-37450000D02*
G75*
G02*
X234806072Y-37949999I-2J-500001D01*
G01*
X234803308Y-50948884D02*
G75*
G02*
X234303308Y-51448884I-500001J1D01*
G01*
G04 #@! TO.C,MX7*
X132700000Y-18900000D02*
X132700000Y-31900000D01*
X133200000Y-32400000D02*
X146200000Y-32400000D01*
X146200000Y-18400000D02*
X133200000Y-18400000D01*
X146700000Y-31900000D02*
X146700000Y-18900000D01*
X132700000Y-18900000D02*
G75*
G02*
X133200000Y-18400000I500000J0D01*
G01*
X133200000Y-32400000D02*
G75*
G02*
X132700000Y-31900000I0J500000D01*
G01*
X146200000Y-18400000D02*
G75*
G02*
X146700000Y-18900000I-1J-500001D01*
G01*
X146697236Y-31898884D02*
G75*
G02*
X146197236Y-32398884I-500001J1D01*
G01*
G04 #@! TO.C,MX3*
X56500000Y-18900000D02*
X56500000Y-31900000D01*
X57000000Y-32400000D02*
X70000000Y-32400000D01*
X70000000Y-18400000D02*
X57000000Y-18400000D01*
X70500000Y-31900000D02*
X70500000Y-18900000D01*
X56500000Y-18900000D02*
G75*
G02*
X57000000Y-18400000I500000J0D01*
G01*
X57000000Y-32400000D02*
G75*
G02*
X56500000Y-31900000I0J500000D01*
G01*
X70000000Y-18400000D02*
G75*
G02*
X70500000Y-18900000I-1J-500001D01*
G01*
X70497236Y-31898884D02*
G75*
G02*
X69997236Y-32398884I-500001J1D01*
G01*
G04 #@! TO.C,MX55*
X132700000Y-76050000D02*
X132700000Y-89050000D01*
X133200000Y-89550000D02*
X146200000Y-89550000D01*
X146200000Y-75550000D02*
X133200000Y-75550000D01*
X146700000Y-89050000D02*
X146700000Y-76050000D01*
X132700000Y-76050000D02*
G75*
G02*
X133200000Y-75550000I500000J0D01*
G01*
X133200000Y-89550000D02*
G75*
G02*
X132700000Y-89050000I0J500000D01*
G01*
X146200000Y-75550000D02*
G75*
G02*
X146700000Y-76050000I-1J-500001D01*
G01*
X146697236Y-89048884D02*
G75*
G02*
X146197236Y-89548884I-500001J1D01*
G01*
G04 #@! TD*
M02*
