G04 #@! TF.GenerationSoftware,KiCad,Pcbnew,8.0.4-1.fc39*
G04 #@! TF.CreationDate,2024-09-17T18:41:10-04:00*
G04 #@! TF.ProjectId,Q9-Chimera,51392d43-6869-46d6-9572-612e6b696361,rev?*
G04 #@! TF.SameCoordinates,Original*
G04 #@! TF.FileFunction,Other,User*
%FSLAX46Y46*%
G04 Gerber Fmt 4.6, Leading zero omitted, Abs format (unit mm)*
G04 Created by KiCad (PCBNEW 8.0.4-1.fc39) date 2024-09-17 18:41:10*
%MOMM*%
%LPD*%
G01*
G04 APERTURE LIST*
%ADD10C,0.050000*%
G04 APERTURE END LIST*
D10*
G04 #@! TO.C,C2*
X33869672Y-28869361D02*
X34789672Y-28869361D01*
X33869672Y-30689361D02*
X33869672Y-28869361D01*
X34789672Y-28869361D02*
X34789672Y-30689361D01*
X34789672Y-30689361D02*
X33869672Y-30689361D01*
G04 #@! TO.C,MX9*
X169114824Y-21649780D02*
X171714824Y-21649780D01*
X169114824Y-24099780D02*
X169114824Y-21649780D01*
X171714824Y-20649780D02*
X171714824Y-21649780D01*
X171714824Y-24099780D02*
X169114824Y-24099780D01*
X171714824Y-24539780D02*
X171714824Y-24099780D01*
X175305678Y-24539780D02*
X171714824Y-24539780D01*
X177600000Y-22699780D02*
X182664824Y-22699780D01*
X182664824Y-18649780D02*
X173714824Y-18649780D01*
X182664824Y-19079780D02*
X182664824Y-18649780D01*
X182664824Y-19079780D02*
X185214824Y-19079780D01*
X182664824Y-22699780D02*
X182664824Y-21529780D01*
X185214824Y-19079780D02*
X185214824Y-21529780D01*
X185214824Y-21529780D02*
X182664824Y-21529780D01*
X171714824Y-20649780D02*
G75*
G02*
X173714824Y-18649780I2000005J-5D01*
G01*
X175305678Y-24539780D02*
G75*
G02*
X177600000Y-22699780I2294320J-510409D01*
G01*
G04 #@! TO.C,D6*
X122581928Y-23843750D02*
X124881928Y-23843750D01*
X122581928Y-28543750D02*
X122581928Y-23843750D01*
X122581928Y-28543750D02*
X124881928Y-28543750D01*
X124881928Y-23843750D02*
X124881928Y-28543750D01*
G04 #@! TO.C,D56*
X160681896Y-80993750D02*
X162981896Y-80993750D01*
X160681896Y-85693750D02*
X160681896Y-80993750D01*
X160681896Y-85693750D02*
X162981896Y-85693750D01*
X162981896Y-80993750D02*
X162981896Y-85693750D01*
G04 #@! TO.C,U2*
X57037464Y-33172641D02*
X57037464Y-37272639D01*
X57037464Y-37272639D02*
X60437464Y-37272639D01*
X60437464Y-33172641D02*
X57037464Y-33172641D01*
X60437464Y-37272639D02*
X60437464Y-33172641D01*
G04 #@! TO.C,D43*
X222479512Y-67707768D02*
X227179512Y-67707768D01*
X222479512Y-70007768D02*
X222479512Y-67707768D01*
X227179512Y-70007768D02*
X222479512Y-70007768D01*
X227179512Y-70007768D02*
X227179512Y-67707768D01*
G04 #@! TO.C,MX20*
X73864824Y-40699780D02*
X76464824Y-40699780D01*
X73864824Y-43149780D02*
X73864824Y-40699780D01*
X76464824Y-39699780D02*
X76464824Y-40699780D01*
X76464824Y-43149780D02*
X73864824Y-43149780D01*
X76464824Y-43589780D02*
X76464824Y-43149780D01*
X80055678Y-43589780D02*
X76464824Y-43589780D01*
X82350000Y-41749780D02*
X87414824Y-41749780D01*
X87414824Y-37699780D02*
X78464824Y-37699780D01*
X87414824Y-38129780D02*
X87414824Y-37699780D01*
X87414824Y-38129780D02*
X89964824Y-38129780D01*
X87414824Y-41749780D02*
X87414824Y-40579780D01*
X89964824Y-38129780D02*
X89964824Y-40579780D01*
X89964824Y-40579780D02*
X87414824Y-40579780D01*
X76464824Y-39699780D02*
G75*
G02*
X78464824Y-37699780I2000005J-5D01*
G01*
X80055678Y-43589780D02*
G75*
G02*
X82350000Y-41749780I2294320J-510409D01*
G01*
G04 #@! TO.C,MX90*
X223883392Y-59749780D02*
X226483392Y-59749780D01*
X223883392Y-62199780D02*
X223883392Y-59749780D01*
X226483392Y-58749780D02*
X226483392Y-59749780D01*
X226483392Y-62199780D02*
X223883392Y-62199780D01*
X226483392Y-62639780D02*
X226483392Y-62199780D01*
X230074246Y-62639780D02*
X226483392Y-62639780D01*
X232368568Y-60799780D02*
X237433392Y-60799780D01*
X237433392Y-56749780D02*
X228483392Y-56749780D01*
X237433392Y-57179780D02*
X237433392Y-56749780D01*
X237433392Y-57179780D02*
X239983392Y-57179780D01*
X237433392Y-60799780D02*
X237433392Y-59629780D01*
X239983392Y-57179780D02*
X239983392Y-59629780D01*
X239983392Y-59629780D02*
X237433392Y-59629780D01*
X226483392Y-58749780D02*
G75*
G02*
X228483392Y-56749780I2000005J-5D01*
G01*
X230074246Y-62639780D02*
G75*
G02*
X232368568Y-60799780I2294320J-510409D01*
G01*
G04 #@! TO.C,D1*
X27332008Y-23843750D02*
X29632008Y-23843750D01*
X27332008Y-28543750D02*
X27332008Y-23843750D01*
X27332008Y-28543750D02*
X29632008Y-28543750D01*
X29632008Y-23843750D02*
X29632008Y-28543750D01*
G04 #@! TO.C,D3*
X65431976Y-23843750D02*
X67731976Y-23843750D01*
X65431976Y-28543750D02*
X65431976Y-23843750D01*
X65431976Y-28543750D02*
X67731976Y-28543750D01*
X67731976Y-23843750D02*
X67731976Y-28543750D01*
G04 #@! TO.C,D17*
X34063264Y-48657784D02*
X38763264Y-48657784D01*
X34063264Y-50957784D02*
X34063264Y-48657784D01*
X38763264Y-50957784D02*
X34063264Y-50957784D01*
X38763264Y-50957784D02*
X38763264Y-48657784D01*
G04 #@! TO.C,D11*
X207308432Y-28543750D02*
X207308432Y-23843750D01*
X209608432Y-23843750D02*
X207308432Y-23843750D01*
X209608432Y-23843750D02*
X209608432Y-28543750D01*
X209608432Y-28543750D02*
X207308432Y-28543750D01*
G04 #@! TO.C,D45*
X255931816Y-61943750D02*
X258231816Y-61943750D01*
X255931816Y-66643750D02*
X255931816Y-61943750D01*
X255931816Y-66643750D02*
X258231816Y-66643750D01*
X258231816Y-61943750D02*
X258231816Y-66643750D01*
G04 #@! TO.C,MX49*
X35764824Y-78799780D02*
X38364824Y-78799780D01*
X35764824Y-81249780D02*
X35764824Y-78799780D01*
X38364824Y-77799780D02*
X38364824Y-78799780D01*
X38364824Y-81249780D02*
X35764824Y-81249780D01*
X38364824Y-81689780D02*
X38364824Y-81249780D01*
X41955678Y-81689780D02*
X38364824Y-81689780D01*
X44250000Y-79849780D02*
X49314824Y-79849780D01*
X49314824Y-75799780D02*
X40364824Y-75799780D01*
X49314824Y-76229780D02*
X49314824Y-75799780D01*
X49314824Y-76229780D02*
X51864824Y-76229780D01*
X49314824Y-79849780D02*
X49314824Y-78679780D01*
X51864824Y-76229780D02*
X51864824Y-78679780D01*
X51864824Y-78679780D02*
X49314824Y-78679780D01*
X38364824Y-77799780D02*
G75*
G02*
X40364824Y-75799780I2000005J-5D01*
G01*
X41955678Y-81689780D02*
G75*
G02*
X44250000Y-79849780I2294320J-510409D01*
G01*
G04 #@! TO.C,MX36*
X75135176Y-67370220D02*
X77685176Y-67370220D01*
X75135176Y-69820220D02*
X75135176Y-67370220D01*
X77685176Y-66200220D02*
X77685176Y-67370220D01*
X77685176Y-69820220D02*
X75135176Y-69820220D01*
X77685176Y-69820220D02*
X77685176Y-70250220D01*
X77685176Y-70250220D02*
X86635176Y-70250220D01*
X82750000Y-66200220D02*
X77685176Y-66200220D01*
X85044322Y-64360220D02*
X88635176Y-64360220D01*
X88635176Y-64360220D02*
X88635176Y-64800220D01*
X88635176Y-64800220D02*
X91235176Y-64800220D01*
X88635176Y-68250220D02*
X88635176Y-67250220D01*
X91235176Y-64800220D02*
X91235176Y-67250220D01*
X91235176Y-67250220D02*
X88635176Y-67250220D01*
X85044322Y-64360220D02*
G75*
G02*
X82750000Y-66200220I-2294320J510409D01*
G01*
X88635176Y-68250220D02*
G75*
G02*
X86635176Y-70250220I-2000005J5D01*
G01*
G04 #@! TO.C,D64*
X294031784Y-80993750D02*
X296331784Y-80993750D01*
X294031784Y-85693750D02*
X294031784Y-80993750D01*
X294031784Y-85693750D02*
X296331784Y-85693750D01*
X296331784Y-80993750D02*
X296331784Y-85693750D01*
G04 #@! TO.C,D65*
X313081768Y-80993750D02*
X315381768Y-80993750D01*
X313081768Y-85693750D02*
X313081768Y-80993750D01*
X313081768Y-85693750D02*
X315381768Y-85693750D01*
X315381768Y-80993750D02*
X315381768Y-85693750D01*
G04 #@! TO.C,C1*
X39773420Y-30779360D02*
X40693420Y-30779360D01*
X39773420Y-32599360D02*
X39773420Y-30779360D01*
X40693420Y-30779360D02*
X40693420Y-32599360D01*
X40693420Y-32599360D02*
X39773420Y-32599360D01*
G04 #@! TO.C,MX16*
X307227324Y-21649780D02*
X309827324Y-21649780D01*
X307227324Y-24099780D02*
X307227324Y-21649780D01*
X309827324Y-20649780D02*
X309827324Y-21649780D01*
X309827324Y-24099780D02*
X307227324Y-24099780D01*
X309827324Y-24539780D02*
X309827324Y-24099780D01*
X313418178Y-24539780D02*
X309827324Y-24539780D01*
X315712500Y-22699780D02*
X320777324Y-22699780D01*
X320777324Y-18649780D02*
X311827324Y-18649780D01*
X320777324Y-19079780D02*
X320777324Y-18649780D01*
X320777324Y-19079780D02*
X323327324Y-19079780D01*
X320777324Y-22699780D02*
X320777324Y-21529780D01*
X323327324Y-19079780D02*
X323327324Y-21529780D01*
X323327324Y-21529780D02*
X320777324Y-21529780D01*
X309827324Y-20649780D02*
G75*
G02*
X311827324Y-18649780I2000005J-5D01*
G01*
X313418178Y-24539780D02*
G75*
G02*
X315712500Y-22699780I2294320J-510409D01*
G01*
G04 #@! TO.C,D27*
X222181856Y-48657784D02*
X226881856Y-48657784D01*
X222181856Y-50957784D02*
X222181856Y-48657784D01*
X226881856Y-50957784D02*
X222181856Y-50957784D01*
X226881856Y-50957784D02*
X226881856Y-48657784D01*
G04 #@! TO.C,D59*
X192574460Y-82581256D02*
X194874460Y-82581256D01*
X192574460Y-87281256D02*
X192574460Y-82581256D01*
X192574460Y-87281256D02*
X194874460Y-87281256D01*
X194874460Y-82581256D02*
X194874460Y-87281256D01*
G04 #@! TO.C,MX5*
X92914824Y-21649780D02*
X95514824Y-21649780D01*
X92914824Y-24099780D02*
X92914824Y-21649780D01*
X95514824Y-20649780D02*
X95514824Y-21649780D01*
X95514824Y-24099780D02*
X92914824Y-24099780D01*
X95514824Y-24539780D02*
X95514824Y-24099780D01*
X99105678Y-24539780D02*
X95514824Y-24539780D01*
X101400000Y-22699780D02*
X106464824Y-22699780D01*
X106464824Y-18649780D02*
X97514824Y-18649780D01*
X106464824Y-19079780D02*
X106464824Y-18649780D01*
X106464824Y-19079780D02*
X109014824Y-19079780D01*
X106464824Y-22699780D02*
X106464824Y-21529780D01*
X109014824Y-19079780D02*
X109014824Y-21529780D01*
X109014824Y-21529780D02*
X106464824Y-21529780D01*
X95514824Y-20649780D02*
G75*
G02*
X97514824Y-18649780I2000005J-5D01*
G01*
X99105678Y-24539780D02*
G75*
G02*
X101400000Y-22699780I2294320J-510409D01*
G01*
G04 #@! TO.C,R4*
X322380276Y-40104184D02*
X324240276Y-40104184D01*
X322380276Y-41044184D02*
X322380276Y-40104184D01*
X324240276Y-40104184D02*
X324240276Y-41044184D01*
X324240276Y-41044184D02*
X322380276Y-41044184D01*
G04 #@! TO.C,MX37*
X94185176Y-67370220D02*
X96735176Y-67370220D01*
X94185176Y-69820220D02*
X94185176Y-67370220D01*
X96735176Y-66200220D02*
X96735176Y-67370220D01*
X96735176Y-69820220D02*
X94185176Y-69820220D01*
X96735176Y-69820220D02*
X96735176Y-70250220D01*
X96735176Y-70250220D02*
X105685176Y-70250220D01*
X101800000Y-66200220D02*
X96735176Y-66200220D01*
X104094322Y-64360220D02*
X107685176Y-64360220D01*
X107685176Y-64360220D02*
X107685176Y-64800220D01*
X107685176Y-64800220D02*
X110285176Y-64800220D01*
X107685176Y-68250220D02*
X107685176Y-67250220D01*
X110285176Y-64800220D02*
X110285176Y-67250220D01*
X110285176Y-67250220D02*
X107685176Y-67250220D01*
X104094322Y-64360220D02*
G75*
G02*
X101800000Y-66200220I-2294320J510409D01*
G01*
X107685176Y-68250220D02*
G75*
G02*
X105685176Y-70250220I-2000005J5D01*
G01*
G04 #@! TO.C,D44*
X241529496Y-67707768D02*
X246229496Y-67707768D01*
X241529496Y-70007768D02*
X241529496Y-67707768D01*
X246229496Y-70007768D02*
X241529496Y-70007768D01*
X246229496Y-70007768D02*
X246229496Y-67707768D01*
G04 #@! TO.C,D51*
X69493750Y-80993750D02*
X71793750Y-80993750D01*
X69493750Y-85693750D02*
X69493750Y-80993750D01*
X69493750Y-85693750D02*
X71793750Y-85693750D01*
X71793750Y-80993750D02*
X71793750Y-85693750D01*
G04 #@! TO.C,D22*
X131694432Y-48657784D02*
X136394432Y-48657784D01*
X131694432Y-50957784D02*
X131694432Y-48657784D01*
X136394432Y-50957784D02*
X131694432Y-50957784D01*
X136394432Y-50957784D02*
X136394432Y-48657784D01*
G04 #@! TO.C,MX82*
X69102272Y-59749780D02*
X71702272Y-59749780D01*
X69102272Y-62199780D02*
X69102272Y-59749780D01*
X71702272Y-58749780D02*
X71702272Y-59749780D01*
X71702272Y-62199780D02*
X69102272Y-62199780D01*
X71702272Y-62639780D02*
X71702272Y-62199780D01*
X75293126Y-62639780D02*
X71702272Y-62639780D01*
X77587448Y-60799780D02*
X82652272Y-60799780D01*
X82652272Y-56749780D02*
X73702272Y-56749780D01*
X82652272Y-57179780D02*
X82652272Y-56749780D01*
X82652272Y-57179780D02*
X85202272Y-57179780D01*
X82652272Y-60799780D02*
X82652272Y-59629780D01*
X85202272Y-57179780D02*
X85202272Y-59629780D01*
X85202272Y-59629780D02*
X82652272Y-59629780D01*
X71702272Y-58749780D02*
G75*
G02*
X73702272Y-56749780I2000005J-5D01*
G01*
X75293126Y-62639780D02*
G75*
G02*
X77587448Y-60799780I2294320J-510409D01*
G01*
G04 #@! TO.C,MX44*
X227535176Y-67370220D02*
X230085176Y-67370220D01*
X227535176Y-69820220D02*
X227535176Y-67370220D01*
X230085176Y-66200220D02*
X230085176Y-67370220D01*
X230085176Y-69820220D02*
X227535176Y-69820220D01*
X230085176Y-69820220D02*
X230085176Y-70250220D01*
X230085176Y-70250220D02*
X239035176Y-70250220D01*
X235150000Y-66200220D02*
X230085176Y-66200220D01*
X237444322Y-64360220D02*
X241035176Y-64360220D01*
X241035176Y-64360220D02*
X241035176Y-64800220D01*
X241035176Y-64800220D02*
X243635176Y-64800220D01*
X241035176Y-68250220D02*
X241035176Y-67250220D01*
X243635176Y-64800220D02*
X243635176Y-67250220D01*
X243635176Y-67250220D02*
X241035176Y-67250220D01*
X237444322Y-64360220D02*
G75*
G02*
X235150000Y-66200220I-2294320J510409D01*
G01*
X241035176Y-68250220D02*
G75*
G02*
X239035176Y-70250220I-2000005J5D01*
G01*
G04 #@! TO.C,MX30*
X264364824Y-40699780D02*
X266964824Y-40699780D01*
X264364824Y-43149780D02*
X264364824Y-40699780D01*
X266964824Y-39699780D02*
X266964824Y-40699780D01*
X266964824Y-43149780D02*
X264364824Y-43149780D01*
X266964824Y-43589780D02*
X266964824Y-43149780D01*
X270555678Y-43589780D02*
X266964824Y-43589780D01*
X272850000Y-41749780D02*
X277914824Y-41749780D01*
X277914824Y-37699780D02*
X268964824Y-37699780D01*
X277914824Y-38129780D02*
X277914824Y-37699780D01*
X277914824Y-38129780D02*
X280464824Y-38129780D01*
X277914824Y-41749780D02*
X277914824Y-40579780D01*
X280464824Y-38129780D02*
X280464824Y-40579780D01*
X280464824Y-40579780D02*
X277914824Y-40579780D01*
X266964824Y-39699780D02*
G75*
G02*
X268964824Y-37699780I2000005J-5D01*
G01*
X270555678Y-43589780D02*
G75*
G02*
X272850000Y-41749780I2294320J-510409D01*
G01*
G04 #@! TO.C,MX52*
X92914824Y-78799780D02*
X95514824Y-78799780D01*
X92914824Y-81249780D02*
X92914824Y-78799780D01*
X95514824Y-77799780D02*
X95514824Y-78799780D01*
X95514824Y-81249780D02*
X92914824Y-81249780D01*
X95514824Y-81689780D02*
X95514824Y-81249780D01*
X99105678Y-81689780D02*
X95514824Y-81689780D01*
X101400000Y-79849780D02*
X106464824Y-79849780D01*
X106464824Y-75799780D02*
X97514824Y-75799780D01*
X106464824Y-76229780D02*
X106464824Y-75799780D01*
X106464824Y-76229780D02*
X109014824Y-76229780D01*
X106464824Y-79849780D02*
X106464824Y-78679780D01*
X109014824Y-76229780D02*
X109014824Y-78679780D01*
X109014824Y-78679780D02*
X106464824Y-78679780D01*
X95514824Y-77799780D02*
G75*
G02*
X97514824Y-75799780I2000004J-4D01*
G01*
X99105678Y-81689780D02*
G75*
G02*
X101400000Y-79849780I2294320J-510409D01*
G01*
G04 #@! TO.C,R8*
X305278572Y-50955112D02*
X306218572Y-50955112D01*
X305278572Y-52815112D02*
X305278572Y-50955112D01*
X306218572Y-50955112D02*
X306218572Y-52815112D01*
X306218572Y-52815112D02*
X305278572Y-52815112D01*
G04 #@! TO.C,D13*
X255931816Y-23843750D02*
X258231816Y-23843750D01*
X255931816Y-28543750D02*
X255931816Y-23843750D01*
X255931816Y-28543750D02*
X258231816Y-28543750D01*
X258231816Y-23843750D02*
X258231816Y-28543750D01*
G04 #@! TO.C,MX50*
X54814824Y-78799780D02*
X57414824Y-78799780D01*
X54814824Y-81249780D02*
X54814824Y-78799780D01*
X57414824Y-77799780D02*
X57414824Y-78799780D01*
X57414824Y-81249780D02*
X54814824Y-81249780D01*
X57414824Y-81689780D02*
X57414824Y-81249780D01*
X61005678Y-81689780D02*
X57414824Y-81689780D01*
X63300000Y-79849780D02*
X68364824Y-79849780D01*
X68364824Y-75799780D02*
X59414824Y-75799780D01*
X68364824Y-76229780D02*
X68364824Y-75799780D01*
X68364824Y-76229780D02*
X70914824Y-76229780D01*
X68364824Y-79849780D02*
X68364824Y-78679780D01*
X70914824Y-76229780D02*
X70914824Y-78679780D01*
X70914824Y-78679780D02*
X68364824Y-78679780D01*
X57414824Y-77799780D02*
G75*
G02*
X59414824Y-75799780I2000005J-5D01*
G01*
X61005678Y-81689780D02*
G75*
G02*
X63300000Y-79849780I2294320J-510409D01*
G01*
G04 #@! TO.C,D15*
X294031784Y-23843750D02*
X296331784Y-23843750D01*
X294031784Y-28543750D02*
X294031784Y-23843750D01*
X294031784Y-28543750D02*
X296331784Y-28543750D01*
X296331784Y-23843750D02*
X296331784Y-28543750D01*
G04 #@! TO.C,C10*
X308649364Y-74825166D02*
X309936298Y-73538232D01*
X309299902Y-75475704D02*
X308649364Y-74825166D01*
X309936298Y-73538232D02*
X310586836Y-74188770D01*
X310586836Y-74188770D02*
X309299902Y-75475704D01*
G04 #@! TO.C,D31*
X294031784Y-42893750D02*
X296331784Y-42893750D01*
X294031784Y-47593750D02*
X294031784Y-42893750D01*
X294031784Y-47593750D02*
X296331784Y-47593750D01*
X296331784Y-42893750D02*
X296331784Y-47593750D01*
G04 #@! TO.C,MX83*
X88152256Y-59749780D02*
X90752256Y-59749780D01*
X88152256Y-62199780D02*
X88152256Y-59749780D01*
X90752256Y-58749780D02*
X90752256Y-59749780D01*
X90752256Y-62199780D02*
X88152256Y-62199780D01*
X90752256Y-62639780D02*
X90752256Y-62199780D01*
X94343110Y-62639780D02*
X90752256Y-62639780D01*
X96637432Y-60799780D02*
X101702256Y-60799780D01*
X101702256Y-56749780D02*
X92752256Y-56749780D01*
X101702256Y-57179780D02*
X101702256Y-56749780D01*
X101702256Y-57179780D02*
X104252256Y-57179780D01*
X101702256Y-60799780D02*
X101702256Y-59629780D01*
X104252256Y-57179780D02*
X104252256Y-59629780D01*
X104252256Y-59629780D02*
X101702256Y-59629780D01*
X90752256Y-58749780D02*
G75*
G02*
X92752256Y-56749780I2000005J-5D01*
G01*
X94343110Y-62639780D02*
G75*
G02*
X96637432Y-60799780I2294320J-510409D01*
G01*
G04 #@! TO.C,MX74*
X117997584Y-48320220D02*
X120547584Y-48320220D01*
X117997584Y-50770220D02*
X117997584Y-48320220D01*
X120547584Y-47150220D02*
X120547584Y-48320220D01*
X120547584Y-50770220D02*
X117997584Y-50770220D01*
X120547584Y-50770220D02*
X120547584Y-51200220D01*
X120547584Y-51200220D02*
X129497584Y-51200220D01*
X125612408Y-47150220D02*
X120547584Y-47150220D01*
X127906730Y-45310220D02*
X131497584Y-45310220D01*
X131497584Y-45310220D02*
X131497584Y-45750220D01*
X131497584Y-45750220D02*
X134097584Y-45750220D01*
X131497584Y-49200220D02*
X131497584Y-48200220D01*
X134097584Y-45750220D02*
X134097584Y-48200220D01*
X134097584Y-48200220D02*
X131497584Y-48200220D01*
X127906730Y-45310220D02*
G75*
G02*
X125612408Y-47150220I-2294320J510409D01*
G01*
X131497584Y-49200220D02*
G75*
G02*
X129497584Y-51200220I-2000005J5D01*
G01*
G04 #@! TO.C,D41*
X184379544Y-67707768D02*
X189079544Y-67707768D01*
X184379544Y-70007768D02*
X184379544Y-67707768D01*
X189079544Y-70007768D02*
X184379544Y-70007768D01*
X189079544Y-70007768D02*
X189079544Y-67707768D01*
G04 #@! TO.C,MX47*
X283414824Y-59749780D02*
X286014824Y-59749780D01*
X283414824Y-62199780D02*
X283414824Y-59749780D01*
X286014824Y-58749780D02*
X286014824Y-59749780D01*
X286014824Y-62199780D02*
X283414824Y-62199780D01*
X286014824Y-62639780D02*
X286014824Y-62199780D01*
X289605678Y-62639780D02*
X286014824Y-62639780D01*
X291900000Y-60799780D02*
X296964824Y-60799780D01*
X296964824Y-56749780D02*
X288014824Y-56749780D01*
X296964824Y-57179780D02*
X296964824Y-56749780D01*
X296964824Y-57179780D02*
X299514824Y-57179780D01*
X296964824Y-60799780D02*
X296964824Y-59629780D01*
X299514824Y-57179780D02*
X299514824Y-59629780D01*
X299514824Y-59629780D02*
X296964824Y-59629780D01*
X286014824Y-58749780D02*
G75*
G02*
X288014824Y-56749780I2000005J-5D01*
G01*
X289605678Y-62639780D02*
G75*
G02*
X291900000Y-60799780I2294320J-510409D01*
G01*
G04 #@! TO.C,R7*
X306469196Y-50955112D02*
X307409196Y-50955112D01*
X306469196Y-52815112D02*
X306469196Y-50955112D01*
X307409196Y-50955112D02*
X307409196Y-52815112D01*
X307409196Y-52815112D02*
X306469196Y-52815112D01*
G04 #@! TO.C,D62*
X240943560Y-80993750D02*
X243243560Y-80993750D01*
X240943560Y-85693750D02*
X240943560Y-80993750D01*
X240943560Y-85693750D02*
X243243560Y-85693750D01*
X243243560Y-80993750D02*
X243243560Y-85693750D01*
G04 #@! TO.C,C7*
X311684660Y-59610652D02*
X313504660Y-59610652D01*
X311684660Y-60530652D02*
X311684660Y-59610652D01*
X313504660Y-59610652D02*
X313504660Y-60530652D01*
X313504660Y-60530652D02*
X311684660Y-60530652D01*
G04 #@! TO.C,MX73*
X98947600Y-48320220D02*
X101497600Y-48320220D01*
X98947600Y-50770220D02*
X98947600Y-48320220D01*
X101497600Y-47150220D02*
X101497600Y-48320220D01*
X101497600Y-50770220D02*
X98947600Y-50770220D01*
X101497600Y-50770220D02*
X101497600Y-51200220D01*
X101497600Y-51200220D02*
X110447600Y-51200220D01*
X106562424Y-47150220D02*
X101497600Y-47150220D01*
X108856746Y-45310220D02*
X112447600Y-45310220D01*
X112447600Y-45310220D02*
X112447600Y-45750220D01*
X112447600Y-45750220D02*
X115047600Y-45750220D01*
X112447600Y-49200220D02*
X112447600Y-48200220D01*
X115047600Y-45750220D02*
X115047600Y-48200220D01*
X115047600Y-48200220D02*
X112447600Y-48200220D01*
X108856746Y-45310220D02*
G75*
G02*
X106562424Y-47150220I-2294320J510409D01*
G01*
X112447600Y-49200220D02*
G75*
G02*
X110447600Y-51200220I-2000005J5D01*
G01*
G04 #@! TO.C,D29*
X255931816Y-42893750D02*
X258231816Y-42893750D01*
X255931816Y-47593750D02*
X255931816Y-42893750D01*
X255931816Y-47593750D02*
X258231816Y-47593750D01*
X258231816Y-42893750D02*
X258231816Y-47593750D01*
G04 #@! TO.C,MX1*
X16714824Y-21649780D02*
X19314824Y-21649780D01*
X16714824Y-24099780D02*
X16714824Y-21649780D01*
X19314824Y-20649780D02*
X19314824Y-21649780D01*
X19314824Y-24099780D02*
X16714824Y-24099780D01*
X19314824Y-24539780D02*
X19314824Y-24099780D01*
X22905678Y-24539780D02*
X19314824Y-24539780D01*
X25200000Y-22699780D02*
X30264824Y-22699780D01*
X30264824Y-18649780D02*
X21314824Y-18649780D01*
X30264824Y-19079780D02*
X30264824Y-18649780D01*
X30264824Y-19079780D02*
X32814824Y-19079780D01*
X30264824Y-22699780D02*
X30264824Y-21529780D01*
X32814824Y-19079780D02*
X32814824Y-21529780D01*
X32814824Y-21529780D02*
X30264824Y-21529780D01*
X19314824Y-20649780D02*
G75*
G02*
X21314824Y-18649780I2000005J-5D01*
G01*
X22905678Y-24539780D02*
G75*
G02*
X25200000Y-22699780I2294320J-510409D01*
G01*
G04 #@! TO.C,D19*
X74544480Y-48657784D02*
X79244480Y-48657784D01*
X74544480Y-50957784D02*
X74544480Y-48657784D01*
X79244480Y-50957784D02*
X74544480Y-50957784D01*
X79244480Y-50957784D02*
X79244480Y-48657784D01*
G04 #@! TO.C,MX65*
X302464824Y-78799780D02*
X305064824Y-78799780D01*
X302464824Y-81249780D02*
X302464824Y-78799780D01*
X305064824Y-77799780D02*
X305064824Y-78799780D01*
X305064824Y-81249780D02*
X302464824Y-81249780D01*
X305064824Y-81689780D02*
X305064824Y-81249780D01*
X308655678Y-81689780D02*
X305064824Y-81689780D01*
X310950000Y-79849780D02*
X316014824Y-79849780D01*
X316014824Y-75799780D02*
X307064824Y-75799780D01*
X316014824Y-76229780D02*
X316014824Y-75799780D01*
X316014824Y-76229780D02*
X318564824Y-76229780D01*
X316014824Y-79849780D02*
X316014824Y-78679780D01*
X318564824Y-76229780D02*
X318564824Y-78679780D01*
X318564824Y-78679780D02*
X316014824Y-78679780D01*
X305064824Y-77799780D02*
G75*
G02*
X307064824Y-75799780I2000005J-5D01*
G01*
X308655678Y-81689780D02*
G75*
G02*
X310950000Y-79849780I2294320J-510409D01*
G01*
G04 #@! TO.C,D30*
X274981800Y-42893750D02*
X277281800Y-42893750D01*
X274981800Y-47593750D02*
X274981800Y-42893750D01*
X274981800Y-47593750D02*
X277281800Y-47593750D01*
X277281800Y-42893750D02*
X277281800Y-47593750D01*
G04 #@! TO.C,C8*
X313176456Y-66899708D02*
X314096456Y-66899708D01*
X313176456Y-68719708D02*
X313176456Y-66899708D01*
X314096456Y-66899708D02*
X314096456Y-68719708D01*
X314096456Y-68719708D02*
X313176456Y-68719708D01*
G04 #@! TO.C,D12*
X234981064Y-20678120D02*
X239681064Y-20678120D01*
X234981064Y-22978120D02*
X234981064Y-20678120D01*
X239681064Y-22978120D02*
X234981064Y-22978120D01*
X239681064Y-22978120D02*
X239681064Y-20678120D01*
G04 #@! TO.C,MX84*
X107202240Y-59749780D02*
X109802240Y-59749780D01*
X107202240Y-62199780D02*
X107202240Y-59749780D01*
X109802240Y-58749780D02*
X109802240Y-59749780D01*
X109802240Y-62199780D02*
X107202240Y-62199780D01*
X109802240Y-62639780D02*
X109802240Y-62199780D01*
X113393094Y-62639780D02*
X109802240Y-62639780D01*
X115687416Y-60799780D02*
X120752240Y-60799780D01*
X120752240Y-56749780D02*
X111802240Y-56749780D01*
X120752240Y-57179780D02*
X120752240Y-56749780D01*
X120752240Y-57179780D02*
X123302240Y-57179780D01*
X120752240Y-60799780D02*
X120752240Y-59629780D01*
X123302240Y-57179780D02*
X123302240Y-59629780D01*
X123302240Y-59629780D02*
X120752240Y-59629780D01*
X109802240Y-58749780D02*
G75*
G02*
X111802240Y-56749780I2000005J-5D01*
G01*
X113393094Y-62639780D02*
G75*
G02*
X115687416Y-60799780I2294320J-510409D01*
G01*
G04 #@! TO.C,C3*
X304544432Y-55291124D02*
X305464432Y-55291124D01*
X304544432Y-57111124D02*
X304544432Y-55291124D01*
X305464432Y-55291124D02*
X305464432Y-57111124D01*
X305464432Y-57111124D02*
X304544432Y-57111124D01*
G04 #@! TO.C,D7*
X141631912Y-23843750D02*
X143931912Y-23843750D01*
X141631912Y-28543750D02*
X141631912Y-23843750D01*
X141631912Y-28543750D02*
X143931912Y-28543750D01*
X143931912Y-23843750D02*
X143931912Y-28543750D01*
G04 #@! TO.C,MX28*
X227535176Y-48320220D02*
X230085176Y-48320220D01*
X227535176Y-50770220D02*
X227535176Y-48320220D01*
X230085176Y-47150220D02*
X230085176Y-48320220D01*
X230085176Y-50770220D02*
X227535176Y-50770220D01*
X230085176Y-50770220D02*
X230085176Y-51200220D01*
X230085176Y-51200220D02*
X239035176Y-51200220D01*
X235150000Y-47150220D02*
X230085176Y-47150220D01*
X237444322Y-45310220D02*
X241035176Y-45310220D01*
X241035176Y-45310220D02*
X241035176Y-45750220D01*
X241035176Y-45750220D02*
X243635176Y-45750220D01*
X241035176Y-49200220D02*
X241035176Y-48200220D01*
X243635176Y-45750220D02*
X243635176Y-48200220D01*
X243635176Y-48200220D02*
X241035176Y-48200220D01*
X237444322Y-45310220D02*
G75*
G02*
X235150000Y-47150220I-2294320J510409D01*
G01*
X241035176Y-49200220D02*
G75*
G02*
X239035176Y-51200220I-2000005J5D01*
G01*
G04 #@! TO.C,D55*
X128420409Y-76042175D02*
X128420409Y-78342175D01*
X128420409Y-76042175D02*
X133120409Y-76042175D01*
X133120409Y-76042175D02*
X133120409Y-78342175D01*
X133120409Y-78342175D02*
X128420409Y-78342175D01*
G04 #@! TO.C,MX67*
X256109968Y-86420220D02*
X258659968Y-86420220D01*
X256109968Y-88870220D02*
X256109968Y-86420220D01*
X258659968Y-85250220D02*
X258659968Y-86420220D01*
X258659968Y-88870220D02*
X256109968Y-88870220D01*
X258659968Y-88870220D02*
X258659968Y-89300220D01*
X258659968Y-89300220D02*
X267609968Y-89300220D01*
X263724792Y-85250220D02*
X258659968Y-85250220D01*
X266019114Y-83410220D02*
X269609968Y-83410220D01*
X269609968Y-83410220D02*
X269609968Y-83850220D01*
X269609968Y-83850220D02*
X272209968Y-83850220D01*
X269609968Y-87300220D02*
X269609968Y-86300220D01*
X272209968Y-83850220D02*
X272209968Y-86300220D01*
X272209968Y-86300220D02*
X269609968Y-86300220D01*
X266019114Y-83410220D02*
G75*
G02*
X263724792Y-85250220I-2294320J510409D01*
G01*
X269609968Y-87300220D02*
G75*
G02*
X267609968Y-89300220I-2000005J5D01*
G01*
G04 #@! TO.C,MX71*
X60847632Y-48320220D02*
X63397632Y-48320220D01*
X60847632Y-50770220D02*
X60847632Y-48320220D01*
X63397632Y-47150220D02*
X63397632Y-48320220D01*
X63397632Y-50770220D02*
X60847632Y-50770220D01*
X63397632Y-50770220D02*
X63397632Y-51200220D01*
X63397632Y-51200220D02*
X72347632Y-51200220D01*
X68462456Y-47150220D02*
X63397632Y-47150220D01*
X70756778Y-45310220D02*
X74347632Y-45310220D01*
X74347632Y-45310220D02*
X74347632Y-45750220D01*
X74347632Y-45750220D02*
X76947632Y-45750220D01*
X74347632Y-49200220D02*
X74347632Y-48200220D01*
X76947632Y-45750220D02*
X76947632Y-48200220D01*
X76947632Y-48200220D02*
X74347632Y-48200220D01*
X70756778Y-45310220D02*
G75*
G02*
X68462456Y-47150220I-2294320J510409D01*
G01*
X74347632Y-49200220D02*
G75*
G02*
X72347632Y-51200220I-2000005J5D01*
G01*
G04 #@! TO.C,D38*
X127229592Y-67707768D02*
X131929592Y-67707768D01*
X127229592Y-70007768D02*
X127229592Y-67707768D01*
X131929592Y-70007768D02*
X127229592Y-70007768D01*
X131929592Y-70007768D02*
X131929592Y-67707768D01*
G04 #@! TO.C,D23*
X150744416Y-48657784D02*
X155444416Y-48657784D01*
X150744416Y-50957784D02*
X150744416Y-48657784D01*
X155444416Y-50957784D02*
X150744416Y-50957784D01*
X155444416Y-50957784D02*
X155444416Y-48657784D01*
G04 #@! TO.C,D18*
X55494496Y-48657784D02*
X60194496Y-48657784D01*
X55494496Y-50957784D02*
X55494496Y-48657784D01*
X60194496Y-50957784D02*
X55494496Y-50957784D01*
X60194496Y-50957784D02*
X60194496Y-48657784D01*
G04 #@! TO.C,MX95*
X122760080Y-86420212D02*
X125310080Y-86420212D01*
X122760080Y-88870212D02*
X122760080Y-86420212D01*
X125310080Y-85250212D02*
X125310080Y-86420212D01*
X125310080Y-88870211D02*
X122760080Y-88870212D01*
X125310080Y-88870211D02*
X125310080Y-89300212D01*
X125310080Y-89300212D02*
X134260080Y-89300212D01*
X130374903Y-85250212D02*
X125310080Y-85250212D01*
X132669226Y-83410211D02*
X136260080Y-83410212D01*
X136260080Y-83410212D02*
X136260080Y-83850212D01*
X136260080Y-83850212D02*
X138860080Y-83850212D01*
X136260080Y-87300212D02*
X136260080Y-86300212D01*
X138860080Y-83850212D02*
X138860080Y-86300212D01*
X138860080Y-86300212D02*
X136260080Y-86300212D01*
X132669226Y-83410211D02*
G75*
G02*
X130374903Y-85250212I-2294320J510408D01*
G01*
X136260080Y-87300212D02*
G75*
G02*
X134260080Y-89300212I-2000004J4D01*
G01*
G04 #@! TO.C,R6*
X322380276Y-39062388D02*
X324240276Y-39062388D01*
X322380276Y-40002388D02*
X322380276Y-39062388D01*
X324240276Y-39062388D02*
X324240276Y-40002388D01*
X324240276Y-40002388D02*
X322380276Y-40002388D01*
G04 #@! TO.C,MX80*
X25128912Y-67370220D02*
X27678912Y-67370220D01*
X25128912Y-69820220D02*
X25128912Y-67370220D01*
X27678912Y-66200220D02*
X27678912Y-67370220D01*
X27678912Y-69820219D02*
X25128912Y-69820220D01*
X27678912Y-69820219D02*
X27678912Y-70250220D01*
X27678912Y-70250220D02*
X36628912Y-70250220D01*
X32743735Y-66200220D02*
X27678912Y-66200220D01*
X35038058Y-64360219D02*
X38628912Y-64360220D01*
X38628912Y-64360220D02*
X38628912Y-64800220D01*
X38628912Y-64800220D02*
X41228912Y-64800220D01*
X38628912Y-68250220D02*
X38628912Y-67250220D01*
X41228912Y-64800220D02*
X41228912Y-67250220D01*
X41228912Y-67250220D02*
X38628912Y-67250220D01*
X35038058Y-64360219D02*
G75*
G02*
X32743735Y-66200220I-2294320J510408D01*
G01*
X38628912Y-68250220D02*
G75*
G02*
X36628912Y-70250220I-2000005J5D01*
G01*
G04 #@! TO.C,MX19*
X54814824Y-40699780D02*
X57414824Y-40699780D01*
X54814824Y-43149780D02*
X54814824Y-40699780D01*
X57414824Y-39699780D02*
X57414824Y-40699780D01*
X57414824Y-43149780D02*
X54814824Y-43149780D01*
X57414824Y-43589780D02*
X57414824Y-43149780D01*
X61005678Y-43589780D02*
X57414824Y-43589780D01*
X63300000Y-41749780D02*
X68364824Y-41749780D01*
X68364824Y-37699780D02*
X59414824Y-37699780D01*
X68364824Y-38129780D02*
X68364824Y-37699780D01*
X68364824Y-38129780D02*
X70914824Y-38129780D01*
X68364824Y-41749780D02*
X68364824Y-40579780D01*
X70914824Y-38129780D02*
X70914824Y-40579780D01*
X70914824Y-40579780D02*
X68364824Y-40579780D01*
X57414824Y-39699780D02*
G75*
G02*
X59414824Y-37699780I2000005J-5D01*
G01*
X61005678Y-43589780D02*
G75*
G02*
X63300000Y-41749780I2294320J-510409D01*
G01*
G04 #@! TO.C,RST1*
X287850000Y-69721032D02*
X296350000Y-69721032D01*
X287850000Y-75721032D02*
X287850000Y-69721032D01*
X296350000Y-69721032D02*
X296350000Y-75721032D01*
X296350000Y-75721032D02*
X287850000Y-75721032D01*
G04 #@! TO.C,MX51*
X73864824Y-78799780D02*
X76464824Y-78799780D01*
X73864824Y-81249780D02*
X73864824Y-78799780D01*
X76464824Y-77799780D02*
X76464824Y-78799780D01*
X76464824Y-81249780D02*
X73864824Y-81249780D01*
X76464824Y-81689780D02*
X76464824Y-81249780D01*
X80055678Y-81689780D02*
X76464824Y-81689780D01*
X82350000Y-79849780D02*
X87414824Y-79849780D01*
X87414824Y-75799780D02*
X78464824Y-75799780D01*
X87414824Y-76229780D02*
X87414824Y-75799780D01*
X87414824Y-76229780D02*
X89964824Y-76229780D01*
X87414824Y-79849780D02*
X87414824Y-78679780D01*
X89964824Y-76229780D02*
X89964824Y-78679780D01*
X89964824Y-78679780D02*
X87414824Y-78679780D01*
X76464824Y-77799780D02*
G75*
G02*
X78464824Y-75799780I2000005J-5D01*
G01*
X80055678Y-81689780D02*
G75*
G02*
X82350000Y-79849780I2294320J-510409D01*
G01*
G04 #@! TO.C,U3*
X303404508Y-59661352D02*
X303404508Y-67921352D01*
X303404508Y-67921352D02*
X311664508Y-67921352D01*
X311664508Y-59661352D02*
X303404508Y-59661352D01*
X311664508Y-67921352D02*
X311664508Y-59661352D01*
G04 #@! TO.C,D21*
X112644448Y-48657784D02*
X117344448Y-48657784D01*
X112644448Y-50957784D02*
X112644448Y-48657784D01*
X117344448Y-50957784D02*
X112644448Y-50957784D01*
X117344448Y-50957784D02*
X117344448Y-48657784D01*
G04 #@! TO.C,D49*
X46381992Y-80993750D02*
X48681992Y-80993750D01*
X46381992Y-85693750D02*
X46381992Y-80993750D01*
X46381992Y-85693750D02*
X48681992Y-85693750D01*
X48681992Y-80993750D02*
X48681992Y-85693750D01*
G04 #@! TO.C,U1*
X35256233Y-29509360D02*
X35256233Y-32909360D01*
X35256233Y-32909360D02*
X39356231Y-32909360D01*
X39356231Y-29509360D02*
X35256233Y-29509360D01*
X39356231Y-32909360D02*
X39356231Y-29509360D01*
G04 #@! TO.C,MX69*
X20366416Y-48320220D02*
X22916416Y-48320220D01*
X20366416Y-50770220D02*
X20366416Y-48320220D01*
X22916416Y-47150220D02*
X22916416Y-48320220D01*
X22916416Y-50770219D02*
X20366416Y-50770220D01*
X22916416Y-50770219D02*
X22916416Y-51200220D01*
X22916416Y-51200220D02*
X31866416Y-51200220D01*
X27981239Y-47150220D02*
X22916416Y-47150220D01*
X30275562Y-45310219D02*
X33866416Y-45310220D01*
X33866416Y-45310220D02*
X33866416Y-45750220D01*
X33866416Y-45750220D02*
X36466416Y-45750220D01*
X33866416Y-49200220D02*
X33866416Y-48200220D01*
X36466416Y-45750220D02*
X36466416Y-48200220D01*
X36466416Y-48200220D02*
X33866416Y-48200220D01*
X30275562Y-45310219D02*
G75*
G02*
X27981239Y-47150220I-2294320J510408D01*
G01*
X33866416Y-49200220D02*
G75*
G02*
X31866416Y-51200220I-2000005J5D01*
G01*
G04 #@! TO.C,MX92*
X198960176Y-86420220D02*
X201510176Y-86420220D01*
X198960176Y-88870220D02*
X198960176Y-86420220D01*
X201510176Y-85250220D02*
X201510176Y-86420220D01*
X201510176Y-88870220D02*
X198960176Y-88870220D01*
X201510176Y-88870220D02*
X201510176Y-89300220D01*
X201510176Y-89300220D02*
X210460176Y-89300220D01*
X206575000Y-85250220D02*
X201510176Y-85250220D01*
X208869322Y-83410220D02*
X212460176Y-83410220D01*
X212460176Y-83410220D02*
X212460176Y-83850220D01*
X212460176Y-83850220D02*
X215060176Y-83850220D01*
X212460176Y-87300220D02*
X212460176Y-86300220D01*
X215060176Y-83850220D02*
X215060176Y-86300220D01*
X215060176Y-86300220D02*
X212460176Y-86300220D01*
X208869322Y-83410220D02*
G75*
G02*
X206575000Y-85250220I-2294320J510409D01*
G01*
X212460176Y-87300220D02*
G75*
G02*
X210460176Y-89300220I-2000005J5D01*
G01*
G04 #@! TO.C,MX35*
X56085176Y-67370220D02*
X58635176Y-67370220D01*
X56085176Y-69820220D02*
X56085176Y-67370220D01*
X58635176Y-66200220D02*
X58635176Y-67370220D01*
X58635176Y-69820220D02*
X56085176Y-69820220D01*
X58635176Y-69820220D02*
X58635176Y-70250220D01*
X58635176Y-70250220D02*
X67585176Y-70250220D01*
X63700000Y-66200220D02*
X58635176Y-66200220D01*
X65994322Y-64360220D02*
X69585176Y-64360220D01*
X69585176Y-64360220D02*
X69585176Y-64800220D01*
X69585176Y-64800220D02*
X72185176Y-64800220D01*
X69585176Y-68250220D02*
X69585176Y-67250220D01*
X72185176Y-64800220D02*
X72185176Y-67250220D01*
X72185176Y-67250220D02*
X69585176Y-67250220D01*
X65994322Y-64360220D02*
G75*
G02*
X63700000Y-66200220I-2294320J510409D01*
G01*
X69585176Y-68250220D02*
G75*
G02*
X67585176Y-70250220I-2000005J5D01*
G01*
G04 #@! TO.C,D52*
X90320248Y-76191028D02*
X90320248Y-78491028D01*
X90320248Y-76191028D02*
X95020248Y-76191028D01*
X95020248Y-76191028D02*
X95020248Y-78491028D01*
X95020248Y-78491028D02*
X90320248Y-78491028D01*
G04 #@! TO.C,MX31*
X283414824Y-40699780D02*
X286014824Y-40699780D01*
X283414824Y-43149780D02*
X283414824Y-40699780D01*
X286014824Y-39699780D02*
X286014824Y-40699780D01*
X286014824Y-43149780D02*
X283414824Y-43149780D01*
X286014824Y-43589780D02*
X286014824Y-43149780D01*
X289605678Y-43589780D02*
X286014824Y-43589780D01*
X291900000Y-41749780D02*
X296964824Y-41749780D01*
X296964824Y-37699780D02*
X288014824Y-37699780D01*
X296964824Y-38129780D02*
X296964824Y-37699780D01*
X296964824Y-38129780D02*
X299514824Y-38129780D01*
X296964824Y-41749780D02*
X296964824Y-40579780D01*
X299514824Y-38129780D02*
X299514824Y-40579780D01*
X299514824Y-40579780D02*
X296964824Y-40579780D01*
X286014824Y-39699780D02*
G75*
G02*
X288014824Y-37699780I2000005J-5D01*
G01*
X289605678Y-43589780D02*
G75*
G02*
X291900000Y-41749780I2294320J-510409D01*
G01*
G04 #@! TO.C,D4*
X84481960Y-23843750D02*
X86781960Y-23843750D01*
X84481960Y-28543750D02*
X84481960Y-23843750D01*
X84481960Y-28543750D02*
X86781960Y-28543750D01*
X86781960Y-23843750D02*
X86781960Y-28543750D01*
G04 #@! TO.C,MX10*
X188164824Y-21649780D02*
X190764824Y-21649780D01*
X188164824Y-24099780D02*
X188164824Y-21649780D01*
X190764824Y-20649780D02*
X190764824Y-21649780D01*
X190764824Y-24099780D02*
X188164824Y-24099780D01*
X190764824Y-24539780D02*
X190764824Y-24099780D01*
X194355678Y-24539780D02*
X190764824Y-24539780D01*
X196650000Y-22699780D02*
X201714824Y-22699780D01*
X201714824Y-18649780D02*
X192764824Y-18649780D01*
X201714824Y-19079780D02*
X201714824Y-18649780D01*
X201714824Y-19079780D02*
X204264824Y-19079780D01*
X201714824Y-22699780D02*
X201714824Y-21529780D01*
X204264824Y-19079780D02*
X204264824Y-21529780D01*
X204264824Y-21529780D02*
X201714824Y-21529780D01*
X190764824Y-20649780D02*
G75*
G02*
X192764824Y-18649780I2000005J-5D01*
G01*
X194355678Y-24539780D02*
G75*
G02*
X196650000Y-22699780I2294320J-510409D01*
G01*
G04 #@! TO.C,D50*
X65431976Y-80993750D02*
X67731976Y-80993750D01*
X65431976Y-85693750D02*
X65431976Y-80993750D01*
X65431976Y-85693750D02*
X67731976Y-85693750D01*
X67731976Y-80993750D02*
X67731976Y-85693750D01*
G04 #@! TO.C,MX12*
X227535176Y-29270220D02*
X230085176Y-29270220D01*
X227535176Y-31720220D02*
X227535176Y-29270220D01*
X230085176Y-28100220D02*
X230085176Y-29270220D01*
X230085176Y-31720220D02*
X227535176Y-31720220D01*
X230085176Y-31720220D02*
X230085176Y-32150220D01*
X230085176Y-32150220D02*
X239035176Y-32150220D01*
X235150000Y-28100220D02*
X230085176Y-28100220D01*
X237444322Y-26260220D02*
X241035176Y-26260220D01*
X241035176Y-26260220D02*
X241035176Y-26700220D01*
X241035176Y-26700220D02*
X243635176Y-26700220D01*
X241035176Y-30150220D02*
X241035176Y-29150220D01*
X243635176Y-26700220D02*
X243635176Y-29150220D01*
X243635176Y-29150220D02*
X241035176Y-29150220D01*
X237444322Y-26260220D02*
G75*
G02*
X235150000Y-28100220I-2294320J510409D01*
G01*
X241035176Y-30150220D02*
G75*
G02*
X239035176Y-32150220I-2000005J5D01*
G01*
G04 #@! TO.C,MX77*
X175147536Y-48320220D02*
X177697536Y-48320220D01*
X175147536Y-50770220D02*
X175147536Y-48320220D01*
X177697536Y-47150220D02*
X177697536Y-48320220D01*
X177697536Y-50770220D02*
X175147536Y-50770220D01*
X177697536Y-50770220D02*
X177697536Y-51200220D01*
X177697536Y-51200220D02*
X186647536Y-51200220D01*
X182762360Y-47150220D02*
X177697536Y-47150220D01*
X185056682Y-45310220D02*
X188647536Y-45310220D01*
X188647536Y-45310220D02*
X188647536Y-45750220D01*
X188647536Y-45750220D02*
X191247536Y-45750220D01*
X188647536Y-49200220D02*
X188647536Y-48200220D01*
X191247536Y-45750220D02*
X191247536Y-48200220D01*
X191247536Y-48200220D02*
X188647536Y-48200220D01*
X185056682Y-45310220D02*
G75*
G02*
X182762360Y-47150220I-2294320J510409D01*
G01*
X188647536Y-49200220D02*
G75*
G02*
X186647536Y-51200220I-2000005J5D01*
G01*
G04 #@! TO.C,MX23*
X131014824Y-40699780D02*
X133614824Y-40699780D01*
X131014824Y-43149780D02*
X131014824Y-40699780D01*
X133614824Y-39699780D02*
X133614824Y-40699780D01*
X133614824Y-43149780D02*
X131014824Y-43149780D01*
X133614824Y-43589780D02*
X133614824Y-43149780D01*
X137205678Y-43589780D02*
X133614824Y-43589780D01*
X139500000Y-41749780D02*
X144564824Y-41749780D01*
X144564824Y-37699780D02*
X135614824Y-37699780D01*
X144564824Y-38129780D02*
X144564824Y-37699780D01*
X144564824Y-38129780D02*
X147114824Y-38129780D01*
X144564824Y-41749780D02*
X144564824Y-40579780D01*
X147114824Y-38129780D02*
X147114824Y-40579780D01*
X147114824Y-40579780D02*
X144564824Y-40579780D01*
X133614824Y-39699780D02*
G75*
G02*
X135614824Y-37699780I2000005J-5D01*
G01*
X137205678Y-43589780D02*
G75*
G02*
X139500000Y-41749780I2294320J-510409D01*
G01*
G04 #@! TO.C,MX17*
X16714824Y-40699780D02*
X19314824Y-40699780D01*
X16714824Y-43149780D02*
X16714824Y-40699780D01*
X19314824Y-39699780D02*
X19314824Y-40699780D01*
X19314824Y-43149780D02*
X16714824Y-43149780D01*
X19314824Y-43589780D02*
X19314824Y-43149780D01*
X22905678Y-43589780D02*
X19314824Y-43589780D01*
X25200000Y-41749780D02*
X30264824Y-41749780D01*
X30264824Y-37699780D02*
X21314824Y-37699780D01*
X30264824Y-38129780D02*
X30264824Y-37699780D01*
X30264824Y-38129780D02*
X32814824Y-38129780D01*
X30264824Y-41749780D02*
X30264824Y-40579780D01*
X32814824Y-38129780D02*
X32814824Y-40579780D01*
X32814824Y-40579780D02*
X30264824Y-40579780D01*
X19314824Y-39699780D02*
G75*
G02*
X21314824Y-37699780I2000005J-5D01*
G01*
X22905678Y-43589780D02*
G75*
G02*
X25200000Y-41749780I2294320J-510409D01*
G01*
G04 #@! TO.C,J1*
X41596064Y-29934360D02*
X41596064Y-35134360D01*
X41596064Y-35134360D02*
X52396064Y-35134360D01*
X52396064Y-29934360D02*
X41596064Y-29934360D01*
X52396064Y-35134360D02*
X52396064Y-29934360D01*
G04 #@! TO.C,MX24*
X150064824Y-40699780D02*
X152664824Y-40699780D01*
X150064824Y-43149780D02*
X150064824Y-40699780D01*
X152664824Y-39699780D02*
X152664824Y-40699780D01*
X152664824Y-43149780D02*
X150064824Y-43149780D01*
X152664824Y-43589780D02*
X152664824Y-43149780D01*
X156255678Y-43589780D02*
X152664824Y-43589780D01*
X158550000Y-41749780D02*
X163614824Y-41749780D01*
X163614824Y-37699780D02*
X154664824Y-37699780D01*
X163614824Y-38129780D02*
X163614824Y-37699780D01*
X163614824Y-38129780D02*
X166164824Y-38129780D01*
X163614824Y-41749780D02*
X163614824Y-40579780D01*
X166164824Y-38129780D02*
X166164824Y-40579780D01*
X166164824Y-40579780D02*
X163614824Y-40579780D01*
X152664824Y-39699780D02*
G75*
G02*
X154664824Y-37699780I2000005J-5D01*
G01*
X156255678Y-43589780D02*
G75*
G02*
X158550000Y-41749780I2294320J-510409D01*
G01*
G04 #@! TO.C,D61*
X236881832Y-80993750D02*
X239181832Y-80993750D01*
X236881832Y-85693750D02*
X236881832Y-80993750D01*
X236881832Y-85693750D02*
X239181832Y-85693750D01*
X239181832Y-80993750D02*
X239181832Y-85693750D01*
G04 #@! TO.C,D35*
X70079640Y-67707768D02*
X74779640Y-67707768D01*
X70079640Y-70007768D02*
X70079640Y-67707768D01*
X74779640Y-70007768D02*
X70079640Y-70007768D01*
X74779640Y-70007768D02*
X74779640Y-67707768D01*
G04 #@! TO.C,MX75*
X137047568Y-48320220D02*
X139597568Y-48320220D01*
X137047568Y-50770220D02*
X137047568Y-48320220D01*
X139597568Y-47150220D02*
X139597568Y-48320220D01*
X139597568Y-50770220D02*
X137047568Y-50770220D01*
X139597568Y-50770220D02*
X139597568Y-51200220D01*
X139597568Y-51200220D02*
X148547568Y-51200220D01*
X144662392Y-47150220D02*
X139597568Y-47150220D01*
X146956714Y-45310220D02*
X150547568Y-45310220D01*
X150547568Y-45310220D02*
X150547568Y-45750220D01*
X150547568Y-45750220D02*
X153147568Y-45750220D01*
X150547568Y-49200220D02*
X150547568Y-48200220D01*
X153147568Y-45750220D02*
X153147568Y-48200220D01*
X153147568Y-48200220D02*
X150547568Y-48200220D01*
X146956714Y-45310220D02*
G75*
G02*
X144662392Y-47150220I-2294320J510409D01*
G01*
X150547568Y-49200220D02*
G75*
G02*
X148547568Y-51200220I-2000005J5D01*
G01*
G04 #@! TO.C,C13*
X305764790Y-70553665D02*
X307051724Y-69266731D01*
X306415328Y-71204203D02*
X305764790Y-70553665D01*
X307051724Y-69266731D02*
X307702262Y-69917269D01*
X307702262Y-69917269D02*
X306415328Y-71204203D01*
G04 #@! TO.C,MX81*
X50052288Y-59749780D02*
X52652288Y-59749780D01*
X50052288Y-62199780D02*
X50052288Y-59749780D01*
X52652288Y-58749780D02*
X52652288Y-59749780D01*
X52652288Y-62199780D02*
X50052288Y-62199780D01*
X52652288Y-62639780D02*
X52652288Y-62199780D01*
X56243142Y-62639780D02*
X52652288Y-62639780D01*
X58537464Y-60799780D02*
X63602288Y-60799780D01*
X63602288Y-56749780D02*
X54652288Y-56749780D01*
X63602288Y-57179780D02*
X63602288Y-56749780D01*
X63602288Y-57179780D02*
X66152288Y-57179780D01*
X63602288Y-60799780D02*
X63602288Y-59629780D01*
X66152288Y-57179780D02*
X66152288Y-59629780D01*
X66152288Y-59629780D02*
X63602288Y-59629780D01*
X52652288Y-58749780D02*
G75*
G02*
X54652288Y-56749780I2000005J-5D01*
G01*
X56243142Y-62639780D02*
G75*
G02*
X58537464Y-60799780I2294320J-510409D01*
G01*
G04 #@! TO.C,MX85*
X126252224Y-59749780D02*
X128852224Y-59749780D01*
X126252224Y-62199780D02*
X126252224Y-59749780D01*
X128852224Y-58749780D02*
X128852224Y-59749780D01*
X128852224Y-62199780D02*
X126252224Y-62199780D01*
X128852224Y-62639780D02*
X128852224Y-62199780D01*
X132443078Y-62639780D02*
X128852224Y-62639780D01*
X134737400Y-60799780D02*
X139802224Y-60799780D01*
X139802224Y-56749780D02*
X130852224Y-56749780D01*
X139802224Y-57179780D02*
X139802224Y-56749780D01*
X139802224Y-57179780D02*
X142352224Y-57179780D01*
X139802224Y-60799780D02*
X139802224Y-59629780D01*
X142352224Y-57179780D02*
X142352224Y-59629780D01*
X142352224Y-59629780D02*
X139802224Y-59629780D01*
X128852224Y-58749780D02*
G75*
G02*
X130852224Y-56749780I2000005J-5D01*
G01*
X132443078Y-62639780D02*
G75*
G02*
X134737400Y-60799780I2294320J-510409D01*
G01*
G04 #@! TO.C,D32*
X317844264Y-47656250D02*
X320144264Y-47656250D01*
X317844264Y-52356250D02*
X317844264Y-47656250D01*
X317844264Y-52356250D02*
X320144264Y-52356250D01*
X320144264Y-47656250D02*
X320144264Y-52356250D01*
G04 #@! TO.C,MX27*
X208485176Y-48320220D02*
X211035176Y-48320220D01*
X208485176Y-50770220D02*
X208485176Y-48320220D01*
X211035176Y-47150220D02*
X211035176Y-48320220D01*
X211035176Y-50770220D02*
X208485176Y-50770220D01*
X211035176Y-50770220D02*
X211035176Y-51200220D01*
X211035176Y-51200220D02*
X219985176Y-51200220D01*
X216100000Y-47150220D02*
X211035176Y-47150220D01*
X218394322Y-45310220D02*
X221985176Y-45310220D01*
X221985176Y-45310220D02*
X221985176Y-45750220D01*
X221985176Y-45750220D02*
X224585176Y-45750220D01*
X221985176Y-49200220D02*
X221985176Y-48200220D01*
X224585176Y-45750220D02*
X224585176Y-48200220D01*
X224585176Y-48200220D02*
X221985176Y-48200220D01*
X218394322Y-45310220D02*
G75*
G02*
X216100000Y-47150220I-2294320J510409D01*
G01*
X221985176Y-49200220D02*
G75*
G02*
X219985176Y-51200220I-2000005J5D01*
G01*
G04 #@! TO.C,MX26*
X188164824Y-40699780D02*
X190764824Y-40699780D01*
X188164824Y-43149780D02*
X188164824Y-40699780D01*
X190764824Y-39699780D02*
X190764824Y-40699780D01*
X190764824Y-43149780D02*
X188164824Y-43149780D01*
X190764824Y-43589780D02*
X190764824Y-43149780D01*
X194355678Y-43589780D02*
X190764824Y-43589780D01*
X196650000Y-41749780D02*
X201714824Y-41749780D01*
X201714824Y-37699780D02*
X192764824Y-37699780D01*
X201714824Y-38129780D02*
X201714824Y-37699780D01*
X201714824Y-38129780D02*
X204264824Y-38129780D01*
X201714824Y-41749780D02*
X201714824Y-40579780D01*
X204264824Y-38129780D02*
X204264824Y-40579780D01*
X204264824Y-40579780D02*
X201714824Y-40579780D01*
X190764824Y-39699780D02*
G75*
G02*
X192764824Y-37699780I2000005J-5D01*
G01*
X194355678Y-43589780D02*
G75*
G02*
X196650000Y-41749780I2294320J-510409D01*
G01*
G04 #@! TO.C,D48*
X27332008Y-80993750D02*
X29632008Y-80993750D01*
X27332008Y-85693750D02*
X27332008Y-80993750D01*
X27332008Y-85693750D02*
X29632008Y-85693750D01*
X29632008Y-80993750D02*
X29632008Y-85693750D01*
G04 #@! TO.C,D26*
X207606088Y-45609352D02*
X207606088Y-40909352D01*
X209906088Y-40909352D02*
X207606088Y-40909352D01*
X209906088Y-40909352D02*
X209906088Y-45609352D01*
X209906088Y-45609352D02*
X207606088Y-45609352D01*
G04 #@! TO.C,MX13*
X245314824Y-21649780D02*
X247914824Y-21649780D01*
X245314824Y-24099780D02*
X245314824Y-21649780D01*
X247914824Y-20649780D02*
X247914824Y-21649780D01*
X247914824Y-24099780D02*
X245314824Y-24099780D01*
X247914824Y-24539780D02*
X247914824Y-24099780D01*
X251505678Y-24539780D02*
X247914824Y-24539780D01*
X253800000Y-22699780D02*
X258864824Y-22699780D01*
X258864824Y-18649780D02*
X249914824Y-18649780D01*
X258864824Y-19079780D02*
X258864824Y-18649780D01*
X258864824Y-19079780D02*
X261414824Y-19079780D01*
X258864824Y-22699780D02*
X258864824Y-21529780D01*
X261414824Y-19079780D02*
X261414824Y-21529780D01*
X261414824Y-21529780D02*
X258864824Y-21529780D01*
X247914824Y-20649780D02*
G75*
G02*
X249914824Y-18649780I2000005J-5D01*
G01*
X251505678Y-24539780D02*
G75*
G02*
X253800000Y-22699780I2294320J-510409D01*
G01*
G04 #@! TO.C,MX53*
X103710176Y-86420220D02*
X106260176Y-86420220D01*
X103710176Y-88870220D02*
X103710176Y-86420220D01*
X106260176Y-85250220D02*
X106260176Y-86420220D01*
X106260176Y-88870220D02*
X103710176Y-88870220D01*
X106260176Y-88870220D02*
X106260176Y-89300220D01*
X106260176Y-89300220D02*
X115210176Y-89300220D01*
X111325000Y-85250220D02*
X106260176Y-85250220D01*
X113619322Y-83410220D02*
X117210176Y-83410220D01*
X117210176Y-83410220D02*
X117210176Y-83850220D01*
X117210176Y-83850220D02*
X119810176Y-83850220D01*
X117210176Y-87300220D02*
X117210176Y-86300220D01*
X119810176Y-83850220D02*
X119810176Y-86300220D01*
X119810176Y-86300220D02*
X117210176Y-86300220D01*
X113619322Y-83410220D02*
G75*
G02*
X111325000Y-85250220I-2294320J510409D01*
G01*
X117210176Y-87300220D02*
G75*
G02*
X115210176Y-89300220I-2000004J4D01*
G01*
G04 #@! TO.C,C5*
X301490072Y-54721124D02*
X302950072Y-54721124D01*
X301490072Y-57681124D02*
X301490072Y-54721124D01*
X302950072Y-54721124D02*
X302950072Y-57681124D01*
X302950072Y-57681124D02*
X301490072Y-57681124D01*
G04 #@! TO.C,D39*
X146279576Y-67707768D02*
X150979576Y-67707768D01*
X146279576Y-70007768D02*
X146279576Y-67707768D01*
X150979576Y-70007768D02*
X146279576Y-70007768D01*
X150979576Y-70007768D02*
X150979576Y-67707768D01*
G04 #@! TO.C,Y1*
X305293986Y-73152703D02*
X307698149Y-75556866D01*
X307698149Y-75556866D02*
X310667998Y-72587017D01*
X308263835Y-70182854D02*
X305293986Y-73152703D01*
X310667998Y-72587017D02*
X308263835Y-70182854D01*
G04 #@! TO.C,C16*
X307967476Y-55291124D02*
X308887476Y-55291124D01*
X307967476Y-57111124D02*
X307967476Y-55291124D01*
X308887476Y-55291124D02*
X308887476Y-57111124D01*
X308887476Y-57111124D02*
X307967476Y-57111124D01*
G04 #@! TO.C,MX62*
X245314824Y-78799780D02*
X247914824Y-78799780D01*
X245314824Y-81249780D02*
X245314824Y-78799780D01*
X247914824Y-77799780D02*
X247914824Y-78799780D01*
X247914824Y-81249780D02*
X245314824Y-81249780D01*
X247914824Y-81689780D02*
X247914824Y-81249780D01*
X251505678Y-81689780D02*
X247914824Y-81689780D01*
X253800000Y-79849780D02*
X258864824Y-79849780D01*
X258864824Y-75799780D02*
X249914824Y-75799780D01*
X258864824Y-76229780D02*
X258864824Y-75799780D01*
X258864824Y-76229780D02*
X261414824Y-76229780D01*
X258864824Y-79849780D02*
X258864824Y-78679780D01*
X261414824Y-76229780D02*
X261414824Y-78679780D01*
X261414824Y-78679780D02*
X258864824Y-78679780D01*
X247914824Y-77799780D02*
G75*
G02*
X249914824Y-75799780I2000005J-5D01*
G01*
X251505678Y-81689780D02*
G75*
G02*
X253800000Y-79849780I2294320J-510409D01*
G01*
G04 #@! TO.C,MX78*
X194197520Y-48320220D02*
X196747520Y-48320220D01*
X194197520Y-50770220D02*
X194197520Y-48320220D01*
X196747520Y-47150220D02*
X196747520Y-48320220D01*
X196747520Y-50770220D02*
X194197520Y-50770220D01*
X196747520Y-50770220D02*
X196747520Y-51200220D01*
X196747520Y-51200220D02*
X205697520Y-51200220D01*
X201812344Y-47150220D02*
X196747520Y-47150220D01*
X204106666Y-45310220D02*
X207697520Y-45310220D01*
X207697520Y-45310220D02*
X207697520Y-45750220D01*
X207697520Y-45750220D02*
X210297520Y-45750220D01*
X207697520Y-49200220D02*
X207697520Y-48200220D01*
X210297520Y-45750220D02*
X210297520Y-48200220D01*
X210297520Y-48200220D02*
X207697520Y-48200220D01*
X204106666Y-45310220D02*
G75*
G02*
X201812344Y-47150220I-2294320J510409D01*
G01*
X207697520Y-49200220D02*
G75*
G02*
X205697520Y-51200220I-2000005J5D01*
G01*
G04 #@! TO.C,MX4*
X73864824Y-21649780D02*
X76464824Y-21649780D01*
X73864824Y-24099780D02*
X73864824Y-21649780D01*
X76464824Y-20649780D02*
X76464824Y-21649780D01*
X76464824Y-24099780D02*
X73864824Y-24099780D01*
X76464824Y-24539780D02*
X76464824Y-24099780D01*
X80055678Y-24539780D02*
X76464824Y-24539780D01*
X82350000Y-22699780D02*
X87414824Y-22699780D01*
X87414824Y-18649780D02*
X78464824Y-18649780D01*
X87414824Y-19079780D02*
X87414824Y-18649780D01*
X87414824Y-19079780D02*
X89964824Y-19079780D01*
X87414824Y-22699780D02*
X87414824Y-21529780D01*
X89964824Y-19079780D02*
X89964824Y-21529780D01*
X89964824Y-21529780D02*
X87414824Y-21529780D01*
X76464824Y-20649780D02*
G75*
G02*
X78464824Y-18649780I2000005J-5D01*
G01*
X80055678Y-24539780D02*
G75*
G02*
X82350000Y-22699780I2294320J-510409D01*
G01*
G04 #@! TO.C,MX61*
X226264824Y-78799780D02*
X228864824Y-78799780D01*
X226264824Y-81249780D02*
X226264824Y-78799780D01*
X228864824Y-77799780D02*
X228864824Y-78799780D01*
X228864824Y-81249780D02*
X226264824Y-81249780D01*
X228864824Y-81689780D02*
X228864824Y-81249780D01*
X232455678Y-81689780D02*
X228864824Y-81689780D01*
X234750000Y-79849780D02*
X239814824Y-79849780D01*
X239814824Y-75799780D02*
X230864824Y-75799780D01*
X239814824Y-76229780D02*
X239814824Y-75799780D01*
X239814824Y-76229780D02*
X242364824Y-76229780D01*
X239814824Y-79849780D02*
X239814824Y-78679780D01*
X242364824Y-76229780D02*
X242364824Y-78679780D01*
X242364824Y-78679780D02*
X239814824Y-78679780D01*
X228864824Y-77799780D02*
G75*
G02*
X230864824Y-75799780I2000005J-5D01*
G01*
X232455678Y-81689780D02*
G75*
G02*
X234750000Y-79849780I2294320J-510409D01*
G01*
G04 #@! TO.C,D9*
X179731880Y-23843750D02*
X182031880Y-23843750D01*
X179731880Y-28543750D02*
X179731880Y-23843750D01*
X179731880Y-28543750D02*
X182031880Y-28543750D01*
X182031880Y-23843750D02*
X182031880Y-28543750D01*
G04 #@! TO.C,MX41*
X170385176Y-67370220D02*
X172935176Y-67370220D01*
X170385176Y-69820220D02*
X170385176Y-67370220D01*
X172935176Y-66200220D02*
X172935176Y-67370220D01*
X172935176Y-69820220D02*
X170385176Y-69820220D01*
X172935176Y-69820220D02*
X172935176Y-70250220D01*
X172935176Y-70250220D02*
X181885176Y-70250220D01*
X178000000Y-66200220D02*
X172935176Y-66200220D01*
X180294322Y-64360220D02*
X183885176Y-64360220D01*
X183885176Y-64360220D02*
X183885176Y-64800220D01*
X183885176Y-64800220D02*
X186485176Y-64800220D01*
X183885176Y-68250220D02*
X183885176Y-67250220D01*
X186485176Y-64800220D02*
X186485176Y-67250220D01*
X186485176Y-67250220D02*
X183885176Y-67250220D01*
X180294322Y-64360220D02*
G75*
G02*
X178000000Y-66200220I-2294320J510409D01*
G01*
X183885176Y-68250220D02*
G75*
G02*
X181885176Y-70250220I-2000005J5D01*
G01*
G04 #@! TO.C,MX15*
X283414824Y-21649780D02*
X286014824Y-21649780D01*
X283414824Y-24099780D02*
X283414824Y-21649780D01*
X286014824Y-20649780D02*
X286014824Y-21649780D01*
X286014824Y-24099780D02*
X283414824Y-24099780D01*
X286014824Y-24539780D02*
X286014824Y-24099780D01*
X289605678Y-24539780D02*
X286014824Y-24539780D01*
X291900000Y-22699780D02*
X296964824Y-22699780D01*
X296964824Y-18649780D02*
X288014824Y-18649780D01*
X296964824Y-19079780D02*
X296964824Y-18649780D01*
X296964824Y-19079780D02*
X299514824Y-19079780D01*
X296964824Y-22699780D02*
X296964824Y-21529780D01*
X299514824Y-19079780D02*
X299514824Y-21529780D01*
X299514824Y-21529780D02*
X296964824Y-21529780D01*
X286014824Y-20649780D02*
G75*
G02*
X288014824Y-18649780I2000005J-5D01*
G01*
X289605678Y-24539780D02*
G75*
G02*
X291900000Y-22699780I2294320J-510409D01*
G01*
G04 #@! TO.C,C11*
X321659652Y-56630576D02*
X322579652Y-56630576D01*
X321659652Y-58450576D02*
X321659652Y-56630576D01*
X322579652Y-56630576D02*
X322579652Y-58450576D01*
X322579652Y-58450576D02*
X321659652Y-58450576D01*
G04 #@! TO.C,MX57*
X169114824Y-78799780D02*
X171714824Y-78799780D01*
X169114824Y-81249780D02*
X169114824Y-78799780D01*
X171714824Y-77799780D02*
X171714824Y-78799780D01*
X171714824Y-81249780D02*
X169114824Y-81249780D01*
X171714824Y-81689780D02*
X171714824Y-81249780D01*
X175305678Y-81689780D02*
X171714824Y-81689780D01*
X177600000Y-79849780D02*
X182664824Y-79849780D01*
X182664824Y-75799780D02*
X173714824Y-75799780D01*
X182664824Y-76229780D02*
X182664824Y-75799780D01*
X182664824Y-76229780D02*
X185214824Y-76229780D01*
X182664824Y-79849780D02*
X182664824Y-78679780D01*
X185214824Y-76229780D02*
X185214824Y-78679780D01*
X185214824Y-78679780D02*
X182664824Y-78679780D01*
X171714824Y-77799780D02*
G75*
G02*
X173714824Y-75799780I2000005J-5D01*
G01*
X175305678Y-81689780D02*
G75*
G02*
X177600000Y-79849780I2294320J-510409D01*
G01*
G04 #@! TO.C,D58*
X183793750Y-80993750D02*
X186093750Y-80993750D01*
X183793750Y-85693750D02*
X183793750Y-80993750D01*
X183793750Y-85693750D02*
X186093750Y-85693750D01*
X186093750Y-80993750D02*
X186093750Y-85693750D01*
G04 #@! TO.C,MX39*
X132285176Y-67370220D02*
X134835176Y-67370220D01*
X132285176Y-69820220D02*
X132285176Y-67370220D01*
X134835176Y-66200220D02*
X134835176Y-67370220D01*
X134835176Y-69820220D02*
X132285176Y-69820220D01*
X134835176Y-69820220D02*
X134835176Y-70250220D01*
X134835176Y-70250220D02*
X143785176Y-70250220D01*
X139900000Y-66200220D02*
X134835176Y-66200220D01*
X142194322Y-64360220D02*
X145785176Y-64360220D01*
X145785176Y-64360220D02*
X145785176Y-64800220D01*
X145785176Y-64800220D02*
X148385176Y-64800220D01*
X145785176Y-68250220D02*
X145785176Y-67250220D01*
X148385176Y-64800220D02*
X148385176Y-67250220D01*
X148385176Y-67250220D02*
X145785176Y-67250220D01*
X142194322Y-64360220D02*
G75*
G02*
X139900000Y-66200220I-2294320J510409D01*
G01*
X145785176Y-68250220D02*
G75*
G02*
X143785176Y-70250220I-2000005J5D01*
G01*
G04 #@! TO.C,MX68*
X216739648Y-21649772D02*
X219339648Y-21649772D01*
X216739648Y-24099772D02*
X216739648Y-21649772D01*
X219339648Y-20649772D02*
X219339648Y-21649772D01*
X219339648Y-24099772D02*
X216739648Y-24099772D01*
X219339648Y-24539772D02*
X219339648Y-24099772D01*
X222930502Y-24539772D02*
X219339648Y-24539772D01*
X225224824Y-22699772D02*
X230289648Y-22699772D01*
X230289648Y-18649772D02*
X221339648Y-18649772D01*
X230289648Y-19079772D02*
X230289648Y-18649772D01*
X230289648Y-19079772D02*
X232839648Y-19079772D01*
X230289648Y-22699772D02*
X230289648Y-21529772D01*
X232839648Y-19079772D02*
X232839648Y-21529772D01*
X232839648Y-21529772D02*
X230289648Y-21529772D01*
X219339648Y-20649772D02*
G75*
G02*
X221339648Y-18649772I2000005J-5D01*
G01*
X222930502Y-24539772D02*
G75*
G02*
X225224824Y-22699772I2294320J-510409D01*
G01*
G04 #@! TO.C,MX66*
X141810176Y-86420220D02*
X144360176Y-86420220D01*
X141810176Y-88870220D02*
X141810176Y-86420220D01*
X144360176Y-85250220D02*
X144360176Y-86420220D01*
X144360176Y-88870220D02*
X141810176Y-88870220D01*
X144360176Y-88870220D02*
X144360176Y-89300220D01*
X144360176Y-89300220D02*
X153310176Y-89300220D01*
X149425000Y-85250220D02*
X144360176Y-85250220D01*
X151719322Y-83410220D02*
X155310176Y-83410220D01*
X155310176Y-83410220D02*
X155310176Y-83850220D01*
X155310176Y-83850220D02*
X157910176Y-83850220D01*
X155310176Y-87300220D02*
X155310176Y-86300220D01*
X157910176Y-83850220D02*
X157910176Y-86300220D01*
X157910176Y-86300220D02*
X155310176Y-86300220D01*
X151719322Y-83410220D02*
G75*
G02*
X149425000Y-85250220I-2294320J510409D01*
G01*
X155310176Y-87300220D02*
G75*
G02*
X153310176Y-89300220I-2000005J5D01*
G01*
G04 #@! TO.C,D37*
X108179608Y-67707768D02*
X112879608Y-67707768D01*
X108179608Y-70007768D02*
X108179608Y-67707768D01*
X112879608Y-70007768D02*
X108179608Y-70007768D01*
X112879608Y-70007768D02*
X112879608Y-67707768D01*
G04 #@! TO.C,D40*
X165329560Y-67707768D02*
X170029560Y-67707768D01*
X165329560Y-70007768D02*
X165329560Y-67707768D01*
X170029560Y-70007768D02*
X165329560Y-70007768D01*
X170029560Y-70007768D02*
X170029560Y-67707768D01*
G04 #@! TO.C,MX14*
X264364824Y-21649780D02*
X266964824Y-21649780D01*
X264364824Y-24099780D02*
X264364824Y-21649780D01*
X266964824Y-20649780D02*
X266964824Y-21649780D01*
X266964824Y-24099780D02*
X264364824Y-24099780D01*
X266964824Y-24539780D02*
X266964824Y-24099780D01*
X270555678Y-24539780D02*
X266964824Y-24539780D01*
X272850000Y-22699780D02*
X277914824Y-22699780D01*
X277914824Y-18649780D02*
X268964824Y-18649780D01*
X277914824Y-19079780D02*
X277914824Y-18649780D01*
X277914824Y-19079780D02*
X280464824Y-19079780D01*
X277914824Y-22699780D02*
X277914824Y-21529780D01*
X280464824Y-19079780D02*
X280464824Y-21529780D01*
X280464824Y-21529780D02*
X277914824Y-21529780D01*
X266964824Y-20649780D02*
G75*
G02*
X268964824Y-18649780I2000005J-5D01*
G01*
X270555678Y-24539780D02*
G75*
G02*
X272850000Y-22699780I2294320J-510409D01*
G01*
G04 #@! TO.C,R3*
X320445512Y-40104184D02*
X322305512Y-40104184D01*
X320445512Y-41044184D02*
X320445512Y-40104184D01*
X322305512Y-40104184D02*
X322305512Y-41044184D01*
X322305512Y-41044184D02*
X320445512Y-41044184D01*
G04 #@! TO.C,MX88*
X183402176Y-59749780D02*
X186002176Y-59749780D01*
X183402176Y-62199780D02*
X183402176Y-59749780D01*
X186002176Y-58749780D02*
X186002176Y-59749780D01*
X186002176Y-62199780D02*
X183402176Y-62199780D01*
X186002176Y-62639780D02*
X186002176Y-62199780D01*
X189593030Y-62639780D02*
X186002176Y-62639780D01*
X191887352Y-60799780D02*
X196952176Y-60799780D01*
X196952176Y-56749780D02*
X188002176Y-56749780D01*
X196952176Y-57179780D02*
X196952176Y-56749780D01*
X196952176Y-57179780D02*
X199502176Y-57179780D01*
X196952176Y-60799780D02*
X196952176Y-59629780D01*
X199502176Y-57179780D02*
X199502176Y-59629780D01*
X199502176Y-59629780D02*
X196952176Y-59629780D01*
X186002176Y-58749780D02*
G75*
G02*
X188002176Y-56749780I2000005J-5D01*
G01*
X189593030Y-62639780D02*
G75*
G02*
X191887352Y-60799780I2294320J-510409D01*
G01*
G04 #@! TO.C,MX40*
X151335176Y-67370220D02*
X153885176Y-67370220D01*
X151335176Y-69820220D02*
X151335176Y-67370220D01*
X153885176Y-66200220D02*
X153885176Y-67370220D01*
X153885176Y-69820220D02*
X151335176Y-69820220D01*
X153885176Y-69820220D02*
X153885176Y-70250220D01*
X153885176Y-70250220D02*
X162835176Y-70250220D01*
X158950000Y-66200220D02*
X153885176Y-66200220D01*
X161244322Y-64360220D02*
X164835176Y-64360220D01*
X164835176Y-64360220D02*
X164835176Y-64800220D01*
X164835176Y-64800220D02*
X167435176Y-64800220D01*
X164835176Y-68250220D02*
X164835176Y-67250220D01*
X167435176Y-64800220D02*
X167435176Y-67250220D01*
X167435176Y-67250220D02*
X164835176Y-67250220D01*
X161244322Y-64360220D02*
G75*
G02*
X158950000Y-66200220I-2294320J510409D01*
G01*
X164835176Y-68250220D02*
G75*
G02*
X162835176Y-70250220I-2000005J5D01*
G01*
G04 #@! TO.C,MX11*
X208485176Y-29270220D02*
X211035176Y-29270220D01*
X208485176Y-31720220D02*
X208485176Y-29270220D01*
X211035176Y-28100220D02*
X211035176Y-29270220D01*
X211035176Y-31720220D02*
X208485176Y-31720220D01*
X211035176Y-31720220D02*
X211035176Y-32150220D01*
X211035176Y-32150220D02*
X219985176Y-32150220D01*
X216100000Y-28100220D02*
X211035176Y-28100220D01*
X218394322Y-26260220D02*
X221985176Y-26260220D01*
X221985176Y-26260220D02*
X221985176Y-26700220D01*
X221985176Y-26700220D02*
X224585176Y-26700220D01*
X221985176Y-30150220D02*
X221985176Y-29150220D01*
X224585176Y-26700220D02*
X224585176Y-29150220D01*
X224585176Y-29150220D02*
X221985176Y-29150220D01*
X218394322Y-26260220D02*
G75*
G02*
X216100000Y-28100220I-2294320J510409D01*
G01*
X221985176Y-30150220D02*
G75*
G02*
X219985176Y-32150220I-2000005J5D01*
G01*
G04 #@! TO.C,MX89*
X202452160Y-59749780D02*
X205052160Y-59749780D01*
X202452160Y-62199780D02*
X202452160Y-59749780D01*
X205052160Y-58749780D02*
X205052160Y-59749780D01*
X205052160Y-62199780D02*
X202452160Y-62199780D01*
X205052160Y-62639780D02*
X205052160Y-62199780D01*
X208643014Y-62639780D02*
X205052160Y-62639780D01*
X210937336Y-60799780D02*
X216002160Y-60799780D01*
X216002160Y-56749780D02*
X207052160Y-56749780D01*
X216002160Y-57179780D02*
X216002160Y-56749780D01*
X216002160Y-57179780D02*
X218552160Y-57179780D01*
X216002160Y-60799780D02*
X216002160Y-59629780D01*
X218552160Y-57179780D02*
X218552160Y-59629780D01*
X218552160Y-59629780D02*
X216002160Y-59629780D01*
X205052160Y-58749780D02*
G75*
G02*
X207052160Y-56749780I2000005J-5D01*
G01*
X208643014Y-62639780D02*
G75*
G02*
X210937336Y-60799780I2294320J-510409D01*
G01*
G04 #@! TO.C,U4*
X317324888Y-58546040D02*
X317324888Y-67846040D01*
X317324888Y-67846040D02*
X323044888Y-67846040D01*
X323044888Y-58546040D02*
X317324888Y-58546040D01*
X323044888Y-67846040D02*
X323044888Y-58546040D01*
G04 #@! TO.C,MX48*
X16714824Y-78799780D02*
X19314824Y-78799780D01*
X16714824Y-81249780D02*
X16714824Y-78799780D01*
X19314824Y-77799780D02*
X19314824Y-78799780D01*
X19314824Y-81249780D02*
X16714824Y-81249780D01*
X19314824Y-81689780D02*
X19314824Y-81249780D01*
X22905678Y-81689780D02*
X19314824Y-81689780D01*
X25200000Y-79849780D02*
X30264824Y-79849780D01*
X30264824Y-75799780D02*
X21314824Y-75799780D01*
X30264824Y-76229780D02*
X30264824Y-75799780D01*
X30264824Y-76229780D02*
X32814824Y-76229780D01*
X30264824Y-79849780D02*
X30264824Y-78679780D01*
X32814824Y-76229780D02*
X32814824Y-78679780D01*
X32814824Y-78679780D02*
X30264824Y-78679780D01*
X19314824Y-77799780D02*
G75*
G02*
X21314824Y-75799780I2000005J-5D01*
G01*
X22905678Y-81689780D02*
G75*
G02*
X25200000Y-79849780I2294320J-510409D01*
G01*
G04 #@! TO.C,MX54*
X111964824Y-78799780D02*
X114564824Y-78799780D01*
X111964824Y-81249780D02*
X111964824Y-78799780D01*
X114564824Y-77799780D02*
X114564824Y-78799780D01*
X114564824Y-81249780D02*
X111964824Y-81249780D01*
X114564824Y-81689780D02*
X114564824Y-81249780D01*
X118155678Y-81689780D02*
X114564824Y-81689780D01*
X120450000Y-79849780D02*
X125514824Y-79849780D01*
X125514824Y-75799780D02*
X116564824Y-75799780D01*
X125514824Y-76229780D02*
X125514824Y-75799780D01*
X125514824Y-76229780D02*
X128064824Y-76229780D01*
X125514824Y-79849780D02*
X125514824Y-78679780D01*
X128064824Y-76229780D02*
X128064824Y-78679780D01*
X128064824Y-78679780D02*
X125514824Y-78679780D01*
X114564824Y-77799780D02*
G75*
G02*
X116564824Y-75799780I2000005J-5D01*
G01*
X118155678Y-81689780D02*
G75*
G02*
X120450000Y-79849780I2294320J-510409D01*
G01*
G04 #@! TO.C,D42*
X203429528Y-67707768D02*
X208129528Y-67707768D01*
X203429528Y-70007768D02*
X203429528Y-67707768D01*
X208129528Y-70007768D02*
X203429528Y-70007768D01*
X208129528Y-70007768D02*
X208129528Y-67707768D01*
G04 #@! TO.C,D14*
X274981800Y-23843750D02*
X277281800Y-23843750D01*
X274981800Y-28543750D02*
X274981800Y-23843750D01*
X274981800Y-28543750D02*
X277281800Y-28543750D01*
X277281800Y-23843750D02*
X277281800Y-28543750D01*
G04 #@! TO.C,MX70*
X41797648Y-48320220D02*
X44347648Y-48320220D01*
X41797648Y-50770220D02*
X41797648Y-48320220D01*
X44347648Y-47150220D02*
X44347648Y-48320220D01*
X44347648Y-50770220D02*
X41797648Y-50770220D01*
X44347648Y-50770220D02*
X44347648Y-51200220D01*
X44347648Y-51200220D02*
X53297648Y-51200220D01*
X49412472Y-47150220D02*
X44347648Y-47150220D01*
X51706794Y-45310220D02*
X55297648Y-45310220D01*
X55297648Y-45310220D02*
X55297648Y-45750220D01*
X55297648Y-45750220D02*
X57897648Y-45750220D01*
X55297648Y-49200220D02*
X55297648Y-48200220D01*
X57897648Y-45750220D02*
X57897648Y-48200220D01*
X57897648Y-48200220D02*
X55297648Y-48200220D01*
X51706794Y-45310220D02*
G75*
G02*
X49412472Y-47150220I-2294320J510409D01*
G01*
X55297648Y-49200220D02*
G75*
G02*
X53297648Y-51200220I-2000005J5D01*
G01*
G04 #@! TO.C,MX21*
X92914824Y-40699780D02*
X95514824Y-40699780D01*
X92914824Y-43149780D02*
X92914824Y-40699780D01*
X95514824Y-39699780D02*
X95514824Y-40699780D01*
X95514824Y-43149780D02*
X92914824Y-43149780D01*
X95514824Y-43589780D02*
X95514824Y-43149780D01*
X99105678Y-43589780D02*
X95514824Y-43589780D01*
X101400000Y-41749780D02*
X106464824Y-41749780D01*
X106464824Y-37699780D02*
X97514824Y-37699780D01*
X106464824Y-38129780D02*
X106464824Y-37699780D01*
X106464824Y-38129780D02*
X109014824Y-38129780D01*
X106464824Y-41749780D02*
X106464824Y-40579780D01*
X109014824Y-38129780D02*
X109014824Y-40579780D01*
X109014824Y-40579780D02*
X106464824Y-40579780D01*
X95514824Y-39699780D02*
G75*
G02*
X97514824Y-37699780I2000005J-5D01*
G01*
X99105678Y-43589780D02*
G75*
G02*
X101400000Y-41749780I2294320J-510409D01*
G01*
G04 #@! TO.C,MX59*
X207214824Y-78799780D02*
X209814824Y-78799780D01*
X207214824Y-81249780D02*
X207214824Y-78799780D01*
X209814824Y-77799780D02*
X209814824Y-78799780D01*
X209814824Y-81249780D02*
X207214824Y-81249780D01*
X209814824Y-81689780D02*
X209814824Y-81249780D01*
X213405678Y-81689780D02*
X209814824Y-81689780D01*
X215700000Y-79849780D02*
X220764824Y-79849780D01*
X220764824Y-75799780D02*
X211814824Y-75799780D01*
X220764824Y-76229780D02*
X220764824Y-75799780D01*
X220764824Y-76229780D02*
X223314824Y-76229780D01*
X220764824Y-79849780D02*
X220764824Y-78679780D01*
X223314824Y-76229780D02*
X223314824Y-78679780D01*
X223314824Y-78679780D02*
X220764824Y-78679780D01*
X209814824Y-77799780D02*
G75*
G02*
X211814824Y-75799780I2000005J-5D01*
G01*
X213405678Y-81689780D02*
G75*
G02*
X215700000Y-79849780I2294320J-510409D01*
G01*
G04 #@! TO.C,MX25*
X169114824Y-40699780D02*
X171714824Y-40699780D01*
X169114824Y-43149780D02*
X169114824Y-40699780D01*
X171714824Y-39699780D02*
X171714824Y-40699780D01*
X171714824Y-43149780D02*
X169114824Y-43149780D01*
X171714824Y-43589780D02*
X171714824Y-43149780D01*
X175305678Y-43589780D02*
X171714824Y-43589780D01*
X177600000Y-41749780D02*
X182664824Y-41749780D01*
X182664824Y-37699780D02*
X173714824Y-37699780D01*
X182664824Y-38129780D02*
X182664824Y-37699780D01*
X182664824Y-38129780D02*
X185214824Y-38129780D01*
X182664824Y-41749780D02*
X182664824Y-40579780D01*
X185214824Y-38129780D02*
X185214824Y-40579780D01*
X185214824Y-40579780D02*
X182664824Y-40579780D01*
X171714824Y-39699780D02*
G75*
G02*
X173714824Y-37699780I2000005J-5D01*
G01*
X175305678Y-43589780D02*
G75*
G02*
X177600000Y-41749780I2294320J-510409D01*
G01*
G04 #@! TO.C,D28*
X241231840Y-48657784D02*
X245931840Y-48657784D01*
X241231840Y-50957784D02*
X241231840Y-48657784D01*
X245931840Y-50957784D02*
X241231840Y-50957784D01*
X245931840Y-50957784D02*
X245931840Y-48657784D01*
G04 #@! TO.C,D10*
X198781864Y-23843750D02*
X201081864Y-23843750D01*
X198781864Y-28543750D02*
X198781864Y-23843750D01*
X198781864Y-28543750D02*
X201081864Y-28543750D01*
X201081864Y-23843750D02*
X201081864Y-28543750D01*
G04 #@! TO.C,MX32*
X307227324Y-45462280D02*
X309827324Y-45462280D01*
X307227324Y-47912280D02*
X307227324Y-45462280D01*
X309827324Y-44462280D02*
X309827324Y-45462280D01*
X309827324Y-47912280D02*
X307227324Y-47912280D01*
X309827324Y-48352280D02*
X309827324Y-47912280D01*
X313418178Y-48352280D02*
X309827324Y-48352280D01*
X315712500Y-46512280D02*
X320777324Y-46512280D01*
X320777324Y-42462280D02*
X311827324Y-42462280D01*
X320777324Y-42892280D02*
X320777324Y-42462280D01*
X320777324Y-42892280D02*
X323327324Y-42892280D01*
X320777324Y-46512280D02*
X320777324Y-45342280D01*
X323327324Y-42892280D02*
X323327324Y-45342280D01*
X323327324Y-45342280D02*
X320777324Y-45342280D01*
X309827324Y-44462280D02*
G75*
G02*
X311827324Y-42462280I2000005J-5D01*
G01*
X313418178Y-48352280D02*
G75*
G02*
X315712500Y-46512280I2294320J-510409D01*
G01*
G04 #@! TO.C,MX43*
X208485176Y-67370220D02*
X211035176Y-67370220D01*
X208485176Y-69820220D02*
X208485176Y-67370220D01*
X211035176Y-66200220D02*
X211035176Y-67370220D01*
X211035176Y-69820220D02*
X208485176Y-69820220D01*
X211035176Y-69820220D02*
X211035176Y-70250220D01*
X211035176Y-70250220D02*
X219985176Y-70250220D01*
X216100000Y-66200220D02*
X211035176Y-66200220D01*
X218394322Y-64360220D02*
X221985176Y-64360220D01*
X221985176Y-64360220D02*
X221985176Y-64800220D01*
X221985176Y-64800220D02*
X224585176Y-64800220D01*
X221985176Y-68250220D02*
X221985176Y-67250220D01*
X224585176Y-64800220D02*
X224585176Y-67250220D01*
X224585176Y-67250220D02*
X221985176Y-67250220D01*
X218394322Y-64360220D02*
G75*
G02*
X216100000Y-66200220I-2294320J510409D01*
G01*
X221985176Y-68250220D02*
G75*
G02*
X219985176Y-70250220I-2000005J5D01*
G01*
G04 #@! TO.C,C12*
X305077492Y-74337598D02*
X305728030Y-73687060D01*
X305728030Y-73687060D02*
X307014964Y-74973994D01*
X306364426Y-75624532D02*
X305077492Y-74337598D01*
X307014964Y-74973994D02*
X306364426Y-75624532D01*
G04 #@! TO.C,MX86*
X145302208Y-59749780D02*
X147902208Y-59749780D01*
X145302208Y-62199780D02*
X145302208Y-59749780D01*
X147902208Y-58749780D02*
X147902208Y-59749780D01*
X147902208Y-62199780D02*
X145302208Y-62199780D01*
X147902208Y-62639780D02*
X147902208Y-62199780D01*
X151493062Y-62639780D02*
X147902208Y-62639780D01*
X153787384Y-60799780D02*
X158852208Y-60799780D01*
X158852208Y-56749780D02*
X149902208Y-56749780D01*
X158852208Y-57179780D02*
X158852208Y-56749780D01*
X158852208Y-57179780D02*
X161402208Y-57179780D01*
X158852208Y-60799780D02*
X158852208Y-59629780D01*
X161402208Y-57179780D02*
X161402208Y-59629780D01*
X161402208Y-59629780D02*
X158852208Y-59629780D01*
X147902208Y-58749780D02*
G75*
G02*
X149902208Y-56749780I2000005J-5D01*
G01*
X151493062Y-62639780D02*
G75*
G02*
X153787384Y-60799780I2294320J-510409D01*
G01*
G04 #@! TO.C,MX22*
X111964824Y-40699780D02*
X114564824Y-40699780D01*
X111964824Y-43149780D02*
X111964824Y-40699780D01*
X114564824Y-39699780D02*
X114564824Y-40699780D01*
X114564824Y-43149780D02*
X111964824Y-43149780D01*
X114564824Y-43589780D02*
X114564824Y-43149780D01*
X118155678Y-43589780D02*
X114564824Y-43589780D01*
X120450000Y-41749780D02*
X125514824Y-41749780D01*
X125514824Y-37699780D02*
X116564824Y-37699780D01*
X125514824Y-38129780D02*
X125514824Y-37699780D01*
X125514824Y-38129780D02*
X128064824Y-38129780D01*
X125514824Y-41749780D02*
X125514824Y-40579780D01*
X128064824Y-38129780D02*
X128064824Y-40579780D01*
X128064824Y-40579780D02*
X125514824Y-40579780D01*
X114564824Y-39699780D02*
G75*
G02*
X116564824Y-37699780I2000005J-5D01*
G01*
X118155678Y-43589780D02*
G75*
G02*
X120450000Y-41749780I2294320J-510409D01*
G01*
G04 #@! TO.C,D54*
X122581928Y-80993750D02*
X124881928Y-80993750D01*
X122581928Y-85693750D02*
X122581928Y-80993750D01*
X122581928Y-85693750D02*
X124881928Y-85693750D01*
X124881928Y-80993750D02*
X124881928Y-85693750D01*
G04 #@! TO.C,D16*
X317844264Y-23843750D02*
X320144264Y-23843750D01*
X317844264Y-28543750D02*
X317844264Y-23843750D01*
X317844264Y-28543750D02*
X320144264Y-28543750D01*
X320144264Y-23843750D02*
X320144264Y-28543750D01*
G04 #@! TO.C,MX46*
X264364824Y-59749780D02*
X266964824Y-59749780D01*
X264364824Y-62199780D02*
X264364824Y-59749780D01*
X266964824Y-58749780D02*
X266964824Y-59749780D01*
X266964824Y-62199780D02*
X264364824Y-62199780D01*
X266964824Y-62639780D02*
X266964824Y-62199780D01*
X270555678Y-62639780D02*
X266964824Y-62639780D01*
X272850000Y-60799780D02*
X277914824Y-60799780D01*
X277914824Y-56749780D02*
X268964824Y-56749780D01*
X277914824Y-57179780D02*
X277914824Y-56749780D01*
X277914824Y-57179780D02*
X280464824Y-57179780D01*
X277914824Y-60799780D02*
X277914824Y-59629780D01*
X280464824Y-57179780D02*
X280464824Y-59629780D01*
X280464824Y-59629780D02*
X277914824Y-59629780D01*
X266964824Y-58749780D02*
G75*
G02*
X268964824Y-56749780I2000005J-5D01*
G01*
X270555678Y-62639780D02*
G75*
G02*
X272850000Y-60799780I2294320J-510409D01*
G01*
G04 #@! TO.C,D36*
X89129624Y-67707768D02*
X93829624Y-67707768D01*
X89129624Y-70007768D02*
X89129624Y-67707768D01*
X93829624Y-70007768D02*
X89129624Y-70007768D01*
X93829624Y-70007768D02*
X93829624Y-67707768D01*
G04 #@! TO.C,MX56*
X150064824Y-78799780D02*
X152664824Y-78799780D01*
X150064824Y-81249780D02*
X150064824Y-78799780D01*
X152664824Y-77799780D02*
X152664824Y-78799780D01*
X152664824Y-81249780D02*
X150064824Y-81249780D01*
X152664824Y-81689780D02*
X152664824Y-81249780D01*
X156255678Y-81689780D02*
X152664824Y-81689780D01*
X158550000Y-79849780D02*
X163614824Y-79849780D01*
X163614824Y-75799780D02*
X154664824Y-75799780D01*
X163614824Y-76229780D02*
X163614824Y-75799780D01*
X163614824Y-76229780D02*
X166164824Y-76229780D01*
X163614824Y-79849780D02*
X163614824Y-78679780D01*
X166164824Y-76229780D02*
X166164824Y-78679780D01*
X166164824Y-78679780D02*
X163614824Y-78679780D01*
X152664824Y-77799780D02*
G75*
G02*
X154664824Y-75799780I2000005J-5D01*
G01*
X156255678Y-81689780D02*
G75*
G02*
X158550000Y-79849780I2294320J-510409D01*
G01*
G04 #@! TO.C,MX72*
X79897616Y-48320220D02*
X82447616Y-48320220D01*
X79897616Y-50770220D02*
X79897616Y-48320220D01*
X82447616Y-47150220D02*
X82447616Y-48320220D01*
X82447616Y-50770220D02*
X79897616Y-50770220D01*
X82447616Y-50770220D02*
X82447616Y-51200220D01*
X82447616Y-51200220D02*
X91397616Y-51200220D01*
X87512440Y-47150220D02*
X82447616Y-47150220D01*
X89806762Y-45310220D02*
X93397616Y-45310220D01*
X93397616Y-45310220D02*
X93397616Y-45750220D01*
X93397616Y-45750220D02*
X95997616Y-45750220D01*
X93397616Y-49200220D02*
X93397616Y-48200220D01*
X95997616Y-45750220D02*
X95997616Y-48200220D01*
X95997616Y-48200220D02*
X93397616Y-48200220D01*
X89806762Y-45310220D02*
G75*
G02*
X87512440Y-47150220I-2294320J510409D01*
G01*
X93397616Y-49200220D02*
G75*
G02*
X91397616Y-51200220I-2000005J5D01*
G01*
G04 #@! TO.C,MX91*
X84660176Y-86420220D02*
X87210176Y-86420220D01*
X84660176Y-88870220D02*
X84660176Y-86420220D01*
X87210176Y-85250220D02*
X87210176Y-86420220D01*
X87210176Y-88870220D02*
X84660176Y-88870220D01*
X87210176Y-88870220D02*
X87210176Y-89300220D01*
X87210176Y-89300220D02*
X96160176Y-89300220D01*
X92275000Y-85250220D02*
X87210176Y-85250220D01*
X94569322Y-83410220D02*
X98160176Y-83410220D01*
X98160176Y-83410220D02*
X98160176Y-83850220D01*
X98160176Y-83850220D02*
X100760176Y-83850220D01*
X98160176Y-87300220D02*
X98160176Y-86300220D01*
X100760176Y-83850220D02*
X100760176Y-86300220D01*
X100760176Y-86300220D02*
X98160176Y-86300220D01*
X94569322Y-83410220D02*
G75*
G02*
X92275000Y-85250220I-2294320J510409D01*
G01*
X98160176Y-87300220D02*
G75*
G02*
X96160176Y-89300220I-2000005J5D01*
G01*
G04 #@! TO.C,D33*
X39123416Y-67707768D02*
X43823416Y-67707768D01*
X39123416Y-70007768D02*
X39123416Y-67707768D01*
X43823416Y-70007768D02*
X39123416Y-70007768D01*
X43823416Y-70007768D02*
X43823416Y-67707768D01*
G04 #@! TO.C,D63*
X274981800Y-80993750D02*
X277281800Y-80993750D01*
X274981800Y-85693750D02*
X274981800Y-80993750D01*
X274981800Y-85693750D02*
X277281800Y-85693750D01*
X277281800Y-80993750D02*
X277281800Y-85693750D01*
G04 #@! TO.C,BOOT1*
X311618876Y-34597624D02*
X320118876Y-34597624D01*
X311618876Y-40597624D02*
X311618876Y-34597624D01*
X320118876Y-34597624D02*
X320118876Y-40597624D01*
X320118876Y-40597624D02*
X311618876Y-40597624D01*
G04 #@! TO.C,C4*
X304572587Y-70436446D02*
X305859521Y-69149512D01*
X305223125Y-71086984D02*
X304572587Y-70436446D01*
X305859521Y-69149512D02*
X306510059Y-69800050D01*
X306510059Y-69800050D02*
X305223125Y-71086984D01*
G04 #@! TO.C,MX29*
X245314824Y-40699780D02*
X247914824Y-40699780D01*
X245314824Y-43149780D02*
X245314824Y-40699780D01*
X247914824Y-39699780D02*
X247914824Y-40699780D01*
X247914824Y-43149780D02*
X245314824Y-43149780D01*
X247914824Y-43589780D02*
X247914824Y-43149780D01*
X251505678Y-43589780D02*
X247914824Y-43589780D01*
X253800000Y-41749780D02*
X258864824Y-41749780D01*
X258864824Y-37699780D02*
X249914824Y-37699780D01*
X258864824Y-38129780D02*
X258864824Y-37699780D01*
X258864824Y-38129780D02*
X261414824Y-38129780D01*
X258864824Y-41749780D02*
X258864824Y-40579780D01*
X261414824Y-38129780D02*
X261414824Y-40579780D01*
X261414824Y-40579780D02*
X258864824Y-40579780D01*
X247914824Y-39699780D02*
G75*
G02*
X249914824Y-37699780I2000005J-5D01*
G01*
X251505678Y-43589780D02*
G75*
G02*
X253800000Y-41749780I2294320J-510409D01*
G01*
G04 #@! TO.C,MX42*
X189435176Y-67370220D02*
X191985176Y-67370220D01*
X189435176Y-69820220D02*
X189435176Y-67370220D01*
X191985176Y-66200220D02*
X191985176Y-67370220D01*
X191985176Y-69820220D02*
X189435176Y-69820220D01*
X191985176Y-69820220D02*
X191985176Y-70250220D01*
X191985176Y-70250220D02*
X200935176Y-70250220D01*
X197050000Y-66200220D02*
X191985176Y-66200220D01*
X199344322Y-64360220D02*
X202935176Y-64360220D01*
X202935176Y-64360220D02*
X202935176Y-64800220D01*
X202935176Y-64800220D02*
X205535176Y-64800220D01*
X202935176Y-68250220D02*
X202935176Y-67250220D01*
X205535176Y-64800220D02*
X205535176Y-67250220D01*
X205535176Y-67250220D02*
X202935176Y-67250220D01*
X199344322Y-64360220D02*
G75*
G02*
X197050000Y-66200220I-2294320J510409D01*
G01*
X202935176Y-68250220D02*
G75*
G02*
X200935176Y-70250220I-2000005J5D01*
G01*
G04 #@! TO.C,MX33*
X16714824Y-59749780D02*
X19314824Y-59749780D01*
X16714824Y-62199780D02*
X16714824Y-59749780D01*
X19314824Y-58749780D02*
X19314824Y-59749780D01*
X19314824Y-62199780D02*
X16714824Y-62199780D01*
X19314824Y-62639780D02*
X19314824Y-62199780D01*
X22905678Y-62639780D02*
X19314824Y-62639780D01*
X25200000Y-60799780D02*
X30264824Y-60799780D01*
X30264824Y-56749780D02*
X21314824Y-56749780D01*
X30264824Y-57179780D02*
X30264824Y-56749780D01*
X30264824Y-57179780D02*
X32814824Y-57179780D01*
X30264824Y-60799780D02*
X30264824Y-59629780D01*
X32814824Y-57179780D02*
X32814824Y-59629780D01*
X32814824Y-59629780D02*
X30264824Y-59629780D01*
X19314824Y-58749780D02*
G75*
G02*
X21314824Y-56749780I2000005J-5D01*
G01*
X22905678Y-62639780D02*
G75*
G02*
X25200000Y-60799780I2294320J-510409D01*
G01*
G04 #@! TO.C,D2*
X51634375Y-23843750D02*
X53934375Y-23843750D01*
X51634375Y-28543750D02*
X51634375Y-23843750D01*
X51634375Y-28543750D02*
X53934375Y-28543750D01*
X53934375Y-23843750D02*
X53934375Y-28543750D01*
G04 #@! TO.C,MX34*
X35764824Y-59749780D02*
X38364824Y-59749780D01*
X35764824Y-62199780D02*
X35764824Y-59749780D01*
X38364824Y-58749780D02*
X38364824Y-59749780D01*
X38364824Y-62199780D02*
X35764824Y-62199780D01*
X38364824Y-62639780D02*
X38364824Y-62199780D01*
X41955678Y-62639780D02*
X38364824Y-62639780D01*
X44250000Y-60799780D02*
X49314824Y-60799780D01*
X49314824Y-56749780D02*
X40364824Y-56749780D01*
X49314824Y-57179780D02*
X49314824Y-56749780D01*
X49314824Y-57179780D02*
X51864824Y-57179780D01*
X49314824Y-60799780D02*
X49314824Y-59629780D01*
X51864824Y-57179780D02*
X51864824Y-59629780D01*
X51864824Y-59629780D02*
X49314824Y-59629780D01*
X38364824Y-58749780D02*
G75*
G02*
X40364824Y-56749780I2000005J-5D01*
G01*
X41955678Y-62639780D02*
G75*
G02*
X44250000Y-60799780I2294320J-510409D01*
G01*
G04 #@! TO.C,C14*
X303502636Y-55291124D02*
X304422636Y-55291124D01*
X303502636Y-57111124D02*
X303502636Y-55291124D01*
X304422636Y-55291124D02*
X304422636Y-57111124D01*
X304422636Y-57111124D02*
X303502636Y-57111124D01*
G04 #@! TO.C,D46*
X274981800Y-61943750D02*
X277281800Y-61943750D01*
X274981800Y-66643750D02*
X274981800Y-61943750D01*
X274981800Y-66643750D02*
X277281800Y-66643750D01*
X277281800Y-61943750D02*
X277281800Y-66643750D01*
G04 #@! TO.C,D25*
X188844384Y-48657784D02*
X193544384Y-48657784D01*
X188844384Y-50957784D02*
X188844384Y-48657784D01*
X193544384Y-50957784D02*
X188844384Y-50957784D01*
X193544384Y-50957784D02*
X193544384Y-48657784D01*
G04 #@! TO.C,MX87*
X164352192Y-59749780D02*
X166952192Y-59749780D01*
X164352192Y-62199780D02*
X164352192Y-59749780D01*
X166952192Y-58749780D02*
X166952192Y-59749780D01*
X166952192Y-62199780D02*
X164352192Y-62199780D01*
X166952192Y-62639780D02*
X166952192Y-62199780D01*
X170543046Y-62639780D02*
X166952192Y-62639780D01*
X172837368Y-60799780D02*
X177902192Y-60799780D01*
X177902192Y-56749780D02*
X168952192Y-56749780D01*
X177902192Y-57179780D02*
X177902192Y-56749780D01*
X177902192Y-57179780D02*
X180452192Y-57179780D01*
X177902192Y-60799780D02*
X177902192Y-59629780D01*
X180452192Y-57179780D02*
X180452192Y-59629780D01*
X180452192Y-59629780D02*
X177902192Y-59629780D01*
X166952192Y-58749780D02*
G75*
G02*
X168952192Y-56749780I2000005J-5D01*
G01*
X170543046Y-62639780D02*
G75*
G02*
X172837368Y-60799780I2294320J-510409D01*
G01*
G04 #@! TO.C,D47*
X294031784Y-61943750D02*
X296331784Y-61943750D01*
X294031784Y-66643750D02*
X294031784Y-61943750D01*
X294031784Y-66643750D02*
X296331784Y-66643750D01*
X296331784Y-61943750D02*
X296331784Y-66643750D01*
G04 #@! TO.C,J3*
X295604280Y-88092112D02*
X295604280Y-91692112D01*
X295604280Y-91692112D02*
X309354280Y-91692112D01*
X309354280Y-88092112D02*
X295604280Y-88092112D01*
X309354280Y-91692112D02*
X309354280Y-88092112D01*
G04 #@! TO.C,MX45*
X245314824Y-59749780D02*
X247914824Y-59749780D01*
X245314824Y-62199780D02*
X245314824Y-59749780D01*
X247914824Y-58749780D02*
X247914824Y-59749780D01*
X247914824Y-62199780D02*
X245314824Y-62199780D01*
X247914824Y-62639780D02*
X247914824Y-62199780D01*
X251505678Y-62639780D02*
X247914824Y-62639780D01*
X253800000Y-60799780D02*
X258864824Y-60799780D01*
X258864824Y-56749780D02*
X249914824Y-56749780D01*
X258864824Y-57179780D02*
X258864824Y-56749780D01*
X258864824Y-57179780D02*
X261414824Y-57179780D01*
X258864824Y-60799780D02*
X258864824Y-59629780D01*
X261414824Y-57179780D02*
X261414824Y-59629780D01*
X261414824Y-59629780D02*
X258864824Y-59629780D01*
X247914824Y-58749780D02*
G75*
G02*
X249914824Y-56749780I2000005J-5D01*
G01*
X251505678Y-62639780D02*
G75*
G02*
X253800000Y-60799780I2294320J-510409D01*
G01*
G04 #@! TO.C,D57*
X179731880Y-80993750D02*
X182031880Y-80993750D01*
X179731880Y-85693750D02*
X179731880Y-80993750D01*
X179731880Y-85693750D02*
X182031880Y-85693750D01*
X182031880Y-80993750D02*
X182031880Y-85693750D01*
G04 #@! TO.C,R5*
X298283656Y-71534384D02*
X299223656Y-71534384D01*
X298283656Y-73394384D02*
X298283656Y-71534384D01*
X299223656Y-71534384D02*
X299223656Y-73394384D01*
X299223656Y-73394384D02*
X298283656Y-73394384D01*
G04 #@! TO.C,MX64*
X283414824Y-78799780D02*
X286014824Y-78799780D01*
X283414824Y-81249780D02*
X283414824Y-78799780D01*
X286014824Y-77799780D02*
X286014824Y-78799780D01*
X286014824Y-81249780D02*
X283414824Y-81249780D01*
X286014824Y-81689780D02*
X286014824Y-81249780D01*
X289605678Y-81689780D02*
X286014824Y-81689780D01*
X291900000Y-79849780D02*
X296964824Y-79849780D01*
X296964824Y-75799780D02*
X288014824Y-75799780D01*
X296964824Y-76229780D02*
X296964824Y-75799780D01*
X296964824Y-76229780D02*
X299514824Y-76229780D01*
X296964824Y-79849780D02*
X296964824Y-78679780D01*
X299514824Y-76229780D02*
X299514824Y-78679780D01*
X299514824Y-78679780D02*
X296964824Y-78679780D01*
X286014824Y-77799780D02*
G75*
G02*
X288014824Y-75799780I2000005J-5D01*
G01*
X289605678Y-81689780D02*
G75*
G02*
X291900000Y-79849780I2294320J-510409D01*
G01*
G04 #@! TO.C,MX18*
X35764824Y-40699780D02*
X38364824Y-40699780D01*
X35764824Y-43149780D02*
X35764824Y-40699780D01*
X38364824Y-39699780D02*
X38364824Y-40699780D01*
X38364824Y-43149780D02*
X35764824Y-43149780D01*
X38364824Y-43589780D02*
X38364824Y-43149780D01*
X41955678Y-43589780D02*
X38364824Y-43589780D01*
X44250000Y-41749780D02*
X49314824Y-41749780D01*
X49314824Y-37699780D02*
X40364824Y-37699780D01*
X49314824Y-38129780D02*
X49314824Y-37699780D01*
X49314824Y-38129780D02*
X51864824Y-38129780D01*
X49314824Y-41749780D02*
X49314824Y-40579780D01*
X51864824Y-38129780D02*
X51864824Y-40579780D01*
X51864824Y-40579780D02*
X49314824Y-40579780D01*
X38364824Y-39699780D02*
G75*
G02*
X40364824Y-37699780I2000005J-5D01*
G01*
X41955678Y-43589780D02*
G75*
G02*
X44250000Y-41749780I2294320J-510409D01*
G01*
G04 #@! TO.C,MX63*
X264364824Y-78799780D02*
X266964824Y-78799780D01*
X264364824Y-81249780D02*
X264364824Y-78799780D01*
X266964824Y-77799780D02*
X266964824Y-78799780D01*
X266964824Y-81249780D02*
X264364824Y-81249780D01*
X266964824Y-81689780D02*
X266964824Y-81249780D01*
X270555678Y-81689780D02*
X266964824Y-81689780D01*
X272850000Y-79849780D02*
X277914824Y-79849780D01*
X277914824Y-75799780D02*
X268964824Y-75799780D01*
X277914824Y-76229780D02*
X277914824Y-75799780D01*
X277914824Y-76229780D02*
X280464824Y-76229780D01*
X277914824Y-79849780D02*
X277914824Y-78679780D01*
X280464824Y-76229780D02*
X280464824Y-78679780D01*
X280464824Y-78679780D02*
X277914824Y-78679780D01*
X266964824Y-77799780D02*
G75*
G02*
X268964824Y-75799780I2000005J-5D01*
G01*
X270555678Y-81689780D02*
G75*
G02*
X272850000Y-79849780I2294320J-510409D01*
G01*
G04 #@! TO.C,D8*
X160681896Y-23843750D02*
X162981896Y-23843750D01*
X160681896Y-28543750D02*
X160681896Y-23843750D01*
X160681896Y-28543750D02*
X162981896Y-28543750D01*
X162981896Y-23843750D02*
X162981896Y-28543750D01*
G04 #@! TO.C,C9*
X299868512Y-62431358D02*
X300519050Y-61780820D01*
X300519050Y-61780820D02*
X301805984Y-63067754D01*
X301155446Y-63718292D02*
X299868512Y-62431358D01*
X301805984Y-63067754D02*
X301155446Y-63718292D01*
G04 #@! TO.C,C15*
X306925680Y-55291124D02*
X307845680Y-55291124D01*
X306925680Y-57111124D02*
X306925680Y-55291124D01*
X307845680Y-55291124D02*
X307845680Y-57111124D01*
X307845680Y-57111124D02*
X306925680Y-57111124D01*
G04 #@! TO.C,D24*
X169794400Y-48657784D02*
X174494400Y-48657784D01*
X169794400Y-50957784D02*
X169794400Y-48657784D01*
X174494400Y-50957784D02*
X169794400Y-50957784D01*
X174494400Y-50957784D02*
X174494400Y-48657784D01*
G04 #@! TO.C,MX60*
X218010176Y-86420220D02*
X220560176Y-86420220D01*
X218010176Y-88870220D02*
X218010176Y-86420220D01*
X220560176Y-85250220D02*
X220560176Y-86420220D01*
X220560176Y-88870220D02*
X218010176Y-88870220D01*
X220560176Y-88870220D02*
X220560176Y-89300220D01*
X220560176Y-89300220D02*
X229510176Y-89300220D01*
X225625000Y-85250220D02*
X220560176Y-85250220D01*
X227919322Y-83410220D02*
X231510176Y-83410220D01*
X231510176Y-83410220D02*
X231510176Y-83850220D01*
X231510176Y-83850220D02*
X234110176Y-83850220D01*
X231510176Y-87300220D02*
X231510176Y-86300220D01*
X234110176Y-83850220D02*
X234110176Y-86300220D01*
X234110176Y-86300220D02*
X231510176Y-86300220D01*
X227919322Y-83410220D02*
G75*
G02*
X225625000Y-85250220I-2294320J510409D01*
G01*
X231510176Y-87300220D02*
G75*
G02*
X229510176Y-89300220I-2000005J5D01*
G01*
G04 #@! TO.C,MX76*
X156097552Y-48320220D02*
X158647552Y-48320220D01*
X156097552Y-50770220D02*
X156097552Y-48320220D01*
X158647552Y-47150220D02*
X158647552Y-48320220D01*
X158647552Y-50770220D02*
X156097552Y-50770220D01*
X158647552Y-50770220D02*
X158647552Y-51200220D01*
X158647552Y-51200220D02*
X167597552Y-51200220D01*
X163712376Y-47150220D02*
X158647552Y-47150220D01*
X166006698Y-45310220D02*
X169597552Y-45310220D01*
X169597552Y-45310220D02*
X169597552Y-45750220D01*
X169597552Y-45750220D02*
X172197552Y-45750220D01*
X169597552Y-49200220D02*
X169597552Y-48200220D01*
X172197552Y-45750220D02*
X172197552Y-48200220D01*
X172197552Y-48200220D02*
X169597552Y-48200220D01*
X166006698Y-45310220D02*
G75*
G02*
X163712376Y-47150220I-2294320J510409D01*
G01*
X169597552Y-49200220D02*
G75*
G02*
X167597552Y-51200220I-2000005J5D01*
G01*
G04 #@! TO.C,C6*
X301760072Y-58720432D02*
X302680072Y-58720432D01*
X301760072Y-60540432D02*
X301760072Y-58720432D01*
X302680072Y-58720432D02*
X302680072Y-60540432D01*
X302680072Y-60540432D02*
X301760072Y-60540432D01*
G04 #@! TO.C,D34*
X51029656Y-67707768D02*
X55729656Y-67707768D01*
X51029656Y-70007768D02*
X51029656Y-67707768D01*
X55729656Y-70007768D02*
X51029656Y-70007768D01*
X55729656Y-70007768D02*
X55729656Y-67707768D01*
G04 #@! TO.C,MX2*
X35764824Y-21649780D02*
X38364824Y-21649780D01*
X35764824Y-24099780D02*
X35764824Y-21649780D01*
X38364824Y-20649780D02*
X38364824Y-21649780D01*
X38364824Y-24099780D02*
X35764824Y-24099780D01*
X38364824Y-24539780D02*
X38364824Y-24099780D01*
X41955678Y-24539780D02*
X38364824Y-24539780D01*
X44250000Y-22699780D02*
X49314824Y-22699780D01*
X49314824Y-18649780D02*
X40364824Y-18649780D01*
X49314824Y-19079780D02*
X49314824Y-18649780D01*
X49314824Y-19079780D02*
X51864824Y-19079780D01*
X49314824Y-22699780D02*
X49314824Y-21529780D01*
X51864824Y-19079780D02*
X51864824Y-21529780D01*
X51864824Y-21529780D02*
X49314824Y-21529780D01*
X38364824Y-20649780D02*
G75*
G02*
X40364824Y-18649780I2000005J-5D01*
G01*
X41955678Y-24539780D02*
G75*
G02*
X44250000Y-22699780I2294320J-510409D01*
G01*
G04 #@! TO.C,MX58*
X188164824Y-78799780D02*
X190764824Y-78799780D01*
X188164824Y-81249780D02*
X188164824Y-78799780D01*
X190764824Y-77799780D02*
X190764824Y-78799780D01*
X190764824Y-81249780D02*
X188164824Y-81249780D01*
X190764824Y-81689780D02*
X190764824Y-81249780D01*
X194355678Y-81689780D02*
X190764824Y-81689780D01*
X196650000Y-79849780D02*
X201714824Y-79849780D01*
X201714824Y-75799780D02*
X192764824Y-75799780D01*
X201714824Y-76229780D02*
X201714824Y-75799780D01*
X201714824Y-76229780D02*
X204264824Y-76229780D01*
X201714824Y-79849780D02*
X201714824Y-78679780D01*
X204264824Y-76229780D02*
X204264824Y-78679780D01*
X204264824Y-78679780D02*
X201714824Y-78679780D01*
X190764824Y-77799780D02*
G75*
G02*
X192764824Y-75799780I2000005J-5D01*
G01*
X194355678Y-81689780D02*
G75*
G02*
X196650000Y-79849780I2294320J-510409D01*
G01*
G04 #@! TO.C,MX6*
X111964824Y-21649780D02*
X114564824Y-21649780D01*
X111964824Y-24099780D02*
X111964824Y-21649780D01*
X114564824Y-20649780D02*
X114564824Y-21649780D01*
X114564824Y-24099780D02*
X111964824Y-24099780D01*
X114564824Y-24539780D02*
X114564824Y-24099780D01*
X118155678Y-24539780D02*
X114564824Y-24539780D01*
X120450000Y-22699780D02*
X125514824Y-22699780D01*
X125514824Y-18649780D02*
X116564824Y-18649780D01*
X125514824Y-19079780D02*
X125514824Y-18649780D01*
X125514824Y-19079780D02*
X128064824Y-19079780D01*
X125514824Y-22699780D02*
X125514824Y-21529780D01*
X128064824Y-19079780D02*
X128064824Y-21529780D01*
X128064824Y-21529780D02*
X125514824Y-21529780D01*
X114564824Y-20649780D02*
G75*
G02*
X116564824Y-18649780I2000005J-5D01*
G01*
X118155678Y-24539780D02*
G75*
G02*
X120450000Y-22699780I2294320J-510409D01*
G01*
G04 #@! TO.C,D20*
X93594464Y-48657784D02*
X98294464Y-48657784D01*
X93594464Y-50957784D02*
X93594464Y-48657784D01*
X98294464Y-50957784D02*
X93594464Y-50957784D01*
X98294464Y-50957784D02*
X98294464Y-48657784D01*
G04 #@! TO.C,MX8*
X150064824Y-21649780D02*
X152664824Y-21649780D01*
X150064824Y-24099780D02*
X150064824Y-21649780D01*
X152664824Y-20649780D02*
X152664824Y-21649780D01*
X152664824Y-24099780D02*
X150064824Y-24099780D01*
X152664824Y-24539780D02*
X152664824Y-24099780D01*
X156255678Y-24539780D02*
X152664824Y-24539780D01*
X158550000Y-22699780D02*
X163614824Y-22699780D01*
X163614824Y-18649780D02*
X154664824Y-18649780D01*
X163614824Y-19079780D02*
X163614824Y-18649780D01*
X163614824Y-19079780D02*
X166164824Y-19079780D01*
X163614824Y-22699780D02*
X163614824Y-21529780D01*
X166164824Y-19079780D02*
X166164824Y-21529780D01*
X166164824Y-21529780D02*
X163614824Y-21529780D01*
X152664824Y-20649780D02*
G75*
G02*
X154664824Y-18649780I2000005J-5D01*
G01*
X156255678Y-24539780D02*
G75*
G02*
X158550000Y-22699780I2294320J-510409D01*
G01*
G04 #@! TO.C,MX38*
X113235176Y-67370220D02*
X115785176Y-67370220D01*
X113235176Y-69820220D02*
X113235176Y-67370220D01*
X115785176Y-66200220D02*
X115785176Y-67370220D01*
X115785176Y-69820220D02*
X113235176Y-69820220D01*
X115785176Y-69820220D02*
X115785176Y-70250220D01*
X115785176Y-70250220D02*
X124735176Y-70250220D01*
X120850000Y-66200220D02*
X115785176Y-66200220D01*
X123144322Y-64360220D02*
X126735176Y-64360220D01*
X126735176Y-64360220D02*
X126735176Y-64800220D01*
X126735176Y-64800220D02*
X129335176Y-64800220D01*
X126735176Y-68250220D02*
X126735176Y-67250220D01*
X129335176Y-64800220D02*
X129335176Y-67250220D01*
X129335176Y-67250220D02*
X126735176Y-67250220D01*
X123144322Y-64360220D02*
G75*
G02*
X120850000Y-66200220I-2294320J510409D01*
G01*
X126735176Y-68250220D02*
G75*
G02*
X124735176Y-70250220I-2000005J5D01*
G01*
G04 #@! TO.C,R9*
X304014483Y-73046301D02*
X305329701Y-71731083D01*
X304679163Y-73710981D02*
X304014483Y-73046301D01*
X305329701Y-71731083D02*
X305994381Y-72395763D01*
X305994381Y-72395763D02*
X304679163Y-73710981D01*
G04 #@! TO.C,MX79*
X219120896Y-40699780D02*
X221720896Y-40699780D01*
X219120896Y-43149780D02*
X219120896Y-40699780D01*
X221720896Y-39699780D02*
X221720896Y-40699780D01*
X221720896Y-43149780D02*
X219120896Y-43149780D01*
X221720896Y-43589780D02*
X221720896Y-43149780D01*
X225311750Y-43589781D02*
X221720896Y-43589780D01*
X227606073Y-41749780D02*
X232670896Y-41749780D01*
X232670896Y-37699780D02*
X223720896Y-37699780D01*
X232670896Y-38129781D02*
X232670896Y-37699780D01*
X232670896Y-38129781D02*
X235220896Y-38129780D01*
X232670896Y-41749780D02*
X232670896Y-40579780D01*
X235220896Y-38129780D02*
X235220896Y-40579780D01*
X235220896Y-40579780D02*
X232670896Y-40579780D01*
X221720896Y-39699780D02*
G75*
G02*
X223720896Y-37699780I2000005J-5D01*
G01*
X225311750Y-43589781D02*
G75*
G02*
X227606073Y-41749780I2294320J-510408D01*
G01*
G04 #@! TO.C,MX7*
X131014824Y-21649780D02*
X133614824Y-21649780D01*
X131014824Y-24099780D02*
X131014824Y-21649780D01*
X133614824Y-20649780D02*
X133614824Y-21649780D01*
X133614824Y-24099780D02*
X131014824Y-24099780D01*
X133614824Y-24539780D02*
X133614824Y-24099780D01*
X137205678Y-24539780D02*
X133614824Y-24539780D01*
X139500000Y-22699780D02*
X144564824Y-22699780D01*
X144564824Y-18649780D02*
X135614824Y-18649780D01*
X144564824Y-19079780D02*
X144564824Y-18649780D01*
X144564824Y-19079780D02*
X147114824Y-19079780D01*
X144564824Y-22699780D02*
X144564824Y-21529780D01*
X147114824Y-19079780D02*
X147114824Y-21529780D01*
X147114824Y-21529780D02*
X144564824Y-21529780D01*
X133614824Y-20649780D02*
G75*
G02*
X135614824Y-18649780I2000005J-5D01*
G01*
X137205678Y-24539780D02*
G75*
G02*
X139500000Y-22699780I2294320J-510409D01*
G01*
G04 #@! TO.C,MX3*
X54814824Y-21649780D02*
X57414824Y-21649780D01*
X54814824Y-24099780D02*
X54814824Y-21649780D01*
X57414824Y-20649780D02*
X57414824Y-21649780D01*
X57414824Y-24099780D02*
X54814824Y-24099780D01*
X57414824Y-24539780D02*
X57414824Y-24099780D01*
X61005678Y-24539780D02*
X57414824Y-24539780D01*
X63300000Y-22699780D02*
X68364824Y-22699780D01*
X68364824Y-18649780D02*
X59414824Y-18649780D01*
X68364824Y-19079780D02*
X68364824Y-18649780D01*
X68364824Y-19079780D02*
X70914824Y-19079780D01*
X68364824Y-22699780D02*
X68364824Y-21529780D01*
X70914824Y-19079780D02*
X70914824Y-21529780D01*
X70914824Y-21529780D02*
X68364824Y-21529780D01*
X57414824Y-20649780D02*
G75*
G02*
X59414824Y-18649780I2000005J-5D01*
G01*
X61005678Y-24539780D02*
G75*
G02*
X63300000Y-22699780I2294320J-510409D01*
G01*
G04 #@! TO.C,MX55*
X131014824Y-78799780D02*
X133614824Y-78799780D01*
X131014824Y-81249780D02*
X131014824Y-78799780D01*
X133614824Y-77799780D02*
X133614824Y-78799780D01*
X133614824Y-81249780D02*
X131014824Y-81249780D01*
X133614824Y-81689780D02*
X133614824Y-81249780D01*
X137205678Y-81689780D02*
X133614824Y-81689780D01*
X139500000Y-79849780D02*
X144564824Y-79849780D01*
X144564824Y-75799780D02*
X135614824Y-75799780D01*
X144564824Y-76229780D02*
X144564824Y-75799780D01*
X144564824Y-76229780D02*
X147114824Y-76229780D01*
X144564824Y-79849780D02*
X144564824Y-78679780D01*
X147114824Y-76229780D02*
X147114824Y-78679780D01*
X147114824Y-78679780D02*
X144564824Y-78679780D01*
X133614824Y-77799780D02*
G75*
G02*
X135614824Y-75799780I2000005J-5D01*
G01*
X137205678Y-81689780D02*
G75*
G02*
X139500000Y-79849780I2294320J-510409D01*
G01*
G04 #@! TO.C,D5*
X103531944Y-23843750D02*
X105831944Y-23843750D01*
X103531944Y-28543750D02*
X103531944Y-23843750D01*
X103531944Y-28543750D02*
X105831944Y-28543750D01*
X105831944Y-23843750D02*
X105831944Y-28543750D01*
G04 #@! TD*
M02*
