%TF.GenerationSoftware,KiCad,Pcbnew,8.0.4-1.fc39*%
%TF.CreationDate,2024-09-17T21:02:33-04:00*%
%TF.ProjectId,Q9-Chimera,51392d43-6869-46d6-9572-612e6b696361,rev?*%
%TF.SameCoordinates,Original*%
%TF.FileFunction,Drillmap*%
%TF.FilePolarity,Positive*%
%FSLAX45Y45*%
G04 Gerber Fmt 4.5, Leading zero omitted, Abs format (unit mm)*
G04 Created by KiCad (PCBNEW 8.0.4-1.fc39) date 2024-09-17 21:02:33*
%MOMM*%
%LPD*%
G01*
G04 APERTURE LIST*
%ADD10C,0.050000*%
%ADD11C,0.200000*%
%ADD12C,0.100000*%
%ADD13C,0.152400*%
%ADD14C,0.300000*%
G04 APERTURE END LIST*
D10*
X1746250Y-9207500D02*
G75*
G02*
X1587500Y-9048750I0J158750D01*
G01*
X16629062Y-9207500D02*
G75*
G02*
X17502188Y-9207500I436563J-357187D01*
G01*
X1944687Y-9207500D02*
G75*
G02*
X2817812Y-9207500I436563J-357187D01*
G01*
X32186562Y-1587500D02*
G75*
G02*
X31313437Y-1587500I-436563J623476D01*
G01*
X32186562Y-9207500D02*
X32385000Y-9207500D01*
X17502188Y-9207500D02*
X31313437Y-9207500D01*
X32543750Y-9048750D02*
G75*
G02*
X32385000Y-9207500I-158750J0D01*
G01*
X7302500Y-1587500D02*
X7024687Y-1865312D01*
X1587500Y-1944687D02*
G75*
G02*
X1666875Y-1865310I79380J-3D01*
G01*
X1587500Y-1944687D02*
X1587500Y-9048750D01*
X17502188Y-1587500D02*
G75*
G02*
X16629062Y-1587500I-436563J568939D01*
G01*
X31313437Y-9207500D02*
G75*
G02*
X32186562Y-9207500I436563J-357187D01*
G01*
X1746250Y-9207500D02*
X1944687Y-9207500D01*
X7024687Y-1865312D02*
X1666875Y-1865312D01*
X32186562Y-1587500D02*
X32385000Y-1587500D01*
X17502188Y-1587500D02*
X31313437Y-1587500D01*
X16629062Y-1587500D02*
X7302500Y-1587500D01*
X32385000Y-1587500D02*
G75*
G02*
X32543750Y-1746250I0J-158750D01*
G01*
X16629062Y-9207500D02*
X2817812Y-9207500D01*
X32543750Y-1746250D02*
X32543750Y-9048750D01*
D11*
D12*
X3298905Y-3388202D02*
X3328905Y-3418202D01*
X3328905Y-3388202D02*
X3298905Y-3418202D01*
X3298905Y-3477498D02*
X3328905Y-3507498D01*
X3328905Y-3477498D02*
X3298905Y-3507498D01*
X3537030Y-3388202D02*
X3567030Y-3418202D01*
X3567030Y-3388202D02*
X3537030Y-3418202D01*
X3537030Y-3477498D02*
X3567030Y-3507498D01*
X3567030Y-3477498D02*
X3537030Y-3507498D01*
X5536747Y-3239375D02*
X5566747Y-3269375D01*
X5566747Y-3239375D02*
X5536747Y-3269375D01*
X5541250Y-5382500D02*
X5571250Y-5412500D01*
X5571250Y-5382500D02*
X5541250Y-5412500D01*
X7168433Y-3031014D02*
X7198433Y-3061014D01*
X7198433Y-3031014D02*
X7168433Y-3061014D01*
X7227964Y-2167812D02*
X7257964Y-2197812D01*
X7257964Y-2167812D02*
X7227964Y-2197812D01*
X7451206Y-8299532D02*
X7481206Y-8329532D01*
X7481206Y-8299532D02*
X7451206Y-8329532D01*
X7724062Y-7247812D02*
X7754062Y-7277812D01*
X7754062Y-7247812D02*
X7724062Y-7277812D01*
X8373940Y-8582305D02*
X8403940Y-8612305D01*
X8403940Y-8582305D02*
X8373940Y-8612305D01*
X8418588Y-8031642D02*
X8448588Y-8061642D01*
X8448588Y-8031642D02*
X8418588Y-8061642D01*
X9113125Y-2286875D02*
X9143125Y-2316875D01*
X9143125Y-2286875D02*
X9113125Y-2316875D01*
X9132975Y-7406561D02*
X9162975Y-7436561D01*
X9162975Y-7406561D02*
X9132975Y-7436561D01*
X10085462Y-7882814D02*
X10115462Y-7912814D01*
X10115462Y-7882814D02*
X10085462Y-7912814D01*
X10621250Y-5779375D02*
X10651250Y-5809375D01*
X10651250Y-5779375D02*
X10621250Y-5809375D01*
X10978438Y-2286875D02*
X11008438Y-2316875D01*
X11008438Y-2286875D02*
X10978438Y-2316875D01*
X11097500Y-7644687D02*
X11127500Y-7674687D01*
X11127500Y-7644687D02*
X11097500Y-7674687D01*
X11930937Y-7763750D02*
X11960937Y-7793750D01*
X11960937Y-7763750D02*
X11930937Y-7793750D01*
X12565937Y-5858750D02*
X12595937Y-5888750D01*
X12595937Y-5858750D02*
X12565937Y-5888750D01*
X12645322Y-7942343D02*
X12675322Y-7972343D01*
X12675322Y-7942343D02*
X12645322Y-7972343D01*
X12883437Y-2247188D02*
X12913437Y-2277188D01*
X12913437Y-2247188D02*
X12883437Y-2277188D01*
X14103818Y-8612071D02*
X14133818Y-8642071D01*
X14133818Y-8612071D02*
X14103818Y-8642071D01*
X14470937Y-5779375D02*
X14500937Y-5809375D01*
X14500937Y-5779375D02*
X14470937Y-5809375D01*
X14748750Y-2286875D02*
X14778750Y-2316875D01*
X14778750Y-2286875D02*
X14748750Y-2316875D01*
X14828125Y-1731250D02*
X14858125Y-1761250D01*
X14858125Y-1731250D02*
X14828125Y-1761250D01*
X14867812Y-7644687D02*
X14897812Y-7674687D01*
X14897812Y-7644687D02*
X14867812Y-7674687D01*
X15041434Y-8850196D02*
X15071434Y-8880196D01*
X15071434Y-8850196D02*
X15041434Y-8880196D01*
X16653750Y-2286875D02*
X16683750Y-2316875D01*
X16683750Y-2286875D02*
X16653750Y-2316875D01*
X16812500Y-7644687D02*
X16842500Y-7674687D01*
X16842500Y-7644687D02*
X16812500Y-7674687D01*
X18598438Y-2286875D02*
X18628438Y-2316875D01*
X18628438Y-2286875D02*
X18598438Y-2316875D01*
X18677813Y-4072812D02*
X18707813Y-4102812D01*
X18707813Y-4072812D02*
X18677813Y-4102812D01*
X18836563Y-1731250D02*
X18866563Y-1761250D01*
X18866563Y-1731250D02*
X18836563Y-1761250D01*
X20622500Y-2128125D02*
X20652500Y-2158125D01*
X20652500Y-2128125D02*
X20622500Y-2158125D01*
X20622500Y-7684375D02*
X20652500Y-7714375D01*
X20652500Y-7684375D02*
X20622500Y-7714375D01*
X21773438Y-1850312D02*
X21803438Y-1880312D01*
X21803438Y-1850312D02*
X21773438Y-1880312D01*
X21842874Y-3804920D02*
X21872874Y-3834920D01*
X21872874Y-3804920D02*
X21842874Y-3834920D01*
X22527500Y-7724062D02*
X22557500Y-7754062D01*
X22557500Y-7724062D02*
X22527500Y-7754062D01*
X24313437Y-2048750D02*
X24343437Y-2078750D01*
X24343437Y-2048750D02*
X24313437Y-2078750D01*
X24313437Y-4152187D02*
X24343437Y-4182187D01*
X24343437Y-4152187D02*
X24313437Y-4182187D01*
X26139062Y-6096875D02*
X26169062Y-6126875D01*
X26169062Y-6096875D02*
X26139062Y-6126875D01*
X26218437Y-2326563D02*
X26248437Y-2356563D01*
X26248437Y-2326563D02*
X26218437Y-2356563D01*
X26258125Y-4191875D02*
X26288125Y-4221875D01*
X26288125Y-4191875D02*
X26258125Y-4221875D01*
X26297812Y-7684375D02*
X26327812Y-7714375D01*
X26327812Y-7684375D02*
X26297812Y-7714375D01*
X26337500Y-3398125D02*
X26367500Y-3428125D01*
X26367500Y-3398125D02*
X26337500Y-3428125D01*
X27131250Y-7406562D02*
X27161250Y-7436562D01*
X27161250Y-7406562D02*
X27131250Y-7436562D01*
X27845625Y-6850937D02*
X27875625Y-6880937D01*
X27875625Y-6850937D02*
X27845625Y-6880937D01*
X28123437Y-2286875D02*
X28153437Y-2316875D01*
X28153437Y-2286875D02*
X28123437Y-2316875D01*
X28123437Y-6096875D02*
X28153437Y-6126875D01*
X28153437Y-6096875D02*
X28123437Y-6126875D01*
X28163125Y-8160625D02*
X28193125Y-8190625D01*
X28193125Y-8160625D02*
X28163125Y-8190625D01*
X28202812Y-4231563D02*
X28232812Y-4261563D01*
X28232812Y-4231563D02*
X28202812Y-4261563D01*
X28202812Y-4906250D02*
X28232812Y-4936250D01*
X28232812Y-4906250D02*
X28202812Y-4936250D01*
X28837812Y-8359062D02*
X28867812Y-8389063D01*
X28867812Y-8359062D02*
X28837812Y-8389063D01*
X29194977Y-7257730D02*
X29224977Y-7287730D01*
X29224977Y-7257730D02*
X29194977Y-7287730D01*
X29552187Y-6096875D02*
X29582187Y-6126875D01*
X29582187Y-6096875D02*
X29552187Y-6126875D01*
X29666889Y-5605112D02*
X29696889Y-5635112D01*
X29696889Y-5605112D02*
X29666889Y-5635112D01*
X29666889Y-6051596D02*
X29696889Y-6081596D01*
X29696889Y-6051596D02*
X29666889Y-6081596D01*
X29710937Y-7446250D02*
X29740937Y-7476250D01*
X29740937Y-7446250D02*
X29710937Y-7476250D01*
X29733303Y-8484375D02*
X29763303Y-8514375D01*
X29763303Y-8484375D02*
X29733303Y-8514375D01*
X29746889Y-5605112D02*
X29776889Y-5635112D01*
X29776889Y-5605112D02*
X29746889Y-5635112D01*
X29746889Y-6051596D02*
X29776889Y-6081596D01*
X29776889Y-6051596D02*
X29746889Y-6081596D01*
X29826890Y-5605112D02*
X29856890Y-5635112D01*
X29856890Y-5605112D02*
X29826890Y-5635112D01*
X29826890Y-6051596D02*
X29856890Y-6081596D01*
X29856890Y-6051596D02*
X29826890Y-6081596D01*
X29830000Y-4191875D02*
X29860000Y-4221875D01*
X29860000Y-4191875D02*
X29830000Y-4221875D01*
X29830000Y-6573125D02*
X29860000Y-6603125D01*
X29860000Y-6573125D02*
X29830000Y-6603125D01*
X29860366Y-7450580D02*
X29890366Y-7480580D01*
X29890366Y-7450580D02*
X29860366Y-7480580D01*
X29890130Y-4674375D02*
X29920130Y-4704375D01*
X29920130Y-4674375D02*
X29890130Y-4704375D01*
X29906890Y-5605112D02*
X29936890Y-5635112D01*
X29936890Y-5605112D02*
X29906890Y-5635112D01*
X29906890Y-6051596D02*
X29936890Y-6081596D01*
X29936890Y-6051596D02*
X29906890Y-6081596D01*
X29968882Y-6156402D02*
X29998882Y-6186402D01*
X29998882Y-6156402D02*
X29968882Y-6186402D01*
X29974264Y-6994377D02*
X30004264Y-7024377D01*
X30004264Y-6994377D02*
X29974264Y-7024377D01*
X30030833Y-6937808D02*
X30060833Y-6967808D01*
X30060833Y-6937808D02*
X30030833Y-6967808D01*
X30087401Y-6881239D02*
X30117401Y-6911239D01*
X30117401Y-6881239D02*
X30087401Y-6911239D01*
X30094311Y-7182689D02*
X30124311Y-7212689D01*
X30124311Y-7182689D02*
X30094311Y-7212689D01*
X30150929Y-6832616D02*
X30180929Y-6862616D01*
X30180929Y-6832616D02*
X30150929Y-6862616D01*
X30154311Y-7124989D02*
X30184311Y-7154989D01*
X30184311Y-7124989D02*
X30154311Y-7154989D01*
X30207007Y-5828981D02*
X30237007Y-5858981D01*
X30237007Y-5828981D02*
X30207007Y-5858981D01*
X30221151Y-7049659D02*
X30251151Y-7079659D01*
X30251151Y-7049659D02*
X30221151Y-7079659D01*
X30284173Y-7000382D02*
X30314173Y-7030382D01*
X30314173Y-7000382D02*
X30284173Y-7030382D01*
X30381264Y-5442028D02*
X30411264Y-5472028D01*
X30411264Y-5442028D02*
X30381264Y-5472028D01*
X30385625Y-2326563D02*
X30415625Y-2356563D01*
X30415625Y-2326563D02*
X30385625Y-2356563D01*
X30485443Y-5442028D02*
X30515443Y-5472028D01*
X30515443Y-5442028D02*
X30485443Y-5472028D01*
X30485443Y-5799215D02*
X30515443Y-5829215D01*
X30515443Y-5799215D02*
X30485443Y-5829215D01*
X30582741Y-8484375D02*
X30612741Y-8514375D01*
X30612741Y-8484375D02*
X30582741Y-8514375D01*
X30618451Y-6244135D02*
X30648451Y-6274135D01*
X30648451Y-6244135D02*
X30618451Y-6274135D01*
X30618451Y-6484135D02*
X30648451Y-6514135D01*
X30648451Y-6484135D02*
X30618451Y-6514135D01*
X30658451Y-6875830D02*
X30688451Y-6905830D01*
X30688451Y-6875830D02*
X30658451Y-6905830D01*
X30723568Y-5442028D02*
X30753568Y-5472028D01*
X30753568Y-5442028D02*
X30723568Y-5472028D01*
X30738451Y-6364135D02*
X30768451Y-6394135D01*
X30768451Y-6364135D02*
X30738451Y-6394135D01*
X30765421Y-7409872D02*
X30795421Y-7439872D01*
X30795421Y-7409872D02*
X30765421Y-7439872D01*
X30783099Y-5292574D02*
X30813099Y-5322574D01*
X30813099Y-5292574D02*
X30783099Y-5322574D01*
X30793697Y-5738829D02*
X30823697Y-5768829D01*
X30823697Y-5738829D02*
X30793697Y-5768829D01*
X30800777Y-7134100D02*
X30830777Y-7164100D01*
X30830777Y-7134100D02*
X30800777Y-7164100D01*
X30827748Y-5442028D02*
X30857748Y-5472028D01*
X30857748Y-5442028D02*
X30827748Y-5472028D01*
X30847279Y-5244815D02*
X30877279Y-5274815D01*
X30877279Y-5244815D02*
X30847279Y-5274815D01*
X30858451Y-6244135D02*
X30888451Y-6274135D01*
X30888451Y-6244135D02*
X30858451Y-6274135D01*
X30858451Y-6484135D02*
X30888451Y-6514135D01*
X30888451Y-6484135D02*
X30858451Y-6514135D01*
X31070210Y-5293200D02*
X31100210Y-5323200D01*
X31100210Y-5293200D02*
X31070210Y-5323200D01*
X31219038Y-6124135D02*
X31249038Y-6154135D01*
X31249038Y-6124135D02*
X31219038Y-6154135D01*
X31338100Y-6096871D02*
X31368100Y-6126871D01*
X31368100Y-6096871D02*
X31338100Y-6126871D01*
X31457162Y-6067106D02*
X31487162Y-6097106D01*
X31487162Y-6067106D02*
X31457162Y-6097106D01*
X31457162Y-6186168D02*
X31487162Y-6216168D01*
X31487162Y-6186168D02*
X31457162Y-6216168D01*
X31695287Y-7287495D02*
X31725287Y-7317495D01*
X31725287Y-7287495D02*
X31695287Y-7317495D01*
X31695312Y-8001875D02*
X31725312Y-8031875D01*
X31725312Y-8001875D02*
X31695312Y-8031875D01*
X31699855Y-5150625D02*
X31729855Y-5180625D01*
X31729855Y-5150625D02*
X31699855Y-5180625D01*
X31814350Y-6513590D02*
X31844350Y-6543590D01*
X31844350Y-6513590D02*
X31814350Y-6543590D01*
X31844115Y-7227964D02*
X31874115Y-7257964D01*
X31874115Y-7227964D02*
X31844115Y-7257964D01*
X31992943Y-7168433D02*
X32022943Y-7198433D01*
X32022943Y-7168433D02*
X31992943Y-7198433D01*
X32012812Y-4152187D02*
X32042812Y-4182187D01*
X32042812Y-4152187D02*
X32012812Y-4182187D01*
X32082240Y-5263434D02*
X32112240Y-5293434D01*
X32112240Y-5263434D02*
X32082240Y-5293434D01*
X32141771Y-7227964D02*
X32171771Y-7257964D01*
X32171771Y-7227964D02*
X32141771Y-7257964D01*
X32290599Y-3031014D02*
X32320599Y-3061014D01*
X32320599Y-3031014D02*
X32290599Y-3061014D01*
X32290599Y-6989839D02*
X32320599Y-7019839D01*
X32320599Y-6989839D02*
X32290599Y-7019839D01*
X32290599Y-7287495D02*
X32320599Y-7317495D01*
X32320599Y-7287495D02*
X32290599Y-7317495D01*
X29895366Y-7093510D02*
G75*
G02*
X29855366Y-7093510I-20000J0D01*
G01*
X29855366Y-7093510D02*
G75*
G02*
X29895366Y-7093510I20000J0D01*
G01*
X29914586Y-5159372D02*
G75*
G02*
X29874586Y-5159372I-20000J0D01*
G01*
X29874586Y-5159372D02*
G75*
G02*
X29914586Y-5159372I20000J0D01*
G01*
X30416264Y-5858237D02*
G75*
G02*
X30376264Y-5858237I-20000J0D01*
G01*
X30376264Y-5858237D02*
G75*
G02*
X30416264Y-5858237I20000J0D01*
G01*
X30803216Y-4057418D02*
G75*
G02*
X30763216Y-4057418I-20000J0D01*
G01*
X30763216Y-4057418D02*
G75*
G02*
X30803216Y-4057418I20000J0D01*
G01*
X29740428Y-8939211D02*
X29740428Y-9039211D01*
X29690428Y-8989211D02*
X29790428Y-8989211D01*
X29994428Y-8939211D02*
X29994428Y-9039211D01*
X29944428Y-8989211D02*
X30044428Y-8989211D01*
X30248428Y-8939211D02*
X30248428Y-9039211D01*
X30198428Y-8989211D02*
X30298428Y-8989211D01*
X30502428Y-8939211D02*
X30502428Y-9039211D01*
X30452428Y-8989211D02*
X30552428Y-8989211D01*
X30756428Y-8939211D02*
X30756428Y-9039211D01*
X30706428Y-8989211D02*
X30806428Y-8989211D01*
X31341250Y-1790000D02*
X31341250Y-1890000D01*
X31291250Y-1840000D02*
X31391250Y-1840000D01*
X31341250Y-3240000D02*
X31341250Y-3340000D01*
X31291250Y-3290000D02*
X31391250Y-3290000D01*
X31341250Y-4171250D02*
X31341250Y-4271250D01*
X31291250Y-4221250D02*
X31391250Y-4221250D01*
X31341250Y-5621250D02*
X31341250Y-5721250D01*
X31291250Y-5671250D02*
X31391250Y-5671250D01*
X31591250Y-3240000D02*
X31591250Y-3340000D01*
X31541250Y-3290000D02*
X31641250Y-3290000D01*
X31591250Y-5621250D02*
X31591250Y-5721250D01*
X31541250Y-5671250D02*
X31641250Y-5671250D01*
X31841250Y-1790000D02*
X31841250Y-1890000D01*
X31791250Y-1840000D02*
X31891250Y-1840000D01*
X31841250Y-3240000D02*
X31841250Y-3340000D01*
X31791250Y-3290000D02*
X31891250Y-3290000D01*
X31841250Y-4171250D02*
X31841250Y-4271250D01*
X31791250Y-4221250D02*
X31891250Y-4221250D01*
X31841250Y-5621250D02*
X31841250Y-5721250D01*
X31791250Y-5671250D02*
X31891250Y-5671250D01*
D13*
X10912382Y-8816882D02*
X10912382Y-8709118D01*
X10804618Y-8709118D01*
X10804618Y-8816882D01*
X10912382Y-8816882D01*
X11547382Y-8562882D02*
X11547382Y-8455118D01*
X11439618Y-8455118D01*
X11439618Y-8562882D01*
X11547382Y-8562882D01*
X12817372Y-8816881D02*
X12817372Y-8709117D01*
X12709608Y-8709117D01*
X12709608Y-8816881D01*
X12817372Y-8816881D01*
X13452372Y-8562881D02*
X13452372Y-8455117D01*
X13344608Y-8455117D01*
X13344608Y-8562881D01*
X13452372Y-8562881D01*
X22342382Y-8816882D02*
X22342382Y-8709118D01*
X22234618Y-8709118D01*
X22234618Y-8816882D01*
X22342382Y-8816882D01*
X22977382Y-8562882D02*
X22977382Y-8455118D01*
X22869618Y-8455118D01*
X22869618Y-8562882D01*
X22977382Y-8562882D01*
D14*
X2159000Y-2436000D02*
X2309000Y-2286000D01*
X2159000Y-2136000D01*
X2009000Y-2286000D01*
X2159000Y-2436000D01*
X2159000Y-4341000D02*
X2309000Y-4191000D01*
X2159000Y-4041000D01*
X2009000Y-4191000D01*
X2159000Y-4341000D01*
X2159000Y-6246000D02*
X2309000Y-6096000D01*
X2159000Y-5946000D01*
X2009000Y-6096000D01*
X2159000Y-6246000D01*
X2159000Y-8151000D02*
X2309000Y-8001000D01*
X2159000Y-7851000D01*
X2009000Y-8001000D01*
X2159000Y-8151000D01*
X2524124Y-5103000D02*
X2674124Y-4953000D01*
X2524124Y-4803000D01*
X2374124Y-4953000D01*
X2524124Y-5103000D01*
X2794000Y-2182000D02*
X2944000Y-2032000D01*
X2794000Y-1882000D01*
X2644000Y-2032000D01*
X2794000Y-2182000D01*
X2794000Y-4087000D02*
X2944000Y-3937000D01*
X2794000Y-3787000D01*
X2644000Y-3937000D01*
X2794000Y-4087000D01*
X2794000Y-5992000D02*
X2944000Y-5842000D01*
X2794000Y-5692000D01*
X2644000Y-5842000D01*
X2794000Y-5992000D01*
X2794000Y-7897000D02*
X2944000Y-7747000D01*
X2794000Y-7597000D01*
X2644000Y-7747000D01*
X2794000Y-7897000D01*
X3000374Y-7008000D02*
X3150374Y-6858000D01*
X3000374Y-6708000D01*
X2850374Y-6858000D01*
X3000374Y-7008000D01*
X3159124Y-4849000D02*
X3309124Y-4699000D01*
X3159124Y-4549000D01*
X3009124Y-4699000D01*
X3159124Y-4849000D01*
X3635374Y-6754000D02*
X3785374Y-6604000D01*
X3635374Y-6454000D01*
X3485374Y-6604000D01*
X3635374Y-6754000D01*
X4064000Y-2436000D02*
X4214000Y-2286000D01*
X4064000Y-2136000D01*
X3914000Y-2286000D01*
X4064000Y-2436000D01*
X4064000Y-4341000D02*
X4214000Y-4191000D01*
X4064000Y-4041000D01*
X3914000Y-4191000D01*
X4064000Y-4341000D01*
X4064000Y-6246000D02*
X4214000Y-6096000D01*
X4064000Y-5946000D01*
X3914000Y-6096000D01*
X4064000Y-6246000D01*
X4064000Y-8151000D02*
X4214000Y-8001000D01*
X4064000Y-7851000D01*
X3914000Y-8001000D01*
X4064000Y-8151000D01*
X4667247Y-5103000D02*
X4817247Y-4953000D01*
X4667247Y-4803000D01*
X4517247Y-4953000D01*
X4667247Y-5103000D01*
X4699000Y-2182000D02*
X4849000Y-2032000D01*
X4699000Y-1882000D01*
X4549000Y-2032000D01*
X4699000Y-2182000D01*
X4699000Y-4087000D02*
X4849000Y-3937000D01*
X4699000Y-3787000D01*
X4549000Y-3937000D01*
X4699000Y-4087000D01*
X4699000Y-5992000D02*
X4849000Y-5842000D01*
X4699000Y-5692000D01*
X4549000Y-5842000D01*
X4699000Y-5992000D01*
X4699000Y-7897000D02*
X4849000Y-7747000D01*
X4699000Y-7597000D01*
X4549000Y-7747000D01*
X4699000Y-7897000D01*
X5302247Y-4849000D02*
X5452247Y-4699000D01*
X5302247Y-4549000D01*
X5152247Y-4699000D01*
X5302247Y-4849000D01*
X5492746Y-6246000D02*
X5642746Y-6096000D01*
X5492746Y-5946000D01*
X5342746Y-6096000D01*
X5492746Y-6246000D01*
X5969000Y-2436000D02*
X6119000Y-2286000D01*
X5969000Y-2136000D01*
X5819000Y-2286000D01*
X5969000Y-2436000D01*
X5969000Y-4341000D02*
X6119000Y-4191000D01*
X5969000Y-4041000D01*
X5819000Y-4191000D01*
X5969000Y-4341000D01*
X5969000Y-8151000D02*
X6119000Y-8001000D01*
X5969000Y-7851000D01*
X5819000Y-8001000D01*
X5969000Y-8151000D01*
X6096000Y-7008000D02*
X6246000Y-6858000D01*
X6096000Y-6708000D01*
X5946000Y-6858000D01*
X6096000Y-7008000D01*
X6127746Y-5992000D02*
X6277746Y-5842000D01*
X6127746Y-5692000D01*
X5977746Y-5842000D01*
X6127746Y-5992000D01*
X6572246Y-5103000D02*
X6722246Y-4953000D01*
X6572246Y-4803000D01*
X6422246Y-4953000D01*
X6572246Y-5103000D01*
X6604000Y-2182000D02*
X6754000Y-2032000D01*
X6604000Y-1882000D01*
X6454000Y-2032000D01*
X6604000Y-2182000D01*
X6604000Y-4087000D02*
X6754000Y-3937000D01*
X6604000Y-3787000D01*
X6454000Y-3937000D01*
X6604000Y-4087000D01*
X6604000Y-7897000D02*
X6754000Y-7747000D01*
X6604000Y-7597000D01*
X6454000Y-7747000D01*
X6604000Y-7897000D01*
X6731000Y-6754000D02*
X6881000Y-6604000D01*
X6731000Y-6454000D01*
X6581000Y-6604000D01*
X6731000Y-6754000D01*
X7207246Y-4849000D02*
X7357246Y-4699000D01*
X7207246Y-4549000D01*
X7057246Y-4699000D01*
X7207246Y-4849000D01*
X7397745Y-6246000D02*
X7547745Y-6096000D01*
X7397745Y-5946000D01*
X7247745Y-6096000D01*
X7397745Y-6246000D01*
X7874000Y-2436000D02*
X8024000Y-2286000D01*
X7874000Y-2136000D01*
X7724000Y-2286000D01*
X7874000Y-2436000D01*
X7874000Y-4341000D02*
X8024000Y-4191000D01*
X7874000Y-4041000D01*
X7724000Y-4191000D01*
X7874000Y-4341000D01*
X7874000Y-8151000D02*
X8024000Y-8001000D01*
X7874000Y-7851000D01*
X7724000Y-8001000D01*
X7874000Y-8151000D01*
X8001000Y-7008000D02*
X8151000Y-6858000D01*
X8001000Y-6708000D01*
X7851000Y-6858000D01*
X8001000Y-7008000D01*
X8032745Y-5992000D02*
X8182745Y-5842000D01*
X8032745Y-5692000D01*
X7882745Y-5842000D01*
X8032745Y-5992000D01*
X8477244Y-5103000D02*
X8627244Y-4953000D01*
X8477244Y-4803000D01*
X8327244Y-4953000D01*
X8477244Y-5103000D01*
X8509000Y-2182000D02*
X8659000Y-2032000D01*
X8509000Y-1882000D01*
X8359000Y-2032000D01*
X8509000Y-2182000D01*
X8509000Y-4087000D02*
X8659000Y-3937000D01*
X8509000Y-3787000D01*
X8359000Y-3937000D01*
X8509000Y-4087000D01*
X8509000Y-7897000D02*
X8659000Y-7747000D01*
X8509000Y-7597000D01*
X8359000Y-7747000D01*
X8509000Y-7897000D01*
X8636000Y-6754000D02*
X8786000Y-6604000D01*
X8636000Y-6454000D01*
X8486000Y-6604000D01*
X8636000Y-6754000D01*
X8953500Y-8913000D02*
X9103500Y-8763000D01*
X8953500Y-8613000D01*
X8803500Y-8763000D01*
X8953500Y-8913000D01*
X9112244Y-4849000D02*
X9262244Y-4699000D01*
X9112244Y-4549000D01*
X8962244Y-4699000D01*
X9112244Y-4849000D01*
X9302743Y-6246000D02*
X9452743Y-6096000D01*
X9302743Y-5946000D01*
X9152743Y-6096000D01*
X9302743Y-6246000D01*
X9588500Y-8659000D02*
X9738500Y-8509000D01*
X9588500Y-8359000D01*
X9438500Y-8509000D01*
X9588500Y-8659000D01*
X9779000Y-2436000D02*
X9929000Y-2286000D01*
X9779000Y-2136000D01*
X9629000Y-2286000D01*
X9779000Y-2436000D01*
X9779000Y-4341000D02*
X9929000Y-4191000D01*
X9779000Y-4041000D01*
X9629000Y-4191000D01*
X9779000Y-4341000D01*
X9779000Y-8151000D02*
X9929000Y-8001000D01*
X9779000Y-7851000D01*
X9629000Y-8001000D01*
X9779000Y-8151000D01*
X9906000Y-7008000D02*
X10056000Y-6858000D01*
X9906000Y-6708000D01*
X9756000Y-6858000D01*
X9906000Y-7008000D01*
X9937743Y-5992000D02*
X10087743Y-5842000D01*
X9937743Y-5692000D01*
X9787743Y-5842000D01*
X9937743Y-5992000D01*
X10382242Y-5103000D02*
X10532242Y-4953000D01*
X10382242Y-4803000D01*
X10232242Y-4953000D01*
X10382242Y-5103000D01*
X10414000Y-2182000D02*
X10564000Y-2032000D01*
X10414000Y-1882000D01*
X10264000Y-2032000D01*
X10414000Y-2182000D01*
X10414000Y-4087000D02*
X10564000Y-3937000D01*
X10414000Y-3787000D01*
X10264000Y-3937000D01*
X10414000Y-4087000D01*
X10414000Y-7897000D02*
X10564000Y-7747000D01*
X10414000Y-7597000D01*
X10264000Y-7747000D01*
X10414000Y-7897000D01*
X10541000Y-6754000D02*
X10691000Y-6604000D01*
X10541000Y-6454000D01*
X10391000Y-6604000D01*
X10541000Y-6754000D01*
X11017242Y-4849000D02*
X11167242Y-4699000D01*
X11017242Y-4549000D01*
X10867242Y-4699000D01*
X11017242Y-4849000D01*
X11207742Y-6246000D02*
X11357742Y-6096000D01*
X11207742Y-5946000D01*
X11057742Y-6096000D01*
X11207742Y-6246000D01*
X11684000Y-2436000D02*
X11834000Y-2286000D01*
X11684000Y-2136000D01*
X11534000Y-2286000D01*
X11684000Y-2436000D01*
X11684000Y-4341000D02*
X11834000Y-4191000D01*
X11684000Y-4041000D01*
X11534000Y-4191000D01*
X11684000Y-4341000D01*
X11684000Y-8151000D02*
X11834000Y-8001000D01*
X11684000Y-7851000D01*
X11534000Y-8001000D01*
X11684000Y-8151000D01*
X11811000Y-7008000D02*
X11961000Y-6858000D01*
X11811000Y-6708000D01*
X11661000Y-6858000D01*
X11811000Y-7008000D01*
X11842742Y-5992000D02*
X11992742Y-5842000D01*
X11842742Y-5692000D01*
X11692742Y-5842000D01*
X11842742Y-5992000D01*
X12287241Y-5103000D02*
X12437241Y-4953000D01*
X12287241Y-4803000D01*
X12137241Y-4953000D01*
X12287241Y-5103000D01*
X12319000Y-2182000D02*
X12469000Y-2032000D01*
X12319000Y-1882000D01*
X12169000Y-2032000D01*
X12319000Y-2182000D01*
X12319000Y-4087000D02*
X12469000Y-3937000D01*
X12319000Y-3787000D01*
X12169000Y-3937000D01*
X12319000Y-4087000D01*
X12319000Y-7897000D02*
X12469000Y-7747000D01*
X12319000Y-7597000D01*
X12169000Y-7747000D01*
X12319000Y-7897000D01*
X12446000Y-6754000D02*
X12596000Y-6604000D01*
X12446000Y-6454000D01*
X12296000Y-6604000D01*
X12446000Y-6754000D01*
X12922241Y-4849000D02*
X13072241Y-4699000D01*
X12922241Y-4549000D01*
X12772241Y-4699000D01*
X12922241Y-4849000D01*
X13112740Y-6246000D02*
X13262740Y-6096000D01*
X13112740Y-5946000D01*
X12962740Y-6096000D01*
X13112740Y-6246000D01*
X13589000Y-2436000D02*
X13739000Y-2286000D01*
X13589000Y-2136000D01*
X13439000Y-2286000D01*
X13589000Y-2436000D01*
X13589000Y-4341000D02*
X13739000Y-4191000D01*
X13589000Y-4041000D01*
X13439000Y-4191000D01*
X13589000Y-4341000D01*
X13589000Y-8151000D02*
X13739000Y-8001000D01*
X13589000Y-7851000D01*
X13439000Y-8001000D01*
X13589000Y-8151000D01*
X13716000Y-7008000D02*
X13866000Y-6858000D01*
X13716000Y-6708000D01*
X13566000Y-6858000D01*
X13716000Y-7008000D01*
X13747740Y-5992000D02*
X13897740Y-5842000D01*
X13747740Y-5692000D01*
X13597740Y-5842000D01*
X13747740Y-5992000D01*
X14192239Y-5103000D02*
X14342239Y-4953000D01*
X14192239Y-4803000D01*
X14042239Y-4953000D01*
X14192239Y-5103000D01*
X14224000Y-2182000D02*
X14374000Y-2032000D01*
X14224000Y-1882000D01*
X14074000Y-2032000D01*
X14224000Y-2182000D01*
X14224000Y-4087000D02*
X14374000Y-3937000D01*
X14224000Y-3787000D01*
X14074000Y-3937000D01*
X14224000Y-4087000D01*
X14224000Y-7897000D02*
X14374000Y-7747000D01*
X14224000Y-7597000D01*
X14074000Y-7747000D01*
X14224000Y-7897000D01*
X14351000Y-6754000D02*
X14501000Y-6604000D01*
X14351000Y-6454000D01*
X14201000Y-6604000D01*
X14351000Y-6754000D01*
X14668500Y-8913000D02*
X14818500Y-8763000D01*
X14668500Y-8613000D01*
X14518500Y-8763000D01*
X14668500Y-8913000D01*
X14827239Y-4849000D02*
X14977239Y-4699000D01*
X14827239Y-4549000D01*
X14677239Y-4699000D01*
X14827239Y-4849000D01*
X15017738Y-6246000D02*
X15167738Y-6096000D01*
X15017738Y-5946000D01*
X14867738Y-6096000D01*
X15017738Y-6246000D01*
X15303500Y-8659000D02*
X15453500Y-8509000D01*
X15303500Y-8359000D01*
X15153500Y-8509000D01*
X15303500Y-8659000D01*
X15494000Y-2436000D02*
X15644000Y-2286000D01*
X15494000Y-2136000D01*
X15344000Y-2286000D01*
X15494000Y-2436000D01*
X15494000Y-4341000D02*
X15644000Y-4191000D01*
X15494000Y-4041000D01*
X15344000Y-4191000D01*
X15494000Y-4341000D01*
X15494000Y-8151000D02*
X15644000Y-8001000D01*
X15494000Y-7851000D01*
X15344000Y-8001000D01*
X15494000Y-8151000D01*
X15621000Y-7008000D02*
X15771000Y-6858000D01*
X15621000Y-6708000D01*
X15471000Y-6858000D01*
X15621000Y-7008000D01*
X15652738Y-5992000D02*
X15802738Y-5842000D01*
X15652738Y-5692000D01*
X15502738Y-5842000D01*
X15652738Y-5992000D01*
X16097238Y-5103000D02*
X16247238Y-4953000D01*
X16097238Y-4803000D01*
X15947238Y-4953000D01*
X16097238Y-5103000D01*
X16129000Y-2182000D02*
X16279000Y-2032000D01*
X16129000Y-1882000D01*
X15979000Y-2032000D01*
X16129000Y-2182000D01*
X16129000Y-4087000D02*
X16279000Y-3937000D01*
X16129000Y-3787000D01*
X15979000Y-3937000D01*
X16129000Y-4087000D01*
X16129000Y-7897000D02*
X16279000Y-7747000D01*
X16129000Y-7597000D01*
X15979000Y-7747000D01*
X16129000Y-7897000D01*
X16256000Y-6754000D02*
X16406000Y-6604000D01*
X16256000Y-6454000D01*
X16106000Y-6604000D01*
X16256000Y-6754000D01*
X16732238Y-4849000D02*
X16882238Y-4699000D01*
X16732238Y-4549000D01*
X16582238Y-4699000D01*
X16732238Y-4849000D01*
X16922737Y-6246000D02*
X17072737Y-6096000D01*
X16922737Y-5946000D01*
X16772737Y-6096000D01*
X16922737Y-6246000D01*
X17399000Y-2436000D02*
X17549000Y-2286000D01*
X17399000Y-2136000D01*
X17249000Y-2286000D01*
X17399000Y-2436000D01*
X17399000Y-4341000D02*
X17549000Y-4191000D01*
X17399000Y-4041000D01*
X17249000Y-4191000D01*
X17399000Y-4341000D01*
X17399000Y-8151000D02*
X17549000Y-8001000D01*
X17399000Y-7851000D01*
X17249000Y-8001000D01*
X17399000Y-8151000D01*
X17526000Y-7008000D02*
X17676000Y-6858000D01*
X17526000Y-6708000D01*
X17376000Y-6858000D01*
X17526000Y-7008000D01*
X17557737Y-5992000D02*
X17707737Y-5842000D01*
X17557737Y-5692000D01*
X17407737Y-5842000D01*
X17557737Y-5992000D01*
X18002236Y-5103000D02*
X18152236Y-4953000D01*
X18002236Y-4803000D01*
X17852236Y-4953000D01*
X18002236Y-5103000D01*
X18034000Y-2182000D02*
X18184000Y-2032000D01*
X18034000Y-1882000D01*
X17884000Y-2032000D01*
X18034000Y-2182000D01*
X18034000Y-4087000D02*
X18184000Y-3937000D01*
X18034000Y-3787000D01*
X17884000Y-3937000D01*
X18034000Y-4087000D01*
X18034000Y-7897000D02*
X18184000Y-7747000D01*
X18034000Y-7597000D01*
X17884000Y-7747000D01*
X18034000Y-7897000D01*
X18161000Y-6754000D02*
X18311000Y-6604000D01*
X18161000Y-6454000D01*
X18011000Y-6604000D01*
X18161000Y-6754000D01*
X18637236Y-4849000D02*
X18787236Y-4699000D01*
X18637236Y-4549000D01*
X18487236Y-4699000D01*
X18637236Y-4849000D01*
X18827735Y-6246000D02*
X18977735Y-6096000D01*
X18827735Y-5946000D01*
X18677735Y-6096000D01*
X18827735Y-6246000D01*
X19304000Y-2436000D02*
X19454000Y-2286000D01*
X19304000Y-2136000D01*
X19154000Y-2286000D01*
X19304000Y-2436000D01*
X19304000Y-4341000D02*
X19454000Y-4191000D01*
X19304000Y-4041000D01*
X19154000Y-4191000D01*
X19304000Y-4341000D01*
X19304000Y-8151000D02*
X19454000Y-8001000D01*
X19304000Y-7851000D01*
X19154000Y-8001000D01*
X19304000Y-8151000D01*
X19431000Y-7008000D02*
X19581000Y-6858000D01*
X19431000Y-6708000D01*
X19281000Y-6858000D01*
X19431000Y-7008000D01*
X19462735Y-5992000D02*
X19612735Y-5842000D01*
X19462735Y-5692000D01*
X19312735Y-5842000D01*
X19462735Y-5992000D01*
X19907234Y-5103000D02*
X20057234Y-4953000D01*
X19907234Y-4803000D01*
X19757234Y-4953000D01*
X19907234Y-5103000D01*
X19939000Y-2182000D02*
X20089000Y-2032000D01*
X19939000Y-1882000D01*
X19789000Y-2032000D01*
X19939000Y-2182000D01*
X19939000Y-4087000D02*
X20089000Y-3937000D01*
X19939000Y-3787000D01*
X19789000Y-3937000D01*
X19939000Y-4087000D01*
X19939000Y-7897000D02*
X20089000Y-7747000D01*
X19939000Y-7597000D01*
X19789000Y-7747000D01*
X19939000Y-7897000D01*
X20066000Y-6754000D02*
X20216000Y-6604000D01*
X20066000Y-6454000D01*
X19916000Y-6604000D01*
X20066000Y-6754000D01*
X20383500Y-8913000D02*
X20533500Y-8763000D01*
X20383500Y-8613000D01*
X20233500Y-8763000D01*
X20383500Y-8913000D01*
X20542234Y-4849000D02*
X20692234Y-4699000D01*
X20542234Y-4549000D01*
X20392234Y-4699000D01*
X20542234Y-4849000D01*
X20732734Y-6246000D02*
X20882734Y-6096000D01*
X20732734Y-5946000D01*
X20582734Y-6096000D01*
X20732734Y-6246000D01*
X21018500Y-8659000D02*
X21168500Y-8509000D01*
X21018500Y-8359000D01*
X20868500Y-8509000D01*
X21018500Y-8659000D01*
X21209000Y-8151000D02*
X21359000Y-8001000D01*
X21209000Y-7851000D01*
X21059000Y-8001000D01*
X21209000Y-8151000D01*
X21336000Y-3198000D02*
X21486000Y-3048000D01*
X21336000Y-2898000D01*
X21186000Y-3048000D01*
X21336000Y-3198000D01*
X21336000Y-5103000D02*
X21486000Y-4953000D01*
X21336000Y-4803000D01*
X21186000Y-4953000D01*
X21336000Y-5103000D01*
X21336000Y-7008000D02*
X21486000Y-6858000D01*
X21336000Y-6708000D01*
X21186000Y-6858000D01*
X21336000Y-7008000D01*
X21367734Y-5992000D02*
X21517734Y-5842000D01*
X21367734Y-5692000D01*
X21217734Y-5842000D01*
X21367734Y-5992000D01*
X21844000Y-7897000D02*
X21994000Y-7747000D01*
X21844000Y-7597000D01*
X21694000Y-7747000D01*
X21844000Y-7897000D01*
X21971000Y-2944000D02*
X22121000Y-2794000D01*
X21971000Y-2644000D01*
X21821000Y-2794000D01*
X21971000Y-2944000D01*
X21971000Y-4849000D02*
X22121000Y-4699000D01*
X21971000Y-4549000D01*
X21821000Y-4699000D01*
X21971000Y-4849000D01*
X21971000Y-6754000D02*
X22121000Y-6604000D01*
X21971000Y-6454000D01*
X21821000Y-6604000D01*
X21971000Y-6754000D01*
X22161482Y-2435999D02*
X22311482Y-2285999D01*
X22161482Y-2135999D01*
X22011482Y-2285999D01*
X22161482Y-2435999D01*
X22399607Y-4341000D02*
X22549607Y-4191000D01*
X22399607Y-4041000D01*
X22249607Y-4191000D01*
X22399607Y-4341000D01*
X22796482Y-2181999D02*
X22946482Y-2031999D01*
X22796482Y-1881999D01*
X22646482Y-2031999D01*
X22796482Y-2181999D01*
X22875857Y-6246000D02*
X23025857Y-6096000D01*
X22875857Y-5946000D01*
X22725857Y-6096000D01*
X22875857Y-6246000D01*
X23034607Y-4087000D02*
X23184607Y-3937000D01*
X23034607Y-3787000D01*
X22884607Y-3937000D01*
X23034607Y-4087000D01*
X23114000Y-8151000D02*
X23264000Y-8001000D01*
X23114000Y-7851000D01*
X22964000Y-8001000D01*
X23114000Y-8151000D01*
X23241000Y-3198000D02*
X23391000Y-3048000D01*
X23241000Y-2898000D01*
X23091000Y-3048000D01*
X23241000Y-3198000D01*
X23241000Y-5103000D02*
X23391000Y-4953000D01*
X23241000Y-4803000D01*
X23091000Y-4953000D01*
X23241000Y-5103000D01*
X23241000Y-7008000D02*
X23391000Y-6858000D01*
X23241000Y-6708000D01*
X23091000Y-6858000D01*
X23241000Y-7008000D01*
X23510857Y-5992000D02*
X23660857Y-5842000D01*
X23510857Y-5692000D01*
X23360857Y-5842000D01*
X23510857Y-5992000D01*
X23749000Y-7897000D02*
X23899000Y-7747000D01*
X23749000Y-7597000D01*
X23599000Y-7747000D01*
X23749000Y-7897000D01*
X23876000Y-2944000D02*
X24026000Y-2794000D01*
X23876000Y-2644000D01*
X23726000Y-2794000D01*
X23876000Y-2944000D01*
X23876000Y-4849000D02*
X24026000Y-4699000D01*
X23876000Y-4549000D01*
X23726000Y-4699000D01*
X23876000Y-4849000D01*
X23876000Y-6754000D02*
X24026000Y-6604000D01*
X23876000Y-6454000D01*
X23726000Y-6604000D01*
X23876000Y-6754000D01*
X25019000Y-2436000D02*
X25169000Y-2286000D01*
X25019000Y-2136000D01*
X24869000Y-2286000D01*
X25019000Y-2436000D01*
X25019000Y-4341000D02*
X25169000Y-4191000D01*
X25019000Y-4041000D01*
X24869000Y-4191000D01*
X25019000Y-4341000D01*
X25019000Y-6246000D02*
X25169000Y-6096000D01*
X25019000Y-5946000D01*
X24869000Y-6096000D01*
X25019000Y-6246000D01*
X25019000Y-8151000D02*
X25169000Y-8001000D01*
X25019000Y-7851000D01*
X24869000Y-8001000D01*
X25019000Y-8151000D01*
X25654000Y-2182000D02*
X25804000Y-2032000D01*
X25654000Y-1882000D01*
X25504000Y-2032000D01*
X25654000Y-2182000D01*
X25654000Y-4087000D02*
X25804000Y-3937000D01*
X25654000Y-3787000D01*
X25504000Y-3937000D01*
X25654000Y-4087000D01*
X25654000Y-5992000D02*
X25804000Y-5842000D01*
X25654000Y-5692000D01*
X25504000Y-5842000D01*
X25654000Y-5992000D01*
X25654000Y-7897000D02*
X25804000Y-7747000D01*
X25654000Y-7597000D01*
X25504000Y-7747000D01*
X25654000Y-7897000D01*
X26098479Y-8913000D02*
X26248479Y-8763000D01*
X26098479Y-8613000D01*
X25948479Y-8763000D01*
X26098479Y-8913000D01*
X26733479Y-8659000D02*
X26883479Y-8509000D01*
X26733479Y-8359000D01*
X26583479Y-8509000D01*
X26733479Y-8659000D01*
X26924000Y-2436000D02*
X27074000Y-2286000D01*
X26924000Y-2136000D01*
X26774000Y-2286000D01*
X26924000Y-2436000D01*
X26924000Y-4341000D02*
X27074000Y-4191000D01*
X26924000Y-4041000D01*
X26774000Y-4191000D01*
X26924000Y-4341000D01*
X26924000Y-6246000D02*
X27074000Y-6096000D01*
X26924000Y-5946000D01*
X26774000Y-6096000D01*
X26924000Y-6246000D01*
X26924000Y-8151000D02*
X27074000Y-8001000D01*
X26924000Y-7851000D01*
X26774000Y-8001000D01*
X26924000Y-8151000D01*
X27559000Y-2182000D02*
X27709000Y-2032000D01*
X27559000Y-1882000D01*
X27409000Y-2032000D01*
X27559000Y-2182000D01*
X27559000Y-4087000D02*
X27709000Y-3937000D01*
X27559000Y-3787000D01*
X27409000Y-3937000D01*
X27559000Y-4087000D01*
X27559000Y-5992000D02*
X27709000Y-5842000D01*
X27559000Y-5692000D01*
X27409000Y-5842000D01*
X27559000Y-5992000D01*
X27559000Y-7897000D02*
X27709000Y-7747000D01*
X27559000Y-7597000D01*
X27409000Y-7747000D01*
X27559000Y-7897000D01*
X28829000Y-2436000D02*
X28979000Y-2286000D01*
X28829000Y-2136000D01*
X28679000Y-2286000D01*
X28829000Y-2436000D01*
X28829000Y-4341000D02*
X28979000Y-4191000D01*
X28829000Y-4041000D01*
X28679000Y-4191000D01*
X28829000Y-4341000D01*
X28829000Y-6246000D02*
X28979000Y-6096000D01*
X28829000Y-5946000D01*
X28679000Y-6096000D01*
X28829000Y-6246000D01*
X28829000Y-8151000D02*
X28979000Y-8001000D01*
X28829000Y-7851000D01*
X28679000Y-8001000D01*
X28829000Y-8151000D01*
X29464000Y-2182000D02*
X29614000Y-2032000D01*
X29464000Y-1882000D01*
X29314000Y-2032000D01*
X29464000Y-2182000D01*
X29464000Y-4087000D02*
X29614000Y-3937000D01*
X29464000Y-3787000D01*
X29314000Y-3937000D01*
X29464000Y-4087000D01*
X29464000Y-5992000D02*
X29614000Y-5842000D01*
X29464000Y-5692000D01*
X29314000Y-5842000D01*
X29464000Y-5992000D01*
X29464000Y-7897000D02*
X29614000Y-7747000D01*
X29464000Y-7597000D01*
X29314000Y-7747000D01*
X29464000Y-7897000D01*
X30734000Y-8151000D02*
X30884000Y-8001000D01*
X30734000Y-7851000D01*
X30584000Y-8001000D01*
X30734000Y-8151000D01*
X31210250Y-2436000D02*
X31360250Y-2286000D01*
X31210250Y-2136000D01*
X31060250Y-2286000D01*
X31210250Y-2436000D01*
X31210250Y-4817250D02*
X31360250Y-4667250D01*
X31210250Y-4517250D01*
X31060250Y-4667250D01*
X31210250Y-4817250D01*
X31369000Y-7897000D02*
X31519000Y-7747000D01*
X31369000Y-7597000D01*
X31219000Y-7747000D01*
X31369000Y-7897000D01*
X31845250Y-2182000D02*
X31995250Y-2032000D01*
X31845250Y-1882000D01*
X31695250Y-2032000D01*
X31845250Y-2182000D01*
X31845250Y-4563250D02*
X31995250Y-4413250D01*
X31845250Y-4263250D01*
X31695250Y-4413250D01*
X31845250Y-4563250D01*
D11*
X1845777Y-9521484D02*
X1845777Y-9321484D01*
X1845777Y-9321484D02*
X1893396Y-9321484D01*
X1893396Y-9321484D02*
X1921967Y-9331008D01*
X1921967Y-9331008D02*
X1941015Y-9350055D01*
X1941015Y-9350055D02*
X1950539Y-9369103D01*
X1950539Y-9369103D02*
X1960062Y-9407198D01*
X1960062Y-9407198D02*
X1960062Y-9435770D01*
X1960062Y-9435770D02*
X1950539Y-9473865D01*
X1950539Y-9473865D02*
X1941015Y-9492912D01*
X1941015Y-9492912D02*
X1921967Y-9511960D01*
X1921967Y-9511960D02*
X1893396Y-9521484D01*
X1893396Y-9521484D02*
X1845777Y-9521484D01*
X2045777Y-9521484D02*
X2045777Y-9388150D01*
X2045777Y-9426246D02*
X2055301Y-9407198D01*
X2055301Y-9407198D02*
X2064824Y-9397674D01*
X2064824Y-9397674D02*
X2083872Y-9388150D01*
X2083872Y-9388150D02*
X2102920Y-9388150D01*
X2169586Y-9521484D02*
X2169586Y-9388150D01*
X2169586Y-9321484D02*
X2160063Y-9331008D01*
X2160063Y-9331008D02*
X2169586Y-9340531D01*
X2169586Y-9340531D02*
X2179110Y-9331008D01*
X2179110Y-9331008D02*
X2169586Y-9321484D01*
X2169586Y-9321484D02*
X2169586Y-9340531D01*
X2293396Y-9521484D02*
X2274348Y-9511960D01*
X2274348Y-9511960D02*
X2264824Y-9492912D01*
X2264824Y-9492912D02*
X2264824Y-9321484D01*
X2398158Y-9521484D02*
X2379110Y-9511960D01*
X2379110Y-9511960D02*
X2369586Y-9492912D01*
X2369586Y-9492912D02*
X2369586Y-9321484D01*
X2626729Y-9521484D02*
X2626729Y-9321484D01*
X2626729Y-9321484D02*
X2693396Y-9464341D01*
X2693396Y-9464341D02*
X2760063Y-9321484D01*
X2760063Y-9321484D02*
X2760063Y-9521484D01*
X2941015Y-9521484D02*
X2941015Y-9416722D01*
X2941015Y-9416722D02*
X2931491Y-9397674D01*
X2931491Y-9397674D02*
X2912443Y-9388150D01*
X2912443Y-9388150D02*
X2874348Y-9388150D01*
X2874348Y-9388150D02*
X2855301Y-9397674D01*
X2941015Y-9511960D02*
X2921967Y-9521484D01*
X2921967Y-9521484D02*
X2874348Y-9521484D01*
X2874348Y-9521484D02*
X2855301Y-9511960D01*
X2855301Y-9511960D02*
X2845777Y-9492912D01*
X2845777Y-9492912D02*
X2845777Y-9473865D01*
X2845777Y-9473865D02*
X2855301Y-9454817D01*
X2855301Y-9454817D02*
X2874348Y-9445293D01*
X2874348Y-9445293D02*
X2921967Y-9445293D01*
X2921967Y-9445293D02*
X2941015Y-9435770D01*
X3036253Y-9388150D02*
X3036253Y-9588150D01*
X3036253Y-9397674D02*
X3055301Y-9388150D01*
X3055301Y-9388150D02*
X3093396Y-9388150D01*
X3093396Y-9388150D02*
X3112443Y-9397674D01*
X3112443Y-9397674D02*
X3121967Y-9407198D01*
X3121967Y-9407198D02*
X3131491Y-9426246D01*
X3131491Y-9426246D02*
X3131491Y-9483389D01*
X3131491Y-9483389D02*
X3121967Y-9502436D01*
X3121967Y-9502436D02*
X3112443Y-9511960D01*
X3112443Y-9511960D02*
X3093396Y-9521484D01*
X3093396Y-9521484D02*
X3055301Y-9521484D01*
X3055301Y-9521484D02*
X3036253Y-9511960D01*
X3217205Y-9502436D02*
X3226729Y-9511960D01*
X3226729Y-9511960D02*
X3217205Y-9521484D01*
X3217205Y-9521484D02*
X3207682Y-9511960D01*
X3207682Y-9511960D02*
X3217205Y-9502436D01*
X3217205Y-9502436D02*
X3217205Y-9521484D01*
X3217205Y-9397674D02*
X3226729Y-9407198D01*
X3226729Y-9407198D02*
X3217205Y-9416722D01*
X3217205Y-9416722D02*
X3207682Y-9407198D01*
X3207682Y-9407198D02*
X3217205Y-9397674D01*
X3217205Y-9397674D02*
X3217205Y-9416722D01*
D12*
X1555000Y-9835000D02*
X1585000Y-9865000D01*
X1585000Y-9835000D02*
X1555000Y-9865000D01*
D11*
X1883872Y-9741484D02*
X1902920Y-9741484D01*
X1902920Y-9741484D02*
X1921967Y-9751008D01*
X1921967Y-9751008D02*
X1931491Y-9760531D01*
X1931491Y-9760531D02*
X1941015Y-9779579D01*
X1941015Y-9779579D02*
X1950539Y-9817674D01*
X1950539Y-9817674D02*
X1950539Y-9865293D01*
X1950539Y-9865293D02*
X1941015Y-9903389D01*
X1941015Y-9903389D02*
X1931491Y-9922436D01*
X1931491Y-9922436D02*
X1921967Y-9931960D01*
X1921967Y-9931960D02*
X1902920Y-9941484D01*
X1902920Y-9941484D02*
X1883872Y-9941484D01*
X1883872Y-9941484D02*
X1864824Y-9931960D01*
X1864824Y-9931960D02*
X1855301Y-9922436D01*
X1855301Y-9922436D02*
X1845777Y-9903389D01*
X1845777Y-9903389D02*
X1836253Y-9865293D01*
X1836253Y-9865293D02*
X1836253Y-9817674D01*
X1836253Y-9817674D02*
X1845777Y-9779579D01*
X1845777Y-9779579D02*
X1855301Y-9760531D01*
X1855301Y-9760531D02*
X1864824Y-9751008D01*
X1864824Y-9751008D02*
X1883872Y-9741484D01*
X2036253Y-9922436D02*
X2045777Y-9931960D01*
X2045777Y-9931960D02*
X2036253Y-9941484D01*
X2036253Y-9941484D02*
X2026729Y-9931960D01*
X2026729Y-9931960D02*
X2036253Y-9922436D01*
X2036253Y-9922436D02*
X2036253Y-9941484D01*
X2112444Y-9741484D02*
X2236253Y-9741484D01*
X2236253Y-9741484D02*
X2169586Y-9817674D01*
X2169586Y-9817674D02*
X2198158Y-9817674D01*
X2198158Y-9817674D02*
X2217205Y-9827198D01*
X2217205Y-9827198D02*
X2226729Y-9836722D01*
X2226729Y-9836722D02*
X2236253Y-9855770D01*
X2236253Y-9855770D02*
X2236253Y-9903389D01*
X2236253Y-9903389D02*
X2226729Y-9922436D01*
X2226729Y-9922436D02*
X2217205Y-9931960D01*
X2217205Y-9931960D02*
X2198158Y-9941484D01*
X2198158Y-9941484D02*
X2141015Y-9941484D01*
X2141015Y-9941484D02*
X2121967Y-9931960D01*
X2121967Y-9931960D02*
X2112444Y-9922436D01*
X2360063Y-9741484D02*
X2379110Y-9741484D01*
X2379110Y-9741484D02*
X2398158Y-9751008D01*
X2398158Y-9751008D02*
X2407682Y-9760531D01*
X2407682Y-9760531D02*
X2417205Y-9779579D01*
X2417205Y-9779579D02*
X2426729Y-9817674D01*
X2426729Y-9817674D02*
X2426729Y-9865293D01*
X2426729Y-9865293D02*
X2417205Y-9903389D01*
X2417205Y-9903389D02*
X2407682Y-9922436D01*
X2407682Y-9922436D02*
X2398158Y-9931960D01*
X2398158Y-9931960D02*
X2379110Y-9941484D01*
X2379110Y-9941484D02*
X2360063Y-9941484D01*
X2360063Y-9941484D02*
X2341015Y-9931960D01*
X2341015Y-9931960D02*
X2331491Y-9922436D01*
X2331491Y-9922436D02*
X2321967Y-9903389D01*
X2321967Y-9903389D02*
X2312444Y-9865293D01*
X2312444Y-9865293D02*
X2312444Y-9817674D01*
X2312444Y-9817674D02*
X2321967Y-9779579D01*
X2321967Y-9779579D02*
X2331491Y-9760531D01*
X2331491Y-9760531D02*
X2341015Y-9751008D01*
X2341015Y-9751008D02*
X2360063Y-9741484D01*
X2550539Y-9741484D02*
X2569586Y-9741484D01*
X2569586Y-9741484D02*
X2588634Y-9751008D01*
X2588634Y-9751008D02*
X2598158Y-9760531D01*
X2598158Y-9760531D02*
X2607682Y-9779579D01*
X2607682Y-9779579D02*
X2617205Y-9817674D01*
X2617205Y-9817674D02*
X2617205Y-9865293D01*
X2617205Y-9865293D02*
X2607682Y-9903389D01*
X2607682Y-9903389D02*
X2598158Y-9922436D01*
X2598158Y-9922436D02*
X2588634Y-9931960D01*
X2588634Y-9931960D02*
X2569586Y-9941484D01*
X2569586Y-9941484D02*
X2550539Y-9941484D01*
X2550539Y-9941484D02*
X2531491Y-9931960D01*
X2531491Y-9931960D02*
X2521967Y-9922436D01*
X2521967Y-9922436D02*
X2512444Y-9903389D01*
X2512444Y-9903389D02*
X2502920Y-9865293D01*
X2502920Y-9865293D02*
X2502920Y-9817674D01*
X2502920Y-9817674D02*
X2512444Y-9779579D01*
X2512444Y-9779579D02*
X2521967Y-9760531D01*
X2521967Y-9760531D02*
X2531491Y-9751008D01*
X2531491Y-9751008D02*
X2550539Y-9741484D01*
X2702920Y-9941484D02*
X2702920Y-9808150D01*
X2702920Y-9827198D02*
X2712444Y-9817674D01*
X2712444Y-9817674D02*
X2731491Y-9808150D01*
X2731491Y-9808150D02*
X2760063Y-9808150D01*
X2760063Y-9808150D02*
X2779110Y-9817674D01*
X2779110Y-9817674D02*
X2788634Y-9836722D01*
X2788634Y-9836722D02*
X2788634Y-9941484D01*
X2788634Y-9836722D02*
X2798158Y-9817674D01*
X2798158Y-9817674D02*
X2817205Y-9808150D01*
X2817205Y-9808150D02*
X2845777Y-9808150D01*
X2845777Y-9808150D02*
X2864824Y-9817674D01*
X2864824Y-9817674D02*
X2874348Y-9836722D01*
X2874348Y-9836722D02*
X2874348Y-9941484D01*
X2969586Y-9941484D02*
X2969586Y-9808150D01*
X2969586Y-9827198D02*
X2979110Y-9817674D01*
X2979110Y-9817674D02*
X2998158Y-9808150D01*
X2998158Y-9808150D02*
X3026729Y-9808150D01*
X3026729Y-9808150D02*
X3045777Y-9817674D01*
X3045777Y-9817674D02*
X3055301Y-9836722D01*
X3055301Y-9836722D02*
X3055301Y-9941484D01*
X3055301Y-9836722D02*
X3064824Y-9817674D01*
X3064824Y-9817674D02*
X3083872Y-9808150D01*
X3083872Y-9808150D02*
X3112443Y-9808150D01*
X3112443Y-9808150D02*
X3131491Y-9817674D01*
X3131491Y-9817674D02*
X3141015Y-9836722D01*
X3141015Y-9836722D02*
X3141015Y-9941484D01*
X3531491Y-9731960D02*
X3360063Y-9989103D01*
X3788634Y-9741484D02*
X3807682Y-9741484D01*
X3807682Y-9741484D02*
X3826729Y-9751008D01*
X3826729Y-9751008D02*
X3836253Y-9760531D01*
X3836253Y-9760531D02*
X3845777Y-9779579D01*
X3845777Y-9779579D02*
X3855301Y-9817674D01*
X3855301Y-9817674D02*
X3855301Y-9865293D01*
X3855301Y-9865293D02*
X3845777Y-9903389D01*
X3845777Y-9903389D02*
X3836253Y-9922436D01*
X3836253Y-9922436D02*
X3826729Y-9931960D01*
X3826729Y-9931960D02*
X3807682Y-9941484D01*
X3807682Y-9941484D02*
X3788634Y-9941484D01*
X3788634Y-9941484D02*
X3769586Y-9931960D01*
X3769586Y-9931960D02*
X3760063Y-9922436D01*
X3760063Y-9922436D02*
X3750539Y-9903389D01*
X3750539Y-9903389D02*
X3741015Y-9865293D01*
X3741015Y-9865293D02*
X3741015Y-9817674D01*
X3741015Y-9817674D02*
X3750539Y-9779579D01*
X3750539Y-9779579D02*
X3760063Y-9760531D01*
X3760063Y-9760531D02*
X3769586Y-9751008D01*
X3769586Y-9751008D02*
X3788634Y-9741484D01*
X3941015Y-9922436D02*
X3950539Y-9931960D01*
X3950539Y-9931960D02*
X3941015Y-9941484D01*
X3941015Y-9941484D02*
X3931491Y-9931960D01*
X3931491Y-9931960D02*
X3941015Y-9922436D01*
X3941015Y-9922436D02*
X3941015Y-9941484D01*
X4074348Y-9741484D02*
X4093396Y-9741484D01*
X4093396Y-9741484D02*
X4112444Y-9751008D01*
X4112444Y-9751008D02*
X4121967Y-9760531D01*
X4121967Y-9760531D02*
X4131491Y-9779579D01*
X4131491Y-9779579D02*
X4141015Y-9817674D01*
X4141015Y-9817674D02*
X4141015Y-9865293D01*
X4141015Y-9865293D02*
X4131491Y-9903389D01*
X4131491Y-9903389D02*
X4121967Y-9922436D01*
X4121967Y-9922436D02*
X4112444Y-9931960D01*
X4112444Y-9931960D02*
X4093396Y-9941484D01*
X4093396Y-9941484D02*
X4074348Y-9941484D01*
X4074348Y-9941484D02*
X4055301Y-9931960D01*
X4055301Y-9931960D02*
X4045777Y-9922436D01*
X4045777Y-9922436D02*
X4036253Y-9903389D01*
X4036253Y-9903389D02*
X4026729Y-9865293D01*
X4026729Y-9865293D02*
X4026729Y-9817674D01*
X4026729Y-9817674D02*
X4036253Y-9779579D01*
X4036253Y-9779579D02*
X4045777Y-9760531D01*
X4045777Y-9760531D02*
X4055301Y-9751008D01*
X4055301Y-9751008D02*
X4074348Y-9741484D01*
X4331491Y-9941484D02*
X4217206Y-9941484D01*
X4274348Y-9941484D02*
X4274348Y-9741484D01*
X4274348Y-9741484D02*
X4255301Y-9770055D01*
X4255301Y-9770055D02*
X4236253Y-9789103D01*
X4236253Y-9789103D02*
X4217206Y-9798627D01*
X4521968Y-9941484D02*
X4407682Y-9941484D01*
X4464825Y-9941484D02*
X4464825Y-9741484D01*
X4464825Y-9741484D02*
X4445777Y-9770055D01*
X4445777Y-9770055D02*
X4426729Y-9789103D01*
X4426729Y-9789103D02*
X4407682Y-9798627D01*
X4636253Y-9827198D02*
X4617206Y-9817674D01*
X4617206Y-9817674D02*
X4607682Y-9808150D01*
X4607682Y-9808150D02*
X4598158Y-9789103D01*
X4598158Y-9789103D02*
X4598158Y-9779579D01*
X4598158Y-9779579D02*
X4607682Y-9760531D01*
X4607682Y-9760531D02*
X4617206Y-9751008D01*
X4617206Y-9751008D02*
X4636253Y-9741484D01*
X4636253Y-9741484D02*
X4674349Y-9741484D01*
X4674349Y-9741484D02*
X4693396Y-9751008D01*
X4693396Y-9751008D02*
X4702920Y-9760531D01*
X4702920Y-9760531D02*
X4712444Y-9779579D01*
X4712444Y-9779579D02*
X4712444Y-9789103D01*
X4712444Y-9789103D02*
X4702920Y-9808150D01*
X4702920Y-9808150D02*
X4693396Y-9817674D01*
X4693396Y-9817674D02*
X4674349Y-9827198D01*
X4674349Y-9827198D02*
X4636253Y-9827198D01*
X4636253Y-9827198D02*
X4617206Y-9836722D01*
X4617206Y-9836722D02*
X4607682Y-9846246D01*
X4607682Y-9846246D02*
X4598158Y-9865293D01*
X4598158Y-9865293D02*
X4598158Y-9903389D01*
X4598158Y-9903389D02*
X4607682Y-9922436D01*
X4607682Y-9922436D02*
X4617206Y-9931960D01*
X4617206Y-9931960D02*
X4636253Y-9941484D01*
X4636253Y-9941484D02*
X4674349Y-9941484D01*
X4674349Y-9941484D02*
X4693396Y-9931960D01*
X4693396Y-9931960D02*
X4702920Y-9922436D01*
X4702920Y-9922436D02*
X4712444Y-9903389D01*
X4712444Y-9903389D02*
X4712444Y-9865293D01*
X4712444Y-9865293D02*
X4702920Y-9846246D01*
X4702920Y-9846246D02*
X4693396Y-9836722D01*
X4693396Y-9836722D02*
X4674349Y-9827198D01*
X4788634Y-9741484D02*
X4788634Y-9779579D01*
X4864825Y-9741484D02*
X4864825Y-9779579D01*
X5160063Y-10017674D02*
X5150539Y-10008150D01*
X5150539Y-10008150D02*
X5131491Y-9979579D01*
X5131491Y-9979579D02*
X5121968Y-9960531D01*
X5121968Y-9960531D02*
X5112444Y-9931960D01*
X5112444Y-9931960D02*
X5102920Y-9884341D01*
X5102920Y-9884341D02*
X5102920Y-9846246D01*
X5102920Y-9846246D02*
X5112444Y-9798627D01*
X5112444Y-9798627D02*
X5121968Y-9770055D01*
X5121968Y-9770055D02*
X5131491Y-9751008D01*
X5131491Y-9751008D02*
X5150539Y-9722436D01*
X5150539Y-9722436D02*
X5160063Y-9712912D01*
X5341015Y-9941484D02*
X5226730Y-9941484D01*
X5283872Y-9941484D02*
X5283872Y-9741484D01*
X5283872Y-9741484D02*
X5264825Y-9770055D01*
X5264825Y-9770055D02*
X5245777Y-9789103D01*
X5245777Y-9789103D02*
X5226730Y-9798627D01*
X5531491Y-9941484D02*
X5417206Y-9941484D01*
X5474349Y-9941484D02*
X5474349Y-9741484D01*
X5474349Y-9741484D02*
X5455301Y-9770055D01*
X5455301Y-9770055D02*
X5436253Y-9789103D01*
X5436253Y-9789103D02*
X5417206Y-9798627D01*
X5702920Y-9808150D02*
X5702920Y-9941484D01*
X5655301Y-9731960D02*
X5607682Y-9874817D01*
X5607682Y-9874817D02*
X5731491Y-9874817D01*
X5960063Y-9941484D02*
X5960063Y-9741484D01*
X6045777Y-9941484D02*
X6045777Y-9836722D01*
X6045777Y-9836722D02*
X6036253Y-9817674D01*
X6036253Y-9817674D02*
X6017206Y-9808150D01*
X6017206Y-9808150D02*
X5988634Y-9808150D01*
X5988634Y-9808150D02*
X5969587Y-9817674D01*
X5969587Y-9817674D02*
X5960063Y-9827198D01*
X6169587Y-9941484D02*
X6150539Y-9931960D01*
X6150539Y-9931960D02*
X6141015Y-9922436D01*
X6141015Y-9922436D02*
X6131491Y-9903389D01*
X6131491Y-9903389D02*
X6131491Y-9846246D01*
X6131491Y-9846246D02*
X6141015Y-9827198D01*
X6141015Y-9827198D02*
X6150539Y-9817674D01*
X6150539Y-9817674D02*
X6169587Y-9808150D01*
X6169587Y-9808150D02*
X6198158Y-9808150D01*
X6198158Y-9808150D02*
X6217206Y-9817674D01*
X6217206Y-9817674D02*
X6226730Y-9827198D01*
X6226730Y-9827198D02*
X6236253Y-9846246D01*
X6236253Y-9846246D02*
X6236253Y-9903389D01*
X6236253Y-9903389D02*
X6226730Y-9922436D01*
X6226730Y-9922436D02*
X6217206Y-9931960D01*
X6217206Y-9931960D02*
X6198158Y-9941484D01*
X6198158Y-9941484D02*
X6169587Y-9941484D01*
X6350539Y-9941484D02*
X6331491Y-9931960D01*
X6331491Y-9931960D02*
X6321968Y-9912912D01*
X6321968Y-9912912D02*
X6321968Y-9741484D01*
X6502920Y-9931960D02*
X6483872Y-9941484D01*
X6483872Y-9941484D02*
X6445777Y-9941484D01*
X6445777Y-9941484D02*
X6426730Y-9931960D01*
X6426730Y-9931960D02*
X6417206Y-9912912D01*
X6417206Y-9912912D02*
X6417206Y-9836722D01*
X6417206Y-9836722D02*
X6426730Y-9817674D01*
X6426730Y-9817674D02*
X6445777Y-9808150D01*
X6445777Y-9808150D02*
X6483872Y-9808150D01*
X6483872Y-9808150D02*
X6502920Y-9817674D01*
X6502920Y-9817674D02*
X6512444Y-9836722D01*
X6512444Y-9836722D02*
X6512444Y-9855770D01*
X6512444Y-9855770D02*
X6417206Y-9874817D01*
X6588634Y-9931960D02*
X6607682Y-9941484D01*
X6607682Y-9941484D02*
X6645777Y-9941484D01*
X6645777Y-9941484D02*
X6664825Y-9931960D01*
X6664825Y-9931960D02*
X6674349Y-9912912D01*
X6674349Y-9912912D02*
X6674349Y-9903389D01*
X6674349Y-9903389D02*
X6664825Y-9884341D01*
X6664825Y-9884341D02*
X6645777Y-9874817D01*
X6645777Y-9874817D02*
X6617206Y-9874817D01*
X6617206Y-9874817D02*
X6598158Y-9865293D01*
X6598158Y-9865293D02*
X6588634Y-9846246D01*
X6588634Y-9846246D02*
X6588634Y-9836722D01*
X6588634Y-9836722D02*
X6598158Y-9817674D01*
X6598158Y-9817674D02*
X6617206Y-9808150D01*
X6617206Y-9808150D02*
X6645777Y-9808150D01*
X6645777Y-9808150D02*
X6664825Y-9817674D01*
X6741015Y-10017674D02*
X6750539Y-10008150D01*
X6750539Y-10008150D02*
X6769587Y-9979579D01*
X6769587Y-9979579D02*
X6779111Y-9960531D01*
X6779111Y-9960531D02*
X6788634Y-9931960D01*
X6788634Y-9931960D02*
X6798158Y-9884341D01*
X6798158Y-9884341D02*
X6798158Y-9846246D01*
X6798158Y-9846246D02*
X6788634Y-9798627D01*
X6788634Y-9798627D02*
X6779111Y-9770055D01*
X6779111Y-9770055D02*
X6769587Y-9751008D01*
X6769587Y-9751008D02*
X6750539Y-9722436D01*
X6750539Y-9722436D02*
X6741015Y-9712912D01*
D12*
X1585000Y-10114000D02*
G75*
G02*
X1545000Y-10114000I-20000J0D01*
G01*
X1545000Y-10114000D02*
G75*
G02*
X1585000Y-10114000I20000J0D01*
G01*
D11*
X1883872Y-10005484D02*
X1902920Y-10005484D01*
X1902920Y-10005484D02*
X1921967Y-10015008D01*
X1921967Y-10015008D02*
X1931491Y-10024531D01*
X1931491Y-10024531D02*
X1941015Y-10043579D01*
X1941015Y-10043579D02*
X1950539Y-10081674D01*
X1950539Y-10081674D02*
X1950539Y-10129293D01*
X1950539Y-10129293D02*
X1941015Y-10167389D01*
X1941015Y-10167389D02*
X1931491Y-10186436D01*
X1931491Y-10186436D02*
X1921967Y-10195960D01*
X1921967Y-10195960D02*
X1902920Y-10205484D01*
X1902920Y-10205484D02*
X1883872Y-10205484D01*
X1883872Y-10205484D02*
X1864824Y-10195960D01*
X1864824Y-10195960D02*
X1855301Y-10186436D01*
X1855301Y-10186436D02*
X1845777Y-10167389D01*
X1845777Y-10167389D02*
X1836253Y-10129293D01*
X1836253Y-10129293D02*
X1836253Y-10081674D01*
X1836253Y-10081674D02*
X1845777Y-10043579D01*
X1845777Y-10043579D02*
X1855301Y-10024531D01*
X1855301Y-10024531D02*
X1864824Y-10015008D01*
X1864824Y-10015008D02*
X1883872Y-10005484D01*
X2036253Y-10186436D02*
X2045777Y-10195960D01*
X2045777Y-10195960D02*
X2036253Y-10205484D01*
X2036253Y-10205484D02*
X2026729Y-10195960D01*
X2026729Y-10195960D02*
X2036253Y-10186436D01*
X2036253Y-10186436D02*
X2036253Y-10205484D01*
X2217205Y-10072150D02*
X2217205Y-10205484D01*
X2169586Y-9995960D02*
X2121967Y-10138817D01*
X2121967Y-10138817D02*
X2245777Y-10138817D01*
X2360063Y-10005484D02*
X2379110Y-10005484D01*
X2379110Y-10005484D02*
X2398158Y-10015008D01*
X2398158Y-10015008D02*
X2407682Y-10024531D01*
X2407682Y-10024531D02*
X2417205Y-10043579D01*
X2417205Y-10043579D02*
X2426729Y-10081674D01*
X2426729Y-10081674D02*
X2426729Y-10129293D01*
X2426729Y-10129293D02*
X2417205Y-10167389D01*
X2417205Y-10167389D02*
X2407682Y-10186436D01*
X2407682Y-10186436D02*
X2398158Y-10195960D01*
X2398158Y-10195960D02*
X2379110Y-10205484D01*
X2379110Y-10205484D02*
X2360063Y-10205484D01*
X2360063Y-10205484D02*
X2341015Y-10195960D01*
X2341015Y-10195960D02*
X2331491Y-10186436D01*
X2331491Y-10186436D02*
X2321967Y-10167389D01*
X2321967Y-10167389D02*
X2312444Y-10129293D01*
X2312444Y-10129293D02*
X2312444Y-10081674D01*
X2312444Y-10081674D02*
X2321967Y-10043579D01*
X2321967Y-10043579D02*
X2331491Y-10024531D01*
X2331491Y-10024531D02*
X2341015Y-10015008D01*
X2341015Y-10015008D02*
X2360063Y-10005484D01*
X2550539Y-10005484D02*
X2569586Y-10005484D01*
X2569586Y-10005484D02*
X2588634Y-10015008D01*
X2588634Y-10015008D02*
X2598158Y-10024531D01*
X2598158Y-10024531D02*
X2607682Y-10043579D01*
X2607682Y-10043579D02*
X2617205Y-10081674D01*
X2617205Y-10081674D02*
X2617205Y-10129293D01*
X2617205Y-10129293D02*
X2607682Y-10167389D01*
X2607682Y-10167389D02*
X2598158Y-10186436D01*
X2598158Y-10186436D02*
X2588634Y-10195960D01*
X2588634Y-10195960D02*
X2569586Y-10205484D01*
X2569586Y-10205484D02*
X2550539Y-10205484D01*
X2550539Y-10205484D02*
X2531491Y-10195960D01*
X2531491Y-10195960D02*
X2521967Y-10186436D01*
X2521967Y-10186436D02*
X2512444Y-10167389D01*
X2512444Y-10167389D02*
X2502920Y-10129293D01*
X2502920Y-10129293D02*
X2502920Y-10081674D01*
X2502920Y-10081674D02*
X2512444Y-10043579D01*
X2512444Y-10043579D02*
X2521967Y-10024531D01*
X2521967Y-10024531D02*
X2531491Y-10015008D01*
X2531491Y-10015008D02*
X2550539Y-10005484D01*
X2702920Y-10205484D02*
X2702920Y-10072150D01*
X2702920Y-10091198D02*
X2712444Y-10081674D01*
X2712444Y-10081674D02*
X2731491Y-10072150D01*
X2731491Y-10072150D02*
X2760063Y-10072150D01*
X2760063Y-10072150D02*
X2779110Y-10081674D01*
X2779110Y-10081674D02*
X2788634Y-10100722D01*
X2788634Y-10100722D02*
X2788634Y-10205484D01*
X2788634Y-10100722D02*
X2798158Y-10081674D01*
X2798158Y-10081674D02*
X2817205Y-10072150D01*
X2817205Y-10072150D02*
X2845777Y-10072150D01*
X2845777Y-10072150D02*
X2864824Y-10081674D01*
X2864824Y-10081674D02*
X2874348Y-10100722D01*
X2874348Y-10100722D02*
X2874348Y-10205484D01*
X2969586Y-10205484D02*
X2969586Y-10072150D01*
X2969586Y-10091198D02*
X2979110Y-10081674D01*
X2979110Y-10081674D02*
X2998158Y-10072150D01*
X2998158Y-10072150D02*
X3026729Y-10072150D01*
X3026729Y-10072150D02*
X3045777Y-10081674D01*
X3045777Y-10081674D02*
X3055301Y-10100722D01*
X3055301Y-10100722D02*
X3055301Y-10205484D01*
X3055301Y-10100722D02*
X3064824Y-10081674D01*
X3064824Y-10081674D02*
X3083872Y-10072150D01*
X3083872Y-10072150D02*
X3112443Y-10072150D01*
X3112443Y-10072150D02*
X3131491Y-10081674D01*
X3131491Y-10081674D02*
X3141015Y-10100722D01*
X3141015Y-10100722D02*
X3141015Y-10205484D01*
X3531491Y-9995960D02*
X3360063Y-10253103D01*
X3788634Y-10005484D02*
X3807682Y-10005484D01*
X3807682Y-10005484D02*
X3826729Y-10015008D01*
X3826729Y-10015008D02*
X3836253Y-10024531D01*
X3836253Y-10024531D02*
X3845777Y-10043579D01*
X3845777Y-10043579D02*
X3855301Y-10081674D01*
X3855301Y-10081674D02*
X3855301Y-10129293D01*
X3855301Y-10129293D02*
X3845777Y-10167389D01*
X3845777Y-10167389D02*
X3836253Y-10186436D01*
X3836253Y-10186436D02*
X3826729Y-10195960D01*
X3826729Y-10195960D02*
X3807682Y-10205484D01*
X3807682Y-10205484D02*
X3788634Y-10205484D01*
X3788634Y-10205484D02*
X3769586Y-10195960D01*
X3769586Y-10195960D02*
X3760063Y-10186436D01*
X3760063Y-10186436D02*
X3750539Y-10167389D01*
X3750539Y-10167389D02*
X3741015Y-10129293D01*
X3741015Y-10129293D02*
X3741015Y-10081674D01*
X3741015Y-10081674D02*
X3750539Y-10043579D01*
X3750539Y-10043579D02*
X3760063Y-10024531D01*
X3760063Y-10024531D02*
X3769586Y-10015008D01*
X3769586Y-10015008D02*
X3788634Y-10005484D01*
X3941015Y-10186436D02*
X3950539Y-10195960D01*
X3950539Y-10195960D02*
X3941015Y-10205484D01*
X3941015Y-10205484D02*
X3931491Y-10195960D01*
X3931491Y-10195960D02*
X3941015Y-10186436D01*
X3941015Y-10186436D02*
X3941015Y-10205484D01*
X4074348Y-10005484D02*
X4093396Y-10005484D01*
X4093396Y-10005484D02*
X4112444Y-10015008D01*
X4112444Y-10015008D02*
X4121967Y-10024531D01*
X4121967Y-10024531D02*
X4131491Y-10043579D01*
X4131491Y-10043579D02*
X4141015Y-10081674D01*
X4141015Y-10081674D02*
X4141015Y-10129293D01*
X4141015Y-10129293D02*
X4131491Y-10167389D01*
X4131491Y-10167389D02*
X4121967Y-10186436D01*
X4121967Y-10186436D02*
X4112444Y-10195960D01*
X4112444Y-10195960D02*
X4093396Y-10205484D01*
X4093396Y-10205484D02*
X4074348Y-10205484D01*
X4074348Y-10205484D02*
X4055301Y-10195960D01*
X4055301Y-10195960D02*
X4045777Y-10186436D01*
X4045777Y-10186436D02*
X4036253Y-10167389D01*
X4036253Y-10167389D02*
X4026729Y-10129293D01*
X4026729Y-10129293D02*
X4026729Y-10081674D01*
X4026729Y-10081674D02*
X4036253Y-10043579D01*
X4036253Y-10043579D02*
X4045777Y-10024531D01*
X4045777Y-10024531D02*
X4055301Y-10015008D01*
X4055301Y-10015008D02*
X4074348Y-10005484D01*
X4331491Y-10205484D02*
X4217206Y-10205484D01*
X4274348Y-10205484D02*
X4274348Y-10005484D01*
X4274348Y-10005484D02*
X4255301Y-10034055D01*
X4255301Y-10034055D02*
X4236253Y-10053103D01*
X4236253Y-10053103D02*
X4217206Y-10062627D01*
X4512444Y-10005484D02*
X4417206Y-10005484D01*
X4417206Y-10005484D02*
X4407682Y-10100722D01*
X4407682Y-10100722D02*
X4417206Y-10091198D01*
X4417206Y-10091198D02*
X4436253Y-10081674D01*
X4436253Y-10081674D02*
X4483872Y-10081674D01*
X4483872Y-10081674D02*
X4502920Y-10091198D01*
X4502920Y-10091198D02*
X4512444Y-10100722D01*
X4512444Y-10100722D02*
X4521968Y-10119770D01*
X4521968Y-10119770D02*
X4521968Y-10167389D01*
X4521968Y-10167389D02*
X4512444Y-10186436D01*
X4512444Y-10186436D02*
X4502920Y-10195960D01*
X4502920Y-10195960D02*
X4483872Y-10205484D01*
X4483872Y-10205484D02*
X4436253Y-10205484D01*
X4436253Y-10205484D02*
X4417206Y-10195960D01*
X4417206Y-10195960D02*
X4407682Y-10186436D01*
X4588634Y-10005484D02*
X4721968Y-10005484D01*
X4721968Y-10005484D02*
X4636253Y-10205484D01*
X4788634Y-10005484D02*
X4788634Y-10043579D01*
X4864825Y-10005484D02*
X4864825Y-10043579D01*
X5160063Y-10281674D02*
X5150539Y-10272150D01*
X5150539Y-10272150D02*
X5131491Y-10243579D01*
X5131491Y-10243579D02*
X5121968Y-10224531D01*
X5121968Y-10224531D02*
X5112444Y-10195960D01*
X5112444Y-10195960D02*
X5102920Y-10148341D01*
X5102920Y-10148341D02*
X5102920Y-10110246D01*
X5102920Y-10110246D02*
X5112444Y-10062627D01*
X5112444Y-10062627D02*
X5121968Y-10034055D01*
X5121968Y-10034055D02*
X5131491Y-10015008D01*
X5131491Y-10015008D02*
X5150539Y-9986436D01*
X5150539Y-9986436D02*
X5160063Y-9976912D01*
X5321968Y-10072150D02*
X5321968Y-10205484D01*
X5274349Y-9995960D02*
X5226730Y-10138817D01*
X5226730Y-10138817D02*
X5350539Y-10138817D01*
X5579111Y-10205484D02*
X5579111Y-10005484D01*
X5664825Y-10205484D02*
X5664825Y-10100722D01*
X5664825Y-10100722D02*
X5655301Y-10081674D01*
X5655301Y-10081674D02*
X5636253Y-10072150D01*
X5636253Y-10072150D02*
X5607682Y-10072150D01*
X5607682Y-10072150D02*
X5588634Y-10081674D01*
X5588634Y-10081674D02*
X5579111Y-10091198D01*
X5788634Y-10205484D02*
X5769587Y-10195960D01*
X5769587Y-10195960D02*
X5760063Y-10186436D01*
X5760063Y-10186436D02*
X5750539Y-10167389D01*
X5750539Y-10167389D02*
X5750539Y-10110246D01*
X5750539Y-10110246D02*
X5760063Y-10091198D01*
X5760063Y-10091198D02*
X5769587Y-10081674D01*
X5769587Y-10081674D02*
X5788634Y-10072150D01*
X5788634Y-10072150D02*
X5817206Y-10072150D01*
X5817206Y-10072150D02*
X5836253Y-10081674D01*
X5836253Y-10081674D02*
X5845777Y-10091198D01*
X5845777Y-10091198D02*
X5855301Y-10110246D01*
X5855301Y-10110246D02*
X5855301Y-10167389D01*
X5855301Y-10167389D02*
X5845777Y-10186436D01*
X5845777Y-10186436D02*
X5836253Y-10195960D01*
X5836253Y-10195960D02*
X5817206Y-10205484D01*
X5817206Y-10205484D02*
X5788634Y-10205484D01*
X5969587Y-10205484D02*
X5950539Y-10195960D01*
X5950539Y-10195960D02*
X5941015Y-10176912D01*
X5941015Y-10176912D02*
X5941015Y-10005484D01*
X6121968Y-10195960D02*
X6102920Y-10205484D01*
X6102920Y-10205484D02*
X6064825Y-10205484D01*
X6064825Y-10205484D02*
X6045777Y-10195960D01*
X6045777Y-10195960D02*
X6036253Y-10176912D01*
X6036253Y-10176912D02*
X6036253Y-10100722D01*
X6036253Y-10100722D02*
X6045777Y-10081674D01*
X6045777Y-10081674D02*
X6064825Y-10072150D01*
X6064825Y-10072150D02*
X6102920Y-10072150D01*
X6102920Y-10072150D02*
X6121968Y-10081674D01*
X6121968Y-10081674D02*
X6131491Y-10100722D01*
X6131491Y-10100722D02*
X6131491Y-10119770D01*
X6131491Y-10119770D02*
X6036253Y-10138817D01*
X6207682Y-10195960D02*
X6226730Y-10205484D01*
X6226730Y-10205484D02*
X6264825Y-10205484D01*
X6264825Y-10205484D02*
X6283872Y-10195960D01*
X6283872Y-10195960D02*
X6293396Y-10176912D01*
X6293396Y-10176912D02*
X6293396Y-10167389D01*
X6293396Y-10167389D02*
X6283872Y-10148341D01*
X6283872Y-10148341D02*
X6264825Y-10138817D01*
X6264825Y-10138817D02*
X6236253Y-10138817D01*
X6236253Y-10138817D02*
X6217206Y-10129293D01*
X6217206Y-10129293D02*
X6207682Y-10110246D01*
X6207682Y-10110246D02*
X6207682Y-10100722D01*
X6207682Y-10100722D02*
X6217206Y-10081674D01*
X6217206Y-10081674D02*
X6236253Y-10072150D01*
X6236253Y-10072150D02*
X6264825Y-10072150D01*
X6264825Y-10072150D02*
X6283872Y-10081674D01*
X6360063Y-10281674D02*
X6369587Y-10272150D01*
X6369587Y-10272150D02*
X6388634Y-10243579D01*
X6388634Y-10243579D02*
X6398158Y-10224531D01*
X6398158Y-10224531D02*
X6407682Y-10195960D01*
X6407682Y-10195960D02*
X6417206Y-10148341D01*
X6417206Y-10148341D02*
X6417206Y-10110246D01*
X6417206Y-10110246D02*
X6407682Y-10062627D01*
X6407682Y-10062627D02*
X6398158Y-10034055D01*
X6398158Y-10034055D02*
X6388634Y-10015008D01*
X6388634Y-10015008D02*
X6369587Y-9986436D01*
X6369587Y-9986436D02*
X6360063Y-9976912D01*
D12*
X1535000Y-10328000D02*
X1535000Y-10428000D01*
X1485000Y-10378000D02*
X1585000Y-10378000D01*
D11*
X1950539Y-10469484D02*
X1836253Y-10469484D01*
X1893396Y-10469484D02*
X1893396Y-10269484D01*
X1893396Y-10269484D02*
X1874348Y-10298055D01*
X1874348Y-10298055D02*
X1855301Y-10317103D01*
X1855301Y-10317103D02*
X1836253Y-10326627D01*
X2036253Y-10450436D02*
X2045777Y-10459960D01*
X2045777Y-10459960D02*
X2036253Y-10469484D01*
X2036253Y-10469484D02*
X2026729Y-10459960D01*
X2026729Y-10459960D02*
X2036253Y-10450436D01*
X2036253Y-10450436D02*
X2036253Y-10469484D01*
X2169586Y-10269484D02*
X2188634Y-10269484D01*
X2188634Y-10269484D02*
X2207682Y-10279008D01*
X2207682Y-10279008D02*
X2217205Y-10288531D01*
X2217205Y-10288531D02*
X2226729Y-10307579D01*
X2226729Y-10307579D02*
X2236253Y-10345674D01*
X2236253Y-10345674D02*
X2236253Y-10393293D01*
X2236253Y-10393293D02*
X2226729Y-10431389D01*
X2226729Y-10431389D02*
X2217205Y-10450436D01*
X2217205Y-10450436D02*
X2207682Y-10459960D01*
X2207682Y-10459960D02*
X2188634Y-10469484D01*
X2188634Y-10469484D02*
X2169586Y-10469484D01*
X2169586Y-10469484D02*
X2150539Y-10459960D01*
X2150539Y-10459960D02*
X2141015Y-10450436D01*
X2141015Y-10450436D02*
X2131491Y-10431389D01*
X2131491Y-10431389D02*
X2121967Y-10393293D01*
X2121967Y-10393293D02*
X2121967Y-10345674D01*
X2121967Y-10345674D02*
X2131491Y-10307579D01*
X2131491Y-10307579D02*
X2141015Y-10288531D01*
X2141015Y-10288531D02*
X2150539Y-10279008D01*
X2150539Y-10279008D02*
X2169586Y-10269484D01*
X2360063Y-10269484D02*
X2379110Y-10269484D01*
X2379110Y-10269484D02*
X2398158Y-10279008D01*
X2398158Y-10279008D02*
X2407682Y-10288531D01*
X2407682Y-10288531D02*
X2417205Y-10307579D01*
X2417205Y-10307579D02*
X2426729Y-10345674D01*
X2426729Y-10345674D02*
X2426729Y-10393293D01*
X2426729Y-10393293D02*
X2417205Y-10431389D01*
X2417205Y-10431389D02*
X2407682Y-10450436D01*
X2407682Y-10450436D02*
X2398158Y-10459960D01*
X2398158Y-10459960D02*
X2379110Y-10469484D01*
X2379110Y-10469484D02*
X2360063Y-10469484D01*
X2360063Y-10469484D02*
X2341015Y-10459960D01*
X2341015Y-10459960D02*
X2331491Y-10450436D01*
X2331491Y-10450436D02*
X2321967Y-10431389D01*
X2321967Y-10431389D02*
X2312444Y-10393293D01*
X2312444Y-10393293D02*
X2312444Y-10345674D01*
X2312444Y-10345674D02*
X2321967Y-10307579D01*
X2321967Y-10307579D02*
X2331491Y-10288531D01*
X2331491Y-10288531D02*
X2341015Y-10279008D01*
X2341015Y-10279008D02*
X2360063Y-10269484D01*
X2550539Y-10269484D02*
X2569586Y-10269484D01*
X2569586Y-10269484D02*
X2588634Y-10279008D01*
X2588634Y-10279008D02*
X2598158Y-10288531D01*
X2598158Y-10288531D02*
X2607682Y-10307579D01*
X2607682Y-10307579D02*
X2617205Y-10345674D01*
X2617205Y-10345674D02*
X2617205Y-10393293D01*
X2617205Y-10393293D02*
X2607682Y-10431389D01*
X2607682Y-10431389D02*
X2598158Y-10450436D01*
X2598158Y-10450436D02*
X2588634Y-10459960D01*
X2588634Y-10459960D02*
X2569586Y-10469484D01*
X2569586Y-10469484D02*
X2550539Y-10469484D01*
X2550539Y-10469484D02*
X2531491Y-10459960D01*
X2531491Y-10459960D02*
X2521967Y-10450436D01*
X2521967Y-10450436D02*
X2512444Y-10431389D01*
X2512444Y-10431389D02*
X2502920Y-10393293D01*
X2502920Y-10393293D02*
X2502920Y-10345674D01*
X2502920Y-10345674D02*
X2512444Y-10307579D01*
X2512444Y-10307579D02*
X2521967Y-10288531D01*
X2521967Y-10288531D02*
X2531491Y-10279008D01*
X2531491Y-10279008D02*
X2550539Y-10269484D01*
X2702920Y-10469484D02*
X2702920Y-10336150D01*
X2702920Y-10355198D02*
X2712444Y-10345674D01*
X2712444Y-10345674D02*
X2731491Y-10336150D01*
X2731491Y-10336150D02*
X2760063Y-10336150D01*
X2760063Y-10336150D02*
X2779110Y-10345674D01*
X2779110Y-10345674D02*
X2788634Y-10364722D01*
X2788634Y-10364722D02*
X2788634Y-10469484D01*
X2788634Y-10364722D02*
X2798158Y-10345674D01*
X2798158Y-10345674D02*
X2817205Y-10336150D01*
X2817205Y-10336150D02*
X2845777Y-10336150D01*
X2845777Y-10336150D02*
X2864824Y-10345674D01*
X2864824Y-10345674D02*
X2874348Y-10364722D01*
X2874348Y-10364722D02*
X2874348Y-10469484D01*
X2969586Y-10469484D02*
X2969586Y-10336150D01*
X2969586Y-10355198D02*
X2979110Y-10345674D01*
X2979110Y-10345674D02*
X2998158Y-10336150D01*
X2998158Y-10336150D02*
X3026729Y-10336150D01*
X3026729Y-10336150D02*
X3045777Y-10345674D01*
X3045777Y-10345674D02*
X3055301Y-10364722D01*
X3055301Y-10364722D02*
X3055301Y-10469484D01*
X3055301Y-10364722D02*
X3064824Y-10345674D01*
X3064824Y-10345674D02*
X3083872Y-10336150D01*
X3083872Y-10336150D02*
X3112443Y-10336150D01*
X3112443Y-10336150D02*
X3131491Y-10345674D01*
X3131491Y-10345674D02*
X3141015Y-10364722D01*
X3141015Y-10364722D02*
X3141015Y-10469484D01*
X3531491Y-10259960D02*
X3360063Y-10517103D01*
X3788634Y-10269484D02*
X3807682Y-10269484D01*
X3807682Y-10269484D02*
X3826729Y-10279008D01*
X3826729Y-10279008D02*
X3836253Y-10288531D01*
X3836253Y-10288531D02*
X3845777Y-10307579D01*
X3845777Y-10307579D02*
X3855301Y-10345674D01*
X3855301Y-10345674D02*
X3855301Y-10393293D01*
X3855301Y-10393293D02*
X3845777Y-10431389D01*
X3845777Y-10431389D02*
X3836253Y-10450436D01*
X3836253Y-10450436D02*
X3826729Y-10459960D01*
X3826729Y-10459960D02*
X3807682Y-10469484D01*
X3807682Y-10469484D02*
X3788634Y-10469484D01*
X3788634Y-10469484D02*
X3769586Y-10459960D01*
X3769586Y-10459960D02*
X3760063Y-10450436D01*
X3760063Y-10450436D02*
X3750539Y-10431389D01*
X3750539Y-10431389D02*
X3741015Y-10393293D01*
X3741015Y-10393293D02*
X3741015Y-10345674D01*
X3741015Y-10345674D02*
X3750539Y-10307579D01*
X3750539Y-10307579D02*
X3760063Y-10288531D01*
X3760063Y-10288531D02*
X3769586Y-10279008D01*
X3769586Y-10279008D02*
X3788634Y-10269484D01*
X3941015Y-10450436D02*
X3950539Y-10459960D01*
X3950539Y-10459960D02*
X3941015Y-10469484D01*
X3941015Y-10469484D02*
X3931491Y-10459960D01*
X3931491Y-10459960D02*
X3941015Y-10450436D01*
X3941015Y-10450436D02*
X3941015Y-10469484D01*
X4074348Y-10269484D02*
X4093396Y-10269484D01*
X4093396Y-10269484D02*
X4112444Y-10279008D01*
X4112444Y-10279008D02*
X4121967Y-10288531D01*
X4121967Y-10288531D02*
X4131491Y-10307579D01*
X4131491Y-10307579D02*
X4141015Y-10345674D01*
X4141015Y-10345674D02*
X4141015Y-10393293D01*
X4141015Y-10393293D02*
X4131491Y-10431389D01*
X4131491Y-10431389D02*
X4121967Y-10450436D01*
X4121967Y-10450436D02*
X4112444Y-10459960D01*
X4112444Y-10459960D02*
X4093396Y-10469484D01*
X4093396Y-10469484D02*
X4074348Y-10469484D01*
X4074348Y-10469484D02*
X4055301Y-10459960D01*
X4055301Y-10459960D02*
X4045777Y-10450436D01*
X4045777Y-10450436D02*
X4036253Y-10431389D01*
X4036253Y-10431389D02*
X4026729Y-10393293D01*
X4026729Y-10393293D02*
X4026729Y-10345674D01*
X4026729Y-10345674D02*
X4036253Y-10307579D01*
X4036253Y-10307579D02*
X4045777Y-10288531D01*
X4045777Y-10288531D02*
X4055301Y-10279008D01*
X4055301Y-10279008D02*
X4074348Y-10269484D01*
X4207682Y-10269484D02*
X4331491Y-10269484D01*
X4331491Y-10269484D02*
X4264825Y-10345674D01*
X4264825Y-10345674D02*
X4293396Y-10345674D01*
X4293396Y-10345674D02*
X4312444Y-10355198D01*
X4312444Y-10355198D02*
X4321968Y-10364722D01*
X4321968Y-10364722D02*
X4331491Y-10383770D01*
X4331491Y-10383770D02*
X4331491Y-10431389D01*
X4331491Y-10431389D02*
X4321968Y-10450436D01*
X4321968Y-10450436D02*
X4312444Y-10459960D01*
X4312444Y-10459960D02*
X4293396Y-10469484D01*
X4293396Y-10469484D02*
X4236253Y-10469484D01*
X4236253Y-10469484D02*
X4217206Y-10459960D01*
X4217206Y-10459960D02*
X4207682Y-10450436D01*
X4426729Y-10469484D02*
X4464825Y-10469484D01*
X4464825Y-10469484D02*
X4483872Y-10459960D01*
X4483872Y-10459960D02*
X4493396Y-10450436D01*
X4493396Y-10450436D02*
X4512444Y-10421865D01*
X4512444Y-10421865D02*
X4521968Y-10383770D01*
X4521968Y-10383770D02*
X4521968Y-10307579D01*
X4521968Y-10307579D02*
X4512444Y-10288531D01*
X4512444Y-10288531D02*
X4502920Y-10279008D01*
X4502920Y-10279008D02*
X4483872Y-10269484D01*
X4483872Y-10269484D02*
X4445777Y-10269484D01*
X4445777Y-10269484D02*
X4426729Y-10279008D01*
X4426729Y-10279008D02*
X4417206Y-10288531D01*
X4417206Y-10288531D02*
X4407682Y-10307579D01*
X4407682Y-10307579D02*
X4407682Y-10355198D01*
X4407682Y-10355198D02*
X4417206Y-10374246D01*
X4417206Y-10374246D02*
X4426729Y-10383770D01*
X4426729Y-10383770D02*
X4445777Y-10393293D01*
X4445777Y-10393293D02*
X4483872Y-10393293D01*
X4483872Y-10393293D02*
X4502920Y-10383770D01*
X4502920Y-10383770D02*
X4512444Y-10374246D01*
X4512444Y-10374246D02*
X4521968Y-10355198D01*
X4693396Y-10336150D02*
X4693396Y-10469484D01*
X4645777Y-10259960D02*
X4598158Y-10402817D01*
X4598158Y-10402817D02*
X4721968Y-10402817D01*
X4788634Y-10269484D02*
X4788634Y-10307579D01*
X4864825Y-10269484D02*
X4864825Y-10307579D01*
X5160063Y-10545674D02*
X5150539Y-10536150D01*
X5150539Y-10536150D02*
X5131491Y-10507579D01*
X5131491Y-10507579D02*
X5121968Y-10488531D01*
X5121968Y-10488531D02*
X5112444Y-10459960D01*
X5112444Y-10459960D02*
X5102920Y-10412341D01*
X5102920Y-10412341D02*
X5102920Y-10374246D01*
X5102920Y-10374246D02*
X5112444Y-10326627D01*
X5112444Y-10326627D02*
X5121968Y-10298055D01*
X5121968Y-10298055D02*
X5131491Y-10279008D01*
X5131491Y-10279008D02*
X5150539Y-10250436D01*
X5150539Y-10250436D02*
X5160063Y-10240912D01*
X5341015Y-10469484D02*
X5226730Y-10469484D01*
X5283872Y-10469484D02*
X5283872Y-10269484D01*
X5283872Y-10269484D02*
X5264825Y-10298055D01*
X5264825Y-10298055D02*
X5245777Y-10317103D01*
X5245777Y-10317103D02*
X5226730Y-10326627D01*
X5521968Y-10269484D02*
X5426730Y-10269484D01*
X5426730Y-10269484D02*
X5417206Y-10364722D01*
X5417206Y-10364722D02*
X5426730Y-10355198D01*
X5426730Y-10355198D02*
X5445777Y-10345674D01*
X5445777Y-10345674D02*
X5493396Y-10345674D01*
X5493396Y-10345674D02*
X5512444Y-10355198D01*
X5512444Y-10355198D02*
X5521968Y-10364722D01*
X5521968Y-10364722D02*
X5531491Y-10383770D01*
X5531491Y-10383770D02*
X5531491Y-10431389D01*
X5531491Y-10431389D02*
X5521968Y-10450436D01*
X5521968Y-10450436D02*
X5512444Y-10459960D01*
X5512444Y-10459960D02*
X5493396Y-10469484D01*
X5493396Y-10469484D02*
X5445777Y-10469484D01*
X5445777Y-10469484D02*
X5426730Y-10459960D01*
X5426730Y-10459960D02*
X5417206Y-10450436D01*
X5769587Y-10469484D02*
X5769587Y-10269484D01*
X5855301Y-10469484D02*
X5855301Y-10364722D01*
X5855301Y-10364722D02*
X5845777Y-10345674D01*
X5845777Y-10345674D02*
X5826730Y-10336150D01*
X5826730Y-10336150D02*
X5798158Y-10336150D01*
X5798158Y-10336150D02*
X5779110Y-10345674D01*
X5779110Y-10345674D02*
X5769587Y-10355198D01*
X5979110Y-10469484D02*
X5960063Y-10459960D01*
X5960063Y-10459960D02*
X5950539Y-10450436D01*
X5950539Y-10450436D02*
X5941015Y-10431389D01*
X5941015Y-10431389D02*
X5941015Y-10374246D01*
X5941015Y-10374246D02*
X5950539Y-10355198D01*
X5950539Y-10355198D02*
X5960063Y-10345674D01*
X5960063Y-10345674D02*
X5979110Y-10336150D01*
X5979110Y-10336150D02*
X6007682Y-10336150D01*
X6007682Y-10336150D02*
X6026730Y-10345674D01*
X6026730Y-10345674D02*
X6036253Y-10355198D01*
X6036253Y-10355198D02*
X6045777Y-10374246D01*
X6045777Y-10374246D02*
X6045777Y-10431389D01*
X6045777Y-10431389D02*
X6036253Y-10450436D01*
X6036253Y-10450436D02*
X6026730Y-10459960D01*
X6026730Y-10459960D02*
X6007682Y-10469484D01*
X6007682Y-10469484D02*
X5979110Y-10469484D01*
X6160063Y-10469484D02*
X6141015Y-10459960D01*
X6141015Y-10459960D02*
X6131491Y-10440912D01*
X6131491Y-10440912D02*
X6131491Y-10269484D01*
X6312444Y-10459960D02*
X6293396Y-10469484D01*
X6293396Y-10469484D02*
X6255301Y-10469484D01*
X6255301Y-10469484D02*
X6236253Y-10459960D01*
X6236253Y-10459960D02*
X6226730Y-10440912D01*
X6226730Y-10440912D02*
X6226730Y-10364722D01*
X6226730Y-10364722D02*
X6236253Y-10345674D01*
X6236253Y-10345674D02*
X6255301Y-10336150D01*
X6255301Y-10336150D02*
X6293396Y-10336150D01*
X6293396Y-10336150D02*
X6312444Y-10345674D01*
X6312444Y-10345674D02*
X6321968Y-10364722D01*
X6321968Y-10364722D02*
X6321968Y-10383770D01*
X6321968Y-10383770D02*
X6226730Y-10402817D01*
X6398158Y-10459960D02*
X6417206Y-10469484D01*
X6417206Y-10469484D02*
X6455301Y-10469484D01*
X6455301Y-10469484D02*
X6474349Y-10459960D01*
X6474349Y-10459960D02*
X6483872Y-10440912D01*
X6483872Y-10440912D02*
X6483872Y-10431389D01*
X6483872Y-10431389D02*
X6474349Y-10412341D01*
X6474349Y-10412341D02*
X6455301Y-10402817D01*
X6455301Y-10402817D02*
X6426730Y-10402817D01*
X6426730Y-10402817D02*
X6407682Y-10393293D01*
X6407682Y-10393293D02*
X6398158Y-10374246D01*
X6398158Y-10374246D02*
X6398158Y-10364722D01*
X6398158Y-10364722D02*
X6407682Y-10345674D01*
X6407682Y-10345674D02*
X6426730Y-10336150D01*
X6426730Y-10336150D02*
X6455301Y-10336150D01*
X6455301Y-10336150D02*
X6474349Y-10345674D01*
X6550539Y-10545674D02*
X6560063Y-10536150D01*
X6560063Y-10536150D02*
X6579111Y-10507579D01*
X6579111Y-10507579D02*
X6588634Y-10488531D01*
X6588634Y-10488531D02*
X6598158Y-10459960D01*
X6598158Y-10459960D02*
X6607682Y-10412341D01*
X6607682Y-10412341D02*
X6607682Y-10374246D01*
X6607682Y-10374246D02*
X6598158Y-10326627D01*
X6598158Y-10326627D02*
X6588634Y-10298055D01*
X6588634Y-10298055D02*
X6579111Y-10279008D01*
X6579111Y-10279008D02*
X6560063Y-10250436D01*
X6560063Y-10250436D02*
X6550539Y-10240912D01*
D13*
X1562682Y-10695882D02*
X1562682Y-10588118D01*
X1454918Y-10588118D01*
X1454918Y-10695882D01*
X1562682Y-10695882D01*
D11*
X1950539Y-10733484D02*
X1836253Y-10733484D01*
X1893396Y-10733484D02*
X1893396Y-10533484D01*
X1893396Y-10533484D02*
X1874348Y-10562055D01*
X1874348Y-10562055D02*
X1855301Y-10581103D01*
X1855301Y-10581103D02*
X1836253Y-10590627D01*
X2036253Y-10714436D02*
X2045777Y-10723960D01*
X2045777Y-10723960D02*
X2036253Y-10733484D01*
X2036253Y-10733484D02*
X2026729Y-10723960D01*
X2026729Y-10723960D02*
X2036253Y-10714436D01*
X2036253Y-10714436D02*
X2036253Y-10733484D01*
X2226729Y-10533484D02*
X2131491Y-10533484D01*
X2131491Y-10533484D02*
X2121967Y-10628722D01*
X2121967Y-10628722D02*
X2131491Y-10619198D01*
X2131491Y-10619198D02*
X2150539Y-10609674D01*
X2150539Y-10609674D02*
X2198158Y-10609674D01*
X2198158Y-10609674D02*
X2217205Y-10619198D01*
X2217205Y-10619198D02*
X2226729Y-10628722D01*
X2226729Y-10628722D02*
X2236253Y-10647770D01*
X2236253Y-10647770D02*
X2236253Y-10695389D01*
X2236253Y-10695389D02*
X2226729Y-10714436D01*
X2226729Y-10714436D02*
X2217205Y-10723960D01*
X2217205Y-10723960D02*
X2198158Y-10733484D01*
X2198158Y-10733484D02*
X2150539Y-10733484D01*
X2150539Y-10733484D02*
X2131491Y-10723960D01*
X2131491Y-10723960D02*
X2121967Y-10714436D01*
X2312444Y-10552531D02*
X2321967Y-10543008D01*
X2321967Y-10543008D02*
X2341015Y-10533484D01*
X2341015Y-10533484D02*
X2388634Y-10533484D01*
X2388634Y-10533484D02*
X2407682Y-10543008D01*
X2407682Y-10543008D02*
X2417205Y-10552531D01*
X2417205Y-10552531D02*
X2426729Y-10571579D01*
X2426729Y-10571579D02*
X2426729Y-10590627D01*
X2426729Y-10590627D02*
X2417205Y-10619198D01*
X2417205Y-10619198D02*
X2302920Y-10733484D01*
X2302920Y-10733484D02*
X2426729Y-10733484D01*
X2598158Y-10600150D02*
X2598158Y-10733484D01*
X2550539Y-10523960D02*
X2502920Y-10666817D01*
X2502920Y-10666817D02*
X2626729Y-10666817D01*
X2702920Y-10733484D02*
X2702920Y-10600150D01*
X2702920Y-10619198D02*
X2712444Y-10609674D01*
X2712444Y-10609674D02*
X2731491Y-10600150D01*
X2731491Y-10600150D02*
X2760063Y-10600150D01*
X2760063Y-10600150D02*
X2779110Y-10609674D01*
X2779110Y-10609674D02*
X2788634Y-10628722D01*
X2788634Y-10628722D02*
X2788634Y-10733484D01*
X2788634Y-10628722D02*
X2798158Y-10609674D01*
X2798158Y-10609674D02*
X2817205Y-10600150D01*
X2817205Y-10600150D02*
X2845777Y-10600150D01*
X2845777Y-10600150D02*
X2864824Y-10609674D01*
X2864824Y-10609674D02*
X2874348Y-10628722D01*
X2874348Y-10628722D02*
X2874348Y-10733484D01*
X2969586Y-10733484D02*
X2969586Y-10600150D01*
X2969586Y-10619198D02*
X2979110Y-10609674D01*
X2979110Y-10609674D02*
X2998158Y-10600150D01*
X2998158Y-10600150D02*
X3026729Y-10600150D01*
X3026729Y-10600150D02*
X3045777Y-10609674D01*
X3045777Y-10609674D02*
X3055301Y-10628722D01*
X3055301Y-10628722D02*
X3055301Y-10733484D01*
X3055301Y-10628722D02*
X3064824Y-10609674D01*
X3064824Y-10609674D02*
X3083872Y-10600150D01*
X3083872Y-10600150D02*
X3112443Y-10600150D01*
X3112443Y-10600150D02*
X3131491Y-10609674D01*
X3131491Y-10609674D02*
X3141015Y-10628722D01*
X3141015Y-10628722D02*
X3141015Y-10733484D01*
X3531491Y-10523960D02*
X3360063Y-10781103D01*
X3788634Y-10533484D02*
X3807682Y-10533484D01*
X3807682Y-10533484D02*
X3826729Y-10543008D01*
X3826729Y-10543008D02*
X3836253Y-10552531D01*
X3836253Y-10552531D02*
X3845777Y-10571579D01*
X3845777Y-10571579D02*
X3855301Y-10609674D01*
X3855301Y-10609674D02*
X3855301Y-10657293D01*
X3855301Y-10657293D02*
X3845777Y-10695389D01*
X3845777Y-10695389D02*
X3836253Y-10714436D01*
X3836253Y-10714436D02*
X3826729Y-10723960D01*
X3826729Y-10723960D02*
X3807682Y-10733484D01*
X3807682Y-10733484D02*
X3788634Y-10733484D01*
X3788634Y-10733484D02*
X3769586Y-10723960D01*
X3769586Y-10723960D02*
X3760063Y-10714436D01*
X3760063Y-10714436D02*
X3750539Y-10695389D01*
X3750539Y-10695389D02*
X3741015Y-10657293D01*
X3741015Y-10657293D02*
X3741015Y-10609674D01*
X3741015Y-10609674D02*
X3750539Y-10571579D01*
X3750539Y-10571579D02*
X3760063Y-10552531D01*
X3760063Y-10552531D02*
X3769586Y-10543008D01*
X3769586Y-10543008D02*
X3788634Y-10533484D01*
X3941015Y-10714436D02*
X3950539Y-10723960D01*
X3950539Y-10723960D02*
X3941015Y-10733484D01*
X3941015Y-10733484D02*
X3931491Y-10723960D01*
X3931491Y-10723960D02*
X3941015Y-10714436D01*
X3941015Y-10714436D02*
X3941015Y-10733484D01*
X4074348Y-10533484D02*
X4093396Y-10533484D01*
X4093396Y-10533484D02*
X4112444Y-10543008D01*
X4112444Y-10543008D02*
X4121967Y-10552531D01*
X4121967Y-10552531D02*
X4131491Y-10571579D01*
X4131491Y-10571579D02*
X4141015Y-10609674D01*
X4141015Y-10609674D02*
X4141015Y-10657293D01*
X4141015Y-10657293D02*
X4131491Y-10695389D01*
X4131491Y-10695389D02*
X4121967Y-10714436D01*
X4121967Y-10714436D02*
X4112444Y-10723960D01*
X4112444Y-10723960D02*
X4093396Y-10733484D01*
X4093396Y-10733484D02*
X4074348Y-10733484D01*
X4074348Y-10733484D02*
X4055301Y-10723960D01*
X4055301Y-10723960D02*
X4045777Y-10714436D01*
X4045777Y-10714436D02*
X4036253Y-10695389D01*
X4036253Y-10695389D02*
X4026729Y-10657293D01*
X4026729Y-10657293D02*
X4026729Y-10609674D01*
X4026729Y-10609674D02*
X4036253Y-10571579D01*
X4036253Y-10571579D02*
X4045777Y-10552531D01*
X4045777Y-10552531D02*
X4055301Y-10543008D01*
X4055301Y-10543008D02*
X4074348Y-10533484D01*
X4312444Y-10533484D02*
X4274348Y-10533484D01*
X4274348Y-10533484D02*
X4255301Y-10543008D01*
X4255301Y-10543008D02*
X4245777Y-10552531D01*
X4245777Y-10552531D02*
X4226729Y-10581103D01*
X4226729Y-10581103D02*
X4217206Y-10619198D01*
X4217206Y-10619198D02*
X4217206Y-10695389D01*
X4217206Y-10695389D02*
X4226729Y-10714436D01*
X4226729Y-10714436D02*
X4236253Y-10723960D01*
X4236253Y-10723960D02*
X4255301Y-10733484D01*
X4255301Y-10733484D02*
X4293396Y-10733484D01*
X4293396Y-10733484D02*
X4312444Y-10723960D01*
X4312444Y-10723960D02*
X4321968Y-10714436D01*
X4321968Y-10714436D02*
X4331491Y-10695389D01*
X4331491Y-10695389D02*
X4331491Y-10647770D01*
X4331491Y-10647770D02*
X4321968Y-10628722D01*
X4321968Y-10628722D02*
X4312444Y-10619198D01*
X4312444Y-10619198D02*
X4293396Y-10609674D01*
X4293396Y-10609674D02*
X4255301Y-10609674D01*
X4255301Y-10609674D02*
X4236253Y-10619198D01*
X4236253Y-10619198D02*
X4226729Y-10628722D01*
X4226729Y-10628722D02*
X4217206Y-10647770D01*
X4455301Y-10533484D02*
X4474349Y-10533484D01*
X4474349Y-10533484D02*
X4493396Y-10543008D01*
X4493396Y-10543008D02*
X4502920Y-10552531D01*
X4502920Y-10552531D02*
X4512444Y-10571579D01*
X4512444Y-10571579D02*
X4521968Y-10609674D01*
X4521968Y-10609674D02*
X4521968Y-10657293D01*
X4521968Y-10657293D02*
X4512444Y-10695389D01*
X4512444Y-10695389D02*
X4502920Y-10714436D01*
X4502920Y-10714436D02*
X4493396Y-10723960D01*
X4493396Y-10723960D02*
X4474349Y-10733484D01*
X4474349Y-10733484D02*
X4455301Y-10733484D01*
X4455301Y-10733484D02*
X4436253Y-10723960D01*
X4436253Y-10723960D02*
X4426729Y-10714436D01*
X4426729Y-10714436D02*
X4417206Y-10695389D01*
X4417206Y-10695389D02*
X4407682Y-10657293D01*
X4407682Y-10657293D02*
X4407682Y-10609674D01*
X4407682Y-10609674D02*
X4417206Y-10571579D01*
X4417206Y-10571579D02*
X4426729Y-10552531D01*
X4426729Y-10552531D02*
X4436253Y-10543008D01*
X4436253Y-10543008D02*
X4455301Y-10533484D01*
X4645777Y-10533484D02*
X4664825Y-10533484D01*
X4664825Y-10533484D02*
X4683872Y-10543008D01*
X4683872Y-10543008D02*
X4693396Y-10552531D01*
X4693396Y-10552531D02*
X4702920Y-10571579D01*
X4702920Y-10571579D02*
X4712444Y-10609674D01*
X4712444Y-10609674D02*
X4712444Y-10657293D01*
X4712444Y-10657293D02*
X4702920Y-10695389D01*
X4702920Y-10695389D02*
X4693396Y-10714436D01*
X4693396Y-10714436D02*
X4683872Y-10723960D01*
X4683872Y-10723960D02*
X4664825Y-10733484D01*
X4664825Y-10733484D02*
X4645777Y-10733484D01*
X4645777Y-10733484D02*
X4626729Y-10723960D01*
X4626729Y-10723960D02*
X4617206Y-10714436D01*
X4617206Y-10714436D02*
X4607682Y-10695389D01*
X4607682Y-10695389D02*
X4598158Y-10657293D01*
X4598158Y-10657293D02*
X4598158Y-10609674D01*
X4598158Y-10609674D02*
X4607682Y-10571579D01*
X4607682Y-10571579D02*
X4617206Y-10552531D01*
X4617206Y-10552531D02*
X4626729Y-10543008D01*
X4626729Y-10543008D02*
X4645777Y-10533484D01*
X4788634Y-10533484D02*
X4788634Y-10571579D01*
X4864825Y-10533484D02*
X4864825Y-10571579D01*
X5160063Y-10809674D02*
X5150539Y-10800150D01*
X5150539Y-10800150D02*
X5131491Y-10771579D01*
X5131491Y-10771579D02*
X5121968Y-10752531D01*
X5121968Y-10752531D02*
X5112444Y-10723960D01*
X5112444Y-10723960D02*
X5102920Y-10676341D01*
X5102920Y-10676341D02*
X5102920Y-10638246D01*
X5102920Y-10638246D02*
X5112444Y-10590627D01*
X5112444Y-10590627D02*
X5121968Y-10562055D01*
X5121968Y-10562055D02*
X5131491Y-10543008D01*
X5131491Y-10543008D02*
X5150539Y-10514436D01*
X5150539Y-10514436D02*
X5160063Y-10504912D01*
X5321968Y-10533484D02*
X5283872Y-10533484D01*
X5283872Y-10533484D02*
X5264825Y-10543008D01*
X5264825Y-10543008D02*
X5255301Y-10552531D01*
X5255301Y-10552531D02*
X5236253Y-10581103D01*
X5236253Y-10581103D02*
X5226730Y-10619198D01*
X5226730Y-10619198D02*
X5226730Y-10695389D01*
X5226730Y-10695389D02*
X5236253Y-10714436D01*
X5236253Y-10714436D02*
X5245777Y-10723960D01*
X5245777Y-10723960D02*
X5264825Y-10733484D01*
X5264825Y-10733484D02*
X5302920Y-10733484D01*
X5302920Y-10733484D02*
X5321968Y-10723960D01*
X5321968Y-10723960D02*
X5331491Y-10714436D01*
X5331491Y-10714436D02*
X5341015Y-10695389D01*
X5341015Y-10695389D02*
X5341015Y-10647770D01*
X5341015Y-10647770D02*
X5331491Y-10628722D01*
X5331491Y-10628722D02*
X5321968Y-10619198D01*
X5321968Y-10619198D02*
X5302920Y-10609674D01*
X5302920Y-10609674D02*
X5264825Y-10609674D01*
X5264825Y-10609674D02*
X5245777Y-10619198D01*
X5245777Y-10619198D02*
X5236253Y-10628722D01*
X5236253Y-10628722D02*
X5226730Y-10647770D01*
X5579111Y-10733484D02*
X5579111Y-10533484D01*
X5664825Y-10733484D02*
X5664825Y-10628722D01*
X5664825Y-10628722D02*
X5655301Y-10609674D01*
X5655301Y-10609674D02*
X5636253Y-10600150D01*
X5636253Y-10600150D02*
X5607682Y-10600150D01*
X5607682Y-10600150D02*
X5588634Y-10609674D01*
X5588634Y-10609674D02*
X5579111Y-10619198D01*
X5788634Y-10733484D02*
X5769587Y-10723960D01*
X5769587Y-10723960D02*
X5760063Y-10714436D01*
X5760063Y-10714436D02*
X5750539Y-10695389D01*
X5750539Y-10695389D02*
X5750539Y-10638246D01*
X5750539Y-10638246D02*
X5760063Y-10619198D01*
X5760063Y-10619198D02*
X5769587Y-10609674D01*
X5769587Y-10609674D02*
X5788634Y-10600150D01*
X5788634Y-10600150D02*
X5817206Y-10600150D01*
X5817206Y-10600150D02*
X5836253Y-10609674D01*
X5836253Y-10609674D02*
X5845777Y-10619198D01*
X5845777Y-10619198D02*
X5855301Y-10638246D01*
X5855301Y-10638246D02*
X5855301Y-10695389D01*
X5855301Y-10695389D02*
X5845777Y-10714436D01*
X5845777Y-10714436D02*
X5836253Y-10723960D01*
X5836253Y-10723960D02*
X5817206Y-10733484D01*
X5817206Y-10733484D02*
X5788634Y-10733484D01*
X5969587Y-10733484D02*
X5950539Y-10723960D01*
X5950539Y-10723960D02*
X5941015Y-10704912D01*
X5941015Y-10704912D02*
X5941015Y-10533484D01*
X6121968Y-10723960D02*
X6102920Y-10733484D01*
X6102920Y-10733484D02*
X6064825Y-10733484D01*
X6064825Y-10733484D02*
X6045777Y-10723960D01*
X6045777Y-10723960D02*
X6036253Y-10704912D01*
X6036253Y-10704912D02*
X6036253Y-10628722D01*
X6036253Y-10628722D02*
X6045777Y-10609674D01*
X6045777Y-10609674D02*
X6064825Y-10600150D01*
X6064825Y-10600150D02*
X6102920Y-10600150D01*
X6102920Y-10600150D02*
X6121968Y-10609674D01*
X6121968Y-10609674D02*
X6131491Y-10628722D01*
X6131491Y-10628722D02*
X6131491Y-10647770D01*
X6131491Y-10647770D02*
X6036253Y-10666817D01*
X6207682Y-10723960D02*
X6226730Y-10733484D01*
X6226730Y-10733484D02*
X6264825Y-10733484D01*
X6264825Y-10733484D02*
X6283872Y-10723960D01*
X6283872Y-10723960D02*
X6293396Y-10704912D01*
X6293396Y-10704912D02*
X6293396Y-10695389D01*
X6293396Y-10695389D02*
X6283872Y-10676341D01*
X6283872Y-10676341D02*
X6264825Y-10666817D01*
X6264825Y-10666817D02*
X6236253Y-10666817D01*
X6236253Y-10666817D02*
X6217206Y-10657293D01*
X6217206Y-10657293D02*
X6207682Y-10638246D01*
X6207682Y-10638246D02*
X6207682Y-10628722D01*
X6207682Y-10628722D02*
X6217206Y-10609674D01*
X6217206Y-10609674D02*
X6236253Y-10600150D01*
X6236253Y-10600150D02*
X6264825Y-10600150D01*
X6264825Y-10600150D02*
X6283872Y-10609674D01*
X6360063Y-10809674D02*
X6369587Y-10800150D01*
X6369587Y-10800150D02*
X6388634Y-10771579D01*
X6388634Y-10771579D02*
X6398158Y-10752531D01*
X6398158Y-10752531D02*
X6407682Y-10723960D01*
X6407682Y-10723960D02*
X6417206Y-10676341D01*
X6417206Y-10676341D02*
X6417206Y-10638246D01*
X6417206Y-10638246D02*
X6407682Y-10590627D01*
X6407682Y-10590627D02*
X6398158Y-10562055D01*
X6398158Y-10562055D02*
X6388634Y-10543008D01*
X6388634Y-10543008D02*
X6369587Y-10514436D01*
X6369587Y-10514436D02*
X6360063Y-10504912D01*
X1485000Y-11014400D02*
X1585000Y-10914400D01*
X1485000Y-10814400D01*
X1385000Y-10914400D01*
X1485000Y-11014400D01*
X1826729Y-10805884D02*
X1950539Y-10805884D01*
X1950539Y-10805884D02*
X1883872Y-10882074D01*
X1883872Y-10882074D02*
X1912443Y-10882074D01*
X1912443Y-10882074D02*
X1931491Y-10891598D01*
X1931491Y-10891598D02*
X1941015Y-10901122D01*
X1941015Y-10901122D02*
X1950539Y-10920170D01*
X1950539Y-10920170D02*
X1950539Y-10967789D01*
X1950539Y-10967789D02*
X1941015Y-10986836D01*
X1941015Y-10986836D02*
X1931491Y-10996360D01*
X1931491Y-10996360D02*
X1912443Y-11005884D01*
X1912443Y-11005884D02*
X1855301Y-11005884D01*
X1855301Y-11005884D02*
X1836253Y-10996360D01*
X1836253Y-10996360D02*
X1826729Y-10986836D01*
X2036253Y-10986836D02*
X2045777Y-10996360D01*
X2045777Y-10996360D02*
X2036253Y-11005884D01*
X2036253Y-11005884D02*
X2026729Y-10996360D01*
X2026729Y-10996360D02*
X2036253Y-10986836D01*
X2036253Y-10986836D02*
X2036253Y-11005884D01*
X2169586Y-10805884D02*
X2188634Y-10805884D01*
X2188634Y-10805884D02*
X2207682Y-10815408D01*
X2207682Y-10815408D02*
X2217205Y-10824931D01*
X2217205Y-10824931D02*
X2226729Y-10843979D01*
X2226729Y-10843979D02*
X2236253Y-10882074D01*
X2236253Y-10882074D02*
X2236253Y-10929693D01*
X2236253Y-10929693D02*
X2226729Y-10967789D01*
X2226729Y-10967789D02*
X2217205Y-10986836D01*
X2217205Y-10986836D02*
X2207682Y-10996360D01*
X2207682Y-10996360D02*
X2188634Y-11005884D01*
X2188634Y-11005884D02*
X2169586Y-11005884D01*
X2169586Y-11005884D02*
X2150539Y-10996360D01*
X2150539Y-10996360D02*
X2141015Y-10986836D01*
X2141015Y-10986836D02*
X2131491Y-10967789D01*
X2131491Y-10967789D02*
X2121967Y-10929693D01*
X2121967Y-10929693D02*
X2121967Y-10882074D01*
X2121967Y-10882074D02*
X2131491Y-10843979D01*
X2131491Y-10843979D02*
X2141015Y-10824931D01*
X2141015Y-10824931D02*
X2150539Y-10815408D01*
X2150539Y-10815408D02*
X2169586Y-10805884D01*
X2360063Y-10805884D02*
X2379110Y-10805884D01*
X2379110Y-10805884D02*
X2398158Y-10815408D01*
X2398158Y-10815408D02*
X2407682Y-10824931D01*
X2407682Y-10824931D02*
X2417205Y-10843979D01*
X2417205Y-10843979D02*
X2426729Y-10882074D01*
X2426729Y-10882074D02*
X2426729Y-10929693D01*
X2426729Y-10929693D02*
X2417205Y-10967789D01*
X2417205Y-10967789D02*
X2407682Y-10986836D01*
X2407682Y-10986836D02*
X2398158Y-10996360D01*
X2398158Y-10996360D02*
X2379110Y-11005884D01*
X2379110Y-11005884D02*
X2360063Y-11005884D01*
X2360063Y-11005884D02*
X2341015Y-10996360D01*
X2341015Y-10996360D02*
X2331491Y-10986836D01*
X2331491Y-10986836D02*
X2321967Y-10967789D01*
X2321967Y-10967789D02*
X2312444Y-10929693D01*
X2312444Y-10929693D02*
X2312444Y-10882074D01*
X2312444Y-10882074D02*
X2321967Y-10843979D01*
X2321967Y-10843979D02*
X2331491Y-10824931D01*
X2331491Y-10824931D02*
X2341015Y-10815408D01*
X2341015Y-10815408D02*
X2360063Y-10805884D01*
X2550539Y-10805884D02*
X2569586Y-10805884D01*
X2569586Y-10805884D02*
X2588634Y-10815408D01*
X2588634Y-10815408D02*
X2598158Y-10824931D01*
X2598158Y-10824931D02*
X2607682Y-10843979D01*
X2607682Y-10843979D02*
X2617205Y-10882074D01*
X2617205Y-10882074D02*
X2617205Y-10929693D01*
X2617205Y-10929693D02*
X2607682Y-10967789D01*
X2607682Y-10967789D02*
X2598158Y-10986836D01*
X2598158Y-10986836D02*
X2588634Y-10996360D01*
X2588634Y-10996360D02*
X2569586Y-11005884D01*
X2569586Y-11005884D02*
X2550539Y-11005884D01*
X2550539Y-11005884D02*
X2531491Y-10996360D01*
X2531491Y-10996360D02*
X2521967Y-10986836D01*
X2521967Y-10986836D02*
X2512444Y-10967789D01*
X2512444Y-10967789D02*
X2502920Y-10929693D01*
X2502920Y-10929693D02*
X2502920Y-10882074D01*
X2502920Y-10882074D02*
X2512444Y-10843979D01*
X2512444Y-10843979D02*
X2521967Y-10824931D01*
X2521967Y-10824931D02*
X2531491Y-10815408D01*
X2531491Y-10815408D02*
X2550539Y-10805884D01*
X2702920Y-11005884D02*
X2702920Y-10872550D01*
X2702920Y-10891598D02*
X2712444Y-10882074D01*
X2712444Y-10882074D02*
X2731491Y-10872550D01*
X2731491Y-10872550D02*
X2760063Y-10872550D01*
X2760063Y-10872550D02*
X2779110Y-10882074D01*
X2779110Y-10882074D02*
X2788634Y-10901122D01*
X2788634Y-10901122D02*
X2788634Y-11005884D01*
X2788634Y-10901122D02*
X2798158Y-10882074D01*
X2798158Y-10882074D02*
X2817205Y-10872550D01*
X2817205Y-10872550D02*
X2845777Y-10872550D01*
X2845777Y-10872550D02*
X2864824Y-10882074D01*
X2864824Y-10882074D02*
X2874348Y-10901122D01*
X2874348Y-10901122D02*
X2874348Y-11005884D01*
X2969586Y-11005884D02*
X2969586Y-10872550D01*
X2969586Y-10891598D02*
X2979110Y-10882074D01*
X2979110Y-10882074D02*
X2998158Y-10872550D01*
X2998158Y-10872550D02*
X3026729Y-10872550D01*
X3026729Y-10872550D02*
X3045777Y-10882074D01*
X3045777Y-10882074D02*
X3055301Y-10901122D01*
X3055301Y-10901122D02*
X3055301Y-11005884D01*
X3055301Y-10901122D02*
X3064824Y-10882074D01*
X3064824Y-10882074D02*
X3083872Y-10872550D01*
X3083872Y-10872550D02*
X3112443Y-10872550D01*
X3112443Y-10872550D02*
X3131491Y-10882074D01*
X3131491Y-10882074D02*
X3141015Y-10901122D01*
X3141015Y-10901122D02*
X3141015Y-11005884D01*
X3531491Y-10796360D02*
X3360063Y-11053503D01*
X3788634Y-10805884D02*
X3807682Y-10805884D01*
X3807682Y-10805884D02*
X3826729Y-10815408D01*
X3826729Y-10815408D02*
X3836253Y-10824931D01*
X3836253Y-10824931D02*
X3845777Y-10843979D01*
X3845777Y-10843979D02*
X3855301Y-10882074D01*
X3855301Y-10882074D02*
X3855301Y-10929693D01*
X3855301Y-10929693D02*
X3845777Y-10967789D01*
X3845777Y-10967789D02*
X3836253Y-10986836D01*
X3836253Y-10986836D02*
X3826729Y-10996360D01*
X3826729Y-10996360D02*
X3807682Y-11005884D01*
X3807682Y-11005884D02*
X3788634Y-11005884D01*
X3788634Y-11005884D02*
X3769586Y-10996360D01*
X3769586Y-10996360D02*
X3760063Y-10986836D01*
X3760063Y-10986836D02*
X3750539Y-10967789D01*
X3750539Y-10967789D02*
X3741015Y-10929693D01*
X3741015Y-10929693D02*
X3741015Y-10882074D01*
X3741015Y-10882074D02*
X3750539Y-10843979D01*
X3750539Y-10843979D02*
X3760063Y-10824931D01*
X3760063Y-10824931D02*
X3769586Y-10815408D01*
X3769586Y-10815408D02*
X3788634Y-10805884D01*
X3941015Y-10986836D02*
X3950539Y-10996360D01*
X3950539Y-10996360D02*
X3941015Y-11005884D01*
X3941015Y-11005884D02*
X3931491Y-10996360D01*
X3931491Y-10996360D02*
X3941015Y-10986836D01*
X3941015Y-10986836D02*
X3941015Y-11005884D01*
X4141015Y-11005884D02*
X4026729Y-11005884D01*
X4083872Y-11005884D02*
X4083872Y-10805884D01*
X4083872Y-10805884D02*
X4064825Y-10834455D01*
X4064825Y-10834455D02*
X4045777Y-10853503D01*
X4045777Y-10853503D02*
X4026729Y-10863027D01*
X4331491Y-11005884D02*
X4217206Y-11005884D01*
X4274348Y-11005884D02*
X4274348Y-10805884D01*
X4274348Y-10805884D02*
X4255301Y-10834455D01*
X4255301Y-10834455D02*
X4236253Y-10853503D01*
X4236253Y-10853503D02*
X4217206Y-10863027D01*
X4445777Y-10891598D02*
X4426729Y-10882074D01*
X4426729Y-10882074D02*
X4417206Y-10872550D01*
X4417206Y-10872550D02*
X4407682Y-10853503D01*
X4407682Y-10853503D02*
X4407682Y-10843979D01*
X4407682Y-10843979D02*
X4417206Y-10824931D01*
X4417206Y-10824931D02*
X4426729Y-10815408D01*
X4426729Y-10815408D02*
X4445777Y-10805884D01*
X4445777Y-10805884D02*
X4483872Y-10805884D01*
X4483872Y-10805884D02*
X4502920Y-10815408D01*
X4502920Y-10815408D02*
X4512444Y-10824931D01*
X4512444Y-10824931D02*
X4521968Y-10843979D01*
X4521968Y-10843979D02*
X4521968Y-10853503D01*
X4521968Y-10853503D02*
X4512444Y-10872550D01*
X4512444Y-10872550D02*
X4502920Y-10882074D01*
X4502920Y-10882074D02*
X4483872Y-10891598D01*
X4483872Y-10891598D02*
X4445777Y-10891598D01*
X4445777Y-10891598D02*
X4426729Y-10901122D01*
X4426729Y-10901122D02*
X4417206Y-10910646D01*
X4417206Y-10910646D02*
X4407682Y-10929693D01*
X4407682Y-10929693D02*
X4407682Y-10967789D01*
X4407682Y-10967789D02*
X4417206Y-10986836D01*
X4417206Y-10986836D02*
X4426729Y-10996360D01*
X4426729Y-10996360D02*
X4445777Y-11005884D01*
X4445777Y-11005884D02*
X4483872Y-11005884D01*
X4483872Y-11005884D02*
X4502920Y-10996360D01*
X4502920Y-10996360D02*
X4512444Y-10986836D01*
X4512444Y-10986836D02*
X4521968Y-10967789D01*
X4521968Y-10967789D02*
X4521968Y-10929693D01*
X4521968Y-10929693D02*
X4512444Y-10910646D01*
X4512444Y-10910646D02*
X4502920Y-10901122D01*
X4502920Y-10901122D02*
X4483872Y-10891598D01*
X4712444Y-11005884D02*
X4598158Y-11005884D01*
X4655301Y-11005884D02*
X4655301Y-10805884D01*
X4655301Y-10805884D02*
X4636253Y-10834455D01*
X4636253Y-10834455D02*
X4617206Y-10853503D01*
X4617206Y-10853503D02*
X4598158Y-10863027D01*
X4788634Y-10805884D02*
X4788634Y-10843979D01*
X4864825Y-10805884D02*
X4864825Y-10843979D01*
X5160063Y-11082074D02*
X5150539Y-11072550D01*
X5150539Y-11072550D02*
X5131491Y-11043979D01*
X5131491Y-11043979D02*
X5121968Y-11024931D01*
X5121968Y-11024931D02*
X5112444Y-10996360D01*
X5112444Y-10996360D02*
X5102920Y-10948741D01*
X5102920Y-10948741D02*
X5102920Y-10910646D01*
X5102920Y-10910646D02*
X5112444Y-10863027D01*
X5112444Y-10863027D02*
X5121968Y-10834455D01*
X5121968Y-10834455D02*
X5131491Y-10815408D01*
X5131491Y-10815408D02*
X5150539Y-10786836D01*
X5150539Y-10786836D02*
X5160063Y-10777312D01*
X5341015Y-11005884D02*
X5226730Y-11005884D01*
X5283872Y-11005884D02*
X5283872Y-10805884D01*
X5283872Y-10805884D02*
X5264825Y-10834455D01*
X5264825Y-10834455D02*
X5245777Y-10853503D01*
X5245777Y-10853503D02*
X5226730Y-10863027D01*
X5455301Y-10891598D02*
X5436253Y-10882074D01*
X5436253Y-10882074D02*
X5426730Y-10872550D01*
X5426730Y-10872550D02*
X5417206Y-10853503D01*
X5417206Y-10853503D02*
X5417206Y-10843979D01*
X5417206Y-10843979D02*
X5426730Y-10824931D01*
X5426730Y-10824931D02*
X5436253Y-10815408D01*
X5436253Y-10815408D02*
X5455301Y-10805884D01*
X5455301Y-10805884D02*
X5493396Y-10805884D01*
X5493396Y-10805884D02*
X5512444Y-10815408D01*
X5512444Y-10815408D02*
X5521968Y-10824931D01*
X5521968Y-10824931D02*
X5531491Y-10843979D01*
X5531491Y-10843979D02*
X5531491Y-10853503D01*
X5531491Y-10853503D02*
X5521968Y-10872550D01*
X5521968Y-10872550D02*
X5512444Y-10882074D01*
X5512444Y-10882074D02*
X5493396Y-10891598D01*
X5493396Y-10891598D02*
X5455301Y-10891598D01*
X5455301Y-10891598D02*
X5436253Y-10901122D01*
X5436253Y-10901122D02*
X5426730Y-10910646D01*
X5426730Y-10910646D02*
X5417206Y-10929693D01*
X5417206Y-10929693D02*
X5417206Y-10967789D01*
X5417206Y-10967789D02*
X5426730Y-10986836D01*
X5426730Y-10986836D02*
X5436253Y-10996360D01*
X5436253Y-10996360D02*
X5455301Y-11005884D01*
X5455301Y-11005884D02*
X5493396Y-11005884D01*
X5493396Y-11005884D02*
X5512444Y-10996360D01*
X5512444Y-10996360D02*
X5521968Y-10986836D01*
X5521968Y-10986836D02*
X5531491Y-10967789D01*
X5531491Y-10967789D02*
X5531491Y-10929693D01*
X5531491Y-10929693D02*
X5521968Y-10910646D01*
X5521968Y-10910646D02*
X5512444Y-10901122D01*
X5512444Y-10901122D02*
X5493396Y-10891598D01*
X5655301Y-10805884D02*
X5674349Y-10805884D01*
X5674349Y-10805884D02*
X5693396Y-10815408D01*
X5693396Y-10815408D02*
X5702920Y-10824931D01*
X5702920Y-10824931D02*
X5712444Y-10843979D01*
X5712444Y-10843979D02*
X5721968Y-10882074D01*
X5721968Y-10882074D02*
X5721968Y-10929693D01*
X5721968Y-10929693D02*
X5712444Y-10967789D01*
X5712444Y-10967789D02*
X5702920Y-10986836D01*
X5702920Y-10986836D02*
X5693396Y-10996360D01*
X5693396Y-10996360D02*
X5674349Y-11005884D01*
X5674349Y-11005884D02*
X5655301Y-11005884D01*
X5655301Y-11005884D02*
X5636253Y-10996360D01*
X5636253Y-10996360D02*
X5626729Y-10986836D01*
X5626729Y-10986836D02*
X5617206Y-10967789D01*
X5617206Y-10967789D02*
X5607682Y-10929693D01*
X5607682Y-10929693D02*
X5607682Y-10882074D01*
X5607682Y-10882074D02*
X5617206Y-10843979D01*
X5617206Y-10843979D02*
X5626729Y-10824931D01*
X5626729Y-10824931D02*
X5636253Y-10815408D01*
X5636253Y-10815408D02*
X5655301Y-10805884D01*
X5960063Y-11005884D02*
X5960063Y-10805884D01*
X6045777Y-11005884D02*
X6045777Y-10901122D01*
X6045777Y-10901122D02*
X6036253Y-10882074D01*
X6036253Y-10882074D02*
X6017206Y-10872550D01*
X6017206Y-10872550D02*
X5988634Y-10872550D01*
X5988634Y-10872550D02*
X5969587Y-10882074D01*
X5969587Y-10882074D02*
X5960063Y-10891598D01*
X6169587Y-11005884D02*
X6150539Y-10996360D01*
X6150539Y-10996360D02*
X6141015Y-10986836D01*
X6141015Y-10986836D02*
X6131491Y-10967789D01*
X6131491Y-10967789D02*
X6131491Y-10910646D01*
X6131491Y-10910646D02*
X6141015Y-10891598D01*
X6141015Y-10891598D02*
X6150539Y-10882074D01*
X6150539Y-10882074D02*
X6169587Y-10872550D01*
X6169587Y-10872550D02*
X6198158Y-10872550D01*
X6198158Y-10872550D02*
X6217206Y-10882074D01*
X6217206Y-10882074D02*
X6226730Y-10891598D01*
X6226730Y-10891598D02*
X6236253Y-10910646D01*
X6236253Y-10910646D02*
X6236253Y-10967789D01*
X6236253Y-10967789D02*
X6226730Y-10986836D01*
X6226730Y-10986836D02*
X6217206Y-10996360D01*
X6217206Y-10996360D02*
X6198158Y-11005884D01*
X6198158Y-11005884D02*
X6169587Y-11005884D01*
X6350539Y-11005884D02*
X6331491Y-10996360D01*
X6331491Y-10996360D02*
X6321968Y-10977312D01*
X6321968Y-10977312D02*
X6321968Y-10805884D01*
X6502920Y-10996360D02*
X6483872Y-11005884D01*
X6483872Y-11005884D02*
X6445777Y-11005884D01*
X6445777Y-11005884D02*
X6426730Y-10996360D01*
X6426730Y-10996360D02*
X6417206Y-10977312D01*
X6417206Y-10977312D02*
X6417206Y-10901122D01*
X6417206Y-10901122D02*
X6426730Y-10882074D01*
X6426730Y-10882074D02*
X6445777Y-10872550D01*
X6445777Y-10872550D02*
X6483872Y-10872550D01*
X6483872Y-10872550D02*
X6502920Y-10882074D01*
X6502920Y-10882074D02*
X6512444Y-10901122D01*
X6512444Y-10901122D02*
X6512444Y-10920170D01*
X6512444Y-10920170D02*
X6417206Y-10939217D01*
X6588634Y-10996360D02*
X6607682Y-11005884D01*
X6607682Y-11005884D02*
X6645777Y-11005884D01*
X6645777Y-11005884D02*
X6664825Y-10996360D01*
X6664825Y-10996360D02*
X6674349Y-10977312D01*
X6674349Y-10977312D02*
X6674349Y-10967789D01*
X6674349Y-10967789D02*
X6664825Y-10948741D01*
X6664825Y-10948741D02*
X6645777Y-10939217D01*
X6645777Y-10939217D02*
X6617206Y-10939217D01*
X6617206Y-10939217D02*
X6598158Y-10929693D01*
X6598158Y-10929693D02*
X6588634Y-10910646D01*
X6588634Y-10910646D02*
X6588634Y-10901122D01*
X6588634Y-10901122D02*
X6598158Y-10882074D01*
X6598158Y-10882074D02*
X6617206Y-10872550D01*
X6617206Y-10872550D02*
X6645777Y-10872550D01*
X6645777Y-10872550D02*
X6664825Y-10882074D01*
X6741015Y-11082074D02*
X6750539Y-11072550D01*
X6750539Y-11072550D02*
X6769587Y-11043979D01*
X6769587Y-11043979D02*
X6779111Y-11024931D01*
X6779111Y-11024931D02*
X6788634Y-10996360D01*
X6788634Y-10996360D02*
X6798158Y-10948741D01*
X6798158Y-10948741D02*
X6798158Y-10910646D01*
X6798158Y-10910646D02*
X6788634Y-10863027D01*
X6788634Y-10863027D02*
X6779111Y-10834455D01*
X6779111Y-10834455D02*
X6769587Y-10815408D01*
X6769587Y-10815408D02*
X6750539Y-10786836D01*
X6750539Y-10786836D02*
X6741015Y-10777312D01*
M02*
