M48
; DRILL file {KiCad 8.0.4-1.fc39} date 2024-09-17T18:41:10-0400
; FORMAT={-:-/ absolute / metric / decimal}
; #@! TF.CreationDate,2024-09-17T18:41:10-04:00
; #@! TF.GenerationSoftware,Kicad,Pcbnew,8.0.4-1.fc39
; #@! TF.FileFunction,Plated,1,2,PTH
FMAT,2
METRIC
; #@! TA.AperFunction,Plated,PTH,ViaDrill
T1C0.300
; #@! TA.AperFunction,Plated,PTH,ViaDrill
T2C0.400
; #@! TA.AperFunction,Plated,PTH,ComponentDrill
T3C1.000
; #@! TA.AperFunction,Plated,PTH,ComponentDrill
T4C3.000
%
G90
G05
T1
X33.139Y-34.032
X33.139Y-34.925
X35.52Y-34.032
X35.52Y-34.925
X55.517Y-32.544
X55.562Y-53.975
X71.834Y-30.46
X72.43Y-21.828
X74.662Y-83.145
X77.391Y-72.628
X83.889Y-85.973
X84.336Y-80.466
X91.281Y-23.019
X91.48Y-74.216
X101.005Y-78.978
X106.362Y-57.944
X109.934Y-23.019
X111.125Y-76.597
X119.459Y-77.787
X125.809Y-58.737
X126.603Y-79.573
X128.984Y-22.622
X141.188Y-86.271
X144.859Y-57.944
X147.637Y-23.019
X148.431Y-17.462
X148.828Y-76.597
X150.564Y-88.652
X166.688Y-23.019
X168.275Y-76.597
X186.134Y-23.019
X186.928Y-40.878
X188.516Y-17.462
X206.375Y-21.431
X206.375Y-76.994
X217.884Y-18.653
X218.579Y-38.199
X225.425Y-77.391
X243.284Y-20.637
X243.284Y-41.672
X261.541Y-61.119
X262.334Y-23.416
X262.731Y-42.069
X263.128Y-76.994
X263.525Y-34.131
X271.462Y-74.216
X278.606Y-68.659
X281.384Y-23.019
X281.384Y-61.119
X281.781Y-81.756
X282.178Y-42.466
X282.178Y-49.212
X288.528Y-83.741
X292.1Y-72.727
X295.672Y-61.119
X296.819Y-56.201
X296.819Y-60.666
X297.259Y-74.612
X297.483Y-84.994
X297.619Y-56.201
X297.619Y-60.666
X298.419Y-56.201
X298.419Y-60.666
X298.45Y-42.069
X298.45Y-65.881
X298.754Y-74.656
X299.051Y-46.894
X299.219Y-56.201
X299.219Y-60.666
X299.839Y-61.714
X299.893Y-70.094
X300.458Y-69.528
X301.024Y-68.962
X301.093Y-71.977
X301.659Y-68.476
X301.693Y-71.4
X302.22Y-58.44
X302.362Y-70.647
X302.992Y-70.154
X303.963Y-54.57
X304.006Y-23.416
X305.004Y-54.57
X305.004Y-58.142
X305.977Y-84.994
X306.335Y-62.591
X306.335Y-64.991
X306.735Y-68.908
X307.386Y-54.57
X307.535Y-63.791
X307.804Y-74.249
X307.981Y-53.076
X308.087Y-57.538
X308.158Y-71.491
X308.427Y-54.57
X308.623Y-52.598
X308.735Y-62.591
X308.735Y-64.991
X310.852Y-53.082
X312.34Y-61.391
X313.531Y-61.119
X314.722Y-60.821
X314.722Y-62.012
X317.103Y-73.025
X317.103Y-80.169
X317.149Y-51.656
X318.293Y-65.286
X318.591Y-72.43
X320.079Y-71.834
X320.278Y-41.672
X320.972Y-52.784
X321.568Y-72.43
X323.056Y-30.46
X323.056Y-70.048
X323.056Y-73.025
T2
X298.754Y-70.935
X298.946Y-51.594
X303.963Y-58.582
X307.832Y-40.574
T3
X297.404Y-89.892
X299.944Y-89.892
X302.484Y-89.892
X305.024Y-89.892
X307.564Y-89.892
X313.412Y-18.4
X313.412Y-32.9
X313.412Y-42.212
X313.412Y-56.712
X315.912Y-32.9
X315.912Y-56.712
X318.412Y-18.4
X318.412Y-32.9
X318.412Y-42.212
X318.412Y-56.712
T4
X21.59Y-22.86
X21.59Y-41.91
X21.59Y-60.96
X21.59Y-80.01
X25.241Y-49.53
X27.94Y-20.32
X27.94Y-39.37
X27.94Y-58.42
X27.94Y-77.47
X30.004Y-68.58
X31.591Y-46.99
X36.354Y-66.04
X40.64Y-22.86
X40.64Y-41.91
X40.64Y-60.96
X40.64Y-80.01
X46.672Y-49.53
X46.99Y-20.32
X46.99Y-39.37
X46.99Y-58.42
X46.99Y-77.47
X53.022Y-46.99
X54.927Y-60.96
X59.69Y-22.86
X59.69Y-41.91
X59.69Y-80.01
X60.96Y-68.58
X61.277Y-58.42
X65.722Y-49.53
X66.04Y-20.32
X66.04Y-39.37
X66.04Y-77.47
X67.31Y-66.04
X72.072Y-46.99
X73.977Y-60.96
X78.74Y-22.86
X78.74Y-41.91
X78.74Y-80.01
X80.01Y-68.58
X80.327Y-58.42
X84.772Y-49.53
X85.09Y-20.32
X85.09Y-39.37
X85.09Y-77.47
X86.36Y-66.04
X89.535Y-87.63
X91.122Y-46.99
X93.027Y-60.96
X95.885Y-85.09
X97.79Y-22.86
X97.79Y-41.91
X97.79Y-80.01
X99.06Y-68.58
X99.377Y-58.42
X103.822Y-49.53
X104.14Y-20.32
X104.14Y-39.37
X104.14Y-77.47
X105.41Y-66.04
X108.585Y-87.63
X110.172Y-46.99
X112.077Y-60.96
X114.935Y-85.09
X116.84Y-22.86
X116.84Y-41.91
X116.84Y-80.01
X118.11Y-68.58
X118.427Y-58.42
X122.872Y-49.53
X123.19Y-20.32
X123.19Y-39.37
X123.19Y-77.47
X124.46Y-66.04
X127.635Y-87.63
X129.222Y-46.99
X131.127Y-60.96
X133.985Y-85.09
X135.89Y-22.86
X135.89Y-41.91
X135.89Y-80.01
X137.16Y-68.58
X137.477Y-58.42
X141.922Y-49.53
X142.24Y-20.32
X142.24Y-39.37
X142.24Y-77.47
X143.51Y-66.04
X146.685Y-87.63
X148.272Y-46.99
X150.177Y-60.96
X153.035Y-85.09
X154.94Y-22.86
X154.94Y-41.91
X154.94Y-80.01
X156.21Y-68.58
X156.527Y-58.42
X160.972Y-49.53
X161.29Y-20.32
X161.29Y-39.37
X161.29Y-77.47
X162.56Y-66.04
X167.322Y-46.99
X169.227Y-60.96
X173.99Y-22.86
X173.99Y-41.91
X173.99Y-80.01
X175.26Y-68.58
X175.577Y-58.42
X180.022Y-49.53
X180.34Y-20.32
X180.34Y-39.37
X180.34Y-77.47
X181.61Y-66.04
X186.372Y-46.99
X188.277Y-60.96
X193.04Y-22.86
X193.04Y-41.91
X193.04Y-80.01
X194.31Y-68.58
X194.627Y-58.42
X199.072Y-49.53
X199.39Y-20.32
X199.39Y-39.37
X199.39Y-77.47
X200.66Y-66.04
X203.835Y-87.63
X205.422Y-46.99
X207.327Y-60.96
X210.185Y-85.09
X212.09Y-80.01
X213.36Y-30.48
X213.36Y-49.53
X213.36Y-68.58
X213.677Y-58.42
X218.44Y-77.47
X219.71Y-27.94
X219.71Y-46.99
X219.71Y-66.04
X221.615Y-22.86
X222.885Y-87.63
X223.996Y-41.91
X227.965Y-20.32
X228.759Y-60.96
X229.235Y-85.09
X230.346Y-39.37
X231.14Y-80.01
X232.41Y-30.48
X232.41Y-49.53
X232.41Y-68.58
X235.109Y-58.42
X237.49Y-77.47
X238.76Y-27.94
X238.76Y-46.99
X238.76Y-66.04
X250.19Y-22.86
X250.19Y-41.91
X250.19Y-60.96
X250.19Y-80.01
X256.54Y-20.32
X256.54Y-39.37
X256.54Y-58.42
X256.54Y-77.47
X260.985Y-87.63
X267.335Y-85.09
X269.24Y-22.86
X269.24Y-41.91
X269.24Y-60.96
X269.24Y-80.01
X275.59Y-20.32
X275.59Y-39.37
X275.59Y-58.42
X275.59Y-77.47
X288.29Y-22.86
X288.29Y-41.91
X288.29Y-60.96
X288.29Y-80.01
X294.64Y-20.32
X294.64Y-39.37
X294.64Y-58.42
X294.64Y-77.47
X307.34Y-80.01
X312.102Y-22.86
X312.102Y-46.672
X313.69Y-77.47
X318.452Y-20.32
X318.452Y-44.133
M30
