%TF.GenerationSoftware,KiCad,Pcbnew,8.0.4-1.fc39*%
%TF.CreationDate,2024-09-17T18:41:10-04:00*%
%TF.ProjectId,Q9-Chimera,51392d43-6869-46d6-9572-612e6b696361,rev?*%
%TF.SameCoordinates,Original*%
%TF.FileFunction,Drillmap*%
%TF.FilePolarity,Positive*%
%FSLAX45Y45*%
G04 Gerber Fmt 4.5, Leading zero omitted, Abs format (unit mm)*
G04 Created by KiCad (PCBNEW 8.0.4-1.fc39) date 2024-09-17 18:41:10*
%MOMM*%
%LPD*%
G01*
G04 APERTURE LIST*
%ADD10C,0.050000*%
%ADD11C,0.200000*%
%ADD12C,0.100000*%
%ADD13C,0.300000*%
G04 APERTURE END LIST*
D10*
X1746250Y-9207500D02*
G75*
G02*
X1587500Y-9048750I0J158750D01*
G01*
X16629062Y-9207500D02*
G75*
G02*
X17502188Y-9207500I436563J-357187D01*
G01*
X1944687Y-9207500D02*
G75*
G02*
X2817812Y-9207500I436563J-357187D01*
G01*
X32186562Y-1587500D02*
G75*
G02*
X31313437Y-1587500I-436563J623476D01*
G01*
X32186562Y-9207500D02*
X32385000Y-9207500D01*
X17502188Y-9207500D02*
X31313437Y-9207500D01*
X32543750Y-9048750D02*
G75*
G02*
X32385000Y-9207500I-158750J0D01*
G01*
X7302500Y-1587500D02*
X7024687Y-1865312D01*
X1587500Y-1944687D02*
G75*
G02*
X1666875Y-1865310I79380J-3D01*
G01*
X1587500Y-1944687D02*
X1587500Y-9048750D01*
X17502188Y-1587500D02*
G75*
G02*
X16629062Y-1587500I-436563J568939D01*
G01*
X31313437Y-9207500D02*
G75*
G02*
X32186562Y-9207500I436563J-357187D01*
G01*
X1746250Y-9207500D02*
X1944687Y-9207500D01*
X7024687Y-1865312D02*
X1666875Y-1865312D01*
X32186562Y-1587500D02*
X32385000Y-1587500D01*
X17502188Y-1587500D02*
X31313437Y-1587500D01*
X16629062Y-1587500D02*
X7302500Y-1587500D01*
X32385000Y-1587500D02*
G75*
G02*
X32543750Y-1746250I0J-158750D01*
G01*
X16629062Y-9207500D02*
X2817812Y-9207500D01*
X32543750Y-1746250D02*
X32543750Y-9048750D01*
D11*
D12*
X3298905Y-3388202D02*
X3328905Y-3418202D01*
X3328905Y-3388202D02*
X3298905Y-3418202D01*
X3298905Y-3477498D02*
X3328905Y-3507498D01*
X3328905Y-3477498D02*
X3298905Y-3507498D01*
X3537030Y-3388202D02*
X3567030Y-3418202D01*
X3567030Y-3388202D02*
X3537030Y-3418202D01*
X3537030Y-3477498D02*
X3567030Y-3507498D01*
X3567030Y-3477498D02*
X3537030Y-3507498D01*
X5536747Y-3239375D02*
X5566747Y-3269375D01*
X5566747Y-3239375D02*
X5536747Y-3269375D01*
X5541250Y-5382500D02*
X5571250Y-5412500D01*
X5571250Y-5382500D02*
X5541250Y-5412500D01*
X7168433Y-3031014D02*
X7198433Y-3061014D01*
X7198433Y-3031014D02*
X7168433Y-3061014D01*
X7227964Y-2167812D02*
X7257964Y-2197812D01*
X7257964Y-2167812D02*
X7227964Y-2197812D01*
X7451206Y-8299532D02*
X7481206Y-8329532D01*
X7481206Y-8299532D02*
X7451206Y-8329532D01*
X7724062Y-7247812D02*
X7754062Y-7277812D01*
X7754062Y-7247812D02*
X7724062Y-7277812D01*
X8373940Y-8582305D02*
X8403940Y-8612305D01*
X8403940Y-8582305D02*
X8373940Y-8612305D01*
X8418588Y-8031642D02*
X8448588Y-8061642D01*
X8448588Y-8031642D02*
X8418588Y-8061642D01*
X9113125Y-2286875D02*
X9143125Y-2316875D01*
X9143125Y-2286875D02*
X9113125Y-2316875D01*
X9132975Y-7406561D02*
X9162975Y-7436561D01*
X9162975Y-7406561D02*
X9132975Y-7436561D01*
X10085462Y-7882814D02*
X10115462Y-7912814D01*
X10115462Y-7882814D02*
X10085462Y-7912814D01*
X10621250Y-5779375D02*
X10651250Y-5809375D01*
X10651250Y-5779375D02*
X10621250Y-5809375D01*
X10978438Y-2286875D02*
X11008438Y-2316875D01*
X11008438Y-2286875D02*
X10978438Y-2316875D01*
X11097500Y-7644687D02*
X11127500Y-7674687D01*
X11127500Y-7644687D02*
X11097500Y-7674687D01*
X11930937Y-7763750D02*
X11960937Y-7793750D01*
X11960937Y-7763750D02*
X11930937Y-7793750D01*
X12565937Y-5858750D02*
X12595937Y-5888750D01*
X12595937Y-5858750D02*
X12565937Y-5888750D01*
X12645322Y-7942343D02*
X12675322Y-7972343D01*
X12675322Y-7942343D02*
X12645322Y-7972343D01*
X12883437Y-2247188D02*
X12913437Y-2277188D01*
X12913437Y-2247188D02*
X12883437Y-2277188D01*
X14103818Y-8612071D02*
X14133818Y-8642071D01*
X14133818Y-8612071D02*
X14103818Y-8642071D01*
X14470937Y-5779375D02*
X14500937Y-5809375D01*
X14500937Y-5779375D02*
X14470937Y-5809375D01*
X14748750Y-2286875D02*
X14778750Y-2316875D01*
X14778750Y-2286875D02*
X14748750Y-2316875D01*
X14828125Y-1731250D02*
X14858125Y-1761250D01*
X14858125Y-1731250D02*
X14828125Y-1761250D01*
X14867812Y-7644687D02*
X14897812Y-7674687D01*
X14897812Y-7644687D02*
X14867812Y-7674687D01*
X15041434Y-8850196D02*
X15071434Y-8880196D01*
X15071434Y-8850196D02*
X15041434Y-8880196D01*
X16653750Y-2286875D02*
X16683750Y-2316875D01*
X16683750Y-2286875D02*
X16653750Y-2316875D01*
X16812500Y-7644687D02*
X16842500Y-7674687D01*
X16842500Y-7644687D02*
X16812500Y-7674687D01*
X18598438Y-2286875D02*
X18628438Y-2316875D01*
X18628438Y-2286875D02*
X18598438Y-2316875D01*
X18677813Y-4072812D02*
X18707813Y-4102812D01*
X18707813Y-4072812D02*
X18677813Y-4102812D01*
X18836563Y-1731250D02*
X18866563Y-1761250D01*
X18866563Y-1731250D02*
X18836563Y-1761250D01*
X20622500Y-2128125D02*
X20652500Y-2158125D01*
X20652500Y-2128125D02*
X20622500Y-2158125D01*
X20622500Y-7684375D02*
X20652500Y-7714375D01*
X20652500Y-7684375D02*
X20622500Y-7714375D01*
X21773438Y-1850312D02*
X21803438Y-1880312D01*
X21803438Y-1850312D02*
X21773438Y-1880312D01*
X21842874Y-3804920D02*
X21872874Y-3834920D01*
X21872874Y-3804920D02*
X21842874Y-3834920D01*
X22527500Y-7724062D02*
X22557500Y-7754062D01*
X22557500Y-7724062D02*
X22527500Y-7754062D01*
X24313437Y-2048750D02*
X24343437Y-2078750D01*
X24343437Y-2048750D02*
X24313437Y-2078750D01*
X24313437Y-4152187D02*
X24343437Y-4182187D01*
X24343437Y-4152187D02*
X24313437Y-4182187D01*
X26139062Y-6096875D02*
X26169062Y-6126875D01*
X26169062Y-6096875D02*
X26139062Y-6126875D01*
X26218437Y-2326563D02*
X26248437Y-2356563D01*
X26248437Y-2326563D02*
X26218437Y-2356563D01*
X26258125Y-4191875D02*
X26288125Y-4221875D01*
X26288125Y-4191875D02*
X26258125Y-4221875D01*
X26297812Y-7684375D02*
X26327812Y-7714375D01*
X26327812Y-7684375D02*
X26297812Y-7714375D01*
X26337500Y-3398125D02*
X26367500Y-3428125D01*
X26367500Y-3398125D02*
X26337500Y-3428125D01*
X27131250Y-7406562D02*
X27161250Y-7436562D01*
X27161250Y-7406562D02*
X27131250Y-7436562D01*
X27845625Y-6850937D02*
X27875625Y-6880937D01*
X27875625Y-6850937D02*
X27845625Y-6880937D01*
X28123437Y-2286875D02*
X28153437Y-2316875D01*
X28153437Y-2286875D02*
X28123437Y-2316875D01*
X28123437Y-6096875D02*
X28153437Y-6126875D01*
X28153437Y-6096875D02*
X28123437Y-6126875D01*
X28163125Y-8160625D02*
X28193125Y-8190625D01*
X28193125Y-8160625D02*
X28163125Y-8190625D01*
X28202812Y-4231563D02*
X28232812Y-4261563D01*
X28232812Y-4231563D02*
X28202812Y-4261563D01*
X28202812Y-4906250D02*
X28232812Y-4936250D01*
X28232812Y-4906250D02*
X28202812Y-4936250D01*
X28837812Y-8359062D02*
X28867812Y-8389063D01*
X28867812Y-8359062D02*
X28837812Y-8389063D01*
X29194977Y-7257730D02*
X29224977Y-7287730D01*
X29224977Y-7257730D02*
X29194977Y-7287730D01*
X29552187Y-6096875D02*
X29582187Y-6126875D01*
X29582187Y-6096875D02*
X29552187Y-6126875D01*
X29666889Y-5605112D02*
X29696889Y-5635112D01*
X29696889Y-5605112D02*
X29666889Y-5635112D01*
X29666889Y-6051596D02*
X29696889Y-6081596D01*
X29696889Y-6051596D02*
X29666889Y-6081596D01*
X29710937Y-7446250D02*
X29740937Y-7476250D01*
X29740937Y-7446250D02*
X29710937Y-7476250D01*
X29733303Y-8484375D02*
X29763303Y-8514375D01*
X29763303Y-8484375D02*
X29733303Y-8514375D01*
X29746889Y-5605112D02*
X29776889Y-5635112D01*
X29776889Y-5605112D02*
X29746889Y-5635112D01*
X29746889Y-6051596D02*
X29776889Y-6081596D01*
X29776889Y-6051596D02*
X29746889Y-6081596D01*
X29826890Y-5605112D02*
X29856890Y-5635112D01*
X29856890Y-5605112D02*
X29826890Y-5635112D01*
X29826890Y-6051596D02*
X29856890Y-6081596D01*
X29856890Y-6051596D02*
X29826890Y-6081596D01*
X29830000Y-4191875D02*
X29860000Y-4221875D01*
X29860000Y-4191875D02*
X29830000Y-4221875D01*
X29830000Y-6573125D02*
X29860000Y-6603125D01*
X29860000Y-6573125D02*
X29830000Y-6603125D01*
X29860366Y-7450580D02*
X29890366Y-7480580D01*
X29890366Y-7450580D02*
X29860366Y-7480580D01*
X29890130Y-4674375D02*
X29920130Y-4704375D01*
X29920130Y-4674375D02*
X29890130Y-4704375D01*
X29906890Y-5605112D02*
X29936890Y-5635112D01*
X29936890Y-5605112D02*
X29906890Y-5635112D01*
X29906890Y-6051596D02*
X29936890Y-6081596D01*
X29936890Y-6051596D02*
X29906890Y-6081596D01*
X29968882Y-6156402D02*
X29998882Y-6186402D01*
X29998882Y-6156402D02*
X29968882Y-6186402D01*
X29974264Y-6994377D02*
X30004264Y-7024377D01*
X30004264Y-6994377D02*
X29974264Y-7024377D01*
X30030833Y-6937808D02*
X30060833Y-6967808D01*
X30060833Y-6937808D02*
X30030833Y-6967808D01*
X30087401Y-6881239D02*
X30117401Y-6911239D01*
X30117401Y-6881239D02*
X30087401Y-6911239D01*
X30094311Y-7182689D02*
X30124311Y-7212689D01*
X30124311Y-7182689D02*
X30094311Y-7212689D01*
X30150929Y-6832616D02*
X30180929Y-6862616D01*
X30180929Y-6832616D02*
X30150929Y-6862616D01*
X30154311Y-7124989D02*
X30184311Y-7154989D01*
X30184311Y-7124989D02*
X30154311Y-7154989D01*
X30207007Y-5828981D02*
X30237007Y-5858981D01*
X30237007Y-5828981D02*
X30207007Y-5858981D01*
X30221151Y-7049659D02*
X30251151Y-7079659D01*
X30251151Y-7049659D02*
X30221151Y-7079659D01*
X30284173Y-7000382D02*
X30314173Y-7030382D01*
X30314173Y-7000382D02*
X30284173Y-7030382D01*
X30381264Y-5442028D02*
X30411264Y-5472028D01*
X30411264Y-5442028D02*
X30381264Y-5472028D01*
X30385625Y-2326563D02*
X30415625Y-2356563D01*
X30415625Y-2326563D02*
X30385625Y-2356563D01*
X30485443Y-5442028D02*
X30515443Y-5472028D01*
X30515443Y-5442028D02*
X30485443Y-5472028D01*
X30485443Y-5799215D02*
X30515443Y-5829215D01*
X30515443Y-5799215D02*
X30485443Y-5829215D01*
X30582741Y-8484375D02*
X30612741Y-8514375D01*
X30612741Y-8484375D02*
X30582741Y-8514375D01*
X30618451Y-6244135D02*
X30648451Y-6274135D01*
X30648451Y-6244135D02*
X30618451Y-6274135D01*
X30618451Y-6484135D02*
X30648451Y-6514135D01*
X30648451Y-6484135D02*
X30618451Y-6514135D01*
X30658451Y-6875830D02*
X30688451Y-6905830D01*
X30688451Y-6875830D02*
X30658451Y-6905830D01*
X30723568Y-5442028D02*
X30753568Y-5472028D01*
X30753568Y-5442028D02*
X30723568Y-5472028D01*
X30738451Y-6364135D02*
X30768451Y-6394135D01*
X30768451Y-6364135D02*
X30738451Y-6394135D01*
X30765421Y-7409872D02*
X30795421Y-7439872D01*
X30795421Y-7409872D02*
X30765421Y-7439872D01*
X30783099Y-5292574D02*
X30813099Y-5322574D01*
X30813099Y-5292574D02*
X30783099Y-5322574D01*
X30793697Y-5738829D02*
X30823697Y-5768829D01*
X30823697Y-5738829D02*
X30793697Y-5768829D01*
X30800777Y-7134100D02*
X30830777Y-7164100D01*
X30830777Y-7134100D02*
X30800777Y-7164100D01*
X30827748Y-5442028D02*
X30857748Y-5472028D01*
X30857748Y-5442028D02*
X30827748Y-5472028D01*
X30847279Y-5244815D02*
X30877279Y-5274815D01*
X30877279Y-5244815D02*
X30847279Y-5274815D01*
X30858451Y-6244135D02*
X30888451Y-6274135D01*
X30888451Y-6244135D02*
X30858451Y-6274135D01*
X30858451Y-6484135D02*
X30888451Y-6514135D01*
X30888451Y-6484135D02*
X30858451Y-6514135D01*
X31070210Y-5293200D02*
X31100210Y-5323200D01*
X31100210Y-5293200D02*
X31070210Y-5323200D01*
X31219038Y-6124135D02*
X31249038Y-6154135D01*
X31249038Y-6124135D02*
X31219038Y-6154135D01*
X31338100Y-6096871D02*
X31368100Y-6126871D01*
X31368100Y-6096871D02*
X31338100Y-6126871D01*
X31457162Y-6067106D02*
X31487162Y-6097106D01*
X31487162Y-6067106D02*
X31457162Y-6097106D01*
X31457162Y-6186168D02*
X31487162Y-6216168D01*
X31487162Y-6186168D02*
X31457162Y-6216168D01*
X31695287Y-7287495D02*
X31725287Y-7317495D01*
X31725287Y-7287495D02*
X31695287Y-7317495D01*
X31695312Y-8001875D02*
X31725312Y-8031875D01*
X31725312Y-8001875D02*
X31695312Y-8031875D01*
X31699855Y-5150625D02*
X31729855Y-5180625D01*
X31729855Y-5150625D02*
X31699855Y-5180625D01*
X31814350Y-6513590D02*
X31844350Y-6543590D01*
X31844350Y-6513590D02*
X31814350Y-6543590D01*
X31844115Y-7227964D02*
X31874115Y-7257964D01*
X31874115Y-7227964D02*
X31844115Y-7257964D01*
X31992943Y-7168433D02*
X32022943Y-7198433D01*
X32022943Y-7168433D02*
X31992943Y-7198433D01*
X32012812Y-4152187D02*
X32042812Y-4182187D01*
X32042812Y-4152187D02*
X32012812Y-4182187D01*
X32082240Y-5263434D02*
X32112240Y-5293434D01*
X32112240Y-5263434D02*
X32082240Y-5293434D01*
X32141771Y-7227964D02*
X32171771Y-7257964D01*
X32171771Y-7227964D02*
X32141771Y-7257964D01*
X32290599Y-3031014D02*
X32320599Y-3061014D01*
X32320599Y-3031014D02*
X32290599Y-3061014D01*
X32290599Y-6989839D02*
X32320599Y-7019839D01*
X32320599Y-6989839D02*
X32290599Y-7019839D01*
X32290599Y-7287495D02*
X32320599Y-7317495D01*
X32320599Y-7287495D02*
X32290599Y-7317495D01*
X29895366Y-7093510D02*
G75*
G02*
X29855366Y-7093510I-20000J0D01*
G01*
X29855366Y-7093510D02*
G75*
G02*
X29895366Y-7093510I20000J0D01*
G01*
X29914586Y-5159372D02*
G75*
G02*
X29874586Y-5159372I-20000J0D01*
G01*
X29874586Y-5159372D02*
G75*
G02*
X29914586Y-5159372I20000J0D01*
G01*
X30416264Y-5858237D02*
G75*
G02*
X30376264Y-5858237I-20000J0D01*
G01*
X30376264Y-5858237D02*
G75*
G02*
X30416264Y-5858237I20000J0D01*
G01*
X30803216Y-4057418D02*
G75*
G02*
X30763216Y-4057418I-20000J0D01*
G01*
X30763216Y-4057418D02*
G75*
G02*
X30803216Y-4057418I20000J0D01*
G01*
X29740428Y-8939211D02*
X29740428Y-9039211D01*
X29690428Y-8989211D02*
X29790428Y-8989211D01*
X29994428Y-8939211D02*
X29994428Y-9039211D01*
X29944428Y-8989211D02*
X30044428Y-8989211D01*
X30248428Y-8939211D02*
X30248428Y-9039211D01*
X30198428Y-8989211D02*
X30298428Y-8989211D01*
X30502428Y-8939211D02*
X30502428Y-9039211D01*
X30452428Y-8989211D02*
X30552428Y-8989211D01*
X30756428Y-8939211D02*
X30756428Y-9039211D01*
X30706428Y-8989211D02*
X30806428Y-8989211D01*
X31341250Y-1790000D02*
X31341250Y-1890000D01*
X31291250Y-1840000D02*
X31391250Y-1840000D01*
X31341250Y-3240000D02*
X31341250Y-3340000D01*
X31291250Y-3290000D02*
X31391250Y-3290000D01*
X31341250Y-4171250D02*
X31341250Y-4271250D01*
X31291250Y-4221250D02*
X31391250Y-4221250D01*
X31341250Y-5621250D02*
X31341250Y-5721250D01*
X31291250Y-5671250D02*
X31391250Y-5671250D01*
X31591250Y-3240000D02*
X31591250Y-3340000D01*
X31541250Y-3290000D02*
X31641250Y-3290000D01*
X31591250Y-5621250D02*
X31591250Y-5721250D01*
X31541250Y-5671250D02*
X31641250Y-5671250D01*
X31841250Y-1790000D02*
X31841250Y-1890000D01*
X31791250Y-1840000D02*
X31891250Y-1840000D01*
X31841250Y-3240000D02*
X31841250Y-3340000D01*
X31791250Y-3290000D02*
X31891250Y-3290000D01*
X31841250Y-4171250D02*
X31841250Y-4271250D01*
X31791250Y-4221250D02*
X31891250Y-4221250D01*
X31841250Y-5621250D02*
X31841250Y-5721250D01*
X31791250Y-5671250D02*
X31891250Y-5671250D01*
D13*
X2265067Y-2392067D02*
X2265067Y-2179933D01*
X2052933Y-2179933D01*
X2052933Y-2392067D01*
X2265067Y-2392067D01*
X2265067Y-4297067D02*
X2265067Y-4084933D01*
X2052933Y-4084933D01*
X2052933Y-4297067D01*
X2265067Y-4297067D01*
X2265067Y-6202067D02*
X2265067Y-5989933D01*
X2052933Y-5989933D01*
X2052933Y-6202067D01*
X2265067Y-6202067D01*
X2265067Y-8107067D02*
X2265067Y-7894933D01*
X2052933Y-7894933D01*
X2052933Y-8107067D01*
X2265067Y-8107067D01*
X2630191Y-5059067D02*
X2630191Y-4846933D01*
X2418057Y-4846933D01*
X2418057Y-5059067D01*
X2630191Y-5059067D01*
X2900067Y-2138067D02*
X2900067Y-1925933D01*
X2687933Y-1925933D01*
X2687933Y-2138067D01*
X2900067Y-2138067D01*
X2900067Y-4043067D02*
X2900067Y-3830933D01*
X2687933Y-3830933D01*
X2687933Y-4043067D01*
X2900067Y-4043067D01*
X2900067Y-5948067D02*
X2900067Y-5735933D01*
X2687933Y-5735933D01*
X2687933Y-5948067D01*
X2900067Y-5948067D01*
X2900067Y-7853067D02*
X2900067Y-7640933D01*
X2687933Y-7640933D01*
X2687933Y-7853067D01*
X2900067Y-7853067D01*
X3106441Y-6964067D02*
X3106441Y-6751933D01*
X2894307Y-6751933D01*
X2894307Y-6964067D01*
X3106441Y-6964067D01*
X3265191Y-4805067D02*
X3265191Y-4592933D01*
X3053057Y-4592933D01*
X3053057Y-4805067D01*
X3265191Y-4805067D01*
X3741441Y-6710067D02*
X3741441Y-6497933D01*
X3529307Y-6497933D01*
X3529307Y-6710067D01*
X3741441Y-6710067D01*
X4170067Y-2392067D02*
X4170067Y-2179933D01*
X3957933Y-2179933D01*
X3957933Y-2392067D01*
X4170067Y-2392067D01*
X4170067Y-4297067D02*
X4170067Y-4084933D01*
X3957933Y-4084933D01*
X3957933Y-4297067D01*
X4170067Y-4297067D01*
X4170067Y-6202067D02*
X4170067Y-5989933D01*
X3957933Y-5989933D01*
X3957933Y-6202067D01*
X4170067Y-6202067D01*
X4170067Y-8107067D02*
X4170067Y-7894933D01*
X3957933Y-7894933D01*
X3957933Y-8107067D01*
X4170067Y-8107067D01*
X4773314Y-5059067D02*
X4773314Y-4846933D01*
X4561180Y-4846933D01*
X4561180Y-5059067D01*
X4773314Y-5059067D01*
X4805067Y-2138067D02*
X4805067Y-1925933D01*
X4592933Y-1925933D01*
X4592933Y-2138067D01*
X4805067Y-2138067D01*
X4805067Y-4043067D02*
X4805067Y-3830933D01*
X4592933Y-3830933D01*
X4592933Y-4043067D01*
X4805067Y-4043067D01*
X4805067Y-5948067D02*
X4805067Y-5735933D01*
X4592933Y-5735933D01*
X4592933Y-5948067D01*
X4805067Y-5948067D01*
X4805067Y-7853067D02*
X4805067Y-7640933D01*
X4592933Y-7640933D01*
X4592933Y-7853067D01*
X4805067Y-7853067D01*
X5408314Y-4805067D02*
X5408314Y-4592933D01*
X5196180Y-4592933D01*
X5196180Y-4805067D01*
X5408314Y-4805067D01*
X5598813Y-6202067D02*
X5598813Y-5989933D01*
X5386679Y-5989933D01*
X5386679Y-6202067D01*
X5598813Y-6202067D01*
X6075067Y-2392067D02*
X6075067Y-2179933D01*
X5862933Y-2179933D01*
X5862933Y-2392067D01*
X6075067Y-2392067D01*
X6075067Y-4297067D02*
X6075067Y-4084933D01*
X5862933Y-4084933D01*
X5862933Y-4297067D01*
X6075067Y-4297067D01*
X6075067Y-8107067D02*
X6075067Y-7894933D01*
X5862933Y-7894933D01*
X5862933Y-8107067D01*
X6075067Y-8107067D01*
X6202067Y-6964067D02*
X6202067Y-6751933D01*
X5989933Y-6751933D01*
X5989933Y-6964067D01*
X6202067Y-6964067D01*
X6233813Y-5948067D02*
X6233813Y-5735933D01*
X6021679Y-5735933D01*
X6021679Y-5948067D01*
X6233813Y-5948067D01*
X6678313Y-5059067D02*
X6678313Y-4846933D01*
X6466179Y-4846933D01*
X6466179Y-5059067D01*
X6678313Y-5059067D01*
X6710067Y-2138067D02*
X6710067Y-1925933D01*
X6497933Y-1925933D01*
X6497933Y-2138067D01*
X6710067Y-2138067D01*
X6710067Y-4043067D02*
X6710067Y-3830933D01*
X6497933Y-3830933D01*
X6497933Y-4043067D01*
X6710067Y-4043067D01*
X6710067Y-7853067D02*
X6710067Y-7640933D01*
X6497933Y-7640933D01*
X6497933Y-7853067D01*
X6710067Y-7853067D01*
X6837067Y-6710067D02*
X6837067Y-6497933D01*
X6624933Y-6497933D01*
X6624933Y-6710067D01*
X6837067Y-6710067D01*
X7313313Y-4805067D02*
X7313313Y-4592933D01*
X7101179Y-4592933D01*
X7101179Y-4805067D01*
X7313313Y-4805067D01*
X7503812Y-6202067D02*
X7503812Y-5989933D01*
X7291678Y-5989933D01*
X7291678Y-6202067D01*
X7503812Y-6202067D01*
X7980067Y-2392067D02*
X7980067Y-2179933D01*
X7767933Y-2179933D01*
X7767933Y-2392067D01*
X7980067Y-2392067D01*
X7980067Y-4297067D02*
X7980067Y-4084933D01*
X7767933Y-4084933D01*
X7767933Y-4297067D01*
X7980067Y-4297067D01*
X7980067Y-8107067D02*
X7980067Y-7894933D01*
X7767933Y-7894933D01*
X7767933Y-8107067D01*
X7980067Y-8107067D01*
X8107067Y-6964067D02*
X8107067Y-6751933D01*
X7894933Y-6751933D01*
X7894933Y-6964067D01*
X8107067Y-6964067D01*
X8138812Y-5948067D02*
X8138812Y-5735933D01*
X7926678Y-5735933D01*
X7926678Y-5948067D01*
X8138812Y-5948067D01*
X8583311Y-5059067D02*
X8583311Y-4846933D01*
X8371177Y-4846933D01*
X8371177Y-5059067D01*
X8583311Y-5059067D01*
X8615067Y-2138067D02*
X8615067Y-1925933D01*
X8402933Y-1925933D01*
X8402933Y-2138067D01*
X8615067Y-2138067D01*
X8615067Y-4043067D02*
X8615067Y-3830933D01*
X8402933Y-3830933D01*
X8402933Y-4043067D01*
X8615067Y-4043067D01*
X8615067Y-7853067D02*
X8615067Y-7640933D01*
X8402933Y-7640933D01*
X8402933Y-7853067D01*
X8615067Y-7853067D01*
X8742067Y-6710067D02*
X8742067Y-6497933D01*
X8529933Y-6497933D01*
X8529933Y-6710067D01*
X8742067Y-6710067D01*
X9059567Y-8869067D02*
X9059567Y-8656933D01*
X8847433Y-8656933D01*
X8847433Y-8869067D01*
X9059567Y-8869067D01*
X9218311Y-4805067D02*
X9218311Y-4592933D01*
X9006177Y-4592933D01*
X9006177Y-4805067D01*
X9218311Y-4805067D01*
X9408810Y-6202067D02*
X9408810Y-5989933D01*
X9196676Y-5989933D01*
X9196676Y-6202067D01*
X9408810Y-6202067D01*
X9694567Y-8615067D02*
X9694567Y-8402933D01*
X9482433Y-8402933D01*
X9482433Y-8615067D01*
X9694567Y-8615067D01*
X9885067Y-2392067D02*
X9885067Y-2179933D01*
X9672933Y-2179933D01*
X9672933Y-2392067D01*
X9885067Y-2392067D01*
X9885067Y-4297067D02*
X9885067Y-4084933D01*
X9672933Y-4084933D01*
X9672933Y-4297067D01*
X9885067Y-4297067D01*
X9885067Y-8107067D02*
X9885067Y-7894933D01*
X9672933Y-7894933D01*
X9672933Y-8107067D01*
X9885067Y-8107067D01*
X10012067Y-6964067D02*
X10012067Y-6751933D01*
X9799933Y-6751933D01*
X9799933Y-6964067D01*
X10012067Y-6964067D01*
X10043810Y-5948067D02*
X10043810Y-5735933D01*
X9831676Y-5735933D01*
X9831676Y-5948067D01*
X10043810Y-5948067D01*
X10488309Y-5059067D02*
X10488309Y-4846933D01*
X10276175Y-4846933D01*
X10276175Y-5059067D01*
X10488309Y-5059067D01*
X10520067Y-2138067D02*
X10520067Y-1925933D01*
X10307933Y-1925933D01*
X10307933Y-2138067D01*
X10520067Y-2138067D01*
X10520067Y-4043067D02*
X10520067Y-3830933D01*
X10307933Y-3830933D01*
X10307933Y-4043067D01*
X10520067Y-4043067D01*
X10520067Y-7853067D02*
X10520067Y-7640933D01*
X10307933Y-7640933D01*
X10307933Y-7853067D01*
X10520067Y-7853067D01*
X10647067Y-6710067D02*
X10647067Y-6497933D01*
X10434933Y-6497933D01*
X10434933Y-6710067D01*
X10647067Y-6710067D01*
X10964567Y-8869067D02*
X10964567Y-8656933D01*
X10752433Y-8656933D01*
X10752433Y-8869067D01*
X10964567Y-8869067D01*
X11123309Y-4805067D02*
X11123309Y-4592933D01*
X10911175Y-4592933D01*
X10911175Y-4805067D01*
X11123309Y-4805067D01*
X11313809Y-6202067D02*
X11313809Y-5989933D01*
X11101675Y-5989933D01*
X11101675Y-6202067D01*
X11313809Y-6202067D01*
X11599567Y-8615067D02*
X11599567Y-8402933D01*
X11387433Y-8402933D01*
X11387433Y-8615067D01*
X11599567Y-8615067D01*
X11790067Y-2392067D02*
X11790067Y-2179933D01*
X11577933Y-2179933D01*
X11577933Y-2392067D01*
X11790067Y-2392067D01*
X11790067Y-4297067D02*
X11790067Y-4084933D01*
X11577933Y-4084933D01*
X11577933Y-4297067D01*
X11790067Y-4297067D01*
X11790067Y-8107067D02*
X11790067Y-7894933D01*
X11577933Y-7894933D01*
X11577933Y-8107067D01*
X11790067Y-8107067D01*
X11917067Y-6964067D02*
X11917067Y-6751933D01*
X11704933Y-6751933D01*
X11704933Y-6964067D01*
X11917067Y-6964067D01*
X11948809Y-5948067D02*
X11948809Y-5735933D01*
X11736675Y-5735933D01*
X11736675Y-5948067D01*
X11948809Y-5948067D01*
X12393308Y-5059067D02*
X12393308Y-4846933D01*
X12181174Y-4846933D01*
X12181174Y-5059067D01*
X12393308Y-5059067D01*
X12425067Y-2138067D02*
X12425067Y-1925933D01*
X12212933Y-1925933D01*
X12212933Y-2138067D01*
X12425067Y-2138067D01*
X12425067Y-4043067D02*
X12425067Y-3830933D01*
X12212933Y-3830933D01*
X12212933Y-4043067D01*
X12425067Y-4043067D01*
X12425067Y-7853067D02*
X12425067Y-7640933D01*
X12212933Y-7640933D01*
X12212933Y-7853067D01*
X12425067Y-7853067D01*
X12552067Y-6710067D02*
X12552067Y-6497933D01*
X12339933Y-6497933D01*
X12339933Y-6710067D01*
X12552067Y-6710067D01*
X12869557Y-8869066D02*
X12869557Y-8656932D01*
X12657423Y-8656932D01*
X12657423Y-8869066D01*
X12869557Y-8869066D01*
X13028308Y-4805067D02*
X13028308Y-4592933D01*
X12816174Y-4592933D01*
X12816174Y-4805067D01*
X13028308Y-4805067D01*
X13218807Y-6202067D02*
X13218807Y-5989933D01*
X13006673Y-5989933D01*
X13006673Y-6202067D01*
X13218807Y-6202067D01*
X13504557Y-8615066D02*
X13504557Y-8402932D01*
X13292423Y-8402932D01*
X13292423Y-8615066D01*
X13504557Y-8615066D01*
X13695067Y-2392067D02*
X13695067Y-2179933D01*
X13482933Y-2179933D01*
X13482933Y-2392067D01*
X13695067Y-2392067D01*
X13695067Y-4297067D02*
X13695067Y-4084933D01*
X13482933Y-4084933D01*
X13482933Y-4297067D01*
X13695067Y-4297067D01*
X13695067Y-8107067D02*
X13695067Y-7894933D01*
X13482933Y-7894933D01*
X13482933Y-8107067D01*
X13695067Y-8107067D01*
X13822067Y-6964067D02*
X13822067Y-6751933D01*
X13609933Y-6751933D01*
X13609933Y-6964067D01*
X13822067Y-6964067D01*
X13853807Y-5948067D02*
X13853807Y-5735933D01*
X13641673Y-5735933D01*
X13641673Y-5948067D01*
X13853807Y-5948067D01*
X14298306Y-5059067D02*
X14298306Y-4846933D01*
X14086172Y-4846933D01*
X14086172Y-5059067D01*
X14298306Y-5059067D01*
X14330067Y-2138067D02*
X14330067Y-1925933D01*
X14117933Y-1925933D01*
X14117933Y-2138067D01*
X14330067Y-2138067D01*
X14330067Y-4043067D02*
X14330067Y-3830933D01*
X14117933Y-3830933D01*
X14117933Y-4043067D01*
X14330067Y-4043067D01*
X14330067Y-7853067D02*
X14330067Y-7640933D01*
X14117933Y-7640933D01*
X14117933Y-7853067D01*
X14330067Y-7853067D01*
X14457067Y-6710067D02*
X14457067Y-6497933D01*
X14244933Y-6497933D01*
X14244933Y-6710067D01*
X14457067Y-6710067D01*
X14774567Y-8869067D02*
X14774567Y-8656933D01*
X14562433Y-8656933D01*
X14562433Y-8869067D01*
X14774567Y-8869067D01*
X14933306Y-4805067D02*
X14933306Y-4592933D01*
X14721172Y-4592933D01*
X14721172Y-4805067D01*
X14933306Y-4805067D01*
X15123805Y-6202067D02*
X15123805Y-5989933D01*
X14911671Y-5989933D01*
X14911671Y-6202067D01*
X15123805Y-6202067D01*
X15409567Y-8615067D02*
X15409567Y-8402933D01*
X15197433Y-8402933D01*
X15197433Y-8615067D01*
X15409567Y-8615067D01*
X15600067Y-2392067D02*
X15600067Y-2179933D01*
X15387933Y-2179933D01*
X15387933Y-2392067D01*
X15600067Y-2392067D01*
X15600067Y-4297067D02*
X15600067Y-4084933D01*
X15387933Y-4084933D01*
X15387933Y-4297067D01*
X15600067Y-4297067D01*
X15600067Y-8107067D02*
X15600067Y-7894933D01*
X15387933Y-7894933D01*
X15387933Y-8107067D01*
X15600067Y-8107067D01*
X15727067Y-6964067D02*
X15727067Y-6751933D01*
X15514933Y-6751933D01*
X15514933Y-6964067D01*
X15727067Y-6964067D01*
X15758805Y-5948067D02*
X15758805Y-5735933D01*
X15546671Y-5735933D01*
X15546671Y-5948067D01*
X15758805Y-5948067D01*
X16203305Y-5059067D02*
X16203305Y-4846933D01*
X15991171Y-4846933D01*
X15991171Y-5059067D01*
X16203305Y-5059067D01*
X16235067Y-2138067D02*
X16235067Y-1925933D01*
X16022933Y-1925933D01*
X16022933Y-2138067D01*
X16235067Y-2138067D01*
X16235067Y-4043067D02*
X16235067Y-3830933D01*
X16022933Y-3830933D01*
X16022933Y-4043067D01*
X16235067Y-4043067D01*
X16235067Y-7853067D02*
X16235067Y-7640933D01*
X16022933Y-7640933D01*
X16022933Y-7853067D01*
X16235067Y-7853067D01*
X16362067Y-6710067D02*
X16362067Y-6497933D01*
X16149933Y-6497933D01*
X16149933Y-6710067D01*
X16362067Y-6710067D01*
X16838305Y-4805067D02*
X16838305Y-4592933D01*
X16626171Y-4592933D01*
X16626171Y-4805067D01*
X16838305Y-4805067D01*
X17028804Y-6202067D02*
X17028804Y-5989933D01*
X16816670Y-5989933D01*
X16816670Y-6202067D01*
X17028804Y-6202067D01*
X17505067Y-2392067D02*
X17505067Y-2179933D01*
X17292933Y-2179933D01*
X17292933Y-2392067D01*
X17505067Y-2392067D01*
X17505067Y-4297067D02*
X17505067Y-4084933D01*
X17292933Y-4084933D01*
X17292933Y-4297067D01*
X17505067Y-4297067D01*
X17505067Y-8107067D02*
X17505067Y-7894933D01*
X17292933Y-7894933D01*
X17292933Y-8107067D01*
X17505067Y-8107067D01*
X17632067Y-6964067D02*
X17632067Y-6751933D01*
X17419933Y-6751933D01*
X17419933Y-6964067D01*
X17632067Y-6964067D01*
X17663804Y-5948067D02*
X17663804Y-5735933D01*
X17451670Y-5735933D01*
X17451670Y-5948067D01*
X17663804Y-5948067D01*
X18108303Y-5059067D02*
X18108303Y-4846933D01*
X17896169Y-4846933D01*
X17896169Y-5059067D01*
X18108303Y-5059067D01*
X18140067Y-2138067D02*
X18140067Y-1925933D01*
X17927933Y-1925933D01*
X17927933Y-2138067D01*
X18140067Y-2138067D01*
X18140067Y-4043067D02*
X18140067Y-3830933D01*
X17927933Y-3830933D01*
X17927933Y-4043067D01*
X18140067Y-4043067D01*
X18140067Y-7853067D02*
X18140067Y-7640933D01*
X17927933Y-7640933D01*
X17927933Y-7853067D01*
X18140067Y-7853067D01*
X18267067Y-6710067D02*
X18267067Y-6497933D01*
X18054933Y-6497933D01*
X18054933Y-6710067D01*
X18267067Y-6710067D01*
X18743303Y-4805067D02*
X18743303Y-4592933D01*
X18531169Y-4592933D01*
X18531169Y-4805067D01*
X18743303Y-4805067D01*
X18933802Y-6202067D02*
X18933802Y-5989933D01*
X18721668Y-5989933D01*
X18721668Y-6202067D01*
X18933802Y-6202067D01*
X19410067Y-2392067D02*
X19410067Y-2179933D01*
X19197933Y-2179933D01*
X19197933Y-2392067D01*
X19410067Y-2392067D01*
X19410067Y-4297067D02*
X19410067Y-4084933D01*
X19197933Y-4084933D01*
X19197933Y-4297067D01*
X19410067Y-4297067D01*
X19410067Y-8107067D02*
X19410067Y-7894933D01*
X19197933Y-7894933D01*
X19197933Y-8107067D01*
X19410067Y-8107067D01*
X19537067Y-6964067D02*
X19537067Y-6751933D01*
X19324933Y-6751933D01*
X19324933Y-6964067D01*
X19537067Y-6964067D01*
X19568802Y-5948067D02*
X19568802Y-5735933D01*
X19356668Y-5735933D01*
X19356668Y-5948067D01*
X19568802Y-5948067D01*
X20013301Y-5059067D02*
X20013301Y-4846933D01*
X19801167Y-4846933D01*
X19801167Y-5059067D01*
X20013301Y-5059067D01*
X20045067Y-2138067D02*
X20045067Y-1925933D01*
X19832933Y-1925933D01*
X19832933Y-2138067D01*
X20045067Y-2138067D01*
X20045067Y-4043067D02*
X20045067Y-3830933D01*
X19832933Y-3830933D01*
X19832933Y-4043067D01*
X20045067Y-4043067D01*
X20045067Y-7853067D02*
X20045067Y-7640933D01*
X19832933Y-7640933D01*
X19832933Y-7853067D01*
X20045067Y-7853067D01*
X20172067Y-6710067D02*
X20172067Y-6497933D01*
X19959933Y-6497933D01*
X19959933Y-6710067D01*
X20172067Y-6710067D01*
X20489567Y-8869067D02*
X20489567Y-8656933D01*
X20277433Y-8656933D01*
X20277433Y-8869067D01*
X20489567Y-8869067D01*
X20648301Y-4805067D02*
X20648301Y-4592933D01*
X20436167Y-4592933D01*
X20436167Y-4805067D01*
X20648301Y-4805067D01*
X20838801Y-6202067D02*
X20838801Y-5989933D01*
X20626667Y-5989933D01*
X20626667Y-6202067D01*
X20838801Y-6202067D01*
X21124567Y-8615067D02*
X21124567Y-8402933D01*
X20912433Y-8402933D01*
X20912433Y-8615067D01*
X21124567Y-8615067D01*
X21315067Y-8107067D02*
X21315067Y-7894933D01*
X21102933Y-7894933D01*
X21102933Y-8107067D01*
X21315067Y-8107067D01*
X21442067Y-3154067D02*
X21442067Y-2941933D01*
X21229933Y-2941933D01*
X21229933Y-3154067D01*
X21442067Y-3154067D01*
X21442067Y-5059067D02*
X21442067Y-4846933D01*
X21229933Y-4846933D01*
X21229933Y-5059067D01*
X21442067Y-5059067D01*
X21442067Y-6964067D02*
X21442067Y-6751933D01*
X21229933Y-6751933D01*
X21229933Y-6964067D01*
X21442067Y-6964067D01*
X21473801Y-5948067D02*
X21473801Y-5735933D01*
X21261667Y-5735933D01*
X21261667Y-5948067D01*
X21473801Y-5948067D01*
X21950067Y-7853067D02*
X21950067Y-7640933D01*
X21737933Y-7640933D01*
X21737933Y-7853067D01*
X21950067Y-7853067D01*
X22077067Y-2900067D02*
X22077067Y-2687933D01*
X21864933Y-2687933D01*
X21864933Y-2900067D01*
X22077067Y-2900067D01*
X22077067Y-4805067D02*
X22077067Y-4592933D01*
X21864933Y-4592933D01*
X21864933Y-4805067D01*
X22077067Y-4805067D01*
X22077067Y-6710067D02*
X22077067Y-6497933D01*
X21864933Y-6497933D01*
X21864933Y-6710067D01*
X22077067Y-6710067D01*
X22267549Y-2392066D02*
X22267549Y-2179932D01*
X22055415Y-2179932D01*
X22055415Y-2392066D01*
X22267549Y-2392066D01*
X22394567Y-8869067D02*
X22394567Y-8656933D01*
X22182433Y-8656933D01*
X22182433Y-8869067D01*
X22394567Y-8869067D01*
X22505674Y-4297067D02*
X22505674Y-4084933D01*
X22293540Y-4084933D01*
X22293540Y-4297067D01*
X22505674Y-4297067D01*
X22902549Y-2138066D02*
X22902549Y-1925932D01*
X22690415Y-1925932D01*
X22690415Y-2138066D01*
X22902549Y-2138066D01*
X22981924Y-6202067D02*
X22981924Y-5989933D01*
X22769790Y-5989933D01*
X22769790Y-6202067D01*
X22981924Y-6202067D01*
X23029567Y-8615067D02*
X23029567Y-8402933D01*
X22817433Y-8402933D01*
X22817433Y-8615067D01*
X23029567Y-8615067D01*
X23140674Y-4043067D02*
X23140674Y-3830933D01*
X22928540Y-3830933D01*
X22928540Y-4043067D01*
X23140674Y-4043067D01*
X23220067Y-8107067D02*
X23220067Y-7894933D01*
X23007933Y-7894933D01*
X23007933Y-8107067D01*
X23220067Y-8107067D01*
X23347067Y-3154067D02*
X23347067Y-2941933D01*
X23134933Y-2941933D01*
X23134933Y-3154067D01*
X23347067Y-3154067D01*
X23347067Y-5059067D02*
X23347067Y-4846933D01*
X23134933Y-4846933D01*
X23134933Y-5059067D01*
X23347067Y-5059067D01*
X23347067Y-6964067D02*
X23347067Y-6751933D01*
X23134933Y-6751933D01*
X23134933Y-6964067D01*
X23347067Y-6964067D01*
X23616924Y-5948067D02*
X23616924Y-5735933D01*
X23404790Y-5735933D01*
X23404790Y-5948067D01*
X23616924Y-5948067D01*
X23855067Y-7853067D02*
X23855067Y-7640933D01*
X23642933Y-7640933D01*
X23642933Y-7853067D01*
X23855067Y-7853067D01*
X23982067Y-2900067D02*
X23982067Y-2687933D01*
X23769933Y-2687933D01*
X23769933Y-2900067D01*
X23982067Y-2900067D01*
X23982067Y-4805067D02*
X23982067Y-4592933D01*
X23769933Y-4592933D01*
X23769933Y-4805067D01*
X23982067Y-4805067D01*
X23982067Y-6710067D02*
X23982067Y-6497933D01*
X23769933Y-6497933D01*
X23769933Y-6710067D01*
X23982067Y-6710067D01*
X25125067Y-2392067D02*
X25125067Y-2179933D01*
X24912933Y-2179933D01*
X24912933Y-2392067D01*
X25125067Y-2392067D01*
X25125067Y-4297067D02*
X25125067Y-4084933D01*
X24912933Y-4084933D01*
X24912933Y-4297067D01*
X25125067Y-4297067D01*
X25125067Y-6202067D02*
X25125067Y-5989933D01*
X24912933Y-5989933D01*
X24912933Y-6202067D01*
X25125067Y-6202067D01*
X25125067Y-8107067D02*
X25125067Y-7894933D01*
X24912933Y-7894933D01*
X24912933Y-8107067D01*
X25125067Y-8107067D01*
X25760067Y-2138067D02*
X25760067Y-1925933D01*
X25547933Y-1925933D01*
X25547933Y-2138067D01*
X25760067Y-2138067D01*
X25760067Y-4043067D02*
X25760067Y-3830933D01*
X25547933Y-3830933D01*
X25547933Y-4043067D01*
X25760067Y-4043067D01*
X25760067Y-5948067D02*
X25760067Y-5735933D01*
X25547933Y-5735933D01*
X25547933Y-5948067D01*
X25760067Y-5948067D01*
X25760067Y-7853067D02*
X25760067Y-7640933D01*
X25547933Y-7640933D01*
X25547933Y-7853067D01*
X25760067Y-7853067D01*
X26204546Y-8869067D02*
X26204546Y-8656933D01*
X25992412Y-8656933D01*
X25992412Y-8869067D01*
X26204546Y-8869067D01*
X26839546Y-8615067D02*
X26839546Y-8402933D01*
X26627412Y-8402933D01*
X26627412Y-8615067D01*
X26839546Y-8615067D01*
X27030067Y-2392067D02*
X27030067Y-2179933D01*
X26817933Y-2179933D01*
X26817933Y-2392067D01*
X27030067Y-2392067D01*
X27030067Y-4297067D02*
X27030067Y-4084933D01*
X26817933Y-4084933D01*
X26817933Y-4297067D01*
X27030067Y-4297067D01*
X27030067Y-6202067D02*
X27030067Y-5989933D01*
X26817933Y-5989933D01*
X26817933Y-6202067D01*
X27030067Y-6202067D01*
X27030067Y-8107067D02*
X27030067Y-7894933D01*
X26817933Y-7894933D01*
X26817933Y-8107067D01*
X27030067Y-8107067D01*
X27665067Y-2138067D02*
X27665067Y-1925933D01*
X27452933Y-1925933D01*
X27452933Y-2138067D01*
X27665067Y-2138067D01*
X27665067Y-4043067D02*
X27665067Y-3830933D01*
X27452933Y-3830933D01*
X27452933Y-4043067D01*
X27665067Y-4043067D01*
X27665067Y-5948067D02*
X27665067Y-5735933D01*
X27452933Y-5735933D01*
X27452933Y-5948067D01*
X27665067Y-5948067D01*
X27665067Y-7853067D02*
X27665067Y-7640933D01*
X27452933Y-7640933D01*
X27452933Y-7853067D01*
X27665067Y-7853067D01*
X28935067Y-2392067D02*
X28935067Y-2179933D01*
X28722933Y-2179933D01*
X28722933Y-2392067D01*
X28935067Y-2392067D01*
X28935067Y-4297067D02*
X28935067Y-4084933D01*
X28722933Y-4084933D01*
X28722933Y-4297067D01*
X28935067Y-4297067D01*
X28935067Y-6202067D02*
X28935067Y-5989933D01*
X28722933Y-5989933D01*
X28722933Y-6202067D01*
X28935067Y-6202067D01*
X28935067Y-8107067D02*
X28935067Y-7894933D01*
X28722933Y-7894933D01*
X28722933Y-8107067D01*
X28935067Y-8107067D01*
X29570067Y-2138067D02*
X29570067Y-1925933D01*
X29357933Y-1925933D01*
X29357933Y-2138067D01*
X29570067Y-2138067D01*
X29570067Y-4043067D02*
X29570067Y-3830933D01*
X29357933Y-3830933D01*
X29357933Y-4043067D01*
X29570067Y-4043067D01*
X29570067Y-5948067D02*
X29570067Y-5735933D01*
X29357933Y-5735933D01*
X29357933Y-5948067D01*
X29570067Y-5948067D01*
X29570067Y-7853067D02*
X29570067Y-7640933D01*
X29357933Y-7640933D01*
X29357933Y-7853067D01*
X29570067Y-7853067D01*
X30840067Y-8107067D02*
X30840067Y-7894933D01*
X30627933Y-7894933D01*
X30627933Y-8107067D01*
X30840067Y-8107067D01*
X31316317Y-2392067D02*
X31316317Y-2179933D01*
X31104183Y-2179933D01*
X31104183Y-2392067D01*
X31316317Y-2392067D01*
X31316317Y-4773317D02*
X31316317Y-4561183D01*
X31104183Y-4561183D01*
X31104183Y-4773317D01*
X31316317Y-4773317D01*
X31475067Y-7853067D02*
X31475067Y-7640933D01*
X31262933Y-7640933D01*
X31262933Y-7853067D01*
X31475067Y-7853067D01*
X31951317Y-2138067D02*
X31951317Y-1925933D01*
X31739183Y-1925933D01*
X31739183Y-2138067D01*
X31951317Y-2138067D01*
X31951317Y-4519317D02*
X31951317Y-4307183D01*
X31739183Y-4307183D01*
X31739183Y-4519317D01*
X31951317Y-4519317D01*
D11*
X1845777Y-9521484D02*
X1845777Y-9321484D01*
X1845777Y-9321484D02*
X1893396Y-9321484D01*
X1893396Y-9321484D02*
X1921967Y-9331008D01*
X1921967Y-9331008D02*
X1941015Y-9350055D01*
X1941015Y-9350055D02*
X1950539Y-9369103D01*
X1950539Y-9369103D02*
X1960062Y-9407198D01*
X1960062Y-9407198D02*
X1960062Y-9435770D01*
X1960062Y-9435770D02*
X1950539Y-9473865D01*
X1950539Y-9473865D02*
X1941015Y-9492912D01*
X1941015Y-9492912D02*
X1921967Y-9511960D01*
X1921967Y-9511960D02*
X1893396Y-9521484D01*
X1893396Y-9521484D02*
X1845777Y-9521484D01*
X2045777Y-9521484D02*
X2045777Y-9388150D01*
X2045777Y-9426246D02*
X2055301Y-9407198D01*
X2055301Y-9407198D02*
X2064824Y-9397674D01*
X2064824Y-9397674D02*
X2083872Y-9388150D01*
X2083872Y-9388150D02*
X2102920Y-9388150D01*
X2169586Y-9521484D02*
X2169586Y-9388150D01*
X2169586Y-9321484D02*
X2160063Y-9331008D01*
X2160063Y-9331008D02*
X2169586Y-9340531D01*
X2169586Y-9340531D02*
X2179110Y-9331008D01*
X2179110Y-9331008D02*
X2169586Y-9321484D01*
X2169586Y-9321484D02*
X2169586Y-9340531D01*
X2293396Y-9521484D02*
X2274348Y-9511960D01*
X2274348Y-9511960D02*
X2264824Y-9492912D01*
X2264824Y-9492912D02*
X2264824Y-9321484D01*
X2398158Y-9521484D02*
X2379110Y-9511960D01*
X2379110Y-9511960D02*
X2369586Y-9492912D01*
X2369586Y-9492912D02*
X2369586Y-9321484D01*
X2626729Y-9521484D02*
X2626729Y-9321484D01*
X2626729Y-9321484D02*
X2693396Y-9464341D01*
X2693396Y-9464341D02*
X2760063Y-9321484D01*
X2760063Y-9321484D02*
X2760063Y-9521484D01*
X2941015Y-9521484D02*
X2941015Y-9416722D01*
X2941015Y-9416722D02*
X2931491Y-9397674D01*
X2931491Y-9397674D02*
X2912443Y-9388150D01*
X2912443Y-9388150D02*
X2874348Y-9388150D01*
X2874348Y-9388150D02*
X2855301Y-9397674D01*
X2941015Y-9511960D02*
X2921967Y-9521484D01*
X2921967Y-9521484D02*
X2874348Y-9521484D01*
X2874348Y-9521484D02*
X2855301Y-9511960D01*
X2855301Y-9511960D02*
X2845777Y-9492912D01*
X2845777Y-9492912D02*
X2845777Y-9473865D01*
X2845777Y-9473865D02*
X2855301Y-9454817D01*
X2855301Y-9454817D02*
X2874348Y-9445293D01*
X2874348Y-9445293D02*
X2921967Y-9445293D01*
X2921967Y-9445293D02*
X2941015Y-9435770D01*
X3036253Y-9388150D02*
X3036253Y-9588150D01*
X3036253Y-9397674D02*
X3055301Y-9388150D01*
X3055301Y-9388150D02*
X3093396Y-9388150D01*
X3093396Y-9388150D02*
X3112443Y-9397674D01*
X3112443Y-9397674D02*
X3121967Y-9407198D01*
X3121967Y-9407198D02*
X3131491Y-9426246D01*
X3131491Y-9426246D02*
X3131491Y-9483389D01*
X3131491Y-9483389D02*
X3121967Y-9502436D01*
X3121967Y-9502436D02*
X3112443Y-9511960D01*
X3112443Y-9511960D02*
X3093396Y-9521484D01*
X3093396Y-9521484D02*
X3055301Y-9521484D01*
X3055301Y-9521484D02*
X3036253Y-9511960D01*
X3217205Y-9502436D02*
X3226729Y-9511960D01*
X3226729Y-9511960D02*
X3217205Y-9521484D01*
X3217205Y-9521484D02*
X3207682Y-9511960D01*
X3207682Y-9511960D02*
X3217205Y-9502436D01*
X3217205Y-9502436D02*
X3217205Y-9521484D01*
X3217205Y-9397674D02*
X3226729Y-9407198D01*
X3226729Y-9407198D02*
X3217205Y-9416722D01*
X3217205Y-9416722D02*
X3207682Y-9407198D01*
X3207682Y-9407198D02*
X3217205Y-9397674D01*
X3217205Y-9397674D02*
X3217205Y-9416722D01*
D12*
X1555000Y-9835000D02*
X1585000Y-9865000D01*
X1585000Y-9835000D02*
X1555000Y-9865000D01*
D11*
X1883872Y-9741484D02*
X1902920Y-9741484D01*
X1902920Y-9741484D02*
X1921967Y-9751008D01*
X1921967Y-9751008D02*
X1931491Y-9760531D01*
X1931491Y-9760531D02*
X1941015Y-9779579D01*
X1941015Y-9779579D02*
X1950539Y-9817674D01*
X1950539Y-9817674D02*
X1950539Y-9865293D01*
X1950539Y-9865293D02*
X1941015Y-9903389D01*
X1941015Y-9903389D02*
X1931491Y-9922436D01*
X1931491Y-9922436D02*
X1921967Y-9931960D01*
X1921967Y-9931960D02*
X1902920Y-9941484D01*
X1902920Y-9941484D02*
X1883872Y-9941484D01*
X1883872Y-9941484D02*
X1864824Y-9931960D01*
X1864824Y-9931960D02*
X1855301Y-9922436D01*
X1855301Y-9922436D02*
X1845777Y-9903389D01*
X1845777Y-9903389D02*
X1836253Y-9865293D01*
X1836253Y-9865293D02*
X1836253Y-9817674D01*
X1836253Y-9817674D02*
X1845777Y-9779579D01*
X1845777Y-9779579D02*
X1855301Y-9760531D01*
X1855301Y-9760531D02*
X1864824Y-9751008D01*
X1864824Y-9751008D02*
X1883872Y-9741484D01*
X2036253Y-9922436D02*
X2045777Y-9931960D01*
X2045777Y-9931960D02*
X2036253Y-9941484D01*
X2036253Y-9941484D02*
X2026729Y-9931960D01*
X2026729Y-9931960D02*
X2036253Y-9922436D01*
X2036253Y-9922436D02*
X2036253Y-9941484D01*
X2112444Y-9741484D02*
X2236253Y-9741484D01*
X2236253Y-9741484D02*
X2169586Y-9817674D01*
X2169586Y-9817674D02*
X2198158Y-9817674D01*
X2198158Y-9817674D02*
X2217205Y-9827198D01*
X2217205Y-9827198D02*
X2226729Y-9836722D01*
X2226729Y-9836722D02*
X2236253Y-9855770D01*
X2236253Y-9855770D02*
X2236253Y-9903389D01*
X2236253Y-9903389D02*
X2226729Y-9922436D01*
X2226729Y-9922436D02*
X2217205Y-9931960D01*
X2217205Y-9931960D02*
X2198158Y-9941484D01*
X2198158Y-9941484D02*
X2141015Y-9941484D01*
X2141015Y-9941484D02*
X2121967Y-9931960D01*
X2121967Y-9931960D02*
X2112444Y-9922436D01*
X2360063Y-9741484D02*
X2379110Y-9741484D01*
X2379110Y-9741484D02*
X2398158Y-9751008D01*
X2398158Y-9751008D02*
X2407682Y-9760531D01*
X2407682Y-9760531D02*
X2417205Y-9779579D01*
X2417205Y-9779579D02*
X2426729Y-9817674D01*
X2426729Y-9817674D02*
X2426729Y-9865293D01*
X2426729Y-9865293D02*
X2417205Y-9903389D01*
X2417205Y-9903389D02*
X2407682Y-9922436D01*
X2407682Y-9922436D02*
X2398158Y-9931960D01*
X2398158Y-9931960D02*
X2379110Y-9941484D01*
X2379110Y-9941484D02*
X2360063Y-9941484D01*
X2360063Y-9941484D02*
X2341015Y-9931960D01*
X2341015Y-9931960D02*
X2331491Y-9922436D01*
X2331491Y-9922436D02*
X2321967Y-9903389D01*
X2321967Y-9903389D02*
X2312444Y-9865293D01*
X2312444Y-9865293D02*
X2312444Y-9817674D01*
X2312444Y-9817674D02*
X2321967Y-9779579D01*
X2321967Y-9779579D02*
X2331491Y-9760531D01*
X2331491Y-9760531D02*
X2341015Y-9751008D01*
X2341015Y-9751008D02*
X2360063Y-9741484D01*
X2550539Y-9741484D02*
X2569586Y-9741484D01*
X2569586Y-9741484D02*
X2588634Y-9751008D01*
X2588634Y-9751008D02*
X2598158Y-9760531D01*
X2598158Y-9760531D02*
X2607682Y-9779579D01*
X2607682Y-9779579D02*
X2617205Y-9817674D01*
X2617205Y-9817674D02*
X2617205Y-9865293D01*
X2617205Y-9865293D02*
X2607682Y-9903389D01*
X2607682Y-9903389D02*
X2598158Y-9922436D01*
X2598158Y-9922436D02*
X2588634Y-9931960D01*
X2588634Y-9931960D02*
X2569586Y-9941484D01*
X2569586Y-9941484D02*
X2550539Y-9941484D01*
X2550539Y-9941484D02*
X2531491Y-9931960D01*
X2531491Y-9931960D02*
X2521967Y-9922436D01*
X2521967Y-9922436D02*
X2512444Y-9903389D01*
X2512444Y-9903389D02*
X2502920Y-9865293D01*
X2502920Y-9865293D02*
X2502920Y-9817674D01*
X2502920Y-9817674D02*
X2512444Y-9779579D01*
X2512444Y-9779579D02*
X2521967Y-9760531D01*
X2521967Y-9760531D02*
X2531491Y-9751008D01*
X2531491Y-9751008D02*
X2550539Y-9741484D01*
X2702920Y-9941484D02*
X2702920Y-9808150D01*
X2702920Y-9827198D02*
X2712444Y-9817674D01*
X2712444Y-9817674D02*
X2731491Y-9808150D01*
X2731491Y-9808150D02*
X2760063Y-9808150D01*
X2760063Y-9808150D02*
X2779110Y-9817674D01*
X2779110Y-9817674D02*
X2788634Y-9836722D01*
X2788634Y-9836722D02*
X2788634Y-9941484D01*
X2788634Y-9836722D02*
X2798158Y-9817674D01*
X2798158Y-9817674D02*
X2817205Y-9808150D01*
X2817205Y-9808150D02*
X2845777Y-9808150D01*
X2845777Y-9808150D02*
X2864824Y-9817674D01*
X2864824Y-9817674D02*
X2874348Y-9836722D01*
X2874348Y-9836722D02*
X2874348Y-9941484D01*
X2969586Y-9941484D02*
X2969586Y-9808150D01*
X2969586Y-9827198D02*
X2979110Y-9817674D01*
X2979110Y-9817674D02*
X2998158Y-9808150D01*
X2998158Y-9808150D02*
X3026729Y-9808150D01*
X3026729Y-9808150D02*
X3045777Y-9817674D01*
X3045777Y-9817674D02*
X3055301Y-9836722D01*
X3055301Y-9836722D02*
X3055301Y-9941484D01*
X3055301Y-9836722D02*
X3064824Y-9817674D01*
X3064824Y-9817674D02*
X3083872Y-9808150D01*
X3083872Y-9808150D02*
X3112443Y-9808150D01*
X3112443Y-9808150D02*
X3131491Y-9817674D01*
X3131491Y-9817674D02*
X3141015Y-9836722D01*
X3141015Y-9836722D02*
X3141015Y-9941484D01*
X3531491Y-9731960D02*
X3360063Y-9989103D01*
X3788634Y-9741484D02*
X3807682Y-9741484D01*
X3807682Y-9741484D02*
X3826729Y-9751008D01*
X3826729Y-9751008D02*
X3836253Y-9760531D01*
X3836253Y-9760531D02*
X3845777Y-9779579D01*
X3845777Y-9779579D02*
X3855301Y-9817674D01*
X3855301Y-9817674D02*
X3855301Y-9865293D01*
X3855301Y-9865293D02*
X3845777Y-9903389D01*
X3845777Y-9903389D02*
X3836253Y-9922436D01*
X3836253Y-9922436D02*
X3826729Y-9931960D01*
X3826729Y-9931960D02*
X3807682Y-9941484D01*
X3807682Y-9941484D02*
X3788634Y-9941484D01*
X3788634Y-9941484D02*
X3769586Y-9931960D01*
X3769586Y-9931960D02*
X3760063Y-9922436D01*
X3760063Y-9922436D02*
X3750539Y-9903389D01*
X3750539Y-9903389D02*
X3741015Y-9865293D01*
X3741015Y-9865293D02*
X3741015Y-9817674D01*
X3741015Y-9817674D02*
X3750539Y-9779579D01*
X3750539Y-9779579D02*
X3760063Y-9760531D01*
X3760063Y-9760531D02*
X3769586Y-9751008D01*
X3769586Y-9751008D02*
X3788634Y-9741484D01*
X3941015Y-9922436D02*
X3950539Y-9931960D01*
X3950539Y-9931960D02*
X3941015Y-9941484D01*
X3941015Y-9941484D02*
X3931491Y-9931960D01*
X3931491Y-9931960D02*
X3941015Y-9922436D01*
X3941015Y-9922436D02*
X3941015Y-9941484D01*
X4074348Y-9741484D02*
X4093396Y-9741484D01*
X4093396Y-9741484D02*
X4112444Y-9751008D01*
X4112444Y-9751008D02*
X4121967Y-9760531D01*
X4121967Y-9760531D02*
X4131491Y-9779579D01*
X4131491Y-9779579D02*
X4141015Y-9817674D01*
X4141015Y-9817674D02*
X4141015Y-9865293D01*
X4141015Y-9865293D02*
X4131491Y-9903389D01*
X4131491Y-9903389D02*
X4121967Y-9922436D01*
X4121967Y-9922436D02*
X4112444Y-9931960D01*
X4112444Y-9931960D02*
X4093396Y-9941484D01*
X4093396Y-9941484D02*
X4074348Y-9941484D01*
X4074348Y-9941484D02*
X4055301Y-9931960D01*
X4055301Y-9931960D02*
X4045777Y-9922436D01*
X4045777Y-9922436D02*
X4036253Y-9903389D01*
X4036253Y-9903389D02*
X4026729Y-9865293D01*
X4026729Y-9865293D02*
X4026729Y-9817674D01*
X4026729Y-9817674D02*
X4036253Y-9779579D01*
X4036253Y-9779579D02*
X4045777Y-9760531D01*
X4045777Y-9760531D02*
X4055301Y-9751008D01*
X4055301Y-9751008D02*
X4074348Y-9741484D01*
X4331491Y-9941484D02*
X4217206Y-9941484D01*
X4274348Y-9941484D02*
X4274348Y-9741484D01*
X4274348Y-9741484D02*
X4255301Y-9770055D01*
X4255301Y-9770055D02*
X4236253Y-9789103D01*
X4236253Y-9789103D02*
X4217206Y-9798627D01*
X4521968Y-9941484D02*
X4407682Y-9941484D01*
X4464825Y-9941484D02*
X4464825Y-9741484D01*
X4464825Y-9741484D02*
X4445777Y-9770055D01*
X4445777Y-9770055D02*
X4426729Y-9789103D01*
X4426729Y-9789103D02*
X4407682Y-9798627D01*
X4636253Y-9827198D02*
X4617206Y-9817674D01*
X4617206Y-9817674D02*
X4607682Y-9808150D01*
X4607682Y-9808150D02*
X4598158Y-9789103D01*
X4598158Y-9789103D02*
X4598158Y-9779579D01*
X4598158Y-9779579D02*
X4607682Y-9760531D01*
X4607682Y-9760531D02*
X4617206Y-9751008D01*
X4617206Y-9751008D02*
X4636253Y-9741484D01*
X4636253Y-9741484D02*
X4674349Y-9741484D01*
X4674349Y-9741484D02*
X4693396Y-9751008D01*
X4693396Y-9751008D02*
X4702920Y-9760531D01*
X4702920Y-9760531D02*
X4712444Y-9779579D01*
X4712444Y-9779579D02*
X4712444Y-9789103D01*
X4712444Y-9789103D02*
X4702920Y-9808150D01*
X4702920Y-9808150D02*
X4693396Y-9817674D01*
X4693396Y-9817674D02*
X4674349Y-9827198D01*
X4674349Y-9827198D02*
X4636253Y-9827198D01*
X4636253Y-9827198D02*
X4617206Y-9836722D01*
X4617206Y-9836722D02*
X4607682Y-9846246D01*
X4607682Y-9846246D02*
X4598158Y-9865293D01*
X4598158Y-9865293D02*
X4598158Y-9903389D01*
X4598158Y-9903389D02*
X4607682Y-9922436D01*
X4607682Y-9922436D02*
X4617206Y-9931960D01*
X4617206Y-9931960D02*
X4636253Y-9941484D01*
X4636253Y-9941484D02*
X4674349Y-9941484D01*
X4674349Y-9941484D02*
X4693396Y-9931960D01*
X4693396Y-9931960D02*
X4702920Y-9922436D01*
X4702920Y-9922436D02*
X4712444Y-9903389D01*
X4712444Y-9903389D02*
X4712444Y-9865293D01*
X4712444Y-9865293D02*
X4702920Y-9846246D01*
X4702920Y-9846246D02*
X4693396Y-9836722D01*
X4693396Y-9836722D02*
X4674349Y-9827198D01*
X4788634Y-9741484D02*
X4788634Y-9779579D01*
X4864825Y-9741484D02*
X4864825Y-9779579D01*
X5160063Y-10017674D02*
X5150539Y-10008150D01*
X5150539Y-10008150D02*
X5131491Y-9979579D01*
X5131491Y-9979579D02*
X5121968Y-9960531D01*
X5121968Y-9960531D02*
X5112444Y-9931960D01*
X5112444Y-9931960D02*
X5102920Y-9884341D01*
X5102920Y-9884341D02*
X5102920Y-9846246D01*
X5102920Y-9846246D02*
X5112444Y-9798627D01*
X5112444Y-9798627D02*
X5121968Y-9770055D01*
X5121968Y-9770055D02*
X5131491Y-9751008D01*
X5131491Y-9751008D02*
X5150539Y-9722436D01*
X5150539Y-9722436D02*
X5160063Y-9712912D01*
X5341015Y-9941484D02*
X5226730Y-9941484D01*
X5283872Y-9941484D02*
X5283872Y-9741484D01*
X5283872Y-9741484D02*
X5264825Y-9770055D01*
X5264825Y-9770055D02*
X5245777Y-9789103D01*
X5245777Y-9789103D02*
X5226730Y-9798627D01*
X5531491Y-9941484D02*
X5417206Y-9941484D01*
X5474349Y-9941484D02*
X5474349Y-9741484D01*
X5474349Y-9741484D02*
X5455301Y-9770055D01*
X5455301Y-9770055D02*
X5436253Y-9789103D01*
X5436253Y-9789103D02*
X5417206Y-9798627D01*
X5702920Y-9808150D02*
X5702920Y-9941484D01*
X5655301Y-9731960D02*
X5607682Y-9874817D01*
X5607682Y-9874817D02*
X5731491Y-9874817D01*
X5960063Y-9941484D02*
X5960063Y-9741484D01*
X6045777Y-9941484D02*
X6045777Y-9836722D01*
X6045777Y-9836722D02*
X6036253Y-9817674D01*
X6036253Y-9817674D02*
X6017206Y-9808150D01*
X6017206Y-9808150D02*
X5988634Y-9808150D01*
X5988634Y-9808150D02*
X5969587Y-9817674D01*
X5969587Y-9817674D02*
X5960063Y-9827198D01*
X6169587Y-9941484D02*
X6150539Y-9931960D01*
X6150539Y-9931960D02*
X6141015Y-9922436D01*
X6141015Y-9922436D02*
X6131491Y-9903389D01*
X6131491Y-9903389D02*
X6131491Y-9846246D01*
X6131491Y-9846246D02*
X6141015Y-9827198D01*
X6141015Y-9827198D02*
X6150539Y-9817674D01*
X6150539Y-9817674D02*
X6169587Y-9808150D01*
X6169587Y-9808150D02*
X6198158Y-9808150D01*
X6198158Y-9808150D02*
X6217206Y-9817674D01*
X6217206Y-9817674D02*
X6226730Y-9827198D01*
X6226730Y-9827198D02*
X6236253Y-9846246D01*
X6236253Y-9846246D02*
X6236253Y-9903389D01*
X6236253Y-9903389D02*
X6226730Y-9922436D01*
X6226730Y-9922436D02*
X6217206Y-9931960D01*
X6217206Y-9931960D02*
X6198158Y-9941484D01*
X6198158Y-9941484D02*
X6169587Y-9941484D01*
X6350539Y-9941484D02*
X6331491Y-9931960D01*
X6331491Y-9931960D02*
X6321968Y-9912912D01*
X6321968Y-9912912D02*
X6321968Y-9741484D01*
X6502920Y-9931960D02*
X6483872Y-9941484D01*
X6483872Y-9941484D02*
X6445777Y-9941484D01*
X6445777Y-9941484D02*
X6426730Y-9931960D01*
X6426730Y-9931960D02*
X6417206Y-9912912D01*
X6417206Y-9912912D02*
X6417206Y-9836722D01*
X6417206Y-9836722D02*
X6426730Y-9817674D01*
X6426730Y-9817674D02*
X6445777Y-9808150D01*
X6445777Y-9808150D02*
X6483872Y-9808150D01*
X6483872Y-9808150D02*
X6502920Y-9817674D01*
X6502920Y-9817674D02*
X6512444Y-9836722D01*
X6512444Y-9836722D02*
X6512444Y-9855770D01*
X6512444Y-9855770D02*
X6417206Y-9874817D01*
X6588634Y-9931960D02*
X6607682Y-9941484D01*
X6607682Y-9941484D02*
X6645777Y-9941484D01*
X6645777Y-9941484D02*
X6664825Y-9931960D01*
X6664825Y-9931960D02*
X6674349Y-9912912D01*
X6674349Y-9912912D02*
X6674349Y-9903389D01*
X6674349Y-9903389D02*
X6664825Y-9884341D01*
X6664825Y-9884341D02*
X6645777Y-9874817D01*
X6645777Y-9874817D02*
X6617206Y-9874817D01*
X6617206Y-9874817D02*
X6598158Y-9865293D01*
X6598158Y-9865293D02*
X6588634Y-9846246D01*
X6588634Y-9846246D02*
X6588634Y-9836722D01*
X6588634Y-9836722D02*
X6598158Y-9817674D01*
X6598158Y-9817674D02*
X6617206Y-9808150D01*
X6617206Y-9808150D02*
X6645777Y-9808150D01*
X6645777Y-9808150D02*
X6664825Y-9817674D01*
X6741015Y-10017674D02*
X6750539Y-10008150D01*
X6750539Y-10008150D02*
X6769587Y-9979579D01*
X6769587Y-9979579D02*
X6779111Y-9960531D01*
X6779111Y-9960531D02*
X6788634Y-9931960D01*
X6788634Y-9931960D02*
X6798158Y-9884341D01*
X6798158Y-9884341D02*
X6798158Y-9846246D01*
X6798158Y-9846246D02*
X6788634Y-9798627D01*
X6788634Y-9798627D02*
X6779111Y-9770055D01*
X6779111Y-9770055D02*
X6769587Y-9751008D01*
X6769587Y-9751008D02*
X6750539Y-9722436D01*
X6750539Y-9722436D02*
X6741015Y-9712912D01*
D12*
X1585000Y-10114000D02*
G75*
G02*
X1545000Y-10114000I-20000J0D01*
G01*
X1545000Y-10114000D02*
G75*
G02*
X1585000Y-10114000I20000J0D01*
G01*
D11*
X1883872Y-10005484D02*
X1902920Y-10005484D01*
X1902920Y-10005484D02*
X1921967Y-10015008D01*
X1921967Y-10015008D02*
X1931491Y-10024531D01*
X1931491Y-10024531D02*
X1941015Y-10043579D01*
X1941015Y-10043579D02*
X1950539Y-10081674D01*
X1950539Y-10081674D02*
X1950539Y-10129293D01*
X1950539Y-10129293D02*
X1941015Y-10167389D01*
X1941015Y-10167389D02*
X1931491Y-10186436D01*
X1931491Y-10186436D02*
X1921967Y-10195960D01*
X1921967Y-10195960D02*
X1902920Y-10205484D01*
X1902920Y-10205484D02*
X1883872Y-10205484D01*
X1883872Y-10205484D02*
X1864824Y-10195960D01*
X1864824Y-10195960D02*
X1855301Y-10186436D01*
X1855301Y-10186436D02*
X1845777Y-10167389D01*
X1845777Y-10167389D02*
X1836253Y-10129293D01*
X1836253Y-10129293D02*
X1836253Y-10081674D01*
X1836253Y-10081674D02*
X1845777Y-10043579D01*
X1845777Y-10043579D02*
X1855301Y-10024531D01*
X1855301Y-10024531D02*
X1864824Y-10015008D01*
X1864824Y-10015008D02*
X1883872Y-10005484D01*
X2036253Y-10186436D02*
X2045777Y-10195960D01*
X2045777Y-10195960D02*
X2036253Y-10205484D01*
X2036253Y-10205484D02*
X2026729Y-10195960D01*
X2026729Y-10195960D02*
X2036253Y-10186436D01*
X2036253Y-10186436D02*
X2036253Y-10205484D01*
X2217205Y-10072150D02*
X2217205Y-10205484D01*
X2169586Y-9995960D02*
X2121967Y-10138817D01*
X2121967Y-10138817D02*
X2245777Y-10138817D01*
X2360063Y-10005484D02*
X2379110Y-10005484D01*
X2379110Y-10005484D02*
X2398158Y-10015008D01*
X2398158Y-10015008D02*
X2407682Y-10024531D01*
X2407682Y-10024531D02*
X2417205Y-10043579D01*
X2417205Y-10043579D02*
X2426729Y-10081674D01*
X2426729Y-10081674D02*
X2426729Y-10129293D01*
X2426729Y-10129293D02*
X2417205Y-10167389D01*
X2417205Y-10167389D02*
X2407682Y-10186436D01*
X2407682Y-10186436D02*
X2398158Y-10195960D01*
X2398158Y-10195960D02*
X2379110Y-10205484D01*
X2379110Y-10205484D02*
X2360063Y-10205484D01*
X2360063Y-10205484D02*
X2341015Y-10195960D01*
X2341015Y-10195960D02*
X2331491Y-10186436D01*
X2331491Y-10186436D02*
X2321967Y-10167389D01*
X2321967Y-10167389D02*
X2312444Y-10129293D01*
X2312444Y-10129293D02*
X2312444Y-10081674D01*
X2312444Y-10081674D02*
X2321967Y-10043579D01*
X2321967Y-10043579D02*
X2331491Y-10024531D01*
X2331491Y-10024531D02*
X2341015Y-10015008D01*
X2341015Y-10015008D02*
X2360063Y-10005484D01*
X2550539Y-10005484D02*
X2569586Y-10005484D01*
X2569586Y-10005484D02*
X2588634Y-10015008D01*
X2588634Y-10015008D02*
X2598158Y-10024531D01*
X2598158Y-10024531D02*
X2607682Y-10043579D01*
X2607682Y-10043579D02*
X2617205Y-10081674D01*
X2617205Y-10081674D02*
X2617205Y-10129293D01*
X2617205Y-10129293D02*
X2607682Y-10167389D01*
X2607682Y-10167389D02*
X2598158Y-10186436D01*
X2598158Y-10186436D02*
X2588634Y-10195960D01*
X2588634Y-10195960D02*
X2569586Y-10205484D01*
X2569586Y-10205484D02*
X2550539Y-10205484D01*
X2550539Y-10205484D02*
X2531491Y-10195960D01*
X2531491Y-10195960D02*
X2521967Y-10186436D01*
X2521967Y-10186436D02*
X2512444Y-10167389D01*
X2512444Y-10167389D02*
X2502920Y-10129293D01*
X2502920Y-10129293D02*
X2502920Y-10081674D01*
X2502920Y-10081674D02*
X2512444Y-10043579D01*
X2512444Y-10043579D02*
X2521967Y-10024531D01*
X2521967Y-10024531D02*
X2531491Y-10015008D01*
X2531491Y-10015008D02*
X2550539Y-10005484D01*
X2702920Y-10205484D02*
X2702920Y-10072150D01*
X2702920Y-10091198D02*
X2712444Y-10081674D01*
X2712444Y-10081674D02*
X2731491Y-10072150D01*
X2731491Y-10072150D02*
X2760063Y-10072150D01*
X2760063Y-10072150D02*
X2779110Y-10081674D01*
X2779110Y-10081674D02*
X2788634Y-10100722D01*
X2788634Y-10100722D02*
X2788634Y-10205484D01*
X2788634Y-10100722D02*
X2798158Y-10081674D01*
X2798158Y-10081674D02*
X2817205Y-10072150D01*
X2817205Y-10072150D02*
X2845777Y-10072150D01*
X2845777Y-10072150D02*
X2864824Y-10081674D01*
X2864824Y-10081674D02*
X2874348Y-10100722D01*
X2874348Y-10100722D02*
X2874348Y-10205484D01*
X2969586Y-10205484D02*
X2969586Y-10072150D01*
X2969586Y-10091198D02*
X2979110Y-10081674D01*
X2979110Y-10081674D02*
X2998158Y-10072150D01*
X2998158Y-10072150D02*
X3026729Y-10072150D01*
X3026729Y-10072150D02*
X3045777Y-10081674D01*
X3045777Y-10081674D02*
X3055301Y-10100722D01*
X3055301Y-10100722D02*
X3055301Y-10205484D01*
X3055301Y-10100722D02*
X3064824Y-10081674D01*
X3064824Y-10081674D02*
X3083872Y-10072150D01*
X3083872Y-10072150D02*
X3112443Y-10072150D01*
X3112443Y-10072150D02*
X3131491Y-10081674D01*
X3131491Y-10081674D02*
X3141015Y-10100722D01*
X3141015Y-10100722D02*
X3141015Y-10205484D01*
X3531491Y-9995960D02*
X3360063Y-10253103D01*
X3788634Y-10005484D02*
X3807682Y-10005484D01*
X3807682Y-10005484D02*
X3826729Y-10015008D01*
X3826729Y-10015008D02*
X3836253Y-10024531D01*
X3836253Y-10024531D02*
X3845777Y-10043579D01*
X3845777Y-10043579D02*
X3855301Y-10081674D01*
X3855301Y-10081674D02*
X3855301Y-10129293D01*
X3855301Y-10129293D02*
X3845777Y-10167389D01*
X3845777Y-10167389D02*
X3836253Y-10186436D01*
X3836253Y-10186436D02*
X3826729Y-10195960D01*
X3826729Y-10195960D02*
X3807682Y-10205484D01*
X3807682Y-10205484D02*
X3788634Y-10205484D01*
X3788634Y-10205484D02*
X3769586Y-10195960D01*
X3769586Y-10195960D02*
X3760063Y-10186436D01*
X3760063Y-10186436D02*
X3750539Y-10167389D01*
X3750539Y-10167389D02*
X3741015Y-10129293D01*
X3741015Y-10129293D02*
X3741015Y-10081674D01*
X3741015Y-10081674D02*
X3750539Y-10043579D01*
X3750539Y-10043579D02*
X3760063Y-10024531D01*
X3760063Y-10024531D02*
X3769586Y-10015008D01*
X3769586Y-10015008D02*
X3788634Y-10005484D01*
X3941015Y-10186436D02*
X3950539Y-10195960D01*
X3950539Y-10195960D02*
X3941015Y-10205484D01*
X3941015Y-10205484D02*
X3931491Y-10195960D01*
X3931491Y-10195960D02*
X3941015Y-10186436D01*
X3941015Y-10186436D02*
X3941015Y-10205484D01*
X4074348Y-10005484D02*
X4093396Y-10005484D01*
X4093396Y-10005484D02*
X4112444Y-10015008D01*
X4112444Y-10015008D02*
X4121967Y-10024531D01*
X4121967Y-10024531D02*
X4131491Y-10043579D01*
X4131491Y-10043579D02*
X4141015Y-10081674D01*
X4141015Y-10081674D02*
X4141015Y-10129293D01*
X4141015Y-10129293D02*
X4131491Y-10167389D01*
X4131491Y-10167389D02*
X4121967Y-10186436D01*
X4121967Y-10186436D02*
X4112444Y-10195960D01*
X4112444Y-10195960D02*
X4093396Y-10205484D01*
X4093396Y-10205484D02*
X4074348Y-10205484D01*
X4074348Y-10205484D02*
X4055301Y-10195960D01*
X4055301Y-10195960D02*
X4045777Y-10186436D01*
X4045777Y-10186436D02*
X4036253Y-10167389D01*
X4036253Y-10167389D02*
X4026729Y-10129293D01*
X4026729Y-10129293D02*
X4026729Y-10081674D01*
X4026729Y-10081674D02*
X4036253Y-10043579D01*
X4036253Y-10043579D02*
X4045777Y-10024531D01*
X4045777Y-10024531D02*
X4055301Y-10015008D01*
X4055301Y-10015008D02*
X4074348Y-10005484D01*
X4331491Y-10205484D02*
X4217206Y-10205484D01*
X4274348Y-10205484D02*
X4274348Y-10005484D01*
X4274348Y-10005484D02*
X4255301Y-10034055D01*
X4255301Y-10034055D02*
X4236253Y-10053103D01*
X4236253Y-10053103D02*
X4217206Y-10062627D01*
X4512444Y-10005484D02*
X4417206Y-10005484D01*
X4417206Y-10005484D02*
X4407682Y-10100722D01*
X4407682Y-10100722D02*
X4417206Y-10091198D01*
X4417206Y-10091198D02*
X4436253Y-10081674D01*
X4436253Y-10081674D02*
X4483872Y-10081674D01*
X4483872Y-10081674D02*
X4502920Y-10091198D01*
X4502920Y-10091198D02*
X4512444Y-10100722D01*
X4512444Y-10100722D02*
X4521968Y-10119770D01*
X4521968Y-10119770D02*
X4521968Y-10167389D01*
X4521968Y-10167389D02*
X4512444Y-10186436D01*
X4512444Y-10186436D02*
X4502920Y-10195960D01*
X4502920Y-10195960D02*
X4483872Y-10205484D01*
X4483872Y-10205484D02*
X4436253Y-10205484D01*
X4436253Y-10205484D02*
X4417206Y-10195960D01*
X4417206Y-10195960D02*
X4407682Y-10186436D01*
X4588634Y-10005484D02*
X4721968Y-10005484D01*
X4721968Y-10005484D02*
X4636253Y-10205484D01*
X4788634Y-10005484D02*
X4788634Y-10043579D01*
X4864825Y-10005484D02*
X4864825Y-10043579D01*
X5160063Y-10281674D02*
X5150539Y-10272150D01*
X5150539Y-10272150D02*
X5131491Y-10243579D01*
X5131491Y-10243579D02*
X5121968Y-10224531D01*
X5121968Y-10224531D02*
X5112444Y-10195960D01*
X5112444Y-10195960D02*
X5102920Y-10148341D01*
X5102920Y-10148341D02*
X5102920Y-10110246D01*
X5102920Y-10110246D02*
X5112444Y-10062627D01*
X5112444Y-10062627D02*
X5121968Y-10034055D01*
X5121968Y-10034055D02*
X5131491Y-10015008D01*
X5131491Y-10015008D02*
X5150539Y-9986436D01*
X5150539Y-9986436D02*
X5160063Y-9976912D01*
X5321968Y-10072150D02*
X5321968Y-10205484D01*
X5274349Y-9995960D02*
X5226730Y-10138817D01*
X5226730Y-10138817D02*
X5350539Y-10138817D01*
X5579111Y-10205484D02*
X5579111Y-10005484D01*
X5664825Y-10205484D02*
X5664825Y-10100722D01*
X5664825Y-10100722D02*
X5655301Y-10081674D01*
X5655301Y-10081674D02*
X5636253Y-10072150D01*
X5636253Y-10072150D02*
X5607682Y-10072150D01*
X5607682Y-10072150D02*
X5588634Y-10081674D01*
X5588634Y-10081674D02*
X5579111Y-10091198D01*
X5788634Y-10205484D02*
X5769587Y-10195960D01*
X5769587Y-10195960D02*
X5760063Y-10186436D01*
X5760063Y-10186436D02*
X5750539Y-10167389D01*
X5750539Y-10167389D02*
X5750539Y-10110246D01*
X5750539Y-10110246D02*
X5760063Y-10091198D01*
X5760063Y-10091198D02*
X5769587Y-10081674D01*
X5769587Y-10081674D02*
X5788634Y-10072150D01*
X5788634Y-10072150D02*
X5817206Y-10072150D01*
X5817206Y-10072150D02*
X5836253Y-10081674D01*
X5836253Y-10081674D02*
X5845777Y-10091198D01*
X5845777Y-10091198D02*
X5855301Y-10110246D01*
X5855301Y-10110246D02*
X5855301Y-10167389D01*
X5855301Y-10167389D02*
X5845777Y-10186436D01*
X5845777Y-10186436D02*
X5836253Y-10195960D01*
X5836253Y-10195960D02*
X5817206Y-10205484D01*
X5817206Y-10205484D02*
X5788634Y-10205484D01*
X5969587Y-10205484D02*
X5950539Y-10195960D01*
X5950539Y-10195960D02*
X5941015Y-10176912D01*
X5941015Y-10176912D02*
X5941015Y-10005484D01*
X6121968Y-10195960D02*
X6102920Y-10205484D01*
X6102920Y-10205484D02*
X6064825Y-10205484D01*
X6064825Y-10205484D02*
X6045777Y-10195960D01*
X6045777Y-10195960D02*
X6036253Y-10176912D01*
X6036253Y-10176912D02*
X6036253Y-10100722D01*
X6036253Y-10100722D02*
X6045777Y-10081674D01*
X6045777Y-10081674D02*
X6064825Y-10072150D01*
X6064825Y-10072150D02*
X6102920Y-10072150D01*
X6102920Y-10072150D02*
X6121968Y-10081674D01*
X6121968Y-10081674D02*
X6131491Y-10100722D01*
X6131491Y-10100722D02*
X6131491Y-10119770D01*
X6131491Y-10119770D02*
X6036253Y-10138817D01*
X6207682Y-10195960D02*
X6226730Y-10205484D01*
X6226730Y-10205484D02*
X6264825Y-10205484D01*
X6264825Y-10205484D02*
X6283872Y-10195960D01*
X6283872Y-10195960D02*
X6293396Y-10176912D01*
X6293396Y-10176912D02*
X6293396Y-10167389D01*
X6293396Y-10167389D02*
X6283872Y-10148341D01*
X6283872Y-10148341D02*
X6264825Y-10138817D01*
X6264825Y-10138817D02*
X6236253Y-10138817D01*
X6236253Y-10138817D02*
X6217206Y-10129293D01*
X6217206Y-10129293D02*
X6207682Y-10110246D01*
X6207682Y-10110246D02*
X6207682Y-10100722D01*
X6207682Y-10100722D02*
X6217206Y-10081674D01*
X6217206Y-10081674D02*
X6236253Y-10072150D01*
X6236253Y-10072150D02*
X6264825Y-10072150D01*
X6264825Y-10072150D02*
X6283872Y-10081674D01*
X6360063Y-10281674D02*
X6369587Y-10272150D01*
X6369587Y-10272150D02*
X6388634Y-10243579D01*
X6388634Y-10243579D02*
X6398158Y-10224531D01*
X6398158Y-10224531D02*
X6407682Y-10195960D01*
X6407682Y-10195960D02*
X6417206Y-10148341D01*
X6417206Y-10148341D02*
X6417206Y-10110246D01*
X6417206Y-10110246D02*
X6407682Y-10062627D01*
X6407682Y-10062627D02*
X6398158Y-10034055D01*
X6398158Y-10034055D02*
X6388634Y-10015008D01*
X6388634Y-10015008D02*
X6369587Y-9986436D01*
X6369587Y-9986436D02*
X6360063Y-9976912D01*
D12*
X1535000Y-10328000D02*
X1535000Y-10428000D01*
X1485000Y-10378000D02*
X1585000Y-10378000D01*
D11*
X1950539Y-10469484D02*
X1836253Y-10469484D01*
X1893396Y-10469484D02*
X1893396Y-10269484D01*
X1893396Y-10269484D02*
X1874348Y-10298055D01*
X1874348Y-10298055D02*
X1855301Y-10317103D01*
X1855301Y-10317103D02*
X1836253Y-10326627D01*
X2036253Y-10450436D02*
X2045777Y-10459960D01*
X2045777Y-10459960D02*
X2036253Y-10469484D01*
X2036253Y-10469484D02*
X2026729Y-10459960D01*
X2026729Y-10459960D02*
X2036253Y-10450436D01*
X2036253Y-10450436D02*
X2036253Y-10469484D01*
X2169586Y-10269484D02*
X2188634Y-10269484D01*
X2188634Y-10269484D02*
X2207682Y-10279008D01*
X2207682Y-10279008D02*
X2217205Y-10288531D01*
X2217205Y-10288531D02*
X2226729Y-10307579D01*
X2226729Y-10307579D02*
X2236253Y-10345674D01*
X2236253Y-10345674D02*
X2236253Y-10393293D01*
X2236253Y-10393293D02*
X2226729Y-10431389D01*
X2226729Y-10431389D02*
X2217205Y-10450436D01*
X2217205Y-10450436D02*
X2207682Y-10459960D01*
X2207682Y-10459960D02*
X2188634Y-10469484D01*
X2188634Y-10469484D02*
X2169586Y-10469484D01*
X2169586Y-10469484D02*
X2150539Y-10459960D01*
X2150539Y-10459960D02*
X2141015Y-10450436D01*
X2141015Y-10450436D02*
X2131491Y-10431389D01*
X2131491Y-10431389D02*
X2121967Y-10393293D01*
X2121967Y-10393293D02*
X2121967Y-10345674D01*
X2121967Y-10345674D02*
X2131491Y-10307579D01*
X2131491Y-10307579D02*
X2141015Y-10288531D01*
X2141015Y-10288531D02*
X2150539Y-10279008D01*
X2150539Y-10279008D02*
X2169586Y-10269484D01*
X2360063Y-10269484D02*
X2379110Y-10269484D01*
X2379110Y-10269484D02*
X2398158Y-10279008D01*
X2398158Y-10279008D02*
X2407682Y-10288531D01*
X2407682Y-10288531D02*
X2417205Y-10307579D01*
X2417205Y-10307579D02*
X2426729Y-10345674D01*
X2426729Y-10345674D02*
X2426729Y-10393293D01*
X2426729Y-10393293D02*
X2417205Y-10431389D01*
X2417205Y-10431389D02*
X2407682Y-10450436D01*
X2407682Y-10450436D02*
X2398158Y-10459960D01*
X2398158Y-10459960D02*
X2379110Y-10469484D01*
X2379110Y-10469484D02*
X2360063Y-10469484D01*
X2360063Y-10469484D02*
X2341015Y-10459960D01*
X2341015Y-10459960D02*
X2331491Y-10450436D01*
X2331491Y-10450436D02*
X2321967Y-10431389D01*
X2321967Y-10431389D02*
X2312444Y-10393293D01*
X2312444Y-10393293D02*
X2312444Y-10345674D01*
X2312444Y-10345674D02*
X2321967Y-10307579D01*
X2321967Y-10307579D02*
X2331491Y-10288531D01*
X2331491Y-10288531D02*
X2341015Y-10279008D01*
X2341015Y-10279008D02*
X2360063Y-10269484D01*
X2550539Y-10269484D02*
X2569586Y-10269484D01*
X2569586Y-10269484D02*
X2588634Y-10279008D01*
X2588634Y-10279008D02*
X2598158Y-10288531D01*
X2598158Y-10288531D02*
X2607682Y-10307579D01*
X2607682Y-10307579D02*
X2617205Y-10345674D01*
X2617205Y-10345674D02*
X2617205Y-10393293D01*
X2617205Y-10393293D02*
X2607682Y-10431389D01*
X2607682Y-10431389D02*
X2598158Y-10450436D01*
X2598158Y-10450436D02*
X2588634Y-10459960D01*
X2588634Y-10459960D02*
X2569586Y-10469484D01*
X2569586Y-10469484D02*
X2550539Y-10469484D01*
X2550539Y-10469484D02*
X2531491Y-10459960D01*
X2531491Y-10459960D02*
X2521967Y-10450436D01*
X2521967Y-10450436D02*
X2512444Y-10431389D01*
X2512444Y-10431389D02*
X2502920Y-10393293D01*
X2502920Y-10393293D02*
X2502920Y-10345674D01*
X2502920Y-10345674D02*
X2512444Y-10307579D01*
X2512444Y-10307579D02*
X2521967Y-10288531D01*
X2521967Y-10288531D02*
X2531491Y-10279008D01*
X2531491Y-10279008D02*
X2550539Y-10269484D01*
X2702920Y-10469484D02*
X2702920Y-10336150D01*
X2702920Y-10355198D02*
X2712444Y-10345674D01*
X2712444Y-10345674D02*
X2731491Y-10336150D01*
X2731491Y-10336150D02*
X2760063Y-10336150D01*
X2760063Y-10336150D02*
X2779110Y-10345674D01*
X2779110Y-10345674D02*
X2788634Y-10364722D01*
X2788634Y-10364722D02*
X2788634Y-10469484D01*
X2788634Y-10364722D02*
X2798158Y-10345674D01*
X2798158Y-10345674D02*
X2817205Y-10336150D01*
X2817205Y-10336150D02*
X2845777Y-10336150D01*
X2845777Y-10336150D02*
X2864824Y-10345674D01*
X2864824Y-10345674D02*
X2874348Y-10364722D01*
X2874348Y-10364722D02*
X2874348Y-10469484D01*
X2969586Y-10469484D02*
X2969586Y-10336150D01*
X2969586Y-10355198D02*
X2979110Y-10345674D01*
X2979110Y-10345674D02*
X2998158Y-10336150D01*
X2998158Y-10336150D02*
X3026729Y-10336150D01*
X3026729Y-10336150D02*
X3045777Y-10345674D01*
X3045777Y-10345674D02*
X3055301Y-10364722D01*
X3055301Y-10364722D02*
X3055301Y-10469484D01*
X3055301Y-10364722D02*
X3064824Y-10345674D01*
X3064824Y-10345674D02*
X3083872Y-10336150D01*
X3083872Y-10336150D02*
X3112443Y-10336150D01*
X3112443Y-10336150D02*
X3131491Y-10345674D01*
X3131491Y-10345674D02*
X3141015Y-10364722D01*
X3141015Y-10364722D02*
X3141015Y-10469484D01*
X3531491Y-10259960D02*
X3360063Y-10517103D01*
X3788634Y-10269484D02*
X3807682Y-10269484D01*
X3807682Y-10269484D02*
X3826729Y-10279008D01*
X3826729Y-10279008D02*
X3836253Y-10288531D01*
X3836253Y-10288531D02*
X3845777Y-10307579D01*
X3845777Y-10307579D02*
X3855301Y-10345674D01*
X3855301Y-10345674D02*
X3855301Y-10393293D01*
X3855301Y-10393293D02*
X3845777Y-10431389D01*
X3845777Y-10431389D02*
X3836253Y-10450436D01*
X3836253Y-10450436D02*
X3826729Y-10459960D01*
X3826729Y-10459960D02*
X3807682Y-10469484D01*
X3807682Y-10469484D02*
X3788634Y-10469484D01*
X3788634Y-10469484D02*
X3769586Y-10459960D01*
X3769586Y-10459960D02*
X3760063Y-10450436D01*
X3760063Y-10450436D02*
X3750539Y-10431389D01*
X3750539Y-10431389D02*
X3741015Y-10393293D01*
X3741015Y-10393293D02*
X3741015Y-10345674D01*
X3741015Y-10345674D02*
X3750539Y-10307579D01*
X3750539Y-10307579D02*
X3760063Y-10288531D01*
X3760063Y-10288531D02*
X3769586Y-10279008D01*
X3769586Y-10279008D02*
X3788634Y-10269484D01*
X3941015Y-10450436D02*
X3950539Y-10459960D01*
X3950539Y-10459960D02*
X3941015Y-10469484D01*
X3941015Y-10469484D02*
X3931491Y-10459960D01*
X3931491Y-10459960D02*
X3941015Y-10450436D01*
X3941015Y-10450436D02*
X3941015Y-10469484D01*
X4074348Y-10269484D02*
X4093396Y-10269484D01*
X4093396Y-10269484D02*
X4112444Y-10279008D01*
X4112444Y-10279008D02*
X4121967Y-10288531D01*
X4121967Y-10288531D02*
X4131491Y-10307579D01*
X4131491Y-10307579D02*
X4141015Y-10345674D01*
X4141015Y-10345674D02*
X4141015Y-10393293D01*
X4141015Y-10393293D02*
X4131491Y-10431389D01*
X4131491Y-10431389D02*
X4121967Y-10450436D01*
X4121967Y-10450436D02*
X4112444Y-10459960D01*
X4112444Y-10459960D02*
X4093396Y-10469484D01*
X4093396Y-10469484D02*
X4074348Y-10469484D01*
X4074348Y-10469484D02*
X4055301Y-10459960D01*
X4055301Y-10459960D02*
X4045777Y-10450436D01*
X4045777Y-10450436D02*
X4036253Y-10431389D01*
X4036253Y-10431389D02*
X4026729Y-10393293D01*
X4026729Y-10393293D02*
X4026729Y-10345674D01*
X4026729Y-10345674D02*
X4036253Y-10307579D01*
X4036253Y-10307579D02*
X4045777Y-10288531D01*
X4045777Y-10288531D02*
X4055301Y-10279008D01*
X4055301Y-10279008D02*
X4074348Y-10269484D01*
X4207682Y-10269484D02*
X4331491Y-10269484D01*
X4331491Y-10269484D02*
X4264825Y-10345674D01*
X4264825Y-10345674D02*
X4293396Y-10345674D01*
X4293396Y-10345674D02*
X4312444Y-10355198D01*
X4312444Y-10355198D02*
X4321968Y-10364722D01*
X4321968Y-10364722D02*
X4331491Y-10383770D01*
X4331491Y-10383770D02*
X4331491Y-10431389D01*
X4331491Y-10431389D02*
X4321968Y-10450436D01*
X4321968Y-10450436D02*
X4312444Y-10459960D01*
X4312444Y-10459960D02*
X4293396Y-10469484D01*
X4293396Y-10469484D02*
X4236253Y-10469484D01*
X4236253Y-10469484D02*
X4217206Y-10459960D01*
X4217206Y-10459960D02*
X4207682Y-10450436D01*
X4426729Y-10469484D02*
X4464825Y-10469484D01*
X4464825Y-10469484D02*
X4483872Y-10459960D01*
X4483872Y-10459960D02*
X4493396Y-10450436D01*
X4493396Y-10450436D02*
X4512444Y-10421865D01*
X4512444Y-10421865D02*
X4521968Y-10383770D01*
X4521968Y-10383770D02*
X4521968Y-10307579D01*
X4521968Y-10307579D02*
X4512444Y-10288531D01*
X4512444Y-10288531D02*
X4502920Y-10279008D01*
X4502920Y-10279008D02*
X4483872Y-10269484D01*
X4483872Y-10269484D02*
X4445777Y-10269484D01*
X4445777Y-10269484D02*
X4426729Y-10279008D01*
X4426729Y-10279008D02*
X4417206Y-10288531D01*
X4417206Y-10288531D02*
X4407682Y-10307579D01*
X4407682Y-10307579D02*
X4407682Y-10355198D01*
X4407682Y-10355198D02*
X4417206Y-10374246D01*
X4417206Y-10374246D02*
X4426729Y-10383770D01*
X4426729Y-10383770D02*
X4445777Y-10393293D01*
X4445777Y-10393293D02*
X4483872Y-10393293D01*
X4483872Y-10393293D02*
X4502920Y-10383770D01*
X4502920Y-10383770D02*
X4512444Y-10374246D01*
X4512444Y-10374246D02*
X4521968Y-10355198D01*
X4693396Y-10336150D02*
X4693396Y-10469484D01*
X4645777Y-10259960D02*
X4598158Y-10402817D01*
X4598158Y-10402817D02*
X4721968Y-10402817D01*
X4788634Y-10269484D02*
X4788634Y-10307579D01*
X4864825Y-10269484D02*
X4864825Y-10307579D01*
X5160063Y-10545674D02*
X5150539Y-10536150D01*
X5150539Y-10536150D02*
X5131491Y-10507579D01*
X5131491Y-10507579D02*
X5121968Y-10488531D01*
X5121968Y-10488531D02*
X5112444Y-10459960D01*
X5112444Y-10459960D02*
X5102920Y-10412341D01*
X5102920Y-10412341D02*
X5102920Y-10374246D01*
X5102920Y-10374246D02*
X5112444Y-10326627D01*
X5112444Y-10326627D02*
X5121968Y-10298055D01*
X5121968Y-10298055D02*
X5131491Y-10279008D01*
X5131491Y-10279008D02*
X5150539Y-10250436D01*
X5150539Y-10250436D02*
X5160063Y-10240912D01*
X5341015Y-10469484D02*
X5226730Y-10469484D01*
X5283872Y-10469484D02*
X5283872Y-10269484D01*
X5283872Y-10269484D02*
X5264825Y-10298055D01*
X5264825Y-10298055D02*
X5245777Y-10317103D01*
X5245777Y-10317103D02*
X5226730Y-10326627D01*
X5521968Y-10269484D02*
X5426730Y-10269484D01*
X5426730Y-10269484D02*
X5417206Y-10364722D01*
X5417206Y-10364722D02*
X5426730Y-10355198D01*
X5426730Y-10355198D02*
X5445777Y-10345674D01*
X5445777Y-10345674D02*
X5493396Y-10345674D01*
X5493396Y-10345674D02*
X5512444Y-10355198D01*
X5512444Y-10355198D02*
X5521968Y-10364722D01*
X5521968Y-10364722D02*
X5531491Y-10383770D01*
X5531491Y-10383770D02*
X5531491Y-10431389D01*
X5531491Y-10431389D02*
X5521968Y-10450436D01*
X5521968Y-10450436D02*
X5512444Y-10459960D01*
X5512444Y-10459960D02*
X5493396Y-10469484D01*
X5493396Y-10469484D02*
X5445777Y-10469484D01*
X5445777Y-10469484D02*
X5426730Y-10459960D01*
X5426730Y-10459960D02*
X5417206Y-10450436D01*
X5769587Y-10469484D02*
X5769587Y-10269484D01*
X5855301Y-10469484D02*
X5855301Y-10364722D01*
X5855301Y-10364722D02*
X5845777Y-10345674D01*
X5845777Y-10345674D02*
X5826730Y-10336150D01*
X5826730Y-10336150D02*
X5798158Y-10336150D01*
X5798158Y-10336150D02*
X5779110Y-10345674D01*
X5779110Y-10345674D02*
X5769587Y-10355198D01*
X5979110Y-10469484D02*
X5960063Y-10459960D01*
X5960063Y-10459960D02*
X5950539Y-10450436D01*
X5950539Y-10450436D02*
X5941015Y-10431389D01*
X5941015Y-10431389D02*
X5941015Y-10374246D01*
X5941015Y-10374246D02*
X5950539Y-10355198D01*
X5950539Y-10355198D02*
X5960063Y-10345674D01*
X5960063Y-10345674D02*
X5979110Y-10336150D01*
X5979110Y-10336150D02*
X6007682Y-10336150D01*
X6007682Y-10336150D02*
X6026730Y-10345674D01*
X6026730Y-10345674D02*
X6036253Y-10355198D01*
X6036253Y-10355198D02*
X6045777Y-10374246D01*
X6045777Y-10374246D02*
X6045777Y-10431389D01*
X6045777Y-10431389D02*
X6036253Y-10450436D01*
X6036253Y-10450436D02*
X6026730Y-10459960D01*
X6026730Y-10459960D02*
X6007682Y-10469484D01*
X6007682Y-10469484D02*
X5979110Y-10469484D01*
X6160063Y-10469484D02*
X6141015Y-10459960D01*
X6141015Y-10459960D02*
X6131491Y-10440912D01*
X6131491Y-10440912D02*
X6131491Y-10269484D01*
X6312444Y-10459960D02*
X6293396Y-10469484D01*
X6293396Y-10469484D02*
X6255301Y-10469484D01*
X6255301Y-10469484D02*
X6236253Y-10459960D01*
X6236253Y-10459960D02*
X6226730Y-10440912D01*
X6226730Y-10440912D02*
X6226730Y-10364722D01*
X6226730Y-10364722D02*
X6236253Y-10345674D01*
X6236253Y-10345674D02*
X6255301Y-10336150D01*
X6255301Y-10336150D02*
X6293396Y-10336150D01*
X6293396Y-10336150D02*
X6312444Y-10345674D01*
X6312444Y-10345674D02*
X6321968Y-10364722D01*
X6321968Y-10364722D02*
X6321968Y-10383770D01*
X6321968Y-10383770D02*
X6226730Y-10402817D01*
X6398158Y-10459960D02*
X6417206Y-10469484D01*
X6417206Y-10469484D02*
X6455301Y-10469484D01*
X6455301Y-10469484D02*
X6474349Y-10459960D01*
X6474349Y-10459960D02*
X6483872Y-10440912D01*
X6483872Y-10440912D02*
X6483872Y-10431389D01*
X6483872Y-10431389D02*
X6474349Y-10412341D01*
X6474349Y-10412341D02*
X6455301Y-10402817D01*
X6455301Y-10402817D02*
X6426730Y-10402817D01*
X6426730Y-10402817D02*
X6407682Y-10393293D01*
X6407682Y-10393293D02*
X6398158Y-10374246D01*
X6398158Y-10374246D02*
X6398158Y-10364722D01*
X6398158Y-10364722D02*
X6407682Y-10345674D01*
X6407682Y-10345674D02*
X6426730Y-10336150D01*
X6426730Y-10336150D02*
X6455301Y-10336150D01*
X6455301Y-10336150D02*
X6474349Y-10345674D01*
X6550539Y-10545674D02*
X6560063Y-10536150D01*
X6560063Y-10536150D02*
X6579111Y-10507579D01*
X6579111Y-10507579D02*
X6588634Y-10488531D01*
X6588634Y-10488531D02*
X6598158Y-10459960D01*
X6598158Y-10459960D02*
X6607682Y-10412341D01*
X6607682Y-10412341D02*
X6607682Y-10374246D01*
X6607682Y-10374246D02*
X6598158Y-10326627D01*
X6598158Y-10326627D02*
X6588634Y-10298055D01*
X6588634Y-10298055D02*
X6579111Y-10279008D01*
X6579111Y-10279008D02*
X6560063Y-10250436D01*
X6560063Y-10250436D02*
X6550539Y-10240912D01*
X1555711Y-10712711D02*
X1555711Y-10571289D01*
X1414289Y-10571289D01*
X1414289Y-10712711D01*
X1555711Y-10712711D01*
X1826729Y-10533484D02*
X1950539Y-10533484D01*
X1950539Y-10533484D02*
X1883872Y-10609674D01*
X1883872Y-10609674D02*
X1912443Y-10609674D01*
X1912443Y-10609674D02*
X1931491Y-10619198D01*
X1931491Y-10619198D02*
X1941015Y-10628722D01*
X1941015Y-10628722D02*
X1950539Y-10647770D01*
X1950539Y-10647770D02*
X1950539Y-10695389D01*
X1950539Y-10695389D02*
X1941015Y-10714436D01*
X1941015Y-10714436D02*
X1931491Y-10723960D01*
X1931491Y-10723960D02*
X1912443Y-10733484D01*
X1912443Y-10733484D02*
X1855301Y-10733484D01*
X1855301Y-10733484D02*
X1836253Y-10723960D01*
X1836253Y-10723960D02*
X1826729Y-10714436D01*
X2036253Y-10714436D02*
X2045777Y-10723960D01*
X2045777Y-10723960D02*
X2036253Y-10733484D01*
X2036253Y-10733484D02*
X2026729Y-10723960D01*
X2026729Y-10723960D02*
X2036253Y-10714436D01*
X2036253Y-10714436D02*
X2036253Y-10733484D01*
X2169586Y-10533484D02*
X2188634Y-10533484D01*
X2188634Y-10533484D02*
X2207682Y-10543008D01*
X2207682Y-10543008D02*
X2217205Y-10552531D01*
X2217205Y-10552531D02*
X2226729Y-10571579D01*
X2226729Y-10571579D02*
X2236253Y-10609674D01*
X2236253Y-10609674D02*
X2236253Y-10657293D01*
X2236253Y-10657293D02*
X2226729Y-10695389D01*
X2226729Y-10695389D02*
X2217205Y-10714436D01*
X2217205Y-10714436D02*
X2207682Y-10723960D01*
X2207682Y-10723960D02*
X2188634Y-10733484D01*
X2188634Y-10733484D02*
X2169586Y-10733484D01*
X2169586Y-10733484D02*
X2150539Y-10723960D01*
X2150539Y-10723960D02*
X2141015Y-10714436D01*
X2141015Y-10714436D02*
X2131491Y-10695389D01*
X2131491Y-10695389D02*
X2121967Y-10657293D01*
X2121967Y-10657293D02*
X2121967Y-10609674D01*
X2121967Y-10609674D02*
X2131491Y-10571579D01*
X2131491Y-10571579D02*
X2141015Y-10552531D01*
X2141015Y-10552531D02*
X2150539Y-10543008D01*
X2150539Y-10543008D02*
X2169586Y-10533484D01*
X2360063Y-10533484D02*
X2379110Y-10533484D01*
X2379110Y-10533484D02*
X2398158Y-10543008D01*
X2398158Y-10543008D02*
X2407682Y-10552531D01*
X2407682Y-10552531D02*
X2417205Y-10571579D01*
X2417205Y-10571579D02*
X2426729Y-10609674D01*
X2426729Y-10609674D02*
X2426729Y-10657293D01*
X2426729Y-10657293D02*
X2417205Y-10695389D01*
X2417205Y-10695389D02*
X2407682Y-10714436D01*
X2407682Y-10714436D02*
X2398158Y-10723960D01*
X2398158Y-10723960D02*
X2379110Y-10733484D01*
X2379110Y-10733484D02*
X2360063Y-10733484D01*
X2360063Y-10733484D02*
X2341015Y-10723960D01*
X2341015Y-10723960D02*
X2331491Y-10714436D01*
X2331491Y-10714436D02*
X2321967Y-10695389D01*
X2321967Y-10695389D02*
X2312444Y-10657293D01*
X2312444Y-10657293D02*
X2312444Y-10609674D01*
X2312444Y-10609674D02*
X2321967Y-10571579D01*
X2321967Y-10571579D02*
X2331491Y-10552531D01*
X2331491Y-10552531D02*
X2341015Y-10543008D01*
X2341015Y-10543008D02*
X2360063Y-10533484D01*
X2550539Y-10533484D02*
X2569586Y-10533484D01*
X2569586Y-10533484D02*
X2588634Y-10543008D01*
X2588634Y-10543008D02*
X2598158Y-10552531D01*
X2598158Y-10552531D02*
X2607682Y-10571579D01*
X2607682Y-10571579D02*
X2617205Y-10609674D01*
X2617205Y-10609674D02*
X2617205Y-10657293D01*
X2617205Y-10657293D02*
X2607682Y-10695389D01*
X2607682Y-10695389D02*
X2598158Y-10714436D01*
X2598158Y-10714436D02*
X2588634Y-10723960D01*
X2588634Y-10723960D02*
X2569586Y-10733484D01*
X2569586Y-10733484D02*
X2550539Y-10733484D01*
X2550539Y-10733484D02*
X2531491Y-10723960D01*
X2531491Y-10723960D02*
X2521967Y-10714436D01*
X2521967Y-10714436D02*
X2512444Y-10695389D01*
X2512444Y-10695389D02*
X2502920Y-10657293D01*
X2502920Y-10657293D02*
X2502920Y-10609674D01*
X2502920Y-10609674D02*
X2512444Y-10571579D01*
X2512444Y-10571579D02*
X2521967Y-10552531D01*
X2521967Y-10552531D02*
X2531491Y-10543008D01*
X2531491Y-10543008D02*
X2550539Y-10533484D01*
X2702920Y-10733484D02*
X2702920Y-10600150D01*
X2702920Y-10619198D02*
X2712444Y-10609674D01*
X2712444Y-10609674D02*
X2731491Y-10600150D01*
X2731491Y-10600150D02*
X2760063Y-10600150D01*
X2760063Y-10600150D02*
X2779110Y-10609674D01*
X2779110Y-10609674D02*
X2788634Y-10628722D01*
X2788634Y-10628722D02*
X2788634Y-10733484D01*
X2788634Y-10628722D02*
X2798158Y-10609674D01*
X2798158Y-10609674D02*
X2817205Y-10600150D01*
X2817205Y-10600150D02*
X2845777Y-10600150D01*
X2845777Y-10600150D02*
X2864824Y-10609674D01*
X2864824Y-10609674D02*
X2874348Y-10628722D01*
X2874348Y-10628722D02*
X2874348Y-10733484D01*
X2969586Y-10733484D02*
X2969586Y-10600150D01*
X2969586Y-10619198D02*
X2979110Y-10609674D01*
X2979110Y-10609674D02*
X2998158Y-10600150D01*
X2998158Y-10600150D02*
X3026729Y-10600150D01*
X3026729Y-10600150D02*
X3045777Y-10609674D01*
X3045777Y-10609674D02*
X3055301Y-10628722D01*
X3055301Y-10628722D02*
X3055301Y-10733484D01*
X3055301Y-10628722D02*
X3064824Y-10609674D01*
X3064824Y-10609674D02*
X3083872Y-10600150D01*
X3083872Y-10600150D02*
X3112443Y-10600150D01*
X3112443Y-10600150D02*
X3131491Y-10609674D01*
X3131491Y-10609674D02*
X3141015Y-10628722D01*
X3141015Y-10628722D02*
X3141015Y-10733484D01*
X3531491Y-10523960D02*
X3360063Y-10781103D01*
X3788634Y-10533484D02*
X3807682Y-10533484D01*
X3807682Y-10533484D02*
X3826729Y-10543008D01*
X3826729Y-10543008D02*
X3836253Y-10552531D01*
X3836253Y-10552531D02*
X3845777Y-10571579D01*
X3845777Y-10571579D02*
X3855301Y-10609674D01*
X3855301Y-10609674D02*
X3855301Y-10657293D01*
X3855301Y-10657293D02*
X3845777Y-10695389D01*
X3845777Y-10695389D02*
X3836253Y-10714436D01*
X3836253Y-10714436D02*
X3826729Y-10723960D01*
X3826729Y-10723960D02*
X3807682Y-10733484D01*
X3807682Y-10733484D02*
X3788634Y-10733484D01*
X3788634Y-10733484D02*
X3769586Y-10723960D01*
X3769586Y-10723960D02*
X3760063Y-10714436D01*
X3760063Y-10714436D02*
X3750539Y-10695389D01*
X3750539Y-10695389D02*
X3741015Y-10657293D01*
X3741015Y-10657293D02*
X3741015Y-10609674D01*
X3741015Y-10609674D02*
X3750539Y-10571579D01*
X3750539Y-10571579D02*
X3760063Y-10552531D01*
X3760063Y-10552531D02*
X3769586Y-10543008D01*
X3769586Y-10543008D02*
X3788634Y-10533484D01*
X3941015Y-10714436D02*
X3950539Y-10723960D01*
X3950539Y-10723960D02*
X3941015Y-10733484D01*
X3941015Y-10733484D02*
X3931491Y-10723960D01*
X3931491Y-10723960D02*
X3941015Y-10714436D01*
X3941015Y-10714436D02*
X3941015Y-10733484D01*
X4141015Y-10733484D02*
X4026729Y-10733484D01*
X4083872Y-10733484D02*
X4083872Y-10533484D01*
X4083872Y-10533484D02*
X4064825Y-10562055D01*
X4064825Y-10562055D02*
X4045777Y-10581103D01*
X4045777Y-10581103D02*
X4026729Y-10590627D01*
X4331491Y-10733484D02*
X4217206Y-10733484D01*
X4274348Y-10733484D02*
X4274348Y-10533484D01*
X4274348Y-10533484D02*
X4255301Y-10562055D01*
X4255301Y-10562055D02*
X4236253Y-10581103D01*
X4236253Y-10581103D02*
X4217206Y-10590627D01*
X4445777Y-10619198D02*
X4426729Y-10609674D01*
X4426729Y-10609674D02*
X4417206Y-10600150D01*
X4417206Y-10600150D02*
X4407682Y-10581103D01*
X4407682Y-10581103D02*
X4407682Y-10571579D01*
X4407682Y-10571579D02*
X4417206Y-10552531D01*
X4417206Y-10552531D02*
X4426729Y-10543008D01*
X4426729Y-10543008D02*
X4445777Y-10533484D01*
X4445777Y-10533484D02*
X4483872Y-10533484D01*
X4483872Y-10533484D02*
X4502920Y-10543008D01*
X4502920Y-10543008D02*
X4512444Y-10552531D01*
X4512444Y-10552531D02*
X4521968Y-10571579D01*
X4521968Y-10571579D02*
X4521968Y-10581103D01*
X4521968Y-10581103D02*
X4512444Y-10600150D01*
X4512444Y-10600150D02*
X4502920Y-10609674D01*
X4502920Y-10609674D02*
X4483872Y-10619198D01*
X4483872Y-10619198D02*
X4445777Y-10619198D01*
X4445777Y-10619198D02*
X4426729Y-10628722D01*
X4426729Y-10628722D02*
X4417206Y-10638246D01*
X4417206Y-10638246D02*
X4407682Y-10657293D01*
X4407682Y-10657293D02*
X4407682Y-10695389D01*
X4407682Y-10695389D02*
X4417206Y-10714436D01*
X4417206Y-10714436D02*
X4426729Y-10723960D01*
X4426729Y-10723960D02*
X4445777Y-10733484D01*
X4445777Y-10733484D02*
X4483872Y-10733484D01*
X4483872Y-10733484D02*
X4502920Y-10723960D01*
X4502920Y-10723960D02*
X4512444Y-10714436D01*
X4512444Y-10714436D02*
X4521968Y-10695389D01*
X4521968Y-10695389D02*
X4521968Y-10657293D01*
X4521968Y-10657293D02*
X4512444Y-10638246D01*
X4512444Y-10638246D02*
X4502920Y-10628722D01*
X4502920Y-10628722D02*
X4483872Y-10619198D01*
X4712444Y-10733484D02*
X4598158Y-10733484D01*
X4655301Y-10733484D02*
X4655301Y-10533484D01*
X4655301Y-10533484D02*
X4636253Y-10562055D01*
X4636253Y-10562055D02*
X4617206Y-10581103D01*
X4617206Y-10581103D02*
X4598158Y-10590627D01*
X4788634Y-10533484D02*
X4788634Y-10571579D01*
X4864825Y-10533484D02*
X4864825Y-10571579D01*
X5160063Y-10809674D02*
X5150539Y-10800150D01*
X5150539Y-10800150D02*
X5131491Y-10771579D01*
X5131491Y-10771579D02*
X5121968Y-10752531D01*
X5121968Y-10752531D02*
X5112444Y-10723960D01*
X5112444Y-10723960D02*
X5102920Y-10676341D01*
X5102920Y-10676341D02*
X5102920Y-10638246D01*
X5102920Y-10638246D02*
X5112444Y-10590627D01*
X5112444Y-10590627D02*
X5121968Y-10562055D01*
X5121968Y-10562055D02*
X5131491Y-10543008D01*
X5131491Y-10543008D02*
X5150539Y-10514436D01*
X5150539Y-10514436D02*
X5160063Y-10504912D01*
X5341015Y-10733484D02*
X5226730Y-10733484D01*
X5283872Y-10733484D02*
X5283872Y-10533484D01*
X5283872Y-10533484D02*
X5264825Y-10562055D01*
X5264825Y-10562055D02*
X5245777Y-10581103D01*
X5245777Y-10581103D02*
X5226730Y-10590627D01*
X5455301Y-10619198D02*
X5436253Y-10609674D01*
X5436253Y-10609674D02*
X5426730Y-10600150D01*
X5426730Y-10600150D02*
X5417206Y-10581103D01*
X5417206Y-10581103D02*
X5417206Y-10571579D01*
X5417206Y-10571579D02*
X5426730Y-10552531D01*
X5426730Y-10552531D02*
X5436253Y-10543008D01*
X5436253Y-10543008D02*
X5455301Y-10533484D01*
X5455301Y-10533484D02*
X5493396Y-10533484D01*
X5493396Y-10533484D02*
X5512444Y-10543008D01*
X5512444Y-10543008D02*
X5521968Y-10552531D01*
X5521968Y-10552531D02*
X5531491Y-10571579D01*
X5531491Y-10571579D02*
X5531491Y-10581103D01*
X5531491Y-10581103D02*
X5521968Y-10600150D01*
X5521968Y-10600150D02*
X5512444Y-10609674D01*
X5512444Y-10609674D02*
X5493396Y-10619198D01*
X5493396Y-10619198D02*
X5455301Y-10619198D01*
X5455301Y-10619198D02*
X5436253Y-10628722D01*
X5436253Y-10628722D02*
X5426730Y-10638246D01*
X5426730Y-10638246D02*
X5417206Y-10657293D01*
X5417206Y-10657293D02*
X5417206Y-10695389D01*
X5417206Y-10695389D02*
X5426730Y-10714436D01*
X5426730Y-10714436D02*
X5436253Y-10723960D01*
X5436253Y-10723960D02*
X5455301Y-10733484D01*
X5455301Y-10733484D02*
X5493396Y-10733484D01*
X5493396Y-10733484D02*
X5512444Y-10723960D01*
X5512444Y-10723960D02*
X5521968Y-10714436D01*
X5521968Y-10714436D02*
X5531491Y-10695389D01*
X5531491Y-10695389D02*
X5531491Y-10657293D01*
X5531491Y-10657293D02*
X5521968Y-10638246D01*
X5521968Y-10638246D02*
X5512444Y-10628722D01*
X5512444Y-10628722D02*
X5493396Y-10619198D01*
X5702920Y-10533484D02*
X5664825Y-10533484D01*
X5664825Y-10533484D02*
X5645777Y-10543008D01*
X5645777Y-10543008D02*
X5636253Y-10552531D01*
X5636253Y-10552531D02*
X5617206Y-10581103D01*
X5617206Y-10581103D02*
X5607682Y-10619198D01*
X5607682Y-10619198D02*
X5607682Y-10695389D01*
X5607682Y-10695389D02*
X5617206Y-10714436D01*
X5617206Y-10714436D02*
X5626729Y-10723960D01*
X5626729Y-10723960D02*
X5645777Y-10733484D01*
X5645777Y-10733484D02*
X5683872Y-10733484D01*
X5683872Y-10733484D02*
X5702920Y-10723960D01*
X5702920Y-10723960D02*
X5712444Y-10714436D01*
X5712444Y-10714436D02*
X5721968Y-10695389D01*
X5721968Y-10695389D02*
X5721968Y-10647770D01*
X5721968Y-10647770D02*
X5712444Y-10628722D01*
X5712444Y-10628722D02*
X5702920Y-10619198D01*
X5702920Y-10619198D02*
X5683872Y-10609674D01*
X5683872Y-10609674D02*
X5645777Y-10609674D01*
X5645777Y-10609674D02*
X5626729Y-10619198D01*
X5626729Y-10619198D02*
X5617206Y-10628722D01*
X5617206Y-10628722D02*
X5607682Y-10647770D01*
X5960063Y-10733484D02*
X5960063Y-10533484D01*
X6045777Y-10733484D02*
X6045777Y-10628722D01*
X6045777Y-10628722D02*
X6036253Y-10609674D01*
X6036253Y-10609674D02*
X6017206Y-10600150D01*
X6017206Y-10600150D02*
X5988634Y-10600150D01*
X5988634Y-10600150D02*
X5969587Y-10609674D01*
X5969587Y-10609674D02*
X5960063Y-10619198D01*
X6169587Y-10733484D02*
X6150539Y-10723960D01*
X6150539Y-10723960D02*
X6141015Y-10714436D01*
X6141015Y-10714436D02*
X6131491Y-10695389D01*
X6131491Y-10695389D02*
X6131491Y-10638246D01*
X6131491Y-10638246D02*
X6141015Y-10619198D01*
X6141015Y-10619198D02*
X6150539Y-10609674D01*
X6150539Y-10609674D02*
X6169587Y-10600150D01*
X6169587Y-10600150D02*
X6198158Y-10600150D01*
X6198158Y-10600150D02*
X6217206Y-10609674D01*
X6217206Y-10609674D02*
X6226730Y-10619198D01*
X6226730Y-10619198D02*
X6236253Y-10638246D01*
X6236253Y-10638246D02*
X6236253Y-10695389D01*
X6236253Y-10695389D02*
X6226730Y-10714436D01*
X6226730Y-10714436D02*
X6217206Y-10723960D01*
X6217206Y-10723960D02*
X6198158Y-10733484D01*
X6198158Y-10733484D02*
X6169587Y-10733484D01*
X6350539Y-10733484D02*
X6331491Y-10723960D01*
X6331491Y-10723960D02*
X6321968Y-10704912D01*
X6321968Y-10704912D02*
X6321968Y-10533484D01*
X6502920Y-10723960D02*
X6483872Y-10733484D01*
X6483872Y-10733484D02*
X6445777Y-10733484D01*
X6445777Y-10733484D02*
X6426730Y-10723960D01*
X6426730Y-10723960D02*
X6417206Y-10704912D01*
X6417206Y-10704912D02*
X6417206Y-10628722D01*
X6417206Y-10628722D02*
X6426730Y-10609674D01*
X6426730Y-10609674D02*
X6445777Y-10600150D01*
X6445777Y-10600150D02*
X6483872Y-10600150D01*
X6483872Y-10600150D02*
X6502920Y-10609674D01*
X6502920Y-10609674D02*
X6512444Y-10628722D01*
X6512444Y-10628722D02*
X6512444Y-10647770D01*
X6512444Y-10647770D02*
X6417206Y-10666817D01*
X6588634Y-10723960D02*
X6607682Y-10733484D01*
X6607682Y-10733484D02*
X6645777Y-10733484D01*
X6645777Y-10733484D02*
X6664825Y-10723960D01*
X6664825Y-10723960D02*
X6674349Y-10704912D01*
X6674349Y-10704912D02*
X6674349Y-10695389D01*
X6674349Y-10695389D02*
X6664825Y-10676341D01*
X6664825Y-10676341D02*
X6645777Y-10666817D01*
X6645777Y-10666817D02*
X6617206Y-10666817D01*
X6617206Y-10666817D02*
X6598158Y-10657293D01*
X6598158Y-10657293D02*
X6588634Y-10638246D01*
X6588634Y-10638246D02*
X6588634Y-10628722D01*
X6588634Y-10628722D02*
X6598158Y-10609674D01*
X6598158Y-10609674D02*
X6617206Y-10600150D01*
X6617206Y-10600150D02*
X6645777Y-10600150D01*
X6645777Y-10600150D02*
X6664825Y-10609674D01*
X6741015Y-10809674D02*
X6750539Y-10800150D01*
X6750539Y-10800150D02*
X6769587Y-10771579D01*
X6769587Y-10771579D02*
X6779111Y-10752531D01*
X6779111Y-10752531D02*
X6788634Y-10723960D01*
X6788634Y-10723960D02*
X6798158Y-10676341D01*
X6798158Y-10676341D02*
X6798158Y-10638246D01*
X6798158Y-10638246D02*
X6788634Y-10590627D01*
X6788634Y-10590627D02*
X6779111Y-10562055D01*
X6779111Y-10562055D02*
X6769587Y-10543008D01*
X6769587Y-10543008D02*
X6750539Y-10514436D01*
X6750539Y-10514436D02*
X6741015Y-10504912D01*
M02*
