G04 #@! TF.GenerationSoftware,KiCad,Pcbnew,8.0.4-1.fc39*
G04 #@! TF.CreationDate,2024-09-17T21:02:33-04:00*
G04 #@! TF.ProjectId,Q9-Chimera,51392d43-6869-46d6-9572-612e6b696361,rev?*
G04 #@! TF.SameCoordinates,Original*
G04 #@! TF.FileFunction,Other,Comment*
%FSLAX46Y46*%
G04 Gerber Fmt 4.6, Leading zero omitted, Abs format (unit mm)*
G04 Created by KiCad (PCBNEW 8.0.4-1.fc39) date 2024-09-17 21:02:33*
%MOMM*%
%LPD*%
G01*
G04 APERTURE LIST*
%ADD10C,0.250000*%
%ADD11C,0.200000*%
%ADD12C,0.150000*%
G04 APERTURE END LIST*
D10*
X298605084Y-89650462D02*
X285605084Y-89650462D01*
X322417584Y-18500452D02*
X322676852Y-18572838D01*
X322857236Y-18762122D01*
X322917584Y-19000452D01*
X240868224Y-75650457D02*
X240868225Y-74150457D01*
X209405205Y-89650457D02*
X190355346Y-89650457D01*
X155255271Y-75650064D02*
X143205338Y-75650457D01*
D11*
X148161330Y-13075457D02*
X148161330Y-12825457D01*
D10*
X18405330Y-38050457D02*
X18490027Y-37791188D01*
X18687003Y-37622843D01*
X18930549Y-37553038D01*
X18990366Y-37550457D01*
X96192356Y-73650064D02*
X95933087Y-73722450D01*
X95752703Y-73911734D01*
X95692356Y-74150064D01*
X95105069Y-18500452D02*
X108105069Y-18500452D01*
X279555079Y-32500452D02*
X266555079Y-32500452D01*
X133205074Y-18500452D02*
X146205074Y-18500452D01*
X241455205Y-89650457D02*
X241714473Y-89578070D01*
X241894857Y-89388786D01*
X241955205Y-89150457D01*
D11*
X142661330Y-13075457D02*
X142671705Y-13279192D01*
X142702150Y-13477214D01*
X142783201Y-13761293D01*
X142903639Y-14026750D01*
X143060002Y-14270125D01*
X143248830Y-14487957D01*
X143466661Y-14676784D01*
X143710036Y-14833147D01*
X143975493Y-14953585D01*
X144259572Y-15034636D01*
X144457594Y-15065081D01*
X144661330Y-15075457D01*
X319298655Y-14825459D02*
X319089809Y-14872536D01*
X318922175Y-15001396D01*
X318843516Y-15123577D01*
D10*
X241955205Y-76150457D02*
X241882818Y-75891188D01*
X241693534Y-75710804D01*
X241455205Y-75650457D01*
X18905079Y-70600457D02*
X18645810Y-70528070D01*
X18465426Y-70338786D01*
X18405079Y-70100457D01*
X233868348Y-34000452D02*
X233940734Y-34259720D01*
X234130018Y-34440104D01*
X234368348Y-34500452D01*
X299105084Y-76150462D02*
X299105084Y-89150462D01*
D11*
X140411330Y-95325455D02*
X140411330Y-95325461D01*
D10*
X285105084Y-76150462D02*
X285177470Y-75891193D01*
X285366754Y-75710809D01*
X285605084Y-75650462D01*
X285605084Y-89650462D02*
X285345815Y-89578075D01*
X285165431Y-89388791D01*
X285105084Y-89150462D01*
X241455330Y-37550444D02*
X241714598Y-37622830D01*
X241894982Y-37812114D01*
X241955330Y-38050444D01*
X152255074Y-18500452D02*
X165255074Y-18500452D01*
X86055336Y-75650455D02*
X95105336Y-75650064D01*
D11*
X31911330Y-96825457D02*
X95411330Y-96825457D01*
D10*
X146205074Y-18500452D02*
X146464342Y-18572838D01*
X146644726Y-18762122D01*
X146705074Y-19000452D01*
X209992225Y-74150457D02*
X209992225Y-74439672D01*
X209992225Y-74691991D01*
X209992225Y-74970677D01*
X209992225Y-75240575D01*
X209992226Y-75512029D01*
X209992227Y-75650457D01*
X56505334Y-89150457D02*
X56505334Y-76150457D01*
X247005074Y-32000452D02*
X247005074Y-19000452D01*
X304655064Y-89650462D02*
X304395795Y-89578075D01*
X304215411Y-89388791D01*
X304155064Y-89150462D01*
X108605069Y-19000452D02*
X108605069Y-32000452D01*
D11*
X146161330Y-93075444D02*
X146365065Y-93085819D01*
X146563087Y-93116264D01*
X146847166Y-93197315D01*
X147112623Y-93317753D01*
X147355998Y-93474116D01*
X147573830Y-93662944D01*
X147762657Y-93880775D01*
X147919020Y-94124150D01*
X148039458Y-94389607D01*
X148120509Y-94673686D01*
X148150954Y-94871708D01*
X148161330Y-95075444D01*
X150411330Y-12825444D02*
X150411330Y-12825440D01*
D10*
X241370288Y-56600452D02*
X241623924Y-56649757D01*
X241839097Y-56801294D01*
X241952302Y-57049329D01*
X241955323Y-57100452D01*
X32405338Y-76150457D02*
X32405338Y-89150457D01*
D11*
X310661330Y-96325457D02*
X310661330Y-93825457D01*
D10*
X266555059Y-70600452D02*
X266295790Y-70528065D01*
X266115406Y-70338781D01*
X266055059Y-70100452D01*
X70005073Y-32500452D02*
X57005073Y-32500452D01*
D11*
X34911330Y-16325458D02*
X34911330Y-16325457D01*
D10*
X50955071Y-18500452D02*
X51214339Y-18572838D01*
X51394723Y-18762122D01*
X51455071Y-19000452D01*
D11*
X72911330Y-15325458D02*
X72861829Y-15541730D01*
X72728902Y-15710912D01*
X72535906Y-15809645D01*
X72411330Y-15825457D01*
D10*
X247005064Y-89150064D02*
X247077450Y-89409332D01*
X247266734Y-89589716D01*
X247505064Y-89650064D01*
X308917584Y-55812952D02*
X308917584Y-42812952D01*
X32405338Y-89150457D02*
X32332951Y-89409725D01*
X32143667Y-89590109D01*
X31905338Y-89650457D01*
D11*
X144661330Y-10825457D02*
X144457594Y-10835832D01*
X144259572Y-10866277D01*
X143975493Y-10947328D01*
X143710036Y-11067766D01*
X143466661Y-11224129D01*
X143248830Y-11412957D01*
X143060002Y-11630788D01*
X142903639Y-11874163D01*
X142783201Y-12139620D01*
X142702150Y-12423699D01*
X142671705Y-12621721D01*
X142661330Y-12825457D01*
D10*
X266055074Y-38050452D02*
X266127460Y-37791183D01*
X266316744Y-37610799D01*
X266555074Y-37550452D01*
X133792358Y-74150457D02*
X133792360Y-75650457D01*
X261005074Y-51050452D02*
X260932687Y-51309720D01*
X260743403Y-51490104D01*
X260505074Y-51550452D01*
D11*
X172548656Y-14825459D02*
X172339817Y-14872532D01*
X172172189Y-15001385D01*
X172093533Y-15123560D01*
X236798958Y-14825457D02*
X172548656Y-14825459D01*
D10*
X285605069Y-56600452D02*
X298605069Y-56600452D01*
D11*
X318417584Y-62562457D02*
G75*
G02*
X313417584Y-62562457I-2500000J0D01*
G01*
X313417584Y-62562457D02*
G75*
G02*
X318417584Y-62562457I2500000J0D01*
G01*
D10*
X174805336Y-73650457D02*
X180805336Y-73650457D01*
X165255338Y-75650457D02*
X164668358Y-75650457D01*
X241955330Y-51050444D02*
X241882943Y-51309712D01*
X241693659Y-51490096D01*
X241455330Y-51550444D01*
D11*
X146411334Y-8825444D02*
X144411326Y-8825444D01*
D10*
X247005059Y-70100452D02*
X247005059Y-57100452D01*
D11*
X142661330Y-95325444D02*
X142661330Y-95075444D01*
D10*
X266055079Y-32000452D02*
X266055079Y-19000452D01*
X285605084Y-32500452D02*
X285345815Y-32428065D01*
X285165431Y-32238781D01*
X285105084Y-32000452D01*
X279555074Y-51550452D02*
X266555074Y-51550452D01*
X60505352Y-73650064D02*
X60246083Y-73722450D01*
X60065699Y-73911734D01*
X60005352Y-74150064D01*
X190355084Y-18500452D02*
X203355084Y-18500452D01*
X108105069Y-18500452D02*
X108364337Y-18572838D01*
X108544721Y-18762122D01*
X108605069Y-19000452D01*
X298605084Y-18500452D02*
X298864352Y-18572838D01*
X299044736Y-18762122D01*
X299105084Y-19000452D01*
X309417584Y-56312952D02*
X309158315Y-56240565D01*
X308977931Y-56051281D01*
X308917584Y-55812952D01*
X298605069Y-56600452D02*
X298864337Y-56672838D01*
X299044721Y-56862122D01*
X299105069Y-57100452D01*
X127655079Y-19000452D02*
X127655079Y-32000452D01*
X56505334Y-76150457D02*
X56577720Y-75891188D01*
X56767004Y-75710804D01*
X57005334Y-75650457D01*
X261005074Y-19000452D02*
X261005074Y-32000452D01*
D11*
X169229095Y-93027388D02*
X169344981Y-92845610D01*
X169510083Y-92684368D01*
X169718091Y-92547868D01*
X169911152Y-92459308D01*
X170124406Y-92391427D01*
X170354623Y-92346378D01*
X170598574Y-92326316D01*
X170661330Y-92325457D01*
D10*
X280055074Y-38050452D02*
X280055074Y-51050452D01*
X75555074Y-19000452D02*
X75627460Y-18741183D01*
X75816744Y-18560799D01*
X76055074Y-18500452D01*
X278968084Y-75650064D02*
X278968084Y-74150064D01*
X216492348Y-34500452D02*
X216751616Y-34428065D01*
X216932000Y-34238781D01*
X216992348Y-34000452D01*
X56505073Y-32000452D02*
X56505073Y-19000452D01*
D11*
X20911330Y-15325458D02*
X20911330Y-15325457D01*
D10*
X225574323Y-70100452D02*
X225574323Y-57100452D01*
X226159359Y-70600452D02*
X225905721Y-70551146D01*
X225690549Y-70399610D01*
X225577343Y-70151574D01*
X225574323Y-70100452D01*
X298605084Y-37550452D02*
X298864352Y-37622838D01*
X299044736Y-37812122D01*
X299105084Y-38050452D01*
X322917584Y-32000452D02*
X322845197Y-32259720D01*
X322655913Y-32440104D01*
X322417584Y-32500452D01*
D11*
X150411330Y-95325457D02*
X150421705Y-95121721D01*
X150452150Y-94923699D01*
X150533201Y-94639620D01*
X150653639Y-94374163D01*
X150810002Y-94130788D01*
X150998830Y-93912957D01*
X151216661Y-93724129D01*
X151460036Y-93567766D01*
X151725493Y-93447328D01*
X152009572Y-93366277D01*
X152207594Y-93335832D01*
X152411330Y-93325457D01*
X301048958Y-11325457D02*
X238023703Y-11325457D01*
D10*
X89555074Y-19000452D02*
X89555074Y-32000452D01*
D11*
X320911330Y-15325459D02*
X320911330Y-15325457D01*
X22024006Y-93325457D02*
X22232836Y-93278386D01*
X22400459Y-93149540D01*
X22479112Y-93027371D01*
D10*
X271968084Y-75650064D02*
X255092084Y-75650063D01*
X222405079Y-56600457D02*
X222664347Y-56672843D01*
X222844731Y-56862127D01*
X222905079Y-57100457D01*
X203855084Y-19000452D02*
X203855084Y-32000452D01*
D11*
X72411330Y-15825457D02*
X45411329Y-15825457D01*
D10*
X18905338Y-89650457D02*
X18646069Y-89578070D01*
X18465685Y-89388786D01*
X18405338Y-89150457D01*
X170805336Y-89150457D02*
X170805336Y-76150457D01*
D11*
X138411332Y-93325457D02*
X138615067Y-93335832D01*
X138813089Y-93366277D01*
X139097168Y-93447328D01*
X139362625Y-93567766D01*
X139605999Y-93724129D01*
X139823830Y-93912956D01*
X140012657Y-94130788D01*
X140169020Y-94374162D01*
X140289458Y-94639619D01*
X140370509Y-94923697D01*
X140400954Y-95121720D01*
X140411330Y-95325455D01*
D10*
X146705074Y-32000452D02*
X146632687Y-32259720D01*
X146443403Y-32440104D01*
X146205074Y-32500452D01*
X155255272Y-74150064D02*
X155255271Y-75650064D01*
D11*
X306624062Y-15257643D02*
X306575032Y-15478872D01*
X306506931Y-15692270D01*
X306420711Y-15896886D01*
X306317325Y-16091766D01*
X306197725Y-16275959D01*
X306062863Y-16448511D01*
X305913693Y-16608471D01*
X305751166Y-16754885D01*
X305576234Y-16886802D01*
X305389852Y-17003268D01*
X305192970Y-17103331D01*
X304986541Y-17186039D01*
X304771519Y-17250440D01*
X304548854Y-17295580D01*
X304319501Y-17320508D01*
X304084411Y-17324271D01*
D10*
X146205074Y-32500452D02*
X133205074Y-32500452D01*
X261005074Y-32000452D02*
X260932687Y-32259720D01*
X260743403Y-32440104D01*
X260505074Y-32500452D01*
D11*
X15411330Y-93325457D02*
X22024006Y-93325457D01*
D10*
X280055059Y-57100452D02*
X280055059Y-70100452D01*
D11*
X148161330Y-12825457D02*
X148150954Y-12621721D01*
X148120509Y-12423699D01*
X148039458Y-12139620D01*
X147919020Y-11874163D01*
X147762657Y-11630788D01*
X147573830Y-11412957D01*
X147355998Y-11224129D01*
X147112623Y-11067766D01*
X146847166Y-10947328D01*
X146563087Y-10866277D01*
X146365065Y-10835832D01*
X146161330Y-10825457D01*
D10*
X76055074Y-32500452D02*
X75795805Y-32428065D01*
X75615421Y-32238781D01*
X75555074Y-32000452D01*
X279555059Y-56600452D02*
X279814327Y-56672838D01*
X279994711Y-56862122D01*
X280055059Y-57100452D01*
X248092084Y-74150064D02*
X248092084Y-74439278D01*
X248092084Y-74691598D01*
X248092084Y-74970284D01*
X248092084Y-75240181D01*
X248092085Y-75511635D01*
X248092087Y-75650064D01*
X221818366Y-74150457D02*
X221745979Y-73891188D01*
X221556695Y-73710804D01*
X221318366Y-73650457D01*
X50955333Y-75650457D02*
X51214601Y-75722843D01*
X51394985Y-75912127D01*
X51455333Y-76150457D01*
X322417584Y-56312952D02*
X309417584Y-56312952D01*
D11*
X96411330Y-93325457D02*
X138411332Y-93325457D01*
D10*
X107518356Y-75650457D02*
X107518356Y-74150457D01*
X209992348Y-34000452D02*
X210064734Y-34259720D01*
X210254018Y-34440104D01*
X210492348Y-34500452D01*
D11*
X315979157Y-93027327D02*
X316095041Y-92845562D01*
X316260137Y-92684334D01*
X316468138Y-92547846D01*
X316661190Y-92459294D01*
X316874433Y-92391420D01*
X317104639Y-92346376D01*
X317348578Y-92326316D01*
X317411330Y-92325457D01*
X135911330Y-11325457D02*
X73411330Y-11325457D01*
X172093533Y-15123560D02*
X171977647Y-15305330D01*
X171812548Y-15466564D01*
X171604544Y-15603058D01*
X171411488Y-15691613D01*
X171198239Y-15759490D01*
X170968028Y-15804536D01*
X170724083Y-15824597D01*
X170661330Y-15825457D01*
X146411337Y-99325457D02*
X146616372Y-99320226D01*
X146818806Y-99304705D01*
X147018385Y-99279149D01*
X147407947Y-99198961D01*
X147783008Y-99081713D01*
X148141515Y-98929455D01*
X148481420Y-98744238D01*
X148800670Y-98528113D01*
X149097215Y-98283130D01*
X149369004Y-98011341D01*
X149613986Y-97714796D01*
X149830111Y-97395546D01*
X150015328Y-97055642D01*
X150167586Y-96697134D01*
X150284835Y-96322074D01*
X150365022Y-95932511D01*
X150390578Y-95732933D01*
X150406099Y-95530498D01*
X150411330Y-95325463D01*
D10*
X209405328Y-32500452D02*
X209992350Y-32500452D01*
D11*
X170661330Y-15825457D02*
X170414449Y-15811977D01*
X170180496Y-15772973D01*
X169962698Y-15710599D01*
X169764287Y-15627007D01*
X169588491Y-15524350D01*
X169405469Y-15372501D01*
X169269140Y-15198433D01*
X169229095Y-15123527D01*
D10*
X70005073Y-18500452D02*
X70264341Y-18572838D01*
X70444725Y-18762122D01*
X70505073Y-19000452D01*
D11*
X144661330Y-15075457D02*
X146161330Y-15075457D01*
D10*
X37955330Y-37550444D02*
X241455330Y-37550444D01*
X298605084Y-51550452D02*
X285605084Y-51550452D01*
X266055079Y-19000452D02*
X266127465Y-18741183D01*
X266316749Y-18560799D01*
X266555079Y-18500452D01*
X247505074Y-51550452D02*
X247245805Y-51478065D01*
X247065421Y-51288781D01*
X247005074Y-51050452D01*
X70505073Y-32000452D02*
X70432686Y-32259720D01*
X70243402Y-32440104D01*
X70005073Y-32500452D01*
X60005352Y-74150064D02*
X60005351Y-75650064D01*
X280055074Y-51050452D02*
X279982687Y-51309720D01*
X279793403Y-51490104D01*
X279555074Y-51550452D01*
X18405079Y-70100457D02*
X18405079Y-57100457D01*
X317655064Y-89650462D02*
X304655064Y-89650462D01*
X318155064Y-76150462D02*
X318155064Y-89150462D01*
D11*
X15411330Y-14825457D02*
X15209795Y-14845773D01*
X14977788Y-14924067D01*
X14775237Y-15053808D01*
X14609994Y-15227141D01*
X14489915Y-15436212D01*
X14422852Y-15673167D01*
X14411330Y-15825457D01*
D10*
X210492348Y-34500452D02*
X216492348Y-34500452D01*
X280055079Y-32000452D02*
X279982692Y-32259720D01*
X279793408Y-32440104D01*
X279555079Y-32500452D01*
D11*
X168774006Y-93325457D02*
X168982828Y-93278390D01*
X169150445Y-93149551D01*
X169229095Y-93027388D01*
D10*
X285105084Y-32000452D02*
X285105084Y-19000452D01*
X108105069Y-32500452D02*
X95105069Y-32500452D01*
D11*
X310161330Y-96825457D02*
X310377602Y-96775956D01*
X310546785Y-96643029D01*
X310645518Y-96450033D01*
X310661330Y-96325457D01*
D10*
X298605084Y-75650462D02*
X298864352Y-75722848D01*
X299044736Y-75912132D01*
X299105084Y-76150462D01*
X171305336Y-75650457D02*
X174305336Y-75650457D01*
D11*
X140373945Y-11325126D02*
X138911221Y-11325455D01*
X45411329Y-15825457D02*
X45195056Y-15874957D01*
X45025874Y-16007884D01*
X44927141Y-16200880D01*
X44911330Y-16325457D01*
X152411330Y-14825444D02*
X152207594Y-14815068D01*
X152009572Y-14784623D01*
X151725493Y-14703572D01*
X151460036Y-14583134D01*
X151216661Y-14426771D01*
X150998830Y-14237944D01*
X150810002Y-14020112D01*
X150653639Y-13776737D01*
X150533201Y-13511280D01*
X150452150Y-13227201D01*
X150421705Y-13029179D01*
X150411330Y-12825444D01*
D10*
X143205338Y-75650457D02*
X143205338Y-74150457D01*
X127155079Y-18500452D02*
X127414347Y-18572838D01*
X127594731Y-18762122D01*
X127655079Y-19000452D01*
D11*
X95411330Y-96825457D02*
X95627602Y-96775956D01*
X95796785Y-96643029D01*
X95895518Y-96450033D01*
X95911330Y-96325457D01*
X322411328Y-16825457D02*
X322183684Y-16808091D01*
X321966547Y-16757726D01*
X321762511Y-16676956D01*
X321574171Y-16568377D01*
X321404123Y-16434584D01*
X321254963Y-16278173D01*
X321129287Y-16101740D01*
X321029689Y-15907880D01*
X320958765Y-15699188D01*
X320919111Y-15478260D01*
X320911330Y-15325459D01*
X23911330Y-92325457D02*
X24158207Y-92338936D01*
X24392159Y-92377939D01*
X24609955Y-92440312D01*
X24808365Y-92523903D01*
X24984160Y-92626558D01*
X25167180Y-92778405D01*
X25303509Y-92952470D01*
X25343555Y-93027376D01*
D10*
X171305336Y-89650457D02*
X171046067Y-89578070D01*
X170865683Y-89388786D01*
X170805336Y-89150457D01*
X184305074Y-32500452D02*
X171305074Y-32500452D01*
X285105084Y-89150462D02*
X285105084Y-76150462D01*
X183830248Y-74150064D02*
X183830247Y-75650064D01*
X126068356Y-73650064D02*
X117655079Y-73650064D01*
X241455205Y-75650457D02*
X240868224Y-75650457D01*
X86055336Y-74150064D02*
X86055336Y-75650455D01*
X66505352Y-73650064D02*
X60505352Y-73650064D01*
D11*
X136411330Y-11825457D02*
X136361829Y-11609184D01*
X136228902Y-11440001D01*
X136035906Y-11341268D01*
X135911330Y-11325457D01*
D10*
X199855240Y-73650064D02*
X184330248Y-73650064D01*
X285605084Y-37550452D02*
X298605084Y-37550452D01*
X184805074Y-32000452D02*
X184732687Y-32259720D01*
X184543403Y-32440104D01*
X184305074Y-32500452D01*
X34786330Y-51050457D02*
X34701632Y-51309725D01*
X34504656Y-51478070D01*
X34261111Y-51547875D01*
X34201295Y-51550457D01*
X279555064Y-89650064D02*
X279814332Y-89577677D01*
X279994716Y-89388393D01*
X280055064Y-89150064D01*
X247005074Y-19000452D02*
X247077460Y-18741183D01*
X247266744Y-18560799D01*
X247505074Y-18500452D01*
D11*
X138411330Y-14325457D02*
X138361829Y-14541729D01*
X138228902Y-14710912D01*
X138035906Y-14809645D01*
X137911330Y-14825457D01*
D10*
X285105069Y-70100452D02*
X285105069Y-57100452D01*
D11*
X315524006Y-14825460D02*
X307118485Y-14825470D01*
X146161330Y-10825457D02*
X144661330Y-10825457D01*
D10*
X203355084Y-32500452D02*
X190355084Y-32500452D01*
X37455071Y-32000452D02*
X37455071Y-19000452D01*
D11*
X95911330Y-96325457D02*
X95911330Y-93825457D01*
D10*
X31905338Y-89650457D02*
X18905338Y-89650457D01*
X309417584Y-32500452D02*
X309158315Y-32428065D01*
X308977931Y-32238781D01*
X308917584Y-32000452D01*
X18405079Y-57100457D02*
X18477465Y-56841188D01*
X18666749Y-56660804D01*
X18905079Y-56600457D01*
X247505064Y-75650064D02*
X247245795Y-75722450D01*
X247065411Y-75911734D01*
X247005064Y-76150064D01*
D11*
X326911330Y-17825457D02*
X326890919Y-17624578D01*
X326812329Y-17392911D01*
X326682240Y-17190312D01*
X326508664Y-17024793D01*
X326299611Y-16904363D01*
X326063092Y-16837033D01*
X325911330Y-16825457D01*
D10*
X117155079Y-75650063D02*
X107518356Y-75650457D01*
X203855084Y-32000452D02*
X203782697Y-32259720D01*
X203593413Y-32440104D01*
X203355084Y-32500452D01*
X77142356Y-73650457D02*
X85555336Y-73650064D01*
X247005074Y-38050452D02*
X247077460Y-37791183D01*
X247266744Y-37610799D01*
X247505074Y-37550452D01*
D11*
X318843510Y-93027333D02*
X318972195Y-93200411D01*
X319155863Y-93304073D01*
X319298655Y-93325455D01*
D10*
X260505074Y-51550452D02*
X247505074Y-51550452D01*
X113655079Y-32000452D02*
X113655079Y-19000452D01*
X308917584Y-32000452D02*
X308917584Y-19000452D01*
X241455328Y-18500452D02*
X209405328Y-18500452D01*
X260505074Y-32500452D02*
X247505074Y-32500452D01*
D11*
X30911332Y-93325457D02*
X31127603Y-93374957D01*
X31296785Y-93507884D01*
X31395518Y-93700879D01*
X31411330Y-93825456D01*
D10*
X322917584Y-42812952D02*
X322917584Y-55812952D01*
X171305074Y-18500452D02*
X184305074Y-18500452D01*
X146705074Y-19000452D02*
X146705074Y-32000452D01*
X222905079Y-70100457D02*
X222832692Y-70359725D01*
X222643408Y-70540109D01*
X222405079Y-70600457D01*
X260505059Y-56600452D02*
X260764327Y-56672838D01*
X260944711Y-56862122D01*
X261005059Y-57100452D01*
X18990366Y-37550457D02*
X34201295Y-37550457D01*
X37955333Y-89650457D02*
X37696064Y-89578070D01*
X37515680Y-89388786D01*
X37455333Y-89150457D01*
X280055079Y-19000452D02*
X280055079Y-32000452D01*
D11*
X95911330Y-93825457D02*
X95960830Y-93609184D01*
X96093757Y-93440001D01*
X96286753Y-93341268D01*
X96411330Y-93325457D01*
X72911330Y-11825457D02*
X72911330Y-15325457D01*
D10*
X151755074Y-32000452D02*
X151755074Y-19000452D01*
X133792360Y-75650457D02*
X133205338Y-75650457D01*
X18405338Y-76150457D02*
X18477724Y-75891188D01*
X18667008Y-75710804D01*
X18905338Y-75650457D01*
X285605069Y-70600452D02*
X285345800Y-70528065D01*
X285165416Y-70338781D01*
X285105069Y-70100452D01*
X67005351Y-75650064D02*
X67005352Y-74150064D01*
X18905079Y-56600457D02*
X222405079Y-56600457D01*
X309417584Y-42312952D02*
X322417584Y-42312952D01*
D11*
X315979138Y-15123570D02*
X315850457Y-14950498D01*
X315666793Y-14846840D01*
X315524006Y-14825460D01*
X319298655Y-93325455D02*
X325911330Y-93325457D01*
D10*
X200355240Y-75650063D02*
X200355240Y-74150064D01*
D11*
X34911330Y-16325457D02*
X34861829Y-16109184D01*
X34728902Y-15940001D01*
X34535906Y-15841268D01*
X34411330Y-15825457D01*
D10*
X107518356Y-74150457D02*
X107445969Y-73891188D01*
X107256685Y-73710804D01*
X107018356Y-73650457D01*
X165255074Y-18500452D02*
X165514342Y-18572838D01*
X165694726Y-18762122D01*
X165755074Y-19000452D01*
X94605069Y-19000452D02*
X94677455Y-18741183D01*
X94866739Y-18560799D01*
X95105069Y-18500452D01*
X221818366Y-75650457D02*
X221818366Y-74150457D01*
X241455330Y-51550444D02*
X37955330Y-51550444D01*
D11*
X320911330Y-15325457D02*
X320861829Y-15109184D01*
X320728902Y-14940002D01*
X320535907Y-14841269D01*
X320411331Y-14825458D01*
X325911330Y-16825457D02*
X322411328Y-16825457D01*
X148161330Y-95325444D02*
X148150954Y-95529179D01*
X148120509Y-95727201D01*
X148039458Y-96011280D01*
X147919020Y-96276737D01*
X147762657Y-96520112D01*
X147573830Y-96737944D01*
X147355998Y-96926771D01*
X147112623Y-97083134D01*
X146847166Y-97203572D01*
X146563087Y-97284623D01*
X146365065Y-97315068D01*
X146161330Y-97325444D01*
X152411330Y-93325457D02*
X168774006Y-93325457D01*
D10*
X18990366Y-51550457D02*
X18736728Y-51501151D01*
X18521556Y-51349615D01*
X18408350Y-51101579D01*
X18405330Y-51050457D01*
D11*
X318843516Y-15123577D02*
X318727630Y-15305343D01*
X318562533Y-15466573D01*
X318354531Y-15603064D01*
X318161477Y-15691617D01*
X317948231Y-15759492D01*
X317718023Y-15804536D01*
X317474082Y-15824597D01*
X317411330Y-15825457D01*
X73411330Y-11325457D02*
X73195057Y-11374957D01*
X73025875Y-11507884D01*
X72927142Y-11700880D01*
X72911330Y-11825457D01*
D10*
X133205338Y-75650457D02*
X126568355Y-75650064D01*
X279555079Y-18500452D02*
X279814347Y-18572838D01*
X279994731Y-18762122D01*
X280055079Y-19000452D01*
X37455333Y-76150457D02*
X37527719Y-75891188D01*
X37717003Y-75710804D01*
X37955333Y-75650457D01*
D11*
X20411330Y-14825457D02*
X15411330Y-14825457D01*
X320411331Y-14825458D02*
X319298655Y-14825459D01*
D10*
X208905328Y-32000452D02*
X208977714Y-32259720D01*
X209166998Y-32440104D01*
X209405328Y-32500452D01*
X67005352Y-74150064D02*
X66932965Y-73890795D01*
X66743681Y-73710411D01*
X66505352Y-73650064D01*
X308917584Y-42812952D02*
X308989970Y-42553683D01*
X309179254Y-42373299D01*
X309417584Y-42312952D01*
X279555064Y-75650064D02*
X278968084Y-75650064D01*
D11*
X237411330Y-11937830D02*
X237411330Y-14213085D01*
D10*
X216992348Y-32500453D02*
X217409510Y-32500452D01*
X217717488Y-32500452D01*
X218099629Y-32500452D01*
X218549752Y-32500452D01*
X219061677Y-32500452D01*
X219629223Y-32500452D01*
X220246210Y-32500452D01*
X220906459Y-32500452D01*
X221603789Y-32500452D01*
X222332019Y-32500452D01*
X223084971Y-32500452D01*
X223856463Y-32500452D01*
X224640315Y-32500452D01*
X225430347Y-32500452D01*
X226220380Y-32500452D01*
X227004232Y-32500452D01*
X227775724Y-32500452D01*
X228528675Y-32500452D01*
X229256906Y-32500452D01*
X229954236Y-32500452D01*
X230614484Y-32500452D01*
X231231472Y-32500452D01*
X231799018Y-32500452D01*
X232310942Y-32500452D01*
X232761065Y-32500452D01*
X233143206Y-32500452D01*
X233451185Y-32500452D01*
X233819935Y-32500452D01*
X233868347Y-32500452D01*
X298605084Y-32500452D02*
X285605084Y-32500452D01*
X37455330Y-51050444D02*
X37455330Y-38050444D01*
D11*
X142661330Y-95075444D02*
X142671705Y-94871708D01*
X142702150Y-94673686D01*
X142783201Y-94389607D01*
X142903639Y-94124150D01*
X143060002Y-93880775D01*
X143248830Y-93662944D01*
X143466661Y-93474116D01*
X143710036Y-93317753D01*
X143975493Y-93197315D01*
X144259572Y-93116264D01*
X144457594Y-93085819D01*
X144661330Y-93075444D01*
D10*
X240368348Y-34500452D02*
X240627616Y-34428065D01*
X240808000Y-34238781D01*
X240868348Y-34000452D01*
X133205338Y-89650457D02*
X57005334Y-89650457D01*
X279555074Y-37550452D02*
X279814342Y-37622838D01*
X279994726Y-37812122D01*
X280055074Y-38050452D01*
X241955328Y-32000452D02*
X241955328Y-19000452D01*
D11*
X25798655Y-93325457D02*
X30911332Y-93325457D01*
D10*
X304655064Y-75650462D02*
X317655064Y-75650462D01*
D11*
X246161330Y-93825458D02*
X246161330Y-96325457D01*
D10*
X18905076Y-18500452D02*
X31905076Y-18500452D01*
X164668358Y-75650457D02*
X164668358Y-74150457D01*
D11*
X144661330Y-93075444D02*
X146161330Y-93075444D01*
D10*
X51455071Y-19000452D02*
X51455071Y-32000452D01*
X285105084Y-38050452D02*
X285177470Y-37791183D01*
X285366754Y-37610799D01*
X285605084Y-37550452D01*
D11*
X168775724Y-14825457D02*
X168508401Y-14825456D01*
X168179163Y-14825456D01*
X167792627Y-14825456D01*
X167353410Y-14825456D01*
X166866129Y-14825456D01*
X166335400Y-14825456D01*
X165765841Y-14825456D01*
X165162068Y-14825456D01*
X164528698Y-14825456D01*
X163870349Y-14825456D01*
X163191636Y-14825456D01*
X162497178Y-14825456D01*
X161791590Y-14825455D01*
X161079490Y-14825455D01*
X160365495Y-14825455D01*
X159654221Y-14825455D01*
X158950285Y-14825454D01*
X158258305Y-14825454D01*
X157582896Y-14825453D01*
X156928677Y-14825453D01*
X156300263Y-14825452D01*
X155702273Y-14825452D01*
X155139321Y-14825451D01*
X154616027Y-14825451D01*
X154137005Y-14825450D01*
X153706874Y-14825449D01*
X153330251Y-14825448D01*
X153011751Y-14825448D01*
X152755992Y-14825447D01*
X152451164Y-14825445D01*
X152411330Y-14825444D01*
D10*
X247505064Y-89650064D02*
X279555064Y-89650064D01*
X155755272Y-73650064D02*
X155496003Y-73722450D01*
X155315619Y-73911734D01*
X155255272Y-74150064D01*
X247505059Y-56600452D02*
X260505059Y-56600452D01*
X18405076Y-19000452D02*
X18477462Y-18741183D01*
X18666746Y-18560799D01*
X18905076Y-18500452D01*
D11*
X14411330Y-92325457D02*
X14431646Y-92526991D01*
X14509940Y-92758998D01*
X14639681Y-92961549D01*
X14813014Y-93126792D01*
X15022085Y-93246872D01*
X15259040Y-93313934D01*
X15411330Y-93325457D01*
D10*
X233868225Y-74150457D02*
X233868224Y-75650457D01*
X247505074Y-37550452D02*
X260505074Y-37550452D01*
D11*
X317411330Y-15825457D02*
X317164459Y-15811978D01*
X316930513Y-15772977D01*
X316712723Y-15710607D01*
X316514318Y-15627021D01*
X316338527Y-15524371D01*
X316155510Y-15372530D01*
X316019182Y-15198472D01*
X315979138Y-15123570D01*
D10*
X181305336Y-74150457D02*
X181305336Y-75650457D01*
X241955323Y-70100452D02*
X241870625Y-70359720D01*
X241673649Y-70528065D01*
X241430104Y-70597870D01*
X241370288Y-70600452D01*
X241955205Y-89150457D02*
X241955205Y-76150457D01*
X272468084Y-73650064D02*
X272208815Y-73722450D01*
X272028431Y-73911734D01*
X271968084Y-74150064D01*
X164168358Y-73650457D02*
X155755272Y-73650064D01*
X234368225Y-73650457D02*
X234108956Y-73722843D01*
X233928572Y-73912127D01*
X233868225Y-74150457D01*
D11*
X44411330Y-16825457D02*
X35411329Y-16825457D01*
D10*
X126568356Y-74150064D02*
X126495969Y-73890795D01*
X126306685Y-73710411D01*
X126068356Y-73650064D01*
D11*
X304084411Y-17324271D02*
X303831712Y-17303307D01*
X303587446Y-17256782D01*
X303352699Y-17186123D01*
X303128557Y-17092760D01*
X302916105Y-16978120D01*
X302716430Y-16843634D01*
X302530618Y-16690731D01*
X302359754Y-16520838D01*
X302204925Y-16335384D01*
X302067217Y-16135800D01*
X301947715Y-15923513D01*
X301847506Y-15699953D01*
X301767676Y-15466547D01*
X301709310Y-15224726D01*
X301673494Y-14975919D01*
X301661316Y-14721553D01*
D10*
X233868224Y-75650457D02*
X221818366Y-75650457D01*
D11*
X146161330Y-97325444D02*
X144661330Y-97325444D01*
D10*
X271968084Y-74150064D02*
X271968084Y-75650064D01*
X108605069Y-32000452D02*
X108532682Y-32259720D01*
X108343398Y-32440104D01*
X108105069Y-32500452D01*
X285605084Y-18500452D02*
X298605084Y-18500452D01*
D11*
X144411326Y-99325457D02*
X146411337Y-99325457D01*
D10*
X221318366Y-73650457D02*
X210492225Y-73650457D01*
X170805074Y-32000452D02*
X170805074Y-19000452D01*
X241955330Y-38050444D02*
X241955330Y-51050444D01*
X95105069Y-32500452D02*
X94845800Y-32428065D01*
X94665416Y-32238781D01*
X94605069Y-32000452D01*
D11*
X137911330Y-14825457D02*
X136911330Y-14825457D01*
D10*
X255092084Y-75650063D02*
X255092084Y-74150064D01*
X233868347Y-32500452D02*
X233868348Y-34000452D01*
D11*
X31411330Y-93825456D02*
X31411330Y-96325457D01*
D10*
X95692356Y-74150064D02*
X95692356Y-74439278D01*
X95692356Y-74691598D01*
X95692356Y-74970284D01*
X95692356Y-75240181D01*
X95692357Y-75511635D01*
X95692358Y-75650064D01*
X51455071Y-32000452D02*
X51382684Y-32259720D01*
X51193400Y-32440104D01*
X50955071Y-32500452D01*
X132705074Y-32000452D02*
X132705074Y-19000452D01*
X241455328Y-32500452D02*
X241714596Y-32428065D01*
X241894980Y-32238781D01*
X241955328Y-32000452D01*
D11*
X237411330Y-14213085D02*
X237374014Y-14423078D01*
X237271042Y-14602029D01*
X237115873Y-14736476D01*
X236921970Y-14812958D01*
X236798958Y-14825457D01*
D10*
X309417584Y-18500452D02*
X322417584Y-18500452D01*
X308917584Y-19000452D02*
X308989970Y-18741183D01*
X309179254Y-18560799D01*
X309417584Y-18500452D01*
X299105069Y-57100452D02*
X299105069Y-70100452D01*
X170805336Y-76150457D02*
X170877722Y-75891188D01*
X171067006Y-75710804D01*
X171305336Y-75650457D01*
D11*
X325911330Y-93325457D02*
X326112864Y-93305140D01*
X326344871Y-93226846D01*
X326547422Y-93097105D01*
X326712665Y-92923773D01*
X326832745Y-92714702D01*
X326899807Y-92477747D01*
X326911330Y-92325457D01*
D10*
X57005073Y-18500452D02*
X70005073Y-18500452D01*
D11*
X150411330Y-12825440D02*
X150406099Y-12620404D01*
X150390578Y-12417969D01*
X150365022Y-12218391D01*
X150284834Y-11828828D01*
X150167586Y-11453767D01*
X150015328Y-11095259D01*
X149830111Y-10755355D01*
X149613985Y-10436105D01*
X149369003Y-10139560D01*
X149097213Y-9867770D01*
X148800668Y-9622788D01*
X148481418Y-9406662D01*
X148141514Y-9221445D01*
X147783006Y-9069187D01*
X147407945Y-8951939D01*
X147018382Y-8871751D01*
X146818804Y-8846195D01*
X146616369Y-8830674D01*
X146411334Y-8825444D01*
D10*
X266555074Y-37550452D02*
X279555074Y-37550452D01*
X209405205Y-89650457D02*
X241455205Y-89650457D01*
D11*
X246161330Y-96325457D02*
X246210830Y-96541729D01*
X246343757Y-96710912D01*
X246536753Y-96809645D01*
X246661330Y-96825457D01*
D10*
X134292358Y-73650457D02*
X134033089Y-73722843D01*
X133852705Y-73912127D01*
X133792358Y-74150457D01*
X299105084Y-38050452D02*
X299105084Y-51050452D01*
D11*
X169229095Y-15123527D02*
X169100970Y-14950475D01*
X168918228Y-14846833D01*
X168775724Y-14825457D01*
D10*
X260505059Y-70600452D02*
X247505059Y-70600452D01*
X222405079Y-70600457D02*
X18905079Y-70600457D01*
X247005059Y-57100452D02*
X247077445Y-56841183D01*
X247266729Y-56660799D01*
X247505059Y-56600452D01*
X285105084Y-51050452D02*
X285105084Y-38050452D01*
X203355084Y-18500452D02*
X203614352Y-18572838D01*
X203794736Y-18762122D01*
X203855084Y-19000452D01*
X299105084Y-89150462D02*
X299032697Y-89409730D01*
X298843413Y-89590114D01*
X298605084Y-89650462D01*
X165255338Y-89650457D02*
X165514606Y-89578070D01*
X165694990Y-89388786D01*
X165755338Y-89150457D01*
X234368348Y-34500452D02*
X240368348Y-34500452D01*
X18405330Y-51050457D02*
X18405330Y-38050457D01*
X133205338Y-89650457D02*
X165255338Y-89650457D01*
D11*
X306661330Y-36825457D02*
G75*
G02*
X301661330Y-36825457I-2500000J0D01*
G01*
X301661330Y-36825457D02*
G75*
G02*
X306661330Y-36825457I2500000J0D01*
G01*
D10*
X18405076Y-32000452D02*
X18405076Y-19000452D01*
D11*
X14411330Y-15825457D02*
X14411330Y-92325457D01*
D10*
X114155079Y-32500452D02*
X113895810Y-32428065D01*
X113715426Y-32238781D01*
X113655079Y-32000452D01*
X95692358Y-75650064D02*
X95105336Y-75650064D01*
X226159359Y-56600452D02*
X241370288Y-56600452D01*
X113655079Y-19000452D02*
X113727465Y-18741183D01*
X113916749Y-18560799D01*
X114155079Y-18500452D01*
X322417584Y-42312952D02*
X322676852Y-42385338D01*
X322857236Y-42574622D01*
X322917584Y-42812952D01*
X299105084Y-19000452D02*
X299105084Y-32000452D01*
X37955071Y-32500452D02*
X37695802Y-32428065D01*
X37515418Y-32238781D01*
X37455071Y-32000452D01*
X241955328Y-19000452D02*
X241882941Y-18741183D01*
X241693657Y-18560799D01*
X241455328Y-18500452D01*
D11*
X310661330Y-93825457D02*
X310710830Y-93609184D01*
X310843757Y-93440001D01*
X311036753Y-93341268D01*
X311161330Y-93325457D01*
X31411330Y-96325457D02*
X31460830Y-96541729D01*
X31593757Y-96710912D01*
X31786753Y-96809645D01*
X31911330Y-96825457D01*
D10*
X50955071Y-32500452D02*
X37955071Y-32500452D01*
X37455330Y-38050444D02*
X37527716Y-37791175D01*
X37717000Y-37610791D01*
X37955330Y-37550444D01*
X126568355Y-75650064D02*
X126568356Y-74150064D01*
X241955323Y-57100452D02*
X241955323Y-70100452D01*
X280055064Y-89150064D02*
X280055064Y-76150064D01*
X322417584Y-32500452D02*
X309417584Y-32500452D01*
X132705074Y-19000452D02*
X132777460Y-18741183D01*
X132966744Y-18560799D01*
X133205074Y-18500452D01*
D11*
X326911330Y-92325457D02*
X326911330Y-17825457D01*
D10*
X209992350Y-32500452D02*
X209992348Y-32789667D01*
X209992348Y-33041986D01*
X209992348Y-33320673D01*
X209992348Y-33590570D01*
X209992348Y-33862024D01*
X209992348Y-34000452D01*
X107018356Y-73650457D02*
X96192356Y-73650064D01*
X261005059Y-70100452D02*
X260932672Y-70359720D01*
X260743388Y-70540104D01*
X260505059Y-70600452D01*
X37955330Y-51550444D02*
X37696061Y-51478057D01*
X37515677Y-51288773D01*
X37455330Y-51050444D01*
X254592084Y-73650064D02*
X248592084Y-73650064D01*
X200355240Y-75650063D02*
X209992227Y-75650457D01*
X165755074Y-32000452D02*
X165682687Y-32259720D01*
X165493403Y-32440104D01*
X165255074Y-32500452D01*
X285605084Y-51550452D02*
X285345815Y-51478065D01*
X285165431Y-51288781D01*
X285105084Y-51050452D01*
X133205074Y-32500452D02*
X132945805Y-32428065D01*
X132765421Y-32238781D01*
X132705074Y-32000452D01*
X285105084Y-19000452D02*
X285177470Y-18741183D01*
X285366754Y-18560799D01*
X285605084Y-18500452D01*
X18905076Y-32500452D02*
X18645807Y-32428065D01*
X18465423Y-32238781D01*
X18405076Y-32000452D01*
X280055064Y-76150064D02*
X279982677Y-75890795D01*
X279793393Y-75710411D01*
X279555064Y-75650064D01*
D11*
X72911330Y-15325457D02*
X72911330Y-15325458D01*
D10*
X285605084Y-75650462D02*
X298605084Y-75650462D01*
X322917584Y-19000452D02*
X322917584Y-32000452D01*
X142705338Y-73650457D02*
X134292358Y-73650457D01*
X37455071Y-19000452D02*
X37527457Y-18741183D01*
X37716741Y-18560799D01*
X37955071Y-18500452D01*
X200355240Y-74150064D02*
X200282853Y-73890795D01*
X200093569Y-73710411D01*
X199855240Y-73650064D01*
X184805074Y-19000452D02*
X184805074Y-32000452D01*
D11*
X34411330Y-15825457D02*
X21411329Y-15825457D01*
X311161330Y-93325457D02*
X315524007Y-93325455D01*
X22479112Y-93027371D02*
X22594998Y-92845597D01*
X22760098Y-92684359D01*
X22968104Y-92547862D01*
X23161163Y-92459304D01*
X23374414Y-92391425D01*
X23604628Y-92346378D01*
X23848575Y-92326316D01*
X23911330Y-92325457D01*
D10*
X181305336Y-75650457D02*
X183830247Y-75650064D01*
X184330248Y-73650064D02*
X184070979Y-73722450D01*
X183890595Y-73911734D01*
X183830248Y-74150064D01*
X189855084Y-19000452D02*
X189927470Y-18741183D01*
X190116754Y-18560799D01*
X190355084Y-18500452D01*
X266055059Y-57100452D02*
X266127445Y-56841183D01*
X266316729Y-56660799D01*
X266555059Y-56600452D01*
D11*
X245661330Y-93325457D02*
X245877602Y-93374957D01*
X246046785Y-93507885D01*
X246145518Y-93700881D01*
X246161330Y-93825458D01*
D10*
X114155079Y-18500452D02*
X127155079Y-18500452D01*
D11*
X150411330Y-95325463D02*
X150411330Y-95325457D01*
D10*
X317655064Y-75650462D02*
X317914332Y-75722848D01*
X318094716Y-75912132D01*
X318155064Y-76150462D01*
X70505073Y-19000452D02*
X70505073Y-32000452D01*
X117655079Y-73650064D02*
X117395810Y-73722450D01*
X117215426Y-73911734D01*
X117155079Y-74150064D01*
D11*
X44911330Y-16325457D02*
X44911330Y-16325458D01*
X138911221Y-11325455D02*
X138694995Y-11374992D01*
X138525849Y-11507929D01*
X138427138Y-11700904D01*
X138411330Y-11825457D01*
D10*
X85555336Y-73650064D02*
X85814604Y-73722450D01*
X85994988Y-73911734D01*
X86055336Y-74150064D01*
X222905079Y-57100457D02*
X222905079Y-70100457D01*
X34786330Y-38050457D02*
X34786330Y-51050457D01*
X304155064Y-76150462D02*
X304227450Y-75891193D01*
X304416734Y-75710809D01*
X304655064Y-75650462D01*
X51455333Y-89150457D02*
X51382946Y-89409725D01*
X51193662Y-89590109D01*
X50955333Y-89650457D01*
X89055074Y-32500452D02*
X76055074Y-32500452D01*
X143205338Y-74150457D02*
X143132951Y-73891188D01*
X142943667Y-73710804D01*
X142705338Y-73650457D01*
X70030344Y-73650064D02*
X69771075Y-73722450D01*
X69590691Y-73911734D01*
X69530344Y-74150064D01*
D11*
X25343555Y-93027376D02*
X25472225Y-93200432D01*
X25655878Y-93304079D01*
X25798655Y-93325457D01*
X140411330Y-95325461D02*
X140416560Y-95530496D01*
X140432081Y-95732931D01*
X140457637Y-95932509D01*
X140537825Y-96322072D01*
X140655073Y-96697133D01*
X140807331Y-97055641D01*
X140992549Y-97395545D01*
X141208674Y-97714795D01*
X141453657Y-98011340D01*
X141725446Y-98283130D01*
X142021991Y-98528112D01*
X142341241Y-98744238D01*
X142681146Y-98929455D01*
X143039654Y-99081713D01*
X143414714Y-99198961D01*
X143804277Y-99279149D01*
X144003855Y-99304705D01*
X144206290Y-99320226D01*
X144411326Y-99325457D01*
D10*
X67005351Y-75650064D02*
X69530343Y-75650064D01*
X174305336Y-74150457D02*
X174377722Y-73891188D01*
X174567006Y-73710804D01*
X174805336Y-73650457D01*
X57005073Y-32500452D02*
X56745804Y-32428065D01*
X56565420Y-32238781D01*
X56505073Y-32000452D01*
D11*
X238023703Y-11325457D02*
X237813709Y-11362772D01*
X237634757Y-11465745D01*
X237500310Y-11620913D01*
X237423828Y-11814817D01*
X237411330Y-11937830D01*
D10*
X208905328Y-19000452D02*
X208905328Y-32000452D01*
D11*
X170661330Y-92325457D02*
X170908208Y-92338936D01*
X171142161Y-92377940D01*
X171359958Y-92440314D01*
X171558369Y-92523905D01*
X171734165Y-92626561D01*
X171917186Y-92778409D01*
X172053515Y-92952476D01*
X172093561Y-93027382D01*
D10*
X89055074Y-18500452D02*
X89314342Y-18572838D01*
X89494726Y-18762122D01*
X89555074Y-19000452D01*
X32405076Y-19000452D02*
X32405076Y-32000452D01*
X247005064Y-76150064D02*
X247005064Y-89150064D01*
X299105084Y-32000452D02*
X299032697Y-32259720D01*
X298843413Y-32440104D01*
X298605084Y-32500452D01*
X164668358Y-74150457D02*
X164595971Y-73891188D01*
X164406687Y-73710804D01*
X164168358Y-73650457D01*
D11*
X44911330Y-16325458D02*
X44861829Y-16541730D01*
X44728902Y-16710912D01*
X44535906Y-16809645D01*
X44411330Y-16825457D01*
D10*
X165255074Y-32500452D02*
X152255074Y-32500452D01*
X216992348Y-34000452D02*
X216992348Y-32500453D01*
X75555074Y-32000452D02*
X75555074Y-19000452D01*
X225574323Y-57100452D02*
X225659020Y-56841183D01*
X225855996Y-56672838D01*
X226099542Y-56603033D01*
X226159359Y-56600452D01*
X247505059Y-70600452D02*
X247245790Y-70528065D01*
X247065406Y-70338781D01*
X247005059Y-70100452D01*
D11*
X301661316Y-14721553D02*
X301661317Y-14511745D01*
X301661318Y-14297438D01*
X301661319Y-14081119D01*
X301661321Y-13865279D01*
X301661322Y-13652405D01*
X301661323Y-13444985D01*
X301661325Y-13149528D01*
X301661326Y-12880342D01*
X301661327Y-12645827D01*
X301661329Y-12401588D01*
X301661330Y-12218293D01*
D10*
X151755074Y-19000452D02*
X151827460Y-18741183D01*
X152016744Y-18560799D01*
X152255074Y-18500452D01*
X260505074Y-18500452D02*
X260764342Y-18572838D01*
X260944726Y-18762122D01*
X261005074Y-19000452D01*
X34201295Y-37550457D02*
X34454931Y-37599762D01*
X34670104Y-37751299D01*
X34783309Y-37999334D01*
X34786330Y-38050457D01*
X165755338Y-89150457D02*
X165755338Y-76150457D01*
D11*
X317411330Y-92325457D02*
X317658198Y-92338935D01*
X317892141Y-92377935D01*
X318109929Y-92440304D01*
X318308333Y-92523889D01*
X318484122Y-92626537D01*
X318667138Y-92778375D01*
X318803465Y-92952431D01*
X318843510Y-93027333D01*
D10*
X247505074Y-18500452D02*
X260505074Y-18500452D01*
X318155064Y-89150462D02*
X318082677Y-89409730D01*
X317893393Y-89590114D01*
X317655064Y-89650462D01*
X57005334Y-89650457D02*
X56746065Y-89578070D01*
X56565681Y-89388786D01*
X56505334Y-89150457D01*
X299105084Y-51050452D02*
X299032697Y-51309720D01*
X298843413Y-51490104D01*
X298605084Y-51550452D01*
X31905338Y-75650457D02*
X32164606Y-75722843D01*
X32344990Y-75912127D01*
X32405338Y-76150457D01*
X255092084Y-74150064D02*
X255019697Y-73890795D01*
X254830413Y-73710411D01*
X254592084Y-73650064D01*
X247505074Y-32500452D02*
X247245805Y-32428065D01*
X247065421Y-32238781D01*
X247005074Y-32000452D01*
X280055059Y-70100452D02*
X279982672Y-70359720D01*
X279793388Y-70540104D01*
X279555059Y-70600452D01*
X209405328Y-18500452D02*
X209146059Y-18572838D01*
X208965675Y-18762122D01*
X208905328Y-19000452D01*
X266055074Y-51050452D02*
X266055074Y-38050452D01*
X180805336Y-73650457D02*
X181064604Y-73722843D01*
X181244988Y-73912127D01*
X181305336Y-74150457D01*
X247005074Y-51050452D02*
X247005074Y-38050452D01*
D11*
X146161330Y-15075457D02*
X146365065Y-15065081D01*
X146563087Y-15034636D01*
X146847166Y-14953585D01*
X147112623Y-14833147D01*
X147355998Y-14676784D01*
X147573830Y-14487957D01*
X147762657Y-14270125D01*
X147919020Y-14026750D01*
X148039458Y-13761293D01*
X148120509Y-13477214D01*
X148150954Y-13279192D01*
X148161330Y-13075457D01*
X144411326Y-8825444D02*
X144120252Y-8836004D01*
X143834666Y-8867194D01*
X143555307Y-8918273D01*
X143282915Y-8988502D01*
X143018228Y-9077143D01*
X142761986Y-9183456D01*
X142514929Y-9306701D01*
X142277796Y-9446140D01*
X142051326Y-9601034D01*
X141836259Y-9770642D01*
X141633333Y-9954227D01*
X141443288Y-10151048D01*
X141266864Y-10360367D01*
X141104800Y-10581444D01*
X140957835Y-10813541D01*
X140826709Y-11055918D01*
D10*
X240368225Y-73650457D02*
X234368225Y-73650457D01*
X50955333Y-89650457D02*
X37955333Y-89650457D01*
X34201295Y-51550457D02*
X18990366Y-51550457D01*
X266055059Y-70100452D02*
X266055059Y-57100452D01*
D11*
X144661330Y-97325444D02*
X144457594Y-97315068D01*
X144259572Y-97284623D01*
X143975493Y-97203572D01*
X143710036Y-97083134D01*
X143466661Y-96926771D01*
X143248830Y-96737944D01*
X143060002Y-96520112D01*
X142903639Y-96276737D01*
X142783201Y-96011280D01*
X142702150Y-95727201D01*
X142671705Y-95529179D01*
X142661330Y-95325444D01*
X140826709Y-11055918D02*
X140696292Y-11215390D01*
X140512530Y-11306821D01*
X140373945Y-11325126D01*
D10*
X240868225Y-74150457D02*
X240795838Y-73891188D01*
X240606554Y-73710804D01*
X240368225Y-73650457D01*
X248092087Y-75650064D02*
X247505064Y-75650064D01*
D11*
X138411330Y-11825457D02*
X138411330Y-14325457D01*
D10*
X117155079Y-74150064D02*
X117155079Y-75650063D01*
X165755074Y-19000452D02*
X165755074Y-32000452D01*
X241370288Y-70600452D02*
X226159359Y-70600452D01*
X299105069Y-70100452D02*
X299032682Y-70359720D01*
X298843398Y-70540104D01*
X298605069Y-70600452D01*
X266555074Y-51550452D02*
X266295805Y-51478065D01*
X266115421Y-51288781D01*
X266055074Y-51050452D01*
X165755338Y-76150457D02*
X165682951Y-75891188D01*
X165493667Y-75710804D01*
X165255338Y-75650457D01*
X184305074Y-18500452D02*
X184564342Y-18572838D01*
X184744726Y-18762122D01*
X184805074Y-19000452D01*
X278968084Y-74150064D02*
X278895697Y-73890795D01*
X278706413Y-73710411D01*
X278468084Y-73650064D01*
D11*
X172093561Y-93027382D02*
X172222229Y-93200436D01*
X172405880Y-93304079D01*
X172548655Y-93325457D01*
X35411329Y-16825457D02*
X35195056Y-16775956D01*
X35025874Y-16643029D01*
X34927141Y-16450034D01*
X34911330Y-16325458D01*
D10*
X248592084Y-73650064D02*
X248332815Y-73722450D01*
X248152431Y-73911734D01*
X248092084Y-74150064D01*
X31905076Y-32500452D02*
X18905076Y-32500452D01*
D11*
X172548655Y-93325457D02*
X245661330Y-93325457D01*
X315524007Y-93325455D02*
X315732857Y-93278376D01*
X315900495Y-93149510D01*
X315979157Y-93027327D01*
D10*
X298605069Y-70600452D02*
X285605069Y-70600452D01*
X266555079Y-32500452D02*
X266295810Y-32428065D01*
X266115426Y-32238781D01*
X266055079Y-32000452D01*
D11*
X142661330Y-12825457D02*
X142661330Y-13075457D01*
D10*
X69530344Y-74150064D02*
X69530343Y-75650064D01*
X76055074Y-18500452D02*
X89055074Y-18500452D01*
X190355346Y-89650457D02*
X171305336Y-89650457D01*
X260505074Y-37550452D02*
X260764342Y-37622838D01*
X260944726Y-37812122D01*
X261005074Y-38050452D01*
D11*
X246661330Y-96825457D02*
X310161330Y-96825457D01*
D10*
X322917584Y-55812952D02*
X322845197Y-56072220D01*
X322655913Y-56252604D01*
X322417584Y-56312952D01*
X266555079Y-18500452D02*
X279555079Y-18500452D01*
X240868348Y-32500452D02*
X241455328Y-32500452D01*
D11*
X307118485Y-14825470D02*
X306921577Y-14866820D01*
X306747544Y-14995875D01*
X306640220Y-15190111D01*
X306624062Y-15257643D01*
D10*
X304155064Y-89150462D02*
X304155064Y-76150462D01*
D11*
X20911330Y-15325457D02*
X20861829Y-15109184D01*
X20728902Y-14940001D01*
X20535906Y-14841268D01*
X20411330Y-14825457D01*
D10*
X37955333Y-75650457D02*
X50955333Y-75650457D01*
X127155079Y-32500452D02*
X114155079Y-32500452D01*
X127655079Y-32000452D02*
X127582692Y-32259720D01*
X127393408Y-32440104D01*
X127155079Y-32500452D01*
X170805074Y-19000452D02*
X170877460Y-18741183D01*
X171066744Y-18560799D01*
X171305074Y-18500452D01*
X279555059Y-70600452D02*
X266555059Y-70600452D01*
X210492225Y-73650457D02*
X210232956Y-73722843D01*
X210052572Y-73912127D01*
X209992225Y-74150457D01*
D11*
X136411330Y-14325457D02*
X136411330Y-11825457D01*
D10*
X51455333Y-76150457D02*
X51455333Y-89150457D01*
D11*
X148161330Y-95075444D02*
X148161330Y-95325444D01*
D10*
X261005074Y-38050452D02*
X261005074Y-51050452D01*
D11*
X301661330Y-12218293D02*
X301648831Y-12002333D01*
X301600704Y-11776523D01*
X301501757Y-11568175D01*
X301340231Y-11407946D01*
X301141893Y-11332746D01*
X301048958Y-11325457D01*
D10*
X31905076Y-18500452D02*
X32164344Y-18572838D01*
X32344728Y-18762122D01*
X32405076Y-19000452D01*
X89555074Y-32000452D02*
X89482687Y-32259720D01*
X89293403Y-32440104D01*
X89055074Y-32500452D01*
X18905338Y-75650457D02*
X31905338Y-75650457D01*
X190355084Y-32500452D02*
X190095815Y-32428065D01*
X189915431Y-32238781D01*
X189855084Y-32000452D01*
X266555059Y-56600452D02*
X279555059Y-56600452D01*
X37455333Y-89150457D02*
X37455333Y-76150457D01*
X37955071Y-18500452D02*
X50955071Y-18500452D01*
X174305336Y-75650457D02*
X174305336Y-74150457D01*
X152255074Y-32500452D02*
X151995805Y-32428065D01*
X151815421Y-32238781D01*
X151755074Y-32000452D01*
X261005059Y-57100452D02*
X261005059Y-70100452D01*
X32405076Y-32000452D02*
X32332689Y-32259720D01*
X32143405Y-32440104D01*
X31905076Y-32500452D01*
X171305074Y-32500452D02*
X171045805Y-32428065D01*
X170865421Y-32238781D01*
X170805074Y-32000452D01*
X57005334Y-75650457D02*
X60005351Y-75650064D01*
X285105069Y-57100452D02*
X285177455Y-56841183D01*
X285366739Y-56660799D01*
X285605069Y-56600452D01*
X77142356Y-73650457D02*
X70030344Y-73650064D01*
X94605069Y-32000452D02*
X94605069Y-19000452D01*
D11*
X136911330Y-14825457D02*
X136695057Y-14775956D01*
X136525874Y-14643029D01*
X136427141Y-14450033D01*
X136411330Y-14325457D01*
D10*
X18405338Y-89150457D02*
X18405338Y-76150457D01*
D11*
X21411329Y-15825457D02*
X21195056Y-15775956D01*
X21025874Y-15643029D01*
X20927141Y-15450034D01*
X20911330Y-15325458D01*
D10*
X189855084Y-32000452D02*
X189855084Y-19000452D01*
X240868348Y-34000452D02*
X240868348Y-32500452D01*
X278468084Y-73650064D02*
X272468084Y-73650064D01*
X56505073Y-19000452D02*
X56577459Y-18741183D01*
X56766743Y-18560799D01*
X57005073Y-18500452D01*
D12*
X145129761Y-74876819D02*
X145129761Y-73876819D01*
X145129761Y-73876819D02*
X145463094Y-74591104D01*
X145463094Y-74591104D02*
X145796427Y-73876819D01*
X145796427Y-73876819D02*
X145796427Y-74876819D01*
X146177380Y-73876819D02*
X146844046Y-74876819D01*
X146844046Y-73876819D02*
X146177380Y-74876819D01*
X146986904Y-74972057D02*
X147748808Y-74972057D01*
X147939285Y-74829200D02*
X148034523Y-74876819D01*
X148034523Y-74876819D02*
X148224999Y-74876819D01*
X148224999Y-74876819D02*
X148320237Y-74829200D01*
X148320237Y-74829200D02*
X148367856Y-74733961D01*
X148367856Y-74733961D02*
X148367856Y-74686342D01*
X148367856Y-74686342D02*
X148320237Y-74591104D01*
X148320237Y-74591104D02*
X148224999Y-74543485D01*
X148224999Y-74543485D02*
X148082142Y-74543485D01*
X148082142Y-74543485D02*
X147986904Y-74495866D01*
X147986904Y-74495866D02*
X147939285Y-74400628D01*
X147939285Y-74400628D02*
X147939285Y-74353009D01*
X147939285Y-74353009D02*
X147986904Y-74257771D01*
X147986904Y-74257771D02*
X148082142Y-74210152D01*
X148082142Y-74210152D02*
X148224999Y-74210152D01*
X148224999Y-74210152D02*
X148320237Y-74257771D01*
X148653571Y-74210152D02*
X149034523Y-74210152D01*
X148796428Y-73876819D02*
X148796428Y-74733961D01*
X148796428Y-74733961D02*
X148844047Y-74829200D01*
X148844047Y-74829200D02*
X148939285Y-74876819D01*
X148939285Y-74876819D02*
X149034523Y-74876819D01*
X149796428Y-74876819D02*
X149796428Y-74353009D01*
X149796428Y-74353009D02*
X149748809Y-74257771D01*
X149748809Y-74257771D02*
X149653571Y-74210152D01*
X149653571Y-74210152D02*
X149463095Y-74210152D01*
X149463095Y-74210152D02*
X149367857Y-74257771D01*
X149796428Y-74829200D02*
X149701190Y-74876819D01*
X149701190Y-74876819D02*
X149463095Y-74876819D01*
X149463095Y-74876819D02*
X149367857Y-74829200D01*
X149367857Y-74829200D02*
X149320238Y-74733961D01*
X149320238Y-74733961D02*
X149320238Y-74638723D01*
X149320238Y-74638723D02*
X149367857Y-74543485D01*
X149367857Y-74543485D02*
X149463095Y-74495866D01*
X149463095Y-74495866D02*
X149701190Y-74495866D01*
X149701190Y-74495866D02*
X149796428Y-74448247D01*
X150272619Y-74876819D02*
X150272619Y-73876819D01*
X150272619Y-74257771D02*
X150367857Y-74210152D01*
X150367857Y-74210152D02*
X150558333Y-74210152D01*
X150558333Y-74210152D02*
X150653571Y-74257771D01*
X150653571Y-74257771D02*
X150701190Y-74305390D01*
X150701190Y-74305390D02*
X150748809Y-74400628D01*
X150748809Y-74400628D02*
X150748809Y-74686342D01*
X150748809Y-74686342D02*
X150701190Y-74781580D01*
X150701190Y-74781580D02*
X150653571Y-74829200D01*
X150653571Y-74829200D02*
X150558333Y-74876819D01*
X150558333Y-74876819D02*
X150367857Y-74876819D01*
X150367857Y-74876819D02*
X150272619Y-74829200D01*
X150939286Y-74972057D02*
X151701190Y-74972057D01*
X151891667Y-73972057D02*
X151939286Y-73924438D01*
X151939286Y-73924438D02*
X152034524Y-73876819D01*
X152034524Y-73876819D02*
X152272619Y-73876819D01*
X152272619Y-73876819D02*
X152367857Y-73924438D01*
X152367857Y-73924438D02*
X152415476Y-73972057D01*
X152415476Y-73972057D02*
X152463095Y-74067295D01*
X152463095Y-74067295D02*
X152463095Y-74162533D01*
X152463095Y-74162533D02*
X152415476Y-74305390D01*
X152415476Y-74305390D02*
X151844048Y-74876819D01*
X151844048Y-74876819D02*
X152463095Y-74876819D01*
X153320238Y-74210152D02*
X153320238Y-74876819D01*
X152891667Y-74210152D02*
X152891667Y-74733961D01*
X152891667Y-74733961D02*
X152939286Y-74829200D01*
X152939286Y-74829200D02*
X153034524Y-74876819D01*
X153034524Y-74876819D02*
X153177381Y-74876819D01*
X153177381Y-74876819D02*
X153272619Y-74829200D01*
X153272619Y-74829200D02*
X153320238Y-74781580D01*
X202279761Y-74876819D02*
X202279761Y-73876819D01*
X202279761Y-73876819D02*
X202613094Y-74591104D01*
X202613094Y-74591104D02*
X202946427Y-73876819D01*
X202946427Y-73876819D02*
X202946427Y-74876819D01*
X203327380Y-73876819D02*
X203994046Y-74876819D01*
X203994046Y-73876819D02*
X203327380Y-74876819D01*
X204136904Y-74972057D02*
X204898808Y-74972057D01*
X205089285Y-74829200D02*
X205184523Y-74876819D01*
X205184523Y-74876819D02*
X205374999Y-74876819D01*
X205374999Y-74876819D02*
X205470237Y-74829200D01*
X205470237Y-74829200D02*
X205517856Y-74733961D01*
X205517856Y-74733961D02*
X205517856Y-74686342D01*
X205517856Y-74686342D02*
X205470237Y-74591104D01*
X205470237Y-74591104D02*
X205374999Y-74543485D01*
X205374999Y-74543485D02*
X205232142Y-74543485D01*
X205232142Y-74543485D02*
X205136904Y-74495866D01*
X205136904Y-74495866D02*
X205089285Y-74400628D01*
X205089285Y-74400628D02*
X205089285Y-74353009D01*
X205089285Y-74353009D02*
X205136904Y-74257771D01*
X205136904Y-74257771D02*
X205232142Y-74210152D01*
X205232142Y-74210152D02*
X205374999Y-74210152D01*
X205374999Y-74210152D02*
X205470237Y-74257771D01*
X205803571Y-74210152D02*
X206184523Y-74210152D01*
X205946428Y-73876819D02*
X205946428Y-74733961D01*
X205946428Y-74733961D02*
X205994047Y-74829200D01*
X205994047Y-74829200D02*
X206089285Y-74876819D01*
X206089285Y-74876819D02*
X206184523Y-74876819D01*
X206946428Y-74876819D02*
X206946428Y-74353009D01*
X206946428Y-74353009D02*
X206898809Y-74257771D01*
X206898809Y-74257771D02*
X206803571Y-74210152D01*
X206803571Y-74210152D02*
X206613095Y-74210152D01*
X206613095Y-74210152D02*
X206517857Y-74257771D01*
X206946428Y-74829200D02*
X206851190Y-74876819D01*
X206851190Y-74876819D02*
X206613095Y-74876819D01*
X206613095Y-74876819D02*
X206517857Y-74829200D01*
X206517857Y-74829200D02*
X206470238Y-74733961D01*
X206470238Y-74733961D02*
X206470238Y-74638723D01*
X206470238Y-74638723D02*
X206517857Y-74543485D01*
X206517857Y-74543485D02*
X206613095Y-74495866D01*
X206613095Y-74495866D02*
X206851190Y-74495866D01*
X206851190Y-74495866D02*
X206946428Y-74448247D01*
X207422619Y-74876819D02*
X207422619Y-73876819D01*
X207422619Y-74257771D02*
X207517857Y-74210152D01*
X207517857Y-74210152D02*
X207708333Y-74210152D01*
X207708333Y-74210152D02*
X207803571Y-74257771D01*
X207803571Y-74257771D02*
X207851190Y-74305390D01*
X207851190Y-74305390D02*
X207898809Y-74400628D01*
X207898809Y-74400628D02*
X207898809Y-74686342D01*
X207898809Y-74686342D02*
X207851190Y-74781580D01*
X207851190Y-74781580D02*
X207803571Y-74829200D01*
X207803571Y-74829200D02*
X207708333Y-74876819D01*
X207708333Y-74876819D02*
X207517857Y-74876819D01*
X207517857Y-74876819D02*
X207422619Y-74829200D01*
X208089286Y-74972057D02*
X208851190Y-74972057D01*
X209041667Y-73972057D02*
X209089286Y-73924438D01*
X209089286Y-73924438D02*
X209184524Y-73876819D01*
X209184524Y-73876819D02*
X209422619Y-73876819D01*
X209422619Y-73876819D02*
X209517857Y-73924438D01*
X209517857Y-73924438D02*
X209565476Y-73972057D01*
X209565476Y-73972057D02*
X209613095Y-74067295D01*
X209613095Y-74067295D02*
X209613095Y-74162533D01*
X209613095Y-74162533D02*
X209565476Y-74305390D01*
X209565476Y-74305390D02*
X208994048Y-74876819D01*
X208994048Y-74876819D02*
X209613095Y-74876819D01*
X210470238Y-74210152D02*
X210470238Y-74876819D01*
X210041667Y-74210152D02*
X210041667Y-74733961D01*
X210041667Y-74733961D02*
X210089286Y-74829200D01*
X210089286Y-74829200D02*
X210184524Y-74876819D01*
X210184524Y-74876819D02*
X210327381Y-74876819D01*
X210327381Y-74876819D02*
X210422619Y-74829200D01*
X210422619Y-74829200D02*
X210470238Y-74781580D01*
X97504761Y-74876819D02*
X97504761Y-73876819D01*
X97504761Y-73876819D02*
X97838094Y-74591104D01*
X97838094Y-74591104D02*
X98171427Y-73876819D01*
X98171427Y-73876819D02*
X98171427Y-74876819D01*
X98552380Y-73876819D02*
X99219046Y-74876819D01*
X99219046Y-73876819D02*
X98552380Y-74876819D01*
X99361904Y-74972057D02*
X100123808Y-74972057D01*
X100314285Y-74829200D02*
X100409523Y-74876819D01*
X100409523Y-74876819D02*
X100599999Y-74876819D01*
X100599999Y-74876819D02*
X100695237Y-74829200D01*
X100695237Y-74829200D02*
X100742856Y-74733961D01*
X100742856Y-74733961D02*
X100742856Y-74686342D01*
X100742856Y-74686342D02*
X100695237Y-74591104D01*
X100695237Y-74591104D02*
X100599999Y-74543485D01*
X100599999Y-74543485D02*
X100457142Y-74543485D01*
X100457142Y-74543485D02*
X100361904Y-74495866D01*
X100361904Y-74495866D02*
X100314285Y-74400628D01*
X100314285Y-74400628D02*
X100314285Y-74353009D01*
X100314285Y-74353009D02*
X100361904Y-74257771D01*
X100361904Y-74257771D02*
X100457142Y-74210152D01*
X100457142Y-74210152D02*
X100599999Y-74210152D01*
X100599999Y-74210152D02*
X100695237Y-74257771D01*
X101028571Y-74210152D02*
X101409523Y-74210152D01*
X101171428Y-73876819D02*
X101171428Y-74733961D01*
X101171428Y-74733961D02*
X101219047Y-74829200D01*
X101219047Y-74829200D02*
X101314285Y-74876819D01*
X101314285Y-74876819D02*
X101409523Y-74876819D01*
X102171428Y-74876819D02*
X102171428Y-74353009D01*
X102171428Y-74353009D02*
X102123809Y-74257771D01*
X102123809Y-74257771D02*
X102028571Y-74210152D01*
X102028571Y-74210152D02*
X101838095Y-74210152D01*
X101838095Y-74210152D02*
X101742857Y-74257771D01*
X102171428Y-74829200D02*
X102076190Y-74876819D01*
X102076190Y-74876819D02*
X101838095Y-74876819D01*
X101838095Y-74876819D02*
X101742857Y-74829200D01*
X101742857Y-74829200D02*
X101695238Y-74733961D01*
X101695238Y-74733961D02*
X101695238Y-74638723D01*
X101695238Y-74638723D02*
X101742857Y-74543485D01*
X101742857Y-74543485D02*
X101838095Y-74495866D01*
X101838095Y-74495866D02*
X102076190Y-74495866D01*
X102076190Y-74495866D02*
X102171428Y-74448247D01*
X102647619Y-74876819D02*
X102647619Y-73876819D01*
X102647619Y-74257771D02*
X102742857Y-74210152D01*
X102742857Y-74210152D02*
X102933333Y-74210152D01*
X102933333Y-74210152D02*
X103028571Y-74257771D01*
X103028571Y-74257771D02*
X103076190Y-74305390D01*
X103076190Y-74305390D02*
X103123809Y-74400628D01*
X103123809Y-74400628D02*
X103123809Y-74686342D01*
X103123809Y-74686342D02*
X103076190Y-74781580D01*
X103076190Y-74781580D02*
X103028571Y-74829200D01*
X103028571Y-74829200D02*
X102933333Y-74876819D01*
X102933333Y-74876819D02*
X102742857Y-74876819D01*
X102742857Y-74876819D02*
X102647619Y-74829200D01*
X103314286Y-74972057D02*
X104076190Y-74972057D01*
X104219048Y-73876819D02*
X104838095Y-73876819D01*
X104838095Y-73876819D02*
X104504762Y-74257771D01*
X104504762Y-74257771D02*
X104647619Y-74257771D01*
X104647619Y-74257771D02*
X104742857Y-74305390D01*
X104742857Y-74305390D02*
X104790476Y-74353009D01*
X104790476Y-74353009D02*
X104838095Y-74448247D01*
X104838095Y-74448247D02*
X104838095Y-74686342D01*
X104838095Y-74686342D02*
X104790476Y-74781580D01*
X104790476Y-74781580D02*
X104742857Y-74829200D01*
X104742857Y-74829200D02*
X104647619Y-74876819D01*
X104647619Y-74876819D02*
X104361905Y-74876819D01*
X104361905Y-74876819D02*
X104266667Y-74829200D01*
X104266667Y-74829200D02*
X104219048Y-74781580D01*
X105695238Y-74210152D02*
X105695238Y-74876819D01*
X105266667Y-74210152D02*
X105266667Y-74733961D01*
X105266667Y-74733961D02*
X105314286Y-74829200D01*
X105314286Y-74829200D02*
X105409524Y-74876819D01*
X105409524Y-74876819D02*
X105552381Y-74876819D01*
X105552381Y-74876819D02*
X105647619Y-74829200D01*
X105647619Y-74829200D02*
X105695238Y-74781580D01*
X221329761Y-74876819D02*
X221329761Y-73876819D01*
X221329761Y-73876819D02*
X221663094Y-74591104D01*
X221663094Y-74591104D02*
X221996427Y-73876819D01*
X221996427Y-73876819D02*
X221996427Y-74876819D01*
X222377380Y-73876819D02*
X223044046Y-74876819D01*
X223044046Y-73876819D02*
X222377380Y-74876819D01*
X223186904Y-74972057D02*
X223948808Y-74972057D01*
X224139285Y-74829200D02*
X224234523Y-74876819D01*
X224234523Y-74876819D02*
X224424999Y-74876819D01*
X224424999Y-74876819D02*
X224520237Y-74829200D01*
X224520237Y-74829200D02*
X224567856Y-74733961D01*
X224567856Y-74733961D02*
X224567856Y-74686342D01*
X224567856Y-74686342D02*
X224520237Y-74591104D01*
X224520237Y-74591104D02*
X224424999Y-74543485D01*
X224424999Y-74543485D02*
X224282142Y-74543485D01*
X224282142Y-74543485D02*
X224186904Y-74495866D01*
X224186904Y-74495866D02*
X224139285Y-74400628D01*
X224139285Y-74400628D02*
X224139285Y-74353009D01*
X224139285Y-74353009D02*
X224186904Y-74257771D01*
X224186904Y-74257771D02*
X224282142Y-74210152D01*
X224282142Y-74210152D02*
X224424999Y-74210152D01*
X224424999Y-74210152D02*
X224520237Y-74257771D01*
X224853571Y-74210152D02*
X225234523Y-74210152D01*
X224996428Y-73876819D02*
X224996428Y-74733961D01*
X224996428Y-74733961D02*
X225044047Y-74829200D01*
X225044047Y-74829200D02*
X225139285Y-74876819D01*
X225139285Y-74876819D02*
X225234523Y-74876819D01*
X225996428Y-74876819D02*
X225996428Y-74353009D01*
X225996428Y-74353009D02*
X225948809Y-74257771D01*
X225948809Y-74257771D02*
X225853571Y-74210152D01*
X225853571Y-74210152D02*
X225663095Y-74210152D01*
X225663095Y-74210152D02*
X225567857Y-74257771D01*
X225996428Y-74829200D02*
X225901190Y-74876819D01*
X225901190Y-74876819D02*
X225663095Y-74876819D01*
X225663095Y-74876819D02*
X225567857Y-74829200D01*
X225567857Y-74829200D02*
X225520238Y-74733961D01*
X225520238Y-74733961D02*
X225520238Y-74638723D01*
X225520238Y-74638723D02*
X225567857Y-74543485D01*
X225567857Y-74543485D02*
X225663095Y-74495866D01*
X225663095Y-74495866D02*
X225901190Y-74495866D01*
X225901190Y-74495866D02*
X225996428Y-74448247D01*
X226472619Y-74876819D02*
X226472619Y-73876819D01*
X226472619Y-74257771D02*
X226567857Y-74210152D01*
X226567857Y-74210152D02*
X226758333Y-74210152D01*
X226758333Y-74210152D02*
X226853571Y-74257771D01*
X226853571Y-74257771D02*
X226901190Y-74305390D01*
X226901190Y-74305390D02*
X226948809Y-74400628D01*
X226948809Y-74400628D02*
X226948809Y-74686342D01*
X226948809Y-74686342D02*
X226901190Y-74781580D01*
X226901190Y-74781580D02*
X226853571Y-74829200D01*
X226853571Y-74829200D02*
X226758333Y-74876819D01*
X226758333Y-74876819D02*
X226567857Y-74876819D01*
X226567857Y-74876819D02*
X226472619Y-74829200D01*
X227139286Y-74972057D02*
X227901190Y-74972057D01*
X228091667Y-73972057D02*
X228139286Y-73924438D01*
X228139286Y-73924438D02*
X228234524Y-73876819D01*
X228234524Y-73876819D02*
X228472619Y-73876819D01*
X228472619Y-73876819D02*
X228567857Y-73924438D01*
X228567857Y-73924438D02*
X228615476Y-73972057D01*
X228615476Y-73972057D02*
X228663095Y-74067295D01*
X228663095Y-74067295D02*
X228663095Y-74162533D01*
X228663095Y-74162533D02*
X228615476Y-74305390D01*
X228615476Y-74305390D02*
X228044048Y-74876819D01*
X228044048Y-74876819D02*
X228663095Y-74876819D01*
X229520238Y-74210152D02*
X229520238Y-74876819D01*
X229091667Y-74210152D02*
X229091667Y-74733961D01*
X229091667Y-74733961D02*
X229139286Y-74829200D01*
X229139286Y-74829200D02*
X229234524Y-74876819D01*
X229234524Y-74876819D02*
X229377381Y-74876819D01*
X229377381Y-74876819D02*
X229472619Y-74829200D01*
X229472619Y-74829200D02*
X229520238Y-74781580D01*
X124651094Y-74876811D02*
X124651094Y-73876811D01*
X124651094Y-73876811D02*
X124984427Y-74591096D01*
X124984427Y-74591096D02*
X125317760Y-73876811D01*
X125317760Y-73876811D02*
X125317760Y-74876811D01*
X125698713Y-73876811D02*
X126365379Y-74876811D01*
X126365379Y-73876811D02*
X125698713Y-74876811D01*
X126508237Y-74972049D02*
X127270141Y-74972049D01*
X127460618Y-74829192D02*
X127555856Y-74876811D01*
X127555856Y-74876811D02*
X127746332Y-74876811D01*
X127746332Y-74876811D02*
X127841570Y-74829192D01*
X127841570Y-74829192D02*
X127889189Y-74733953D01*
X127889189Y-74733953D02*
X127889189Y-74686334D01*
X127889189Y-74686334D02*
X127841570Y-74591096D01*
X127841570Y-74591096D02*
X127746332Y-74543477D01*
X127746332Y-74543477D02*
X127603475Y-74543477D01*
X127603475Y-74543477D02*
X127508237Y-74495858D01*
X127508237Y-74495858D02*
X127460618Y-74400620D01*
X127460618Y-74400620D02*
X127460618Y-74353001D01*
X127460618Y-74353001D02*
X127508237Y-74257763D01*
X127508237Y-74257763D02*
X127603475Y-74210144D01*
X127603475Y-74210144D02*
X127746332Y-74210144D01*
X127746332Y-74210144D02*
X127841570Y-74257763D01*
X128174904Y-74210144D02*
X128555856Y-74210144D01*
X128317761Y-73876811D02*
X128317761Y-74733953D01*
X128317761Y-74733953D02*
X128365380Y-74829192D01*
X128365380Y-74829192D02*
X128460618Y-74876811D01*
X128460618Y-74876811D02*
X128555856Y-74876811D01*
X129317761Y-74876811D02*
X129317761Y-74353001D01*
X129317761Y-74353001D02*
X129270142Y-74257763D01*
X129270142Y-74257763D02*
X129174904Y-74210144D01*
X129174904Y-74210144D02*
X128984428Y-74210144D01*
X128984428Y-74210144D02*
X128889190Y-74257763D01*
X129317761Y-74829192D02*
X129222523Y-74876811D01*
X129222523Y-74876811D02*
X128984428Y-74876811D01*
X128984428Y-74876811D02*
X128889190Y-74829192D01*
X128889190Y-74829192D02*
X128841571Y-74733953D01*
X128841571Y-74733953D02*
X128841571Y-74638715D01*
X128841571Y-74638715D02*
X128889190Y-74543477D01*
X128889190Y-74543477D02*
X128984428Y-74495858D01*
X128984428Y-74495858D02*
X129222523Y-74495858D01*
X129222523Y-74495858D02*
X129317761Y-74448239D01*
X129793952Y-74876811D02*
X129793952Y-73876811D01*
X129793952Y-74257763D02*
X129889190Y-74210144D01*
X129889190Y-74210144D02*
X130079666Y-74210144D01*
X130079666Y-74210144D02*
X130174904Y-74257763D01*
X130174904Y-74257763D02*
X130222523Y-74305382D01*
X130222523Y-74305382D02*
X130270142Y-74400620D01*
X130270142Y-74400620D02*
X130270142Y-74686334D01*
X130270142Y-74686334D02*
X130222523Y-74781572D01*
X130222523Y-74781572D02*
X130174904Y-74829192D01*
X130174904Y-74829192D02*
X130079666Y-74876811D01*
X130079666Y-74876811D02*
X129889190Y-74876811D01*
X129889190Y-74876811D02*
X129793952Y-74829192D01*
X130460619Y-74972049D02*
X131222523Y-74972049D01*
X131365381Y-73876811D02*
X132032047Y-73876811D01*
X132032047Y-73876811D02*
X131603476Y-74876811D01*
X132555857Y-74305382D02*
X132460619Y-74257763D01*
X132460619Y-74257763D02*
X132413000Y-74210144D01*
X132413000Y-74210144D02*
X132365381Y-74114906D01*
X132365381Y-74114906D02*
X132365381Y-74067287D01*
X132365381Y-74067287D02*
X132413000Y-73972049D01*
X132413000Y-73972049D02*
X132460619Y-73924430D01*
X132460619Y-73924430D02*
X132555857Y-73876811D01*
X132555857Y-73876811D02*
X132746333Y-73876811D01*
X132746333Y-73876811D02*
X132841571Y-73924430D01*
X132841571Y-73924430D02*
X132889190Y-73972049D01*
X132889190Y-73972049D02*
X132936809Y-74067287D01*
X132936809Y-74067287D02*
X132936809Y-74114906D01*
X132936809Y-74114906D02*
X132889190Y-74210144D01*
X132889190Y-74210144D02*
X132841571Y-74257763D01*
X132841571Y-74257763D02*
X132746333Y-74305382D01*
X132746333Y-74305382D02*
X132555857Y-74305382D01*
X132555857Y-74305382D02*
X132460619Y-74353001D01*
X132460619Y-74353001D02*
X132413000Y-74400620D01*
X132413000Y-74400620D02*
X132365381Y-74495858D01*
X132365381Y-74495858D02*
X132365381Y-74686334D01*
X132365381Y-74686334D02*
X132413000Y-74781572D01*
X132413000Y-74781572D02*
X132460619Y-74829192D01*
X132460619Y-74829192D02*
X132555857Y-74876811D01*
X132555857Y-74876811D02*
X132746333Y-74876811D01*
X132746333Y-74876811D02*
X132841571Y-74829192D01*
X132841571Y-74829192D02*
X132889190Y-74781572D01*
X132889190Y-74781572D02*
X132936809Y-74686334D01*
X132936809Y-74686334D02*
X132936809Y-74495858D01*
X132936809Y-74495858D02*
X132889190Y-74400620D01*
X132889190Y-74400620D02*
X132841571Y-74353001D01*
X132841571Y-74353001D02*
X132746333Y-74305382D01*
X133889190Y-74876811D02*
X133317762Y-74876811D01*
X133603476Y-74876811D02*
X133603476Y-73876811D01*
X133603476Y-73876811D02*
X133508238Y-74019668D01*
X133508238Y-74019668D02*
X133413000Y-74114906D01*
X133413000Y-74114906D02*
X133317762Y-74162525D01*
X134508238Y-73876811D02*
X134603476Y-73876811D01*
X134603476Y-73876811D02*
X134698714Y-73924430D01*
X134698714Y-73924430D02*
X134746333Y-73972049D01*
X134746333Y-73972049D02*
X134793952Y-74067287D01*
X134793952Y-74067287D02*
X134841571Y-74257763D01*
X134841571Y-74257763D02*
X134841571Y-74495858D01*
X134841571Y-74495858D02*
X134793952Y-74686334D01*
X134793952Y-74686334D02*
X134746333Y-74781572D01*
X134746333Y-74781572D02*
X134698714Y-74829192D01*
X134698714Y-74829192D02*
X134603476Y-74876811D01*
X134603476Y-74876811D02*
X134508238Y-74876811D01*
X134508238Y-74876811D02*
X134413000Y-74829192D01*
X134413000Y-74829192D02*
X134365381Y-74781572D01*
X134365381Y-74781572D02*
X134317762Y-74686334D01*
X134317762Y-74686334D02*
X134270143Y-74495858D01*
X134270143Y-74495858D02*
X134270143Y-74257763D01*
X134270143Y-74257763D02*
X134317762Y-74067287D01*
X134317762Y-74067287D02*
X134365381Y-73972049D01*
X134365381Y-73972049D02*
X134413000Y-73924430D01*
X134413000Y-73924430D02*
X134508238Y-73876811D01*
X135698714Y-74210144D02*
X135698714Y-74876811D01*
X135270143Y-74210144D02*
X135270143Y-74733953D01*
X135270143Y-74733953D02*
X135317762Y-74829192D01*
X135317762Y-74829192D02*
X135413000Y-74876811D01*
X135413000Y-74876811D02*
X135555857Y-74876811D01*
X135555857Y-74876811D02*
X135651095Y-74829192D01*
X135651095Y-74829192D02*
X135698714Y-74781572D01*
X87979761Y-74876819D02*
X87979761Y-73876819D01*
X87979761Y-73876819D02*
X88313094Y-74591104D01*
X88313094Y-74591104D02*
X88646427Y-73876819D01*
X88646427Y-73876819D02*
X88646427Y-74876819D01*
X89027380Y-73876819D02*
X89694046Y-74876819D01*
X89694046Y-73876819D02*
X89027380Y-74876819D01*
X89836904Y-74972057D02*
X90598808Y-74972057D01*
X90789285Y-74829200D02*
X90884523Y-74876819D01*
X90884523Y-74876819D02*
X91074999Y-74876819D01*
X91074999Y-74876819D02*
X91170237Y-74829200D01*
X91170237Y-74829200D02*
X91217856Y-74733961D01*
X91217856Y-74733961D02*
X91217856Y-74686342D01*
X91217856Y-74686342D02*
X91170237Y-74591104D01*
X91170237Y-74591104D02*
X91074999Y-74543485D01*
X91074999Y-74543485D02*
X90932142Y-74543485D01*
X90932142Y-74543485D02*
X90836904Y-74495866D01*
X90836904Y-74495866D02*
X90789285Y-74400628D01*
X90789285Y-74400628D02*
X90789285Y-74353009D01*
X90789285Y-74353009D02*
X90836904Y-74257771D01*
X90836904Y-74257771D02*
X90932142Y-74210152D01*
X90932142Y-74210152D02*
X91074999Y-74210152D01*
X91074999Y-74210152D02*
X91170237Y-74257771D01*
X91503571Y-74210152D02*
X91884523Y-74210152D01*
X91646428Y-73876819D02*
X91646428Y-74733961D01*
X91646428Y-74733961D02*
X91694047Y-74829200D01*
X91694047Y-74829200D02*
X91789285Y-74876819D01*
X91789285Y-74876819D02*
X91884523Y-74876819D01*
X92646428Y-74876819D02*
X92646428Y-74353009D01*
X92646428Y-74353009D02*
X92598809Y-74257771D01*
X92598809Y-74257771D02*
X92503571Y-74210152D01*
X92503571Y-74210152D02*
X92313095Y-74210152D01*
X92313095Y-74210152D02*
X92217857Y-74257771D01*
X92646428Y-74829200D02*
X92551190Y-74876819D01*
X92551190Y-74876819D02*
X92313095Y-74876819D01*
X92313095Y-74876819D02*
X92217857Y-74829200D01*
X92217857Y-74829200D02*
X92170238Y-74733961D01*
X92170238Y-74733961D02*
X92170238Y-74638723D01*
X92170238Y-74638723D02*
X92217857Y-74543485D01*
X92217857Y-74543485D02*
X92313095Y-74495866D01*
X92313095Y-74495866D02*
X92551190Y-74495866D01*
X92551190Y-74495866D02*
X92646428Y-74448247D01*
X93122619Y-74876819D02*
X93122619Y-73876819D01*
X93122619Y-74257771D02*
X93217857Y-74210152D01*
X93217857Y-74210152D02*
X93408333Y-74210152D01*
X93408333Y-74210152D02*
X93503571Y-74257771D01*
X93503571Y-74257771D02*
X93551190Y-74305390D01*
X93551190Y-74305390D02*
X93598809Y-74400628D01*
X93598809Y-74400628D02*
X93598809Y-74686342D01*
X93598809Y-74686342D02*
X93551190Y-74781580D01*
X93551190Y-74781580D02*
X93503571Y-74829200D01*
X93503571Y-74829200D02*
X93408333Y-74876819D01*
X93408333Y-74876819D02*
X93217857Y-74876819D01*
X93217857Y-74876819D02*
X93122619Y-74829200D01*
X93789286Y-74972057D02*
X94551190Y-74972057D01*
X94741667Y-73972057D02*
X94789286Y-73924438D01*
X94789286Y-73924438D02*
X94884524Y-73876819D01*
X94884524Y-73876819D02*
X95122619Y-73876819D01*
X95122619Y-73876819D02*
X95217857Y-73924438D01*
X95217857Y-73924438D02*
X95265476Y-73972057D01*
X95265476Y-73972057D02*
X95313095Y-74067295D01*
X95313095Y-74067295D02*
X95313095Y-74162533D01*
X95313095Y-74162533D02*
X95265476Y-74305390D01*
X95265476Y-74305390D02*
X94694048Y-74876819D01*
X94694048Y-74876819D02*
X95313095Y-74876819D01*
X96170238Y-74210152D02*
X96170238Y-74876819D01*
X95741667Y-74210152D02*
X95741667Y-74733961D01*
X95741667Y-74733961D02*
X95789286Y-74829200D01*
X95789286Y-74829200D02*
X95884524Y-74876819D01*
X95884524Y-74876819D02*
X96027381Y-74876819D01*
X96027381Y-74876819D02*
X96122619Y-74829200D01*
X96122619Y-74829200D02*
X96170238Y-74781580D01*
X221329585Y-33982811D02*
X221329585Y-32982811D01*
X221329585Y-32982811D02*
X221662918Y-33697096D01*
X221662918Y-33697096D02*
X221996251Y-32982811D01*
X221996251Y-32982811D02*
X221996251Y-33982811D01*
X222377204Y-32982811D02*
X223043870Y-33982811D01*
X223043870Y-32982811D02*
X222377204Y-33982811D01*
X223186728Y-34078049D02*
X223948632Y-34078049D01*
X224139109Y-33935192D02*
X224234347Y-33982811D01*
X224234347Y-33982811D02*
X224424823Y-33982811D01*
X224424823Y-33982811D02*
X224520061Y-33935192D01*
X224520061Y-33935192D02*
X224567680Y-33839953D01*
X224567680Y-33839953D02*
X224567680Y-33792334D01*
X224567680Y-33792334D02*
X224520061Y-33697096D01*
X224520061Y-33697096D02*
X224424823Y-33649477D01*
X224424823Y-33649477D02*
X224281966Y-33649477D01*
X224281966Y-33649477D02*
X224186728Y-33601858D01*
X224186728Y-33601858D02*
X224139109Y-33506620D01*
X224139109Y-33506620D02*
X224139109Y-33459001D01*
X224139109Y-33459001D02*
X224186728Y-33363763D01*
X224186728Y-33363763D02*
X224281966Y-33316144D01*
X224281966Y-33316144D02*
X224424823Y-33316144D01*
X224424823Y-33316144D02*
X224520061Y-33363763D01*
X224853395Y-33316144D02*
X225234347Y-33316144D01*
X224996252Y-32982811D02*
X224996252Y-33839953D01*
X224996252Y-33839953D02*
X225043871Y-33935192D01*
X225043871Y-33935192D02*
X225139109Y-33982811D01*
X225139109Y-33982811D02*
X225234347Y-33982811D01*
X225996252Y-33982811D02*
X225996252Y-33459001D01*
X225996252Y-33459001D02*
X225948633Y-33363763D01*
X225948633Y-33363763D02*
X225853395Y-33316144D01*
X225853395Y-33316144D02*
X225662919Y-33316144D01*
X225662919Y-33316144D02*
X225567681Y-33363763D01*
X225996252Y-33935192D02*
X225901014Y-33982811D01*
X225901014Y-33982811D02*
X225662919Y-33982811D01*
X225662919Y-33982811D02*
X225567681Y-33935192D01*
X225567681Y-33935192D02*
X225520062Y-33839953D01*
X225520062Y-33839953D02*
X225520062Y-33744715D01*
X225520062Y-33744715D02*
X225567681Y-33649477D01*
X225567681Y-33649477D02*
X225662919Y-33601858D01*
X225662919Y-33601858D02*
X225901014Y-33601858D01*
X225901014Y-33601858D02*
X225996252Y-33554239D01*
X226472443Y-33982811D02*
X226472443Y-32982811D01*
X226472443Y-33363763D02*
X226567681Y-33316144D01*
X226567681Y-33316144D02*
X226758157Y-33316144D01*
X226758157Y-33316144D02*
X226853395Y-33363763D01*
X226853395Y-33363763D02*
X226901014Y-33411382D01*
X226901014Y-33411382D02*
X226948633Y-33506620D01*
X226948633Y-33506620D02*
X226948633Y-33792334D01*
X226948633Y-33792334D02*
X226901014Y-33887572D01*
X226901014Y-33887572D02*
X226853395Y-33935192D01*
X226853395Y-33935192D02*
X226758157Y-33982811D01*
X226758157Y-33982811D02*
X226567681Y-33982811D01*
X226567681Y-33982811D02*
X226472443Y-33935192D01*
X227139110Y-34078049D02*
X227901014Y-34078049D01*
X228091491Y-33078049D02*
X228139110Y-33030430D01*
X228139110Y-33030430D02*
X228234348Y-32982811D01*
X228234348Y-32982811D02*
X228472443Y-32982811D01*
X228472443Y-32982811D02*
X228567681Y-33030430D01*
X228567681Y-33030430D02*
X228615300Y-33078049D01*
X228615300Y-33078049D02*
X228662919Y-33173287D01*
X228662919Y-33173287D02*
X228662919Y-33268525D01*
X228662919Y-33268525D02*
X228615300Y-33411382D01*
X228615300Y-33411382D02*
X228043872Y-33982811D01*
X228043872Y-33982811D02*
X228662919Y-33982811D01*
X229520062Y-33316144D02*
X229520062Y-33982811D01*
X229091491Y-33316144D02*
X229091491Y-33839953D01*
X229091491Y-33839953D02*
X229139110Y-33935192D01*
X229139110Y-33935192D02*
X229234348Y-33982811D01*
X229234348Y-33982811D02*
X229377205Y-33982811D01*
X229377205Y-33982811D02*
X229472443Y-33935192D01*
X229472443Y-33935192D02*
X229520062Y-33887572D01*
X259429553Y-74876819D02*
X259429553Y-73876819D01*
X259429553Y-73876819D02*
X259762886Y-74591104D01*
X259762886Y-74591104D02*
X260096219Y-73876819D01*
X260096219Y-73876819D02*
X260096219Y-74876819D01*
X260477172Y-73876819D02*
X261143838Y-74876819D01*
X261143838Y-73876819D02*
X260477172Y-74876819D01*
X261286696Y-74972057D02*
X262048600Y-74972057D01*
X262239077Y-74829200D02*
X262334315Y-74876819D01*
X262334315Y-74876819D02*
X262524791Y-74876819D01*
X262524791Y-74876819D02*
X262620029Y-74829200D01*
X262620029Y-74829200D02*
X262667648Y-74733961D01*
X262667648Y-74733961D02*
X262667648Y-74686342D01*
X262667648Y-74686342D02*
X262620029Y-74591104D01*
X262620029Y-74591104D02*
X262524791Y-74543485D01*
X262524791Y-74543485D02*
X262381934Y-74543485D01*
X262381934Y-74543485D02*
X262286696Y-74495866D01*
X262286696Y-74495866D02*
X262239077Y-74400628D01*
X262239077Y-74400628D02*
X262239077Y-74353009D01*
X262239077Y-74353009D02*
X262286696Y-74257771D01*
X262286696Y-74257771D02*
X262381934Y-74210152D01*
X262381934Y-74210152D02*
X262524791Y-74210152D01*
X262524791Y-74210152D02*
X262620029Y-74257771D01*
X262953363Y-74210152D02*
X263334315Y-74210152D01*
X263096220Y-73876819D02*
X263096220Y-74733961D01*
X263096220Y-74733961D02*
X263143839Y-74829200D01*
X263143839Y-74829200D02*
X263239077Y-74876819D01*
X263239077Y-74876819D02*
X263334315Y-74876819D01*
X264096220Y-74876819D02*
X264096220Y-74353009D01*
X264096220Y-74353009D02*
X264048601Y-74257771D01*
X264048601Y-74257771D02*
X263953363Y-74210152D01*
X263953363Y-74210152D02*
X263762887Y-74210152D01*
X263762887Y-74210152D02*
X263667649Y-74257771D01*
X264096220Y-74829200D02*
X264000982Y-74876819D01*
X264000982Y-74876819D02*
X263762887Y-74876819D01*
X263762887Y-74876819D02*
X263667649Y-74829200D01*
X263667649Y-74829200D02*
X263620030Y-74733961D01*
X263620030Y-74733961D02*
X263620030Y-74638723D01*
X263620030Y-74638723D02*
X263667649Y-74543485D01*
X263667649Y-74543485D02*
X263762887Y-74495866D01*
X263762887Y-74495866D02*
X264000982Y-74495866D01*
X264000982Y-74495866D02*
X264096220Y-74448247D01*
X264572411Y-74876819D02*
X264572411Y-73876819D01*
X264572411Y-74257771D02*
X264667649Y-74210152D01*
X264667649Y-74210152D02*
X264858125Y-74210152D01*
X264858125Y-74210152D02*
X264953363Y-74257771D01*
X264953363Y-74257771D02*
X265000982Y-74305390D01*
X265000982Y-74305390D02*
X265048601Y-74400628D01*
X265048601Y-74400628D02*
X265048601Y-74686342D01*
X265048601Y-74686342D02*
X265000982Y-74781580D01*
X265000982Y-74781580D02*
X264953363Y-74829200D01*
X264953363Y-74829200D02*
X264858125Y-74876819D01*
X264858125Y-74876819D02*
X264667649Y-74876819D01*
X264667649Y-74876819D02*
X264572411Y-74829200D01*
X265239078Y-74972057D02*
X266000982Y-74972057D01*
X266191459Y-73972057D02*
X266239078Y-73924438D01*
X266239078Y-73924438D02*
X266334316Y-73876819D01*
X266334316Y-73876819D02*
X266572411Y-73876819D01*
X266572411Y-73876819D02*
X266667649Y-73924438D01*
X266667649Y-73924438D02*
X266715268Y-73972057D01*
X266715268Y-73972057D02*
X266762887Y-74067295D01*
X266762887Y-74067295D02*
X266762887Y-74162533D01*
X266762887Y-74162533D02*
X266715268Y-74305390D01*
X266715268Y-74305390D02*
X266143840Y-74876819D01*
X266143840Y-74876819D02*
X266762887Y-74876819D01*
X267620030Y-74210152D02*
X267620030Y-74876819D01*
X267191459Y-74210152D02*
X267191459Y-74733961D01*
X267191459Y-74733961D02*
X267239078Y-74829200D01*
X267239078Y-74829200D02*
X267334316Y-74876819D01*
X267334316Y-74876819D02*
X267477173Y-74876819D01*
X267477173Y-74876819D02*
X267572411Y-74829200D01*
X267572411Y-74829200D02*
X267620030Y-74781580D01*
X135604761Y-74876819D02*
X135604761Y-73876819D01*
X135604761Y-73876819D02*
X135938094Y-74591104D01*
X135938094Y-74591104D02*
X136271427Y-73876819D01*
X136271427Y-73876819D02*
X136271427Y-74876819D01*
X136652380Y-73876819D02*
X137319046Y-74876819D01*
X137319046Y-73876819D02*
X136652380Y-74876819D01*
X137461904Y-74972057D02*
X138223808Y-74972057D01*
X138414285Y-74829200D02*
X138509523Y-74876819D01*
X138509523Y-74876819D02*
X138699999Y-74876819D01*
X138699999Y-74876819D02*
X138795237Y-74829200D01*
X138795237Y-74829200D02*
X138842856Y-74733961D01*
X138842856Y-74733961D02*
X138842856Y-74686342D01*
X138842856Y-74686342D02*
X138795237Y-74591104D01*
X138795237Y-74591104D02*
X138699999Y-74543485D01*
X138699999Y-74543485D02*
X138557142Y-74543485D01*
X138557142Y-74543485D02*
X138461904Y-74495866D01*
X138461904Y-74495866D02*
X138414285Y-74400628D01*
X138414285Y-74400628D02*
X138414285Y-74353009D01*
X138414285Y-74353009D02*
X138461904Y-74257771D01*
X138461904Y-74257771D02*
X138557142Y-74210152D01*
X138557142Y-74210152D02*
X138699999Y-74210152D01*
X138699999Y-74210152D02*
X138795237Y-74257771D01*
X139128571Y-74210152D02*
X139509523Y-74210152D01*
X139271428Y-73876819D02*
X139271428Y-74733961D01*
X139271428Y-74733961D02*
X139319047Y-74829200D01*
X139319047Y-74829200D02*
X139414285Y-74876819D01*
X139414285Y-74876819D02*
X139509523Y-74876819D01*
X140271428Y-74876819D02*
X140271428Y-74353009D01*
X140271428Y-74353009D02*
X140223809Y-74257771D01*
X140223809Y-74257771D02*
X140128571Y-74210152D01*
X140128571Y-74210152D02*
X139938095Y-74210152D01*
X139938095Y-74210152D02*
X139842857Y-74257771D01*
X140271428Y-74829200D02*
X140176190Y-74876819D01*
X140176190Y-74876819D02*
X139938095Y-74876819D01*
X139938095Y-74876819D02*
X139842857Y-74829200D01*
X139842857Y-74829200D02*
X139795238Y-74733961D01*
X139795238Y-74733961D02*
X139795238Y-74638723D01*
X139795238Y-74638723D02*
X139842857Y-74543485D01*
X139842857Y-74543485D02*
X139938095Y-74495866D01*
X139938095Y-74495866D02*
X140176190Y-74495866D01*
X140176190Y-74495866D02*
X140271428Y-74448247D01*
X140747619Y-74876819D02*
X140747619Y-73876819D01*
X140747619Y-74257771D02*
X140842857Y-74210152D01*
X140842857Y-74210152D02*
X141033333Y-74210152D01*
X141033333Y-74210152D02*
X141128571Y-74257771D01*
X141128571Y-74257771D02*
X141176190Y-74305390D01*
X141176190Y-74305390D02*
X141223809Y-74400628D01*
X141223809Y-74400628D02*
X141223809Y-74686342D01*
X141223809Y-74686342D02*
X141176190Y-74781580D01*
X141176190Y-74781580D02*
X141128571Y-74829200D01*
X141128571Y-74829200D02*
X141033333Y-74876819D01*
X141033333Y-74876819D02*
X140842857Y-74876819D01*
X140842857Y-74876819D02*
X140747619Y-74829200D01*
X141414286Y-74972057D02*
X142176190Y-74972057D01*
X142319048Y-73876819D02*
X142938095Y-73876819D01*
X142938095Y-73876819D02*
X142604762Y-74257771D01*
X142604762Y-74257771D02*
X142747619Y-74257771D01*
X142747619Y-74257771D02*
X142842857Y-74305390D01*
X142842857Y-74305390D02*
X142890476Y-74353009D01*
X142890476Y-74353009D02*
X142938095Y-74448247D01*
X142938095Y-74448247D02*
X142938095Y-74686342D01*
X142938095Y-74686342D02*
X142890476Y-74781580D01*
X142890476Y-74781580D02*
X142842857Y-74829200D01*
X142842857Y-74829200D02*
X142747619Y-74876819D01*
X142747619Y-74876819D02*
X142461905Y-74876819D01*
X142461905Y-74876819D02*
X142366667Y-74829200D01*
X142366667Y-74829200D02*
X142319048Y-74781580D01*
X143795238Y-74210152D02*
X143795238Y-74876819D01*
X143366667Y-74210152D02*
X143366667Y-74733961D01*
X143366667Y-74733961D02*
X143414286Y-74829200D01*
X143414286Y-74829200D02*
X143509524Y-74876819D01*
X143509524Y-74876819D02*
X143652381Y-74876819D01*
X143652381Y-74876819D02*
X143747619Y-74829200D01*
X143747619Y-74829200D02*
X143795238Y-74781580D01*
X107029761Y-74876819D02*
X107029761Y-73876819D01*
X107029761Y-73876819D02*
X107363094Y-74591104D01*
X107363094Y-74591104D02*
X107696427Y-73876819D01*
X107696427Y-73876819D02*
X107696427Y-74876819D01*
X108077380Y-73876819D02*
X108744046Y-74876819D01*
X108744046Y-73876819D02*
X108077380Y-74876819D01*
X108886904Y-74972057D02*
X109648808Y-74972057D01*
X109839285Y-74829200D02*
X109934523Y-74876819D01*
X109934523Y-74876819D02*
X110124999Y-74876819D01*
X110124999Y-74876819D02*
X110220237Y-74829200D01*
X110220237Y-74829200D02*
X110267856Y-74733961D01*
X110267856Y-74733961D02*
X110267856Y-74686342D01*
X110267856Y-74686342D02*
X110220237Y-74591104D01*
X110220237Y-74591104D02*
X110124999Y-74543485D01*
X110124999Y-74543485D02*
X109982142Y-74543485D01*
X109982142Y-74543485D02*
X109886904Y-74495866D01*
X109886904Y-74495866D02*
X109839285Y-74400628D01*
X109839285Y-74400628D02*
X109839285Y-74353009D01*
X109839285Y-74353009D02*
X109886904Y-74257771D01*
X109886904Y-74257771D02*
X109982142Y-74210152D01*
X109982142Y-74210152D02*
X110124999Y-74210152D01*
X110124999Y-74210152D02*
X110220237Y-74257771D01*
X110553571Y-74210152D02*
X110934523Y-74210152D01*
X110696428Y-73876819D02*
X110696428Y-74733961D01*
X110696428Y-74733961D02*
X110744047Y-74829200D01*
X110744047Y-74829200D02*
X110839285Y-74876819D01*
X110839285Y-74876819D02*
X110934523Y-74876819D01*
X111696428Y-74876819D02*
X111696428Y-74353009D01*
X111696428Y-74353009D02*
X111648809Y-74257771D01*
X111648809Y-74257771D02*
X111553571Y-74210152D01*
X111553571Y-74210152D02*
X111363095Y-74210152D01*
X111363095Y-74210152D02*
X111267857Y-74257771D01*
X111696428Y-74829200D02*
X111601190Y-74876819D01*
X111601190Y-74876819D02*
X111363095Y-74876819D01*
X111363095Y-74876819D02*
X111267857Y-74829200D01*
X111267857Y-74829200D02*
X111220238Y-74733961D01*
X111220238Y-74733961D02*
X111220238Y-74638723D01*
X111220238Y-74638723D02*
X111267857Y-74543485D01*
X111267857Y-74543485D02*
X111363095Y-74495866D01*
X111363095Y-74495866D02*
X111601190Y-74495866D01*
X111601190Y-74495866D02*
X111696428Y-74448247D01*
X112172619Y-74876819D02*
X112172619Y-73876819D01*
X112172619Y-74257771D02*
X112267857Y-74210152D01*
X112267857Y-74210152D02*
X112458333Y-74210152D01*
X112458333Y-74210152D02*
X112553571Y-74257771D01*
X112553571Y-74257771D02*
X112601190Y-74305390D01*
X112601190Y-74305390D02*
X112648809Y-74400628D01*
X112648809Y-74400628D02*
X112648809Y-74686342D01*
X112648809Y-74686342D02*
X112601190Y-74781580D01*
X112601190Y-74781580D02*
X112553571Y-74829200D01*
X112553571Y-74829200D02*
X112458333Y-74876819D01*
X112458333Y-74876819D02*
X112267857Y-74876819D01*
X112267857Y-74876819D02*
X112172619Y-74829200D01*
X112839286Y-74972057D02*
X113601190Y-74972057D01*
X113791667Y-73972057D02*
X113839286Y-73924438D01*
X113839286Y-73924438D02*
X113934524Y-73876819D01*
X113934524Y-73876819D02*
X114172619Y-73876819D01*
X114172619Y-73876819D02*
X114267857Y-73924438D01*
X114267857Y-73924438D02*
X114315476Y-73972057D01*
X114315476Y-73972057D02*
X114363095Y-74067295D01*
X114363095Y-74067295D02*
X114363095Y-74162533D01*
X114363095Y-74162533D02*
X114315476Y-74305390D01*
X114315476Y-74305390D02*
X113744048Y-74876819D01*
X113744048Y-74876819D02*
X114363095Y-74876819D01*
X115220238Y-74210152D02*
X115220238Y-74876819D01*
X114791667Y-74210152D02*
X114791667Y-74733961D01*
X114791667Y-74733961D02*
X114839286Y-74829200D01*
X114839286Y-74829200D02*
X114934524Y-74876819D01*
X114934524Y-74876819D02*
X115077381Y-74876819D01*
X115077381Y-74876819D02*
X115172619Y-74829200D01*
X115172619Y-74829200D02*
X115220238Y-74781580D01*
X154654761Y-74876819D02*
X154654761Y-73876819D01*
X154654761Y-73876819D02*
X154988094Y-74591104D01*
X154988094Y-74591104D02*
X155321427Y-73876819D01*
X155321427Y-73876819D02*
X155321427Y-74876819D01*
X155702380Y-73876819D02*
X156369046Y-74876819D01*
X156369046Y-73876819D02*
X155702380Y-74876819D01*
X156511904Y-74972057D02*
X157273808Y-74972057D01*
X157464285Y-74829200D02*
X157559523Y-74876819D01*
X157559523Y-74876819D02*
X157749999Y-74876819D01*
X157749999Y-74876819D02*
X157845237Y-74829200D01*
X157845237Y-74829200D02*
X157892856Y-74733961D01*
X157892856Y-74733961D02*
X157892856Y-74686342D01*
X157892856Y-74686342D02*
X157845237Y-74591104D01*
X157845237Y-74591104D02*
X157749999Y-74543485D01*
X157749999Y-74543485D02*
X157607142Y-74543485D01*
X157607142Y-74543485D02*
X157511904Y-74495866D01*
X157511904Y-74495866D02*
X157464285Y-74400628D01*
X157464285Y-74400628D02*
X157464285Y-74353009D01*
X157464285Y-74353009D02*
X157511904Y-74257771D01*
X157511904Y-74257771D02*
X157607142Y-74210152D01*
X157607142Y-74210152D02*
X157749999Y-74210152D01*
X157749999Y-74210152D02*
X157845237Y-74257771D01*
X158178571Y-74210152D02*
X158559523Y-74210152D01*
X158321428Y-73876819D02*
X158321428Y-74733961D01*
X158321428Y-74733961D02*
X158369047Y-74829200D01*
X158369047Y-74829200D02*
X158464285Y-74876819D01*
X158464285Y-74876819D02*
X158559523Y-74876819D01*
X159321428Y-74876819D02*
X159321428Y-74353009D01*
X159321428Y-74353009D02*
X159273809Y-74257771D01*
X159273809Y-74257771D02*
X159178571Y-74210152D01*
X159178571Y-74210152D02*
X158988095Y-74210152D01*
X158988095Y-74210152D02*
X158892857Y-74257771D01*
X159321428Y-74829200D02*
X159226190Y-74876819D01*
X159226190Y-74876819D02*
X158988095Y-74876819D01*
X158988095Y-74876819D02*
X158892857Y-74829200D01*
X158892857Y-74829200D02*
X158845238Y-74733961D01*
X158845238Y-74733961D02*
X158845238Y-74638723D01*
X158845238Y-74638723D02*
X158892857Y-74543485D01*
X158892857Y-74543485D02*
X158988095Y-74495866D01*
X158988095Y-74495866D02*
X159226190Y-74495866D01*
X159226190Y-74495866D02*
X159321428Y-74448247D01*
X159797619Y-74876819D02*
X159797619Y-73876819D01*
X159797619Y-74257771D02*
X159892857Y-74210152D01*
X159892857Y-74210152D02*
X160083333Y-74210152D01*
X160083333Y-74210152D02*
X160178571Y-74257771D01*
X160178571Y-74257771D02*
X160226190Y-74305390D01*
X160226190Y-74305390D02*
X160273809Y-74400628D01*
X160273809Y-74400628D02*
X160273809Y-74686342D01*
X160273809Y-74686342D02*
X160226190Y-74781580D01*
X160226190Y-74781580D02*
X160178571Y-74829200D01*
X160178571Y-74829200D02*
X160083333Y-74876819D01*
X160083333Y-74876819D02*
X159892857Y-74876819D01*
X159892857Y-74876819D02*
X159797619Y-74829200D01*
X160464286Y-74972057D02*
X161226190Y-74972057D01*
X161369048Y-73876819D02*
X161988095Y-73876819D01*
X161988095Y-73876819D02*
X161654762Y-74257771D01*
X161654762Y-74257771D02*
X161797619Y-74257771D01*
X161797619Y-74257771D02*
X161892857Y-74305390D01*
X161892857Y-74305390D02*
X161940476Y-74353009D01*
X161940476Y-74353009D02*
X161988095Y-74448247D01*
X161988095Y-74448247D02*
X161988095Y-74686342D01*
X161988095Y-74686342D02*
X161940476Y-74781580D01*
X161940476Y-74781580D02*
X161892857Y-74829200D01*
X161892857Y-74829200D02*
X161797619Y-74876819D01*
X161797619Y-74876819D02*
X161511905Y-74876819D01*
X161511905Y-74876819D02*
X161416667Y-74829200D01*
X161416667Y-74829200D02*
X161369048Y-74781580D01*
X162845238Y-74210152D02*
X162845238Y-74876819D01*
X162416667Y-74210152D02*
X162416667Y-74733961D01*
X162416667Y-74733961D02*
X162464286Y-74829200D01*
X162464286Y-74829200D02*
X162559524Y-74876819D01*
X162559524Y-74876819D02*
X162702381Y-74876819D01*
X162702381Y-74876819D02*
X162797619Y-74829200D01*
X162797619Y-74829200D02*
X162845238Y-74781580D01*
M02*
