G04 #@! TF.GenerationSoftware,KiCad,Pcbnew,8.0.3-1.fc39*
G04 #@! TF.CreationDate,2024-06-26T19:17:31-04:00*
G04 #@! TF.ProjectId,Q9-Chimera,51392d43-6869-46d6-9572-612e6b696361,rev?*
G04 #@! TF.SameCoordinates,Original*
G04 #@! TF.FileFunction,Other,User*
%FSLAX46Y46*%
G04 Gerber Fmt 4.6, Leading zero omitted, Abs format (unit mm)*
G04 Created by KiCad (PCBNEW 8.0.3-1.fc39) date 2024-06-26 19:17:31*
%MOMM*%
%LPD*%
G01*
G04 APERTURE LIST*
%ADD10C,0.050000*%
G04 APERTURE END LIST*
D10*
G04 #@! TO.C,SW2*
X308812500Y-58212500D02*
X308812500Y-40712500D01*
X308812500Y-58212500D02*
X323012500Y-58212500D01*
X323012500Y-40712500D02*
X308812500Y-40712500D01*
X323012500Y-40712500D02*
X323012500Y-58212500D01*
G04 #@! TO.C,SW1*
X308812500Y-34400000D02*
X308812500Y-16900000D01*
X308812500Y-34400000D02*
X323012500Y-34400000D01*
X323012500Y-16900000D02*
X308812500Y-16900000D01*
X323012500Y-16900000D02*
X323012500Y-34400000D01*
G04 #@! TO.C,MX9*
X170800000Y-32400000D02*
X184800000Y-32400000D01*
X184800000Y-18400000D01*
X170800000Y-18400000D01*
X170800000Y-32400000D01*
G04 #@! TO.C,MX20*
X75550000Y-51450000D02*
X89550000Y-51450000D01*
X89550000Y-37450000D01*
X75550000Y-37450000D01*
X75550000Y-51450000D01*
G04 #@! TO.C,MX90*
X225568568Y-70500000D02*
X239568568Y-70500000D01*
X239568568Y-56500000D01*
X225568568Y-56500000D01*
X225568568Y-70500000D01*
G04 #@! TO.C,MX49*
X51450000Y-89550000D02*
X37450000Y-89550000D01*
X37450000Y-75550000D01*
X51450000Y-75550000D01*
X51450000Y-89550000D01*
G04 #@! TO.C,MX36*
X89550000Y-70500000D02*
X75550000Y-70500000D01*
X75550000Y-56500000D01*
X89550000Y-56500000D01*
X89550000Y-70500000D01*
G04 #@! TO.C,MX16*
X308912500Y-32400000D02*
X322912500Y-32400000D01*
X322912500Y-18400000D01*
X308912500Y-18400000D01*
X308912500Y-32400000D01*
G04 #@! TO.C,MX5*
X94600000Y-32400000D02*
X108600000Y-32400000D01*
X108600000Y-18400000D01*
X94600000Y-18400000D01*
X94600000Y-32400000D01*
G04 #@! TO.C,MX37*
X108600000Y-70500000D02*
X94600000Y-70500000D01*
X94600000Y-56500000D01*
X108600000Y-56500000D01*
X108600000Y-70500000D01*
G04 #@! TO.C,MX82*
X70787448Y-70500000D02*
X84787448Y-70500000D01*
X84787448Y-56500000D01*
X70787448Y-56500000D01*
X70787448Y-70500000D01*
G04 #@! TO.C,MX44*
X241950000Y-70500000D02*
X227950000Y-70500000D01*
X227950000Y-56500000D01*
X241950000Y-56500000D01*
X241950000Y-70500000D01*
G04 #@! TO.C,MX30*
X266050000Y-51450000D02*
X280050000Y-51450000D01*
X280050000Y-37450000D01*
X266050000Y-37450000D01*
X266050000Y-51450000D01*
G04 #@! TO.C,MX52*
X94600000Y-89550000D02*
X108600000Y-89550000D01*
X108600000Y-75550000D01*
X94600000Y-75550000D01*
X94600000Y-89550000D01*
G04 #@! TO.C,MX50*
X70500000Y-89550000D02*
X56500000Y-89550000D01*
X56500000Y-75550000D01*
X70500000Y-75550000D01*
X70500000Y-89550000D01*
G04 #@! TO.C,MX83*
X89837432Y-70500000D02*
X103837432Y-70500000D01*
X103837432Y-56500000D01*
X89837432Y-56500000D01*
X89837432Y-70500000D01*
G04 #@! TO.C,MX74*
X132412408Y-51450000D02*
X118412408Y-51450000D01*
X118412408Y-37450000D01*
X132412408Y-37450000D01*
X132412408Y-51450000D01*
G04 #@! TO.C,MX47*
X285100000Y-70500000D02*
X299100000Y-70500000D01*
X299100000Y-56500000D01*
X285100000Y-56500000D01*
X285100000Y-70500000D01*
G04 #@! TO.C,MX73*
X113362424Y-51450000D02*
X99362424Y-51450000D01*
X99362424Y-37450000D01*
X113362424Y-37450000D01*
X113362424Y-51450000D01*
G04 #@! TO.C,MX1*
X18400000Y-32400000D02*
X32400000Y-32400000D01*
X32400000Y-18400000D01*
X18400000Y-18400000D01*
X18400000Y-32400000D01*
G04 #@! TO.C,MX65*
X304150000Y-89550000D02*
X318150000Y-89550000D01*
X318150000Y-75550000D01*
X304150000Y-75550000D01*
X304150000Y-89550000D01*
G04 #@! TO.C,MX84*
X108887416Y-70500000D02*
X122887416Y-70500000D01*
X122887416Y-56500000D01*
X108887416Y-56500000D01*
X108887416Y-70500000D01*
G04 #@! TO.C,MX28*
X241950000Y-51450000D02*
X227950000Y-51450000D01*
X227950000Y-37450000D01*
X241950000Y-37450000D01*
X241950000Y-51450000D01*
G04 #@! TO.C,MX67*
X270524792Y-75550000D02*
X256524792Y-75550000D01*
X256524792Y-89550000D01*
X270524792Y-89550000D01*
X270524792Y-75550000D01*
G04 #@! TO.C,MX71*
X75262456Y-51450000D02*
X61262456Y-51450000D01*
X61262456Y-37450000D01*
X75262456Y-37450000D01*
X75262456Y-51450000D01*
G04 #@! TO.C,MX80*
X39543736Y-70500000D02*
X25543736Y-70500000D01*
X25543736Y-56500000D01*
X39543736Y-56500000D01*
X39543736Y-70500000D01*
G04 #@! TO.C,MX19*
X56500000Y-51450000D02*
X70500000Y-51450000D01*
X70500000Y-37450000D01*
X56500000Y-37450000D01*
X56500000Y-51450000D01*
G04 #@! TO.C,MX51*
X89550000Y-89550000D02*
X75550000Y-89550000D01*
X75550000Y-75550000D01*
X89550000Y-75550000D01*
X89550000Y-89550000D01*
G04 #@! TO.C,MX69*
X34781240Y-51450000D02*
X20781240Y-51450000D01*
X20781240Y-37450000D01*
X34781240Y-37450000D01*
X34781240Y-51450000D01*
G04 #@! TO.C,MX35*
X70500000Y-70500000D02*
X56500000Y-70500000D01*
X56500000Y-56500000D01*
X70500000Y-56500000D01*
X70500000Y-70500000D01*
G04 #@! TO.C,MX31*
X285100000Y-51450000D02*
X299100000Y-51450000D01*
X299100000Y-37450000D01*
X285100000Y-37450000D01*
X285100000Y-51450000D01*
G04 #@! TO.C,MX10*
X189850000Y-32400000D02*
X203850000Y-32400000D01*
X203850000Y-18400000D01*
X189850000Y-18400000D01*
X189850000Y-32400000D01*
G04 #@! TO.C,MX12*
X241950000Y-32400000D02*
X227950000Y-32400000D01*
X227950000Y-18400000D01*
X241950000Y-18400000D01*
X241950000Y-32400000D01*
G04 #@! TO.C,MX77*
X189562360Y-51450000D02*
X175562360Y-51450000D01*
X175562360Y-37450000D01*
X189562360Y-37450000D01*
X189562360Y-51450000D01*
G04 #@! TO.C,MX23*
X132700000Y-51450000D02*
X146700000Y-51450000D01*
X146700000Y-37450000D01*
X132700000Y-37450000D01*
X132700000Y-51450000D01*
G04 #@! TO.C,MX17*
X18400000Y-51450000D02*
X32400000Y-51450000D01*
X32400000Y-37450000D01*
X18400000Y-37450000D01*
X18400000Y-51450000D01*
G04 #@! TO.C,MX24*
X151750000Y-51450000D02*
X165750000Y-51450000D01*
X165750000Y-37450000D01*
X151750000Y-37450000D01*
X151750000Y-51450000D01*
G04 #@! TO.C,MX75*
X151462392Y-51450000D02*
X137462392Y-51450000D01*
X137462392Y-37450000D01*
X151462392Y-37450000D01*
X151462392Y-51450000D01*
G04 #@! TO.C,MX81*
X65737464Y-70500000D02*
X51737464Y-70500000D01*
X51737464Y-56500000D01*
X65737464Y-56500000D01*
X65737464Y-70500000D01*
G04 #@! TO.C,MX85*
X127937400Y-70500000D02*
X141937400Y-70500000D01*
X141937400Y-56500000D01*
X127937400Y-56500000D01*
X127937400Y-70500000D01*
G04 #@! TO.C,MX27*
X222900000Y-51450000D02*
X208900000Y-51450000D01*
X208900000Y-37450000D01*
X222900000Y-37450000D01*
X222900000Y-51450000D01*
G04 #@! TO.C,MX26*
X189850000Y-51450000D02*
X203850000Y-51450000D01*
X203850000Y-37450000D01*
X189850000Y-37450000D01*
X189850000Y-51450000D01*
G04 #@! TO.C,MX13*
X247000000Y-32400000D02*
X261000000Y-32400000D01*
X261000000Y-18400000D01*
X247000000Y-18400000D01*
X247000000Y-32400000D01*
G04 #@! TO.C,MX53*
X118125000Y-75550000D02*
X104125000Y-75550000D01*
X104125000Y-89550000D01*
X118125000Y-89550000D01*
X118125000Y-75550000D01*
G04 #@! TO.C,MX62*
X247000000Y-89550000D02*
X261000000Y-89550000D01*
X261000000Y-75550000D01*
X247000000Y-75550000D01*
X247000000Y-89550000D01*
G04 #@! TO.C,MX78*
X208612344Y-51450000D02*
X194612344Y-51450000D01*
X194612344Y-37450000D01*
X208612344Y-37450000D01*
X208612344Y-51450000D01*
G04 #@! TO.C,MX4*
X75550000Y-32400000D02*
X89550000Y-32400000D01*
X89550000Y-18400000D01*
X75550000Y-18400000D01*
X75550000Y-32400000D01*
G04 #@! TO.C,MX61*
X227950000Y-89550000D02*
X241950000Y-89550000D01*
X241950000Y-75550000D01*
X227950000Y-75550000D01*
X227950000Y-89550000D01*
G04 #@! TO.C,MX41*
X184800000Y-70500000D02*
X170800000Y-70500000D01*
X170800000Y-56500000D01*
X184800000Y-56500000D01*
X184800000Y-70500000D01*
G04 #@! TO.C,MX15*
X285100000Y-32400000D02*
X299100000Y-32400000D01*
X299100000Y-18400000D01*
X285100000Y-18400000D01*
X285100000Y-32400000D01*
G04 #@! TO.C,MX57*
X170800000Y-89550000D02*
X184800000Y-89550000D01*
X184800000Y-75550000D01*
X170800000Y-75550000D01*
X170800000Y-89550000D01*
G04 #@! TO.C,MX39*
X146700000Y-70500000D02*
X132700000Y-70500000D01*
X132700000Y-56500000D01*
X146700000Y-56500000D01*
X146700000Y-70500000D01*
G04 #@! TO.C,MX68*
X232424824Y-32399992D02*
X218424824Y-32399992D01*
X218424824Y-18399992D01*
X232424824Y-18399992D01*
X232424824Y-32399992D01*
G04 #@! TO.C,MX66*
X156225000Y-75550000D02*
X142225000Y-75550000D01*
X142225000Y-89550000D01*
X156225000Y-89550000D01*
X156225000Y-75550000D01*
G04 #@! TO.C,MX14*
X266050000Y-32400000D02*
X280050000Y-32400000D01*
X280050000Y-18400000D01*
X266050000Y-18400000D01*
X266050000Y-32400000D01*
G04 #@! TO.C,MX88*
X185087352Y-70500000D02*
X199087352Y-70500000D01*
X199087352Y-56500000D01*
X185087352Y-56500000D01*
X185087352Y-70500000D01*
G04 #@! TO.C,MX40*
X165750000Y-70500000D02*
X151750000Y-70500000D01*
X151750000Y-56500000D01*
X165750000Y-56500000D01*
X165750000Y-70500000D01*
G04 #@! TO.C,MX11*
X222900000Y-32400000D02*
X208900000Y-32400000D01*
X208900000Y-18400000D01*
X222900000Y-18400000D01*
X222900000Y-32400000D01*
G04 #@! TO.C,MX89*
X204137336Y-70500000D02*
X218137336Y-70500000D01*
X218137336Y-56500000D01*
X204137336Y-56500000D01*
X204137336Y-70500000D01*
G04 #@! TO.C,MX48*
X32400000Y-89550000D02*
X18400000Y-89550000D01*
X18400000Y-75550000D01*
X32400000Y-75550000D01*
X32400000Y-89550000D01*
G04 #@! TO.C,MX54*
X113650000Y-89550000D02*
X127650000Y-89550000D01*
X127650000Y-75550000D01*
X113650000Y-75550000D01*
X113650000Y-89550000D01*
G04 #@! TO.C,MX70*
X56212472Y-51450000D02*
X42212472Y-51450000D01*
X42212472Y-37450000D01*
X56212472Y-37450000D01*
X56212472Y-51450000D01*
G04 #@! TO.C,MX21*
X94600000Y-51450000D02*
X108600000Y-51450000D01*
X108600000Y-37450000D01*
X94600000Y-37450000D01*
X94600000Y-51450000D01*
G04 #@! TO.C,MX59*
X208900000Y-89550000D02*
X222900000Y-89550000D01*
X222900000Y-75550000D01*
X208900000Y-75550000D01*
X208900000Y-89550000D01*
G04 #@! TO.C,MX25*
X170800000Y-51450000D02*
X184800000Y-51450000D01*
X184800000Y-37450000D01*
X170800000Y-37450000D01*
X170800000Y-51450000D01*
G04 #@! TO.C,MX32*
X308912500Y-56212500D02*
X322912500Y-56212500D01*
X322912500Y-42212500D01*
X308912500Y-42212500D01*
X308912500Y-56212500D01*
G04 #@! TO.C,MX43*
X222900000Y-70500000D02*
X208900000Y-70500000D01*
X208900000Y-56500000D01*
X222900000Y-56500000D01*
X222900000Y-70500000D01*
G04 #@! TO.C,MX86*
X146987384Y-70500000D02*
X160987384Y-70500000D01*
X160987384Y-56500000D01*
X146987384Y-56500000D01*
X146987384Y-70500000D01*
G04 #@! TO.C,MX22*
X113650000Y-51450000D02*
X127650000Y-51450000D01*
X127650000Y-37450000D01*
X113650000Y-37450000D01*
X113650000Y-51450000D01*
G04 #@! TO.C,MX46*
X280050000Y-70500000D02*
X266050000Y-70500000D01*
X266050000Y-56500000D01*
X280050000Y-56500000D01*
X280050000Y-70500000D01*
G04 #@! TO.C,MX56*
X151750000Y-89550000D02*
X165750000Y-89550000D01*
X165750000Y-75550000D01*
X151750000Y-75550000D01*
X151750000Y-89550000D01*
G04 #@! TO.C,MX72*
X94312440Y-51450000D02*
X80312440Y-51450000D01*
X80312440Y-37450000D01*
X94312440Y-37450000D01*
X94312440Y-51450000D01*
G04 #@! TO.C,MX29*
X247000000Y-51450000D02*
X261000000Y-51450000D01*
X261000000Y-37450000D01*
X247000000Y-37450000D01*
X247000000Y-51450000D01*
G04 #@! TO.C,MX42*
X203850000Y-70500000D02*
X189850000Y-70500000D01*
X189850000Y-56500000D01*
X203850000Y-56500000D01*
X203850000Y-70500000D01*
G04 #@! TO.C,MX33*
X18400000Y-70500000D02*
X32400000Y-70500000D01*
X32400000Y-56500000D01*
X18400000Y-56500000D01*
X18400000Y-70500000D01*
G04 #@! TO.C,MX34*
X37450000Y-70500000D02*
X51450000Y-70500000D01*
X51450000Y-56500000D01*
X37450000Y-56500000D01*
X37450000Y-70500000D01*
G04 #@! TO.C,MX87*
X166037368Y-70500000D02*
X180037368Y-70500000D01*
X180037368Y-56500000D01*
X166037368Y-56500000D01*
X166037368Y-70500000D01*
G04 #@! TO.C,MX45*
X261000000Y-70500000D02*
X247000000Y-70500000D01*
X247000000Y-56500000D01*
X261000000Y-56500000D01*
X261000000Y-70500000D01*
G04 #@! TO.C,MX64*
X285100000Y-89550000D02*
X299100000Y-89550000D01*
X299100000Y-75550000D01*
X285100000Y-75550000D01*
X285100000Y-89550000D01*
G04 #@! TO.C,MX18*
X37450000Y-51450000D02*
X51450000Y-51450000D01*
X51450000Y-37450000D01*
X37450000Y-37450000D01*
X37450000Y-51450000D01*
G04 #@! TO.C,MX63*
X266050000Y-89550000D02*
X280050000Y-89550000D01*
X280050000Y-75550000D01*
X266050000Y-75550000D01*
X266050000Y-89550000D01*
G04 #@! TO.C,MX60*
X232425000Y-75550000D02*
X218425000Y-75550000D01*
X218425000Y-89550000D01*
X232425000Y-89550000D01*
X232425000Y-75550000D01*
G04 #@! TO.C,MX76*
X170512376Y-51450000D02*
X156512376Y-51450000D01*
X156512376Y-37450000D01*
X170512376Y-37450000D01*
X170512376Y-51450000D01*
G04 #@! TO.C,MX2*
X37450000Y-32400000D02*
X51450000Y-32400000D01*
X51450000Y-18400000D01*
X37450000Y-18400000D01*
X37450000Y-32400000D01*
G04 #@! TO.C,MX58*
X189850000Y-89550000D02*
X203850000Y-89550000D01*
X203850000Y-75550000D01*
X189850000Y-75550000D01*
X189850000Y-89550000D01*
G04 #@! TO.C,MX6*
X113650000Y-32400000D02*
X127650000Y-32400000D01*
X127650000Y-18400000D01*
X113650000Y-18400000D01*
X113650000Y-32400000D01*
G04 #@! TO.C,MX8*
X151750000Y-32400000D02*
X165750000Y-32400000D01*
X165750000Y-18400000D01*
X151750000Y-18400000D01*
X151750000Y-32400000D01*
G04 #@! TO.C,MX38*
X127650000Y-70500000D02*
X113650000Y-70500000D01*
X113650000Y-56500000D01*
X127650000Y-56500000D01*
X127650000Y-70500000D01*
G04 #@! TO.C,MX79*
X234806072Y-51450000D02*
X220806072Y-51450000D01*
X220806072Y-37450000D01*
X234806072Y-37450000D01*
X234806072Y-51450000D01*
G04 #@! TO.C,MX7*
X132700000Y-32400000D02*
X146700000Y-32400000D01*
X146700000Y-18400000D01*
X132700000Y-18400000D01*
X132700000Y-32400000D01*
G04 #@! TO.C,MX3*
X56500000Y-32400000D02*
X70500000Y-32400000D01*
X70500000Y-18400000D01*
X56500000Y-18400000D01*
X56500000Y-32400000D01*
G04 #@! TO.C,MX55*
X132700000Y-89550000D02*
X146700000Y-89550000D01*
X146700000Y-75550000D01*
X132700000Y-75550000D01*
X132700000Y-89550000D01*
G04 #@! TD*
M02*
