G04 #@! TF.GenerationSoftware,KiCad,Pcbnew,8.0.3-1.fc39*
G04 #@! TF.CreationDate,2024-06-26T19:17:31-04:00*
G04 #@! TF.ProjectId,Q9-Chimera,51392d43-6869-46d6-9572-612e6b696361,rev?*
G04 #@! TF.SameCoordinates,Original*
G04 #@! TF.FileFunction,Other,ECO2*
%FSLAX46Y46*%
G04 Gerber Fmt 4.6, Leading zero omitted, Abs format (unit mm)*
G04 Created by KiCad (PCBNEW 8.0.3-1.fc39) date 2024-06-26 19:17:31*
%MOMM*%
%LPD*%
G01*
G04 APERTURE LIST*
%ADD10C,0.050000*%
G04 APERTURE END LIST*
D10*
G04 #@! TO.C,S2*
X133944961Y-88049999D02*
X133943750Y-75049999D01*
X140193750Y-74549999D02*
X134443750Y-74549999D01*
X140193750Y-88549999D02*
X134444961Y-88549999D01*
X140693750Y-88049999D02*
X140693750Y-75049999D01*
X157756250Y-88049999D02*
X157756250Y-75049999D01*
X164006250Y-74549999D02*
X158256250Y-74549999D01*
X164006250Y-88549999D02*
X158256250Y-88549999D01*
X164506250Y-88049999D02*
X164506250Y-75049999D01*
X133943750Y-75049999D02*
G75*
G02*
X134443750Y-74549950I500050J-1D01*
G01*
X134444961Y-88549999D02*
G75*
G02*
X133945001Y-88049999I39J499999D01*
G01*
X140193750Y-74549999D02*
G75*
G02*
X140693701Y-75049999I-50J-500001D01*
G01*
X140693750Y-88049999D02*
G75*
G02*
X140193750Y-88550000I-499960J-41D01*
G01*
X157756250Y-75049999D02*
G75*
G02*
X158256250Y-74549999I500001J-1D01*
G01*
X158256250Y-88549999D02*
G75*
G02*
X157756250Y-88049999I1J500001D01*
G01*
X164006250Y-74549999D02*
G75*
G02*
X164506250Y-75049999I-1J-500001D01*
G01*
X164506250Y-88049999D02*
G75*
G02*
X164006250Y-88549999I-500001J1D01*
G01*
G04 #@! TO.C,S5*
X79176211Y-88049999D02*
X79175000Y-75049999D01*
X85425000Y-74549999D02*
X79675000Y-74549999D01*
X85425000Y-88549999D02*
X79676211Y-88549999D01*
X85925000Y-88049999D02*
X85925000Y-75049999D01*
X117275000Y-88049999D02*
X117275000Y-75049999D01*
X123525000Y-74549999D02*
X117775000Y-74549999D01*
X123525000Y-88549999D02*
X117775000Y-88549999D01*
X124025000Y-88049999D02*
X124025000Y-75049999D01*
X79175000Y-75049999D02*
G75*
G02*
X79675000Y-74550000I500000J-1D01*
G01*
X79676211Y-88549999D02*
G75*
G02*
X79176201Y-88049999I-11J499999D01*
G01*
X85425000Y-74549999D02*
G75*
G02*
X85925001Y-75049999I0J-500001D01*
G01*
X85925000Y-88049999D02*
G75*
G02*
X85425000Y-88550000I-500000J-1D01*
G01*
X117275000Y-75049999D02*
G75*
G02*
X117775000Y-74549999I500001J-1D01*
G01*
X117775000Y-88549999D02*
G75*
G02*
X117275000Y-88049999I1J500001D01*
G01*
X123525000Y-74549999D02*
G75*
G02*
X124025000Y-75049999I-1J-500001D01*
G01*
X124025000Y-88049999D02*
G75*
G02*
X123525000Y-88549999I-500001J1D01*
G01*
G04 #@! TO.C,S3*
X210144961Y-88049999D02*
X210143750Y-75049999D01*
X216393750Y-74549999D02*
X210643750Y-74549999D01*
X216393750Y-88549999D02*
X210644961Y-88549999D01*
X216893750Y-88049999D02*
X216893750Y-75049999D01*
X233956250Y-88049999D02*
X233956250Y-75049999D01*
X240206250Y-74549999D02*
X234456250Y-74549999D01*
X240206250Y-88549999D02*
X234456250Y-88549999D01*
X240706250Y-88049999D02*
X240706250Y-75049999D01*
X210143750Y-75049999D02*
G75*
G02*
X210643750Y-74549950I500050J-1D01*
G01*
X210644961Y-88549999D02*
G75*
G02*
X210145001Y-88049999I39J499999D01*
G01*
X216393750Y-74549999D02*
G75*
G02*
X216893701Y-75049999I-50J-500001D01*
G01*
X216893750Y-88049999D02*
G75*
G02*
X216393750Y-88550000I-499960J-41D01*
G01*
X233956250Y-75049999D02*
G75*
G02*
X234456250Y-74549999I500001J-1D01*
G01*
X234456250Y-88549999D02*
G75*
G02*
X233956250Y-88049999I1J500001D01*
G01*
X240206250Y-74549999D02*
G75*
G02*
X240706250Y-75049999I-1J-500001D01*
G01*
X240706250Y-88049999D02*
G75*
G02*
X240206250Y-88549999I-500001J1D01*
G01*
G04 #@! TO.C,S7*
X210143574Y-19899993D02*
X210143574Y-32899993D01*
X210643574Y-19399993D02*
X216393574Y-19399993D01*
X210643574Y-33399993D02*
X216393574Y-33399993D01*
X216893574Y-19899993D02*
X216893574Y-32899993D01*
X233956074Y-19899993D02*
X233956074Y-32899993D01*
X234456074Y-19399993D02*
X240204863Y-19399993D01*
X234456074Y-33399993D02*
X240206074Y-33399993D01*
X240704863Y-19899993D02*
X240706074Y-32899993D01*
X210143574Y-19899993D02*
G75*
G02*
X210643574Y-19399993I500001J-1D01*
G01*
X210643574Y-33399993D02*
G75*
G02*
X210143574Y-32899993I1J500001D01*
G01*
X216393574Y-19399993D02*
G75*
G02*
X216893574Y-19899993I-1J-500001D01*
G01*
X216893574Y-32899993D02*
G75*
G02*
X216393574Y-33399993I-500001J1D01*
G01*
X233956074Y-19899993D02*
G75*
G02*
X234456074Y-19399992I499960J41D01*
G01*
X234456074Y-33399993D02*
G75*
G02*
X233956123Y-32899993I50J500001D01*
G01*
X240204863Y-19399993D02*
G75*
G02*
X240704823Y-19899993I-39J-499999D01*
G01*
X240706074Y-32899993D02*
G75*
G02*
X240206074Y-33400042I-500050J1D01*
G01*
G04 #@! TO.C,S4*
X248244753Y-88049999D02*
X248243542Y-75049999D01*
X254493542Y-74549999D02*
X248743542Y-74549999D01*
X254493542Y-88549999D02*
X248744753Y-88549999D01*
X254993542Y-88049999D02*
X254993542Y-75049999D01*
X272056042Y-88049999D02*
X272056042Y-75049999D01*
X278306042Y-74549999D02*
X272556042Y-74549999D01*
X278306042Y-88549999D02*
X272556042Y-88549999D01*
X278806042Y-88049999D02*
X278806042Y-75049999D01*
X248243542Y-75049999D02*
G75*
G02*
X248743542Y-74549950I500050J-1D01*
G01*
X248744753Y-88549999D02*
G75*
G02*
X248244793Y-88049999I39J499999D01*
G01*
X254493542Y-74549999D02*
G75*
G02*
X254993493Y-75049999I-50J-500001D01*
G01*
X254993542Y-88049999D02*
G75*
G02*
X254493542Y-88550000I-499960J-41D01*
G01*
X272056042Y-75049999D02*
G75*
G02*
X272556042Y-74549999I500001J-1D01*
G01*
X272556042Y-88549999D02*
G75*
G02*
X272056042Y-88049999I1J500001D01*
G01*
X278306042Y-74549999D02*
G75*
G02*
X278806042Y-75049999I-1J-500001D01*
G01*
X278806042Y-88049999D02*
G75*
G02*
X278306042Y-88549999I-500001J1D01*
G01*
G04 #@! TO.C,S6*
X136326211Y-88049999D02*
X136325000Y-75049999D01*
X142575000Y-74549999D02*
X136825000Y-74549999D01*
X142575000Y-88549999D02*
X136826211Y-88549999D01*
X143075000Y-88049999D02*
X143075000Y-75049999D01*
X174425000Y-88049999D02*
X174425000Y-75049999D01*
X180675000Y-74549999D02*
X174925000Y-74549999D01*
X180675000Y-88549999D02*
X174925000Y-88549999D01*
X181175000Y-88049999D02*
X181175000Y-75049999D01*
X136325000Y-75049999D02*
G75*
G02*
X136825000Y-74550000I500000J-1D01*
G01*
X136826211Y-88549999D02*
G75*
G02*
X136326201Y-88049999I-11J499999D01*
G01*
X142575000Y-74549999D02*
G75*
G02*
X143075001Y-75049999I0J-500001D01*
G01*
X143075000Y-88049999D02*
G75*
G02*
X142575000Y-88550000I-500000J-1D01*
G01*
X174425000Y-75049999D02*
G75*
G02*
X174925000Y-74549999I500001J-1D01*
G01*
X174925000Y-88549999D02*
G75*
G02*
X174425000Y-88049999I1J500001D01*
G01*
X180675000Y-74549999D02*
G75*
G02*
X181175000Y-75049999I-1J-500001D01*
G01*
X181175000Y-88049999D02*
G75*
G02*
X180675000Y-88549999I-500001J1D01*
G01*
G04 #@! TO.C,S1*
X95844961Y-88049999D02*
X95843750Y-75049999D01*
X102093750Y-74549999D02*
X96343750Y-74549999D01*
X102093750Y-88549999D02*
X96344961Y-88549999D01*
X102593750Y-88049999D02*
X102593750Y-75049999D01*
X119656250Y-88049999D02*
X119656250Y-75049999D01*
X125906250Y-74549999D02*
X120156250Y-74549999D01*
X125906250Y-88549999D02*
X120156250Y-88549999D01*
X126406250Y-88049999D02*
X126406250Y-75049999D01*
X95843750Y-75049999D02*
G75*
G02*
X96343750Y-74549950I500050J-1D01*
G01*
X96344961Y-88549999D02*
G75*
G02*
X95845001Y-88049999I39J499999D01*
G01*
X102093750Y-74549999D02*
G75*
G02*
X102593701Y-75049999I-50J-500001D01*
G01*
X102593750Y-88049999D02*
G75*
G02*
X102093750Y-88550000I-499960J-41D01*
G01*
X119656250Y-75049999D02*
G75*
G02*
X120156250Y-74549999I500001J-1D01*
G01*
X120156250Y-88549999D02*
G75*
G02*
X119656250Y-88049999I1J500001D01*
G01*
X125906250Y-74549999D02*
G75*
G02*
X126406250Y-75049999I-1J-500001D01*
G01*
X126406250Y-88049999D02*
G75*
G02*
X125906250Y-88549999I-500001J1D01*
G01*
G04 #@! TO.C,MX9*
X170800000Y-18900000D02*
X170800000Y-31900000D01*
X171300000Y-32400000D02*
X184300000Y-32400000D01*
X184300000Y-18400000D02*
X171300000Y-18400000D01*
X184800000Y-31900000D02*
X184800000Y-18900000D01*
X170800000Y-18900000D02*
G75*
G02*
X171300000Y-18400000I500000J0D01*
G01*
X171300000Y-32400000D02*
G75*
G02*
X170800000Y-31900000I0J500000D01*
G01*
X184300000Y-18400000D02*
G75*
G02*
X184800000Y-18900000I-1J-500001D01*
G01*
X184797236Y-31898884D02*
G75*
G02*
X184297236Y-32398884I-500001J1D01*
G01*
G04 #@! TO.C,MX20*
X75550000Y-37950000D02*
X75550000Y-50950000D01*
X76050000Y-51450000D02*
X89050000Y-51450000D01*
X89050000Y-37450000D02*
X76050000Y-37450000D01*
X89550000Y-50950000D02*
X89550000Y-37950000D01*
X75550000Y-37950000D02*
G75*
G02*
X76050000Y-37450000I500000J0D01*
G01*
X76050000Y-51450000D02*
G75*
G02*
X75550000Y-50950000I0J500000D01*
G01*
X89050000Y-37450000D02*
G75*
G02*
X89550000Y-37950000I-1J-500001D01*
G01*
X89547236Y-50948884D02*
G75*
G02*
X89047236Y-51448884I-500001J1D01*
G01*
G04 #@! TO.C,MX90*
X225568568Y-57000000D02*
X225568568Y-70000000D01*
X226068568Y-70500000D02*
X239068568Y-70500000D01*
X239068568Y-56500000D02*
X226068568Y-56500000D01*
X239568568Y-70000000D02*
X239568568Y-57000000D01*
X225568568Y-57000000D02*
G75*
G02*
X226068568Y-56500000I500000J0D01*
G01*
X226068568Y-70500000D02*
G75*
G02*
X225568568Y-70000000I0J500000D01*
G01*
X239068568Y-56500000D02*
G75*
G02*
X239568568Y-57000000I-1J-500001D01*
G01*
X239565804Y-69998884D02*
G75*
G02*
X239065804Y-70498884I-500001J1D01*
G01*
G04 #@! TO.C,MX49*
X37450000Y-76049999D02*
X37450000Y-89050001D01*
X37949999Y-89550000D02*
X50950001Y-89550000D01*
X50950001Y-75550000D02*
X37949999Y-75550000D01*
X51450000Y-89050001D02*
X51450000Y-76049999D01*
X37450000Y-76049999D02*
G75*
G02*
X37949999Y-75550000I500000J-1D01*
G01*
X37949999Y-89550000D02*
G75*
G02*
X37450000Y-89050001I1J500000D01*
G01*
X50950001Y-75550000D02*
G75*
G02*
X51450000Y-76049999I-2J-500001D01*
G01*
X51447236Y-89048884D02*
G75*
G02*
X50947236Y-89548884I-500001J1D01*
G01*
G04 #@! TO.C,MX36*
X75550000Y-56999999D02*
X75550000Y-70000001D01*
X76049999Y-70500000D02*
X89050001Y-70500000D01*
X89050001Y-56500000D02*
X76049999Y-56500000D01*
X89550000Y-70000001D02*
X89550000Y-56999999D01*
X75552764Y-57001116D02*
G75*
G02*
X76052764Y-56501116I500001J-1D01*
G01*
X76049999Y-70500000D02*
G75*
G02*
X75550000Y-70000001I2J500001D01*
G01*
X89050001Y-56500000D02*
G75*
G02*
X89550000Y-56999999I-1J-500000D01*
G01*
X89550000Y-70000001D02*
G75*
G02*
X89050001Y-70500000I-500000J1D01*
G01*
G04 #@! TO.C,MX16*
X308912500Y-18900000D02*
X308912500Y-31900000D01*
X309412500Y-32400000D02*
X322412500Y-32400000D01*
X322412500Y-18400000D02*
X309412500Y-18400000D01*
X322912500Y-31900000D02*
X322912500Y-18900000D01*
X308912500Y-18900000D02*
G75*
G02*
X309412500Y-18400000I500000J0D01*
G01*
X309412500Y-32400000D02*
G75*
G02*
X308912500Y-31900000I0J500000D01*
G01*
X322412500Y-18400000D02*
G75*
G02*
X322912500Y-18900000I-1J-500001D01*
G01*
X322909736Y-31898884D02*
G75*
G02*
X322409736Y-32398884I-500001J1D01*
G01*
G04 #@! TO.C,MX5*
X94600000Y-18900000D02*
X94600000Y-31900000D01*
X95100000Y-32400000D02*
X108100000Y-32400000D01*
X108100000Y-18400000D02*
X95100000Y-18400000D01*
X108600000Y-31900000D02*
X108600000Y-18900000D01*
X94600000Y-18900000D02*
G75*
G02*
X95100000Y-18400000I500000J0D01*
G01*
X95100000Y-32400000D02*
G75*
G02*
X94600000Y-31900000I0J500000D01*
G01*
X108100000Y-18400000D02*
G75*
G02*
X108600000Y-18900000I-1J-500001D01*
G01*
X108597236Y-31898884D02*
G75*
G02*
X108097236Y-32398884I-500001J1D01*
G01*
G04 #@! TO.C,MX37*
X94600000Y-56999999D02*
X94600000Y-70000001D01*
X95099999Y-70500000D02*
X108100001Y-70500000D01*
X108100001Y-56500000D02*
X95099999Y-56500000D01*
X108600000Y-70000001D02*
X108600000Y-56999999D01*
X94602764Y-57001116D02*
G75*
G02*
X95102764Y-56501116I500001J-1D01*
G01*
X95099999Y-70500000D02*
G75*
G02*
X94600000Y-70000001I2J500001D01*
G01*
X108100001Y-56500000D02*
G75*
G02*
X108600000Y-56999999I-1J-500000D01*
G01*
X108600000Y-70000001D02*
G75*
G02*
X108100001Y-70500000I-500000J1D01*
G01*
G04 #@! TO.C,MX82*
X70787448Y-57000000D02*
X70787448Y-70000000D01*
X71287448Y-70500000D02*
X84287448Y-70500000D01*
X84287448Y-56500000D02*
X71287448Y-56500000D01*
X84787448Y-70000000D02*
X84787448Y-57000000D01*
X70787448Y-57000000D02*
G75*
G02*
X71287448Y-56500000I500000J0D01*
G01*
X71287448Y-70500000D02*
G75*
G02*
X70787448Y-70000000I0J500000D01*
G01*
X84287448Y-56500000D02*
G75*
G02*
X84787448Y-57000000I-1J-500001D01*
G01*
X84784684Y-69998884D02*
G75*
G02*
X84284684Y-70498884I-500001J1D01*
G01*
G04 #@! TO.C,MX44*
X227950000Y-56999999D02*
X227950000Y-70000001D01*
X228449999Y-70500000D02*
X241450001Y-70500000D01*
X241450001Y-56500000D02*
X228449999Y-56500000D01*
X241950000Y-70000001D02*
X241950000Y-56999999D01*
X227952764Y-57001116D02*
G75*
G02*
X228452764Y-56501116I500001J-1D01*
G01*
X228449999Y-70500000D02*
G75*
G02*
X227950000Y-70000001I2J500001D01*
G01*
X241450001Y-56500000D02*
G75*
G02*
X241950000Y-56999999I-1J-500000D01*
G01*
X241950000Y-70000001D02*
G75*
G02*
X241450001Y-70500000I-500000J1D01*
G01*
G04 #@! TO.C,MX30*
X266050000Y-37950000D02*
X266050000Y-50950000D01*
X266550000Y-51450000D02*
X279550000Y-51450000D01*
X279550000Y-37450000D02*
X266550000Y-37450000D01*
X280050000Y-50950000D02*
X280050000Y-37950000D01*
X266050000Y-37950000D02*
G75*
G02*
X266550000Y-37450000I500000J0D01*
G01*
X266550000Y-51450000D02*
G75*
G02*
X266050000Y-50950000I0J500000D01*
G01*
X279550000Y-37450000D02*
G75*
G02*
X280050000Y-37950000I-1J-500001D01*
G01*
X280047236Y-50948884D02*
G75*
G02*
X279547236Y-51448884I-500001J1D01*
G01*
G04 #@! TO.C,MX52*
X94600000Y-76050000D02*
X94600000Y-89050000D01*
X95100000Y-89550000D02*
X108100000Y-89550000D01*
X108100000Y-75550000D02*
X95100000Y-75550000D01*
X108600000Y-89050000D02*
X108600000Y-76050000D01*
X94600000Y-76050000D02*
G75*
G02*
X95100000Y-75550000I500000J0D01*
G01*
X95100000Y-89550000D02*
G75*
G02*
X94600000Y-89050000I0J500000D01*
G01*
X108100000Y-75550000D02*
G75*
G02*
X108600000Y-76050000I-1J-500001D01*
G01*
X108597236Y-89048884D02*
G75*
G02*
X108097236Y-89548884I-500001J1D01*
G01*
G04 #@! TO.C,MX50*
X56500000Y-76049999D02*
X56500000Y-89050001D01*
X56999999Y-89550000D02*
X70000001Y-89550000D01*
X70000001Y-75550000D02*
X56999999Y-75550000D01*
X70500000Y-89050001D02*
X70500000Y-76049999D01*
X56500000Y-76049999D02*
G75*
G02*
X56999999Y-75550000I500000J-1D01*
G01*
X56999999Y-89550000D02*
G75*
G02*
X56500000Y-89050001I1J500000D01*
G01*
X70000001Y-75550000D02*
G75*
G02*
X70500000Y-76049999I-2J-500001D01*
G01*
X70497236Y-89048884D02*
G75*
G02*
X69997236Y-89548884I-500001J1D01*
G01*
G04 #@! TO.C,MX83*
X89837432Y-57000000D02*
X89837432Y-70000000D01*
X90337432Y-70500000D02*
X103337432Y-70500000D01*
X103337432Y-56500000D02*
X90337432Y-56500000D01*
X103837432Y-70000000D02*
X103837432Y-57000000D01*
X89837432Y-57000000D02*
G75*
G02*
X90337432Y-56500000I500000J0D01*
G01*
X90337432Y-70500000D02*
G75*
G02*
X89837432Y-70000000I0J500000D01*
G01*
X103337432Y-56500000D02*
G75*
G02*
X103837432Y-57000000I-1J-500001D01*
G01*
X103834668Y-69998884D02*
G75*
G02*
X103334668Y-70498884I-500001J1D01*
G01*
G04 #@! TO.C,MX74*
X118412408Y-37949999D02*
X118412408Y-50950001D01*
X118912407Y-51450000D02*
X131912409Y-51450000D01*
X131912409Y-37450000D02*
X118912407Y-37450000D01*
X132412408Y-50950001D02*
X132412408Y-37949999D01*
X118415172Y-37951116D02*
G75*
G02*
X118915172Y-37451116I500001J-1D01*
G01*
X118912407Y-51450000D02*
G75*
G02*
X118412408Y-50950001I2J500001D01*
G01*
X131912409Y-37450000D02*
G75*
G02*
X132412408Y-37949999I-1J-500000D01*
G01*
X132412408Y-50950001D02*
G75*
G02*
X131912409Y-51450000I-500000J1D01*
G01*
G04 #@! TO.C,MX47*
X285100000Y-57000000D02*
X285100000Y-70000000D01*
X285600000Y-70500000D02*
X298600000Y-70500000D01*
X298600000Y-56500000D02*
X285600000Y-56500000D01*
X299100000Y-70000000D02*
X299100000Y-57000000D01*
X285100000Y-57000000D02*
G75*
G02*
X285600000Y-56500000I500000J0D01*
G01*
X285600000Y-70500000D02*
G75*
G02*
X285100000Y-70000000I0J500000D01*
G01*
X298600000Y-56500000D02*
G75*
G02*
X299100000Y-57000000I-1J-500001D01*
G01*
X299097236Y-69998884D02*
G75*
G02*
X298597236Y-70498884I-500001J1D01*
G01*
G04 #@! TO.C,MX73*
X99362424Y-37949999D02*
X99362424Y-50950001D01*
X99862423Y-51450000D02*
X112862425Y-51450000D01*
X112862425Y-37450000D02*
X99862423Y-37450000D01*
X113362424Y-50950001D02*
X113362424Y-37949999D01*
X99365188Y-37951116D02*
G75*
G02*
X99865188Y-37451116I500001J-1D01*
G01*
X99862423Y-51450000D02*
G75*
G02*
X99362424Y-50950001I2J500001D01*
G01*
X112862425Y-37450000D02*
G75*
G02*
X113362424Y-37949999I-1J-500000D01*
G01*
X113362424Y-50950001D02*
G75*
G02*
X112862425Y-51450000I-500000J1D01*
G01*
G04 #@! TO.C,MX1*
X18400000Y-18900000D02*
X18400000Y-31900000D01*
X18900000Y-32400000D02*
X31900000Y-32400000D01*
X31900000Y-18400000D02*
X18900000Y-18400000D01*
X32400000Y-31900000D02*
X32400000Y-18900000D01*
X18400000Y-18900000D02*
G75*
G02*
X18900000Y-18400000I500000J0D01*
G01*
X18900000Y-32400000D02*
G75*
G02*
X18400000Y-31900000I0J500000D01*
G01*
X31900000Y-18400000D02*
G75*
G02*
X32400000Y-18900000I-1J-500001D01*
G01*
X32397236Y-31898884D02*
G75*
G02*
X31897236Y-32398884I-500001J1D01*
G01*
G04 #@! TO.C,MX65*
X304150000Y-76050000D02*
X304150000Y-89050000D01*
X304650000Y-89550000D02*
X317650000Y-89550000D01*
X317650000Y-75550000D02*
X304650000Y-75550000D01*
X318150000Y-89050000D02*
X318150000Y-76050000D01*
X304150000Y-76050000D02*
G75*
G02*
X304650000Y-75550000I500000J0D01*
G01*
X304650000Y-89550000D02*
G75*
G02*
X304150000Y-89050000I0J500000D01*
G01*
X317650000Y-75550000D02*
G75*
G02*
X318150000Y-76050000I-1J-500001D01*
G01*
X318147236Y-89048884D02*
G75*
G02*
X317647236Y-89548884I-500001J1D01*
G01*
G04 #@! TO.C,MX84*
X108887416Y-57000000D02*
X108887416Y-70000000D01*
X109387416Y-70500000D02*
X122387416Y-70500000D01*
X122387416Y-56500000D02*
X109387416Y-56500000D01*
X122887416Y-70000000D02*
X122887416Y-57000000D01*
X108887416Y-57000000D02*
G75*
G02*
X109387416Y-56500000I500000J0D01*
G01*
X109387416Y-70500000D02*
G75*
G02*
X108887416Y-70000000I0J500000D01*
G01*
X122387416Y-56500000D02*
G75*
G02*
X122887416Y-57000000I-1J-500001D01*
G01*
X122884652Y-69998884D02*
G75*
G02*
X122384652Y-70498884I-500001J1D01*
G01*
G04 #@! TO.C,MX28*
X227950000Y-37949999D02*
X227950000Y-50950001D01*
X228449999Y-51450000D02*
X241450001Y-51450000D01*
X241450001Y-37450000D02*
X228449999Y-37450000D01*
X241950000Y-50950001D02*
X241950000Y-37949999D01*
X227952764Y-37951116D02*
G75*
G02*
X228452764Y-37451116I500001J-1D01*
G01*
X228449999Y-51450000D02*
G75*
G02*
X227950000Y-50950001I2J500001D01*
G01*
X241450001Y-37450000D02*
G75*
G02*
X241950000Y-37949999I-1J-500000D01*
G01*
X241950000Y-50950001D02*
G75*
G02*
X241450001Y-51450000I-500000J1D01*
G01*
G04 #@! TO.C,MX67*
X256524792Y-76050000D02*
X256524792Y-89050000D01*
X257024792Y-89550000D02*
X270024792Y-89550000D01*
X270024792Y-75550000D02*
X257024792Y-75550000D01*
X270524792Y-89050000D02*
X270524792Y-76050000D01*
X256527556Y-76051116D02*
G75*
G02*
X257027556Y-75551116I500001J-1D01*
G01*
X257024792Y-89550000D02*
G75*
G02*
X256524792Y-89050000I1J500001D01*
G01*
X270024792Y-75550000D02*
G75*
G02*
X270524792Y-76050000I0J-500000D01*
G01*
X270524792Y-89050000D02*
G75*
G02*
X270024792Y-89550000I-500000J0D01*
G01*
G04 #@! TO.C,MX71*
X61262456Y-37949999D02*
X61262456Y-50950001D01*
X61762455Y-51450000D02*
X74762457Y-51450000D01*
X74762457Y-37450000D02*
X61762455Y-37450000D01*
X75262456Y-50950001D02*
X75262456Y-37949999D01*
X61265220Y-37951116D02*
G75*
G02*
X61765220Y-37451116I500001J-1D01*
G01*
X61762455Y-51450000D02*
G75*
G02*
X61262456Y-50950001I2J500001D01*
G01*
X74762457Y-37450000D02*
G75*
G02*
X75262456Y-37949999I-1J-500000D01*
G01*
X75262456Y-50950001D02*
G75*
G02*
X74762457Y-51450000I-500000J1D01*
G01*
G04 #@! TO.C,MX80*
X25543736Y-56999999D02*
X25543736Y-70000001D01*
X26043735Y-70500000D02*
X39043737Y-70500000D01*
X39043737Y-56500000D02*
X26043735Y-56500000D01*
X39543736Y-70000001D02*
X39543736Y-56999999D01*
X25546500Y-57001116D02*
G75*
G02*
X26046500Y-56501116I500001J-1D01*
G01*
X26043735Y-70500000D02*
G75*
G02*
X25543736Y-70000001I2J500001D01*
G01*
X39043737Y-56500000D02*
G75*
G02*
X39543736Y-56999999I-1J-500000D01*
G01*
X39543736Y-70000001D02*
G75*
G02*
X39043737Y-70500000I-500000J1D01*
G01*
G04 #@! TO.C,MX19*
X56500000Y-37950000D02*
X56500000Y-50950000D01*
X57000000Y-51450000D02*
X70000000Y-51450000D01*
X70000000Y-37450000D02*
X57000000Y-37450000D01*
X70500000Y-50950000D02*
X70500000Y-37950000D01*
X56500000Y-37950000D02*
G75*
G02*
X57000000Y-37450000I500000J0D01*
G01*
X57000000Y-51450000D02*
G75*
G02*
X56500000Y-50950000I0J500000D01*
G01*
X70000000Y-37450000D02*
G75*
G02*
X70500000Y-37950000I-1J-500001D01*
G01*
X70497236Y-50948884D02*
G75*
G02*
X69997236Y-51448884I-500001J1D01*
G01*
G04 #@! TO.C,MX51*
X75550000Y-76049999D02*
X75550000Y-89050001D01*
X76049999Y-89550000D02*
X89050001Y-89550000D01*
X89050001Y-75550000D02*
X76049999Y-75550000D01*
X89550000Y-89050001D02*
X89550000Y-76049999D01*
X75550000Y-76049999D02*
G75*
G02*
X76049999Y-75550000I500000J-1D01*
G01*
X76049999Y-89550000D02*
G75*
G02*
X75550000Y-89050001I1J500000D01*
G01*
X89050001Y-75550000D02*
G75*
G02*
X89550000Y-76049999I-2J-500001D01*
G01*
X89547236Y-89048884D02*
G75*
G02*
X89047236Y-89548884I-500001J1D01*
G01*
G04 #@! TO.C,MX69*
X20781240Y-37949999D02*
X20781240Y-50950001D01*
X21281239Y-51450000D02*
X34281241Y-51450000D01*
X34281241Y-37450000D02*
X21281239Y-37450000D01*
X34781240Y-50950001D02*
X34781240Y-37949999D01*
X20784004Y-37951116D02*
G75*
G02*
X21284004Y-37451116I500001J-1D01*
G01*
X21281239Y-51450000D02*
G75*
G02*
X20781240Y-50950001I2J500001D01*
G01*
X34281241Y-37450000D02*
G75*
G02*
X34781240Y-37949999I-1J-500000D01*
G01*
X34781240Y-50950001D02*
G75*
G02*
X34281241Y-51450000I-500000J1D01*
G01*
G04 #@! TO.C,MX35*
X56500000Y-56999999D02*
X56500000Y-70000001D01*
X56999999Y-70500000D02*
X70000001Y-70500000D01*
X70000001Y-56500000D02*
X56999999Y-56500000D01*
X70500000Y-70000001D02*
X70500000Y-56999999D01*
X56502764Y-57001116D02*
G75*
G02*
X57002764Y-56501116I500001J-1D01*
G01*
X56999999Y-70500000D02*
G75*
G02*
X56500000Y-70000001I2J500001D01*
G01*
X70000001Y-56500000D02*
G75*
G02*
X70500000Y-56999999I-1J-500000D01*
G01*
X70500000Y-70000001D02*
G75*
G02*
X70000001Y-70500000I-500000J1D01*
G01*
G04 #@! TO.C,MX31*
X285100000Y-37950000D02*
X285100000Y-50950000D01*
X285600000Y-51450000D02*
X298600000Y-51450000D01*
X298600000Y-37450000D02*
X285600000Y-37450000D01*
X299100000Y-50950000D02*
X299100000Y-37950000D01*
X285100000Y-37950000D02*
G75*
G02*
X285600000Y-37450000I500000J0D01*
G01*
X285600000Y-51450000D02*
G75*
G02*
X285100000Y-50950000I0J500000D01*
G01*
X298600000Y-37450000D02*
G75*
G02*
X299100000Y-37950000I-1J-500001D01*
G01*
X299097236Y-50948884D02*
G75*
G02*
X298597236Y-51448884I-500001J1D01*
G01*
G04 #@! TO.C,MX10*
X189850000Y-18900000D02*
X189850000Y-31900000D01*
X190350000Y-32400000D02*
X203350000Y-32400000D01*
X203350000Y-18400000D02*
X190350000Y-18400000D01*
X203850000Y-31900000D02*
X203850000Y-18900000D01*
X189850000Y-18900000D02*
G75*
G02*
X190350000Y-18400000I500000J0D01*
G01*
X190350000Y-32400000D02*
G75*
G02*
X189850000Y-31900000I0J500000D01*
G01*
X203350000Y-18400000D02*
G75*
G02*
X203850000Y-18900000I-1J-500001D01*
G01*
X203847236Y-31898884D02*
G75*
G02*
X203347236Y-32398884I-500001J1D01*
G01*
G04 #@! TO.C,MX12*
X227950000Y-18899999D02*
X227950000Y-31900001D01*
X228449999Y-32400000D02*
X241450001Y-32400000D01*
X241450001Y-18400000D02*
X228449999Y-18400000D01*
X241950000Y-31900001D02*
X241950000Y-18899999D01*
X227952764Y-18901116D02*
G75*
G02*
X228452764Y-18401116I500001J-1D01*
G01*
X228449999Y-32400000D02*
G75*
G02*
X227950000Y-31900001I2J500001D01*
G01*
X241450001Y-18400000D02*
G75*
G02*
X241950000Y-18899999I-1J-500000D01*
G01*
X241950000Y-31900001D02*
G75*
G02*
X241450001Y-32400000I-500000J1D01*
G01*
G04 #@! TO.C,MX77*
X175562360Y-37949999D02*
X175562360Y-50950001D01*
X176062359Y-51450000D02*
X189062361Y-51450000D01*
X189062361Y-37450000D02*
X176062359Y-37450000D01*
X189562360Y-50950001D02*
X189562360Y-37949999D01*
X175565124Y-37951116D02*
G75*
G02*
X176065124Y-37451116I500001J-1D01*
G01*
X176062359Y-51450000D02*
G75*
G02*
X175562360Y-50950001I2J500001D01*
G01*
X189062361Y-37450000D02*
G75*
G02*
X189562360Y-37949999I-1J-500000D01*
G01*
X189562360Y-50950001D02*
G75*
G02*
X189062361Y-51450000I-500000J1D01*
G01*
G04 #@! TO.C,MX23*
X132700000Y-37950000D02*
X132700000Y-50950000D01*
X133200000Y-51450000D02*
X146200000Y-51450000D01*
X146200000Y-37450000D02*
X133200000Y-37450000D01*
X146700000Y-50950000D02*
X146700000Y-37950000D01*
X132700000Y-37950000D02*
G75*
G02*
X133200000Y-37450000I500000J0D01*
G01*
X133200000Y-51450000D02*
G75*
G02*
X132700000Y-50950000I0J500000D01*
G01*
X146200000Y-37450000D02*
G75*
G02*
X146700000Y-37950000I-1J-500001D01*
G01*
X146697236Y-50948884D02*
G75*
G02*
X146197236Y-51448884I-500001J1D01*
G01*
G04 #@! TO.C,MX17*
X18400000Y-37950000D02*
X18400000Y-50950000D01*
X18900000Y-51450000D02*
X31900000Y-51450000D01*
X31900000Y-37450000D02*
X18900000Y-37450000D01*
X32400000Y-50950000D02*
X32400000Y-37950000D01*
X18400000Y-37950000D02*
G75*
G02*
X18900000Y-37450000I500000J0D01*
G01*
X18900000Y-51450000D02*
G75*
G02*
X18400000Y-50950000I0J500000D01*
G01*
X31900000Y-37450000D02*
G75*
G02*
X32400000Y-37950000I-1J-500001D01*
G01*
X32397236Y-50948884D02*
G75*
G02*
X31897236Y-51448884I-500001J1D01*
G01*
G04 #@! TO.C,MX24*
X151750000Y-37950000D02*
X151750000Y-50950000D01*
X152250000Y-51450000D02*
X165250000Y-51450000D01*
X165250000Y-37450000D02*
X152250000Y-37450000D01*
X165750000Y-50950000D02*
X165750000Y-37950000D01*
X151750000Y-37950000D02*
G75*
G02*
X152250000Y-37450000I500000J0D01*
G01*
X152250000Y-51450000D02*
G75*
G02*
X151750000Y-50950000I0J500000D01*
G01*
X165250000Y-37450000D02*
G75*
G02*
X165750000Y-37950000I-1J-500001D01*
G01*
X165747236Y-50948884D02*
G75*
G02*
X165247236Y-51448884I-500001J1D01*
G01*
G04 #@! TO.C,MX75*
X137462392Y-37949999D02*
X137462392Y-50950001D01*
X137962391Y-51450000D02*
X150962393Y-51450000D01*
X150962393Y-37450000D02*
X137962391Y-37450000D01*
X151462392Y-50950001D02*
X151462392Y-37949999D01*
X137465156Y-37951116D02*
G75*
G02*
X137965156Y-37451116I500001J-1D01*
G01*
X137962391Y-51450000D02*
G75*
G02*
X137462392Y-50950001I2J500001D01*
G01*
X150962393Y-37450000D02*
G75*
G02*
X151462392Y-37949999I-1J-500000D01*
G01*
X151462392Y-50950001D02*
G75*
G02*
X150962393Y-51450000I-500000J1D01*
G01*
G04 #@! TO.C,MX81*
X51737464Y-56999999D02*
X51737464Y-70000001D01*
X52237463Y-70500000D02*
X65237465Y-70500000D01*
X65237465Y-56500000D02*
X52237463Y-56500000D01*
X65737464Y-70000001D02*
X65737464Y-56999999D01*
X51737464Y-56999999D02*
G75*
G02*
X52237463Y-56500000I500000J-1D01*
G01*
X52237463Y-70500000D02*
G75*
G02*
X51737464Y-70000001I1J500000D01*
G01*
X65237465Y-56500000D02*
G75*
G02*
X65737464Y-56999999I-2J-500001D01*
G01*
X65734700Y-69998884D02*
G75*
G02*
X65234700Y-70498884I-500001J1D01*
G01*
G04 #@! TO.C,MX85*
X127937400Y-57000000D02*
X127937400Y-70000000D01*
X128437400Y-70500000D02*
X141437400Y-70500000D01*
X141437400Y-56500000D02*
X128437400Y-56500000D01*
X141937400Y-70000000D02*
X141937400Y-57000000D01*
X127937400Y-57000000D02*
G75*
G02*
X128437400Y-56500000I500000J0D01*
G01*
X128437400Y-70500000D02*
G75*
G02*
X127937400Y-70000000I0J500000D01*
G01*
X141437400Y-56500000D02*
G75*
G02*
X141937400Y-57000000I-1J-500001D01*
G01*
X141934636Y-69998884D02*
G75*
G02*
X141434636Y-70498884I-500001J1D01*
G01*
G04 #@! TO.C,MX27*
X208900000Y-37949999D02*
X208900000Y-50950001D01*
X209399999Y-51450000D02*
X222400001Y-51450000D01*
X222400001Y-37450000D02*
X209399999Y-37450000D01*
X222900000Y-50950001D02*
X222900000Y-37949999D01*
X208902764Y-37951116D02*
G75*
G02*
X209402764Y-37451116I500001J-1D01*
G01*
X209399999Y-51450000D02*
G75*
G02*
X208900000Y-50950001I2J500001D01*
G01*
X222400001Y-37450000D02*
G75*
G02*
X222900000Y-37949999I-1J-500000D01*
G01*
X222900000Y-50950001D02*
G75*
G02*
X222400001Y-51450000I-500000J1D01*
G01*
G04 #@! TO.C,MX26*
X189850000Y-37950000D02*
X189850000Y-50950000D01*
X190350000Y-51450000D02*
X203350000Y-51450000D01*
X203350000Y-37450000D02*
X190350000Y-37450000D01*
X203850000Y-50950000D02*
X203850000Y-37950000D01*
X189850000Y-37950000D02*
G75*
G02*
X190350000Y-37450000I500000J0D01*
G01*
X190350000Y-51450000D02*
G75*
G02*
X189850000Y-50950000I0J500000D01*
G01*
X203350000Y-37450000D02*
G75*
G02*
X203850000Y-37950000I-1J-500001D01*
G01*
X203847236Y-50948884D02*
G75*
G02*
X203347236Y-51448884I-500001J1D01*
G01*
G04 #@! TO.C,MX13*
X247000000Y-18900000D02*
X247000000Y-31900000D01*
X247500000Y-32400000D02*
X260500000Y-32400000D01*
X260500000Y-18400000D02*
X247500000Y-18400000D01*
X261000000Y-31900000D02*
X261000000Y-18900000D01*
X247000000Y-18900000D02*
G75*
G02*
X247500000Y-18400000I500000J0D01*
G01*
X247500000Y-32400000D02*
G75*
G02*
X247000000Y-31900000I0J500000D01*
G01*
X260500000Y-18400000D02*
G75*
G02*
X261000000Y-18900000I-1J-500001D01*
G01*
X260997236Y-31898884D02*
G75*
G02*
X260497236Y-32398884I-500001J1D01*
G01*
G04 #@! TO.C,MX53*
X104125000Y-76050000D02*
X104125000Y-89050000D01*
X104625000Y-89550000D02*
X117625000Y-89550000D01*
X117625000Y-75550000D02*
X104625000Y-75550000D01*
X118125000Y-89050000D02*
X118125000Y-76050000D01*
X104127764Y-76051116D02*
G75*
G02*
X104627764Y-75551116I500001J-1D01*
G01*
X104625000Y-89550000D02*
G75*
G02*
X104125000Y-89050000I1J500001D01*
G01*
X117625000Y-75550000D02*
G75*
G02*
X118125000Y-76050000I0J-500000D01*
G01*
X118125000Y-89050000D02*
G75*
G02*
X117625000Y-89550000I-500000J0D01*
G01*
G04 #@! TO.C,MX62*
X247000000Y-76050000D02*
X247000000Y-89050000D01*
X247500000Y-89550000D02*
X260500000Y-89550000D01*
X260500000Y-75550000D02*
X247500000Y-75550000D01*
X261000000Y-89050000D02*
X261000000Y-76050000D01*
X247000000Y-76050000D02*
G75*
G02*
X247500000Y-75550000I500000J0D01*
G01*
X247500000Y-89550000D02*
G75*
G02*
X247000000Y-89050000I0J500000D01*
G01*
X260500000Y-75550000D02*
G75*
G02*
X261000000Y-76050000I-1J-500001D01*
G01*
X260997236Y-89048884D02*
G75*
G02*
X260497236Y-89548884I-500001J1D01*
G01*
G04 #@! TO.C,MX78*
X194612344Y-37949999D02*
X194612344Y-50950001D01*
X195112343Y-51450000D02*
X208112345Y-51450000D01*
X208112345Y-37450000D02*
X195112343Y-37450000D01*
X208612344Y-50950001D02*
X208612344Y-37949999D01*
X194615108Y-37951116D02*
G75*
G02*
X195115108Y-37451116I500001J-1D01*
G01*
X195112343Y-51450000D02*
G75*
G02*
X194612344Y-50950001I2J500001D01*
G01*
X208112345Y-37450000D02*
G75*
G02*
X208612344Y-37949999I-1J-500000D01*
G01*
X208612344Y-50950001D02*
G75*
G02*
X208112345Y-51450000I-500000J1D01*
G01*
G04 #@! TO.C,MX4*
X75550000Y-18900000D02*
X75550000Y-31900000D01*
X76050000Y-32400000D02*
X89050000Y-32400000D01*
X89050000Y-18400000D02*
X76050000Y-18400000D01*
X89550000Y-31900000D02*
X89550000Y-18900000D01*
X75550000Y-18900000D02*
G75*
G02*
X76050000Y-18400000I500000J0D01*
G01*
X76050000Y-32400000D02*
G75*
G02*
X75550000Y-31900000I0J500000D01*
G01*
X89050000Y-18400000D02*
G75*
G02*
X89550000Y-18900000I-1J-500001D01*
G01*
X89547236Y-31898884D02*
G75*
G02*
X89047236Y-32398884I-500001J1D01*
G01*
G04 #@! TO.C,MX61*
X227950000Y-76050000D02*
X227950000Y-89050000D01*
X228450000Y-89550000D02*
X241450000Y-89550000D01*
X241450000Y-75550000D02*
X228450000Y-75550000D01*
X241950000Y-89050000D02*
X241950000Y-76050000D01*
X227950000Y-76050000D02*
G75*
G02*
X228450000Y-75550000I500000J0D01*
G01*
X228450000Y-89550000D02*
G75*
G02*
X227950000Y-89050000I0J500000D01*
G01*
X241450000Y-75550000D02*
G75*
G02*
X241950000Y-76050000I-1J-500001D01*
G01*
X241947236Y-89048884D02*
G75*
G02*
X241447236Y-89548884I-500001J1D01*
G01*
G04 #@! TO.C,MX41*
X170800000Y-56999999D02*
X170800000Y-70000001D01*
X171299999Y-70500000D02*
X184300001Y-70500000D01*
X184300001Y-56500000D02*
X171299999Y-56500000D01*
X184800000Y-70000001D02*
X184800000Y-56999999D01*
X170802764Y-57001116D02*
G75*
G02*
X171302764Y-56501116I500001J-1D01*
G01*
X171299999Y-70500000D02*
G75*
G02*
X170800000Y-70000001I2J500001D01*
G01*
X184300001Y-56500000D02*
G75*
G02*
X184800000Y-56999999I-1J-500000D01*
G01*
X184800000Y-70000001D02*
G75*
G02*
X184300001Y-70500000I-500000J1D01*
G01*
G04 #@! TO.C,MX15*
X285100000Y-18900000D02*
X285100000Y-31900000D01*
X285600000Y-32400000D02*
X298600000Y-32400000D01*
X298600000Y-18400000D02*
X285600000Y-18400000D01*
X299100000Y-31900000D02*
X299100000Y-18900000D01*
X285100000Y-18900000D02*
G75*
G02*
X285600000Y-18400000I500000J0D01*
G01*
X285600000Y-32400000D02*
G75*
G02*
X285100000Y-31900000I0J500000D01*
G01*
X298600000Y-18400000D02*
G75*
G02*
X299100000Y-18900000I-1J-500001D01*
G01*
X299097236Y-31898884D02*
G75*
G02*
X298597236Y-32398884I-500001J1D01*
G01*
G04 #@! TO.C,MX57*
X170800000Y-76050000D02*
X170800000Y-89050000D01*
X171300000Y-89550000D02*
X184300000Y-89550000D01*
X184300000Y-75550000D02*
X171300000Y-75550000D01*
X184800000Y-89050000D02*
X184800000Y-76050000D01*
X170800000Y-76050000D02*
G75*
G02*
X171300000Y-75550000I500000J0D01*
G01*
X171300000Y-89550000D02*
G75*
G02*
X170800000Y-89050000I0J500000D01*
G01*
X184300000Y-75550000D02*
G75*
G02*
X184800000Y-76050000I-1J-500001D01*
G01*
X184797236Y-89048884D02*
G75*
G02*
X184297236Y-89548884I-500001J1D01*
G01*
G04 #@! TO.C,MX39*
X132700000Y-56999999D02*
X132700000Y-70000001D01*
X133199999Y-70500000D02*
X146200001Y-70500000D01*
X146200001Y-56500000D02*
X133199999Y-56500000D01*
X146700000Y-70000001D02*
X146700000Y-56999999D01*
X132702764Y-57001116D02*
G75*
G02*
X133202764Y-56501116I500001J-1D01*
G01*
X133199999Y-70500000D02*
G75*
G02*
X132700000Y-70000001I2J500001D01*
G01*
X146200001Y-56500000D02*
G75*
G02*
X146700000Y-56999999I-1J-500000D01*
G01*
X146700000Y-70000001D02*
G75*
G02*
X146200001Y-70500000I-500000J1D01*
G01*
G04 #@! TO.C,MX68*
X218424824Y-18899991D02*
X218424824Y-31899993D01*
X218924823Y-32399992D02*
X231924825Y-32399992D01*
X231924825Y-18399992D02*
X218924823Y-18399992D01*
X232424824Y-31899993D02*
X232424824Y-18899991D01*
X218424824Y-18899991D02*
G75*
G02*
X218924823Y-18399992I500000J-1D01*
G01*
X218924823Y-32399992D02*
G75*
G02*
X218424824Y-31899993I1J500000D01*
G01*
X231924825Y-18399992D02*
G75*
G02*
X232424824Y-18899991I-2J-500001D01*
G01*
X232422060Y-31898876D02*
G75*
G02*
X231922060Y-32398876I-500001J1D01*
G01*
G04 #@! TO.C,MX66*
X142225000Y-76050000D02*
X142225000Y-89050000D01*
X142725000Y-89550000D02*
X155725000Y-89550000D01*
X155725000Y-75550000D02*
X142725000Y-75550000D01*
X156225000Y-89050000D02*
X156225000Y-76050000D01*
X142227764Y-76051116D02*
G75*
G02*
X142727764Y-75551116I500001J-1D01*
G01*
X142725000Y-89550000D02*
G75*
G02*
X142225000Y-89050000I1J500001D01*
G01*
X155725000Y-75550000D02*
G75*
G02*
X156225000Y-76050000I0J-500000D01*
G01*
X156225000Y-89050000D02*
G75*
G02*
X155725000Y-89550000I-500000J0D01*
G01*
G04 #@! TO.C,MX14*
X266050000Y-18900000D02*
X266050000Y-31900000D01*
X266550000Y-32400000D02*
X279550000Y-32400000D01*
X279550000Y-18400000D02*
X266550000Y-18400000D01*
X280050000Y-31900000D02*
X280050000Y-18900000D01*
X266050000Y-18900000D02*
G75*
G02*
X266550000Y-18400000I500000J0D01*
G01*
X266550000Y-32400000D02*
G75*
G02*
X266050000Y-31900000I0J500000D01*
G01*
X279550000Y-18400000D02*
G75*
G02*
X280050000Y-18900000I-1J-500001D01*
G01*
X280047236Y-31898884D02*
G75*
G02*
X279547236Y-32398884I-500001J1D01*
G01*
G04 #@! TO.C,MX88*
X185087352Y-57000000D02*
X185087352Y-70000000D01*
X185587352Y-70500000D02*
X198587352Y-70500000D01*
X198587352Y-56500000D02*
X185587352Y-56500000D01*
X199087352Y-70000000D02*
X199087352Y-57000000D01*
X185087352Y-57000000D02*
G75*
G02*
X185587352Y-56500000I500000J0D01*
G01*
X185587352Y-70500000D02*
G75*
G02*
X185087352Y-70000000I0J500000D01*
G01*
X198587352Y-56500000D02*
G75*
G02*
X199087352Y-57000000I-1J-500001D01*
G01*
X199084588Y-69998884D02*
G75*
G02*
X198584588Y-70498884I-500001J1D01*
G01*
G04 #@! TO.C,MX40*
X151750000Y-56999999D02*
X151750000Y-70000001D01*
X152249999Y-70500000D02*
X165250001Y-70500000D01*
X165250001Y-56500000D02*
X152249999Y-56500000D01*
X165750000Y-70000001D02*
X165750000Y-56999999D01*
X151752764Y-57001116D02*
G75*
G02*
X152252764Y-56501116I500001J-1D01*
G01*
X152249999Y-70500000D02*
G75*
G02*
X151750000Y-70000001I2J500001D01*
G01*
X165250001Y-56500000D02*
G75*
G02*
X165750000Y-56999999I-1J-500000D01*
G01*
X165750000Y-70000001D02*
G75*
G02*
X165250001Y-70500000I-500000J1D01*
G01*
G04 #@! TO.C,MX11*
X208900000Y-18899999D02*
X208900000Y-31900001D01*
X209399999Y-32400000D02*
X222400001Y-32400000D01*
X222400001Y-18400000D02*
X209399999Y-18400000D01*
X222900000Y-31900001D02*
X222900000Y-18899999D01*
X208902764Y-18901116D02*
G75*
G02*
X209402764Y-18401116I500001J-1D01*
G01*
X209399999Y-32400000D02*
G75*
G02*
X208900000Y-31900001I2J500001D01*
G01*
X222400001Y-18400000D02*
G75*
G02*
X222900000Y-18899999I-1J-500000D01*
G01*
X222900000Y-31900001D02*
G75*
G02*
X222400001Y-32400000I-500000J1D01*
G01*
G04 #@! TO.C,MX89*
X204137336Y-57000000D02*
X204137336Y-70000000D01*
X204637336Y-70500000D02*
X217637336Y-70500000D01*
X217637336Y-56500000D02*
X204637336Y-56500000D01*
X218137336Y-70000000D02*
X218137336Y-57000000D01*
X204137336Y-57000000D02*
G75*
G02*
X204637336Y-56500000I500000J0D01*
G01*
X204637336Y-70500000D02*
G75*
G02*
X204137336Y-70000000I0J500000D01*
G01*
X217637336Y-56500000D02*
G75*
G02*
X218137336Y-57000000I-1J-500001D01*
G01*
X218134572Y-69998884D02*
G75*
G02*
X217634572Y-70498884I-500001J1D01*
G01*
G04 #@! TO.C,MX48*
X18400000Y-76049999D02*
X18400000Y-89050001D01*
X18899999Y-89550000D02*
X31900001Y-89550000D01*
X31900001Y-75550000D02*
X18899999Y-75550000D01*
X32400000Y-89050001D02*
X32400000Y-76049999D01*
X18400000Y-76049999D02*
G75*
G02*
X18899999Y-75550000I500000J-1D01*
G01*
X18899999Y-89550000D02*
G75*
G02*
X18400000Y-89050001I1J500000D01*
G01*
X31900001Y-75550000D02*
G75*
G02*
X32400000Y-76049999I-2J-500001D01*
G01*
X32397236Y-89048884D02*
G75*
G02*
X31897236Y-89548884I-500001J1D01*
G01*
G04 #@! TO.C,MX54*
X113650000Y-76050000D02*
X113650000Y-89050000D01*
X114150000Y-89550000D02*
X127150000Y-89550000D01*
X127150000Y-75550000D02*
X114150000Y-75550000D01*
X127650000Y-89050000D02*
X127650000Y-76050000D01*
X113650000Y-76050000D02*
G75*
G02*
X114150000Y-75550000I500000J0D01*
G01*
X114150000Y-89550000D02*
G75*
G02*
X113650000Y-89050000I0J500000D01*
G01*
X127150000Y-75550000D02*
G75*
G02*
X127650000Y-76050000I-1J-500001D01*
G01*
X127647236Y-89048884D02*
G75*
G02*
X127147236Y-89548884I-500001J1D01*
G01*
G04 #@! TO.C,MX70*
X42212472Y-37949999D02*
X42212472Y-50950001D01*
X42712471Y-51450000D02*
X55712473Y-51450000D01*
X55712473Y-37450000D02*
X42712471Y-37450000D01*
X56212472Y-50950001D02*
X56212472Y-37949999D01*
X42215236Y-37951116D02*
G75*
G02*
X42715236Y-37451116I500001J-1D01*
G01*
X42712471Y-51450000D02*
G75*
G02*
X42212472Y-50950001I2J500001D01*
G01*
X55712473Y-37450000D02*
G75*
G02*
X56212472Y-37949999I-1J-500000D01*
G01*
X56212472Y-50950001D02*
G75*
G02*
X55712473Y-51450000I-500000J1D01*
G01*
G04 #@! TO.C,MX21*
X94600000Y-37950000D02*
X94600000Y-50950000D01*
X95100000Y-51450000D02*
X108100000Y-51450000D01*
X108100000Y-37450000D02*
X95100000Y-37450000D01*
X108600000Y-50950000D02*
X108600000Y-37950000D01*
X94600000Y-37950000D02*
G75*
G02*
X95100000Y-37450000I500000J0D01*
G01*
X95100000Y-51450000D02*
G75*
G02*
X94600000Y-50950000I0J500000D01*
G01*
X108100000Y-37450000D02*
G75*
G02*
X108600000Y-37950000I-1J-500001D01*
G01*
X108597236Y-50948884D02*
G75*
G02*
X108097236Y-51448884I-500001J1D01*
G01*
G04 #@! TO.C,MX59*
X208900000Y-76050000D02*
X208900000Y-89050000D01*
X209400000Y-89550000D02*
X222400000Y-89550000D01*
X222400000Y-75550000D02*
X209400000Y-75550000D01*
X222900000Y-89050000D02*
X222900000Y-76050000D01*
X208900000Y-76050000D02*
G75*
G02*
X209400000Y-75550000I500000J0D01*
G01*
X209400000Y-89550000D02*
G75*
G02*
X208900000Y-89050000I0J500000D01*
G01*
X222400000Y-75550000D02*
G75*
G02*
X222900000Y-76050000I-1J-500001D01*
G01*
X222897236Y-89048884D02*
G75*
G02*
X222397236Y-89548884I-500001J1D01*
G01*
G04 #@! TO.C,MX25*
X170800000Y-37950000D02*
X170800000Y-50950000D01*
X171300000Y-51450000D02*
X184300000Y-51450000D01*
X184300000Y-37450000D02*
X171300000Y-37450000D01*
X184800000Y-50950000D02*
X184800000Y-37950000D01*
X170800000Y-37950000D02*
G75*
G02*
X171300000Y-37450000I500000J0D01*
G01*
X171300000Y-51450000D02*
G75*
G02*
X170800000Y-50950000I0J500000D01*
G01*
X184300000Y-37450000D02*
G75*
G02*
X184800000Y-37950000I-1J-500001D01*
G01*
X184797236Y-50948884D02*
G75*
G02*
X184297236Y-51448884I-500001J1D01*
G01*
G04 #@! TO.C,MX32*
X308912500Y-42712500D02*
X308912500Y-55712500D01*
X309412500Y-56212500D02*
X322412500Y-56212500D01*
X322412500Y-42212500D02*
X309412500Y-42212500D01*
X322912500Y-55712500D02*
X322912500Y-42712500D01*
X308912500Y-42712500D02*
G75*
G02*
X309412500Y-42212500I500000J0D01*
G01*
X309412500Y-56212500D02*
G75*
G02*
X308912500Y-55712500I0J500000D01*
G01*
X322412500Y-42212500D02*
G75*
G02*
X322912500Y-42712500I-1J-500001D01*
G01*
X322909736Y-55711384D02*
G75*
G02*
X322409736Y-56211384I-500001J1D01*
G01*
G04 #@! TO.C,MX43*
X208900000Y-56999999D02*
X208900000Y-70000001D01*
X209399999Y-70500000D02*
X222400001Y-70500000D01*
X222400001Y-56500000D02*
X209399999Y-56500000D01*
X222900000Y-70000001D02*
X222900000Y-56999999D01*
X208902764Y-57001116D02*
G75*
G02*
X209402764Y-56501116I500001J-1D01*
G01*
X209399999Y-70500000D02*
G75*
G02*
X208900000Y-70000001I2J500001D01*
G01*
X222400001Y-56500000D02*
G75*
G02*
X222900000Y-56999999I-1J-500000D01*
G01*
X222900000Y-70000001D02*
G75*
G02*
X222400001Y-70500000I-500000J1D01*
G01*
G04 #@! TO.C,MX86*
X146987384Y-57000000D02*
X146987384Y-70000000D01*
X147487384Y-70500000D02*
X160487384Y-70500000D01*
X160487384Y-56500000D02*
X147487384Y-56500000D01*
X160987384Y-70000000D02*
X160987384Y-57000000D01*
X146987384Y-57000000D02*
G75*
G02*
X147487384Y-56500000I500000J0D01*
G01*
X147487384Y-70500000D02*
G75*
G02*
X146987384Y-70000000I0J500000D01*
G01*
X160487384Y-56500000D02*
G75*
G02*
X160987384Y-57000000I-1J-500001D01*
G01*
X160984620Y-69998884D02*
G75*
G02*
X160484620Y-70498884I-500001J1D01*
G01*
G04 #@! TO.C,MX22*
X113650000Y-37950000D02*
X113650000Y-50950000D01*
X114150000Y-51450000D02*
X127150000Y-51450000D01*
X127150000Y-37450000D02*
X114150000Y-37450000D01*
X127650000Y-50950000D02*
X127650000Y-37950000D01*
X113650000Y-37950000D02*
G75*
G02*
X114150000Y-37450000I500000J0D01*
G01*
X114150000Y-51450000D02*
G75*
G02*
X113650000Y-50950000I0J500000D01*
G01*
X127150000Y-37450000D02*
G75*
G02*
X127650000Y-37950000I-1J-500001D01*
G01*
X127647236Y-50948884D02*
G75*
G02*
X127147236Y-51448884I-500001J1D01*
G01*
G04 #@! TO.C,MX46*
X266050000Y-56999999D02*
X266050000Y-70000001D01*
X266549999Y-70500000D02*
X279550001Y-70500000D01*
X279550001Y-56500000D02*
X266549999Y-56500000D01*
X280050000Y-70000001D02*
X280050000Y-56999999D01*
X266050000Y-56999999D02*
G75*
G02*
X266549999Y-56500000I500000J-1D01*
G01*
X266549999Y-70500000D02*
G75*
G02*
X266050000Y-70000001I1J500000D01*
G01*
X279550001Y-56500000D02*
G75*
G02*
X280050000Y-56999999I-2J-500001D01*
G01*
X280047236Y-69998884D02*
G75*
G02*
X279547236Y-70498884I-500001J1D01*
G01*
G04 #@! TO.C,MX56*
X151750000Y-76050000D02*
X151750000Y-89050000D01*
X152250000Y-89550000D02*
X165250000Y-89550000D01*
X165250000Y-75550000D02*
X152250000Y-75550000D01*
X165750000Y-89050000D02*
X165750000Y-76050000D01*
X151750000Y-76050000D02*
G75*
G02*
X152250000Y-75550000I500000J0D01*
G01*
X152250000Y-89550000D02*
G75*
G02*
X151750000Y-89050000I0J500000D01*
G01*
X165250000Y-75550000D02*
G75*
G02*
X165750000Y-76050000I-1J-500001D01*
G01*
X165747236Y-89048884D02*
G75*
G02*
X165247236Y-89548884I-500001J1D01*
G01*
G04 #@! TO.C,MX72*
X80312440Y-37949999D02*
X80312440Y-50950001D01*
X80812439Y-51450000D02*
X93812441Y-51450000D01*
X93812441Y-37450000D02*
X80812439Y-37450000D01*
X94312440Y-50950001D02*
X94312440Y-37949999D01*
X80315204Y-37951116D02*
G75*
G02*
X80815204Y-37451116I500001J-1D01*
G01*
X80812439Y-51450000D02*
G75*
G02*
X80312440Y-50950001I2J500001D01*
G01*
X93812441Y-37450000D02*
G75*
G02*
X94312440Y-37949999I-1J-500000D01*
G01*
X94312440Y-50950001D02*
G75*
G02*
X93812441Y-51450000I-500000J1D01*
G01*
G04 #@! TO.C,MX29*
X247000000Y-37950000D02*
X247000000Y-50950000D01*
X247500000Y-51450000D02*
X260500000Y-51450000D01*
X260500000Y-37450000D02*
X247500000Y-37450000D01*
X261000000Y-50950000D02*
X261000000Y-37950000D01*
X247000000Y-37950000D02*
G75*
G02*
X247500000Y-37450000I500000J0D01*
G01*
X247500000Y-51450000D02*
G75*
G02*
X247000000Y-50950000I0J500000D01*
G01*
X260500000Y-37450000D02*
G75*
G02*
X261000000Y-37950000I-1J-500001D01*
G01*
X260997236Y-50948884D02*
G75*
G02*
X260497236Y-51448884I-500001J1D01*
G01*
G04 #@! TO.C,MX42*
X189850000Y-56999999D02*
X189850000Y-70000001D01*
X190349999Y-70500000D02*
X203350001Y-70500000D01*
X203350001Y-56500000D02*
X190349999Y-56500000D01*
X203850000Y-70000001D02*
X203850000Y-56999999D01*
X189852764Y-57001116D02*
G75*
G02*
X190352764Y-56501116I500001J-1D01*
G01*
X190349999Y-70500000D02*
G75*
G02*
X189850000Y-70000001I2J500001D01*
G01*
X203350001Y-56500000D02*
G75*
G02*
X203850000Y-56999999I-1J-500000D01*
G01*
X203850000Y-70000001D02*
G75*
G02*
X203350001Y-70500000I-500000J1D01*
G01*
G04 #@! TO.C,MX33*
X18400000Y-57000000D02*
X18400000Y-70000000D01*
X18900000Y-70500000D02*
X31900000Y-70500000D01*
X31900000Y-56500000D02*
X18900000Y-56500000D01*
X32400000Y-70000000D02*
X32400000Y-57000000D01*
X18400000Y-57000000D02*
G75*
G02*
X18900000Y-56500000I500000J0D01*
G01*
X18900000Y-70500000D02*
G75*
G02*
X18400000Y-70000000I0J500000D01*
G01*
X31900000Y-56500000D02*
G75*
G02*
X32400000Y-57000000I-1J-500001D01*
G01*
X32397236Y-69998884D02*
G75*
G02*
X31897236Y-70498884I-500001J1D01*
G01*
G04 #@! TO.C,MX34*
X37450000Y-57000000D02*
X37450000Y-70000000D01*
X37950000Y-70500000D02*
X50950000Y-70500000D01*
X50950000Y-56500000D02*
X37950000Y-56500000D01*
X51450000Y-70000000D02*
X51450000Y-57000000D01*
X37450000Y-57000000D02*
G75*
G02*
X37950000Y-56500000I500000J0D01*
G01*
X37950000Y-70500000D02*
G75*
G02*
X37450000Y-70000000I0J500000D01*
G01*
X50950000Y-56500000D02*
G75*
G02*
X51450000Y-57000000I-1J-500001D01*
G01*
X51447236Y-69998884D02*
G75*
G02*
X50947236Y-70498884I-500001J1D01*
G01*
G04 #@! TO.C,MX87*
X166037368Y-57000000D02*
X166037368Y-70000000D01*
X166537368Y-70500000D02*
X179537368Y-70500000D01*
X179537368Y-56500000D02*
X166537368Y-56500000D01*
X180037368Y-70000000D02*
X180037368Y-57000000D01*
X166037368Y-57000000D02*
G75*
G02*
X166537368Y-56500000I500000J0D01*
G01*
X166537368Y-70500000D02*
G75*
G02*
X166037368Y-70000000I0J500000D01*
G01*
X179537368Y-56500000D02*
G75*
G02*
X180037368Y-57000000I-1J-500001D01*
G01*
X180034604Y-69998884D02*
G75*
G02*
X179534604Y-70498884I-500001J1D01*
G01*
G04 #@! TO.C,MX45*
X247000000Y-56999999D02*
X247000000Y-70000001D01*
X247499999Y-70500000D02*
X260500001Y-70500000D01*
X260500001Y-56500000D02*
X247499999Y-56500000D01*
X261000000Y-70000001D02*
X261000000Y-56999999D01*
X247000000Y-56999999D02*
G75*
G02*
X247499999Y-56500000I500000J-1D01*
G01*
X247499999Y-70500000D02*
G75*
G02*
X247000000Y-70000001I1J500000D01*
G01*
X260500001Y-56500000D02*
G75*
G02*
X261000000Y-56999999I-2J-500001D01*
G01*
X260997236Y-69998884D02*
G75*
G02*
X260497236Y-70498884I-500001J1D01*
G01*
G04 #@! TO.C,MX64*
X285100000Y-76050000D02*
X285100000Y-89050000D01*
X285600000Y-89550000D02*
X298600000Y-89550000D01*
X298600000Y-75550000D02*
X285600000Y-75550000D01*
X299100000Y-89050000D02*
X299100000Y-76050000D01*
X285100000Y-76050000D02*
G75*
G02*
X285600000Y-75550000I500000J0D01*
G01*
X285600000Y-89550000D02*
G75*
G02*
X285100000Y-89050000I0J500000D01*
G01*
X298600000Y-75550000D02*
G75*
G02*
X299100000Y-76050000I-1J-500001D01*
G01*
X299097236Y-89048884D02*
G75*
G02*
X298597236Y-89548884I-500001J1D01*
G01*
G04 #@! TO.C,MX18*
X37450000Y-37950000D02*
X37450000Y-50950000D01*
X37950000Y-51450000D02*
X50950000Y-51450000D01*
X50950000Y-37450000D02*
X37950000Y-37450000D01*
X51450000Y-50950000D02*
X51450000Y-37950000D01*
X37450000Y-37950000D02*
G75*
G02*
X37950000Y-37450000I500000J0D01*
G01*
X37950000Y-51450000D02*
G75*
G02*
X37450000Y-50950000I0J500000D01*
G01*
X50950000Y-37450000D02*
G75*
G02*
X51450000Y-37950000I-1J-500001D01*
G01*
X51447236Y-50948884D02*
G75*
G02*
X50947236Y-51448884I-500001J1D01*
G01*
G04 #@! TO.C,MX63*
X266050000Y-76050000D02*
X266050000Y-89050000D01*
X266550000Y-89550000D02*
X279550000Y-89550000D01*
X279550000Y-75550000D02*
X266550000Y-75550000D01*
X280050000Y-89050000D02*
X280050000Y-76050000D01*
X266050000Y-76050000D02*
G75*
G02*
X266550000Y-75550000I500000J0D01*
G01*
X266550000Y-89550000D02*
G75*
G02*
X266050000Y-89050000I0J500000D01*
G01*
X279550000Y-75550000D02*
G75*
G02*
X280050000Y-76050000I-1J-500001D01*
G01*
X280047236Y-89048884D02*
G75*
G02*
X279547236Y-89548884I-500001J1D01*
G01*
G04 #@! TO.C,MX60*
X218425000Y-76050000D02*
X218425000Y-89050000D01*
X218925000Y-89550000D02*
X231925000Y-89550000D01*
X231925000Y-75550000D02*
X218925000Y-75550000D01*
X232425000Y-89050000D02*
X232425000Y-76050000D01*
X218427764Y-76051116D02*
G75*
G02*
X218927764Y-75551116I500001J-1D01*
G01*
X218925000Y-89550000D02*
G75*
G02*
X218425000Y-89050000I1J500001D01*
G01*
X231925000Y-75550000D02*
G75*
G02*
X232425000Y-76050000I0J-500000D01*
G01*
X232425000Y-89050000D02*
G75*
G02*
X231925000Y-89550000I-500000J0D01*
G01*
G04 #@! TO.C,MX76*
X156512376Y-37949999D02*
X156512376Y-50950001D01*
X157012375Y-51450000D02*
X170012377Y-51450000D01*
X170012377Y-37450000D02*
X157012375Y-37450000D01*
X170512376Y-50950001D02*
X170512376Y-37949999D01*
X156515140Y-37951116D02*
G75*
G02*
X157015140Y-37451116I500001J-1D01*
G01*
X157012375Y-51450000D02*
G75*
G02*
X156512376Y-50950001I2J500001D01*
G01*
X170012377Y-37450000D02*
G75*
G02*
X170512376Y-37949999I-1J-500000D01*
G01*
X170512376Y-50950001D02*
G75*
G02*
X170012377Y-51450000I-500000J1D01*
G01*
G04 #@! TO.C,MX2*
X37450000Y-18900000D02*
X37450000Y-31900000D01*
X37950000Y-32400000D02*
X50950000Y-32400000D01*
X50950000Y-18400000D02*
X37950000Y-18400000D01*
X51450000Y-31900000D02*
X51450000Y-18900000D01*
X37450000Y-18900000D02*
G75*
G02*
X37950000Y-18400000I500000J0D01*
G01*
X37950000Y-32400000D02*
G75*
G02*
X37450000Y-31900000I0J500000D01*
G01*
X50950000Y-18400000D02*
G75*
G02*
X51450000Y-18900000I-1J-500001D01*
G01*
X51447236Y-31898884D02*
G75*
G02*
X50947236Y-32398884I-500001J1D01*
G01*
G04 #@! TO.C,MX58*
X189850000Y-76050000D02*
X189850000Y-89050000D01*
X190350000Y-89550000D02*
X203350000Y-89550000D01*
X203350000Y-75550000D02*
X190350000Y-75550000D01*
X203850000Y-89050000D02*
X203850000Y-76050000D01*
X189850000Y-76050000D02*
G75*
G02*
X190350000Y-75550000I500000J0D01*
G01*
X190350000Y-89550000D02*
G75*
G02*
X189850000Y-89050000I0J500000D01*
G01*
X203350000Y-75550000D02*
G75*
G02*
X203850000Y-76050000I-1J-500001D01*
G01*
X203847236Y-89048884D02*
G75*
G02*
X203347236Y-89548884I-500001J1D01*
G01*
G04 #@! TO.C,MX6*
X113650000Y-18900000D02*
X113650000Y-31900000D01*
X114150000Y-32400000D02*
X127150000Y-32400000D01*
X127150000Y-18400000D02*
X114150000Y-18400000D01*
X127650000Y-31900000D02*
X127650000Y-18900000D01*
X113650000Y-18900000D02*
G75*
G02*
X114150000Y-18400000I500000J0D01*
G01*
X114150000Y-32400000D02*
G75*
G02*
X113650000Y-31900000I0J500000D01*
G01*
X127150000Y-18400000D02*
G75*
G02*
X127650000Y-18900000I-1J-500001D01*
G01*
X127647236Y-31898884D02*
G75*
G02*
X127147236Y-32398884I-500001J1D01*
G01*
G04 #@! TO.C,MX8*
X151750000Y-18900000D02*
X151750000Y-31900000D01*
X152250000Y-32400000D02*
X165250000Y-32400000D01*
X165250000Y-18400000D02*
X152250000Y-18400000D01*
X165750000Y-31900000D02*
X165750000Y-18900000D01*
X151750000Y-18900000D02*
G75*
G02*
X152250000Y-18400000I500000J0D01*
G01*
X152250000Y-32400000D02*
G75*
G02*
X151750000Y-31900000I0J500000D01*
G01*
X165250000Y-18400000D02*
G75*
G02*
X165750000Y-18900000I-1J-500001D01*
G01*
X165747236Y-31898884D02*
G75*
G02*
X165247236Y-32398884I-500001J1D01*
G01*
G04 #@! TO.C,MX38*
X113650000Y-56999999D02*
X113650000Y-70000001D01*
X114149999Y-70500000D02*
X127150001Y-70500000D01*
X127150001Y-56500000D02*
X114149999Y-56500000D01*
X127650000Y-70000001D02*
X127650000Y-56999999D01*
X113652764Y-57001116D02*
G75*
G02*
X114152764Y-56501116I500001J-1D01*
G01*
X114149999Y-70500000D02*
G75*
G02*
X113650000Y-70000001I2J500001D01*
G01*
X127150001Y-56500000D02*
G75*
G02*
X127650000Y-56999999I-1J-500000D01*
G01*
X127650000Y-70000001D02*
G75*
G02*
X127150001Y-70500000I-500000J1D01*
G01*
G04 #@! TO.C,MX79*
X220806072Y-37949999D02*
X220806072Y-50950001D01*
X221306071Y-51450000D02*
X234306073Y-51450000D01*
X234306073Y-37450000D02*
X221306071Y-37450000D01*
X234806072Y-50950001D02*
X234806072Y-37949999D01*
X220806072Y-37949999D02*
G75*
G02*
X221306071Y-37450000I500000J-1D01*
G01*
X221306071Y-51450000D02*
G75*
G02*
X220806072Y-50950001I1J500000D01*
G01*
X234306073Y-37450000D02*
G75*
G02*
X234806072Y-37949999I-2J-500001D01*
G01*
X234803308Y-50948884D02*
G75*
G02*
X234303308Y-51448884I-500001J1D01*
G01*
G04 #@! TO.C,MX7*
X132700000Y-18900000D02*
X132700000Y-31900000D01*
X133200000Y-32400000D02*
X146200000Y-32400000D01*
X146200000Y-18400000D02*
X133200000Y-18400000D01*
X146700000Y-31900000D02*
X146700000Y-18900000D01*
X132700000Y-18900000D02*
G75*
G02*
X133200000Y-18400000I500000J0D01*
G01*
X133200000Y-32400000D02*
G75*
G02*
X132700000Y-31900000I0J500000D01*
G01*
X146200000Y-18400000D02*
G75*
G02*
X146700000Y-18900000I-1J-500001D01*
G01*
X146697236Y-31898884D02*
G75*
G02*
X146197236Y-32398884I-500001J1D01*
G01*
G04 #@! TO.C,MX3*
X56500000Y-18900000D02*
X56500000Y-31900000D01*
X57000000Y-32400000D02*
X70000000Y-32400000D01*
X70000000Y-18400000D02*
X57000000Y-18400000D01*
X70500000Y-31900000D02*
X70500000Y-18900000D01*
X56500000Y-18900000D02*
G75*
G02*
X57000000Y-18400000I500000J0D01*
G01*
X57000000Y-32400000D02*
G75*
G02*
X56500000Y-31900000I0J500000D01*
G01*
X70000000Y-18400000D02*
G75*
G02*
X70500000Y-18900000I-1J-500001D01*
G01*
X70497236Y-31898884D02*
G75*
G02*
X69997236Y-32398884I-500001J1D01*
G01*
G04 #@! TO.C,MX55*
X132700000Y-76050000D02*
X132700000Y-89050000D01*
X133200000Y-89550000D02*
X146200000Y-89550000D01*
X146200000Y-75550000D02*
X133200000Y-75550000D01*
X146700000Y-89050000D02*
X146700000Y-76050000D01*
X132700000Y-76050000D02*
G75*
G02*
X133200000Y-75550000I500000J0D01*
G01*
X133200000Y-89550000D02*
G75*
G02*
X132700000Y-89050000I0J500000D01*
G01*
X146200000Y-75550000D02*
G75*
G02*
X146700000Y-76050000I-1J-500001D01*
G01*
X146697236Y-89048884D02*
G75*
G02*
X146197236Y-89548884I-500001J1D01*
G01*
G04 #@! TD*
M02*
