G04 #@! TF.GenerationSoftware,KiCad,Pcbnew,8.0.3-1.fc39*
G04 #@! TF.CreationDate,2024-06-26T19:17:31-04:00*
G04 #@! TF.ProjectId,Q9-Chimera,51392d43-6869-46d6-9572-612e6b696361,rev?*
G04 #@! TF.SameCoordinates,Original*
G04 #@! TF.FileFunction,Legend,Bot*
G04 #@! TF.FilePolarity,Positive*
%FSLAX46Y46*%
G04 Gerber Fmt 4.6, Leading zero omitted, Abs format (unit mm)*
G04 Created by KiCad (PCBNEW 8.0.3-1.fc39) date 2024-06-26 19:17:31*
%MOMM*%
%LPD*%
G01*
G04 APERTURE LIST*
G04 Aperture macros list*
%AMRoundRect*
0 Rectangle with rounded corners*
0 $1 Rounding radius*
0 $2 $3 $4 $5 $6 $7 $8 $9 X,Y pos of 4 corners*
0 Add a 4 corners polygon primitive as box body*
4,1,4,$2,$3,$4,$5,$6,$7,$8,$9,$2,$3,0*
0 Add four circle primitives for the rounded corners*
1,1,$1+$1,$2,$3*
1,1,$1+$1,$4,$5*
1,1,$1+$1,$6,$7*
1,1,$1+$1,$8,$9*
0 Add four rect primitives between the rounded corners*
20,1,$1+$1,$2,$3,$4,$5,0*
20,1,$1+$1,$4,$5,$6,$7,0*
20,1,$1+$1,$6,$7,$8,$9,0*
20,1,$1+$1,$8,$9,$2,$3,0*%
%AMRotRect*
0 Rectangle, with rotation*
0 The origin of the aperture is its center*
0 $1 length*
0 $2 width*
0 $3 Rotation angle, in degrees counterclockwise*
0 Add horizontal line*
21,1,$1,$2,0,0,$3*%
%AMOutline5P*
0 Free polygon, 5 corners , with rotation*
0 The origin of the aperture is its center*
0 number of corners: always 5*
0 $1 to $10 corner X, Y*
0 $11 Rotation angle, in degrees counterclockwise*
0 create outline with 5 corners*
4,1,5,$1,$2,$3,$4,$5,$6,$7,$8,$9,$10,$1,$2,$11*%
%AMOutline6P*
0 Free polygon, 6 corners , with rotation*
0 The origin of the aperture is its center*
0 number of corners: always 6*
0 $1 to $12 corner X, Y*
0 $13 Rotation angle, in degrees counterclockwise*
0 create outline with 6 corners*
4,1,6,$1,$2,$3,$4,$5,$6,$7,$8,$9,$10,$11,$12,$1,$2,$13*%
%AMOutline7P*
0 Free polygon, 7 corners , with rotation*
0 The origin of the aperture is its center*
0 number of corners: always 7*
0 $1 to $14 corner X, Y*
0 $15 Rotation angle, in degrees counterclockwise*
0 create outline with 7 corners*
4,1,7,$1,$2,$3,$4,$5,$6,$7,$8,$9,$10,$11,$12,$13,$14,$1,$2,$15*%
%AMOutline8P*
0 Free polygon, 8 corners , with rotation*
0 The origin of the aperture is its center*
0 number of corners: always 8*
0 $1 to $16 corner X, Y*
0 $17 Rotation angle, in degrees counterclockwise*
0 create outline with 8 corners*
4,1,8,$1,$2,$3,$4,$5,$6,$7,$8,$9,$10,$11,$12,$13,$14,$15,$16,$1,$2,$17*%
G04 Aperture macros list end*
%ADD10C,0.100000*%
%ADD11C,0.150000*%
%ADD12C,0.120000*%
%ADD13C,2.000000*%
%ADD14RoundRect,0.500000X0.500000X-0.500000X0.500000X0.500000X-0.500000X0.500000X-0.500000X-0.500000X0*%
%ADD15C,3.048000*%
%ADD16C,3.987800*%
%ADD17RoundRect,0.140000X0.170000X-0.140000X0.170000X0.140000X-0.170000X0.140000X-0.170000X-0.140000X0*%
%ADD18C,1.750000*%
%ADD19C,3.300000*%
%ADD20RoundRect,0.250000X1.025000X1.000000X-1.025000X1.000000X-1.025000X-1.000000X1.025000X-1.000000X0*%
%ADD21RoundRect,0.225000X0.375000X-0.225000X0.375000X0.225000X-0.375000X0.225000X-0.375000X-0.225000X0*%
%ADD22RoundRect,0.150000X-0.150000X0.475000X-0.150000X-0.475000X0.150000X-0.475000X0.150000X0.475000X0*%
%ADD23RoundRect,0.225000X0.225000X0.375000X-0.225000X0.375000X-0.225000X-0.375000X0.225000X-0.375000X0*%
%ADD24RoundRect,0.225000X-0.375000X0.225000X-0.375000X-0.225000X0.375000X-0.225000X0.375000X0.225000X0*%
%ADD25RoundRect,0.250000X-1.025000X-1.000000X1.025000X-1.000000X1.025000X1.000000X-1.025000X1.000000X0*%
%ADD26RoundRect,0.140000X-0.170000X0.140000X-0.170000X-0.140000X0.170000X-0.140000X0.170000X0.140000X0*%
%ADD27RoundRect,0.135000X-0.135000X-0.185000X0.135000X-0.185000X0.135000X0.185000X-0.135000X0.185000X0*%
%ADD28RoundRect,0.135000X-0.185000X0.135000X-0.185000X-0.135000X0.185000X-0.135000X0.185000X0.135000X0*%
%ADD29RoundRect,0.140000X0.021213X-0.219203X0.219203X-0.021213X-0.021213X0.219203X-0.219203X0.021213X0*%
%ADD30RoundRect,0.140000X-0.140000X-0.170000X0.140000X-0.170000X0.140000X0.170000X-0.140000X0.170000X0*%
%ADD31Outline5P,-1.275000X1.250000X0.275000X1.250000X1.275000X0.250000X1.275000X-1.250000X-1.275000X-1.250000X0.000000*%
%ADD32R,1.700000X1.000000*%
%ADD33RoundRect,0.050000X0.387500X0.050000X-0.387500X0.050000X-0.387500X-0.050000X0.387500X-0.050000X0*%
%ADD34RoundRect,0.050000X0.050000X0.387500X-0.050000X0.387500X-0.050000X-0.387500X0.050000X-0.387500X0*%
%ADD35R,3.200000X3.200000*%
%ADD36RoundRect,0.150000X-0.512500X-0.150000X0.512500X-0.150000X0.512500X0.150000X-0.512500X0.150000X0*%
%ADD37RoundRect,0.150000X-0.150000X-0.625000X0.150000X-0.625000X0.150000X0.625000X-0.150000X0.625000X0*%
%ADD38RoundRect,0.250000X-0.350000X-0.650000X0.350000X-0.650000X0.350000X0.650000X-0.350000X0.650000X0*%
%ADD39RoundRect,0.140000X-0.021213X0.219203X-0.219203X0.021213X0.021213X-0.219203X0.219203X-0.021213X0*%
%ADD40RoundRect,0.230000X1.045000X0.920000X-1.045000X0.920000X-1.045000X-0.920000X1.045000X-0.920000X0*%
%ADD41RoundRect,0.230000X-1.045000X-0.920000X1.045000X-0.920000X1.045000X0.920000X-1.045000X0.920000X0*%
%ADD42RoundRect,0.225000X0.250000X-0.225000X0.250000X0.225000X-0.250000X0.225000X-0.250000X-0.225000X0*%
%ADD43RotRect,1.400000X1.200000X45.000000*%
%ADD44Outline5P,-1.275000X1.250000X0.275000X1.250000X1.275000X0.250000X1.275000X-1.250000X-1.275000X-1.250000X180.000000*%
%ADD45RoundRect,0.150000X0.150000X-0.650000X0.150000X0.650000X-0.150000X0.650000X-0.150000X-0.650000X0*%
%ADD46RoundRect,0.140000X0.219203X0.021213X0.021213X0.219203X-0.219203X-0.021213X-0.021213X-0.219203X0*%
%ADD47R,1.700000X1.700000*%
%ADD48O,1.700000X1.700000*%
%ADD49RoundRect,0.135000X0.035355X-0.226274X0.226274X-0.035355X-0.035355X0.226274X-0.226274X0.035355X0*%
G04 APERTURE END LIST*
D10*
X40586161Y-89459075D02*
X40586161Y-90173360D01*
X40586161Y-90173360D02*
X40633780Y-90316217D01*
X40633780Y-90316217D02*
X40729018Y-90411456D01*
X40729018Y-90411456D02*
X40871875Y-90459075D01*
X40871875Y-90459075D02*
X40967113Y-90459075D01*
X39633780Y-90459075D02*
X40109970Y-90459075D01*
X40109970Y-90459075D02*
X40109970Y-89459075D01*
X38729018Y-90363836D02*
X38776637Y-90411456D01*
X38776637Y-90411456D02*
X38919494Y-90459075D01*
X38919494Y-90459075D02*
X39014732Y-90459075D01*
X39014732Y-90459075D02*
X39157589Y-90411456D01*
X39157589Y-90411456D02*
X39252827Y-90316217D01*
X39252827Y-90316217D02*
X39300446Y-90220979D01*
X39300446Y-90220979D02*
X39348065Y-90030503D01*
X39348065Y-90030503D02*
X39348065Y-89887646D01*
X39348065Y-89887646D02*
X39300446Y-89697170D01*
X39300446Y-89697170D02*
X39252827Y-89601932D01*
X39252827Y-89601932D02*
X39157589Y-89506694D01*
X39157589Y-89506694D02*
X39014732Y-89459075D01*
X39014732Y-89459075D02*
X38919494Y-89459075D01*
X38919494Y-89459075D02*
X38776637Y-89506694D01*
X38776637Y-89506694D02*
X38729018Y-89554313D01*
X38014732Y-89459075D02*
X38014732Y-90173360D01*
X38014732Y-90173360D02*
X38062351Y-90316217D01*
X38062351Y-90316217D02*
X38157589Y-90411456D01*
X38157589Y-90411456D02*
X38300446Y-90459075D01*
X38300446Y-90459075D02*
X38395684Y-90459075D01*
X37062351Y-90459075D02*
X37538541Y-90459075D01*
X37538541Y-90459075D02*
X37538541Y-89459075D01*
X36157589Y-90363836D02*
X36205208Y-90411456D01*
X36205208Y-90411456D02*
X36348065Y-90459075D01*
X36348065Y-90459075D02*
X36443303Y-90459075D01*
X36443303Y-90459075D02*
X36586160Y-90411456D01*
X36586160Y-90411456D02*
X36681398Y-90316217D01*
X36681398Y-90316217D02*
X36729017Y-90220979D01*
X36729017Y-90220979D02*
X36776636Y-90030503D01*
X36776636Y-90030503D02*
X36776636Y-89887646D01*
X36776636Y-89887646D02*
X36729017Y-89697170D01*
X36729017Y-89697170D02*
X36681398Y-89601932D01*
X36681398Y-89601932D02*
X36586160Y-89506694D01*
X36586160Y-89506694D02*
X36443303Y-89459075D01*
X36443303Y-89459075D02*
X36348065Y-89459075D01*
X36348065Y-89459075D02*
X36205208Y-89506694D01*
X36205208Y-89506694D02*
X36157589Y-89554313D01*
X35443303Y-89459075D02*
X35443303Y-90173360D01*
X35443303Y-90173360D02*
X35490922Y-90316217D01*
X35490922Y-90316217D02*
X35586160Y-90411456D01*
X35586160Y-90411456D02*
X35729017Y-90459075D01*
X35729017Y-90459075D02*
X35824255Y-90459075D01*
X34490922Y-90459075D02*
X34967112Y-90459075D01*
X34967112Y-90459075D02*
X34967112Y-89459075D01*
X33586160Y-90363836D02*
X33633779Y-90411456D01*
X33633779Y-90411456D02*
X33776636Y-90459075D01*
X33776636Y-90459075D02*
X33871874Y-90459075D01*
X33871874Y-90459075D02*
X34014731Y-90411456D01*
X34014731Y-90411456D02*
X34109969Y-90316217D01*
X34109969Y-90316217D02*
X34157588Y-90220979D01*
X34157588Y-90220979D02*
X34205207Y-90030503D01*
X34205207Y-90030503D02*
X34205207Y-89887646D01*
X34205207Y-89887646D02*
X34157588Y-89697170D01*
X34157588Y-89697170D02*
X34109969Y-89601932D01*
X34109969Y-89601932D02*
X34014731Y-89506694D01*
X34014731Y-89506694D02*
X33871874Y-89459075D01*
X33871874Y-89459075D02*
X33776636Y-89459075D01*
X33776636Y-89459075D02*
X33633779Y-89506694D01*
X33633779Y-89506694D02*
X33586160Y-89554313D01*
X32871874Y-89459075D02*
X32871874Y-90173360D01*
X32871874Y-90173360D02*
X32919493Y-90316217D01*
X32919493Y-90316217D02*
X33014731Y-90411456D01*
X33014731Y-90411456D02*
X33157588Y-90459075D01*
X33157588Y-90459075D02*
X33252826Y-90459075D01*
X31919493Y-90459075D02*
X32395683Y-90459075D01*
X32395683Y-90459075D02*
X32395683Y-89459075D01*
X31014731Y-90363836D02*
X31062350Y-90411456D01*
X31062350Y-90411456D02*
X31205207Y-90459075D01*
X31205207Y-90459075D02*
X31300445Y-90459075D01*
X31300445Y-90459075D02*
X31443302Y-90411456D01*
X31443302Y-90411456D02*
X31538540Y-90316217D01*
X31538540Y-90316217D02*
X31586159Y-90220979D01*
X31586159Y-90220979D02*
X31633778Y-90030503D01*
X31633778Y-90030503D02*
X31633778Y-89887646D01*
X31633778Y-89887646D02*
X31586159Y-89697170D01*
X31586159Y-89697170D02*
X31538540Y-89601932D01*
X31538540Y-89601932D02*
X31443302Y-89506694D01*
X31443302Y-89506694D02*
X31300445Y-89459075D01*
X31300445Y-89459075D02*
X31205207Y-89459075D01*
X31205207Y-89459075D02*
X31062350Y-89506694D01*
X31062350Y-89506694D02*
X31014731Y-89554313D01*
D11*
X293661792Y-69430851D02*
X293995125Y-68954660D01*
X294233220Y-69430851D02*
X294233220Y-68430851D01*
X294233220Y-68430851D02*
X293852268Y-68430851D01*
X293852268Y-68430851D02*
X293757030Y-68478470D01*
X293757030Y-68478470D02*
X293709411Y-68526089D01*
X293709411Y-68526089D02*
X293661792Y-68621327D01*
X293661792Y-68621327D02*
X293661792Y-68764184D01*
X293661792Y-68764184D02*
X293709411Y-68859422D01*
X293709411Y-68859422D02*
X293757030Y-68907041D01*
X293757030Y-68907041D02*
X293852268Y-68954660D01*
X293852268Y-68954660D02*
X294233220Y-68954660D01*
X293233220Y-68907041D02*
X292899887Y-68907041D01*
X292757030Y-69430851D02*
X293233220Y-69430851D01*
X293233220Y-69430851D02*
X293233220Y-68430851D01*
X293233220Y-68430851D02*
X292757030Y-68430851D01*
X292376077Y-69383232D02*
X292233220Y-69430851D01*
X292233220Y-69430851D02*
X291995125Y-69430851D01*
X291995125Y-69430851D02*
X291899887Y-69383232D01*
X291899887Y-69383232D02*
X291852268Y-69335612D01*
X291852268Y-69335612D02*
X291804649Y-69240374D01*
X291804649Y-69240374D02*
X291804649Y-69145136D01*
X291804649Y-69145136D02*
X291852268Y-69049898D01*
X291852268Y-69049898D02*
X291899887Y-69002279D01*
X291899887Y-69002279D02*
X291995125Y-68954660D01*
X291995125Y-68954660D02*
X292185601Y-68907041D01*
X292185601Y-68907041D02*
X292280839Y-68859422D01*
X292280839Y-68859422D02*
X292328458Y-68811803D01*
X292328458Y-68811803D02*
X292376077Y-68716565D01*
X292376077Y-68716565D02*
X292376077Y-68621327D01*
X292376077Y-68621327D02*
X292328458Y-68526089D01*
X292328458Y-68526089D02*
X292280839Y-68478470D01*
X292280839Y-68478470D02*
X292185601Y-68430851D01*
X292185601Y-68430851D02*
X291947506Y-68430851D01*
X291947506Y-68430851D02*
X291804649Y-68478470D01*
X291376077Y-68907041D02*
X291042744Y-68907041D01*
X290899887Y-69430851D02*
X291376077Y-69430851D01*
X291376077Y-69430851D02*
X291376077Y-68430851D01*
X291376077Y-68430851D02*
X290899887Y-68430851D01*
X290614172Y-68430851D02*
X290042744Y-68430851D01*
X290328458Y-69430851D02*
X290328458Y-68430851D01*
X310674885Y-36177736D02*
X310722504Y-36320593D01*
X310722504Y-36320593D02*
X310770123Y-36368212D01*
X310770123Y-36368212D02*
X310865361Y-36415831D01*
X310865361Y-36415831D02*
X311008218Y-36415831D01*
X311008218Y-36415831D02*
X311103456Y-36368212D01*
X311103456Y-36368212D02*
X311151076Y-36320593D01*
X311151076Y-36320593D02*
X311198695Y-36225355D01*
X311198695Y-36225355D02*
X311198695Y-35844403D01*
X311198695Y-35844403D02*
X310198695Y-35844403D01*
X310198695Y-35844403D02*
X310198695Y-36177736D01*
X310198695Y-36177736D02*
X310246314Y-36272974D01*
X310246314Y-36272974D02*
X310293933Y-36320593D01*
X310293933Y-36320593D02*
X310389171Y-36368212D01*
X310389171Y-36368212D02*
X310484409Y-36368212D01*
X310484409Y-36368212D02*
X310579647Y-36320593D01*
X310579647Y-36320593D02*
X310627266Y-36272974D01*
X310627266Y-36272974D02*
X310674885Y-36177736D01*
X310674885Y-36177736D02*
X310674885Y-35844403D01*
X310198695Y-37034879D02*
X310198695Y-37225355D01*
X310198695Y-37225355D02*
X310246314Y-37320593D01*
X310246314Y-37320593D02*
X310341552Y-37415831D01*
X310341552Y-37415831D02*
X310532028Y-37463450D01*
X310532028Y-37463450D02*
X310865361Y-37463450D01*
X310865361Y-37463450D02*
X311055837Y-37415831D01*
X311055837Y-37415831D02*
X311151076Y-37320593D01*
X311151076Y-37320593D02*
X311198695Y-37225355D01*
X311198695Y-37225355D02*
X311198695Y-37034879D01*
X311198695Y-37034879D02*
X311151076Y-36939641D01*
X311151076Y-36939641D02*
X311055837Y-36844403D01*
X311055837Y-36844403D02*
X310865361Y-36796784D01*
X310865361Y-36796784D02*
X310532028Y-36796784D01*
X310532028Y-36796784D02*
X310341552Y-36844403D01*
X310341552Y-36844403D02*
X310246314Y-36939641D01*
X310246314Y-36939641D02*
X310198695Y-37034879D01*
X310198695Y-38082498D02*
X310198695Y-38272974D01*
X310198695Y-38272974D02*
X310246314Y-38368212D01*
X310246314Y-38368212D02*
X310341552Y-38463450D01*
X310341552Y-38463450D02*
X310532028Y-38511069D01*
X310532028Y-38511069D02*
X310865361Y-38511069D01*
X310865361Y-38511069D02*
X311055837Y-38463450D01*
X311055837Y-38463450D02*
X311151076Y-38368212D01*
X311151076Y-38368212D02*
X311198695Y-38272974D01*
X311198695Y-38272974D02*
X311198695Y-38082498D01*
X311198695Y-38082498D02*
X311151076Y-37987260D01*
X311151076Y-37987260D02*
X311055837Y-37892022D01*
X311055837Y-37892022D02*
X310865361Y-37844403D01*
X310865361Y-37844403D02*
X310532028Y-37844403D01*
X310532028Y-37844403D02*
X310341552Y-37892022D01*
X310341552Y-37892022D02*
X310246314Y-37987260D01*
X310246314Y-37987260D02*
X310198695Y-38082498D01*
X310198695Y-38796784D02*
X310198695Y-39368212D01*
X311198695Y-39082498D02*
X310198695Y-39082498D01*
X304602080Y-88102951D02*
X304554460Y-87960094D01*
X304554460Y-87960094D02*
X304554460Y-87721999D01*
X304554460Y-87721999D02*
X304602080Y-87626761D01*
X304602080Y-87626761D02*
X304649699Y-87579142D01*
X304649699Y-87579142D02*
X304744937Y-87531523D01*
X304744937Y-87531523D02*
X304840175Y-87531523D01*
X304840175Y-87531523D02*
X304935413Y-87579142D01*
X304935413Y-87579142D02*
X304983032Y-87626761D01*
X304983032Y-87626761D02*
X305030651Y-87721999D01*
X305030651Y-87721999D02*
X305078270Y-87912475D01*
X305078270Y-87912475D02*
X305125889Y-88007713D01*
X305125889Y-88007713D02*
X305173508Y-88055332D01*
X305173508Y-88055332D02*
X305268746Y-88102951D01*
X305268746Y-88102951D02*
X305363984Y-88102951D01*
X305363984Y-88102951D02*
X305459222Y-88055332D01*
X305459222Y-88055332D02*
X305506841Y-88007713D01*
X305506841Y-88007713D02*
X305554460Y-87912475D01*
X305554460Y-87912475D02*
X305554460Y-87674380D01*
X305554460Y-87674380D02*
X305506841Y-87531523D01*
X305554460Y-87198189D02*
X304554460Y-86960094D01*
X304554460Y-86960094D02*
X305268746Y-86769618D01*
X305268746Y-86769618D02*
X304554460Y-86579142D01*
X304554460Y-86579142D02*
X305554460Y-86341047D01*
X304554460Y-85960094D02*
X305554460Y-85960094D01*
X305554460Y-85960094D02*
X305554460Y-85721999D01*
X305554460Y-85721999D02*
X305506841Y-85579142D01*
X305506841Y-85579142D02*
X305411603Y-85483904D01*
X305411603Y-85483904D02*
X305316365Y-85436285D01*
X305316365Y-85436285D02*
X305125889Y-85388666D01*
X305125889Y-85388666D02*
X304983032Y-85388666D01*
X304983032Y-85388666D02*
X304792556Y-85436285D01*
X304792556Y-85436285D02*
X304697318Y-85483904D01*
X304697318Y-85483904D02*
X304602080Y-85579142D01*
X304602080Y-85579142D02*
X304554460Y-85721999D01*
X304554460Y-85721999D02*
X304554460Y-85960094D01*
X302014460Y-87483904D02*
X302490651Y-87817237D01*
X302014460Y-88055332D02*
X303014460Y-88055332D01*
X303014460Y-88055332D02*
X303014460Y-87674380D01*
X303014460Y-87674380D02*
X302966841Y-87579142D01*
X302966841Y-87579142D02*
X302919222Y-87531523D01*
X302919222Y-87531523D02*
X302823984Y-87483904D01*
X302823984Y-87483904D02*
X302681127Y-87483904D01*
X302681127Y-87483904D02*
X302585889Y-87531523D01*
X302585889Y-87531523D02*
X302538270Y-87579142D01*
X302538270Y-87579142D02*
X302490651Y-87674380D01*
X302490651Y-87674380D02*
X302490651Y-88055332D01*
X302062080Y-87102951D02*
X302014460Y-86960094D01*
X302014460Y-86960094D02*
X302014460Y-86721999D01*
X302014460Y-86721999D02*
X302062080Y-86626761D01*
X302062080Y-86626761D02*
X302109699Y-86579142D01*
X302109699Y-86579142D02*
X302204937Y-86531523D01*
X302204937Y-86531523D02*
X302300175Y-86531523D01*
X302300175Y-86531523D02*
X302395413Y-86579142D01*
X302395413Y-86579142D02*
X302443032Y-86626761D01*
X302443032Y-86626761D02*
X302490651Y-86721999D01*
X302490651Y-86721999D02*
X302538270Y-86912475D01*
X302538270Y-86912475D02*
X302585889Y-87007713D01*
X302585889Y-87007713D02*
X302633508Y-87055332D01*
X302633508Y-87055332D02*
X302728746Y-87102951D01*
X302728746Y-87102951D02*
X302823984Y-87102951D01*
X302823984Y-87102951D02*
X302919222Y-87055332D01*
X302919222Y-87055332D02*
X302966841Y-87007713D01*
X302966841Y-87007713D02*
X303014460Y-86912475D01*
X303014460Y-86912475D02*
X303014460Y-86674380D01*
X303014460Y-86674380D02*
X302966841Y-86531523D01*
X303014460Y-86245808D02*
X303014460Y-85674380D01*
X302014460Y-85960094D02*
X303014460Y-85960094D01*
X307142080Y-88102951D02*
X307094460Y-87960094D01*
X307094460Y-87960094D02*
X307094460Y-87721999D01*
X307094460Y-87721999D02*
X307142080Y-87626761D01*
X307142080Y-87626761D02*
X307189699Y-87579142D01*
X307189699Y-87579142D02*
X307284937Y-87531523D01*
X307284937Y-87531523D02*
X307380175Y-87531523D01*
X307380175Y-87531523D02*
X307475413Y-87579142D01*
X307475413Y-87579142D02*
X307523032Y-87626761D01*
X307523032Y-87626761D02*
X307570651Y-87721999D01*
X307570651Y-87721999D02*
X307618270Y-87912475D01*
X307618270Y-87912475D02*
X307665889Y-88007713D01*
X307665889Y-88007713D02*
X307713508Y-88055332D01*
X307713508Y-88055332D02*
X307808746Y-88102951D01*
X307808746Y-88102951D02*
X307903984Y-88102951D01*
X307903984Y-88102951D02*
X307999222Y-88055332D01*
X307999222Y-88055332D02*
X308046841Y-88007713D01*
X308046841Y-88007713D02*
X308094460Y-87912475D01*
X308094460Y-87912475D02*
X308094460Y-87674380D01*
X308094460Y-87674380D02*
X308046841Y-87531523D01*
X308094460Y-87198189D02*
X307094460Y-86960094D01*
X307094460Y-86960094D02*
X307808746Y-86769618D01*
X307808746Y-86769618D02*
X307094460Y-86579142D01*
X307094460Y-86579142D02*
X308094460Y-86341047D01*
X307189699Y-85388666D02*
X307142080Y-85436285D01*
X307142080Y-85436285D02*
X307094460Y-85579142D01*
X307094460Y-85579142D02*
X307094460Y-85674380D01*
X307094460Y-85674380D02*
X307142080Y-85817237D01*
X307142080Y-85817237D02*
X307237318Y-85912475D01*
X307237318Y-85912475D02*
X307332556Y-85960094D01*
X307332556Y-85960094D02*
X307523032Y-86007713D01*
X307523032Y-86007713D02*
X307665889Y-86007713D01*
X307665889Y-86007713D02*
X307856365Y-85960094D01*
X307856365Y-85960094D02*
X307951603Y-85912475D01*
X307951603Y-85912475D02*
X308046841Y-85817237D01*
X308046841Y-85817237D02*
X308094460Y-85674380D01*
X308094460Y-85674380D02*
X308094460Y-85579142D01*
X308094460Y-85579142D02*
X308046841Y-85436285D01*
X308046841Y-85436285D02*
X307999222Y-85388666D01*
X300474460Y-88150570D02*
X300474460Y-87531523D01*
X300474460Y-87531523D02*
X300093508Y-87864856D01*
X300093508Y-87864856D02*
X300093508Y-87721999D01*
X300093508Y-87721999D02*
X300045889Y-87626761D01*
X300045889Y-87626761D02*
X299998270Y-87579142D01*
X299998270Y-87579142D02*
X299903032Y-87531523D01*
X299903032Y-87531523D02*
X299664937Y-87531523D01*
X299664937Y-87531523D02*
X299569699Y-87579142D01*
X299569699Y-87579142D02*
X299522080Y-87626761D01*
X299522080Y-87626761D02*
X299474460Y-87721999D01*
X299474460Y-87721999D02*
X299474460Y-88007713D01*
X299474460Y-88007713D02*
X299522080Y-88102951D01*
X299522080Y-88102951D02*
X299569699Y-88150570D01*
X300474460Y-87245808D02*
X299474460Y-86912475D01*
X299474460Y-86912475D02*
X300474460Y-86579142D01*
X300474460Y-86341046D02*
X300474460Y-85721999D01*
X300474460Y-85721999D02*
X300093508Y-86055332D01*
X300093508Y-86055332D02*
X300093508Y-85912475D01*
X300093508Y-85912475D02*
X300045889Y-85817237D01*
X300045889Y-85817237D02*
X299998270Y-85769618D01*
X299998270Y-85769618D02*
X299903032Y-85721999D01*
X299903032Y-85721999D02*
X299664937Y-85721999D01*
X299664937Y-85721999D02*
X299569699Y-85769618D01*
X299569699Y-85769618D02*
X299522080Y-85817237D01*
X299522080Y-85817237D02*
X299474460Y-85912475D01*
X299474460Y-85912475D02*
X299474460Y-86198189D01*
X299474460Y-86198189D02*
X299522080Y-86293427D01*
X299522080Y-86293427D02*
X299569699Y-86341046D01*
X297886841Y-87531523D02*
X297934460Y-87626761D01*
X297934460Y-87626761D02*
X297934460Y-87769618D01*
X297934460Y-87769618D02*
X297886841Y-87912475D01*
X297886841Y-87912475D02*
X297791603Y-88007713D01*
X297791603Y-88007713D02*
X297696365Y-88055332D01*
X297696365Y-88055332D02*
X297505889Y-88102951D01*
X297505889Y-88102951D02*
X297363032Y-88102951D01*
X297363032Y-88102951D02*
X297172556Y-88055332D01*
X297172556Y-88055332D02*
X297077318Y-88007713D01*
X297077318Y-88007713D02*
X296982080Y-87912475D01*
X296982080Y-87912475D02*
X296934460Y-87769618D01*
X296934460Y-87769618D02*
X296934460Y-87674380D01*
X296934460Y-87674380D02*
X296982080Y-87531523D01*
X296982080Y-87531523D02*
X297029699Y-87483904D01*
X297029699Y-87483904D02*
X297363032Y-87483904D01*
X297363032Y-87483904D02*
X297363032Y-87674380D01*
X296934460Y-87055332D02*
X297934460Y-87055332D01*
X297934460Y-87055332D02*
X296934460Y-86483904D01*
X296934460Y-86483904D02*
X297934460Y-86483904D01*
X296934460Y-86007713D02*
X297934460Y-86007713D01*
X297934460Y-86007713D02*
X297934460Y-85769618D01*
X297934460Y-85769618D02*
X297886841Y-85626761D01*
X297886841Y-85626761D02*
X297791603Y-85531523D01*
X297791603Y-85531523D02*
X297696365Y-85483904D01*
X297696365Y-85483904D02*
X297505889Y-85436285D01*
X297505889Y-85436285D02*
X297363032Y-85436285D01*
X297363032Y-85436285D02*
X297172556Y-85483904D01*
X297172556Y-85483904D02*
X297077318Y-85531523D01*
X297077318Y-85531523D02*
X296982080Y-85626761D01*
X296982080Y-85626761D02*
X296934460Y-85769618D01*
X296934460Y-85769618D02*
X296934460Y-86007713D01*
D12*
G04 #@! TO.C,C2*
X33969672Y-29671525D02*
X33969672Y-29887197D01*
X34689672Y-29671525D02*
X34689672Y-29887197D01*
D11*
G04 #@! TO.C,MX9*
X171714824Y-20649780D02*
X171714824Y-21449780D01*
X171714824Y-24539780D02*
X171714824Y-24299780D01*
X177600000Y-22699780D02*
X182164824Y-22699780D01*
X179614824Y-18649780D02*
X173714824Y-18649780D01*
X182664824Y-18649780D02*
X181114824Y-18649780D01*
X182664824Y-18879780D02*
X182664824Y-18649780D01*
X182664824Y-22199780D02*
X182664824Y-21729780D01*
X171714824Y-20649780D02*
G75*
G02*
X173714824Y-18649780I2000005J-5D01*
G01*
X175305678Y-24539780D02*
G75*
G02*
X177600000Y-22699780I2293456J-509332D01*
G01*
X182664824Y-22199780D02*
G75*
G02*
X182164824Y-22699780I-500001J1D01*
G01*
D12*
G04 #@! TO.C,D6*
X122731928Y-24543750D02*
X122731928Y-28553750D01*
X122731928Y-28553750D02*
X124731928Y-28553750D01*
X124731928Y-24543750D02*
X124731928Y-28553750D01*
G04 #@! TO.C,D56*
X160831896Y-81693750D02*
X160831896Y-85703750D01*
X160831896Y-85703750D02*
X162831896Y-85703750D01*
X162831896Y-81693750D02*
X162831896Y-85703750D01*
G04 #@! TO.C,U2*
X57177464Y-33122640D02*
X57787464Y-33122640D01*
X57177464Y-36022640D02*
X57177464Y-33122640D01*
X60297464Y-34422640D02*
X60297465Y-35222640D01*
X60297464Y-36022640D02*
X60297465Y-35222640D01*
G04 #@! TO.C,D43*
X223179512Y-67857768D02*
X227189512Y-67857768D01*
X223179512Y-69857768D02*
X227189512Y-69857768D01*
X227189512Y-69857768D02*
X227189512Y-67857768D01*
D11*
G04 #@! TO.C,MX20*
X76464824Y-39699780D02*
X76464824Y-40499780D01*
X76464824Y-43589780D02*
X76464824Y-43349780D01*
X82350000Y-41749780D02*
X86914824Y-41749780D01*
X84364824Y-37699780D02*
X78464824Y-37699780D01*
X87414824Y-37699780D02*
X85864824Y-37699780D01*
X87414824Y-37929780D02*
X87414824Y-37699780D01*
X87414824Y-41249780D02*
X87414824Y-40779780D01*
X76464824Y-39699780D02*
G75*
G02*
X78464824Y-37699780I2000005J-5D01*
G01*
X80055678Y-43589780D02*
G75*
G02*
X82350000Y-41749780I2293456J-509332D01*
G01*
X87414824Y-41249780D02*
G75*
G02*
X86914824Y-41749780I-500001J1D01*
G01*
G04 #@! TO.C,MX90*
X226483392Y-58749780D02*
X226483392Y-59549780D01*
X226483392Y-62639780D02*
X226483392Y-62399780D01*
X232368568Y-60799780D02*
X236933392Y-60799780D01*
X234383392Y-56749780D02*
X228483392Y-56749780D01*
X237433392Y-56749780D02*
X235883392Y-56749780D01*
X237433392Y-56979780D02*
X237433392Y-56749780D01*
X237433392Y-60299780D02*
X237433392Y-59829780D01*
X226483392Y-58749780D02*
G75*
G02*
X228483392Y-56749780I2000005J-5D01*
G01*
X230074246Y-62639780D02*
G75*
G02*
X232368568Y-60799780I2293456J-509332D01*
G01*
X237433392Y-60299780D02*
G75*
G02*
X236933392Y-60799780I-500001J1D01*
G01*
D12*
G04 #@! TO.C,D1*
X27482008Y-24543750D02*
X27482008Y-28553750D01*
X27482008Y-28553750D02*
X29482008Y-28553750D01*
X29482008Y-24543750D02*
X29482008Y-28553750D01*
G04 #@! TO.C,D3*
X65581976Y-24543750D02*
X65581976Y-28553750D01*
X65581976Y-28553750D02*
X67581976Y-28553750D01*
X67581976Y-24543750D02*
X67581976Y-28553750D01*
G04 #@! TO.C,D17*
X34763264Y-48807784D02*
X38773264Y-48807784D01*
X34763264Y-50807784D02*
X38773264Y-50807784D01*
X38773264Y-50807784D02*
X38773264Y-48807784D01*
G04 #@! TO.C,D11*
X207458432Y-27843750D02*
X207458432Y-23833750D01*
X209458432Y-23833750D02*
X207458432Y-23833750D01*
X209458432Y-27843750D02*
X209458432Y-23833750D01*
G04 #@! TO.C,D45*
X256081816Y-62643750D02*
X256081816Y-66653750D01*
X256081816Y-66653750D02*
X258081816Y-66653750D01*
X258081816Y-62643750D02*
X258081816Y-66653750D01*
D11*
G04 #@! TO.C,MX49*
X38364824Y-77799780D02*
X38364824Y-78599780D01*
X38364824Y-81689780D02*
X38364824Y-81449780D01*
X44250001Y-79849780D02*
X48814824Y-79849780D01*
X46264824Y-75799780D02*
X40364824Y-75799780D01*
X49314824Y-75799780D02*
X47764824Y-75799780D01*
X49314824Y-76029780D02*
X49314824Y-75799780D01*
X49314824Y-79349780D02*
X49314824Y-78879781D01*
X38364824Y-77799780D02*
G75*
G02*
X40364824Y-75799780I2000005J-5D01*
G01*
X41955678Y-81689781D02*
G75*
G02*
X44250001Y-79849780I2293456J-509330D01*
G01*
X49314824Y-79349780D02*
G75*
G02*
X48814824Y-79849780I-500001J1D01*
G01*
G04 #@! TO.C,MX36*
X77685176Y-66700220D02*
X77685176Y-67170219D01*
X77685176Y-70020220D02*
X77685176Y-70250220D01*
X77685176Y-70250220D02*
X79235176Y-70250220D01*
X80735176Y-70250220D02*
X86635176Y-70250220D01*
X82749999Y-66200220D02*
X78185176Y-66200220D01*
X88635176Y-64360220D02*
X88635176Y-64600220D01*
X88635176Y-68250220D02*
X88635176Y-67450220D01*
X77685176Y-66700220D02*
G75*
G02*
X78185176Y-66200220I500001J-1D01*
G01*
X85044322Y-64360219D02*
G75*
G02*
X82749999Y-66200220I-2293456J509330D01*
G01*
X88635176Y-68250220D02*
G75*
G02*
X86635176Y-70250220I-2000005J5D01*
G01*
D12*
G04 #@! TO.C,D64*
X294181784Y-81693750D02*
X294181784Y-85703750D01*
X294181784Y-85703750D02*
X296181784Y-85703750D01*
X296181784Y-81693750D02*
X296181784Y-85703750D01*
G04 #@! TO.C,D65*
X313231768Y-81693750D02*
X313231768Y-85703750D01*
X313231768Y-85703750D02*
X315231768Y-85703750D01*
X315231768Y-81693750D02*
X315231768Y-85703750D01*
G04 #@! TO.C,C1*
X39873420Y-31797196D02*
X39873420Y-31581524D01*
X40593420Y-31797196D02*
X40593420Y-31581524D01*
G04 #@! TO.C,MX16*
X313369607Y-19800000D02*
X316412500Y-19800000D01*
X312369607Y-20800000D02*
G75*
G02*
X313369607Y-19800000I1000006J-6D01*
G01*
G04 #@! TO.C,D27*
X222881856Y-48807784D02*
X226891856Y-48807784D01*
X222881856Y-50807784D02*
X226891856Y-50807784D01*
X226891856Y-50807784D02*
X226891856Y-48807784D01*
G04 #@! TO.C,D59*
X202993592Y-81693750D02*
X202993592Y-85703750D01*
X202993592Y-85703750D02*
X204993592Y-85703750D01*
X204993592Y-81693750D02*
X204993592Y-85703750D01*
D11*
G04 #@! TO.C,MX5*
X95514824Y-20649780D02*
X95514824Y-21449780D01*
X95514824Y-24539780D02*
X95514824Y-24299780D01*
X101400000Y-22699780D02*
X105964824Y-22699780D01*
X103414824Y-18649780D02*
X97514824Y-18649780D01*
X106464824Y-18649780D02*
X104914824Y-18649780D01*
X106464824Y-18879780D02*
X106464824Y-18649780D01*
X106464824Y-22199780D02*
X106464824Y-21729780D01*
X95514824Y-20649780D02*
G75*
G02*
X97514824Y-18649780I2000005J-5D01*
G01*
X99105678Y-24539780D02*
G75*
G02*
X101400000Y-22699780I2293456J-509332D01*
G01*
X106464824Y-22199780D02*
G75*
G02*
X105964824Y-22699780I-500001J1D01*
G01*
D12*
G04 #@! TO.C,R4*
X323463917Y-40194184D02*
X323156635Y-40194184D01*
X323463917Y-40954184D02*
X323156635Y-40954184D01*
D11*
G04 #@! TO.C,MX37*
X96735176Y-66700220D02*
X96735176Y-67170219D01*
X96735176Y-70020220D02*
X96735176Y-70250220D01*
X96735176Y-70250220D02*
X98285176Y-70250220D01*
X99785176Y-70250220D02*
X105685176Y-70250220D01*
X101799999Y-66200220D02*
X97235176Y-66200220D01*
X107685176Y-64360220D02*
X107685176Y-64600220D01*
X107685176Y-68250220D02*
X107685176Y-67450220D01*
X96735176Y-66700220D02*
G75*
G02*
X97235176Y-66200220I500001J-1D01*
G01*
X104094322Y-64360219D02*
G75*
G02*
X101799999Y-66200220I-2293456J509330D01*
G01*
X107685176Y-68250220D02*
G75*
G02*
X105685176Y-70250220I-2000005J5D01*
G01*
D12*
G04 #@! TO.C,D44*
X242229496Y-67857768D02*
X246239496Y-67857768D01*
X242229496Y-69857768D02*
X246239496Y-69857768D01*
X246239496Y-69857768D02*
X246239496Y-67857768D01*
G04 #@! TO.C,D51*
X84631960Y-81693750D02*
X84631960Y-85703750D01*
X84631960Y-85703750D02*
X86631960Y-85703750D01*
X86631960Y-81693750D02*
X86631960Y-85703750D01*
G04 #@! TO.C,D22*
X132394432Y-48807784D02*
X136404432Y-48807784D01*
X132394432Y-50807784D02*
X136404432Y-50807784D01*
X136404432Y-50807784D02*
X136404432Y-48807784D01*
D11*
G04 #@! TO.C,MX82*
X71702272Y-58749780D02*
X71702272Y-59549780D01*
X71702272Y-62639780D02*
X71702272Y-62399780D01*
X77587448Y-60799780D02*
X82152272Y-60799780D01*
X79602272Y-56749780D02*
X73702272Y-56749780D01*
X82652272Y-56749780D02*
X81102272Y-56749780D01*
X82652272Y-56979780D02*
X82652272Y-56749780D01*
X82652272Y-60299780D02*
X82652272Y-59829780D01*
X71702272Y-58749780D02*
G75*
G02*
X73702272Y-56749780I2000005J-5D01*
G01*
X75293126Y-62639780D02*
G75*
G02*
X77587448Y-60799780I2293456J-509332D01*
G01*
X82652272Y-60299780D02*
G75*
G02*
X82152272Y-60799780I-500001J1D01*
G01*
G04 #@! TO.C,MX44*
X230085176Y-66700220D02*
X230085176Y-67170219D01*
X230085176Y-70020220D02*
X230085176Y-70250220D01*
X230085176Y-70250220D02*
X231635176Y-70250220D01*
X233135176Y-70250220D02*
X239035176Y-70250220D01*
X235149999Y-66200220D02*
X230585176Y-66200220D01*
X241035176Y-64360220D02*
X241035176Y-64600220D01*
X241035176Y-68250220D02*
X241035176Y-67450220D01*
X230085176Y-66700220D02*
G75*
G02*
X230585176Y-66200220I500001J-1D01*
G01*
X237444322Y-64360219D02*
G75*
G02*
X235149999Y-66200220I-2293456J509330D01*
G01*
X241035176Y-68250220D02*
G75*
G02*
X239035176Y-70250220I-2000005J5D01*
G01*
G04 #@! TO.C,MX30*
X266964824Y-39699780D02*
X266964824Y-40499780D01*
X266964824Y-43589780D02*
X266964824Y-43349780D01*
X272850000Y-41749780D02*
X277414824Y-41749780D01*
X274864824Y-37699780D02*
X268964824Y-37699780D01*
X277914824Y-37699780D02*
X276364824Y-37699780D01*
X277914824Y-37929780D02*
X277914824Y-37699780D01*
X277914824Y-41249780D02*
X277914824Y-40779780D01*
X266964824Y-39699780D02*
G75*
G02*
X268964824Y-37699780I2000005J-5D01*
G01*
X270555678Y-43589780D02*
G75*
G02*
X272850000Y-41749780I2293456J-509332D01*
G01*
X277914824Y-41249780D02*
G75*
G02*
X277414824Y-41749780I-500001J1D01*
G01*
G04 #@! TO.C,MX52*
X95514824Y-77799780D02*
X95514824Y-78599780D01*
X95514824Y-81689780D02*
X95514824Y-81449780D01*
X101400000Y-79849780D02*
X105964824Y-79849780D01*
X103414824Y-75799780D02*
X97514824Y-75799780D01*
X106464824Y-75799780D02*
X104914824Y-75799780D01*
X106464824Y-76029780D02*
X106464824Y-75799780D01*
X106464824Y-79349780D02*
X106464824Y-78879780D01*
X95514824Y-77799780D02*
G75*
G02*
X97514824Y-75799780I2000005J-5D01*
G01*
X99105678Y-81689780D02*
G75*
G02*
X101400000Y-79849780I2293456J-509332D01*
G01*
X106464824Y-79349780D02*
G75*
G02*
X105964824Y-79849780I-500001J1D01*
G01*
D12*
G04 #@! TO.C,R8*
X305368572Y-52038753D02*
X305368572Y-51731471D01*
X306128572Y-52038753D02*
X306128572Y-51731471D01*
G04 #@! TO.C,D13*
X256081816Y-24543750D02*
X256081816Y-28553750D01*
X256081816Y-28553750D02*
X258081816Y-28553750D01*
X258081816Y-24543750D02*
X258081816Y-28553750D01*
D11*
G04 #@! TO.C,MX50*
X57414824Y-77799780D02*
X57414824Y-78599780D01*
X57414824Y-81689780D02*
X57414824Y-81449780D01*
X63300001Y-79849780D02*
X67864824Y-79849780D01*
X65314824Y-75799780D02*
X59414824Y-75799780D01*
X68364824Y-75799780D02*
X66814824Y-75799780D01*
X68364824Y-76029780D02*
X68364824Y-75799780D01*
X68364824Y-79349780D02*
X68364824Y-78879781D01*
X57414824Y-77799780D02*
G75*
G02*
X59414824Y-75799780I2000005J-5D01*
G01*
X61005678Y-81689781D02*
G75*
G02*
X63300001Y-79849780I2293456J-509330D01*
G01*
X68364824Y-79349780D02*
G75*
G02*
X67864824Y-79849780I-500001J1D01*
G01*
D12*
G04 #@! TO.C,D15*
X294181784Y-24543750D02*
X294181784Y-28553750D01*
X294181784Y-28553750D02*
X296181784Y-28553750D01*
X296181784Y-24543750D02*
X296181784Y-28553750D01*
G04 #@! TO.C,C10*
X309439793Y-74176158D02*
X309287290Y-74328661D01*
X309948910Y-74685275D02*
X309796407Y-74837778D01*
G04 #@! TO.C,D31*
X294181784Y-43593750D02*
X294181784Y-47603750D01*
X294181784Y-47603750D02*
X296181784Y-47603750D01*
X296181784Y-43593750D02*
X296181784Y-47603750D01*
D11*
G04 #@! TO.C,MX83*
X90752256Y-58749780D02*
X90752256Y-59549780D01*
X90752256Y-62639780D02*
X90752256Y-62399780D01*
X96637432Y-60799780D02*
X101202256Y-60799780D01*
X98652256Y-56749780D02*
X92752256Y-56749780D01*
X101702256Y-56749780D02*
X100152256Y-56749780D01*
X101702256Y-56979780D02*
X101702256Y-56749780D01*
X101702256Y-60299780D02*
X101702256Y-59829780D01*
X90752256Y-58749780D02*
G75*
G02*
X92752256Y-56749780I2000005J-5D01*
G01*
X94343110Y-62639780D02*
G75*
G02*
X96637432Y-60799780I2293456J-509332D01*
G01*
X101702256Y-60299780D02*
G75*
G02*
X101202256Y-60799780I-500001J1D01*
G01*
G04 #@! TO.C,MX74*
X120547584Y-47650220D02*
X120547584Y-48120219D01*
X120547584Y-50970220D02*
X120547584Y-51200220D01*
X120547584Y-51200220D02*
X122097584Y-51200220D01*
X123597584Y-51200220D02*
X129497584Y-51200220D01*
X125612407Y-47150220D02*
X121047584Y-47150220D01*
X131497584Y-45310220D02*
X131497584Y-45550220D01*
X131497584Y-49200220D02*
X131497584Y-48400220D01*
X120547584Y-47650220D02*
G75*
G02*
X121047584Y-47150220I500001J-1D01*
G01*
X127906730Y-45310219D02*
G75*
G02*
X125612407Y-47150220I-2293456J509330D01*
G01*
X131497584Y-49200220D02*
G75*
G02*
X129497584Y-51200220I-2000005J5D01*
G01*
D12*
G04 #@! TO.C,D41*
X185079544Y-67857768D02*
X189089544Y-67857768D01*
X185079544Y-69857768D02*
X189089544Y-69857768D01*
X189089544Y-69857768D02*
X189089544Y-67857768D01*
D11*
G04 #@! TO.C,MX47*
X286014824Y-58749780D02*
X286014824Y-59549780D01*
X286014824Y-62639780D02*
X286014824Y-62399780D01*
X291900000Y-60799780D02*
X296464824Y-60799780D01*
X293914824Y-56749780D02*
X288014824Y-56749780D01*
X296964824Y-56749780D02*
X295414824Y-56749780D01*
X296964824Y-56979780D02*
X296964824Y-56749780D01*
X296964824Y-60299780D02*
X296964824Y-59829780D01*
X286014824Y-58749780D02*
G75*
G02*
X288014824Y-56749780I2000005J-5D01*
G01*
X289605678Y-62639780D02*
G75*
G02*
X291900000Y-60799780I2293456J-509332D01*
G01*
X296964824Y-60299780D02*
G75*
G02*
X296464824Y-60799780I-500001J1D01*
G01*
D12*
G04 #@! TO.C,R7*
X306559196Y-52038753D02*
X306559196Y-51731471D01*
X307319196Y-52038753D02*
X307319196Y-51731471D01*
G04 #@! TO.C,D62*
X241093560Y-81693750D02*
X241093560Y-85703750D01*
X241093560Y-85703750D02*
X243093560Y-85703750D01*
X243093560Y-81693750D02*
X243093560Y-85703750D01*
G04 #@! TO.C,C7*
X312702496Y-59710652D02*
X312486824Y-59710652D01*
X312702496Y-60430652D02*
X312486824Y-60430652D01*
D11*
G04 #@! TO.C,MX73*
X101497600Y-47650220D02*
X101497600Y-48120219D01*
X101497600Y-50970220D02*
X101497600Y-51200220D01*
X101497600Y-51200220D02*
X103047600Y-51200220D01*
X104547600Y-51200220D02*
X110447600Y-51200220D01*
X106562423Y-47150220D02*
X101997600Y-47150220D01*
X112447600Y-45310220D02*
X112447600Y-45550220D01*
X112447600Y-49200220D02*
X112447600Y-48400220D01*
X101497600Y-47650220D02*
G75*
G02*
X101997600Y-47150220I500001J-1D01*
G01*
X108856746Y-45310219D02*
G75*
G02*
X106562423Y-47150220I-2293456J509330D01*
G01*
X112447600Y-49200220D02*
G75*
G02*
X110447600Y-51200220I-2000005J5D01*
G01*
D12*
G04 #@! TO.C,D29*
X256081816Y-43593750D02*
X256081816Y-47603750D01*
X256081816Y-47603750D02*
X258081816Y-47603750D01*
X258081816Y-43593750D02*
X258081816Y-47603750D01*
G04 #@! TO.C,MX1*
X22857107Y-19800000D02*
X25900000Y-19800000D01*
X21857107Y-20800000D02*
G75*
G02*
X22857107Y-19800000I1000006J-6D01*
G01*
G04 #@! TO.C,D19*
X75244480Y-48807784D02*
X79254480Y-48807784D01*
X75244480Y-50807784D02*
X79254480Y-50807784D01*
X79254480Y-50807784D02*
X79254480Y-48807784D01*
D11*
G04 #@! TO.C,MX65*
X305064824Y-77799780D02*
X305064824Y-78599780D01*
X305064824Y-81689780D02*
X305064824Y-81449780D01*
X310950000Y-79849780D02*
X315514824Y-79849780D01*
X312964824Y-75799780D02*
X307064824Y-75799780D01*
X316014824Y-75799780D02*
X314464824Y-75799780D01*
X316014824Y-76029780D02*
X316014824Y-75799780D01*
X316014824Y-79349780D02*
X316014824Y-78879780D01*
X305064824Y-77799780D02*
G75*
G02*
X307064824Y-75799780I2000005J-5D01*
G01*
X308655678Y-81689780D02*
G75*
G02*
X310950000Y-79849780I2293456J-509332D01*
G01*
X316014824Y-79349780D02*
G75*
G02*
X315514824Y-79849780I-500001J1D01*
G01*
D12*
G04 #@! TO.C,D30*
X275131800Y-43593750D02*
X275131800Y-47603750D01*
X275131800Y-47603750D02*
X277131800Y-47603750D01*
X277131800Y-43593750D02*
X277131800Y-47603750D01*
G04 #@! TO.C,C8*
X313276456Y-67917544D02*
X313276456Y-67701872D01*
X313996456Y-67917544D02*
X313996456Y-67701872D01*
G04 #@! TO.C,D12*
X235681064Y-20828120D02*
X239691064Y-20828120D01*
X235681064Y-22828120D02*
X239691064Y-22828120D01*
X239691064Y-22828120D02*
X239691064Y-20828120D01*
D11*
G04 #@! TO.C,MX84*
X109802240Y-58749780D02*
X109802240Y-59549780D01*
X109802240Y-62639780D02*
X109802240Y-62399780D01*
X115687416Y-60799780D02*
X120252240Y-60799780D01*
X117702240Y-56749780D02*
X111802240Y-56749780D01*
X120752240Y-56749780D02*
X119202240Y-56749780D01*
X120752240Y-56979780D02*
X120752240Y-56749780D01*
X120752240Y-60299780D02*
X120752240Y-59829780D01*
X109802240Y-58749780D02*
G75*
G02*
X111802240Y-56749780I2000005J-5D01*
G01*
X113393094Y-62639780D02*
G75*
G02*
X115687416Y-60799780I2293456J-509332D01*
G01*
X120752240Y-60299780D02*
G75*
G02*
X120252240Y-60799780I-500001J1D01*
G01*
D12*
G04 #@! TO.C,C3*
X304644432Y-56093288D02*
X304644432Y-56308960D01*
X305364432Y-56093288D02*
X305364432Y-56308960D01*
G04 #@! TO.C,D7*
X141781912Y-24543750D02*
X141781912Y-28553750D01*
X141781912Y-28553750D02*
X143781912Y-28553750D01*
X143781912Y-24543750D02*
X143781912Y-28553750D01*
D11*
G04 #@! TO.C,MX28*
X230085176Y-47650220D02*
X230085176Y-48120219D01*
X230085176Y-50970220D02*
X230085176Y-51200220D01*
X230085176Y-51200220D02*
X231635176Y-51200220D01*
X233135176Y-51200220D02*
X239035176Y-51200220D01*
X235149999Y-47150220D02*
X230585176Y-47150220D01*
X241035176Y-45310220D02*
X241035176Y-45550220D01*
X241035176Y-49200220D02*
X241035176Y-48400220D01*
X230085176Y-47650220D02*
G75*
G02*
X230585176Y-47150220I500001J-1D01*
G01*
X237444322Y-45310219D02*
G75*
G02*
X235149999Y-47150220I-2293456J509330D01*
G01*
X241035176Y-49200220D02*
G75*
G02*
X239035176Y-51200220I-2000005J5D01*
G01*
D12*
G04 #@! TO.C,D55*
X126793656Y-81693750D02*
X126793656Y-85703750D01*
X126793656Y-85703750D02*
X128793656Y-85703750D01*
X128793656Y-81693750D02*
X128793656Y-85703750D01*
D11*
G04 #@! TO.C,MX67*
X258659968Y-85750220D02*
X258659968Y-86220220D01*
X258659968Y-89070220D02*
X258659968Y-89300220D01*
X258659968Y-89300220D02*
X260209968Y-89300220D01*
X261709968Y-89300220D02*
X267609968Y-89300220D01*
X263724792Y-85250220D02*
X259159968Y-85250220D01*
X269609968Y-83410220D02*
X269609968Y-83650220D01*
X269609968Y-87300220D02*
X269609968Y-86500220D01*
X258659968Y-85750220D02*
G75*
G02*
X259159968Y-85250220I500001J-1D01*
G01*
X266019114Y-83410220D02*
G75*
G02*
X263724792Y-85250220I-2293456J509332D01*
G01*
X269609968Y-87300220D02*
G75*
G02*
X267609968Y-89300220I-2000005J5D01*
G01*
G04 #@! TO.C,MX71*
X63397632Y-47650220D02*
X63397632Y-48120219D01*
X63397632Y-50970220D02*
X63397632Y-51200220D01*
X63397632Y-51200220D02*
X64947632Y-51200220D01*
X66447632Y-51200220D02*
X72347632Y-51200220D01*
X68462455Y-47150220D02*
X63897632Y-47150220D01*
X74347632Y-45310220D02*
X74347632Y-45550220D01*
X74347632Y-49200220D02*
X74347632Y-48400220D01*
X63397632Y-47650220D02*
G75*
G02*
X63897632Y-47150220I500001J-1D01*
G01*
X70756778Y-45310219D02*
G75*
G02*
X68462455Y-47150220I-2293456J509330D01*
G01*
X74347632Y-49200220D02*
G75*
G02*
X72347632Y-51200220I-2000005J5D01*
G01*
D12*
G04 #@! TO.C,D38*
X127929592Y-67857768D02*
X131939592Y-67857768D01*
X127929592Y-69857768D02*
X131939592Y-69857768D01*
X131939592Y-69857768D02*
X131939592Y-67857768D01*
G04 #@! TO.C,D23*
X151444416Y-48807784D02*
X155454416Y-48807784D01*
X151444416Y-50807784D02*
X155454416Y-50807784D01*
X155454416Y-50807784D02*
X155454416Y-48807784D01*
G04 #@! TO.C,D18*
X56194496Y-48807784D02*
X60204496Y-48807784D01*
X56194496Y-50807784D02*
X60204496Y-50807784D01*
X60204496Y-50807784D02*
X60204496Y-48807784D01*
G04 #@! TO.C,R6*
X323463917Y-39152388D02*
X323156635Y-39152388D01*
X323463917Y-39912388D02*
X323156635Y-39912388D01*
D11*
G04 #@! TO.C,MX80*
X27678912Y-66700220D02*
X27678912Y-67170219D01*
X27678912Y-70020220D02*
X27678912Y-70250220D01*
X27678912Y-70250220D02*
X29228912Y-70250220D01*
X30728912Y-70250220D02*
X36628912Y-70250220D01*
X32743735Y-66200220D02*
X28178912Y-66200220D01*
X38628912Y-64360220D02*
X38628912Y-64600220D01*
X38628912Y-68250220D02*
X38628912Y-67450220D01*
X27678912Y-66700220D02*
G75*
G02*
X28178912Y-66200220I500001J-1D01*
G01*
X35038058Y-64360219D02*
G75*
G02*
X32743735Y-66200220I-2293456J509330D01*
G01*
X38628912Y-68250220D02*
G75*
G02*
X36628912Y-70250220I-2000005J5D01*
G01*
G04 #@! TO.C,MX19*
X57414824Y-39699780D02*
X57414824Y-40499780D01*
X57414824Y-43589780D02*
X57414824Y-43349780D01*
X63300000Y-41749780D02*
X67864824Y-41749780D01*
X65314824Y-37699780D02*
X59414824Y-37699780D01*
X68364824Y-37699780D02*
X66814824Y-37699780D01*
X68364824Y-37929780D02*
X68364824Y-37699780D01*
X68364824Y-41249780D02*
X68364824Y-40779780D01*
X57414824Y-39699780D02*
G75*
G02*
X59414824Y-37699780I2000005J-5D01*
G01*
X61005678Y-43589780D02*
G75*
G02*
X63300000Y-41749780I2293456J-509332D01*
G01*
X68364824Y-41249780D02*
G75*
G02*
X67864824Y-41749780I-500001J1D01*
G01*
D12*
G04 #@! TO.C,RST1*
X289350000Y-73721032D02*
X289350000Y-71721032D01*
X290850000Y-69971032D02*
X290400000Y-70421032D01*
X290850000Y-69971032D02*
X293350000Y-69971032D01*
X290850000Y-75471032D02*
X290400000Y-75021032D01*
X290850000Y-75471032D02*
X293350000Y-75471032D01*
X293350000Y-69971032D02*
X293800000Y-70421032D01*
X293350000Y-75471032D02*
X293800000Y-75021032D01*
X294850000Y-73721032D02*
X294850000Y-71721032D01*
D11*
G04 #@! TO.C,MX51*
X76464824Y-77799780D02*
X76464824Y-78599780D01*
X76464824Y-81689780D02*
X76464824Y-81449780D01*
X82350001Y-79849780D02*
X86914824Y-79849780D01*
X84364824Y-75799780D02*
X78464824Y-75799780D01*
X87414824Y-75799780D02*
X85864824Y-75799780D01*
X87414824Y-76029780D02*
X87414824Y-75799780D01*
X87414824Y-79349780D02*
X87414824Y-78879781D01*
X76464824Y-77799780D02*
G75*
G02*
X78464824Y-75799780I2000005J-5D01*
G01*
X80055678Y-81689781D02*
G75*
G02*
X82350001Y-79849780I2293456J-509330D01*
G01*
X87414824Y-79349780D02*
G75*
G02*
X86914824Y-79849780I-500001J1D01*
G01*
D12*
G04 #@! TO.C,U3*
X303924508Y-60181352D02*
X304574508Y-60181352D01*
X303924508Y-60831352D02*
X303924508Y-60181352D01*
X303924508Y-66751352D02*
X303924508Y-67401352D01*
X303924508Y-67401352D02*
X304574508Y-67401352D01*
X310844508Y-60181352D02*
X310494508Y-60181352D01*
X311144508Y-60421352D02*
X311144508Y-60831352D01*
X311144508Y-66751352D02*
X311144508Y-67401352D01*
X311144508Y-67401352D02*
X310494508Y-67401352D01*
X311144508Y-60181352D02*
X310904508Y-59851352D01*
X311384508Y-59851352D01*
X311144508Y-60181352D01*
G36*
X311144508Y-60181352D02*
G01*
X310904508Y-59851352D01*
X311384508Y-59851352D01*
X311144508Y-60181352D01*
G37*
G04 #@! TO.C,D21*
X113344448Y-48807784D02*
X117354448Y-48807784D01*
X113344448Y-50807784D02*
X117354448Y-50807784D01*
X117354448Y-50807784D02*
X117354448Y-48807784D01*
G04 #@! TO.C,D49*
X46531992Y-81693750D02*
X46531992Y-85703750D01*
X46531992Y-85703750D02*
X48531992Y-85703750D01*
X48531992Y-81693750D02*
X48531992Y-85703750D01*
G04 #@! TO.C,U1*
X36506232Y-29649360D02*
X37306232Y-29649359D01*
X36506232Y-32769360D02*
X37306232Y-32769361D01*
X38106232Y-29649360D02*
X37306232Y-29649359D01*
X38106232Y-32769360D02*
X37306232Y-32769361D01*
X36246232Y-33049360D02*
X35766232Y-33049360D01*
X36006232Y-32719360D01*
X36246232Y-33049360D01*
G36*
X36246232Y-33049360D02*
G01*
X35766232Y-33049360D01*
X36006232Y-32719360D01*
X36246232Y-33049360D01*
G37*
D11*
G04 #@! TO.C,MX69*
X22916416Y-47650220D02*
X22916416Y-48120219D01*
X22916416Y-50970220D02*
X22916416Y-51200220D01*
X22916416Y-51200220D02*
X24466416Y-51200220D01*
X25966416Y-51200220D02*
X31866416Y-51200220D01*
X27981239Y-47150220D02*
X23416416Y-47150220D01*
X33866416Y-45310220D02*
X33866416Y-45550220D01*
X33866416Y-49200220D02*
X33866416Y-48400220D01*
X22916416Y-47650220D02*
G75*
G02*
X23416416Y-47150220I500001J-1D01*
G01*
X30275562Y-45310219D02*
G75*
G02*
X27981239Y-47150220I-2293456J509330D01*
G01*
X33866416Y-49200220D02*
G75*
G02*
X31866416Y-51200220I-2000005J5D01*
G01*
G04 #@! TO.C,MX35*
X58635176Y-66700220D02*
X58635176Y-67170219D01*
X58635176Y-70020220D02*
X58635176Y-70250220D01*
X58635176Y-70250220D02*
X60185176Y-70250220D01*
X61685176Y-70250220D02*
X67585176Y-70250220D01*
X63699999Y-66200220D02*
X59135176Y-66200220D01*
X69585176Y-64360220D02*
X69585176Y-64600220D01*
X69585176Y-68250220D02*
X69585176Y-67450220D01*
X58635176Y-66700220D02*
G75*
G02*
X59135176Y-66200220I500001J-1D01*
G01*
X65994322Y-64360219D02*
G75*
G02*
X63699999Y-66200220I-2293456J509330D01*
G01*
X69585176Y-68250220D02*
G75*
G02*
X67585176Y-70250220I-2000005J5D01*
G01*
D12*
G04 #@! TO.C,D52*
X88693688Y-81693750D02*
X88693688Y-85703750D01*
X88693688Y-85703750D02*
X90693688Y-85703750D01*
X90693688Y-81693750D02*
X90693688Y-85703750D01*
D11*
G04 #@! TO.C,MX31*
X286014824Y-39699780D02*
X286014824Y-40499780D01*
X286014824Y-43589780D02*
X286014824Y-43349780D01*
X291900000Y-41749780D02*
X296464824Y-41749780D01*
X293914824Y-37699780D02*
X288014824Y-37699780D01*
X296964824Y-37699780D02*
X295414824Y-37699780D01*
X296964824Y-37929780D02*
X296964824Y-37699780D01*
X296964824Y-41249780D02*
X296964824Y-40779780D01*
X286014824Y-39699780D02*
G75*
G02*
X288014824Y-37699780I2000005J-5D01*
G01*
X289605678Y-43589780D02*
G75*
G02*
X291900000Y-41749780I2293456J-509332D01*
G01*
X296964824Y-41249780D02*
G75*
G02*
X296464824Y-41749780I-500001J1D01*
G01*
D12*
G04 #@! TO.C,D4*
X84631960Y-24543750D02*
X84631960Y-28553750D01*
X84631960Y-28553750D02*
X86631960Y-28553750D01*
X86631960Y-24543750D02*
X86631960Y-28553750D01*
D11*
G04 #@! TO.C,MX10*
X190764824Y-20649780D02*
X190764824Y-21449780D01*
X190764824Y-24539780D02*
X190764824Y-24299780D01*
X196650000Y-22699780D02*
X201214824Y-22699780D01*
X198664824Y-18649780D02*
X192764824Y-18649780D01*
X201714824Y-18649780D02*
X200164824Y-18649780D01*
X201714824Y-18879780D02*
X201714824Y-18649780D01*
X201714824Y-22199780D02*
X201714824Y-21729780D01*
X190764824Y-20649780D02*
G75*
G02*
X192764824Y-18649780I2000005J-5D01*
G01*
X194355678Y-24539780D02*
G75*
G02*
X196650000Y-22699780I2293456J-509332D01*
G01*
X201714824Y-22199780D02*
G75*
G02*
X201214824Y-22699780I-500001J1D01*
G01*
D12*
G04 #@! TO.C,D50*
X65581976Y-81693750D02*
X65581976Y-85703750D01*
X65581976Y-85703750D02*
X67581976Y-85703750D01*
X67581976Y-81693750D02*
X67581976Y-85703750D01*
D11*
G04 #@! TO.C,MX12*
X230085176Y-28600220D02*
X230085176Y-29070219D01*
X230085176Y-31920220D02*
X230085176Y-32150220D01*
X230085176Y-32150220D02*
X231635176Y-32150220D01*
X233135176Y-32150220D02*
X239035176Y-32150220D01*
X235149999Y-28100220D02*
X230585176Y-28100220D01*
X241035176Y-26260220D02*
X241035176Y-26500220D01*
X241035176Y-30150220D02*
X241035176Y-29350220D01*
X230085176Y-28600220D02*
G75*
G02*
X230585176Y-28100220I500001J-1D01*
G01*
X237444322Y-26260219D02*
G75*
G02*
X235149999Y-28100220I-2293456J509330D01*
G01*
X241035176Y-30150220D02*
G75*
G02*
X239035176Y-32150220I-2000005J5D01*
G01*
G04 #@! TO.C,MX77*
X177697536Y-47650220D02*
X177697536Y-48120219D01*
X177697536Y-50970220D02*
X177697536Y-51200220D01*
X177697536Y-51200220D02*
X179247536Y-51200220D01*
X180747536Y-51200220D02*
X186647536Y-51200220D01*
X182762359Y-47150220D02*
X178197536Y-47150220D01*
X188647536Y-45310220D02*
X188647536Y-45550220D01*
X188647536Y-49200220D02*
X188647536Y-48400220D01*
X177697536Y-47650220D02*
G75*
G02*
X178197536Y-47150220I500001J-1D01*
G01*
X185056682Y-45310219D02*
G75*
G02*
X182762359Y-47150220I-2293456J509330D01*
G01*
X188647536Y-49200220D02*
G75*
G02*
X186647536Y-51200220I-2000005J5D01*
G01*
G04 #@! TO.C,MX23*
X133614824Y-39699780D02*
X133614824Y-40499780D01*
X133614824Y-43589780D02*
X133614824Y-43349780D01*
X139500000Y-41749780D02*
X144064824Y-41749780D01*
X141514824Y-37699780D02*
X135614824Y-37699780D01*
X144564824Y-37699780D02*
X143014824Y-37699780D01*
X144564824Y-37929780D02*
X144564824Y-37699780D01*
X144564824Y-41249780D02*
X144564824Y-40779780D01*
X133614824Y-39699780D02*
G75*
G02*
X135614824Y-37699780I2000005J-5D01*
G01*
X137205678Y-43589780D02*
G75*
G02*
X139500000Y-41749780I2293456J-509332D01*
G01*
X144564824Y-41249780D02*
G75*
G02*
X144064824Y-41749780I-500001J1D01*
G01*
G04 #@! TO.C,MX17*
X19314824Y-39699780D02*
X19314824Y-40499780D01*
X19314824Y-43589780D02*
X19314824Y-43349780D01*
X25200000Y-41749780D02*
X29764824Y-41749780D01*
X27214824Y-37699780D02*
X21314824Y-37699780D01*
X30264824Y-37699780D02*
X28714824Y-37699780D01*
X30264824Y-37929780D02*
X30264824Y-37699780D01*
X30264824Y-41249780D02*
X30264824Y-40779780D01*
X19314824Y-39699780D02*
G75*
G02*
X21314824Y-37699780I2000005J-5D01*
G01*
X22905678Y-43589780D02*
G75*
G02*
X25200000Y-41749780I2293456J-509332D01*
G01*
X30264824Y-41249780D02*
G75*
G02*
X29764824Y-41749780I-500001J1D01*
G01*
D12*
G04 #@! TO.C,J1*
X42386064Y-31424360D02*
X42386064Y-32574360D01*
X43436064Y-30434360D02*
X43436064Y-31424360D01*
X43436064Y-31424360D02*
X42386064Y-31424360D01*
X50436064Y-34544360D02*
X43556064Y-34544360D01*
X50556064Y-31424360D02*
X51606064Y-31424360D01*
X51606064Y-31424360D02*
X51606064Y-32574360D01*
D11*
G04 #@! TO.C,MX24*
X152664824Y-39699780D02*
X152664824Y-40499780D01*
X152664824Y-43589780D02*
X152664824Y-43349780D01*
X158550000Y-41749780D02*
X163114824Y-41749780D01*
X160564824Y-37699780D02*
X154664824Y-37699780D01*
X163614824Y-37699780D02*
X162064824Y-37699780D01*
X163614824Y-37929780D02*
X163614824Y-37699780D01*
X163614824Y-41249780D02*
X163614824Y-40779780D01*
X152664824Y-39699780D02*
G75*
G02*
X154664824Y-37699780I2000005J-5D01*
G01*
X156255678Y-43589780D02*
G75*
G02*
X158550000Y-41749780I2293456J-509332D01*
G01*
X163614824Y-41249780D02*
G75*
G02*
X163114824Y-41749780I-500001J1D01*
G01*
D12*
G04 #@! TO.C,D61*
X237031832Y-81693750D02*
X237031832Y-85703750D01*
X237031832Y-85703750D02*
X239031832Y-85703750D01*
X239031832Y-81693750D02*
X239031832Y-85703750D01*
G04 #@! TO.C,D35*
X70779640Y-67857768D02*
X74789640Y-67857768D01*
X70779640Y-69857768D02*
X74789640Y-69857768D01*
X74789640Y-69857768D02*
X74789640Y-67857768D01*
D11*
G04 #@! TO.C,MX75*
X139597568Y-47650220D02*
X139597568Y-48120219D01*
X139597568Y-50970220D02*
X139597568Y-51200220D01*
X139597568Y-51200220D02*
X141147568Y-51200220D01*
X142647568Y-51200220D02*
X148547568Y-51200220D01*
X144662391Y-47150220D02*
X140097568Y-47150220D01*
X150547568Y-45310220D02*
X150547568Y-45550220D01*
X150547568Y-49200220D02*
X150547568Y-48400220D01*
X139597568Y-47650220D02*
G75*
G02*
X140097568Y-47150220I500001J-1D01*
G01*
X146956714Y-45310219D02*
G75*
G02*
X144662391Y-47150220I-2293456J509330D01*
G01*
X150547568Y-49200220D02*
G75*
G02*
X148547568Y-51200220I-2000005J5D01*
G01*
D12*
G04 #@! TO.C,C13*
X306402716Y-70057160D02*
X306555219Y-69904657D01*
X306911833Y-70566277D02*
X307064336Y-70413774D01*
D11*
G04 #@! TO.C,MX81*
X52652288Y-58749780D02*
X52652288Y-59549780D01*
X52652288Y-62639780D02*
X52652288Y-62399780D01*
X58537465Y-60799780D02*
X63102288Y-60799780D01*
X60552288Y-56749780D02*
X54652288Y-56749780D01*
X63602288Y-56749780D02*
X62052288Y-56749780D01*
X63602288Y-56979780D02*
X63602288Y-56749780D01*
X63602288Y-60299780D02*
X63602288Y-59829781D01*
X52652288Y-58749780D02*
G75*
G02*
X54652288Y-56749780I2000005J-5D01*
G01*
X56243142Y-62639781D02*
G75*
G02*
X58537465Y-60799780I2293456J-509330D01*
G01*
X63602288Y-60299780D02*
G75*
G02*
X63102288Y-60799780I-500001J1D01*
G01*
G04 #@! TO.C,MX85*
X128852224Y-58749780D02*
X128852224Y-59549780D01*
X128852224Y-62639780D02*
X128852224Y-62399780D01*
X134737400Y-60799780D02*
X139302224Y-60799780D01*
X136752224Y-56749780D02*
X130852224Y-56749780D01*
X139802224Y-56749780D02*
X138252224Y-56749780D01*
X139802224Y-56979780D02*
X139802224Y-56749780D01*
X139802224Y-60299780D02*
X139802224Y-59829780D01*
X128852224Y-58749780D02*
G75*
G02*
X130852224Y-56749780I2000005J-5D01*
G01*
X132443078Y-62639780D02*
G75*
G02*
X134737400Y-60799780I2293456J-509332D01*
G01*
X139802224Y-60299780D02*
G75*
G02*
X139302224Y-60799780I-500001J1D01*
G01*
D12*
G04 #@! TO.C,D32*
X317994264Y-48356250D02*
X317994264Y-52366250D01*
X317994264Y-52366250D02*
X319994264Y-52366250D01*
X319994264Y-48356250D02*
X319994264Y-52366250D01*
D11*
G04 #@! TO.C,MX27*
X211035176Y-47650220D02*
X211035176Y-48120219D01*
X211035176Y-50970220D02*
X211035176Y-51200220D01*
X211035176Y-51200220D02*
X212585176Y-51200220D01*
X214085176Y-51200220D02*
X219985176Y-51200220D01*
X216099999Y-47150220D02*
X211535176Y-47150220D01*
X221985176Y-45310220D02*
X221985176Y-45550220D01*
X221985176Y-49200220D02*
X221985176Y-48400220D01*
X211035176Y-47650220D02*
G75*
G02*
X211535176Y-47150220I500001J-1D01*
G01*
X218394322Y-45310219D02*
G75*
G02*
X216099999Y-47150220I-2293456J509330D01*
G01*
X221985176Y-49200220D02*
G75*
G02*
X219985176Y-51200220I-2000005J5D01*
G01*
G04 #@! TO.C,MX26*
X190764824Y-39699780D02*
X190764824Y-40499780D01*
X190764824Y-43589780D02*
X190764824Y-43349780D01*
X196650000Y-41749780D02*
X201214824Y-41749780D01*
X198664824Y-37699780D02*
X192764824Y-37699780D01*
X201714824Y-37699780D02*
X200164824Y-37699780D01*
X201714824Y-37929780D02*
X201714824Y-37699780D01*
X201714824Y-41249780D02*
X201714824Y-40779780D01*
X190764824Y-39699780D02*
G75*
G02*
X192764824Y-37699780I2000005J-5D01*
G01*
X194355678Y-43589780D02*
G75*
G02*
X196650000Y-41749780I2293456J-509332D01*
G01*
X201714824Y-41249780D02*
G75*
G02*
X201214824Y-41749780I-500001J1D01*
G01*
D12*
G04 #@! TO.C,D48*
X27482008Y-81693750D02*
X27482008Y-85703750D01*
X27482008Y-85703750D02*
X29482008Y-85703750D01*
X29482008Y-81693750D02*
X29482008Y-85703750D01*
G04 #@! TO.C,D26*
X207756088Y-44909352D02*
X207756088Y-40899352D01*
X209756088Y-40899352D02*
X207756088Y-40899352D01*
X209756088Y-44909352D02*
X209756088Y-40899352D01*
D11*
G04 #@! TO.C,MX13*
X247914824Y-20649780D02*
X247914824Y-21449780D01*
X247914824Y-24539780D02*
X247914824Y-24299780D01*
X253800000Y-22699780D02*
X258364824Y-22699780D01*
X255814824Y-18649780D02*
X249914824Y-18649780D01*
X258864824Y-18649780D02*
X257314824Y-18649780D01*
X258864824Y-18879780D02*
X258864824Y-18649780D01*
X258864824Y-22199780D02*
X258864824Y-21729780D01*
X247914824Y-20649780D02*
G75*
G02*
X249914824Y-18649780I2000005J-5D01*
G01*
X251505678Y-24539780D02*
G75*
G02*
X253800000Y-22699780I2293456J-509332D01*
G01*
X258864824Y-22199780D02*
G75*
G02*
X258364824Y-22699780I-500001J1D01*
G01*
G04 #@! TO.C,MX53*
X106260176Y-85750220D02*
X106260176Y-86220220D01*
X106260176Y-89070220D02*
X106260176Y-89300220D01*
X106260176Y-89300220D02*
X107810176Y-89300220D01*
X109310176Y-89300220D02*
X115210176Y-89300220D01*
X111325000Y-85250220D02*
X106760176Y-85250220D01*
X117210176Y-83410220D02*
X117210176Y-83650220D01*
X117210176Y-87300220D02*
X117210176Y-86500220D01*
X106260176Y-85750220D02*
G75*
G02*
X106760176Y-85250220I500001J-1D01*
G01*
X113619322Y-83410220D02*
G75*
G02*
X111325000Y-85250220I-2293456J509332D01*
G01*
X117210176Y-87300220D02*
G75*
G02*
X115210176Y-89300220I-2000005J5D01*
G01*
D12*
G04 #@! TO.C,C5*
X301710072Y-56060543D02*
X301710072Y-56341705D01*
X302730072Y-56060543D02*
X302730072Y-56341705D01*
G04 #@! TO.C,D39*
X146979576Y-67857768D02*
X150989576Y-67857768D01*
X146979576Y-69857768D02*
X150989576Y-69857768D01*
X150989576Y-69857768D02*
X150989576Y-67857768D01*
G04 #@! TO.C,Y1*
X305400052Y-73117347D02*
X307733505Y-75450800D01*
X308228479Y-70288920D02*
X305400052Y-73117347D01*
G04 #@! TO.C,C16*
X308067476Y-56093288D02*
X308067476Y-56308960D01*
X308787476Y-56093288D02*
X308787476Y-56308960D01*
D11*
G04 #@! TO.C,MX62*
X247914824Y-77799780D02*
X247914824Y-78599780D01*
X247914824Y-81689780D02*
X247914824Y-81449780D01*
X253800000Y-79849780D02*
X258364824Y-79849780D01*
X255814824Y-75799780D02*
X249914824Y-75799780D01*
X258864824Y-75799780D02*
X257314824Y-75799780D01*
X258864824Y-76029780D02*
X258864824Y-75799780D01*
X258864824Y-79349780D02*
X258864824Y-78879780D01*
X247914824Y-77799780D02*
G75*
G02*
X249914824Y-75799780I2000005J-5D01*
G01*
X251505678Y-81689780D02*
G75*
G02*
X253800000Y-79849780I2293456J-509332D01*
G01*
X258864824Y-79349780D02*
G75*
G02*
X258364824Y-79849780I-500001J1D01*
G01*
G04 #@! TO.C,MX78*
X196747520Y-47650220D02*
X196747520Y-48120219D01*
X196747520Y-50970220D02*
X196747520Y-51200220D01*
X196747520Y-51200220D02*
X198297520Y-51200220D01*
X199797520Y-51200220D02*
X205697520Y-51200220D01*
X201812343Y-47150220D02*
X197247520Y-47150220D01*
X207697520Y-45310220D02*
X207697520Y-45550220D01*
X207697520Y-49200220D02*
X207697520Y-48400220D01*
X196747520Y-47650220D02*
G75*
G02*
X197247520Y-47150220I500001J-1D01*
G01*
X204106666Y-45310219D02*
G75*
G02*
X201812343Y-47150220I-2293456J509330D01*
G01*
X207697520Y-49200220D02*
G75*
G02*
X205697520Y-51200220I-2000005J5D01*
G01*
G04 #@! TO.C,MX4*
X76464824Y-20649780D02*
X76464824Y-21449780D01*
X76464824Y-24539780D02*
X76464824Y-24299780D01*
X82350000Y-22699780D02*
X86914824Y-22699780D01*
X84364824Y-18649780D02*
X78464824Y-18649780D01*
X87414824Y-18649780D02*
X85864824Y-18649780D01*
X87414824Y-18879780D02*
X87414824Y-18649780D01*
X87414824Y-22199780D02*
X87414824Y-21729780D01*
X76464824Y-20649780D02*
G75*
G02*
X78464824Y-18649780I2000005J-5D01*
G01*
X80055678Y-24539780D02*
G75*
G02*
X82350000Y-22699780I2293456J-509332D01*
G01*
X87414824Y-22199780D02*
G75*
G02*
X86914824Y-22699780I-500001J1D01*
G01*
G04 #@! TO.C,MX61*
X228864824Y-77799780D02*
X228864824Y-78599780D01*
X228864824Y-81689780D02*
X228864824Y-81449780D01*
X234750000Y-79849780D02*
X239314824Y-79849780D01*
X236764824Y-75799780D02*
X230864824Y-75799780D01*
X239814824Y-75799780D02*
X238264824Y-75799780D01*
X239814824Y-76029780D02*
X239814824Y-75799780D01*
X239814824Y-79349780D02*
X239814824Y-78879780D01*
X228864824Y-77799780D02*
G75*
G02*
X230864824Y-75799780I2000005J-5D01*
G01*
X232455678Y-81689780D02*
G75*
G02*
X234750000Y-79849780I2293456J-509332D01*
G01*
X239814824Y-79349780D02*
G75*
G02*
X239314824Y-79849780I-500001J1D01*
G01*
D12*
G04 #@! TO.C,D9*
X179881880Y-24543750D02*
X179881880Y-28553750D01*
X179881880Y-28553750D02*
X181881880Y-28553750D01*
X181881880Y-24543750D02*
X181881880Y-28553750D01*
D11*
G04 #@! TO.C,MX41*
X172935176Y-66700220D02*
X172935176Y-67170219D01*
X172935176Y-70020220D02*
X172935176Y-70250220D01*
X172935176Y-70250220D02*
X174485176Y-70250220D01*
X175985176Y-70250220D02*
X181885176Y-70250220D01*
X177999999Y-66200220D02*
X173435176Y-66200220D01*
X183885176Y-64360220D02*
X183885176Y-64600220D01*
X183885176Y-68250220D02*
X183885176Y-67450220D01*
X172935176Y-66700220D02*
G75*
G02*
X173435176Y-66200220I500001J-1D01*
G01*
X180294322Y-64360219D02*
G75*
G02*
X177999999Y-66200220I-2293456J509330D01*
G01*
X183885176Y-68250220D02*
G75*
G02*
X181885176Y-70250220I-2000005J5D01*
G01*
G04 #@! TO.C,MX15*
X286014824Y-20649780D02*
X286014824Y-21449780D01*
X286014824Y-24539780D02*
X286014824Y-24299780D01*
X291900000Y-22699780D02*
X296464824Y-22699780D01*
X293914824Y-18649780D02*
X288014824Y-18649780D01*
X296964824Y-18649780D02*
X295414824Y-18649780D01*
X296964824Y-18879780D02*
X296964824Y-18649780D01*
X296964824Y-22199780D02*
X296964824Y-21729780D01*
X286014824Y-20649780D02*
G75*
G02*
X288014824Y-18649780I2000005J-5D01*
G01*
X289605678Y-24539780D02*
G75*
G02*
X291900000Y-22699780I2293456J-509332D01*
G01*
X296964824Y-22199780D02*
G75*
G02*
X296464824Y-22699780I-500001J1D01*
G01*
D12*
G04 #@! TO.C,C11*
X321759652Y-57432740D02*
X321759652Y-57648412D01*
X322479652Y-57432740D02*
X322479652Y-57648412D01*
D11*
G04 #@! TO.C,MX57*
X171714824Y-77799780D02*
X171714824Y-78599780D01*
X171714824Y-81689780D02*
X171714824Y-81449780D01*
X177600000Y-79849780D02*
X182164824Y-79849780D01*
X179614824Y-75799780D02*
X173714824Y-75799780D01*
X182664824Y-75799780D02*
X181114824Y-75799780D01*
X182664824Y-76029780D02*
X182664824Y-75799780D01*
X182664824Y-79349780D02*
X182664824Y-78879780D01*
X171714824Y-77799780D02*
G75*
G02*
X173714824Y-75799780I2000005J-5D01*
G01*
X175305678Y-81689780D02*
G75*
G02*
X177600000Y-79849780I2293456J-509332D01*
G01*
X182664824Y-79349780D02*
G75*
G02*
X182164824Y-79849780I-500001J1D01*
G01*
D12*
G04 #@! TO.C,D58*
X198931864Y-81693750D02*
X198931864Y-85703750D01*
X198931864Y-85703750D02*
X200931864Y-85703750D01*
X200931864Y-81693750D02*
X200931864Y-85703750D01*
D11*
G04 #@! TO.C,MX39*
X134835176Y-66700220D02*
X134835176Y-67170219D01*
X134835176Y-70020220D02*
X134835176Y-70250220D01*
X134835176Y-70250220D02*
X136385176Y-70250220D01*
X137885176Y-70250220D02*
X143785176Y-70250220D01*
X139899999Y-66200220D02*
X135335176Y-66200220D01*
X145785176Y-64360220D02*
X145785176Y-64600220D01*
X145785176Y-68250220D02*
X145785176Y-67450220D01*
X134835176Y-66700220D02*
G75*
G02*
X135335176Y-66200220I500001J-1D01*
G01*
X142194322Y-64360219D02*
G75*
G02*
X139899999Y-66200220I-2293456J509330D01*
G01*
X145785176Y-68250220D02*
G75*
G02*
X143785176Y-70250220I-2000005J5D01*
G01*
G04 #@! TO.C,MX68*
X219339648Y-20649772D02*
X219339648Y-21449772D01*
X219339648Y-24539772D02*
X219339648Y-24299772D01*
X225224825Y-22699772D02*
X229789648Y-22699772D01*
X227239648Y-18649772D02*
X221339648Y-18649772D01*
X230289648Y-18649772D02*
X228739648Y-18649772D01*
X230289648Y-18879772D02*
X230289648Y-18649772D01*
X230289648Y-22199772D02*
X230289648Y-21729773D01*
X219339648Y-20649772D02*
G75*
G02*
X221339648Y-18649772I2000005J-5D01*
G01*
X222930502Y-24539773D02*
G75*
G02*
X225224825Y-22699772I2293456J-509330D01*
G01*
X230289648Y-22199772D02*
G75*
G02*
X229789648Y-22699772I-500001J1D01*
G01*
G04 #@! TO.C,MX66*
X144360176Y-85750220D02*
X144360176Y-86220220D01*
X144360176Y-89070220D02*
X144360176Y-89300220D01*
X144360176Y-89300220D02*
X145910176Y-89300220D01*
X147410176Y-89300220D02*
X153310176Y-89300220D01*
X149425000Y-85250220D02*
X144860176Y-85250220D01*
X155310176Y-83410220D02*
X155310176Y-83650220D01*
X155310176Y-87300220D02*
X155310176Y-86500220D01*
X144360176Y-85750220D02*
G75*
G02*
X144860176Y-85250220I500001J-1D01*
G01*
X151719322Y-83410220D02*
G75*
G02*
X149425000Y-85250220I-2293456J509332D01*
G01*
X155310176Y-87300220D02*
G75*
G02*
X153310176Y-89300220I-2000005J5D01*
G01*
D12*
G04 #@! TO.C,D37*
X108879608Y-67857768D02*
X112889608Y-67857768D01*
X108879608Y-69857768D02*
X112889608Y-69857768D01*
X112889608Y-69857768D02*
X112889608Y-67857768D01*
G04 #@! TO.C,D40*
X166029560Y-67857768D02*
X170039560Y-67857768D01*
X166029560Y-69857768D02*
X170039560Y-69857768D01*
X170039560Y-69857768D02*
X170039560Y-67857768D01*
D11*
G04 #@! TO.C,MX14*
X266964824Y-20649780D02*
X266964824Y-21449780D01*
X266964824Y-24539780D02*
X266964824Y-24299780D01*
X272850000Y-22699780D02*
X277414824Y-22699780D01*
X274864824Y-18649780D02*
X268964824Y-18649780D01*
X277914824Y-18649780D02*
X276364824Y-18649780D01*
X277914824Y-18879780D02*
X277914824Y-18649780D01*
X277914824Y-22199780D02*
X277914824Y-21729780D01*
X266964824Y-20649780D02*
G75*
G02*
X268964824Y-18649780I2000005J-5D01*
G01*
X270555678Y-24539780D02*
G75*
G02*
X272850000Y-22699780I2293456J-509332D01*
G01*
X277914824Y-22199780D02*
G75*
G02*
X277414824Y-22699780I-500001J1D01*
G01*
D12*
G04 #@! TO.C,R3*
X321529153Y-40194184D02*
X321221871Y-40194184D01*
X321529153Y-40954184D02*
X321221871Y-40954184D01*
D11*
G04 #@! TO.C,MX88*
X186002176Y-58749780D02*
X186002176Y-59549780D01*
X186002176Y-62639780D02*
X186002176Y-62399780D01*
X191887352Y-60799780D02*
X196452176Y-60799780D01*
X193902176Y-56749780D02*
X188002176Y-56749780D01*
X196952176Y-56749780D02*
X195402176Y-56749780D01*
X196952176Y-56979780D02*
X196952176Y-56749780D01*
X196952176Y-60299780D02*
X196952176Y-59829780D01*
X186002176Y-58749780D02*
G75*
G02*
X188002176Y-56749780I2000005J-5D01*
G01*
X189593030Y-62639780D02*
G75*
G02*
X191887352Y-60799780I2293456J-509332D01*
G01*
X196952176Y-60299780D02*
G75*
G02*
X196452176Y-60799780I-500001J1D01*
G01*
G04 #@! TO.C,MX40*
X153885176Y-66700220D02*
X153885176Y-67170219D01*
X153885176Y-70020220D02*
X153885176Y-70250220D01*
X153885176Y-70250220D02*
X155435176Y-70250220D01*
X156935176Y-70250220D02*
X162835176Y-70250220D01*
X158949999Y-66200220D02*
X154385176Y-66200220D01*
X164835176Y-64360220D02*
X164835176Y-64600220D01*
X164835176Y-68250220D02*
X164835176Y-67450220D01*
X153885176Y-66700220D02*
G75*
G02*
X154385176Y-66200220I500001J-1D01*
G01*
X161244322Y-64360219D02*
G75*
G02*
X158949999Y-66200220I-2293456J509330D01*
G01*
X164835176Y-68250220D02*
G75*
G02*
X162835176Y-70250220I-2000005J5D01*
G01*
G04 #@! TO.C,MX11*
X211035176Y-28600220D02*
X211035176Y-29070219D01*
X211035176Y-31920220D02*
X211035176Y-32150220D01*
X211035176Y-32150220D02*
X212585176Y-32150220D01*
X214085176Y-32150220D02*
X219985176Y-32150220D01*
X216099999Y-28100220D02*
X211535176Y-28100220D01*
X221985176Y-26260220D02*
X221985176Y-26500220D01*
X221985176Y-30150220D02*
X221985176Y-29350220D01*
X211035176Y-28600220D02*
G75*
G02*
X211535176Y-28100220I500001J-1D01*
G01*
X218394322Y-26260219D02*
G75*
G02*
X216099999Y-28100220I-2293456J509330D01*
G01*
X221985176Y-30150220D02*
G75*
G02*
X219985176Y-32150220I-2000005J5D01*
G01*
G04 #@! TO.C,MX89*
X205052160Y-58749780D02*
X205052160Y-59549780D01*
X205052160Y-62639780D02*
X205052160Y-62399780D01*
X210937336Y-60799780D02*
X215502160Y-60799780D01*
X212952160Y-56749780D02*
X207052160Y-56749780D01*
X216002160Y-56749780D02*
X214452160Y-56749780D01*
X216002160Y-56979780D02*
X216002160Y-56749780D01*
X216002160Y-60299780D02*
X216002160Y-59829780D01*
X205052160Y-58749780D02*
G75*
G02*
X207052160Y-56749780I2000005J-5D01*
G01*
X208643014Y-62639780D02*
G75*
G02*
X210937336Y-60799780I2293456J-509332D01*
G01*
X216002160Y-60299780D02*
G75*
G02*
X215502160Y-60799780I-500001J1D01*
G01*
D12*
G04 #@! TO.C,U4*
X317459888Y-60471040D02*
X317459888Y-63196040D01*
X317459888Y-65921040D02*
X317459888Y-63196040D01*
X317719888Y-60471040D02*
X317459888Y-60471040D01*
X317719888Y-65921040D02*
X317459888Y-65921040D01*
X322649888Y-60471040D02*
X322909888Y-60471040D01*
X322649888Y-65921040D02*
X322909888Y-65921040D01*
X322909888Y-60471040D02*
X322909888Y-63196040D01*
X322909888Y-65921040D02*
X322909888Y-63196040D01*
X322979888Y-66943540D02*
X322649888Y-66703540D01*
X322979888Y-66463540D01*
X322979888Y-66943540D01*
G36*
X322979888Y-66943540D02*
G01*
X322649888Y-66703540D01*
X322979888Y-66463540D01*
X322979888Y-66943540D01*
G37*
D11*
G04 #@! TO.C,MX48*
X19314824Y-77799780D02*
X19314824Y-78599780D01*
X19314824Y-81689780D02*
X19314824Y-81449780D01*
X25200001Y-79849780D02*
X29764824Y-79849780D01*
X27214824Y-75799780D02*
X21314824Y-75799780D01*
X30264824Y-75799780D02*
X28714824Y-75799780D01*
X30264824Y-76029780D02*
X30264824Y-75799780D01*
X30264824Y-79349780D02*
X30264824Y-78879781D01*
X19314824Y-77799780D02*
G75*
G02*
X21314824Y-75799780I2000005J-5D01*
G01*
X22905678Y-81689781D02*
G75*
G02*
X25200001Y-79849780I2293456J-509330D01*
G01*
X30264824Y-79349780D02*
G75*
G02*
X29764824Y-79849780I-500001J1D01*
G01*
G04 #@! TO.C,MX54*
X114564824Y-77799780D02*
X114564824Y-78599780D01*
X114564824Y-81689780D02*
X114564824Y-81449780D01*
X120450000Y-79849780D02*
X125014824Y-79849780D01*
X122464824Y-75799780D02*
X116564824Y-75799780D01*
X125514824Y-75799780D02*
X123964824Y-75799780D01*
X125514824Y-76029780D02*
X125514824Y-75799780D01*
X125514824Y-79349780D02*
X125514824Y-78879780D01*
X114564824Y-77799780D02*
G75*
G02*
X116564824Y-75799780I2000005J-5D01*
G01*
X118155678Y-81689780D02*
G75*
G02*
X120450000Y-79849780I2293456J-509332D01*
G01*
X125514824Y-79349780D02*
G75*
G02*
X125014824Y-79849780I-500001J1D01*
G01*
D12*
G04 #@! TO.C,D42*
X204129528Y-67857768D02*
X208139528Y-67857768D01*
X204129528Y-69857768D02*
X208139528Y-69857768D01*
X208139528Y-69857768D02*
X208139528Y-67857768D01*
G04 #@! TO.C,D14*
X275131800Y-24543750D02*
X275131800Y-28553750D01*
X275131800Y-28553750D02*
X277131800Y-28553750D01*
X277131800Y-24543750D02*
X277131800Y-28553750D01*
D11*
G04 #@! TO.C,MX70*
X44347648Y-47650220D02*
X44347648Y-48120219D01*
X44347648Y-50970220D02*
X44347648Y-51200220D01*
X44347648Y-51200220D02*
X45897648Y-51200220D01*
X47397648Y-51200220D02*
X53297648Y-51200220D01*
X49412471Y-47150220D02*
X44847648Y-47150220D01*
X55297648Y-45310220D02*
X55297648Y-45550220D01*
X55297648Y-49200220D02*
X55297648Y-48400220D01*
X44347648Y-47650220D02*
G75*
G02*
X44847648Y-47150220I500001J-1D01*
G01*
X51706794Y-45310219D02*
G75*
G02*
X49412471Y-47150220I-2293456J509330D01*
G01*
X55297648Y-49200220D02*
G75*
G02*
X53297648Y-51200220I-2000005J5D01*
G01*
G04 #@! TO.C,MX21*
X95514824Y-39699780D02*
X95514824Y-40499780D01*
X95514824Y-43589780D02*
X95514824Y-43349780D01*
X101400000Y-41749780D02*
X105964824Y-41749780D01*
X103414824Y-37699780D02*
X97514824Y-37699780D01*
X106464824Y-37699780D02*
X104914824Y-37699780D01*
X106464824Y-37929780D02*
X106464824Y-37699780D01*
X106464824Y-41249780D02*
X106464824Y-40779780D01*
X95514824Y-39699780D02*
G75*
G02*
X97514824Y-37699780I2000005J-5D01*
G01*
X99105678Y-43589780D02*
G75*
G02*
X101400000Y-41749780I2293456J-509332D01*
G01*
X106464824Y-41249780D02*
G75*
G02*
X105964824Y-41749780I-500001J1D01*
G01*
G04 #@! TO.C,MX59*
X209814824Y-77799780D02*
X209814824Y-78599780D01*
X209814824Y-81689780D02*
X209814824Y-81449780D01*
X215700000Y-79849780D02*
X220264824Y-79849780D01*
X217714824Y-75799780D02*
X211814824Y-75799780D01*
X220764824Y-75799780D02*
X219214824Y-75799780D01*
X220764824Y-76029780D02*
X220764824Y-75799780D01*
X220764824Y-79349780D02*
X220764824Y-78879780D01*
X209814824Y-77799780D02*
G75*
G02*
X211814824Y-75799780I2000005J-5D01*
G01*
X213405678Y-81689780D02*
G75*
G02*
X215700000Y-79849780I2293456J-509332D01*
G01*
X220764824Y-79349780D02*
G75*
G02*
X220264824Y-79849780I-500001J1D01*
G01*
G04 #@! TO.C,MX25*
X171714824Y-39699780D02*
X171714824Y-40499780D01*
X171714824Y-43589780D02*
X171714824Y-43349780D01*
X177600000Y-41749780D02*
X182164824Y-41749780D01*
X179614824Y-37699780D02*
X173714824Y-37699780D01*
X182664824Y-37699780D02*
X181114824Y-37699780D01*
X182664824Y-37929780D02*
X182664824Y-37699780D01*
X182664824Y-41249780D02*
X182664824Y-40779780D01*
X171714824Y-39699780D02*
G75*
G02*
X173714824Y-37699780I2000005J-5D01*
G01*
X175305678Y-43589780D02*
G75*
G02*
X177600000Y-41749780I2293456J-509332D01*
G01*
X182664824Y-41249780D02*
G75*
G02*
X182164824Y-41749780I-500001J1D01*
G01*
D12*
G04 #@! TO.C,D28*
X241931840Y-48807784D02*
X245941840Y-48807784D01*
X241931840Y-50807784D02*
X245941840Y-50807784D01*
X245941840Y-50807784D02*
X245941840Y-48807784D01*
G04 #@! TO.C,D10*
X198931864Y-24543750D02*
X198931864Y-28553750D01*
X198931864Y-28553750D02*
X200931864Y-28553750D01*
X200931864Y-24543750D02*
X200931864Y-28553750D01*
G04 #@! TO.C,MX32*
X313369607Y-43612500D02*
X316412500Y-43612500D01*
X312369607Y-44612500D02*
G75*
G02*
X313369607Y-43612500I1000006J-6D01*
G01*
D11*
G04 #@! TO.C,MX43*
X211035176Y-66700220D02*
X211035176Y-67170219D01*
X211035176Y-70020220D02*
X211035176Y-70250220D01*
X211035176Y-70250220D02*
X212585176Y-70250220D01*
X214085176Y-70250220D02*
X219985176Y-70250220D01*
X216099999Y-66200220D02*
X211535176Y-66200220D01*
X221985176Y-64360220D02*
X221985176Y-64600220D01*
X221985176Y-68250220D02*
X221985176Y-67450220D01*
X211035176Y-66700220D02*
G75*
G02*
X211535176Y-66200220I500001J-1D01*
G01*
X218394322Y-64360219D02*
G75*
G02*
X216099999Y-66200220I-2293456J509330D01*
G01*
X221985176Y-68250220D02*
G75*
G02*
X219985176Y-70250220I-2000005J5D01*
G01*
D12*
G04 #@! TO.C,C12*
X305715418Y-74834103D02*
X305867921Y-74986606D01*
X306224535Y-74324986D02*
X306377038Y-74477489D01*
D11*
G04 #@! TO.C,MX86*
X147902208Y-58749780D02*
X147902208Y-59549780D01*
X147902208Y-62639780D02*
X147902208Y-62399780D01*
X153787384Y-60799780D02*
X158352208Y-60799780D01*
X155802208Y-56749780D02*
X149902208Y-56749780D01*
X158852208Y-56749780D02*
X157302208Y-56749780D01*
X158852208Y-56979780D02*
X158852208Y-56749780D01*
X158852208Y-60299780D02*
X158852208Y-59829780D01*
X147902208Y-58749780D02*
G75*
G02*
X149902208Y-56749780I2000005J-5D01*
G01*
X151493062Y-62639780D02*
G75*
G02*
X153787384Y-60799780I2293456J-509332D01*
G01*
X158852208Y-60299780D02*
G75*
G02*
X158352208Y-60799780I-500001J1D01*
G01*
G04 #@! TO.C,MX22*
X114564824Y-39699780D02*
X114564824Y-40499780D01*
X114564824Y-43589780D02*
X114564824Y-43349780D01*
X120450000Y-41749780D02*
X125014824Y-41749780D01*
X122464824Y-37699780D02*
X116564824Y-37699780D01*
X125514824Y-37699780D02*
X123964824Y-37699780D01*
X125514824Y-37929780D02*
X125514824Y-37699780D01*
X125514824Y-41249780D02*
X125514824Y-40779780D01*
X114564824Y-39699780D02*
G75*
G02*
X116564824Y-37699780I2000005J-5D01*
G01*
X118155678Y-43589780D02*
G75*
G02*
X120450000Y-41749780I2293456J-509332D01*
G01*
X125514824Y-41249780D02*
G75*
G02*
X125014824Y-41749780I-500001J1D01*
G01*
D12*
G04 #@! TO.C,D54*
X122731928Y-81693750D02*
X122731928Y-85703750D01*
X122731928Y-85703750D02*
X124731928Y-85703750D01*
X124731928Y-81693750D02*
X124731928Y-85703750D01*
G04 #@! TO.C,D16*
X317994264Y-24543750D02*
X317994264Y-28553750D01*
X317994264Y-28553750D02*
X319994264Y-28553750D01*
X319994264Y-24543750D02*
X319994264Y-28553750D01*
D11*
G04 #@! TO.C,MX46*
X266964824Y-58749780D02*
X266964824Y-59549780D01*
X266964824Y-62639780D02*
X266964824Y-62399780D01*
X272850001Y-60799780D02*
X277414824Y-60799780D01*
X274864824Y-56749780D02*
X268964824Y-56749780D01*
X277914824Y-56749780D02*
X276364824Y-56749780D01*
X277914824Y-56979780D02*
X277914824Y-56749780D01*
X277914824Y-60299780D02*
X277914824Y-59829781D01*
X266964824Y-58749780D02*
G75*
G02*
X268964824Y-56749780I2000005J-5D01*
G01*
X270555678Y-62639781D02*
G75*
G02*
X272850001Y-60799780I2293456J-509330D01*
G01*
X277914824Y-60299780D02*
G75*
G02*
X277414824Y-60799780I-500001J1D01*
G01*
D12*
G04 #@! TO.C,D36*
X89829624Y-67857768D02*
X93839624Y-67857768D01*
X89829624Y-69857768D02*
X93839624Y-69857768D01*
X93839624Y-69857768D02*
X93839624Y-67857768D01*
D11*
G04 #@! TO.C,MX56*
X152664824Y-77799780D02*
X152664824Y-78599780D01*
X152664824Y-81689780D02*
X152664824Y-81449780D01*
X158550000Y-79849780D02*
X163114824Y-79849780D01*
X160564824Y-75799780D02*
X154664824Y-75799780D01*
X163614824Y-75799780D02*
X162064824Y-75799780D01*
X163614824Y-76029780D02*
X163614824Y-75799780D01*
X163614824Y-79349780D02*
X163614824Y-78879780D01*
X152664824Y-77799780D02*
G75*
G02*
X154664824Y-75799780I2000005J-5D01*
G01*
X156255678Y-81689780D02*
G75*
G02*
X158550000Y-79849780I2293456J-509332D01*
G01*
X163614824Y-79349780D02*
G75*
G02*
X163114824Y-79849780I-500001J1D01*
G01*
G04 #@! TO.C,MX72*
X82447616Y-47650220D02*
X82447616Y-48120219D01*
X82447616Y-50970220D02*
X82447616Y-51200220D01*
X82447616Y-51200220D02*
X83997616Y-51200220D01*
X85497616Y-51200220D02*
X91397616Y-51200220D01*
X87512439Y-47150220D02*
X82947616Y-47150220D01*
X93397616Y-45310220D02*
X93397616Y-45550220D01*
X93397616Y-49200220D02*
X93397616Y-48400220D01*
X82447616Y-47650220D02*
G75*
G02*
X82947616Y-47150220I500001J-1D01*
G01*
X89806762Y-45310219D02*
G75*
G02*
X87512439Y-47150220I-2293456J509330D01*
G01*
X93397616Y-49200220D02*
G75*
G02*
X91397616Y-51200220I-2000005J5D01*
G01*
D12*
G04 #@! TO.C,D33*
X39823416Y-67857768D02*
X43833416Y-67857768D01*
X39823416Y-69857768D02*
X43833416Y-69857768D01*
X43833416Y-69857768D02*
X43833416Y-67857768D01*
G04 #@! TO.C,D63*
X275131800Y-81693750D02*
X275131800Y-85703750D01*
X275131800Y-85703750D02*
X277131800Y-85703750D01*
X277131800Y-81693750D02*
X277131800Y-85703750D01*
G04 #@! TO.C,BOOT1*
X313118876Y-38597624D02*
X313118876Y-36597624D01*
X314618876Y-34847624D02*
X314168876Y-35297624D01*
X314618876Y-34847624D02*
X317118876Y-34847624D01*
X314618876Y-40347624D02*
X314168876Y-39897624D01*
X314618876Y-40347624D02*
X317118876Y-40347624D01*
X317118876Y-34847624D02*
X317568876Y-35297624D01*
X317118876Y-40347624D02*
X317568876Y-39897624D01*
X318618876Y-38597624D02*
X318618876Y-36597624D01*
G04 #@! TO.C,C4*
X305210513Y-69939941D02*
X305363016Y-69787438D01*
X305719630Y-70449058D02*
X305872133Y-70296555D01*
D11*
G04 #@! TO.C,MX29*
X247914824Y-39699780D02*
X247914824Y-40499780D01*
X247914824Y-43589780D02*
X247914824Y-43349780D01*
X253800000Y-41749780D02*
X258364824Y-41749780D01*
X255814824Y-37699780D02*
X249914824Y-37699780D01*
X258864824Y-37699780D02*
X257314824Y-37699780D01*
X258864824Y-37929780D02*
X258864824Y-37699780D01*
X258864824Y-41249780D02*
X258864824Y-40779780D01*
X247914824Y-39699780D02*
G75*
G02*
X249914824Y-37699780I2000005J-5D01*
G01*
X251505678Y-43589780D02*
G75*
G02*
X253800000Y-41749780I2293456J-509332D01*
G01*
X258864824Y-41249780D02*
G75*
G02*
X258364824Y-41749780I-500001J1D01*
G01*
G04 #@! TO.C,MX42*
X191985176Y-66700220D02*
X191985176Y-67170219D01*
X191985176Y-70020220D02*
X191985176Y-70250220D01*
X191985176Y-70250220D02*
X193535176Y-70250220D01*
X195035176Y-70250220D02*
X200935176Y-70250220D01*
X197049999Y-66200220D02*
X192485176Y-66200220D01*
X202935176Y-64360220D02*
X202935176Y-64600220D01*
X202935176Y-68250220D02*
X202935176Y-67450220D01*
X191985176Y-66700220D02*
G75*
G02*
X192485176Y-66200220I500001J-1D01*
G01*
X199344322Y-64360219D02*
G75*
G02*
X197049999Y-66200220I-2293456J509330D01*
G01*
X202935176Y-68250220D02*
G75*
G02*
X200935176Y-70250220I-2000005J5D01*
G01*
G04 #@! TO.C,MX33*
X19314824Y-58749780D02*
X19314824Y-59549780D01*
X19314824Y-62639780D02*
X19314824Y-62399780D01*
X25200000Y-60799780D02*
X29764824Y-60799780D01*
X27214824Y-56749780D02*
X21314824Y-56749780D01*
X30264824Y-56749780D02*
X28714824Y-56749780D01*
X30264824Y-56979780D02*
X30264824Y-56749780D01*
X30264824Y-60299780D02*
X30264824Y-59829780D01*
X19314824Y-58749780D02*
G75*
G02*
X21314824Y-56749780I2000005J-5D01*
G01*
X22905678Y-62639780D02*
G75*
G02*
X25200000Y-60799780I2293456J-509332D01*
G01*
X30264824Y-60299780D02*
G75*
G02*
X29764824Y-60799780I-500001J1D01*
G01*
D12*
G04 #@! TO.C,D2*
X46531992Y-24543750D02*
X46531992Y-28553750D01*
X46531992Y-28553750D02*
X48531992Y-28553750D01*
X48531992Y-24543750D02*
X48531992Y-28553750D01*
D11*
G04 #@! TO.C,MX34*
X38364824Y-58749780D02*
X38364824Y-59549780D01*
X38364824Y-62639780D02*
X38364824Y-62399780D01*
X44250000Y-60799780D02*
X48814824Y-60799780D01*
X46264824Y-56749780D02*
X40364824Y-56749780D01*
X49314824Y-56749780D02*
X47764824Y-56749780D01*
X49314824Y-56979780D02*
X49314824Y-56749780D01*
X49314824Y-60299780D02*
X49314824Y-59829780D01*
X38364824Y-58749780D02*
G75*
G02*
X40364824Y-56749780I2000005J-5D01*
G01*
X41955678Y-62639780D02*
G75*
G02*
X44250000Y-60799780I2293456J-509332D01*
G01*
X49314824Y-60299780D02*
G75*
G02*
X48814824Y-60799780I-500001J1D01*
G01*
D12*
G04 #@! TO.C,C14*
X303602636Y-56093288D02*
X303602636Y-56308960D01*
X304322636Y-56093288D02*
X304322636Y-56308960D01*
G04 #@! TO.C,D46*
X275131800Y-62643750D02*
X275131800Y-66653750D01*
X275131800Y-66653750D02*
X277131800Y-66653750D01*
X277131800Y-62643750D02*
X277131800Y-66653750D01*
G04 #@! TO.C,D25*
X189544384Y-48807784D02*
X193554384Y-48807784D01*
X189544384Y-50807784D02*
X193554384Y-50807784D01*
X193554384Y-50807784D02*
X193554384Y-48807784D01*
D11*
G04 #@! TO.C,MX87*
X166952192Y-58749780D02*
X166952192Y-59549780D01*
X166952192Y-62639780D02*
X166952192Y-62399780D01*
X172837368Y-60799780D02*
X177402192Y-60799780D01*
X174852192Y-56749780D02*
X168952192Y-56749780D01*
X177902192Y-56749780D02*
X176352192Y-56749780D01*
X177902192Y-56979780D02*
X177902192Y-56749780D01*
X177902192Y-60299780D02*
X177902192Y-59829780D01*
X166952192Y-58749780D02*
G75*
G02*
X168952192Y-56749780I2000005J-5D01*
G01*
X170543046Y-62639780D02*
G75*
G02*
X172837368Y-60799780I2293456J-509332D01*
G01*
X177902192Y-60299780D02*
G75*
G02*
X177402192Y-60799780I-500001J1D01*
G01*
D12*
G04 #@! TO.C,D47*
X294181784Y-62643750D02*
X294181784Y-66653750D01*
X294181784Y-66653750D02*
X296181784Y-66653750D01*
X296181784Y-62643750D02*
X296181784Y-66653750D01*
G04 #@! TO.C,J3*
X296074280Y-88562112D02*
X297404280Y-88562112D01*
X296074280Y-89892112D02*
X296074280Y-88562112D01*
X298674280Y-91222112D02*
X298674280Y-88562112D01*
X308894280Y-88562112D02*
X298674280Y-88562112D01*
X308894280Y-91222112D02*
X298674280Y-91222112D01*
X308894280Y-91222112D02*
X308894280Y-88562112D01*
D11*
G04 #@! TO.C,MX45*
X247914824Y-58749780D02*
X247914824Y-59549780D01*
X247914824Y-62639780D02*
X247914824Y-62399780D01*
X253800001Y-60799780D02*
X258364824Y-60799780D01*
X255814824Y-56749780D02*
X249914824Y-56749780D01*
X258864824Y-56749780D02*
X257314824Y-56749780D01*
X258864824Y-56979780D02*
X258864824Y-56749780D01*
X258864824Y-60299780D02*
X258864824Y-59829781D01*
X247914824Y-58749780D02*
G75*
G02*
X249914824Y-56749780I2000005J-5D01*
G01*
X251505678Y-62639781D02*
G75*
G02*
X253800001Y-60799780I2293456J-509330D01*
G01*
X258864824Y-60299780D02*
G75*
G02*
X258364824Y-60799780I-500001J1D01*
G01*
D12*
G04 #@! TO.C,D57*
X179881880Y-81693750D02*
X179881880Y-85703750D01*
X179881880Y-85703750D02*
X181881880Y-85703750D01*
X181881880Y-81693750D02*
X181881880Y-85703750D01*
G04 #@! TO.C,R5*
X298373656Y-72618025D02*
X298373656Y-72310743D01*
X299133656Y-72618025D02*
X299133656Y-72310743D01*
D11*
G04 #@! TO.C,MX64*
X286014824Y-77799780D02*
X286014824Y-78599780D01*
X286014824Y-81689780D02*
X286014824Y-81449780D01*
X291900000Y-79849780D02*
X296464824Y-79849780D01*
X293914824Y-75799780D02*
X288014824Y-75799780D01*
X296964824Y-75799780D02*
X295414824Y-75799780D01*
X296964824Y-76029780D02*
X296964824Y-75799780D01*
X296964824Y-79349780D02*
X296964824Y-78879780D01*
X286014824Y-77799780D02*
G75*
G02*
X288014824Y-75799780I2000005J-5D01*
G01*
X289605678Y-81689780D02*
G75*
G02*
X291900000Y-79849780I2293456J-509332D01*
G01*
X296964824Y-79349780D02*
G75*
G02*
X296464824Y-79849780I-500001J1D01*
G01*
G04 #@! TO.C,MX18*
X38364824Y-39699780D02*
X38364824Y-40499780D01*
X38364824Y-43589780D02*
X38364824Y-43349780D01*
X44250000Y-41749780D02*
X48814824Y-41749780D01*
X46264824Y-37699780D02*
X40364824Y-37699780D01*
X49314824Y-37699780D02*
X47764824Y-37699780D01*
X49314824Y-37929780D02*
X49314824Y-37699780D01*
X49314824Y-41249780D02*
X49314824Y-40779780D01*
X38364824Y-39699780D02*
G75*
G02*
X40364824Y-37699780I2000005J-5D01*
G01*
X41955678Y-43589780D02*
G75*
G02*
X44250000Y-41749780I2293456J-509332D01*
G01*
X49314824Y-41249780D02*
G75*
G02*
X48814824Y-41749780I-500001J1D01*
G01*
G04 #@! TO.C,MX63*
X266964824Y-77799780D02*
X266964824Y-78599780D01*
X266964824Y-81689780D02*
X266964824Y-81449780D01*
X272850000Y-79849780D02*
X277414824Y-79849780D01*
X274864824Y-75799780D02*
X268964824Y-75799780D01*
X277914824Y-75799780D02*
X276364824Y-75799780D01*
X277914824Y-76029780D02*
X277914824Y-75799780D01*
X277914824Y-79349780D02*
X277914824Y-78879780D01*
X266964824Y-77799780D02*
G75*
G02*
X268964824Y-75799780I2000005J-5D01*
G01*
X270555678Y-81689780D02*
G75*
G02*
X272850000Y-79849780I2293456J-509332D01*
G01*
X277914824Y-79349780D02*
G75*
G02*
X277414824Y-79849780I-500001J1D01*
G01*
D12*
G04 #@! TO.C,D8*
X160831896Y-24543750D02*
X160831896Y-28553750D01*
X160831896Y-28553750D02*
X162831896Y-28553750D01*
X162831896Y-24543750D02*
X162831896Y-28553750D01*
G04 #@! TO.C,C9*
X300506438Y-62927863D02*
X300658941Y-63080366D01*
X301015555Y-62418746D02*
X301168058Y-62571249D01*
G04 #@! TO.C,C15*
X307025680Y-56093288D02*
X307025680Y-56308960D01*
X307745680Y-56093288D02*
X307745680Y-56308960D01*
G04 #@! TO.C,D24*
X170494400Y-48807784D02*
X174504400Y-48807784D01*
X170494400Y-50807784D02*
X174504400Y-50807784D01*
X174504400Y-50807784D02*
X174504400Y-48807784D01*
D11*
G04 #@! TO.C,MX60*
X220560176Y-85750220D02*
X220560176Y-86220220D01*
X220560176Y-89070220D02*
X220560176Y-89300220D01*
X220560176Y-89300220D02*
X222110176Y-89300220D01*
X223610176Y-89300220D02*
X229510176Y-89300220D01*
X225625000Y-85250220D02*
X221060176Y-85250220D01*
X231510176Y-83410220D02*
X231510176Y-83650220D01*
X231510176Y-87300220D02*
X231510176Y-86500220D01*
X220560176Y-85750220D02*
G75*
G02*
X221060176Y-85250220I500001J-1D01*
G01*
X227919322Y-83410220D02*
G75*
G02*
X225625000Y-85250220I-2293456J509332D01*
G01*
X231510176Y-87300220D02*
G75*
G02*
X229510176Y-89300220I-2000005J5D01*
G01*
G04 #@! TO.C,MX76*
X158647552Y-47650220D02*
X158647552Y-48120219D01*
X158647552Y-50970220D02*
X158647552Y-51200220D01*
X158647552Y-51200220D02*
X160197552Y-51200220D01*
X161697552Y-51200220D02*
X167597552Y-51200220D01*
X163712375Y-47150220D02*
X159147552Y-47150220D01*
X169597552Y-45310220D02*
X169597552Y-45550220D01*
X169597552Y-49200220D02*
X169597552Y-48400220D01*
X158647552Y-47650220D02*
G75*
G02*
X159147552Y-47150220I500001J-1D01*
G01*
X166006698Y-45310219D02*
G75*
G02*
X163712375Y-47150220I-2293456J509330D01*
G01*
X169597552Y-49200220D02*
G75*
G02*
X167597552Y-51200220I-2000005J5D01*
G01*
D12*
G04 #@! TO.C,C6*
X301860072Y-59522596D02*
X301860072Y-59738268D01*
X302580072Y-59522596D02*
X302580072Y-59738268D01*
G04 #@! TO.C,D34*
X51729656Y-67857768D02*
X55739656Y-67857768D01*
X51729656Y-69857768D02*
X55739656Y-69857768D01*
X55739656Y-69857768D02*
X55739656Y-67857768D01*
G04 #@! TO.C,MX2*
X41907107Y-19800000D02*
X44950000Y-19800000D01*
X40907107Y-20800000D02*
G75*
G02*
X41907107Y-19800000I1000006J-6D01*
G01*
D11*
G04 #@! TO.C,MX58*
X190764824Y-77799780D02*
X190764824Y-78599780D01*
X190764824Y-81689780D02*
X190764824Y-81449780D01*
X196650000Y-79849780D02*
X201214824Y-79849780D01*
X198664824Y-75799780D02*
X192764824Y-75799780D01*
X201714824Y-75799780D02*
X200164824Y-75799780D01*
X201714824Y-76029780D02*
X201714824Y-75799780D01*
X201714824Y-79349780D02*
X201714824Y-78879780D01*
X190764824Y-77799780D02*
G75*
G02*
X192764824Y-75799780I2000005J-5D01*
G01*
X194355678Y-81689780D02*
G75*
G02*
X196650000Y-79849780I2293456J-509332D01*
G01*
X201714824Y-79349780D02*
G75*
G02*
X201214824Y-79849780I-500001J1D01*
G01*
G04 #@! TO.C,MX6*
X114564824Y-20649780D02*
X114564824Y-21449780D01*
X114564824Y-24539780D02*
X114564824Y-24299780D01*
X120450000Y-22699780D02*
X125014824Y-22699780D01*
X122464824Y-18649780D02*
X116564824Y-18649780D01*
X125514824Y-18649780D02*
X123964824Y-18649780D01*
X125514824Y-18879780D02*
X125514824Y-18649780D01*
X125514824Y-22199780D02*
X125514824Y-21729780D01*
X114564824Y-20649780D02*
G75*
G02*
X116564824Y-18649780I2000005J-5D01*
G01*
X118155678Y-24539780D02*
G75*
G02*
X120450000Y-22699780I2293456J-509332D01*
G01*
X125514824Y-22199780D02*
G75*
G02*
X125014824Y-22699780I-500001J1D01*
G01*
D12*
G04 #@! TO.C,D20*
X94294464Y-48807784D02*
X98304464Y-48807784D01*
X94294464Y-50807784D02*
X98304464Y-50807784D01*
X98304464Y-50807784D02*
X98304464Y-48807784D01*
D11*
G04 #@! TO.C,MX8*
X152664824Y-20649780D02*
X152664824Y-21449780D01*
X152664824Y-24539780D02*
X152664824Y-24299780D01*
X158550000Y-22699780D02*
X163114824Y-22699780D01*
X160564824Y-18649780D02*
X154664824Y-18649780D01*
X163614824Y-18649780D02*
X162064824Y-18649780D01*
X163614824Y-18879780D02*
X163614824Y-18649780D01*
X163614824Y-22199780D02*
X163614824Y-21729780D01*
X152664824Y-20649780D02*
G75*
G02*
X154664824Y-18649780I2000005J-5D01*
G01*
X156255678Y-24539780D02*
G75*
G02*
X158550000Y-22699780I2293456J-509332D01*
G01*
X163614824Y-22199780D02*
G75*
G02*
X163114824Y-22699780I-500001J1D01*
G01*
G04 #@! TO.C,MX38*
X115785176Y-66700220D02*
X115785176Y-67170219D01*
X115785176Y-70020220D02*
X115785176Y-70250220D01*
X115785176Y-70250220D02*
X117335176Y-70250220D01*
X118835176Y-70250220D02*
X124735176Y-70250220D01*
X120849999Y-66200220D02*
X116285176Y-66200220D01*
X126735176Y-64360220D02*
X126735176Y-64600220D01*
X126735176Y-68250220D02*
X126735176Y-67450220D01*
X115785176Y-66700220D02*
G75*
G02*
X116285176Y-66200220I500001J-1D01*
G01*
X123144322Y-64360219D02*
G75*
G02*
X120849999Y-66200220I-2293456J509330D01*
G01*
X126735176Y-68250220D02*
G75*
G02*
X124735176Y-70250220I-2000005J5D01*
G01*
D12*
G04 #@! TO.C,R9*
X304844372Y-72343691D02*
X304627091Y-72560972D01*
X305381773Y-72881092D02*
X305164492Y-73098373D01*
D11*
G04 #@! TO.C,MX79*
X221720896Y-39699780D02*
X221720896Y-40499780D01*
X221720896Y-43589780D02*
X221720896Y-43349780D01*
X227606073Y-41749780D02*
X232170896Y-41749780D01*
X229620896Y-37699780D02*
X223720896Y-37699780D01*
X232670896Y-37699780D02*
X231120896Y-37699780D01*
X232670896Y-37929780D02*
X232670896Y-37699780D01*
X232670896Y-41249780D02*
X232670896Y-40779781D01*
X221720896Y-39699780D02*
G75*
G02*
X223720896Y-37699780I2000005J-5D01*
G01*
X225311750Y-43589781D02*
G75*
G02*
X227606073Y-41749780I2293456J-509330D01*
G01*
X232670896Y-41249780D02*
G75*
G02*
X232170896Y-41749780I-500001J1D01*
G01*
G04 #@! TO.C,MX7*
X133614824Y-20649780D02*
X133614824Y-21449780D01*
X133614824Y-24539780D02*
X133614824Y-24299780D01*
X139500000Y-22699780D02*
X144064824Y-22699780D01*
X141514824Y-18649780D02*
X135614824Y-18649780D01*
X144564824Y-18649780D02*
X143014824Y-18649780D01*
X144564824Y-18879780D02*
X144564824Y-18649780D01*
X144564824Y-22199780D02*
X144564824Y-21729780D01*
X133614824Y-20649780D02*
G75*
G02*
X135614824Y-18649780I2000005J-5D01*
G01*
X137205678Y-24539780D02*
G75*
G02*
X139500000Y-22699780I2293456J-509332D01*
G01*
X144564824Y-22199780D02*
G75*
G02*
X144064824Y-22699780I-500001J1D01*
G01*
D12*
G04 #@! TO.C,MX3*
X60957107Y-19800000D02*
X64000000Y-19800000D01*
X59957107Y-20800000D02*
G75*
G02*
X60957107Y-19800000I1000006J-6D01*
G01*
D11*
G04 #@! TO.C,MX55*
X133614824Y-77799780D02*
X133614824Y-78599780D01*
X133614824Y-81689780D02*
X133614824Y-81449780D01*
X139500000Y-79849780D02*
X144064824Y-79849780D01*
X141514824Y-75799780D02*
X135614824Y-75799780D01*
X144564824Y-75799780D02*
X143014824Y-75799780D01*
X144564824Y-76029780D02*
X144564824Y-75799780D01*
X144564824Y-79349780D02*
X144564824Y-78879780D01*
X133614824Y-77799780D02*
G75*
G02*
X135614824Y-75799780I2000005J-5D01*
G01*
X137205678Y-81689780D02*
G75*
G02*
X139500000Y-79849780I2293456J-509332D01*
G01*
X144564824Y-79349780D02*
G75*
G02*
X144064824Y-79849780I-500001J1D01*
G01*
D12*
G04 #@! TO.C,D5*
X103681944Y-24543750D02*
X103681944Y-28553750D01*
X103681944Y-28553750D02*
X105681944Y-28553750D01*
X105681944Y-24543750D02*
X105681944Y-28553750D01*
G04 #@! TD*
%LPC*%
D13*
G04 #@! TO.C,SW2*
X313412500Y-56712500D03*
X318412500Y-56712500D03*
D14*
X315912500Y-56712500D03*
D13*
X318412500Y-42212500D03*
X313412500Y-42212500D03*
G04 #@! TD*
D15*
G04 #@! TO.C,S2*
X161131250Y-89535000D03*
D16*
X161131250Y-74295000D03*
D15*
X137318750Y-89535000D03*
D16*
X137318750Y-74295000D03*
G04 #@! TD*
D15*
G04 #@! TO.C,S5*
X120650000Y-89535000D03*
D16*
X120650000Y-74295000D03*
D15*
X82550000Y-89535000D03*
D16*
X82550000Y-74295000D03*
G04 #@! TD*
D15*
G04 #@! TO.C,S3*
X237331250Y-89535000D03*
D16*
X237331250Y-74295000D03*
D15*
X213518750Y-89535000D03*
D16*
X213518750Y-74295000D03*
G04 #@! TD*
G04 #@! TO.C,S7*
X213518573Y-33654992D03*
D15*
X213518574Y-18414992D03*
X237331074Y-18414992D03*
D16*
X237331075Y-33654992D03*
G04 #@! TD*
D15*
G04 #@! TO.C,S4*
X275431042Y-89535000D03*
D16*
X275431042Y-74295000D03*
D15*
X251618542Y-89535000D03*
D16*
X251618542Y-74295000D03*
G04 #@! TD*
D15*
G04 #@! TO.C,S6*
X177800000Y-89535000D03*
D16*
X177800000Y-74295000D03*
D15*
X139700000Y-89535000D03*
D16*
X139700000Y-74295000D03*
G04 #@! TD*
D15*
G04 #@! TO.C,S1*
X123031250Y-89535000D03*
D16*
X123031250Y-74295000D03*
D15*
X99218750Y-89535000D03*
D16*
X99218750Y-74295000D03*
G04 #@! TD*
D13*
G04 #@! TO.C,SW1*
X313412500Y-32900000D03*
X318412500Y-32900000D03*
D14*
X315912500Y-32900000D03*
D13*
X318412500Y-18400000D03*
X313412500Y-18400000D03*
G04 #@! TD*
D17*
G04 #@! TO.C,C2*
X34329672Y-30259361D03*
X34329672Y-29299361D03*
G04 #@! TD*
D18*
G04 #@! TO.C,MX9*
X182880000Y-25400000D03*
D16*
X177800000Y-25400000D03*
D18*
X172720000Y-25400000D03*
D19*
X173990000Y-22860000D03*
D20*
X170440000Y-22860000D03*
X183890000Y-20320000D03*
D19*
X180340000Y-20320000D03*
G04 #@! TD*
D21*
G04 #@! TO.C,D6*
X123731928Y-27843750D03*
X123731928Y-24543750D03*
G04 #@! TD*
G04 #@! TO.C,D56*
X161831896Y-84993750D03*
X161831896Y-81693750D03*
G04 #@! TD*
D22*
G04 #@! TO.C,U2*
X57787464Y-34047640D03*
X58737464Y-34047641D03*
X59687464Y-34047640D03*
X59687464Y-36397640D03*
X58737464Y-36397639D03*
X57787464Y-36397640D03*
G04 #@! TD*
D23*
G04 #@! TO.C,D43*
X226479512Y-68857768D03*
X223179512Y-68857768D03*
G04 #@! TD*
D18*
G04 #@! TO.C,MX20*
X87630000Y-44450000D03*
D16*
X82550000Y-44450000D03*
D18*
X77470000Y-44450000D03*
D19*
X78740000Y-41910000D03*
D20*
X75190000Y-41910000D03*
X88640000Y-39370000D03*
D19*
X85090000Y-39370000D03*
G04 #@! TD*
D18*
G04 #@! TO.C,MX90*
X237648568Y-63500000D03*
D16*
X232568568Y-63500000D03*
D18*
X227488568Y-63500000D03*
D19*
X228758568Y-60960000D03*
D20*
X225208568Y-60960000D03*
X238658568Y-58420000D03*
D19*
X235108568Y-58420000D03*
G04 #@! TD*
D21*
G04 #@! TO.C,D1*
X28482008Y-27843750D03*
X28482008Y-24543750D03*
G04 #@! TD*
G04 #@! TO.C,D3*
X66581976Y-27843750D03*
X66581976Y-24543750D03*
G04 #@! TD*
D23*
G04 #@! TO.C,D17*
X38063264Y-49807784D03*
X34763264Y-49807784D03*
G04 #@! TD*
D24*
G04 #@! TO.C,D11*
X208458432Y-24543750D03*
X208458432Y-27843750D03*
G04 #@! TD*
D21*
G04 #@! TO.C,D45*
X257081816Y-65943750D03*
X257081816Y-62643750D03*
G04 #@! TD*
D18*
G04 #@! TO.C,MX49*
X49529999Y-82550000D03*
D16*
X44450000Y-82550000D03*
D18*
X39370001Y-82550000D03*
D19*
X40640000Y-80010000D03*
D20*
X37090000Y-80010000D03*
X50540000Y-77470000D03*
D19*
X46990000Y-77470000D03*
G04 #@! TD*
D18*
G04 #@! TO.C,MX36*
X77470001Y-63500000D03*
D16*
X82550000Y-63500000D03*
D18*
X87629999Y-63500000D03*
D25*
X76460000Y-68580000D03*
D19*
X80010000Y-68580000D03*
X86360000Y-66040000D03*
D25*
X89910000Y-66040000D03*
G04 #@! TD*
D21*
G04 #@! TO.C,D64*
X295181784Y-84993750D03*
X295181784Y-81693750D03*
G04 #@! TD*
G04 #@! TO.C,D65*
X314231768Y-84993750D03*
X314231768Y-81693750D03*
G04 #@! TD*
D26*
G04 #@! TO.C,C1*
X40233420Y-31209360D03*
X40233420Y-32169360D03*
G04 #@! TD*
D18*
G04 #@! TO.C,MX16*
X320992500Y-25400000D03*
D16*
X315912500Y-25400000D03*
D18*
X310832500Y-25400000D03*
D19*
X312102500Y-22860000D03*
D20*
X308552500Y-22860000D03*
X322002500Y-20320000D03*
D19*
X318452500Y-20320000D03*
G04 #@! TD*
D23*
G04 #@! TO.C,D27*
X226181856Y-49807784D03*
X222881856Y-49807784D03*
G04 #@! TD*
D21*
G04 #@! TO.C,D59*
X203993592Y-84993750D03*
X203993592Y-81693750D03*
G04 #@! TD*
D18*
G04 #@! TO.C,MX5*
X106680000Y-25400000D03*
D16*
X101600000Y-25400000D03*
D18*
X96520000Y-25400000D03*
D19*
X97790000Y-22860000D03*
D20*
X94240000Y-22860000D03*
X107690000Y-20320000D03*
D19*
X104140000Y-20320000D03*
G04 #@! TD*
D27*
G04 #@! TO.C,R4*
X322800276Y-40574184D03*
X323820276Y-40574184D03*
G04 #@! TD*
D18*
G04 #@! TO.C,MX37*
X96520001Y-63500000D03*
D16*
X101600000Y-63500000D03*
D18*
X106679999Y-63500000D03*
D25*
X95510000Y-68580000D03*
D19*
X99060000Y-68580000D03*
X105410000Y-66040000D03*
D25*
X108960000Y-66040000D03*
G04 #@! TD*
D23*
G04 #@! TO.C,D44*
X245529496Y-68857768D03*
X242229496Y-68857768D03*
G04 #@! TD*
D21*
G04 #@! TO.C,D51*
X85631960Y-84993750D03*
X85631960Y-81693750D03*
G04 #@! TD*
D23*
G04 #@! TO.C,D22*
X135694432Y-49807784D03*
X132394432Y-49807784D03*
G04 #@! TD*
D18*
G04 #@! TO.C,MX82*
X82867448Y-63500000D03*
D16*
X77787448Y-63500000D03*
D18*
X72707448Y-63500000D03*
D19*
X73977448Y-60960000D03*
D20*
X70427448Y-60960000D03*
X83877448Y-58420000D03*
D19*
X80327448Y-58420000D03*
G04 #@! TD*
D18*
G04 #@! TO.C,MX44*
X229870001Y-63500000D03*
D16*
X234950000Y-63500000D03*
D18*
X240029999Y-63500000D03*
D25*
X228860000Y-68580000D03*
D19*
X232410000Y-68580000D03*
X238760000Y-66040000D03*
D25*
X242310000Y-66040000D03*
G04 #@! TD*
D18*
G04 #@! TO.C,MX30*
X278130000Y-44450000D03*
D16*
X273050000Y-44450000D03*
D18*
X267970000Y-44450000D03*
D19*
X269240000Y-41910000D03*
D20*
X265690000Y-41910000D03*
X279140000Y-39370000D03*
D19*
X275590000Y-39370000D03*
G04 #@! TD*
D18*
G04 #@! TO.C,MX52*
X106680000Y-82550000D03*
D16*
X101600000Y-82550000D03*
D18*
X96520000Y-82550000D03*
D19*
X97790000Y-80010000D03*
D20*
X94240000Y-80010000D03*
X107690000Y-77470000D03*
D19*
X104140000Y-77470000D03*
G04 #@! TD*
D28*
G04 #@! TO.C,R8*
X305748572Y-51375112D03*
X305748572Y-52395112D03*
G04 #@! TD*
D21*
G04 #@! TO.C,D13*
X257081816Y-27843750D03*
X257081816Y-24543750D03*
G04 #@! TD*
D18*
G04 #@! TO.C,MX50*
X68579999Y-82550000D03*
D16*
X63500000Y-82550000D03*
D18*
X58420001Y-82550000D03*
D19*
X59690000Y-80010000D03*
D20*
X56140000Y-80010000D03*
X69590000Y-77470000D03*
D19*
X66040000Y-77470000D03*
G04 #@! TD*
D21*
G04 #@! TO.C,D15*
X295181784Y-27843750D03*
X295181784Y-24543750D03*
G04 #@! TD*
D29*
G04 #@! TO.C,C10*
X309278689Y-74846379D03*
X309957511Y-74167557D03*
G04 #@! TD*
D21*
G04 #@! TO.C,D31*
X295181784Y-46893750D03*
X295181784Y-43593750D03*
G04 #@! TD*
D18*
G04 #@! TO.C,MX83*
X101917432Y-63500000D03*
D16*
X96837432Y-63500000D03*
D18*
X91757432Y-63500000D03*
D19*
X93027432Y-60960000D03*
D20*
X89477432Y-60960000D03*
X102927432Y-58420000D03*
D19*
X99377432Y-58420000D03*
G04 #@! TD*
D18*
G04 #@! TO.C,MX74*
X120332409Y-44450000D03*
D16*
X125412408Y-44450000D03*
D18*
X130492407Y-44450000D03*
D25*
X119322408Y-49530000D03*
D19*
X122872408Y-49530000D03*
X129222408Y-46990000D03*
D25*
X132772408Y-46990000D03*
G04 #@! TD*
D23*
G04 #@! TO.C,D41*
X188379544Y-68857768D03*
X185079544Y-68857768D03*
G04 #@! TD*
D18*
G04 #@! TO.C,MX47*
X297180000Y-63500000D03*
D16*
X292100000Y-63500000D03*
D18*
X287020000Y-63500000D03*
D19*
X288290000Y-60960000D03*
D20*
X284740000Y-60960000D03*
X298190000Y-58420000D03*
D19*
X294640000Y-58420000D03*
G04 #@! TD*
D28*
G04 #@! TO.C,R7*
X306939196Y-51375112D03*
X306939196Y-52395112D03*
G04 #@! TD*
D21*
G04 #@! TO.C,D62*
X242093560Y-84993750D03*
X242093560Y-81693750D03*
G04 #@! TD*
D30*
G04 #@! TO.C,C7*
X312114660Y-60070652D03*
X313074660Y-60070652D03*
G04 #@! TD*
D18*
G04 #@! TO.C,MX73*
X101282425Y-44450000D03*
D16*
X106362424Y-44450000D03*
D18*
X111442423Y-44450000D03*
D25*
X100272424Y-49530000D03*
D19*
X103822424Y-49530000D03*
X110172424Y-46990000D03*
D25*
X113722424Y-46990000D03*
G04 #@! TD*
D21*
G04 #@! TO.C,D29*
X257081816Y-46893750D03*
X257081816Y-43593750D03*
G04 #@! TD*
D18*
G04 #@! TO.C,MX1*
X30480000Y-25400000D03*
D16*
X25400000Y-25400000D03*
D18*
X20320000Y-25400000D03*
D19*
X21590000Y-22860000D03*
D20*
X18040000Y-22860000D03*
X31490000Y-20320000D03*
D19*
X27940000Y-20320000D03*
G04 #@! TD*
D23*
G04 #@! TO.C,D19*
X78544480Y-49807784D03*
X75244480Y-49807784D03*
G04 #@! TD*
D18*
G04 #@! TO.C,MX65*
X316230000Y-82550000D03*
D16*
X311150000Y-82550000D03*
D18*
X306070000Y-82550000D03*
D19*
X307340000Y-80010000D03*
D20*
X303790000Y-80010000D03*
X317240000Y-77470000D03*
D19*
X313690000Y-77470000D03*
G04 #@! TD*
D21*
G04 #@! TO.C,D30*
X276131800Y-46893750D03*
X276131800Y-43593750D03*
G04 #@! TD*
D26*
G04 #@! TO.C,C8*
X313636456Y-67329708D03*
X313636456Y-68289708D03*
G04 #@! TD*
D23*
G04 #@! TO.C,D12*
X238981064Y-21828120D03*
X235681064Y-21828120D03*
G04 #@! TD*
D18*
G04 #@! TO.C,MX84*
X120967416Y-63500000D03*
D16*
X115887416Y-63500000D03*
D18*
X110807416Y-63500000D03*
D19*
X112077416Y-60960000D03*
D20*
X108527416Y-60960000D03*
X121977416Y-58420000D03*
D19*
X118427416Y-58420000D03*
G04 #@! TD*
D17*
G04 #@! TO.C,C3*
X305004432Y-56681124D03*
X305004432Y-55721124D03*
G04 #@! TD*
D21*
G04 #@! TO.C,D7*
X142781912Y-27843750D03*
X142781912Y-24543750D03*
G04 #@! TD*
D18*
G04 #@! TO.C,MX28*
X229870001Y-44450000D03*
D16*
X234950000Y-44450000D03*
D18*
X240029999Y-44450000D03*
D19*
X238760000Y-46990000D03*
D25*
X242310000Y-46990000D03*
X228860000Y-49530000D03*
D19*
X232410000Y-49530000D03*
G04 #@! TD*
D21*
G04 #@! TO.C,D55*
X127793656Y-84993750D03*
X127793656Y-81693750D03*
G04 #@! TD*
D18*
G04 #@! TO.C,MX67*
X258444792Y-82550000D03*
D16*
X263524792Y-82550000D03*
D18*
X268604792Y-82550000D03*
D19*
X267334792Y-85090000D03*
D31*
X270884792Y-85090000D03*
D25*
X257434792Y-87630000D03*
D19*
X260984792Y-87630000D03*
G04 #@! TD*
D18*
G04 #@! TO.C,MX71*
X63182457Y-44450000D03*
D16*
X68262456Y-44450000D03*
D18*
X73342455Y-44450000D03*
D25*
X62172456Y-49530000D03*
D19*
X65722456Y-49530000D03*
X72072456Y-46990000D03*
D25*
X75622456Y-46990000D03*
G04 #@! TD*
D23*
G04 #@! TO.C,D38*
X131229592Y-68857768D03*
X127929592Y-68857768D03*
G04 #@! TD*
G04 #@! TO.C,D23*
X154744416Y-49807784D03*
X151444416Y-49807784D03*
G04 #@! TD*
G04 #@! TO.C,D18*
X59494496Y-49807784D03*
X56194496Y-49807784D03*
G04 #@! TD*
D27*
G04 #@! TO.C,R6*
X322800276Y-39532388D03*
X323820276Y-39532388D03*
G04 #@! TD*
D18*
G04 #@! TO.C,MX80*
X27463737Y-63500000D03*
D16*
X32543736Y-63500000D03*
D18*
X37623735Y-63500000D03*
D25*
X26453736Y-68580000D03*
D19*
X30003736Y-68580000D03*
X36353736Y-66040000D03*
D25*
X39903736Y-66040000D03*
G04 #@! TD*
D18*
G04 #@! TO.C,MX19*
X68580000Y-44450000D03*
D16*
X63500000Y-44450000D03*
D18*
X58420000Y-44450000D03*
D19*
X59690000Y-41910000D03*
D20*
X56140000Y-41910000D03*
X69590000Y-39370000D03*
D19*
X66040000Y-39370000D03*
G04 #@! TD*
D32*
G04 #@! TO.C,RST1*
X295250000Y-70821032D03*
X288950000Y-70821032D03*
X295250000Y-74621032D03*
X288950000Y-74621032D03*
G04 #@! TD*
D18*
G04 #@! TO.C,MX51*
X87629999Y-82550000D03*
D16*
X82550000Y-82550000D03*
D18*
X77470001Y-82550000D03*
D19*
X78740000Y-80010000D03*
D20*
X75190000Y-80010000D03*
X88640000Y-77470000D03*
D19*
X85090000Y-77470000D03*
G04 #@! TD*
D33*
G04 #@! TO.C,U3*
X310972008Y-61191352D03*
X310972008Y-61591352D03*
X310972008Y-61991352D03*
X310972008Y-62391352D03*
X310972008Y-62791352D03*
X310972008Y-63191352D03*
X310972008Y-63591352D03*
X310972008Y-63991352D03*
X310972008Y-64391352D03*
X310972008Y-64791352D03*
X310972008Y-65191352D03*
X310972008Y-65591352D03*
X310972008Y-65991352D03*
X310972008Y-66391352D03*
D34*
X310134508Y-67228852D03*
X309734508Y-67228852D03*
X309334508Y-67228852D03*
X308934508Y-67228852D03*
X308534508Y-67228852D03*
X308134508Y-67228852D03*
X307734508Y-67228852D03*
X307334508Y-67228852D03*
X306934508Y-67228852D03*
X306534508Y-67228852D03*
X306134508Y-67228852D03*
X305734508Y-67228852D03*
X305334508Y-67228852D03*
X304934508Y-67228852D03*
D33*
X304097008Y-66391352D03*
X304097008Y-65991352D03*
X304097008Y-65591352D03*
X304097008Y-65191352D03*
X304097008Y-64791352D03*
X304097008Y-64391352D03*
X304097008Y-63991352D03*
X304097008Y-63591352D03*
X304097008Y-63191352D03*
X304097008Y-62791352D03*
X304097008Y-62391352D03*
X304097008Y-61991352D03*
X304097008Y-61591352D03*
X304097008Y-61191352D03*
D34*
X304934508Y-60353852D03*
X305334508Y-60353852D03*
X305734508Y-60353852D03*
X306134508Y-60353852D03*
X306534508Y-60353852D03*
X306934508Y-60353852D03*
X307334508Y-60353852D03*
X307734508Y-60353852D03*
X308134508Y-60353852D03*
X308534508Y-60353852D03*
X308934508Y-60353852D03*
X309334508Y-60353852D03*
X309734508Y-60353852D03*
X310134508Y-60353852D03*
D35*
X307534508Y-63791352D03*
G04 #@! TD*
D23*
G04 #@! TO.C,D21*
X116644448Y-49807784D03*
X113344448Y-49807784D03*
G04 #@! TD*
D21*
G04 #@! TO.C,D49*
X47531992Y-84993750D03*
X47531992Y-81693750D03*
G04 #@! TD*
D36*
G04 #@! TO.C,U1*
X36168732Y-32159359D03*
X36168732Y-30259361D03*
X38443732Y-31209360D03*
G04 #@! TD*
D18*
G04 #@! TO.C,MX69*
X22701241Y-44450000D03*
D16*
X27781240Y-44450000D03*
D18*
X32861239Y-44450000D03*
D25*
X21691240Y-49530000D03*
D19*
X25241240Y-49530000D03*
X31591240Y-46990000D03*
D25*
X35141240Y-46990000D03*
G04 #@! TD*
D18*
G04 #@! TO.C,MX35*
X58420001Y-63500000D03*
D16*
X63500000Y-63500000D03*
D18*
X68579999Y-63500000D03*
D25*
X57410000Y-68580000D03*
D19*
X60960000Y-68580000D03*
X67310000Y-66040000D03*
D25*
X70860000Y-66040000D03*
G04 #@! TD*
D21*
G04 #@! TO.C,D52*
X89693688Y-84993750D03*
X89693688Y-81693750D03*
G04 #@! TD*
D18*
G04 #@! TO.C,MX31*
X297180000Y-44450000D03*
D16*
X292100000Y-44450000D03*
D18*
X287020000Y-44450000D03*
D19*
X288290000Y-41910000D03*
D20*
X284740000Y-41910000D03*
X298190000Y-39370000D03*
D19*
X294640000Y-39370000D03*
G04 #@! TD*
D21*
G04 #@! TO.C,D4*
X85631960Y-27843750D03*
X85631960Y-24543750D03*
G04 #@! TD*
D18*
G04 #@! TO.C,MX10*
X201930000Y-25400000D03*
D16*
X196850000Y-25400000D03*
D18*
X191770000Y-25400000D03*
D19*
X193040000Y-22860000D03*
D20*
X189490000Y-22860000D03*
X202940000Y-20320000D03*
D19*
X199390000Y-20320000D03*
G04 #@! TD*
D21*
G04 #@! TO.C,D50*
X66581976Y-84993750D03*
X66581976Y-81693750D03*
G04 #@! TD*
D18*
G04 #@! TO.C,MX12*
X229870001Y-25400000D03*
D16*
X234950000Y-25400000D03*
D18*
X240029999Y-25400000D03*
D19*
X238760000Y-27940000D03*
D25*
X242310000Y-27940000D03*
X228860000Y-30480000D03*
D19*
X232410000Y-30480000D03*
G04 #@! TD*
D18*
G04 #@! TO.C,MX77*
X177482361Y-44450000D03*
D16*
X182562360Y-44450000D03*
D18*
X187642359Y-44450000D03*
D25*
X176472360Y-49530000D03*
D19*
X180022360Y-49530000D03*
X186372360Y-46990000D03*
D25*
X189922360Y-46990000D03*
G04 #@! TD*
D18*
G04 #@! TO.C,MX23*
X144780000Y-44450000D03*
D16*
X139700000Y-44450000D03*
D18*
X134620000Y-44450000D03*
D19*
X135890000Y-41910000D03*
D20*
X132340000Y-41910000D03*
X145790000Y-39370000D03*
D19*
X142240000Y-39370000D03*
G04 #@! TD*
D18*
G04 #@! TO.C,MX17*
X30480000Y-44450000D03*
D16*
X25400000Y-44450000D03*
D18*
X20320000Y-44450000D03*
D19*
X21590000Y-41910000D03*
D20*
X18040000Y-41910000D03*
X31490000Y-39370000D03*
D19*
X27940000Y-39370000D03*
G04 #@! TD*
D37*
G04 #@! TO.C,J1*
X43996064Y-31209360D03*
X44996064Y-31209360D03*
X45996064Y-31209360D03*
X46996064Y-31209360D03*
X47996064Y-31209360D03*
X48996064Y-31209360D03*
X49996064Y-31209360D03*
D38*
X42696064Y-33734360D03*
X51296064Y-33734360D03*
G04 #@! TD*
D18*
G04 #@! TO.C,MX24*
X163830000Y-44450000D03*
D16*
X158750000Y-44450000D03*
D18*
X153670000Y-44450000D03*
D19*
X154940000Y-41910000D03*
D20*
X151390000Y-41910000D03*
X164840000Y-39370000D03*
D19*
X161290000Y-39370000D03*
G04 #@! TD*
D21*
G04 #@! TO.C,D61*
X238031832Y-84993750D03*
X238031832Y-81693750D03*
G04 #@! TD*
D23*
G04 #@! TO.C,D35*
X74079640Y-68857768D03*
X70779640Y-68857768D03*
G04 #@! TD*
D18*
G04 #@! TO.C,MX75*
X139382393Y-44450000D03*
D16*
X144462392Y-44450000D03*
D18*
X149542391Y-44450000D03*
D25*
X138372392Y-49530000D03*
D19*
X141922392Y-49530000D03*
X148272392Y-46990000D03*
D25*
X151822392Y-46990000D03*
G04 #@! TD*
D39*
G04 #@! TO.C,C13*
X307072937Y-69896056D03*
X306394115Y-70574878D03*
G04 #@! TD*
D18*
G04 #@! TO.C,MX81*
X63817463Y-63500000D03*
D16*
X58737464Y-63500000D03*
D18*
X53657465Y-63500000D03*
D19*
X54927464Y-60960000D03*
D40*
X51377464Y-61060000D03*
D20*
X64827464Y-58420000D03*
D19*
X61277464Y-58420000D03*
G04 #@! TD*
D18*
G04 #@! TO.C,MX85*
X140017400Y-63500000D03*
D16*
X134937400Y-63500000D03*
D18*
X129857400Y-63500000D03*
D19*
X131127400Y-60960000D03*
D20*
X127577400Y-60960000D03*
X141027400Y-58420000D03*
D19*
X137477400Y-58420000D03*
G04 #@! TD*
D21*
G04 #@! TO.C,D32*
X318994264Y-51656250D03*
X318994264Y-48356250D03*
G04 #@! TD*
D18*
G04 #@! TO.C,MX27*
X210820001Y-44450000D03*
D16*
X215900000Y-44450000D03*
D18*
X220979999Y-44450000D03*
D41*
X209810000Y-49630000D03*
D19*
X213360000Y-49530000D03*
X219710000Y-46990000D03*
D25*
X223260000Y-46990000D03*
G04 #@! TD*
D18*
G04 #@! TO.C,MX26*
X201930000Y-44450000D03*
D16*
X196850000Y-44450000D03*
D18*
X191770000Y-44450000D03*
D19*
X193040000Y-41910000D03*
D20*
X189490000Y-41910000D03*
X202940000Y-39370000D03*
D19*
X199390000Y-39370000D03*
G04 #@! TD*
D21*
G04 #@! TO.C,D48*
X28482008Y-84993750D03*
X28482008Y-81693750D03*
G04 #@! TD*
D24*
G04 #@! TO.C,D26*
X208756088Y-41609352D03*
X208756088Y-44909352D03*
G04 #@! TD*
D18*
G04 #@! TO.C,MX13*
X259080000Y-25400000D03*
D16*
X254000000Y-25400000D03*
D18*
X248920000Y-25400000D03*
D19*
X250190000Y-22860000D03*
D20*
X246640000Y-22860000D03*
X260090000Y-20320000D03*
D19*
X256540000Y-20320000D03*
G04 #@! TD*
D18*
G04 #@! TO.C,MX53*
X106045000Y-82550000D03*
D16*
X111125000Y-82550000D03*
D18*
X116205000Y-82550000D03*
D19*
X114935000Y-85090000D03*
D31*
X118485000Y-85090000D03*
D25*
X105035000Y-87630000D03*
D19*
X108585000Y-87630000D03*
G04 #@! TD*
D42*
G04 #@! TO.C,C5*
X302220072Y-56976124D03*
X302220072Y-55426124D03*
G04 #@! TD*
D23*
G04 #@! TO.C,D39*
X150279576Y-68857768D03*
X146979576Y-68857768D03*
G04 #@! TD*
D43*
G04 #@! TO.C,Y1*
X306602134Y-73046637D03*
X308157769Y-71491002D03*
X309359850Y-72693083D03*
X307804215Y-74248718D03*
G04 #@! TD*
D17*
G04 #@! TO.C,C16*
X308427476Y-56681124D03*
X308427476Y-55721124D03*
G04 #@! TD*
D18*
G04 #@! TO.C,MX62*
X259080000Y-82550000D03*
D16*
X254000000Y-82550000D03*
D18*
X248920000Y-82550000D03*
D19*
X250190000Y-80010000D03*
D20*
X246640000Y-80010000D03*
X260090000Y-77470000D03*
D19*
X256540000Y-77470000D03*
G04 #@! TD*
D18*
G04 #@! TO.C,MX78*
X196532345Y-44450000D03*
D16*
X201612344Y-44450000D03*
D18*
X206692343Y-44450000D03*
D25*
X195522344Y-49530000D03*
D19*
X199072344Y-49530000D03*
X205422344Y-46990000D03*
D41*
X208972344Y-46890000D03*
G04 #@! TD*
D18*
G04 #@! TO.C,MX4*
X87630000Y-25400000D03*
D16*
X82550000Y-25400000D03*
D18*
X77470000Y-25400000D03*
D19*
X78740000Y-22860000D03*
D20*
X75190000Y-22860000D03*
X88640000Y-20320000D03*
D19*
X85090000Y-20320000D03*
G04 #@! TD*
D18*
G04 #@! TO.C,MX61*
X240030000Y-82550000D03*
D16*
X234950000Y-82550000D03*
D18*
X229870000Y-82550000D03*
D19*
X231140000Y-80010000D03*
D44*
X227590000Y-80010000D03*
D20*
X241040000Y-77470000D03*
D19*
X237490000Y-77470000D03*
G04 #@! TD*
D21*
G04 #@! TO.C,D9*
X180881880Y-27843750D03*
X180881880Y-24543750D03*
G04 #@! TD*
D18*
G04 #@! TO.C,MX41*
X172720001Y-63500000D03*
D16*
X177800000Y-63500000D03*
D18*
X182879999Y-63500000D03*
D25*
X171710000Y-68580000D03*
D19*
X175260000Y-68580000D03*
X181610000Y-66040000D03*
D25*
X185160000Y-66040000D03*
G04 #@! TD*
D18*
G04 #@! TO.C,MX15*
X297180000Y-25400000D03*
D16*
X292100000Y-25400000D03*
D18*
X287020000Y-25400000D03*
D19*
X288290000Y-22860000D03*
D20*
X284740000Y-22860000D03*
X298190000Y-20320000D03*
D19*
X294640000Y-20320000D03*
G04 #@! TD*
D17*
G04 #@! TO.C,C11*
X322119652Y-58020576D03*
X322119652Y-57060576D03*
G04 #@! TD*
D18*
G04 #@! TO.C,MX57*
X182880000Y-82550000D03*
D16*
X177800000Y-82550000D03*
D18*
X172720000Y-82550000D03*
D19*
X173990000Y-80010000D03*
D20*
X170440000Y-80010000D03*
X183890000Y-77470000D03*
D19*
X180340000Y-77470000D03*
G04 #@! TD*
D21*
G04 #@! TO.C,D58*
X199931864Y-84993750D03*
X199931864Y-81693750D03*
G04 #@! TD*
D18*
G04 #@! TO.C,MX39*
X134620001Y-63500000D03*
D16*
X139700000Y-63500000D03*
D18*
X144779999Y-63500000D03*
D25*
X133610000Y-68580000D03*
D19*
X137160000Y-68580000D03*
X143510000Y-66040000D03*
D25*
X147060000Y-66040000D03*
G04 #@! TD*
D18*
G04 #@! TO.C,MX68*
X230504823Y-25399992D03*
D16*
X225424824Y-25399992D03*
D18*
X220344825Y-25399992D03*
D19*
X221614824Y-22859992D03*
D44*
X218064824Y-22859992D03*
D20*
X231514824Y-20319992D03*
D19*
X227964824Y-20319992D03*
G04 #@! TD*
D18*
G04 #@! TO.C,MX66*
X144145000Y-82550000D03*
D16*
X149225000Y-82550000D03*
D18*
X154305000Y-82550000D03*
D19*
X153035000Y-85090000D03*
D31*
X156585000Y-85090000D03*
D25*
X143135000Y-87630000D03*
D19*
X146685000Y-87630000D03*
G04 #@! TD*
D23*
G04 #@! TO.C,D37*
X112179608Y-68857768D03*
X108879608Y-68857768D03*
G04 #@! TD*
G04 #@! TO.C,D40*
X169329560Y-68857768D03*
X166029560Y-68857768D03*
G04 #@! TD*
D18*
G04 #@! TO.C,MX14*
X278130000Y-25400000D03*
D16*
X273050000Y-25400000D03*
D18*
X267970000Y-25400000D03*
D19*
X269240000Y-22860000D03*
D20*
X265690000Y-22860000D03*
X279140000Y-20320000D03*
D19*
X275590000Y-20320000D03*
G04 #@! TD*
D27*
G04 #@! TO.C,R3*
X320865512Y-40574184D03*
X321885512Y-40574184D03*
G04 #@! TD*
D18*
G04 #@! TO.C,MX88*
X197167352Y-63500000D03*
D16*
X192087352Y-63500000D03*
D18*
X187007352Y-63500000D03*
D19*
X188277352Y-60960000D03*
D20*
X184727352Y-60960000D03*
X198177352Y-58420000D03*
D19*
X194627352Y-58420000D03*
G04 #@! TD*
D18*
G04 #@! TO.C,MX40*
X153670001Y-63500000D03*
D16*
X158750000Y-63500000D03*
D18*
X163829999Y-63500000D03*
D25*
X152660000Y-68580000D03*
D19*
X156210000Y-68580000D03*
X162560000Y-66040000D03*
D25*
X166110000Y-66040000D03*
G04 #@! TD*
D18*
G04 #@! TO.C,MX11*
X210820001Y-25400000D03*
D16*
X215900000Y-25400000D03*
D18*
X220979999Y-25400000D03*
D19*
X219710000Y-27940000D03*
D31*
X223260000Y-27940000D03*
D25*
X209810000Y-30480000D03*
D19*
X213360000Y-30480000D03*
G04 #@! TD*
D18*
G04 #@! TO.C,MX89*
X216217336Y-63500000D03*
D16*
X211137336Y-63500000D03*
D18*
X206057336Y-63500000D03*
D19*
X207327336Y-60960000D03*
D20*
X203777336Y-60960000D03*
X217227336Y-58420000D03*
D19*
X213677336Y-58420000D03*
G04 #@! TD*
D45*
G04 #@! TO.C,U4*
X322089888Y-66796040D03*
X320819888Y-66796040D03*
X319549888Y-66796040D03*
X318279888Y-66796040D03*
X318279888Y-59596040D03*
X319549888Y-59596040D03*
X320819888Y-59596040D03*
X322089888Y-59596040D03*
G04 #@! TD*
D18*
G04 #@! TO.C,MX48*
X30479999Y-82550000D03*
D16*
X25400000Y-82550000D03*
D18*
X20320001Y-82550000D03*
D19*
X21590000Y-80010000D03*
D20*
X18040000Y-80010000D03*
X31490000Y-77470000D03*
D19*
X27940000Y-77470000D03*
G04 #@! TD*
D18*
G04 #@! TO.C,MX54*
X125730000Y-82550000D03*
D16*
X120650000Y-82550000D03*
D18*
X115570000Y-82550000D03*
D19*
X116840000Y-80010000D03*
D44*
X113290000Y-80010000D03*
D20*
X126740000Y-77470000D03*
D19*
X123190000Y-77470000D03*
G04 #@! TD*
D23*
G04 #@! TO.C,D42*
X207429528Y-68857768D03*
X204129528Y-68857768D03*
G04 #@! TD*
D21*
G04 #@! TO.C,D14*
X276131800Y-27843750D03*
X276131800Y-24543750D03*
G04 #@! TD*
D18*
G04 #@! TO.C,MX70*
X44132473Y-44450000D03*
D16*
X49212472Y-44450000D03*
D18*
X54292471Y-44450000D03*
D25*
X43122472Y-49530000D03*
D19*
X46672472Y-49530000D03*
X53022472Y-46990000D03*
D25*
X56572472Y-46990000D03*
G04 #@! TD*
D18*
G04 #@! TO.C,MX21*
X106680000Y-44450000D03*
D16*
X101600000Y-44450000D03*
D18*
X96520000Y-44450000D03*
D19*
X97790000Y-41910000D03*
D20*
X94240000Y-41910000D03*
X107690000Y-39370000D03*
D19*
X104140000Y-39370000D03*
G04 #@! TD*
D18*
G04 #@! TO.C,MX59*
X220980000Y-82550000D03*
D16*
X215900000Y-82550000D03*
D18*
X210820000Y-82550000D03*
D19*
X212090000Y-80010000D03*
D20*
X208540000Y-80010000D03*
X221990000Y-77470000D03*
D19*
X218440000Y-77470000D03*
G04 #@! TD*
D18*
G04 #@! TO.C,MX25*
X182880000Y-44450000D03*
D16*
X177800000Y-44450000D03*
D18*
X172720000Y-44450000D03*
D19*
X173990000Y-41910000D03*
D20*
X170440000Y-41910000D03*
X183890000Y-39370000D03*
D19*
X180340000Y-39370000D03*
G04 #@! TD*
D23*
G04 #@! TO.C,D28*
X245231840Y-49807784D03*
X241931840Y-49807784D03*
G04 #@! TD*
D21*
G04 #@! TO.C,D10*
X199931864Y-27843750D03*
X199931864Y-24543750D03*
G04 #@! TD*
D18*
G04 #@! TO.C,MX32*
X320992500Y-49212500D03*
D16*
X315912500Y-49212500D03*
D18*
X310832500Y-49212500D03*
D19*
X312102500Y-46672500D03*
D20*
X308552500Y-46672500D03*
X322002500Y-44132500D03*
D19*
X318452500Y-44132500D03*
G04 #@! TD*
D18*
G04 #@! TO.C,MX43*
X210820001Y-63500000D03*
D16*
X215900000Y-63500000D03*
D18*
X220979999Y-63500000D03*
D25*
X209810000Y-68580000D03*
D19*
X213360000Y-68580000D03*
X219710000Y-66040000D03*
D25*
X223260000Y-66040000D03*
G04 #@! TD*
D46*
G04 #@! TO.C,C12*
X306385639Y-74995207D03*
X305706817Y-74316385D03*
G04 #@! TD*
D18*
G04 #@! TO.C,MX86*
X159067384Y-63500000D03*
D16*
X153987384Y-63500000D03*
D18*
X148907384Y-63500000D03*
D19*
X150177384Y-60960000D03*
D20*
X146627384Y-60960000D03*
X160077384Y-58420000D03*
D19*
X156527384Y-58420000D03*
G04 #@! TD*
D18*
G04 #@! TO.C,MX22*
X125730000Y-44450000D03*
D16*
X120650000Y-44450000D03*
D18*
X115570000Y-44450000D03*
D19*
X116840000Y-41910000D03*
D20*
X113290000Y-41910000D03*
X126740000Y-39370000D03*
D19*
X123190000Y-39370000D03*
G04 #@! TD*
D21*
G04 #@! TO.C,D54*
X123731928Y-84993750D03*
X123731928Y-81693750D03*
G04 #@! TD*
G04 #@! TO.C,D16*
X318994264Y-27843750D03*
X318994264Y-24543750D03*
G04 #@! TD*
D18*
G04 #@! TO.C,MX46*
X278129999Y-63500000D03*
D16*
X273050000Y-63500000D03*
D18*
X267970001Y-63500000D03*
D19*
X269240000Y-60960000D03*
D20*
X265690000Y-60960000D03*
X279140000Y-58420000D03*
D19*
X275590000Y-58420000D03*
G04 #@! TD*
D23*
G04 #@! TO.C,D36*
X93129624Y-68857768D03*
X89829624Y-68857768D03*
G04 #@! TD*
D18*
G04 #@! TO.C,MX56*
X163830000Y-82550000D03*
D16*
X158750000Y-82550000D03*
D18*
X153670000Y-82550000D03*
D19*
X154940000Y-80010000D03*
D44*
X151390000Y-80010000D03*
D20*
X164840000Y-77470000D03*
D19*
X161290000Y-77470000D03*
G04 #@! TD*
D18*
G04 #@! TO.C,MX72*
X82232441Y-44450000D03*
D16*
X87312440Y-44450000D03*
D18*
X92392439Y-44450000D03*
D25*
X81222440Y-49530000D03*
D19*
X84772440Y-49530000D03*
X91122440Y-46990000D03*
D25*
X94672440Y-46990000D03*
G04 #@! TD*
D23*
G04 #@! TO.C,D33*
X43123416Y-68857768D03*
X39823416Y-68857768D03*
G04 #@! TD*
D21*
G04 #@! TO.C,D63*
X276131800Y-84993750D03*
X276131800Y-81693750D03*
G04 #@! TD*
D32*
G04 #@! TO.C,BOOT1*
X319018876Y-35697624D03*
X312718876Y-35697624D03*
X319018876Y-39497624D03*
X312718876Y-39497624D03*
G04 #@! TD*
D39*
G04 #@! TO.C,C4*
X305880734Y-69778837D03*
X305201912Y-70457659D03*
G04 #@! TD*
D18*
G04 #@! TO.C,MX29*
X259080000Y-44450000D03*
D16*
X254000000Y-44450000D03*
D18*
X248920000Y-44450000D03*
D19*
X250190000Y-41910000D03*
D20*
X246640000Y-41910000D03*
X260090000Y-39370000D03*
D19*
X256540000Y-39370000D03*
G04 #@! TD*
D18*
G04 #@! TO.C,MX42*
X191770001Y-63500000D03*
D16*
X196850000Y-63500000D03*
D18*
X201929999Y-63500000D03*
D25*
X190760000Y-68580000D03*
D19*
X194310000Y-68580000D03*
X200660000Y-66040000D03*
D25*
X204210000Y-66040000D03*
G04 #@! TD*
D18*
G04 #@! TO.C,MX33*
X30480000Y-63500000D03*
D16*
X25400000Y-63500000D03*
D18*
X20320000Y-63500000D03*
D19*
X21590000Y-60960000D03*
D20*
X18040000Y-60960000D03*
X31490000Y-58420000D03*
D19*
X27940000Y-58420000D03*
G04 #@! TD*
D21*
G04 #@! TO.C,D2*
X47531992Y-27843750D03*
X47531992Y-24543750D03*
G04 #@! TD*
D18*
G04 #@! TO.C,MX34*
X49530000Y-63500000D03*
D16*
X44450000Y-63500000D03*
D18*
X39370000Y-63500000D03*
D19*
X40640000Y-60960000D03*
D20*
X37090000Y-60960000D03*
D40*
X50540000Y-58320000D03*
D19*
X46990000Y-58420000D03*
G04 #@! TD*
D17*
G04 #@! TO.C,C14*
X303962636Y-56681124D03*
X303962636Y-55721124D03*
G04 #@! TD*
D21*
G04 #@! TO.C,D46*
X276131800Y-65943750D03*
X276131800Y-62643750D03*
G04 #@! TD*
D23*
G04 #@! TO.C,D25*
X192844384Y-49807784D03*
X189544384Y-49807784D03*
G04 #@! TD*
D18*
G04 #@! TO.C,MX87*
X178117368Y-63500000D03*
D16*
X173037368Y-63500000D03*
D18*
X167957368Y-63500000D03*
D19*
X169227368Y-60960000D03*
D20*
X165677368Y-60960000D03*
X179127368Y-58420000D03*
D19*
X175577368Y-58420000D03*
G04 #@! TD*
D21*
G04 #@! TO.C,D47*
X295181784Y-65943750D03*
X295181784Y-62643750D03*
G04 #@! TD*
D47*
G04 #@! TO.C,J3*
X297404280Y-89892112D03*
D48*
X299944280Y-89892112D03*
X302484280Y-89892112D03*
X305024280Y-89892112D03*
X307564280Y-89892112D03*
G04 #@! TD*
D18*
G04 #@! TO.C,MX45*
X259079999Y-63500000D03*
D16*
X254000000Y-63500000D03*
D18*
X248920001Y-63500000D03*
D19*
X250190000Y-60960000D03*
D20*
X246640000Y-60960000D03*
X260090000Y-58420000D03*
D19*
X256540000Y-58420000D03*
G04 #@! TD*
D21*
G04 #@! TO.C,D57*
X180881880Y-84993750D03*
X180881880Y-81693750D03*
G04 #@! TD*
D28*
G04 #@! TO.C,R5*
X298753656Y-71954384D03*
X298753656Y-72974384D03*
G04 #@! TD*
D18*
G04 #@! TO.C,MX64*
X297180000Y-82550000D03*
D16*
X292100000Y-82550000D03*
D18*
X287020000Y-82550000D03*
D19*
X288290000Y-80010000D03*
D20*
X284740000Y-80010000D03*
X298190000Y-77470000D03*
D19*
X294640000Y-77470000D03*
G04 #@! TD*
D18*
G04 #@! TO.C,MX18*
X49530000Y-44450000D03*
D16*
X44450000Y-44450000D03*
D18*
X39370000Y-44450000D03*
D19*
X40640000Y-41910000D03*
D20*
X37090000Y-41910000D03*
X50540000Y-39370000D03*
D19*
X46990000Y-39370000D03*
G04 #@! TD*
D18*
G04 #@! TO.C,MX63*
X278130000Y-82550000D03*
D16*
X273050000Y-82550000D03*
D18*
X267970000Y-82550000D03*
D19*
X269240000Y-80010000D03*
D44*
X265690000Y-80010000D03*
D20*
X279140000Y-77470000D03*
D19*
X275590000Y-77470000D03*
G04 #@! TD*
D21*
G04 #@! TO.C,D8*
X161831896Y-27843750D03*
X161831896Y-24543750D03*
G04 #@! TD*
D46*
G04 #@! TO.C,C9*
X301176659Y-63088967D03*
X300497837Y-62410145D03*
G04 #@! TD*
D17*
G04 #@! TO.C,C15*
X307385680Y-56681124D03*
X307385680Y-55721124D03*
G04 #@! TD*
D23*
G04 #@! TO.C,D24*
X173794400Y-49807784D03*
X170494400Y-49807784D03*
G04 #@! TD*
D18*
G04 #@! TO.C,MX60*
X220345000Y-82550000D03*
D16*
X225425000Y-82550000D03*
D18*
X230505000Y-82550000D03*
D19*
X229235000Y-85090000D03*
D31*
X232785000Y-85090000D03*
D25*
X219335000Y-87630000D03*
D19*
X222885000Y-87630000D03*
G04 #@! TD*
D18*
G04 #@! TO.C,MX76*
X158432377Y-44450000D03*
D16*
X163512376Y-44450000D03*
D18*
X168592375Y-44450000D03*
D25*
X157422376Y-49530000D03*
D19*
X160972376Y-49530000D03*
X167322376Y-46990000D03*
D25*
X170872376Y-46990000D03*
G04 #@! TD*
D17*
G04 #@! TO.C,C6*
X302220072Y-60110432D03*
X302220072Y-59150432D03*
G04 #@! TD*
D23*
G04 #@! TO.C,D34*
X55029656Y-68857768D03*
X51729656Y-68857768D03*
G04 #@! TD*
D18*
G04 #@! TO.C,MX2*
X49530000Y-25400000D03*
D16*
X44450000Y-25400000D03*
D18*
X39370000Y-25400000D03*
D19*
X40640000Y-22860000D03*
D20*
X37090000Y-22860000D03*
X50540000Y-20320000D03*
D19*
X46990000Y-20320000D03*
G04 #@! TD*
D18*
G04 #@! TO.C,MX58*
X201930000Y-82550000D03*
D16*
X196850000Y-82550000D03*
D18*
X191770000Y-82550000D03*
D19*
X193040000Y-80010000D03*
D20*
X189490000Y-80010000D03*
X202940000Y-77470000D03*
D19*
X199390000Y-77470000D03*
G04 #@! TD*
D18*
G04 #@! TO.C,MX6*
X125730000Y-25400000D03*
D16*
X120650000Y-25400000D03*
D18*
X115570000Y-25400000D03*
D19*
X116840000Y-22860000D03*
D20*
X113290000Y-22860000D03*
X126740000Y-20320000D03*
D19*
X123190000Y-20320000D03*
G04 #@! TD*
D23*
G04 #@! TO.C,D20*
X97594464Y-49807784D03*
X94294464Y-49807784D03*
G04 #@! TD*
D18*
G04 #@! TO.C,MX8*
X163830000Y-25400000D03*
D16*
X158750000Y-25400000D03*
D18*
X153670000Y-25400000D03*
D19*
X154940000Y-22860000D03*
D20*
X151390000Y-22860000D03*
X164840000Y-20320000D03*
D19*
X161290000Y-20320000D03*
G04 #@! TD*
D18*
G04 #@! TO.C,MX38*
X115570001Y-63500000D03*
D16*
X120650000Y-63500000D03*
D18*
X125729999Y-63500000D03*
D25*
X114560000Y-68580000D03*
D19*
X118110000Y-68580000D03*
X124460000Y-66040000D03*
D25*
X128010000Y-66040000D03*
G04 #@! TD*
D49*
G04 #@! TO.C,R9*
X304643808Y-73081656D03*
X305365056Y-72360408D03*
G04 #@! TD*
D18*
G04 #@! TO.C,MX79*
X232886071Y-44450000D03*
D16*
X227806072Y-44450000D03*
D18*
X222726073Y-44450000D03*
D20*
X233896072Y-39370000D03*
D19*
X230346072Y-39370000D03*
X223996072Y-41910000D03*
D20*
X220446072Y-41910000D03*
G04 #@! TD*
D18*
G04 #@! TO.C,MX7*
X144780000Y-25400000D03*
D16*
X139700000Y-25400000D03*
D18*
X134620000Y-25400000D03*
D19*
X135890000Y-22860000D03*
D20*
X132340000Y-22860000D03*
X145790000Y-20320000D03*
D19*
X142240000Y-20320000D03*
G04 #@! TD*
D18*
G04 #@! TO.C,MX3*
X68580000Y-25400000D03*
D16*
X63500000Y-25400000D03*
D18*
X58420000Y-25400000D03*
D19*
X59690000Y-22860000D03*
D20*
X56140000Y-22860000D03*
X69590000Y-20320000D03*
D19*
X66040000Y-20320000D03*
G04 #@! TD*
D18*
G04 #@! TO.C,MX55*
X144780000Y-82550000D03*
D16*
X139700000Y-82550000D03*
D18*
X134620000Y-82550000D03*
D19*
X135890000Y-80010000D03*
D20*
X132340000Y-80010000D03*
X145790000Y-77470000D03*
D19*
X142240000Y-77470000D03*
G04 #@! TD*
D21*
G04 #@! TO.C,D5*
X104681944Y-27843750D03*
X104681944Y-24543750D03*
G04 #@! TD*
%LPD*%
M02*
