G04 #@! TF.GenerationSoftware,KiCad,Pcbnew,8.0.2-1.fc39*
G04 #@! TF.CreationDate,2024-05-29T21:02:28-04:00*
G04 #@! TF.ProjectId,KeychronQ9OrthoIntegrated,4b657963-6872-46f6-9e51-394f7274686f,rev?*
G04 #@! TF.SameCoordinates,Original*
G04 #@! TF.FileFunction,OtherDrawing,Comment*
%FSLAX46Y46*%
G04 Gerber Fmt 4.6, Leading zero omitted, Abs format (unit mm)*
G04 Created by KiCad (PCBNEW 8.0.2-1.fc39) date 2024-05-29 21:02:28*
%MOMM*%
%LPD*%
G01*
G04 APERTURE LIST*
%ADD10C,0.100000*%
%ADD11C,0.120000*%
G04 APERTURE END LIST*
G04 #@! TO.C,MX54*
D10*
X111125000Y-92075000D02*
X130175000Y-92075000D01*
X130175000Y-73025000D01*
X111125000Y-73025000D01*
X111125000Y-92075000D01*
G04 #@! TO.C,MX9*
X168275000Y-34925000D02*
X187325000Y-34925000D01*
X187325000Y-15875000D01*
X168275000Y-15875000D01*
X168275000Y-34925000D01*
G04 #@! TO.C,MX37*
X92075000Y-73025000D02*
X111125000Y-73025000D01*
X111125000Y-53975000D01*
X92075000Y-53975000D01*
X92075000Y-73025000D01*
G04 #@! TO.C,MX20*
X73025000Y-53975000D02*
X92075000Y-53975000D01*
X92075000Y-34925000D01*
X73025000Y-34925000D01*
X73025000Y-53975000D01*
G04 #@! TO.C,MX49*
X34925000Y-92075000D02*
X53975000Y-92075000D01*
X53975000Y-73025000D01*
X34925000Y-73025000D01*
X34925000Y-92075000D01*
G04 #@! TO.C,MX36*
X73025000Y-73025000D02*
X92075000Y-73025000D01*
X92075000Y-53975000D01*
X73025000Y-53975000D01*
X73025000Y-73025000D01*
G04 #@! TO.C,MX16*
X306387500Y-34925000D02*
X325437500Y-34925000D01*
X325437500Y-15875000D01*
X306387500Y-15875000D01*
X306387500Y-34925000D01*
G04 #@! TO.C,MX5*
X92075000Y-34925000D02*
X111125000Y-34925000D01*
X111125000Y-15875000D01*
X92075000Y-15875000D01*
X92075000Y-34925000D01*
G04 #@! TO.C,MX35*
X53975000Y-73025000D02*
X73025000Y-73025000D01*
X73025000Y-53975000D01*
X53975000Y-53975000D01*
X53975000Y-73025000D01*
G04 #@! TO.C,MX59*
X206375000Y-92075000D02*
X225425000Y-92075000D01*
X225425000Y-73025000D01*
X206375000Y-73025000D01*
X206375000Y-92075000D01*
G04 #@! TO.C,MX30*
X263525000Y-53975000D02*
X282575000Y-53975000D01*
X282575000Y-34925000D01*
X263525000Y-34925000D01*
X263525000Y-53975000D01*
G04 #@! TO.C,MX44*
X225425000Y-73025000D02*
X244475000Y-73025000D01*
X244475000Y-53975000D01*
X225425000Y-53975000D01*
X225425000Y-73025000D01*
G04 #@! TO.C,MX50*
X53975000Y-92075000D02*
X73025000Y-92075000D01*
X73025000Y-73025000D01*
X53975000Y-73025000D01*
X53975000Y-92075000D01*
G04 #@! TO.C,MX56*
X149225000Y-92075000D02*
X168275000Y-92075000D01*
X168275000Y-73025000D01*
X149225000Y-73025000D01*
X149225000Y-92075000D01*
G04 #@! TO.C,MX47*
X282575000Y-73025000D02*
X301625000Y-73025000D01*
X301625000Y-53975000D01*
X282575000Y-53975000D01*
X282575000Y-73025000D01*
G04 #@! TO.C,MX42*
X187325000Y-73025000D02*
X206375000Y-73025000D01*
X206375000Y-53975000D01*
X187325000Y-53975000D01*
X187325000Y-73025000D01*
G04 #@! TO.C,MX1*
X15875000Y-34925000D02*
X34925000Y-34925000D01*
X34925000Y-15875000D01*
X15875000Y-15875000D01*
X15875000Y-34925000D01*
G04 #@! TO.C,MX65*
X301625000Y-92075000D02*
X320675000Y-92075000D01*
X320675000Y-73025000D01*
X301625000Y-73025000D01*
X301625000Y-92075000D01*
G04 #@! TO.C,MX40*
X149225000Y-73025000D02*
X168275000Y-73025000D01*
X168275000Y-53975000D01*
X149225000Y-53975000D01*
X149225000Y-73025000D01*
G04 #@! TO.C,MX28*
X225425000Y-53975000D02*
X244475000Y-53975000D01*
X244475000Y-34925000D01*
X225425000Y-34925000D01*
X225425000Y-53975000D01*
G04 #@! TO.C,MX63*
X263525000Y-92075000D02*
X282575000Y-92075000D01*
X282575000Y-73025000D01*
X263525000Y-73025000D01*
X263525000Y-92075000D01*
G04 #@! TO.C,MX19*
X53975000Y-53975000D02*
X73025000Y-53975000D01*
X73025000Y-34925000D01*
X53975000Y-34925000D01*
X53975000Y-53975000D01*
G04 #@! TO.C,MX51*
X73025000Y-92075000D02*
X92075000Y-92075000D01*
X92075000Y-73025000D01*
X73025000Y-73025000D01*
X73025000Y-92075000D01*
D11*
G04 #@! TO.C,S2*
X206375000Y-73025000D02*
X206375000Y-92075000D01*
X218425000Y-75550000D02*
X220425000Y-75550000D01*
X218425000Y-77550000D02*
X218425000Y-75550000D01*
X218425000Y-89550000D02*
X218425000Y-87550000D01*
X220425000Y-89550000D02*
X218425000Y-89550000D01*
X232425000Y-75550000D02*
X230425000Y-75550000D01*
X232425000Y-77550000D02*
X232425000Y-75550000D01*
X232425000Y-87550000D02*
X232425000Y-89550000D01*
X232425000Y-89550000D02*
X230425000Y-89550000D01*
X244475000Y-73025000D02*
X206375000Y-73025000D01*
X244475000Y-73025000D02*
X244475000Y-92075000D01*
X244475000Y-92075000D02*
X206375000Y-92075000D01*
G04 #@! TO.C,MX31*
D10*
X282575000Y-53975000D02*
X301625000Y-53975000D01*
X301625000Y-34925000D01*
X282575000Y-34925000D01*
X282575000Y-53975000D01*
G04 #@! TO.C,MX10*
X187325000Y-34925000D02*
X206375000Y-34925000D01*
X206375000Y-15875000D01*
X187325000Y-15875000D01*
X187325000Y-34925000D01*
G04 #@! TO.C,MX12*
X225425000Y-34925000D02*
X244475000Y-34925000D01*
X244475000Y-15875000D01*
X225425000Y-15875000D01*
X225425000Y-34925000D01*
G04 #@! TO.C,MX23*
X130175000Y-53975000D02*
X149225000Y-53975000D01*
X149225000Y-34925000D01*
X130175000Y-34925000D01*
X130175000Y-53975000D01*
G04 #@! TO.C,MX17*
X15875000Y-53975000D02*
X34925000Y-53975000D01*
X34925000Y-34925000D01*
X15875000Y-34925000D01*
X15875000Y-53975000D01*
G04 #@! TO.C,MX24*
X149225000Y-53975000D02*
X168275000Y-53975000D01*
X168275000Y-34925000D01*
X149225000Y-34925000D01*
X149225000Y-53975000D01*
G04 #@! TO.C,MX27*
X206375000Y-53975000D02*
X225425000Y-53975000D01*
X225425000Y-34925000D01*
X206375000Y-34925000D01*
X206375000Y-53975000D01*
G04 #@! TO.C,MX26*
X187325000Y-53975000D02*
X206375000Y-53975000D01*
X206375000Y-34925000D01*
X187325000Y-34925000D01*
X187325000Y-53975000D01*
G04 #@! TO.C,MX13*
X244475000Y-34925000D02*
X263525000Y-34925000D01*
X263525000Y-15875000D01*
X244475000Y-15875000D01*
X244475000Y-34925000D01*
G04 #@! TO.C,MX53*
X120650000Y-73025000D02*
X101600000Y-73025000D01*
X101600000Y-92075000D01*
X120650000Y-92075000D01*
X120650000Y-73025000D01*
G04 #@! TO.C,MX62*
X244475000Y-92075000D02*
X263525000Y-92075000D01*
X263525000Y-73025000D01*
X244475000Y-73025000D01*
X244475000Y-92075000D01*
G04 #@! TO.C,MX4*
X73025000Y-34925000D02*
X92075000Y-34925000D01*
X92075000Y-15875000D01*
X73025000Y-15875000D01*
X73025000Y-34925000D01*
G04 #@! TO.C,MX43*
X206375000Y-73025000D02*
X225425000Y-73025000D01*
X225425000Y-53975000D01*
X206375000Y-53975000D01*
X206375000Y-73025000D01*
G04 #@! TO.C,MX52*
X92075000Y-92075000D02*
X111125000Y-92075000D01*
X111125000Y-73025000D01*
X92075000Y-73025000D01*
X92075000Y-92075000D01*
G04 #@! TO.C,MX41*
X168275000Y-73025000D02*
X187325000Y-73025000D01*
X187325000Y-53975000D01*
X168275000Y-53975000D01*
X168275000Y-73025000D01*
G04 #@! TO.C,MX15*
X282575000Y-34925000D02*
X301625000Y-34925000D01*
X301625000Y-15875000D01*
X282575000Y-15875000D01*
X282575000Y-34925000D01*
G04 #@! TO.C,MX57*
X168275000Y-92075000D02*
X187325000Y-92075000D01*
X187325000Y-73025000D01*
X168275000Y-73025000D01*
X168275000Y-92075000D01*
G04 #@! TO.C,MX38*
X111125000Y-73025000D02*
X130175000Y-73025000D01*
X130175000Y-53975000D01*
X111125000Y-53975000D01*
X111125000Y-73025000D01*
G04 #@! TO.C,MX14*
X263525000Y-34925000D02*
X282575000Y-34925000D01*
X282575000Y-15875000D01*
X263525000Y-15875000D01*
X263525000Y-34925000D01*
G04 #@! TO.C,MX11*
X206375000Y-34925000D02*
X225425000Y-34925000D01*
X225425000Y-15875000D01*
X206375000Y-15875000D01*
X206375000Y-34925000D01*
G04 #@! TO.C,MX48*
X15875000Y-92075000D02*
X34925000Y-92075000D01*
X34925000Y-73025000D01*
X15875000Y-73025000D01*
X15875000Y-92075000D01*
G04 #@! TO.C,MX21*
X92075000Y-53975000D02*
X111125000Y-53975000D01*
X111125000Y-34925000D01*
X92075000Y-34925000D01*
X92075000Y-53975000D01*
G04 #@! TO.C,MX25*
X168275000Y-53975000D02*
X187325000Y-53975000D01*
X187325000Y-34925000D01*
X168275000Y-34925000D01*
X168275000Y-53975000D01*
G04 #@! TO.C,MX32*
X306387500Y-58737500D02*
X325437500Y-58737500D01*
X325437500Y-39687500D01*
X306387500Y-39687500D01*
X306387500Y-58737500D01*
G04 #@! TO.C,MX22*
X111125000Y-53975000D02*
X130175000Y-53975000D01*
X130175000Y-34925000D01*
X111125000Y-34925000D01*
X111125000Y-53975000D01*
G04 #@! TO.C,MX46*
X263525000Y-73025000D02*
X282575000Y-73025000D01*
X282575000Y-53975000D01*
X263525000Y-53975000D01*
X263525000Y-73025000D01*
G04 #@! TO.C,MX39*
X130175000Y-73025000D02*
X149225000Y-73025000D01*
X149225000Y-53975000D01*
X130175000Y-53975000D01*
X130175000Y-73025000D01*
G04 #@! TO.C,MX29*
X244475000Y-53975000D02*
X263525000Y-53975000D01*
X263525000Y-34925000D01*
X244475000Y-34925000D01*
X244475000Y-53975000D01*
G04 #@! TO.C,MX61*
X225425000Y-92075000D02*
X244475000Y-92075000D01*
X244475000Y-73025000D01*
X225425000Y-73025000D01*
X225425000Y-92075000D01*
G04 #@! TO.C,MX33*
X15875000Y-73025000D02*
X34925000Y-73025000D01*
X34925000Y-53975000D01*
X15875000Y-53975000D01*
X15875000Y-73025000D01*
G04 #@! TO.C,MX34*
X34925000Y-73025000D02*
X53975000Y-73025000D01*
X53975000Y-53975000D01*
X34925000Y-53975000D01*
X34925000Y-73025000D01*
D11*
G04 #@! TO.C,S1*
X92075000Y-73025000D02*
X92075000Y-92075000D01*
X104125000Y-75550000D02*
X106125000Y-75550000D01*
X104125000Y-77550000D02*
X104125000Y-75550000D01*
X104125000Y-89550000D02*
X104125000Y-87550000D01*
X106125000Y-89550000D02*
X104125000Y-89550000D01*
X118125000Y-75550000D02*
X116125000Y-75550000D01*
X118125000Y-77550000D02*
X118125000Y-75550000D01*
X118125000Y-87550000D02*
X118125000Y-89550000D01*
X118125000Y-89550000D02*
X116125000Y-89550000D01*
X130175000Y-73025000D02*
X92075000Y-73025000D01*
X130175000Y-73025000D02*
X130175000Y-92075000D01*
X130175000Y-92075000D02*
X92075000Y-92075000D01*
G04 #@! TO.C,MX45*
D10*
X244475000Y-73025000D02*
X263525000Y-73025000D01*
X263525000Y-53975000D01*
X244475000Y-53975000D01*
X244475000Y-73025000D01*
G04 #@! TO.C,MX64*
X282575000Y-92075000D02*
X301625000Y-92075000D01*
X301625000Y-73025000D01*
X282575000Y-73025000D01*
X282575000Y-92075000D01*
G04 #@! TO.C,MX18*
X34925000Y-53975000D02*
X53975000Y-53975000D01*
X53975000Y-34925000D01*
X34925000Y-34925000D01*
X34925000Y-53975000D01*
G04 #@! TO.C,MX55*
X130175000Y-92075000D02*
X149225000Y-92075000D01*
X149225000Y-73025000D01*
X130175000Y-73025000D01*
X130175000Y-92075000D01*
G04 #@! TO.C,MX60*
X234950000Y-73025000D02*
X215900000Y-73025000D01*
X215900000Y-92075000D01*
X234950000Y-92075000D01*
X234950000Y-73025000D01*
G04 #@! TO.C,MX2*
X34925000Y-34925000D02*
X53975000Y-34925000D01*
X53975000Y-15875000D01*
X34925000Y-15875000D01*
X34925000Y-34925000D01*
G04 #@! TO.C,MX58*
X187325000Y-92075000D02*
X206375000Y-92075000D01*
X206375000Y-73025000D01*
X187325000Y-73025000D01*
X187325000Y-92075000D01*
G04 #@! TO.C,MX6*
X111125000Y-34925000D02*
X130175000Y-34925000D01*
X130175000Y-15875000D01*
X111125000Y-15875000D01*
X111125000Y-34925000D01*
G04 #@! TO.C,MX8*
X149225000Y-34925000D02*
X168275000Y-34925000D01*
X168275000Y-15875000D01*
X149225000Y-15875000D01*
X149225000Y-34925000D01*
G04 #@! TO.C,MX7*
X130175000Y-34925000D02*
X149225000Y-34925000D01*
X149225000Y-15875000D01*
X130175000Y-15875000D01*
X130175000Y-34925000D01*
G04 #@! TO.C,MX3*
X53975000Y-34925000D02*
X73025000Y-34925000D01*
X73025000Y-15875000D01*
X53975000Y-15875000D01*
X53975000Y-34925000D01*
G04 #@! TD*
M02*
