%TF.GenerationSoftware,KiCad,Pcbnew,8.0.2-1.fc39*%
%TF.CreationDate,2024-05-29T21:02:28-04:00*%
%TF.ProjectId,KeychronQ9OrthoIntegrated,4b657963-6872-46f6-9e51-394f7274686f,rev?*%
%TF.SameCoordinates,Original*%
%TF.FileFunction,Drillmap*%
%TF.FilePolarity,Positive*%
%FSLAX45Y45*%
G04 Gerber Fmt 4.5, Leading zero omitted, Abs format (unit mm)*
G04 Created by KiCad (PCBNEW 8.0.2-1.fc39) date 2024-05-29 21:02:28*
%MOMM*%
%LPD*%
G01*
G04 APERTURE LIST*
%ADD10C,0.050000*%
%ADD11C,0.200000*%
%ADD12C,0.100000*%
%ADD13C,0.150000*%
%ADD14C,0.300000*%
%ADD15C,0.304800*%
G04 APERTURE END LIST*
D10*
X1746250Y-9207500D02*
G75*
G02*
X1587500Y-9048750I0J158750D01*
G01*
X16629062Y-9207500D02*
G75*
G02*
X17502188Y-9207500I436563J-357187D01*
G01*
X1944687Y-9207500D02*
G75*
G02*
X2817812Y-9207500I436563J-357187D01*
G01*
X32186562Y-1587500D02*
G75*
G02*
X31313437Y-1587500I-436563J357187D01*
G01*
X32186562Y-9207500D02*
X32385000Y-9207500D01*
X17502188Y-9207500D02*
X31313437Y-9207500D01*
X32543750Y-9048750D02*
G75*
G02*
X32385000Y-9207500I-158750J0D01*
G01*
X7302500Y-1587500D02*
X7024687Y-1865312D01*
X1587500Y-1944687D02*
G75*
G02*
X1666875Y-1865310I79380J-3D01*
G01*
X1587500Y-1944687D02*
X1587500Y-9048750D01*
X17502188Y-1587500D02*
G75*
G02*
X16629062Y-1587500I-436563J357187D01*
G01*
X31313437Y-9207500D02*
G75*
G02*
X32186562Y-9207500I436563J-357187D01*
G01*
X1746250Y-9207500D02*
X1944687Y-9207500D01*
X7024687Y-1865312D02*
X1666875Y-1865312D01*
X32186562Y-1587500D02*
X32385000Y-1587500D01*
X17502188Y-1587500D02*
X31313437Y-1587500D01*
X16629062Y-1587500D02*
X7302500Y-1587500D01*
X32385000Y-1587500D02*
G75*
G02*
X32543750Y-1746250I0J-158750D01*
G01*
X16629062Y-9207500D02*
X2817812Y-9207500D01*
X32543750Y-1746250D02*
X32543750Y-9048750D01*
D11*
D12*
X1791405Y-2033240D02*
X1821405Y-2063240D01*
X1821405Y-2033240D02*
X1791405Y-2063240D01*
X2297420Y-7286869D02*
X2327420Y-7316869D01*
X2327420Y-7286869D02*
X2297420Y-7316869D01*
X2312303Y-5381870D02*
X2342303Y-5411870D01*
X2342303Y-5381870D02*
X2312303Y-5411870D01*
X3473161Y-4563316D02*
X3503161Y-4593316D01*
X3503161Y-4563316D02*
X3473161Y-4593316D01*
X3473161Y-4786558D02*
X3503161Y-4816558D01*
X3503161Y-4786558D02*
X3473161Y-4816558D01*
X3473161Y-7286869D02*
X3503161Y-7316869D01*
X3503161Y-7286869D02*
X3473161Y-7316869D01*
X3681520Y-3581052D02*
X3711520Y-3611052D01*
X3711520Y-3581052D02*
X3681520Y-3611052D01*
X3726169Y-4488902D02*
X3756169Y-4518902D01*
X3756169Y-4488902D02*
X3726169Y-4518902D01*
X3726169Y-6408784D02*
X3756169Y-6438784D01*
X3756169Y-6408784D02*
X3726169Y-6438784D01*
X4366129Y-3432224D02*
X4396129Y-3462224D01*
X4396129Y-3432224D02*
X4366129Y-3462224D01*
X4450443Y-5381870D02*
X4480443Y-5411870D01*
X4480443Y-5381870D02*
X4450443Y-5411870D01*
X5378160Y-2033240D02*
X5408160Y-2063240D01*
X5408160Y-2033240D02*
X5378160Y-2063240D01*
X5378160Y-7286869D02*
X5408160Y-7316869D01*
X5408160Y-7286869D02*
X5378160Y-7316869D01*
X7283158Y-7286869D02*
X7313158Y-7316869D01*
X7313158Y-7286869D02*
X7283158Y-7316869D01*
X9173274Y-7286869D02*
X9203274Y-7316869D01*
X9203274Y-7286869D02*
X9173274Y-7316869D01*
X9188156Y-1839764D02*
X9218156Y-1869764D01*
X9218156Y-1839764D02*
X9188156Y-1869764D01*
X9679289Y-8417962D02*
X9709289Y-8447962D01*
X9709289Y-8417962D02*
X9679289Y-8447962D01*
X11093155Y-9013274D02*
X11123155Y-9043274D01*
X11123155Y-9013274D02*
X11093155Y-9043274D01*
X11108038Y-5649761D02*
X11138038Y-5679761D01*
X11138038Y-5649761D02*
X11108038Y-5679761D01*
X12179599Y-8537024D02*
X12209599Y-8567024D01*
X12209599Y-8537024D02*
X12179599Y-8567024D01*
X12998153Y-5649761D02*
X13028153Y-5679761D01*
X13028153Y-5649761D02*
X12998153Y-5679761D01*
X13995301Y-7286869D02*
X14025301Y-7316869D01*
X14025301Y-7286869D02*
X13995301Y-7316869D01*
X14918034Y-5649761D02*
X14948034Y-5679761D01*
X14948034Y-5649761D02*
X14918034Y-5679761D01*
X15870534Y-3476872D02*
X15900534Y-3506872D01*
X15900534Y-3476872D02*
X15870534Y-3506872D01*
X18698266Y-3744762D02*
X18728266Y-3774762D01*
X18728266Y-3744762D02*
X18698266Y-3774762D01*
X18728031Y-5679526D02*
X18758031Y-5709526D01*
X18758031Y-5679526D02*
X18728031Y-5709526D01*
X20618147Y-3759645D02*
X20648147Y-3789645D01*
X20648147Y-3759645D02*
X20618147Y-3789645D01*
X21109279Y-8447727D02*
X21139279Y-8477727D01*
X21139279Y-8447727D02*
X21109279Y-8477727D01*
X21674826Y-8626321D02*
X21704826Y-8656321D01*
X21704826Y-8626321D02*
X21674826Y-8656321D01*
X22523145Y-3774528D02*
X22553145Y-3804528D01*
X22553145Y-3774528D02*
X22523145Y-3804528D01*
X23609590Y-8522141D02*
X23639590Y-8552141D01*
X23639590Y-8522141D02*
X23609590Y-8552141D01*
X26080130Y-4674375D02*
X26110130Y-4704375D01*
X26110130Y-4674375D02*
X26080130Y-4704375D01*
X26228962Y-3417309D02*
X26258962Y-3447309D01*
X26258962Y-3417309D02*
X26228962Y-3447309D01*
X26228962Y-3497309D02*
X26258962Y-3527309D01*
X26258962Y-3497309D02*
X26228962Y-3527309D01*
X26228962Y-3577310D02*
X26258962Y-3607310D01*
X26258962Y-3577310D02*
X26228962Y-3607310D01*
X26228962Y-3657310D02*
X26258962Y-3687310D01*
X26258962Y-3657310D02*
X26228962Y-3687310D01*
X26452204Y-3417309D02*
X26482204Y-3447309D01*
X26482204Y-3417309D02*
X26452204Y-3447309D01*
X26452204Y-3497309D02*
X26482204Y-3527309D01*
X26482204Y-3497309D02*
X26452204Y-3527309D01*
X26452204Y-3577310D02*
X26482204Y-3607310D01*
X26482204Y-3577310D02*
X26452204Y-3607310D01*
X26452204Y-3657310D02*
X26482204Y-3687310D01*
X26482204Y-3657310D02*
X26452204Y-3687310D01*
X26596068Y-4674375D02*
X26626068Y-4704375D01*
X26626068Y-4674375D02*
X26596068Y-4704375D01*
X28039078Y-4761749D02*
X28069078Y-4791749D01*
X28069078Y-4761749D02*
X28039078Y-4791749D01*
X28238140Y-3298278D02*
X28268140Y-3328278D01*
X28268140Y-3298278D02*
X28238140Y-3328278D01*
X28238140Y-3968004D02*
X28268140Y-3998004D01*
X28268140Y-3968004D02*
X28238140Y-3998004D01*
X28277203Y-4761749D02*
X28307203Y-4791749D01*
X28307203Y-4761749D02*
X28277203Y-4791749D01*
X28440914Y-4761749D02*
X28470914Y-4791749D01*
X28470914Y-4761749D02*
X28440914Y-4791749D01*
X29190640Y-7063627D02*
X29220640Y-7093627D01*
X29220640Y-7063627D02*
X29190640Y-7093627D01*
X29666889Y-5605112D02*
X29696889Y-5635112D01*
X29696889Y-5605112D02*
X29666889Y-5635112D01*
X29666889Y-6051596D02*
X29696889Y-6081596D01*
X29696889Y-6051596D02*
X29666889Y-6081596D01*
X29733303Y-8484375D02*
X29763303Y-8514375D01*
X29763303Y-8484375D02*
X29733303Y-8514375D01*
X29746889Y-5605112D02*
X29776889Y-5635112D01*
X29776889Y-5605112D02*
X29746889Y-5635112D01*
X29746889Y-6051596D02*
X29776889Y-6081596D01*
X29776889Y-6051596D02*
X29746889Y-6081596D01*
X29771069Y-4221012D02*
X29801069Y-4251012D01*
X29801069Y-4221012D02*
X29771069Y-4251012D01*
X29826890Y-5605112D02*
X29856890Y-5635112D01*
X29856890Y-5605112D02*
X29826890Y-5635112D01*
X29826890Y-6051596D02*
X29856890Y-6081596D01*
X29856890Y-6051596D02*
X29826890Y-6081596D01*
X29890130Y-4667495D02*
X29920130Y-4697495D01*
X29920130Y-4667495D02*
X29890130Y-4697495D01*
X29899428Y-4875855D02*
X29929428Y-4905855D01*
X29929428Y-4875855D02*
X29899428Y-4905855D01*
X29899428Y-5128863D02*
X29929428Y-5158863D01*
X29929428Y-5128863D02*
X29899428Y-5158863D01*
X29906890Y-5605112D02*
X29936890Y-5635112D01*
X29936890Y-5605112D02*
X29906890Y-5635112D01*
X29906890Y-6051596D02*
X29936890Y-6081596D01*
X29936890Y-6051596D02*
X29906890Y-6081596D01*
X29966890Y-6156707D02*
X29996890Y-6186707D01*
X29996890Y-6156707D02*
X29966890Y-6186707D01*
X29979428Y-4875855D02*
X30009428Y-4905855D01*
X30009428Y-4875855D02*
X29979428Y-4905855D01*
X29979428Y-5128863D02*
X30009428Y-5158863D01*
X30009428Y-5128863D02*
X29979428Y-5158863D01*
X29994311Y-6557612D02*
X30024311Y-6587612D01*
X30024311Y-6557612D02*
X29994311Y-6587612D01*
X30022630Y-7153353D02*
X30052630Y-7183353D01*
X30052630Y-7153353D02*
X30022630Y-7183353D01*
X30053842Y-7363021D02*
X30083842Y-7393021D01*
X30083842Y-7363021D02*
X30053842Y-7393021D01*
X30107787Y-5128863D02*
X30137787Y-5158863D01*
X30137787Y-5128863D02*
X30107787Y-5158863D01*
X30107792Y-4874988D02*
X30137792Y-4904988D01*
X30137792Y-4874988D02*
X30107792Y-4904988D01*
X30118558Y-7098577D02*
X30148558Y-7128577D01*
X30148558Y-7098577D02*
X30118558Y-7128577D01*
X30175126Y-7042008D02*
X30205126Y-7072008D01*
X30205126Y-7042008D02*
X30175126Y-7072008D01*
X30187787Y-4875855D02*
X30217787Y-4905855D01*
X30217787Y-4875855D02*
X30187787Y-4905855D01*
X30187787Y-5128863D02*
X30217787Y-5158863D01*
X30217787Y-5128863D02*
X30187787Y-5158863D01*
X30202670Y-5731616D02*
X30232670Y-5761616D01*
X30232670Y-5731616D02*
X30202670Y-5761616D01*
X30231695Y-6985439D02*
X30261695Y-7015439D01*
X30261695Y-6985439D02*
X30231695Y-7015439D01*
X30257084Y-7381373D02*
X30287084Y-7411373D01*
X30287084Y-7381373D02*
X30257084Y-7411373D01*
X30262201Y-4310309D02*
X30292201Y-4340309D01*
X30292201Y-4310309D02*
X30262201Y-4340309D01*
X30288264Y-6928871D02*
X30318264Y-6958871D01*
X30318264Y-6928871D02*
X30288264Y-6958871D01*
X30315692Y-7326921D02*
X30345692Y-7356921D01*
X30345692Y-7326921D02*
X30315692Y-7356921D01*
X30375692Y-7271986D02*
X30405692Y-7301986D01*
X30405692Y-7271986D02*
X30375692Y-7301986D01*
X30381264Y-5843237D02*
X30411264Y-5873237D01*
X30411264Y-5843237D02*
X30381264Y-5873237D01*
X30411029Y-3328044D02*
X30441029Y-3358044D01*
X30441029Y-3328044D02*
X30411029Y-3358044D01*
X30433726Y-7212455D02*
X30463726Y-7242455D01*
X30463726Y-7212455D02*
X30433726Y-7242455D01*
X30440795Y-4935386D02*
X30470795Y-4965386D01*
X30470795Y-4935386D02*
X30440795Y-4965386D01*
X30440795Y-5486050D02*
X30470795Y-5516050D01*
X30470795Y-5486050D02*
X30440795Y-5516050D01*
X30485443Y-5739058D02*
X30515443Y-5769058D01*
X30515443Y-5739058D02*
X30485443Y-5769058D01*
X30530092Y-7139186D02*
X30560092Y-7169186D01*
X30560092Y-7139186D02*
X30530092Y-7169186D01*
X30582741Y-8484375D02*
X30612741Y-8514375D01*
X30612741Y-8484375D02*
X30582741Y-8514375D01*
X30618451Y-6244135D02*
X30648451Y-6274135D01*
X30648451Y-6244135D02*
X30618451Y-6274135D01*
X30618451Y-6484135D02*
X30648451Y-6514135D01*
X30648451Y-6484135D02*
X30618451Y-6514135D01*
X30635554Y-6913516D02*
X30665554Y-6943516D01*
X30665554Y-6913516D02*
X30635554Y-6943516D01*
X30738451Y-6364135D02*
X30768451Y-6394135D01*
X30768451Y-6364135D02*
X30738451Y-6394135D01*
X30768216Y-5471167D02*
X30798216Y-5501167D01*
X30798216Y-5471167D02*
X30768216Y-5501167D01*
X30783099Y-5292574D02*
X30813099Y-5322574D01*
X30813099Y-5292574D02*
X30783099Y-5322574D01*
X30793697Y-5738829D02*
X30823697Y-5768829D01*
X30823697Y-5738829D02*
X30793697Y-5768829D01*
X30812865Y-7610460D02*
X30842865Y-7640460D01*
X30842865Y-7610460D02*
X30812865Y-7640460D01*
X30847279Y-5244815D02*
X30877279Y-5274815D01*
X30877279Y-5244815D02*
X30847279Y-5274815D01*
X30858451Y-6244135D02*
X30888451Y-6274135D01*
X30888451Y-6244135D02*
X30858451Y-6274135D01*
X30858451Y-6484135D02*
X30888451Y-6514135D01*
X30888451Y-6484135D02*
X30858451Y-6514135D01*
X30864955Y-7027565D02*
X30894955Y-7057565D01*
X30894955Y-7027565D02*
X30864955Y-7057565D01*
X31006341Y-7168952D02*
X31036341Y-7198952D01*
X31036341Y-7168952D02*
X31006341Y-7198952D01*
X31195250Y-3089919D02*
X31225250Y-3119919D01*
X31225250Y-3089919D02*
X31195250Y-3119919D01*
X31199818Y-6124135D02*
X31229818Y-6154135D01*
X31229818Y-6124135D02*
X31199818Y-6154135D01*
X31318880Y-2683120D02*
X31348880Y-2713120D01*
X31348880Y-2683120D02*
X31318880Y-2713120D01*
X31391508Y-6235482D02*
X31421508Y-6265482D01*
X31421508Y-6235482D02*
X31391508Y-6265482D01*
X31391977Y-6320804D02*
X31421977Y-6350804D01*
X31421977Y-6320804D02*
X31391977Y-6350804D01*
X31467708Y-7212455D02*
X31497708Y-7242455D01*
X31497708Y-7212455D02*
X31467708Y-7242455D01*
X31512356Y-4414488D02*
X31542356Y-4444488D01*
X31542356Y-4414488D02*
X31512356Y-4444488D01*
X31517318Y-2127495D02*
X31547318Y-2157495D01*
X31547318Y-2127495D02*
X31517318Y-2157495D01*
X31557910Y-6571589D02*
X31587910Y-6601589D01*
X31587910Y-6571589D02*
X31557910Y-6601589D01*
X31565833Y-6038970D02*
X31595833Y-6068970D01*
X31595833Y-6038970D02*
X31565833Y-6068970D01*
X31699855Y-5158628D02*
X31729855Y-5188628D01*
X31729855Y-5158628D02*
X31699855Y-5188628D01*
X31812989Y-6810619D02*
X31842989Y-6840619D01*
X31842989Y-6810619D02*
X31812989Y-6840619D01*
X31973723Y-7167338D02*
X32003723Y-7197338D01*
X32003723Y-7167338D02*
X31973723Y-7197338D01*
X32048162Y-7138031D02*
X32078162Y-7168031D01*
X32078162Y-7138031D02*
X32048162Y-7168031D01*
X32092786Y-5165625D02*
X32122786Y-5195625D01*
X32122786Y-5165625D02*
X32092786Y-5195625D01*
X32122551Y-7167806D02*
X32152551Y-7197806D01*
X32152551Y-7167806D02*
X32122551Y-7197806D01*
X32167200Y-4652613D02*
X32197200Y-4682613D01*
X32197200Y-4652613D02*
X32167200Y-4682613D01*
X32192005Y-2841870D02*
X32222005Y-2871870D01*
X32222005Y-2841870D02*
X32192005Y-2871870D01*
X32196965Y-7123158D02*
X32226965Y-7153158D01*
X32226965Y-7123158D02*
X32196965Y-7153158D01*
X32271379Y-7093392D02*
X32301379Y-7123392D01*
X32301379Y-7093392D02*
X32271379Y-7123392D01*
X32345793Y-7063627D02*
X32375793Y-7093627D01*
X32375793Y-7063627D02*
X32345793Y-7093627D01*
X32390442Y-3759645D02*
X32420442Y-3789645D01*
X32420442Y-3759645D02*
X32390442Y-3789645D01*
X29708443Y-8989211D02*
G75*
G02*
X29608443Y-8989211I-50000J0D01*
G01*
X29608443Y-8989211D02*
G75*
G02*
X29708443Y-8989211I50000J0D01*
G01*
X29962443Y-8989211D02*
G75*
G02*
X29862443Y-8989211I-50000J0D01*
G01*
X29862443Y-8989211D02*
G75*
G02*
X29962443Y-8989211I50000J0D01*
G01*
X30216443Y-8989211D02*
G75*
G02*
X30116443Y-8989211I-50000J0D01*
G01*
X30116443Y-8989211D02*
G75*
G02*
X30216443Y-8989211I50000J0D01*
G01*
X30470443Y-8989211D02*
G75*
G02*
X30370443Y-8989211I-50000J0D01*
G01*
X30370443Y-8989211D02*
G75*
G02*
X30470443Y-8989211I50000J0D01*
G01*
X30724443Y-8989211D02*
G75*
G02*
X30624443Y-8989211I-50000J0D01*
G01*
X30624443Y-8989211D02*
G75*
G02*
X30724443Y-8989211I50000J0D01*
G01*
X31391250Y-3290000D02*
G75*
G02*
X31291250Y-3290000I-50000J0D01*
G01*
X31291250Y-3290000D02*
G75*
G02*
X31391250Y-3290000I50000J0D01*
G01*
X31391250Y-5671250D02*
G75*
G02*
X31291250Y-5671250I-50000J0D01*
G01*
X31291250Y-5671250D02*
G75*
G02*
X31391250Y-5671250I50000J0D01*
G01*
X31391250Y-1840000D02*
G75*
G02*
X31291250Y-1840000I-50000J0D01*
G01*
X31291250Y-1840000D02*
G75*
G02*
X31391250Y-1840000I50000J0D01*
G01*
X31391250Y-4221250D02*
G75*
G02*
X31291250Y-4221250I-50000J0D01*
G01*
X31291250Y-4221250D02*
G75*
G02*
X31391250Y-4221250I50000J0D01*
G01*
X31641250Y-3290000D02*
G75*
G02*
X31541250Y-3290000I-50000J0D01*
G01*
X31541250Y-3290000D02*
G75*
G02*
X31641250Y-3290000I50000J0D01*
G01*
X31641250Y-5671250D02*
G75*
G02*
X31541250Y-5671250I-50000J0D01*
G01*
X31541250Y-5671250D02*
G75*
G02*
X31641250Y-5671250I50000J0D01*
G01*
X31891250Y-1840000D02*
G75*
G02*
X31791250Y-1840000I-50000J0D01*
G01*
X31791250Y-1840000D02*
G75*
G02*
X31891250Y-1840000I50000J0D01*
G01*
X31891250Y-4221250D02*
G75*
G02*
X31791250Y-4221250I-50000J0D01*
G01*
X31791250Y-4221250D02*
G75*
G02*
X31891250Y-4221250I50000J0D01*
G01*
X31891250Y-3290000D02*
G75*
G02*
X31791250Y-3290000I-50000J0D01*
G01*
X31791250Y-3290000D02*
G75*
G02*
X31891250Y-3290000I50000J0D01*
G01*
X31891250Y-5671250D02*
G75*
G02*
X31791250Y-5671250I-50000J0D01*
G01*
X31791250Y-5671250D02*
G75*
G02*
X31891250Y-5671250I50000J0D01*
G01*
D13*
X31031250Y-2465000D02*
X31031250Y-2615000D01*
X30956250Y-2540000D02*
X31106250Y-2540000D01*
D12*
X31106250Y-2605000D02*
X31106250Y-2475000D01*
X30956250Y-2475000D02*
G75*
G02*
X31106250Y-2475000I75000J0D01*
G01*
X30956250Y-2475000D02*
X30956250Y-2605000D01*
X30956250Y-2605000D02*
G75*
G03*
X31106250Y-2605000I75000J0D01*
G01*
D13*
X31031250Y-4846250D02*
X31031250Y-4996250D01*
X30956250Y-4921250D02*
X31106250Y-4921250D01*
D12*
X31106250Y-4986250D02*
X31106250Y-4856250D01*
X30956250Y-4856250D02*
G75*
G02*
X31106250Y-4856250I75000J0D01*
G01*
X30956250Y-4856250D02*
X30956250Y-4986250D01*
X30956250Y-4986250D02*
G75*
G03*
X31106250Y-4986250I75000J0D01*
G01*
D13*
X32151250Y-2465000D02*
X32151250Y-2615000D01*
X32076250Y-2540000D02*
X32226250Y-2540000D01*
D12*
X32226250Y-2605000D02*
X32226250Y-2475000D01*
X32076250Y-2475000D02*
G75*
G02*
X32226250Y-2475000I75000J0D01*
G01*
X32076250Y-2475000D02*
X32076250Y-2605000D01*
X32076250Y-2605000D02*
G75*
G03*
X32226250Y-2605000I75000J0D01*
G01*
D13*
X32151250Y-4846250D02*
X32151250Y-4996250D01*
X32076250Y-4921250D02*
X32226250Y-4921250D01*
D12*
X32226250Y-4986250D02*
X32226250Y-4856250D01*
X32076250Y-4856250D02*
G75*
G02*
X32226250Y-4856250I75000J0D01*
G01*
X32076250Y-4856250D02*
X32076250Y-4986250D01*
X32076250Y-4986250D02*
G75*
G03*
X32226250Y-4986250I75000J0D01*
G01*
D14*
X2265067Y-2392067D02*
X2265067Y-2179933D01*
X2052933Y-2179933D01*
X2052933Y-2392067D01*
X2265067Y-2392067D01*
X2265067Y-4297067D02*
X2265067Y-4084933D01*
X2052933Y-4084933D01*
X2052933Y-4297067D01*
X2265067Y-4297067D01*
X2265067Y-6202067D02*
X2265067Y-5989933D01*
X2052933Y-5989933D01*
X2052933Y-6202067D01*
X2265067Y-6202067D01*
X2265067Y-8107067D02*
X2265067Y-7894933D01*
X2052933Y-7894933D01*
X2052933Y-8107067D01*
X2265067Y-8107067D01*
X2900067Y-2138067D02*
X2900067Y-1925933D01*
X2687933Y-1925933D01*
X2687933Y-2138067D01*
X2900067Y-2138067D01*
X2900067Y-4043067D02*
X2900067Y-3830933D01*
X2687933Y-3830933D01*
X2687933Y-4043067D01*
X2900067Y-4043067D01*
X2900067Y-5948067D02*
X2900067Y-5735933D01*
X2687933Y-5735933D01*
X2687933Y-5948067D01*
X2900067Y-5948067D01*
X2900067Y-7853067D02*
X2900067Y-7640933D01*
X2687933Y-7640933D01*
X2687933Y-7853067D01*
X2900067Y-7853067D01*
X4170067Y-2392067D02*
X4170067Y-2179933D01*
X3957933Y-2179933D01*
X3957933Y-2392067D01*
X4170067Y-2392067D01*
X4170067Y-4297067D02*
X4170067Y-4084933D01*
X3957933Y-4084933D01*
X3957933Y-4297067D01*
X4170067Y-4297067D01*
X4170067Y-6202067D02*
X4170067Y-5989933D01*
X3957933Y-5989933D01*
X3957933Y-6202067D01*
X4170067Y-6202067D01*
X4170067Y-8107067D02*
X4170067Y-7894933D01*
X3957933Y-7894933D01*
X3957933Y-8107067D01*
X4170067Y-8107067D01*
X4805067Y-2138067D02*
X4805067Y-1925933D01*
X4592933Y-1925933D01*
X4592933Y-2138067D01*
X4805067Y-2138067D01*
X4805067Y-4043067D02*
X4805067Y-3830933D01*
X4592933Y-3830933D01*
X4592933Y-4043067D01*
X4805067Y-4043067D01*
X4805067Y-5948067D02*
X4805067Y-5735933D01*
X4592933Y-5735933D01*
X4592933Y-5948067D01*
X4805067Y-5948067D01*
X4805067Y-7853067D02*
X4805067Y-7640933D01*
X4592933Y-7640933D01*
X4592933Y-7853067D01*
X4805067Y-7853067D01*
X6075067Y-2392067D02*
X6075067Y-2179933D01*
X5862933Y-2179933D01*
X5862933Y-2392067D01*
X6075067Y-2392067D01*
X6075067Y-4297067D02*
X6075067Y-4084933D01*
X5862933Y-4084933D01*
X5862933Y-4297067D01*
X6075067Y-4297067D01*
X6075067Y-6202067D02*
X6075067Y-5989933D01*
X5862933Y-5989933D01*
X5862933Y-6202067D01*
X6075067Y-6202067D01*
X6075067Y-8107067D02*
X6075067Y-7894933D01*
X5862933Y-7894933D01*
X5862933Y-8107067D01*
X6075067Y-8107067D01*
X6710067Y-2138067D02*
X6710067Y-1925933D01*
X6497933Y-1925933D01*
X6497933Y-2138067D01*
X6710067Y-2138067D01*
X6710067Y-4043067D02*
X6710067Y-3830933D01*
X6497933Y-3830933D01*
X6497933Y-4043067D01*
X6710067Y-4043067D01*
X6710067Y-5948067D02*
X6710067Y-5735933D01*
X6497933Y-5735933D01*
X6497933Y-5948067D01*
X6710067Y-5948067D01*
X6710067Y-7853067D02*
X6710067Y-7640933D01*
X6497933Y-7640933D01*
X6497933Y-7853067D01*
X6710067Y-7853067D01*
X7980067Y-2392067D02*
X7980067Y-2179933D01*
X7767933Y-2179933D01*
X7767933Y-2392067D01*
X7980067Y-2392067D01*
X7980067Y-4297067D02*
X7980067Y-4084933D01*
X7767933Y-4084933D01*
X7767933Y-4297067D01*
X7980067Y-4297067D01*
X7980067Y-6202067D02*
X7980067Y-5989933D01*
X7767933Y-5989933D01*
X7767933Y-6202067D01*
X7980067Y-6202067D01*
X7980067Y-8107067D02*
X7980067Y-7894933D01*
X7767933Y-7894933D01*
X7767933Y-8107067D01*
X7980067Y-8107067D01*
X8615067Y-2138067D02*
X8615067Y-1925933D01*
X8402933Y-1925933D01*
X8402933Y-2138067D01*
X8615067Y-2138067D01*
X8615067Y-4043067D02*
X8615067Y-3830933D01*
X8402933Y-3830933D01*
X8402933Y-4043067D01*
X8615067Y-4043067D01*
X8615067Y-5948067D02*
X8615067Y-5735933D01*
X8402933Y-5735933D01*
X8402933Y-5948067D01*
X8615067Y-5948067D01*
X8615067Y-7853067D02*
X8615067Y-7640933D01*
X8402933Y-7640933D01*
X8402933Y-7853067D01*
X8615067Y-7853067D01*
X9885067Y-2392067D02*
X9885067Y-2179933D01*
X9672933Y-2179933D01*
X9672933Y-2392067D01*
X9885067Y-2392067D01*
X9885067Y-4297067D02*
X9885067Y-4084933D01*
X9672933Y-4084933D01*
X9672933Y-4297067D01*
X9885067Y-4297067D01*
X9885067Y-6202067D02*
X9885067Y-5989933D01*
X9672933Y-5989933D01*
X9672933Y-6202067D01*
X9885067Y-6202067D01*
X9885067Y-8107067D02*
X9885067Y-7894933D01*
X9672933Y-7894933D01*
X9672933Y-8107067D01*
X9885067Y-8107067D01*
X10520067Y-2138067D02*
X10520067Y-1925933D01*
X10307933Y-1925933D01*
X10307933Y-2138067D01*
X10520067Y-2138067D01*
X10520067Y-4043067D02*
X10520067Y-3830933D01*
X10307933Y-3830933D01*
X10307933Y-4043067D01*
X10520067Y-4043067D01*
X10520067Y-5948067D02*
X10520067Y-5735933D01*
X10307933Y-5735933D01*
X10307933Y-5948067D01*
X10520067Y-5948067D01*
X10520067Y-7853067D02*
X10520067Y-7640933D01*
X10307933Y-7640933D01*
X10307933Y-7853067D01*
X10520067Y-7853067D01*
X10964567Y-8869067D02*
X10964567Y-8656933D01*
X10752433Y-8656933D01*
X10752433Y-8869067D01*
X10964567Y-8869067D01*
X11599567Y-8615067D02*
X11599567Y-8402933D01*
X11387433Y-8402933D01*
X11387433Y-8615067D01*
X11599567Y-8615067D01*
X11790067Y-2392067D02*
X11790067Y-2179933D01*
X11577933Y-2179933D01*
X11577933Y-2392067D01*
X11790067Y-2392067D01*
X11790067Y-4297067D02*
X11790067Y-4084933D01*
X11577933Y-4084933D01*
X11577933Y-4297067D01*
X11790067Y-4297067D01*
X11790067Y-6202067D02*
X11790067Y-5989933D01*
X11577933Y-5989933D01*
X11577933Y-6202067D01*
X11790067Y-6202067D01*
X11790067Y-8107067D02*
X11790067Y-7894933D01*
X11577933Y-7894933D01*
X11577933Y-8107067D01*
X11790067Y-8107067D01*
X12425067Y-2138067D02*
X12425067Y-1925933D01*
X12212933Y-1925933D01*
X12212933Y-2138067D01*
X12425067Y-2138067D01*
X12425067Y-4043067D02*
X12425067Y-3830933D01*
X12212933Y-3830933D01*
X12212933Y-4043067D01*
X12425067Y-4043067D01*
X12425067Y-5948067D02*
X12425067Y-5735933D01*
X12212933Y-5735933D01*
X12212933Y-5948067D01*
X12425067Y-5948067D01*
X12425067Y-7853067D02*
X12425067Y-7640933D01*
X12212933Y-7640933D01*
X12212933Y-7853067D01*
X12425067Y-7853067D01*
X13695067Y-2392067D02*
X13695067Y-2179933D01*
X13482933Y-2179933D01*
X13482933Y-2392067D01*
X13695067Y-2392067D01*
X13695067Y-4297067D02*
X13695067Y-4084933D01*
X13482933Y-4084933D01*
X13482933Y-4297067D01*
X13695067Y-4297067D01*
X13695067Y-6202067D02*
X13695067Y-5989933D01*
X13482933Y-5989933D01*
X13482933Y-6202067D01*
X13695067Y-6202067D01*
X13695067Y-8107067D02*
X13695067Y-7894933D01*
X13482933Y-7894933D01*
X13482933Y-8107067D01*
X13695067Y-8107067D01*
X14330067Y-2138067D02*
X14330067Y-1925933D01*
X14117933Y-1925933D01*
X14117933Y-2138067D01*
X14330067Y-2138067D01*
X14330067Y-4043067D02*
X14330067Y-3830933D01*
X14117933Y-3830933D01*
X14117933Y-4043067D01*
X14330067Y-4043067D01*
X14330067Y-5948067D02*
X14330067Y-5735933D01*
X14117933Y-5735933D01*
X14117933Y-5948067D01*
X14330067Y-5948067D01*
X14330067Y-7853067D02*
X14330067Y-7640933D01*
X14117933Y-7640933D01*
X14117933Y-7853067D01*
X14330067Y-7853067D01*
X15600067Y-2392067D02*
X15600067Y-2179933D01*
X15387933Y-2179933D01*
X15387933Y-2392067D01*
X15600067Y-2392067D01*
X15600067Y-4297067D02*
X15600067Y-4084933D01*
X15387933Y-4084933D01*
X15387933Y-4297067D01*
X15600067Y-4297067D01*
X15600067Y-6202067D02*
X15600067Y-5989933D01*
X15387933Y-5989933D01*
X15387933Y-6202067D01*
X15600067Y-6202067D01*
X15600067Y-8107067D02*
X15600067Y-7894933D01*
X15387933Y-7894933D01*
X15387933Y-8107067D01*
X15600067Y-8107067D01*
X16235067Y-2138067D02*
X16235067Y-1925933D01*
X16022933Y-1925933D01*
X16022933Y-2138067D01*
X16235067Y-2138067D01*
X16235067Y-4043067D02*
X16235067Y-3830933D01*
X16022933Y-3830933D01*
X16022933Y-4043067D01*
X16235067Y-4043067D01*
X16235067Y-5948067D02*
X16235067Y-5735933D01*
X16022933Y-5735933D01*
X16022933Y-5948067D01*
X16235067Y-5948067D01*
X16235067Y-7853067D02*
X16235067Y-7640933D01*
X16022933Y-7640933D01*
X16022933Y-7853067D01*
X16235067Y-7853067D01*
X17505067Y-2392067D02*
X17505067Y-2179933D01*
X17292933Y-2179933D01*
X17292933Y-2392067D01*
X17505067Y-2392067D01*
X17505067Y-4297067D02*
X17505067Y-4084933D01*
X17292933Y-4084933D01*
X17292933Y-4297067D01*
X17505067Y-4297067D01*
X17505067Y-6202067D02*
X17505067Y-5989933D01*
X17292933Y-5989933D01*
X17292933Y-6202067D01*
X17505067Y-6202067D01*
X17505067Y-8107067D02*
X17505067Y-7894933D01*
X17292933Y-7894933D01*
X17292933Y-8107067D01*
X17505067Y-8107067D01*
X18140067Y-2138067D02*
X18140067Y-1925933D01*
X17927933Y-1925933D01*
X17927933Y-2138067D01*
X18140067Y-2138067D01*
X18140067Y-4043067D02*
X18140067Y-3830933D01*
X17927933Y-3830933D01*
X17927933Y-4043067D01*
X18140067Y-4043067D01*
X18140067Y-5948067D02*
X18140067Y-5735933D01*
X17927933Y-5735933D01*
X17927933Y-5948067D01*
X18140067Y-5948067D01*
X18140067Y-7853067D02*
X18140067Y-7640933D01*
X17927933Y-7640933D01*
X17927933Y-7853067D01*
X18140067Y-7853067D01*
X19410067Y-2392067D02*
X19410067Y-2179933D01*
X19197933Y-2179933D01*
X19197933Y-2392067D01*
X19410067Y-2392067D01*
X19410067Y-4297067D02*
X19410067Y-4084933D01*
X19197933Y-4084933D01*
X19197933Y-4297067D01*
X19410067Y-4297067D01*
X19410067Y-6202067D02*
X19410067Y-5989933D01*
X19197933Y-5989933D01*
X19197933Y-6202067D01*
X19410067Y-6202067D01*
X19410067Y-8107067D02*
X19410067Y-7894933D01*
X19197933Y-7894933D01*
X19197933Y-8107067D01*
X19410067Y-8107067D01*
X20045067Y-2138067D02*
X20045067Y-1925933D01*
X19832933Y-1925933D01*
X19832933Y-2138067D01*
X20045067Y-2138067D01*
X20045067Y-4043067D02*
X20045067Y-3830933D01*
X19832933Y-3830933D01*
X19832933Y-4043067D01*
X20045067Y-4043067D01*
X20045067Y-5948067D02*
X20045067Y-5735933D01*
X19832933Y-5735933D01*
X19832933Y-5948067D01*
X20045067Y-5948067D01*
X20045067Y-7853067D02*
X20045067Y-7640933D01*
X19832933Y-7640933D01*
X19832933Y-7853067D01*
X20045067Y-7853067D01*
X21315067Y-2392067D02*
X21315067Y-2179933D01*
X21102933Y-2179933D01*
X21102933Y-2392067D01*
X21315067Y-2392067D01*
X21315067Y-4297067D02*
X21315067Y-4084933D01*
X21102933Y-4084933D01*
X21102933Y-4297067D01*
X21315067Y-4297067D01*
X21315067Y-6202067D02*
X21315067Y-5989933D01*
X21102933Y-5989933D01*
X21102933Y-6202067D01*
X21315067Y-6202067D01*
X21315067Y-8107067D02*
X21315067Y-7894933D01*
X21102933Y-7894933D01*
X21102933Y-8107067D01*
X21315067Y-8107067D01*
X21950067Y-2138067D02*
X21950067Y-1925933D01*
X21737933Y-1925933D01*
X21737933Y-2138067D01*
X21950067Y-2138067D01*
X21950067Y-4043067D02*
X21950067Y-3830933D01*
X21737933Y-3830933D01*
X21737933Y-4043067D01*
X21950067Y-4043067D01*
X21950067Y-5948067D02*
X21950067Y-5735933D01*
X21737933Y-5735933D01*
X21737933Y-5948067D01*
X21950067Y-5948067D01*
X21950067Y-7853067D02*
X21950067Y-7640933D01*
X21737933Y-7640933D01*
X21737933Y-7853067D01*
X21950067Y-7853067D01*
X22394567Y-8869067D02*
X22394567Y-8656933D01*
X22182433Y-8656933D01*
X22182433Y-8869067D01*
X22394567Y-8869067D01*
X23029567Y-8615067D02*
X23029567Y-8402933D01*
X22817433Y-8402933D01*
X22817433Y-8615067D01*
X23029567Y-8615067D01*
X23220067Y-2392067D02*
X23220067Y-2179933D01*
X23007933Y-2179933D01*
X23007933Y-2392067D01*
X23220067Y-2392067D01*
X23220067Y-4297067D02*
X23220067Y-4084933D01*
X23007933Y-4084933D01*
X23007933Y-4297067D01*
X23220067Y-4297067D01*
X23220067Y-6202067D02*
X23220067Y-5989933D01*
X23007933Y-5989933D01*
X23007933Y-6202067D01*
X23220067Y-6202067D01*
X23220067Y-8107067D02*
X23220067Y-7894933D01*
X23007933Y-7894933D01*
X23007933Y-8107067D01*
X23220067Y-8107067D01*
X23855067Y-2138067D02*
X23855067Y-1925933D01*
X23642933Y-1925933D01*
X23642933Y-2138067D01*
X23855067Y-2138067D01*
X23855067Y-4043067D02*
X23855067Y-3830933D01*
X23642933Y-3830933D01*
X23642933Y-4043067D01*
X23855067Y-4043067D01*
X23855067Y-5948067D02*
X23855067Y-5735933D01*
X23642933Y-5735933D01*
X23642933Y-5948067D01*
X23855067Y-5948067D01*
X23855067Y-7853067D02*
X23855067Y-7640933D01*
X23642933Y-7640933D01*
X23642933Y-7853067D01*
X23855067Y-7853067D01*
X25125067Y-2392067D02*
X25125067Y-2179933D01*
X24912933Y-2179933D01*
X24912933Y-2392067D01*
X25125067Y-2392067D01*
X25125067Y-4297067D02*
X25125067Y-4084933D01*
X24912933Y-4084933D01*
X24912933Y-4297067D01*
X25125067Y-4297067D01*
X25125067Y-6202067D02*
X25125067Y-5989933D01*
X24912933Y-5989933D01*
X24912933Y-6202067D01*
X25125067Y-6202067D01*
X25125067Y-8107067D02*
X25125067Y-7894933D01*
X24912933Y-7894933D01*
X24912933Y-8107067D01*
X25125067Y-8107067D01*
X25760067Y-2138067D02*
X25760067Y-1925933D01*
X25547933Y-1925933D01*
X25547933Y-2138067D01*
X25760067Y-2138067D01*
X25760067Y-4043067D02*
X25760067Y-3830933D01*
X25547933Y-3830933D01*
X25547933Y-4043067D01*
X25760067Y-4043067D01*
X25760067Y-5948067D02*
X25760067Y-5735933D01*
X25547933Y-5735933D01*
X25547933Y-5948067D01*
X25760067Y-5948067D01*
X25760067Y-7853067D02*
X25760067Y-7640933D01*
X25547933Y-7640933D01*
X25547933Y-7853067D01*
X25760067Y-7853067D01*
X27030067Y-2392067D02*
X27030067Y-2179933D01*
X26817933Y-2179933D01*
X26817933Y-2392067D01*
X27030067Y-2392067D01*
X27030067Y-4297067D02*
X27030067Y-4084933D01*
X26817933Y-4084933D01*
X26817933Y-4297067D01*
X27030067Y-4297067D01*
X27030067Y-6202067D02*
X27030067Y-5989933D01*
X26817933Y-5989933D01*
X26817933Y-6202067D01*
X27030067Y-6202067D01*
X27030067Y-8107067D02*
X27030067Y-7894933D01*
X26817933Y-7894933D01*
X26817933Y-8107067D01*
X27030067Y-8107067D01*
X27665067Y-2138067D02*
X27665067Y-1925933D01*
X27452933Y-1925933D01*
X27452933Y-2138067D01*
X27665067Y-2138067D01*
X27665067Y-4043067D02*
X27665067Y-3830933D01*
X27452933Y-3830933D01*
X27452933Y-4043067D01*
X27665067Y-4043067D01*
X27665067Y-5948067D02*
X27665067Y-5735933D01*
X27452933Y-5735933D01*
X27452933Y-5948067D01*
X27665067Y-5948067D01*
X27665067Y-7853067D02*
X27665067Y-7640933D01*
X27452933Y-7640933D01*
X27452933Y-7853067D01*
X27665067Y-7853067D01*
X28935067Y-2392067D02*
X28935067Y-2179933D01*
X28722933Y-2179933D01*
X28722933Y-2392067D01*
X28935067Y-2392067D01*
X28935067Y-4297067D02*
X28935067Y-4084933D01*
X28722933Y-4084933D01*
X28722933Y-4297067D01*
X28935067Y-4297067D01*
X28935067Y-6202067D02*
X28935067Y-5989933D01*
X28722933Y-5989933D01*
X28722933Y-6202067D01*
X28935067Y-6202067D01*
X28935067Y-8107067D02*
X28935067Y-7894933D01*
X28722933Y-7894933D01*
X28722933Y-8107067D01*
X28935067Y-8107067D01*
X29570067Y-2138067D02*
X29570067Y-1925933D01*
X29357933Y-1925933D01*
X29357933Y-2138067D01*
X29570067Y-2138067D01*
X29570067Y-4043067D02*
X29570067Y-3830933D01*
X29357933Y-3830933D01*
X29357933Y-4043067D01*
X29570067Y-4043067D01*
X29570067Y-5948067D02*
X29570067Y-5735933D01*
X29357933Y-5735933D01*
X29357933Y-5948067D01*
X29570067Y-5948067D01*
X29570067Y-7853067D02*
X29570067Y-7640933D01*
X29357933Y-7640933D01*
X29357933Y-7853067D01*
X29570067Y-7853067D01*
X30840067Y-8107067D02*
X30840067Y-7894933D01*
X30627933Y-7894933D01*
X30627933Y-8107067D01*
X30840067Y-8107067D01*
X31316317Y-2392067D02*
X31316317Y-2179933D01*
X31104183Y-2179933D01*
X31104183Y-2392067D01*
X31316317Y-2392067D01*
X31316317Y-4773317D02*
X31316317Y-4561183D01*
X31104183Y-4561183D01*
X31104183Y-4773317D01*
X31316317Y-4773317D01*
X31475067Y-7853067D02*
X31475067Y-7640933D01*
X31262933Y-7640933D01*
X31262933Y-7853067D01*
X31475067Y-7853067D01*
X31951317Y-2138067D02*
X31951317Y-1925933D01*
X31739183Y-1925933D01*
X31739183Y-2138067D01*
X31951317Y-2138067D01*
X31951317Y-4519317D02*
X31951317Y-4307183D01*
X31739183Y-4307183D01*
X31739183Y-4519317D01*
X31951317Y-4519317D01*
D15*
X9921875Y-9105900D02*
X10074275Y-8953500D01*
X9921875Y-8801100D01*
X9769475Y-8953500D01*
X9921875Y-9105900D01*
X12303125Y-9105900D02*
X12455525Y-8953500D01*
X12303125Y-8801100D01*
X12150725Y-8953500D01*
X12303125Y-9105900D01*
X21351875Y-9105900D02*
X21504275Y-8953500D01*
X21351875Y-8801100D01*
X21199475Y-8953500D01*
X21351875Y-9105900D01*
X23733125Y-9105900D02*
X23885525Y-8953500D01*
X23733125Y-8801100D01*
X23580725Y-8953500D01*
X23733125Y-9105900D01*
D11*
X1845777Y-9521484D02*
X1845777Y-9321484D01*
X1845777Y-9321484D02*
X1893396Y-9321484D01*
X1893396Y-9321484D02*
X1921967Y-9331008D01*
X1921967Y-9331008D02*
X1941015Y-9350055D01*
X1941015Y-9350055D02*
X1950539Y-9369103D01*
X1950539Y-9369103D02*
X1960062Y-9407198D01*
X1960062Y-9407198D02*
X1960062Y-9435770D01*
X1960062Y-9435770D02*
X1950539Y-9473865D01*
X1950539Y-9473865D02*
X1941015Y-9492912D01*
X1941015Y-9492912D02*
X1921967Y-9511960D01*
X1921967Y-9511960D02*
X1893396Y-9521484D01*
X1893396Y-9521484D02*
X1845777Y-9521484D01*
X2045777Y-9521484D02*
X2045777Y-9388150D01*
X2045777Y-9426246D02*
X2055301Y-9407198D01*
X2055301Y-9407198D02*
X2064824Y-9397674D01*
X2064824Y-9397674D02*
X2083872Y-9388150D01*
X2083872Y-9388150D02*
X2102920Y-9388150D01*
X2169586Y-9521484D02*
X2169586Y-9388150D01*
X2169586Y-9321484D02*
X2160063Y-9331008D01*
X2160063Y-9331008D02*
X2169586Y-9340531D01*
X2169586Y-9340531D02*
X2179110Y-9331008D01*
X2179110Y-9331008D02*
X2169586Y-9321484D01*
X2169586Y-9321484D02*
X2169586Y-9340531D01*
X2293396Y-9521484D02*
X2274348Y-9511960D01*
X2274348Y-9511960D02*
X2264824Y-9492912D01*
X2264824Y-9492912D02*
X2264824Y-9321484D01*
X2398158Y-9521484D02*
X2379110Y-9511960D01*
X2379110Y-9511960D02*
X2369586Y-9492912D01*
X2369586Y-9492912D02*
X2369586Y-9321484D01*
X2626729Y-9521484D02*
X2626729Y-9321484D01*
X2626729Y-9321484D02*
X2693396Y-9464341D01*
X2693396Y-9464341D02*
X2760063Y-9321484D01*
X2760063Y-9321484D02*
X2760063Y-9521484D01*
X2941015Y-9521484D02*
X2941015Y-9416722D01*
X2941015Y-9416722D02*
X2931491Y-9397674D01*
X2931491Y-9397674D02*
X2912443Y-9388150D01*
X2912443Y-9388150D02*
X2874348Y-9388150D01*
X2874348Y-9388150D02*
X2855301Y-9397674D01*
X2941015Y-9511960D02*
X2921967Y-9521484D01*
X2921967Y-9521484D02*
X2874348Y-9521484D01*
X2874348Y-9521484D02*
X2855301Y-9511960D01*
X2855301Y-9511960D02*
X2845777Y-9492912D01*
X2845777Y-9492912D02*
X2845777Y-9473865D01*
X2845777Y-9473865D02*
X2855301Y-9454817D01*
X2855301Y-9454817D02*
X2874348Y-9445293D01*
X2874348Y-9445293D02*
X2921967Y-9445293D01*
X2921967Y-9445293D02*
X2941015Y-9435770D01*
X3036253Y-9388150D02*
X3036253Y-9588150D01*
X3036253Y-9397674D02*
X3055301Y-9388150D01*
X3055301Y-9388150D02*
X3093396Y-9388150D01*
X3093396Y-9388150D02*
X3112443Y-9397674D01*
X3112443Y-9397674D02*
X3121967Y-9407198D01*
X3121967Y-9407198D02*
X3131491Y-9426246D01*
X3131491Y-9426246D02*
X3131491Y-9483389D01*
X3131491Y-9483389D02*
X3121967Y-9502436D01*
X3121967Y-9502436D02*
X3112443Y-9511960D01*
X3112443Y-9511960D02*
X3093396Y-9521484D01*
X3093396Y-9521484D02*
X3055301Y-9521484D01*
X3055301Y-9521484D02*
X3036253Y-9511960D01*
X3217205Y-9502436D02*
X3226729Y-9511960D01*
X3226729Y-9511960D02*
X3217205Y-9521484D01*
X3217205Y-9521484D02*
X3207682Y-9511960D01*
X3207682Y-9511960D02*
X3217205Y-9502436D01*
X3217205Y-9502436D02*
X3217205Y-9521484D01*
X3217205Y-9397674D02*
X3226729Y-9407198D01*
X3226729Y-9407198D02*
X3217205Y-9416722D01*
X3217205Y-9416722D02*
X3207682Y-9407198D01*
X3207682Y-9407198D02*
X3217205Y-9397674D01*
X3217205Y-9397674D02*
X3217205Y-9416722D01*
D12*
X1555000Y-9835000D02*
X1585000Y-9865000D01*
X1585000Y-9835000D02*
X1555000Y-9865000D01*
D11*
X1883872Y-9741484D02*
X1902920Y-9741484D01*
X1902920Y-9741484D02*
X1921967Y-9751008D01*
X1921967Y-9751008D02*
X1931491Y-9760531D01*
X1931491Y-9760531D02*
X1941015Y-9779579D01*
X1941015Y-9779579D02*
X1950539Y-9817674D01*
X1950539Y-9817674D02*
X1950539Y-9865293D01*
X1950539Y-9865293D02*
X1941015Y-9903389D01*
X1941015Y-9903389D02*
X1931491Y-9922436D01*
X1931491Y-9922436D02*
X1921967Y-9931960D01*
X1921967Y-9931960D02*
X1902920Y-9941484D01*
X1902920Y-9941484D02*
X1883872Y-9941484D01*
X1883872Y-9941484D02*
X1864824Y-9931960D01*
X1864824Y-9931960D02*
X1855301Y-9922436D01*
X1855301Y-9922436D02*
X1845777Y-9903389D01*
X1845777Y-9903389D02*
X1836253Y-9865293D01*
X1836253Y-9865293D02*
X1836253Y-9817674D01*
X1836253Y-9817674D02*
X1845777Y-9779579D01*
X1845777Y-9779579D02*
X1855301Y-9760531D01*
X1855301Y-9760531D02*
X1864824Y-9751008D01*
X1864824Y-9751008D02*
X1883872Y-9741484D01*
X2036253Y-9922436D02*
X2045777Y-9931960D01*
X2045777Y-9931960D02*
X2036253Y-9941484D01*
X2036253Y-9941484D02*
X2026729Y-9931960D01*
X2026729Y-9931960D02*
X2036253Y-9922436D01*
X2036253Y-9922436D02*
X2036253Y-9941484D01*
X2112444Y-9741484D02*
X2236253Y-9741484D01*
X2236253Y-9741484D02*
X2169586Y-9817674D01*
X2169586Y-9817674D02*
X2198158Y-9817674D01*
X2198158Y-9817674D02*
X2217205Y-9827198D01*
X2217205Y-9827198D02*
X2226729Y-9836722D01*
X2226729Y-9836722D02*
X2236253Y-9855770D01*
X2236253Y-9855770D02*
X2236253Y-9903389D01*
X2236253Y-9903389D02*
X2226729Y-9922436D01*
X2226729Y-9922436D02*
X2217205Y-9931960D01*
X2217205Y-9931960D02*
X2198158Y-9941484D01*
X2198158Y-9941484D02*
X2141015Y-9941484D01*
X2141015Y-9941484D02*
X2121967Y-9931960D01*
X2121967Y-9931960D02*
X2112444Y-9922436D01*
X2360063Y-9741484D02*
X2379110Y-9741484D01*
X2379110Y-9741484D02*
X2398158Y-9751008D01*
X2398158Y-9751008D02*
X2407682Y-9760531D01*
X2407682Y-9760531D02*
X2417205Y-9779579D01*
X2417205Y-9779579D02*
X2426729Y-9817674D01*
X2426729Y-9817674D02*
X2426729Y-9865293D01*
X2426729Y-9865293D02*
X2417205Y-9903389D01*
X2417205Y-9903389D02*
X2407682Y-9922436D01*
X2407682Y-9922436D02*
X2398158Y-9931960D01*
X2398158Y-9931960D02*
X2379110Y-9941484D01*
X2379110Y-9941484D02*
X2360063Y-9941484D01*
X2360063Y-9941484D02*
X2341015Y-9931960D01*
X2341015Y-9931960D02*
X2331491Y-9922436D01*
X2331491Y-9922436D02*
X2321967Y-9903389D01*
X2321967Y-9903389D02*
X2312444Y-9865293D01*
X2312444Y-9865293D02*
X2312444Y-9817674D01*
X2312444Y-9817674D02*
X2321967Y-9779579D01*
X2321967Y-9779579D02*
X2331491Y-9760531D01*
X2331491Y-9760531D02*
X2341015Y-9751008D01*
X2341015Y-9751008D02*
X2360063Y-9741484D01*
X2550539Y-9741484D02*
X2569586Y-9741484D01*
X2569586Y-9741484D02*
X2588634Y-9751008D01*
X2588634Y-9751008D02*
X2598158Y-9760531D01*
X2598158Y-9760531D02*
X2607682Y-9779579D01*
X2607682Y-9779579D02*
X2617205Y-9817674D01*
X2617205Y-9817674D02*
X2617205Y-9865293D01*
X2617205Y-9865293D02*
X2607682Y-9903389D01*
X2607682Y-9903389D02*
X2598158Y-9922436D01*
X2598158Y-9922436D02*
X2588634Y-9931960D01*
X2588634Y-9931960D02*
X2569586Y-9941484D01*
X2569586Y-9941484D02*
X2550539Y-9941484D01*
X2550539Y-9941484D02*
X2531491Y-9931960D01*
X2531491Y-9931960D02*
X2521967Y-9922436D01*
X2521967Y-9922436D02*
X2512444Y-9903389D01*
X2512444Y-9903389D02*
X2502920Y-9865293D01*
X2502920Y-9865293D02*
X2502920Y-9817674D01*
X2502920Y-9817674D02*
X2512444Y-9779579D01*
X2512444Y-9779579D02*
X2521967Y-9760531D01*
X2521967Y-9760531D02*
X2531491Y-9751008D01*
X2531491Y-9751008D02*
X2550539Y-9741484D01*
X2702920Y-9941484D02*
X2702920Y-9808150D01*
X2702920Y-9827198D02*
X2712444Y-9817674D01*
X2712444Y-9817674D02*
X2731491Y-9808150D01*
X2731491Y-9808150D02*
X2760063Y-9808150D01*
X2760063Y-9808150D02*
X2779110Y-9817674D01*
X2779110Y-9817674D02*
X2788634Y-9836722D01*
X2788634Y-9836722D02*
X2788634Y-9941484D01*
X2788634Y-9836722D02*
X2798158Y-9817674D01*
X2798158Y-9817674D02*
X2817205Y-9808150D01*
X2817205Y-9808150D02*
X2845777Y-9808150D01*
X2845777Y-9808150D02*
X2864824Y-9817674D01*
X2864824Y-9817674D02*
X2874348Y-9836722D01*
X2874348Y-9836722D02*
X2874348Y-9941484D01*
X2969586Y-9941484D02*
X2969586Y-9808150D01*
X2969586Y-9827198D02*
X2979110Y-9817674D01*
X2979110Y-9817674D02*
X2998158Y-9808150D01*
X2998158Y-9808150D02*
X3026729Y-9808150D01*
X3026729Y-9808150D02*
X3045777Y-9817674D01*
X3045777Y-9817674D02*
X3055301Y-9836722D01*
X3055301Y-9836722D02*
X3055301Y-9941484D01*
X3055301Y-9836722D02*
X3064824Y-9817674D01*
X3064824Y-9817674D02*
X3083872Y-9808150D01*
X3083872Y-9808150D02*
X3112443Y-9808150D01*
X3112443Y-9808150D02*
X3131491Y-9817674D01*
X3131491Y-9817674D02*
X3141015Y-9836722D01*
X3141015Y-9836722D02*
X3141015Y-9941484D01*
X3531491Y-9731960D02*
X3360063Y-9989103D01*
X3788634Y-9741484D02*
X3807682Y-9741484D01*
X3807682Y-9741484D02*
X3826729Y-9751008D01*
X3826729Y-9751008D02*
X3836253Y-9760531D01*
X3836253Y-9760531D02*
X3845777Y-9779579D01*
X3845777Y-9779579D02*
X3855301Y-9817674D01*
X3855301Y-9817674D02*
X3855301Y-9865293D01*
X3855301Y-9865293D02*
X3845777Y-9903389D01*
X3845777Y-9903389D02*
X3836253Y-9922436D01*
X3836253Y-9922436D02*
X3826729Y-9931960D01*
X3826729Y-9931960D02*
X3807682Y-9941484D01*
X3807682Y-9941484D02*
X3788634Y-9941484D01*
X3788634Y-9941484D02*
X3769586Y-9931960D01*
X3769586Y-9931960D02*
X3760063Y-9922436D01*
X3760063Y-9922436D02*
X3750539Y-9903389D01*
X3750539Y-9903389D02*
X3741015Y-9865293D01*
X3741015Y-9865293D02*
X3741015Y-9817674D01*
X3741015Y-9817674D02*
X3750539Y-9779579D01*
X3750539Y-9779579D02*
X3760063Y-9760531D01*
X3760063Y-9760531D02*
X3769586Y-9751008D01*
X3769586Y-9751008D02*
X3788634Y-9741484D01*
X3941015Y-9922436D02*
X3950539Y-9931960D01*
X3950539Y-9931960D02*
X3941015Y-9941484D01*
X3941015Y-9941484D02*
X3931491Y-9931960D01*
X3931491Y-9931960D02*
X3941015Y-9922436D01*
X3941015Y-9922436D02*
X3941015Y-9941484D01*
X4074348Y-9741484D02*
X4093396Y-9741484D01*
X4093396Y-9741484D02*
X4112444Y-9751008D01*
X4112444Y-9751008D02*
X4121967Y-9760531D01*
X4121967Y-9760531D02*
X4131491Y-9779579D01*
X4131491Y-9779579D02*
X4141015Y-9817674D01*
X4141015Y-9817674D02*
X4141015Y-9865293D01*
X4141015Y-9865293D02*
X4131491Y-9903389D01*
X4131491Y-9903389D02*
X4121967Y-9922436D01*
X4121967Y-9922436D02*
X4112444Y-9931960D01*
X4112444Y-9931960D02*
X4093396Y-9941484D01*
X4093396Y-9941484D02*
X4074348Y-9941484D01*
X4074348Y-9941484D02*
X4055301Y-9931960D01*
X4055301Y-9931960D02*
X4045777Y-9922436D01*
X4045777Y-9922436D02*
X4036253Y-9903389D01*
X4036253Y-9903389D02*
X4026729Y-9865293D01*
X4026729Y-9865293D02*
X4026729Y-9817674D01*
X4026729Y-9817674D02*
X4036253Y-9779579D01*
X4036253Y-9779579D02*
X4045777Y-9760531D01*
X4045777Y-9760531D02*
X4055301Y-9751008D01*
X4055301Y-9751008D02*
X4074348Y-9741484D01*
X4331491Y-9941484D02*
X4217206Y-9941484D01*
X4274348Y-9941484D02*
X4274348Y-9741484D01*
X4274348Y-9741484D02*
X4255301Y-9770055D01*
X4255301Y-9770055D02*
X4236253Y-9789103D01*
X4236253Y-9789103D02*
X4217206Y-9798627D01*
X4521968Y-9941484D02*
X4407682Y-9941484D01*
X4464825Y-9941484D02*
X4464825Y-9741484D01*
X4464825Y-9741484D02*
X4445777Y-9770055D01*
X4445777Y-9770055D02*
X4426729Y-9789103D01*
X4426729Y-9789103D02*
X4407682Y-9798627D01*
X4636253Y-9827198D02*
X4617206Y-9817674D01*
X4617206Y-9817674D02*
X4607682Y-9808150D01*
X4607682Y-9808150D02*
X4598158Y-9789103D01*
X4598158Y-9789103D02*
X4598158Y-9779579D01*
X4598158Y-9779579D02*
X4607682Y-9760531D01*
X4607682Y-9760531D02*
X4617206Y-9751008D01*
X4617206Y-9751008D02*
X4636253Y-9741484D01*
X4636253Y-9741484D02*
X4674349Y-9741484D01*
X4674349Y-9741484D02*
X4693396Y-9751008D01*
X4693396Y-9751008D02*
X4702920Y-9760531D01*
X4702920Y-9760531D02*
X4712444Y-9779579D01*
X4712444Y-9779579D02*
X4712444Y-9789103D01*
X4712444Y-9789103D02*
X4702920Y-9808150D01*
X4702920Y-9808150D02*
X4693396Y-9817674D01*
X4693396Y-9817674D02*
X4674349Y-9827198D01*
X4674349Y-9827198D02*
X4636253Y-9827198D01*
X4636253Y-9827198D02*
X4617206Y-9836722D01*
X4617206Y-9836722D02*
X4607682Y-9846246D01*
X4607682Y-9846246D02*
X4598158Y-9865293D01*
X4598158Y-9865293D02*
X4598158Y-9903389D01*
X4598158Y-9903389D02*
X4607682Y-9922436D01*
X4607682Y-9922436D02*
X4617206Y-9931960D01*
X4617206Y-9931960D02*
X4636253Y-9941484D01*
X4636253Y-9941484D02*
X4674349Y-9941484D01*
X4674349Y-9941484D02*
X4693396Y-9931960D01*
X4693396Y-9931960D02*
X4702920Y-9922436D01*
X4702920Y-9922436D02*
X4712444Y-9903389D01*
X4712444Y-9903389D02*
X4712444Y-9865293D01*
X4712444Y-9865293D02*
X4702920Y-9846246D01*
X4702920Y-9846246D02*
X4693396Y-9836722D01*
X4693396Y-9836722D02*
X4674349Y-9827198D01*
X4788634Y-9741484D02*
X4788634Y-9779579D01*
X4864825Y-9741484D02*
X4864825Y-9779579D01*
X5160063Y-10017674D02*
X5150539Y-10008150D01*
X5150539Y-10008150D02*
X5131491Y-9979579D01*
X5131491Y-9979579D02*
X5121968Y-9960531D01*
X5121968Y-9960531D02*
X5112444Y-9931960D01*
X5112444Y-9931960D02*
X5102920Y-9884341D01*
X5102920Y-9884341D02*
X5102920Y-9846246D01*
X5102920Y-9846246D02*
X5112444Y-9798627D01*
X5112444Y-9798627D02*
X5121968Y-9770055D01*
X5121968Y-9770055D02*
X5131491Y-9751008D01*
X5131491Y-9751008D02*
X5150539Y-9722436D01*
X5150539Y-9722436D02*
X5160063Y-9712912D01*
X5341015Y-9941484D02*
X5226730Y-9941484D01*
X5283872Y-9941484D02*
X5283872Y-9741484D01*
X5283872Y-9741484D02*
X5264825Y-9770055D01*
X5264825Y-9770055D02*
X5245777Y-9789103D01*
X5245777Y-9789103D02*
X5226730Y-9798627D01*
X5417206Y-9760531D02*
X5426730Y-9751008D01*
X5426730Y-9751008D02*
X5445777Y-9741484D01*
X5445777Y-9741484D02*
X5493396Y-9741484D01*
X5493396Y-9741484D02*
X5512444Y-9751008D01*
X5512444Y-9751008D02*
X5521968Y-9760531D01*
X5521968Y-9760531D02*
X5531491Y-9779579D01*
X5531491Y-9779579D02*
X5531491Y-9798627D01*
X5531491Y-9798627D02*
X5521968Y-9827198D01*
X5521968Y-9827198D02*
X5407682Y-9941484D01*
X5407682Y-9941484D02*
X5531491Y-9941484D01*
X5607682Y-9760531D02*
X5617206Y-9751008D01*
X5617206Y-9751008D02*
X5636253Y-9741484D01*
X5636253Y-9741484D02*
X5683872Y-9741484D01*
X5683872Y-9741484D02*
X5702920Y-9751008D01*
X5702920Y-9751008D02*
X5712444Y-9760531D01*
X5712444Y-9760531D02*
X5721968Y-9779579D01*
X5721968Y-9779579D02*
X5721968Y-9798627D01*
X5721968Y-9798627D02*
X5712444Y-9827198D01*
X5712444Y-9827198D02*
X5598158Y-9941484D01*
X5598158Y-9941484D02*
X5721968Y-9941484D01*
X5960063Y-9941484D02*
X5960063Y-9741484D01*
X6045777Y-9941484D02*
X6045777Y-9836722D01*
X6045777Y-9836722D02*
X6036253Y-9817674D01*
X6036253Y-9817674D02*
X6017206Y-9808150D01*
X6017206Y-9808150D02*
X5988634Y-9808150D01*
X5988634Y-9808150D02*
X5969587Y-9817674D01*
X5969587Y-9817674D02*
X5960063Y-9827198D01*
X6169587Y-9941484D02*
X6150539Y-9931960D01*
X6150539Y-9931960D02*
X6141015Y-9922436D01*
X6141015Y-9922436D02*
X6131491Y-9903389D01*
X6131491Y-9903389D02*
X6131491Y-9846246D01*
X6131491Y-9846246D02*
X6141015Y-9827198D01*
X6141015Y-9827198D02*
X6150539Y-9817674D01*
X6150539Y-9817674D02*
X6169587Y-9808150D01*
X6169587Y-9808150D02*
X6198158Y-9808150D01*
X6198158Y-9808150D02*
X6217206Y-9817674D01*
X6217206Y-9817674D02*
X6226730Y-9827198D01*
X6226730Y-9827198D02*
X6236253Y-9846246D01*
X6236253Y-9846246D02*
X6236253Y-9903389D01*
X6236253Y-9903389D02*
X6226730Y-9922436D01*
X6226730Y-9922436D02*
X6217206Y-9931960D01*
X6217206Y-9931960D02*
X6198158Y-9941484D01*
X6198158Y-9941484D02*
X6169587Y-9941484D01*
X6350539Y-9941484D02*
X6331491Y-9931960D01*
X6331491Y-9931960D02*
X6321968Y-9912912D01*
X6321968Y-9912912D02*
X6321968Y-9741484D01*
X6502920Y-9931960D02*
X6483872Y-9941484D01*
X6483872Y-9941484D02*
X6445777Y-9941484D01*
X6445777Y-9941484D02*
X6426730Y-9931960D01*
X6426730Y-9931960D02*
X6417206Y-9912912D01*
X6417206Y-9912912D02*
X6417206Y-9836722D01*
X6417206Y-9836722D02*
X6426730Y-9817674D01*
X6426730Y-9817674D02*
X6445777Y-9808150D01*
X6445777Y-9808150D02*
X6483872Y-9808150D01*
X6483872Y-9808150D02*
X6502920Y-9817674D01*
X6502920Y-9817674D02*
X6512444Y-9836722D01*
X6512444Y-9836722D02*
X6512444Y-9855770D01*
X6512444Y-9855770D02*
X6417206Y-9874817D01*
X6588634Y-9931960D02*
X6607682Y-9941484D01*
X6607682Y-9941484D02*
X6645777Y-9941484D01*
X6645777Y-9941484D02*
X6664825Y-9931960D01*
X6664825Y-9931960D02*
X6674349Y-9912912D01*
X6674349Y-9912912D02*
X6674349Y-9903389D01*
X6674349Y-9903389D02*
X6664825Y-9884341D01*
X6664825Y-9884341D02*
X6645777Y-9874817D01*
X6645777Y-9874817D02*
X6617206Y-9874817D01*
X6617206Y-9874817D02*
X6598158Y-9865293D01*
X6598158Y-9865293D02*
X6588634Y-9846246D01*
X6588634Y-9846246D02*
X6588634Y-9836722D01*
X6588634Y-9836722D02*
X6598158Y-9817674D01*
X6598158Y-9817674D02*
X6617206Y-9808150D01*
X6617206Y-9808150D02*
X6645777Y-9808150D01*
X6645777Y-9808150D02*
X6664825Y-9817674D01*
X6741015Y-10017674D02*
X6750539Y-10008150D01*
X6750539Y-10008150D02*
X6769587Y-9979579D01*
X6769587Y-9979579D02*
X6779111Y-9960531D01*
X6779111Y-9960531D02*
X6788634Y-9931960D01*
X6788634Y-9931960D02*
X6798158Y-9884341D01*
X6798158Y-9884341D02*
X6798158Y-9846246D01*
X6798158Y-9846246D02*
X6788634Y-9798627D01*
X6788634Y-9798627D02*
X6779111Y-9770055D01*
X6779111Y-9770055D02*
X6769587Y-9751008D01*
X6769587Y-9751008D02*
X6750539Y-9722436D01*
X6750539Y-9722436D02*
X6741015Y-9712912D01*
D12*
X1585000Y-10114000D02*
G75*
G02*
X1485000Y-10114000I-50000J0D01*
G01*
X1485000Y-10114000D02*
G75*
G02*
X1585000Y-10114000I50000J0D01*
G01*
D11*
X1950539Y-10205484D02*
X1836253Y-10205484D01*
X1893396Y-10205484D02*
X1893396Y-10005484D01*
X1893396Y-10005484D02*
X1874348Y-10034055D01*
X1874348Y-10034055D02*
X1855301Y-10053103D01*
X1855301Y-10053103D02*
X1836253Y-10062627D01*
X2036253Y-10186436D02*
X2045777Y-10195960D01*
X2045777Y-10195960D02*
X2036253Y-10205484D01*
X2036253Y-10205484D02*
X2026729Y-10195960D01*
X2026729Y-10195960D02*
X2036253Y-10186436D01*
X2036253Y-10186436D02*
X2036253Y-10205484D01*
X2169586Y-10005484D02*
X2188634Y-10005484D01*
X2188634Y-10005484D02*
X2207682Y-10015008D01*
X2207682Y-10015008D02*
X2217205Y-10024531D01*
X2217205Y-10024531D02*
X2226729Y-10043579D01*
X2226729Y-10043579D02*
X2236253Y-10081674D01*
X2236253Y-10081674D02*
X2236253Y-10129293D01*
X2236253Y-10129293D02*
X2226729Y-10167389D01*
X2226729Y-10167389D02*
X2217205Y-10186436D01*
X2217205Y-10186436D02*
X2207682Y-10195960D01*
X2207682Y-10195960D02*
X2188634Y-10205484D01*
X2188634Y-10205484D02*
X2169586Y-10205484D01*
X2169586Y-10205484D02*
X2150539Y-10195960D01*
X2150539Y-10195960D02*
X2141015Y-10186436D01*
X2141015Y-10186436D02*
X2131491Y-10167389D01*
X2131491Y-10167389D02*
X2121967Y-10129293D01*
X2121967Y-10129293D02*
X2121967Y-10081674D01*
X2121967Y-10081674D02*
X2131491Y-10043579D01*
X2131491Y-10043579D02*
X2141015Y-10024531D01*
X2141015Y-10024531D02*
X2150539Y-10015008D01*
X2150539Y-10015008D02*
X2169586Y-10005484D01*
X2360063Y-10005484D02*
X2379110Y-10005484D01*
X2379110Y-10005484D02*
X2398158Y-10015008D01*
X2398158Y-10015008D02*
X2407682Y-10024531D01*
X2407682Y-10024531D02*
X2417205Y-10043579D01*
X2417205Y-10043579D02*
X2426729Y-10081674D01*
X2426729Y-10081674D02*
X2426729Y-10129293D01*
X2426729Y-10129293D02*
X2417205Y-10167389D01*
X2417205Y-10167389D02*
X2407682Y-10186436D01*
X2407682Y-10186436D02*
X2398158Y-10195960D01*
X2398158Y-10195960D02*
X2379110Y-10205484D01*
X2379110Y-10205484D02*
X2360063Y-10205484D01*
X2360063Y-10205484D02*
X2341015Y-10195960D01*
X2341015Y-10195960D02*
X2331491Y-10186436D01*
X2331491Y-10186436D02*
X2321967Y-10167389D01*
X2321967Y-10167389D02*
X2312444Y-10129293D01*
X2312444Y-10129293D02*
X2312444Y-10081674D01*
X2312444Y-10081674D02*
X2321967Y-10043579D01*
X2321967Y-10043579D02*
X2331491Y-10024531D01*
X2331491Y-10024531D02*
X2341015Y-10015008D01*
X2341015Y-10015008D02*
X2360063Y-10005484D01*
X2550539Y-10005484D02*
X2569586Y-10005484D01*
X2569586Y-10005484D02*
X2588634Y-10015008D01*
X2588634Y-10015008D02*
X2598158Y-10024531D01*
X2598158Y-10024531D02*
X2607682Y-10043579D01*
X2607682Y-10043579D02*
X2617205Y-10081674D01*
X2617205Y-10081674D02*
X2617205Y-10129293D01*
X2617205Y-10129293D02*
X2607682Y-10167389D01*
X2607682Y-10167389D02*
X2598158Y-10186436D01*
X2598158Y-10186436D02*
X2588634Y-10195960D01*
X2588634Y-10195960D02*
X2569586Y-10205484D01*
X2569586Y-10205484D02*
X2550539Y-10205484D01*
X2550539Y-10205484D02*
X2531491Y-10195960D01*
X2531491Y-10195960D02*
X2521967Y-10186436D01*
X2521967Y-10186436D02*
X2512444Y-10167389D01*
X2512444Y-10167389D02*
X2502920Y-10129293D01*
X2502920Y-10129293D02*
X2502920Y-10081674D01*
X2502920Y-10081674D02*
X2512444Y-10043579D01*
X2512444Y-10043579D02*
X2521967Y-10024531D01*
X2521967Y-10024531D02*
X2531491Y-10015008D01*
X2531491Y-10015008D02*
X2550539Y-10005484D01*
X2702920Y-10205484D02*
X2702920Y-10072150D01*
X2702920Y-10091198D02*
X2712444Y-10081674D01*
X2712444Y-10081674D02*
X2731491Y-10072150D01*
X2731491Y-10072150D02*
X2760063Y-10072150D01*
X2760063Y-10072150D02*
X2779110Y-10081674D01*
X2779110Y-10081674D02*
X2788634Y-10100722D01*
X2788634Y-10100722D02*
X2788634Y-10205484D01*
X2788634Y-10100722D02*
X2798158Y-10081674D01*
X2798158Y-10081674D02*
X2817205Y-10072150D01*
X2817205Y-10072150D02*
X2845777Y-10072150D01*
X2845777Y-10072150D02*
X2864824Y-10081674D01*
X2864824Y-10081674D02*
X2874348Y-10100722D01*
X2874348Y-10100722D02*
X2874348Y-10205484D01*
X2969586Y-10205484D02*
X2969586Y-10072150D01*
X2969586Y-10091198D02*
X2979110Y-10081674D01*
X2979110Y-10081674D02*
X2998158Y-10072150D01*
X2998158Y-10072150D02*
X3026729Y-10072150D01*
X3026729Y-10072150D02*
X3045777Y-10081674D01*
X3045777Y-10081674D02*
X3055301Y-10100722D01*
X3055301Y-10100722D02*
X3055301Y-10205484D01*
X3055301Y-10100722D02*
X3064824Y-10081674D01*
X3064824Y-10081674D02*
X3083872Y-10072150D01*
X3083872Y-10072150D02*
X3112443Y-10072150D01*
X3112443Y-10072150D02*
X3131491Y-10081674D01*
X3131491Y-10081674D02*
X3141015Y-10100722D01*
X3141015Y-10100722D02*
X3141015Y-10205484D01*
X3531491Y-9995960D02*
X3360063Y-10253103D01*
X3788634Y-10005484D02*
X3807682Y-10005484D01*
X3807682Y-10005484D02*
X3826729Y-10015008D01*
X3826729Y-10015008D02*
X3836253Y-10024531D01*
X3836253Y-10024531D02*
X3845777Y-10043579D01*
X3845777Y-10043579D02*
X3855301Y-10081674D01*
X3855301Y-10081674D02*
X3855301Y-10129293D01*
X3855301Y-10129293D02*
X3845777Y-10167389D01*
X3845777Y-10167389D02*
X3836253Y-10186436D01*
X3836253Y-10186436D02*
X3826729Y-10195960D01*
X3826729Y-10195960D02*
X3807682Y-10205484D01*
X3807682Y-10205484D02*
X3788634Y-10205484D01*
X3788634Y-10205484D02*
X3769586Y-10195960D01*
X3769586Y-10195960D02*
X3760063Y-10186436D01*
X3760063Y-10186436D02*
X3750539Y-10167389D01*
X3750539Y-10167389D02*
X3741015Y-10129293D01*
X3741015Y-10129293D02*
X3741015Y-10081674D01*
X3741015Y-10081674D02*
X3750539Y-10043579D01*
X3750539Y-10043579D02*
X3760063Y-10024531D01*
X3760063Y-10024531D02*
X3769586Y-10015008D01*
X3769586Y-10015008D02*
X3788634Y-10005484D01*
X3941015Y-10186436D02*
X3950539Y-10195960D01*
X3950539Y-10195960D02*
X3941015Y-10205484D01*
X3941015Y-10205484D02*
X3931491Y-10195960D01*
X3931491Y-10195960D02*
X3941015Y-10186436D01*
X3941015Y-10186436D02*
X3941015Y-10205484D01*
X4074348Y-10005484D02*
X4093396Y-10005484D01*
X4093396Y-10005484D02*
X4112444Y-10015008D01*
X4112444Y-10015008D02*
X4121967Y-10024531D01*
X4121967Y-10024531D02*
X4131491Y-10043579D01*
X4131491Y-10043579D02*
X4141015Y-10081674D01*
X4141015Y-10081674D02*
X4141015Y-10129293D01*
X4141015Y-10129293D02*
X4131491Y-10167389D01*
X4131491Y-10167389D02*
X4121967Y-10186436D01*
X4121967Y-10186436D02*
X4112444Y-10195960D01*
X4112444Y-10195960D02*
X4093396Y-10205484D01*
X4093396Y-10205484D02*
X4074348Y-10205484D01*
X4074348Y-10205484D02*
X4055301Y-10195960D01*
X4055301Y-10195960D02*
X4045777Y-10186436D01*
X4045777Y-10186436D02*
X4036253Y-10167389D01*
X4036253Y-10167389D02*
X4026729Y-10129293D01*
X4026729Y-10129293D02*
X4026729Y-10081674D01*
X4026729Y-10081674D02*
X4036253Y-10043579D01*
X4036253Y-10043579D02*
X4045777Y-10024531D01*
X4045777Y-10024531D02*
X4055301Y-10015008D01*
X4055301Y-10015008D02*
X4074348Y-10005484D01*
X4207682Y-10005484D02*
X4331491Y-10005484D01*
X4331491Y-10005484D02*
X4264825Y-10081674D01*
X4264825Y-10081674D02*
X4293396Y-10081674D01*
X4293396Y-10081674D02*
X4312444Y-10091198D01*
X4312444Y-10091198D02*
X4321968Y-10100722D01*
X4321968Y-10100722D02*
X4331491Y-10119770D01*
X4331491Y-10119770D02*
X4331491Y-10167389D01*
X4331491Y-10167389D02*
X4321968Y-10186436D01*
X4321968Y-10186436D02*
X4312444Y-10195960D01*
X4312444Y-10195960D02*
X4293396Y-10205484D01*
X4293396Y-10205484D02*
X4236253Y-10205484D01*
X4236253Y-10205484D02*
X4217206Y-10195960D01*
X4217206Y-10195960D02*
X4207682Y-10186436D01*
X4426729Y-10205484D02*
X4464825Y-10205484D01*
X4464825Y-10205484D02*
X4483872Y-10195960D01*
X4483872Y-10195960D02*
X4493396Y-10186436D01*
X4493396Y-10186436D02*
X4512444Y-10157865D01*
X4512444Y-10157865D02*
X4521968Y-10119770D01*
X4521968Y-10119770D02*
X4521968Y-10043579D01*
X4521968Y-10043579D02*
X4512444Y-10024531D01*
X4512444Y-10024531D02*
X4502920Y-10015008D01*
X4502920Y-10015008D02*
X4483872Y-10005484D01*
X4483872Y-10005484D02*
X4445777Y-10005484D01*
X4445777Y-10005484D02*
X4426729Y-10015008D01*
X4426729Y-10015008D02*
X4417206Y-10024531D01*
X4417206Y-10024531D02*
X4407682Y-10043579D01*
X4407682Y-10043579D02*
X4407682Y-10091198D01*
X4407682Y-10091198D02*
X4417206Y-10110246D01*
X4417206Y-10110246D02*
X4426729Y-10119770D01*
X4426729Y-10119770D02*
X4445777Y-10129293D01*
X4445777Y-10129293D02*
X4483872Y-10129293D01*
X4483872Y-10129293D02*
X4502920Y-10119770D01*
X4502920Y-10119770D02*
X4512444Y-10110246D01*
X4512444Y-10110246D02*
X4521968Y-10091198D01*
X4693396Y-10072150D02*
X4693396Y-10205484D01*
X4645777Y-9995960D02*
X4598158Y-10138817D01*
X4598158Y-10138817D02*
X4721968Y-10138817D01*
X4788634Y-10005484D02*
X4788634Y-10043579D01*
X4864825Y-10005484D02*
X4864825Y-10043579D01*
X5160063Y-10281674D02*
X5150539Y-10272150D01*
X5150539Y-10272150D02*
X5131491Y-10243579D01*
X5131491Y-10243579D02*
X5121968Y-10224531D01*
X5121968Y-10224531D02*
X5112444Y-10195960D01*
X5112444Y-10195960D02*
X5102920Y-10148341D01*
X5102920Y-10148341D02*
X5102920Y-10110246D01*
X5102920Y-10110246D02*
X5112444Y-10062627D01*
X5112444Y-10062627D02*
X5121968Y-10034055D01*
X5121968Y-10034055D02*
X5131491Y-10015008D01*
X5131491Y-10015008D02*
X5150539Y-9986436D01*
X5150539Y-9986436D02*
X5160063Y-9976912D01*
X5341015Y-10205484D02*
X5226730Y-10205484D01*
X5283872Y-10205484D02*
X5283872Y-10005484D01*
X5283872Y-10005484D02*
X5264825Y-10034055D01*
X5264825Y-10034055D02*
X5245777Y-10053103D01*
X5245777Y-10053103D02*
X5226730Y-10062627D01*
X5521968Y-10005484D02*
X5426730Y-10005484D01*
X5426730Y-10005484D02*
X5417206Y-10100722D01*
X5417206Y-10100722D02*
X5426730Y-10091198D01*
X5426730Y-10091198D02*
X5445777Y-10081674D01*
X5445777Y-10081674D02*
X5493396Y-10081674D01*
X5493396Y-10081674D02*
X5512444Y-10091198D01*
X5512444Y-10091198D02*
X5521968Y-10100722D01*
X5521968Y-10100722D02*
X5531491Y-10119770D01*
X5531491Y-10119770D02*
X5531491Y-10167389D01*
X5531491Y-10167389D02*
X5521968Y-10186436D01*
X5521968Y-10186436D02*
X5512444Y-10195960D01*
X5512444Y-10195960D02*
X5493396Y-10205484D01*
X5493396Y-10205484D02*
X5445777Y-10205484D01*
X5445777Y-10205484D02*
X5426730Y-10195960D01*
X5426730Y-10195960D02*
X5417206Y-10186436D01*
X5769587Y-10205484D02*
X5769587Y-10005484D01*
X5855301Y-10205484D02*
X5855301Y-10100722D01*
X5855301Y-10100722D02*
X5845777Y-10081674D01*
X5845777Y-10081674D02*
X5826730Y-10072150D01*
X5826730Y-10072150D02*
X5798158Y-10072150D01*
X5798158Y-10072150D02*
X5779110Y-10081674D01*
X5779110Y-10081674D02*
X5769587Y-10091198D01*
X5979110Y-10205484D02*
X5960063Y-10195960D01*
X5960063Y-10195960D02*
X5950539Y-10186436D01*
X5950539Y-10186436D02*
X5941015Y-10167389D01*
X5941015Y-10167389D02*
X5941015Y-10110246D01*
X5941015Y-10110246D02*
X5950539Y-10091198D01*
X5950539Y-10091198D02*
X5960063Y-10081674D01*
X5960063Y-10081674D02*
X5979110Y-10072150D01*
X5979110Y-10072150D02*
X6007682Y-10072150D01*
X6007682Y-10072150D02*
X6026730Y-10081674D01*
X6026730Y-10081674D02*
X6036253Y-10091198D01*
X6036253Y-10091198D02*
X6045777Y-10110246D01*
X6045777Y-10110246D02*
X6045777Y-10167389D01*
X6045777Y-10167389D02*
X6036253Y-10186436D01*
X6036253Y-10186436D02*
X6026730Y-10195960D01*
X6026730Y-10195960D02*
X6007682Y-10205484D01*
X6007682Y-10205484D02*
X5979110Y-10205484D01*
X6160063Y-10205484D02*
X6141015Y-10195960D01*
X6141015Y-10195960D02*
X6131491Y-10176912D01*
X6131491Y-10176912D02*
X6131491Y-10005484D01*
X6312444Y-10195960D02*
X6293396Y-10205484D01*
X6293396Y-10205484D02*
X6255301Y-10205484D01*
X6255301Y-10205484D02*
X6236253Y-10195960D01*
X6236253Y-10195960D02*
X6226730Y-10176912D01*
X6226730Y-10176912D02*
X6226730Y-10100722D01*
X6226730Y-10100722D02*
X6236253Y-10081674D01*
X6236253Y-10081674D02*
X6255301Y-10072150D01*
X6255301Y-10072150D02*
X6293396Y-10072150D01*
X6293396Y-10072150D02*
X6312444Y-10081674D01*
X6312444Y-10081674D02*
X6321968Y-10100722D01*
X6321968Y-10100722D02*
X6321968Y-10119770D01*
X6321968Y-10119770D02*
X6226730Y-10138817D01*
X6398158Y-10195960D02*
X6417206Y-10205484D01*
X6417206Y-10205484D02*
X6455301Y-10205484D01*
X6455301Y-10205484D02*
X6474349Y-10195960D01*
X6474349Y-10195960D02*
X6483872Y-10176912D01*
X6483872Y-10176912D02*
X6483872Y-10167389D01*
X6483872Y-10167389D02*
X6474349Y-10148341D01*
X6474349Y-10148341D02*
X6455301Y-10138817D01*
X6455301Y-10138817D02*
X6426730Y-10138817D01*
X6426730Y-10138817D02*
X6407682Y-10129293D01*
X6407682Y-10129293D02*
X6398158Y-10110246D01*
X6398158Y-10110246D02*
X6398158Y-10100722D01*
X6398158Y-10100722D02*
X6407682Y-10081674D01*
X6407682Y-10081674D02*
X6426730Y-10072150D01*
X6426730Y-10072150D02*
X6455301Y-10072150D01*
X6455301Y-10072150D02*
X6474349Y-10081674D01*
X6550539Y-10281674D02*
X6560063Y-10272150D01*
X6560063Y-10272150D02*
X6579111Y-10243579D01*
X6579111Y-10243579D02*
X6588634Y-10224531D01*
X6588634Y-10224531D02*
X6598158Y-10195960D01*
X6598158Y-10195960D02*
X6607682Y-10148341D01*
X6607682Y-10148341D02*
X6607682Y-10110246D01*
X6607682Y-10110246D02*
X6598158Y-10062627D01*
X6598158Y-10062627D02*
X6588634Y-10034055D01*
X6588634Y-10034055D02*
X6579111Y-10015008D01*
X6579111Y-10015008D02*
X6560063Y-9986436D01*
X6560063Y-9986436D02*
X6550539Y-9976912D01*
D13*
X1510000Y-10303000D02*
X1510000Y-10453000D01*
X1435000Y-10378000D02*
X1585000Y-10378000D01*
D11*
X1950539Y-10469484D02*
X1836253Y-10469484D01*
X1893396Y-10469484D02*
X1893396Y-10269484D01*
X1893396Y-10269484D02*
X1874348Y-10298055D01*
X1874348Y-10298055D02*
X1855301Y-10317103D01*
X1855301Y-10317103D02*
X1836253Y-10326627D01*
X2036253Y-10450436D02*
X2045777Y-10459960D01*
X2045777Y-10459960D02*
X2036253Y-10469484D01*
X2036253Y-10469484D02*
X2026729Y-10459960D01*
X2026729Y-10459960D02*
X2036253Y-10450436D01*
X2036253Y-10450436D02*
X2036253Y-10469484D01*
X2226729Y-10269484D02*
X2131491Y-10269484D01*
X2131491Y-10269484D02*
X2121967Y-10364722D01*
X2121967Y-10364722D02*
X2131491Y-10355198D01*
X2131491Y-10355198D02*
X2150539Y-10345674D01*
X2150539Y-10345674D02*
X2198158Y-10345674D01*
X2198158Y-10345674D02*
X2217205Y-10355198D01*
X2217205Y-10355198D02*
X2226729Y-10364722D01*
X2226729Y-10364722D02*
X2236253Y-10383770D01*
X2236253Y-10383770D02*
X2236253Y-10431389D01*
X2236253Y-10431389D02*
X2226729Y-10450436D01*
X2226729Y-10450436D02*
X2217205Y-10459960D01*
X2217205Y-10459960D02*
X2198158Y-10469484D01*
X2198158Y-10469484D02*
X2150539Y-10469484D01*
X2150539Y-10469484D02*
X2131491Y-10459960D01*
X2131491Y-10459960D02*
X2121967Y-10450436D01*
X2360063Y-10269484D02*
X2379110Y-10269484D01*
X2379110Y-10269484D02*
X2398158Y-10279008D01*
X2398158Y-10279008D02*
X2407682Y-10288531D01*
X2407682Y-10288531D02*
X2417205Y-10307579D01*
X2417205Y-10307579D02*
X2426729Y-10345674D01*
X2426729Y-10345674D02*
X2426729Y-10393293D01*
X2426729Y-10393293D02*
X2417205Y-10431389D01*
X2417205Y-10431389D02*
X2407682Y-10450436D01*
X2407682Y-10450436D02*
X2398158Y-10459960D01*
X2398158Y-10459960D02*
X2379110Y-10469484D01*
X2379110Y-10469484D02*
X2360063Y-10469484D01*
X2360063Y-10469484D02*
X2341015Y-10459960D01*
X2341015Y-10459960D02*
X2331491Y-10450436D01*
X2331491Y-10450436D02*
X2321967Y-10431389D01*
X2321967Y-10431389D02*
X2312444Y-10393293D01*
X2312444Y-10393293D02*
X2312444Y-10345674D01*
X2312444Y-10345674D02*
X2321967Y-10307579D01*
X2321967Y-10307579D02*
X2331491Y-10288531D01*
X2331491Y-10288531D02*
X2341015Y-10279008D01*
X2341015Y-10279008D02*
X2360063Y-10269484D01*
X2550539Y-10269484D02*
X2569586Y-10269484D01*
X2569586Y-10269484D02*
X2588634Y-10279008D01*
X2588634Y-10279008D02*
X2598158Y-10288531D01*
X2598158Y-10288531D02*
X2607682Y-10307579D01*
X2607682Y-10307579D02*
X2617205Y-10345674D01*
X2617205Y-10345674D02*
X2617205Y-10393293D01*
X2617205Y-10393293D02*
X2607682Y-10431389D01*
X2607682Y-10431389D02*
X2598158Y-10450436D01*
X2598158Y-10450436D02*
X2588634Y-10459960D01*
X2588634Y-10459960D02*
X2569586Y-10469484D01*
X2569586Y-10469484D02*
X2550539Y-10469484D01*
X2550539Y-10469484D02*
X2531491Y-10459960D01*
X2531491Y-10459960D02*
X2521967Y-10450436D01*
X2521967Y-10450436D02*
X2512444Y-10431389D01*
X2512444Y-10431389D02*
X2502920Y-10393293D01*
X2502920Y-10393293D02*
X2502920Y-10345674D01*
X2502920Y-10345674D02*
X2512444Y-10307579D01*
X2512444Y-10307579D02*
X2521967Y-10288531D01*
X2521967Y-10288531D02*
X2531491Y-10279008D01*
X2531491Y-10279008D02*
X2550539Y-10269484D01*
X2702920Y-10469484D02*
X2702920Y-10336150D01*
X2702920Y-10355198D02*
X2712444Y-10345674D01*
X2712444Y-10345674D02*
X2731491Y-10336150D01*
X2731491Y-10336150D02*
X2760063Y-10336150D01*
X2760063Y-10336150D02*
X2779110Y-10345674D01*
X2779110Y-10345674D02*
X2788634Y-10364722D01*
X2788634Y-10364722D02*
X2788634Y-10469484D01*
X2788634Y-10364722D02*
X2798158Y-10345674D01*
X2798158Y-10345674D02*
X2817205Y-10336150D01*
X2817205Y-10336150D02*
X2845777Y-10336150D01*
X2845777Y-10336150D02*
X2864824Y-10345674D01*
X2864824Y-10345674D02*
X2874348Y-10364722D01*
X2874348Y-10364722D02*
X2874348Y-10469484D01*
X2969586Y-10469484D02*
X2969586Y-10336150D01*
X2969586Y-10355198D02*
X2979110Y-10345674D01*
X2979110Y-10345674D02*
X2998158Y-10336150D01*
X2998158Y-10336150D02*
X3026729Y-10336150D01*
X3026729Y-10336150D02*
X3045777Y-10345674D01*
X3045777Y-10345674D02*
X3055301Y-10364722D01*
X3055301Y-10364722D02*
X3055301Y-10469484D01*
X3055301Y-10364722D02*
X3064824Y-10345674D01*
X3064824Y-10345674D02*
X3083872Y-10336150D01*
X3083872Y-10336150D02*
X3112443Y-10336150D01*
X3112443Y-10336150D02*
X3131491Y-10345674D01*
X3131491Y-10345674D02*
X3141015Y-10364722D01*
X3141015Y-10364722D02*
X3141015Y-10469484D01*
X3531491Y-10259960D02*
X3360063Y-10517103D01*
X3788634Y-10269484D02*
X3807682Y-10269484D01*
X3807682Y-10269484D02*
X3826729Y-10279008D01*
X3826729Y-10279008D02*
X3836253Y-10288531D01*
X3836253Y-10288531D02*
X3845777Y-10307579D01*
X3845777Y-10307579D02*
X3855301Y-10345674D01*
X3855301Y-10345674D02*
X3855301Y-10393293D01*
X3855301Y-10393293D02*
X3845777Y-10431389D01*
X3845777Y-10431389D02*
X3836253Y-10450436D01*
X3836253Y-10450436D02*
X3826729Y-10459960D01*
X3826729Y-10459960D02*
X3807682Y-10469484D01*
X3807682Y-10469484D02*
X3788634Y-10469484D01*
X3788634Y-10469484D02*
X3769586Y-10459960D01*
X3769586Y-10459960D02*
X3760063Y-10450436D01*
X3760063Y-10450436D02*
X3750539Y-10431389D01*
X3750539Y-10431389D02*
X3741015Y-10393293D01*
X3741015Y-10393293D02*
X3741015Y-10345674D01*
X3741015Y-10345674D02*
X3750539Y-10307579D01*
X3750539Y-10307579D02*
X3760063Y-10288531D01*
X3760063Y-10288531D02*
X3769586Y-10279008D01*
X3769586Y-10279008D02*
X3788634Y-10269484D01*
X3941015Y-10450436D02*
X3950539Y-10459960D01*
X3950539Y-10459960D02*
X3941015Y-10469484D01*
X3941015Y-10469484D02*
X3931491Y-10459960D01*
X3931491Y-10459960D02*
X3941015Y-10450436D01*
X3941015Y-10450436D02*
X3941015Y-10469484D01*
X4074348Y-10269484D02*
X4093396Y-10269484D01*
X4093396Y-10269484D02*
X4112444Y-10279008D01*
X4112444Y-10279008D02*
X4121967Y-10288531D01*
X4121967Y-10288531D02*
X4131491Y-10307579D01*
X4131491Y-10307579D02*
X4141015Y-10345674D01*
X4141015Y-10345674D02*
X4141015Y-10393293D01*
X4141015Y-10393293D02*
X4131491Y-10431389D01*
X4131491Y-10431389D02*
X4121967Y-10450436D01*
X4121967Y-10450436D02*
X4112444Y-10459960D01*
X4112444Y-10459960D02*
X4093396Y-10469484D01*
X4093396Y-10469484D02*
X4074348Y-10469484D01*
X4074348Y-10469484D02*
X4055301Y-10459960D01*
X4055301Y-10459960D02*
X4045777Y-10450436D01*
X4045777Y-10450436D02*
X4036253Y-10431389D01*
X4036253Y-10431389D02*
X4026729Y-10393293D01*
X4026729Y-10393293D02*
X4026729Y-10345674D01*
X4026729Y-10345674D02*
X4036253Y-10307579D01*
X4036253Y-10307579D02*
X4045777Y-10288531D01*
X4045777Y-10288531D02*
X4055301Y-10279008D01*
X4055301Y-10279008D02*
X4074348Y-10269484D01*
X4321968Y-10269484D02*
X4226729Y-10269484D01*
X4226729Y-10269484D02*
X4217206Y-10364722D01*
X4217206Y-10364722D02*
X4226729Y-10355198D01*
X4226729Y-10355198D02*
X4245777Y-10345674D01*
X4245777Y-10345674D02*
X4293396Y-10345674D01*
X4293396Y-10345674D02*
X4312444Y-10355198D01*
X4312444Y-10355198D02*
X4321968Y-10364722D01*
X4321968Y-10364722D02*
X4331491Y-10383770D01*
X4331491Y-10383770D02*
X4331491Y-10431389D01*
X4331491Y-10431389D02*
X4321968Y-10450436D01*
X4321968Y-10450436D02*
X4312444Y-10459960D01*
X4312444Y-10459960D02*
X4293396Y-10469484D01*
X4293396Y-10469484D02*
X4245777Y-10469484D01*
X4245777Y-10469484D02*
X4226729Y-10459960D01*
X4226729Y-10459960D02*
X4217206Y-10450436D01*
X4426729Y-10469484D02*
X4464825Y-10469484D01*
X4464825Y-10469484D02*
X4483872Y-10459960D01*
X4483872Y-10459960D02*
X4493396Y-10450436D01*
X4493396Y-10450436D02*
X4512444Y-10421865D01*
X4512444Y-10421865D02*
X4521968Y-10383770D01*
X4521968Y-10383770D02*
X4521968Y-10307579D01*
X4521968Y-10307579D02*
X4512444Y-10288531D01*
X4512444Y-10288531D02*
X4502920Y-10279008D01*
X4502920Y-10279008D02*
X4483872Y-10269484D01*
X4483872Y-10269484D02*
X4445777Y-10269484D01*
X4445777Y-10269484D02*
X4426729Y-10279008D01*
X4426729Y-10279008D02*
X4417206Y-10288531D01*
X4417206Y-10288531D02*
X4407682Y-10307579D01*
X4407682Y-10307579D02*
X4407682Y-10355198D01*
X4407682Y-10355198D02*
X4417206Y-10374246D01*
X4417206Y-10374246D02*
X4426729Y-10383770D01*
X4426729Y-10383770D02*
X4445777Y-10393293D01*
X4445777Y-10393293D02*
X4483872Y-10393293D01*
X4483872Y-10393293D02*
X4502920Y-10383770D01*
X4502920Y-10383770D02*
X4512444Y-10374246D01*
X4512444Y-10374246D02*
X4521968Y-10355198D01*
X4712444Y-10469484D02*
X4598158Y-10469484D01*
X4655301Y-10469484D02*
X4655301Y-10269484D01*
X4655301Y-10269484D02*
X4636253Y-10298055D01*
X4636253Y-10298055D02*
X4617206Y-10317103D01*
X4617206Y-10317103D02*
X4598158Y-10326627D01*
X4788634Y-10269484D02*
X4788634Y-10307579D01*
X4864825Y-10269484D02*
X4864825Y-10307579D01*
X5160063Y-10545674D02*
X5150539Y-10536150D01*
X5150539Y-10536150D02*
X5131491Y-10507579D01*
X5131491Y-10507579D02*
X5121968Y-10488531D01*
X5121968Y-10488531D02*
X5112444Y-10459960D01*
X5112444Y-10459960D02*
X5102920Y-10412341D01*
X5102920Y-10412341D02*
X5102920Y-10374246D01*
X5102920Y-10374246D02*
X5112444Y-10326627D01*
X5112444Y-10326627D02*
X5121968Y-10298055D01*
X5121968Y-10298055D02*
X5131491Y-10279008D01*
X5131491Y-10279008D02*
X5150539Y-10250436D01*
X5150539Y-10250436D02*
X5160063Y-10240912D01*
X5274349Y-10269484D02*
X5293396Y-10269484D01*
X5293396Y-10269484D02*
X5312444Y-10279008D01*
X5312444Y-10279008D02*
X5321968Y-10288531D01*
X5321968Y-10288531D02*
X5331491Y-10307579D01*
X5331491Y-10307579D02*
X5341015Y-10345674D01*
X5341015Y-10345674D02*
X5341015Y-10393293D01*
X5341015Y-10393293D02*
X5331491Y-10431389D01*
X5331491Y-10431389D02*
X5321968Y-10450436D01*
X5321968Y-10450436D02*
X5312444Y-10459960D01*
X5312444Y-10459960D02*
X5293396Y-10469484D01*
X5293396Y-10469484D02*
X5274349Y-10469484D01*
X5274349Y-10469484D02*
X5255301Y-10459960D01*
X5255301Y-10459960D02*
X5245777Y-10450436D01*
X5245777Y-10450436D02*
X5236253Y-10431389D01*
X5236253Y-10431389D02*
X5226730Y-10393293D01*
X5226730Y-10393293D02*
X5226730Y-10345674D01*
X5226730Y-10345674D02*
X5236253Y-10307579D01*
X5236253Y-10307579D02*
X5245777Y-10288531D01*
X5245777Y-10288531D02*
X5255301Y-10279008D01*
X5255301Y-10279008D02*
X5274349Y-10269484D01*
X5579111Y-10469484D02*
X5579111Y-10269484D01*
X5664825Y-10469484D02*
X5664825Y-10364722D01*
X5664825Y-10364722D02*
X5655301Y-10345674D01*
X5655301Y-10345674D02*
X5636253Y-10336150D01*
X5636253Y-10336150D02*
X5607682Y-10336150D01*
X5607682Y-10336150D02*
X5588634Y-10345674D01*
X5588634Y-10345674D02*
X5579111Y-10355198D01*
X5788634Y-10469484D02*
X5769587Y-10459960D01*
X5769587Y-10459960D02*
X5760063Y-10450436D01*
X5760063Y-10450436D02*
X5750539Y-10431389D01*
X5750539Y-10431389D02*
X5750539Y-10374246D01*
X5750539Y-10374246D02*
X5760063Y-10355198D01*
X5760063Y-10355198D02*
X5769587Y-10345674D01*
X5769587Y-10345674D02*
X5788634Y-10336150D01*
X5788634Y-10336150D02*
X5817206Y-10336150D01*
X5817206Y-10336150D02*
X5836253Y-10345674D01*
X5836253Y-10345674D02*
X5845777Y-10355198D01*
X5845777Y-10355198D02*
X5855301Y-10374246D01*
X5855301Y-10374246D02*
X5855301Y-10431389D01*
X5855301Y-10431389D02*
X5845777Y-10450436D01*
X5845777Y-10450436D02*
X5836253Y-10459960D01*
X5836253Y-10459960D02*
X5817206Y-10469484D01*
X5817206Y-10469484D02*
X5788634Y-10469484D01*
X5969587Y-10469484D02*
X5950539Y-10459960D01*
X5950539Y-10459960D02*
X5941015Y-10440912D01*
X5941015Y-10440912D02*
X5941015Y-10269484D01*
X6121968Y-10459960D02*
X6102920Y-10469484D01*
X6102920Y-10469484D02*
X6064825Y-10469484D01*
X6064825Y-10469484D02*
X6045777Y-10459960D01*
X6045777Y-10459960D02*
X6036253Y-10440912D01*
X6036253Y-10440912D02*
X6036253Y-10364722D01*
X6036253Y-10364722D02*
X6045777Y-10345674D01*
X6045777Y-10345674D02*
X6064825Y-10336150D01*
X6064825Y-10336150D02*
X6102920Y-10336150D01*
X6102920Y-10336150D02*
X6121968Y-10345674D01*
X6121968Y-10345674D02*
X6131491Y-10364722D01*
X6131491Y-10364722D02*
X6131491Y-10383770D01*
X6131491Y-10383770D02*
X6036253Y-10402817D01*
X6207682Y-10459960D02*
X6226730Y-10469484D01*
X6226730Y-10469484D02*
X6264825Y-10469484D01*
X6264825Y-10469484D02*
X6283872Y-10459960D01*
X6283872Y-10459960D02*
X6293396Y-10440912D01*
X6293396Y-10440912D02*
X6293396Y-10431389D01*
X6293396Y-10431389D02*
X6283872Y-10412341D01*
X6283872Y-10412341D02*
X6264825Y-10402817D01*
X6264825Y-10402817D02*
X6236253Y-10402817D01*
X6236253Y-10402817D02*
X6217206Y-10393293D01*
X6217206Y-10393293D02*
X6207682Y-10374246D01*
X6207682Y-10374246D02*
X6207682Y-10364722D01*
X6207682Y-10364722D02*
X6217206Y-10345674D01*
X6217206Y-10345674D02*
X6236253Y-10336150D01*
X6236253Y-10336150D02*
X6264825Y-10336150D01*
X6264825Y-10336150D02*
X6283872Y-10345674D01*
X6531492Y-10393293D02*
X6683873Y-10393293D01*
X6607682Y-10469484D02*
X6607682Y-10317103D01*
X7017206Y-10336150D02*
X7017206Y-10469484D01*
X6969587Y-10259960D02*
X6921968Y-10402817D01*
X6921968Y-10402817D02*
X7045777Y-10402817D01*
X7264825Y-10459960D02*
X7283873Y-10469484D01*
X7283873Y-10469484D02*
X7321968Y-10469484D01*
X7321968Y-10469484D02*
X7341015Y-10459960D01*
X7341015Y-10459960D02*
X7350539Y-10440912D01*
X7350539Y-10440912D02*
X7350539Y-10431389D01*
X7350539Y-10431389D02*
X7341015Y-10412341D01*
X7341015Y-10412341D02*
X7321968Y-10402817D01*
X7321968Y-10402817D02*
X7293396Y-10402817D01*
X7293396Y-10402817D02*
X7274349Y-10393293D01*
X7274349Y-10393293D02*
X7264825Y-10374246D01*
X7264825Y-10374246D02*
X7264825Y-10364722D01*
X7264825Y-10364722D02*
X7274349Y-10345674D01*
X7274349Y-10345674D02*
X7293396Y-10336150D01*
X7293396Y-10336150D02*
X7321968Y-10336150D01*
X7321968Y-10336150D02*
X7341015Y-10345674D01*
X7464825Y-10469484D02*
X7445777Y-10459960D01*
X7445777Y-10459960D02*
X7436254Y-10440912D01*
X7436254Y-10440912D02*
X7436254Y-10269484D01*
X7569587Y-10469484D02*
X7550539Y-10459960D01*
X7550539Y-10459960D02*
X7541015Y-10450436D01*
X7541015Y-10450436D02*
X7531492Y-10431389D01*
X7531492Y-10431389D02*
X7531492Y-10374246D01*
X7531492Y-10374246D02*
X7541015Y-10355198D01*
X7541015Y-10355198D02*
X7550539Y-10345674D01*
X7550539Y-10345674D02*
X7569587Y-10336150D01*
X7569587Y-10336150D02*
X7598158Y-10336150D01*
X7598158Y-10336150D02*
X7617206Y-10345674D01*
X7617206Y-10345674D02*
X7626730Y-10355198D01*
X7626730Y-10355198D02*
X7636254Y-10374246D01*
X7636254Y-10374246D02*
X7636254Y-10431389D01*
X7636254Y-10431389D02*
X7626730Y-10450436D01*
X7626730Y-10450436D02*
X7617206Y-10459960D01*
X7617206Y-10459960D02*
X7598158Y-10469484D01*
X7598158Y-10469484D02*
X7569587Y-10469484D01*
X7693396Y-10336150D02*
X7769587Y-10336150D01*
X7721968Y-10269484D02*
X7721968Y-10440912D01*
X7721968Y-10440912D02*
X7731492Y-10459960D01*
X7731492Y-10459960D02*
X7750539Y-10469484D01*
X7750539Y-10469484D02*
X7769587Y-10469484D01*
X7826730Y-10459960D02*
X7845777Y-10469484D01*
X7845777Y-10469484D02*
X7883873Y-10469484D01*
X7883873Y-10469484D02*
X7902920Y-10459960D01*
X7902920Y-10459960D02*
X7912444Y-10440912D01*
X7912444Y-10440912D02*
X7912444Y-10431389D01*
X7912444Y-10431389D02*
X7902920Y-10412341D01*
X7902920Y-10412341D02*
X7883873Y-10402817D01*
X7883873Y-10402817D02*
X7855301Y-10402817D01*
X7855301Y-10402817D02*
X7836254Y-10393293D01*
X7836254Y-10393293D02*
X7826730Y-10374246D01*
X7826730Y-10374246D02*
X7826730Y-10364722D01*
X7826730Y-10364722D02*
X7836254Y-10345674D01*
X7836254Y-10345674D02*
X7855301Y-10336150D01*
X7855301Y-10336150D02*
X7883873Y-10336150D01*
X7883873Y-10336150D02*
X7902920Y-10345674D01*
X7979111Y-10545674D02*
X7988635Y-10536150D01*
X7988635Y-10536150D02*
X8007682Y-10507579D01*
X8007682Y-10507579D02*
X8017206Y-10488531D01*
X8017206Y-10488531D02*
X8026730Y-10459960D01*
X8026730Y-10459960D02*
X8036254Y-10412341D01*
X8036254Y-10412341D02*
X8036254Y-10374246D01*
X8036254Y-10374246D02*
X8026730Y-10326627D01*
X8026730Y-10326627D02*
X8017206Y-10298055D01*
X8017206Y-10298055D02*
X8007682Y-10279008D01*
X8007682Y-10279008D02*
X7988635Y-10250436D01*
X7988635Y-10250436D02*
X7979111Y-10240912D01*
X1555711Y-10718711D02*
X1555711Y-10577289D01*
X1414289Y-10577289D01*
X1414289Y-10718711D01*
X1555711Y-10718711D01*
X1826729Y-10539484D02*
X1950539Y-10539484D01*
X1950539Y-10539484D02*
X1883872Y-10615674D01*
X1883872Y-10615674D02*
X1912443Y-10615674D01*
X1912443Y-10615674D02*
X1931491Y-10625198D01*
X1931491Y-10625198D02*
X1941015Y-10634722D01*
X1941015Y-10634722D02*
X1950539Y-10653770D01*
X1950539Y-10653770D02*
X1950539Y-10701389D01*
X1950539Y-10701389D02*
X1941015Y-10720436D01*
X1941015Y-10720436D02*
X1931491Y-10729960D01*
X1931491Y-10729960D02*
X1912443Y-10739484D01*
X1912443Y-10739484D02*
X1855301Y-10739484D01*
X1855301Y-10739484D02*
X1836253Y-10729960D01*
X1836253Y-10729960D02*
X1826729Y-10720436D01*
X2036253Y-10720436D02*
X2045777Y-10729960D01*
X2045777Y-10729960D02*
X2036253Y-10739484D01*
X2036253Y-10739484D02*
X2026729Y-10729960D01*
X2026729Y-10729960D02*
X2036253Y-10720436D01*
X2036253Y-10720436D02*
X2036253Y-10739484D01*
X2169586Y-10539484D02*
X2188634Y-10539484D01*
X2188634Y-10539484D02*
X2207682Y-10549008D01*
X2207682Y-10549008D02*
X2217205Y-10558531D01*
X2217205Y-10558531D02*
X2226729Y-10577579D01*
X2226729Y-10577579D02*
X2236253Y-10615674D01*
X2236253Y-10615674D02*
X2236253Y-10663293D01*
X2236253Y-10663293D02*
X2226729Y-10701389D01*
X2226729Y-10701389D02*
X2217205Y-10720436D01*
X2217205Y-10720436D02*
X2207682Y-10729960D01*
X2207682Y-10729960D02*
X2188634Y-10739484D01*
X2188634Y-10739484D02*
X2169586Y-10739484D01*
X2169586Y-10739484D02*
X2150539Y-10729960D01*
X2150539Y-10729960D02*
X2141015Y-10720436D01*
X2141015Y-10720436D02*
X2131491Y-10701389D01*
X2131491Y-10701389D02*
X2121967Y-10663293D01*
X2121967Y-10663293D02*
X2121967Y-10615674D01*
X2121967Y-10615674D02*
X2131491Y-10577579D01*
X2131491Y-10577579D02*
X2141015Y-10558531D01*
X2141015Y-10558531D02*
X2150539Y-10549008D01*
X2150539Y-10549008D02*
X2169586Y-10539484D01*
X2360063Y-10539484D02*
X2379110Y-10539484D01*
X2379110Y-10539484D02*
X2398158Y-10549008D01*
X2398158Y-10549008D02*
X2407682Y-10558531D01*
X2407682Y-10558531D02*
X2417205Y-10577579D01*
X2417205Y-10577579D02*
X2426729Y-10615674D01*
X2426729Y-10615674D02*
X2426729Y-10663293D01*
X2426729Y-10663293D02*
X2417205Y-10701389D01*
X2417205Y-10701389D02*
X2407682Y-10720436D01*
X2407682Y-10720436D02*
X2398158Y-10729960D01*
X2398158Y-10729960D02*
X2379110Y-10739484D01*
X2379110Y-10739484D02*
X2360063Y-10739484D01*
X2360063Y-10739484D02*
X2341015Y-10729960D01*
X2341015Y-10729960D02*
X2331491Y-10720436D01*
X2331491Y-10720436D02*
X2321967Y-10701389D01*
X2321967Y-10701389D02*
X2312444Y-10663293D01*
X2312444Y-10663293D02*
X2312444Y-10615674D01*
X2312444Y-10615674D02*
X2321967Y-10577579D01*
X2321967Y-10577579D02*
X2331491Y-10558531D01*
X2331491Y-10558531D02*
X2341015Y-10549008D01*
X2341015Y-10549008D02*
X2360063Y-10539484D01*
X2550539Y-10539484D02*
X2569586Y-10539484D01*
X2569586Y-10539484D02*
X2588634Y-10549008D01*
X2588634Y-10549008D02*
X2598158Y-10558531D01*
X2598158Y-10558531D02*
X2607682Y-10577579D01*
X2607682Y-10577579D02*
X2617205Y-10615674D01*
X2617205Y-10615674D02*
X2617205Y-10663293D01*
X2617205Y-10663293D02*
X2607682Y-10701389D01*
X2607682Y-10701389D02*
X2598158Y-10720436D01*
X2598158Y-10720436D02*
X2588634Y-10729960D01*
X2588634Y-10729960D02*
X2569586Y-10739484D01*
X2569586Y-10739484D02*
X2550539Y-10739484D01*
X2550539Y-10739484D02*
X2531491Y-10729960D01*
X2531491Y-10729960D02*
X2521967Y-10720436D01*
X2521967Y-10720436D02*
X2512444Y-10701389D01*
X2512444Y-10701389D02*
X2502920Y-10663293D01*
X2502920Y-10663293D02*
X2502920Y-10615674D01*
X2502920Y-10615674D02*
X2512444Y-10577579D01*
X2512444Y-10577579D02*
X2521967Y-10558531D01*
X2521967Y-10558531D02*
X2531491Y-10549008D01*
X2531491Y-10549008D02*
X2550539Y-10539484D01*
X2702920Y-10739484D02*
X2702920Y-10606150D01*
X2702920Y-10625198D02*
X2712444Y-10615674D01*
X2712444Y-10615674D02*
X2731491Y-10606150D01*
X2731491Y-10606150D02*
X2760063Y-10606150D01*
X2760063Y-10606150D02*
X2779110Y-10615674D01*
X2779110Y-10615674D02*
X2788634Y-10634722D01*
X2788634Y-10634722D02*
X2788634Y-10739484D01*
X2788634Y-10634722D02*
X2798158Y-10615674D01*
X2798158Y-10615674D02*
X2817205Y-10606150D01*
X2817205Y-10606150D02*
X2845777Y-10606150D01*
X2845777Y-10606150D02*
X2864824Y-10615674D01*
X2864824Y-10615674D02*
X2874348Y-10634722D01*
X2874348Y-10634722D02*
X2874348Y-10739484D01*
X2969586Y-10739484D02*
X2969586Y-10606150D01*
X2969586Y-10625198D02*
X2979110Y-10615674D01*
X2979110Y-10615674D02*
X2998158Y-10606150D01*
X2998158Y-10606150D02*
X3026729Y-10606150D01*
X3026729Y-10606150D02*
X3045777Y-10615674D01*
X3045777Y-10615674D02*
X3055301Y-10634722D01*
X3055301Y-10634722D02*
X3055301Y-10739484D01*
X3055301Y-10634722D02*
X3064824Y-10615674D01*
X3064824Y-10615674D02*
X3083872Y-10606150D01*
X3083872Y-10606150D02*
X3112443Y-10606150D01*
X3112443Y-10606150D02*
X3131491Y-10615674D01*
X3131491Y-10615674D02*
X3141015Y-10634722D01*
X3141015Y-10634722D02*
X3141015Y-10739484D01*
X3531491Y-10529960D02*
X3360063Y-10787103D01*
X3788634Y-10539484D02*
X3807682Y-10539484D01*
X3807682Y-10539484D02*
X3826729Y-10549008D01*
X3826729Y-10549008D02*
X3836253Y-10558531D01*
X3836253Y-10558531D02*
X3845777Y-10577579D01*
X3845777Y-10577579D02*
X3855301Y-10615674D01*
X3855301Y-10615674D02*
X3855301Y-10663293D01*
X3855301Y-10663293D02*
X3845777Y-10701389D01*
X3845777Y-10701389D02*
X3836253Y-10720436D01*
X3836253Y-10720436D02*
X3826729Y-10729960D01*
X3826729Y-10729960D02*
X3807682Y-10739484D01*
X3807682Y-10739484D02*
X3788634Y-10739484D01*
X3788634Y-10739484D02*
X3769586Y-10729960D01*
X3769586Y-10729960D02*
X3760063Y-10720436D01*
X3760063Y-10720436D02*
X3750539Y-10701389D01*
X3750539Y-10701389D02*
X3741015Y-10663293D01*
X3741015Y-10663293D02*
X3741015Y-10615674D01*
X3741015Y-10615674D02*
X3750539Y-10577579D01*
X3750539Y-10577579D02*
X3760063Y-10558531D01*
X3760063Y-10558531D02*
X3769586Y-10549008D01*
X3769586Y-10549008D02*
X3788634Y-10539484D01*
X3941015Y-10720436D02*
X3950539Y-10729960D01*
X3950539Y-10729960D02*
X3941015Y-10739484D01*
X3941015Y-10739484D02*
X3931491Y-10729960D01*
X3931491Y-10729960D02*
X3941015Y-10720436D01*
X3941015Y-10720436D02*
X3941015Y-10739484D01*
X4141015Y-10739484D02*
X4026729Y-10739484D01*
X4083872Y-10739484D02*
X4083872Y-10539484D01*
X4083872Y-10539484D02*
X4064825Y-10568055D01*
X4064825Y-10568055D02*
X4045777Y-10587103D01*
X4045777Y-10587103D02*
X4026729Y-10596627D01*
X4331491Y-10739484D02*
X4217206Y-10739484D01*
X4274348Y-10739484D02*
X4274348Y-10539484D01*
X4274348Y-10539484D02*
X4255301Y-10568055D01*
X4255301Y-10568055D02*
X4236253Y-10587103D01*
X4236253Y-10587103D02*
X4217206Y-10596627D01*
X4445777Y-10625198D02*
X4426729Y-10615674D01*
X4426729Y-10615674D02*
X4417206Y-10606150D01*
X4417206Y-10606150D02*
X4407682Y-10587103D01*
X4407682Y-10587103D02*
X4407682Y-10577579D01*
X4407682Y-10577579D02*
X4417206Y-10558531D01*
X4417206Y-10558531D02*
X4426729Y-10549008D01*
X4426729Y-10549008D02*
X4445777Y-10539484D01*
X4445777Y-10539484D02*
X4483872Y-10539484D01*
X4483872Y-10539484D02*
X4502920Y-10549008D01*
X4502920Y-10549008D02*
X4512444Y-10558531D01*
X4512444Y-10558531D02*
X4521968Y-10577579D01*
X4521968Y-10577579D02*
X4521968Y-10587103D01*
X4521968Y-10587103D02*
X4512444Y-10606150D01*
X4512444Y-10606150D02*
X4502920Y-10615674D01*
X4502920Y-10615674D02*
X4483872Y-10625198D01*
X4483872Y-10625198D02*
X4445777Y-10625198D01*
X4445777Y-10625198D02*
X4426729Y-10634722D01*
X4426729Y-10634722D02*
X4417206Y-10644246D01*
X4417206Y-10644246D02*
X4407682Y-10663293D01*
X4407682Y-10663293D02*
X4407682Y-10701389D01*
X4407682Y-10701389D02*
X4417206Y-10720436D01*
X4417206Y-10720436D02*
X4426729Y-10729960D01*
X4426729Y-10729960D02*
X4445777Y-10739484D01*
X4445777Y-10739484D02*
X4483872Y-10739484D01*
X4483872Y-10739484D02*
X4502920Y-10729960D01*
X4502920Y-10729960D02*
X4512444Y-10720436D01*
X4512444Y-10720436D02*
X4521968Y-10701389D01*
X4521968Y-10701389D02*
X4521968Y-10663293D01*
X4521968Y-10663293D02*
X4512444Y-10644246D01*
X4512444Y-10644246D02*
X4502920Y-10634722D01*
X4502920Y-10634722D02*
X4483872Y-10625198D01*
X4712444Y-10739484D02*
X4598158Y-10739484D01*
X4655301Y-10739484D02*
X4655301Y-10539484D01*
X4655301Y-10539484D02*
X4636253Y-10568055D01*
X4636253Y-10568055D02*
X4617206Y-10587103D01*
X4617206Y-10587103D02*
X4598158Y-10596627D01*
X4788634Y-10539484D02*
X4788634Y-10577579D01*
X4864825Y-10539484D02*
X4864825Y-10577579D01*
X5160063Y-10815674D02*
X5150539Y-10806150D01*
X5150539Y-10806150D02*
X5131491Y-10777579D01*
X5131491Y-10777579D02*
X5121968Y-10758531D01*
X5121968Y-10758531D02*
X5112444Y-10729960D01*
X5112444Y-10729960D02*
X5102920Y-10682341D01*
X5102920Y-10682341D02*
X5102920Y-10644246D01*
X5102920Y-10644246D02*
X5112444Y-10596627D01*
X5112444Y-10596627D02*
X5121968Y-10568055D01*
X5121968Y-10568055D02*
X5131491Y-10549008D01*
X5131491Y-10549008D02*
X5150539Y-10520436D01*
X5150539Y-10520436D02*
X5160063Y-10510912D01*
X5341015Y-10739484D02*
X5226730Y-10739484D01*
X5283872Y-10739484D02*
X5283872Y-10539484D01*
X5283872Y-10539484D02*
X5264825Y-10568055D01*
X5264825Y-10568055D02*
X5245777Y-10587103D01*
X5245777Y-10587103D02*
X5226730Y-10596627D01*
X5407682Y-10539484D02*
X5531491Y-10539484D01*
X5531491Y-10539484D02*
X5464825Y-10615674D01*
X5464825Y-10615674D02*
X5493396Y-10615674D01*
X5493396Y-10615674D02*
X5512444Y-10625198D01*
X5512444Y-10625198D02*
X5521968Y-10634722D01*
X5521968Y-10634722D02*
X5531491Y-10653770D01*
X5531491Y-10653770D02*
X5531491Y-10701389D01*
X5531491Y-10701389D02*
X5521968Y-10720436D01*
X5521968Y-10720436D02*
X5512444Y-10729960D01*
X5512444Y-10729960D02*
X5493396Y-10739484D01*
X5493396Y-10739484D02*
X5436253Y-10739484D01*
X5436253Y-10739484D02*
X5417206Y-10729960D01*
X5417206Y-10729960D02*
X5407682Y-10720436D01*
X5655301Y-10539484D02*
X5674349Y-10539484D01*
X5674349Y-10539484D02*
X5693396Y-10549008D01*
X5693396Y-10549008D02*
X5702920Y-10558531D01*
X5702920Y-10558531D02*
X5712444Y-10577579D01*
X5712444Y-10577579D02*
X5721968Y-10615674D01*
X5721968Y-10615674D02*
X5721968Y-10663293D01*
X5721968Y-10663293D02*
X5712444Y-10701389D01*
X5712444Y-10701389D02*
X5702920Y-10720436D01*
X5702920Y-10720436D02*
X5693396Y-10729960D01*
X5693396Y-10729960D02*
X5674349Y-10739484D01*
X5674349Y-10739484D02*
X5655301Y-10739484D01*
X5655301Y-10739484D02*
X5636253Y-10729960D01*
X5636253Y-10729960D02*
X5626729Y-10720436D01*
X5626729Y-10720436D02*
X5617206Y-10701389D01*
X5617206Y-10701389D02*
X5607682Y-10663293D01*
X5607682Y-10663293D02*
X5607682Y-10615674D01*
X5607682Y-10615674D02*
X5617206Y-10577579D01*
X5617206Y-10577579D02*
X5626729Y-10558531D01*
X5626729Y-10558531D02*
X5636253Y-10549008D01*
X5636253Y-10549008D02*
X5655301Y-10539484D01*
X5960063Y-10739484D02*
X5960063Y-10539484D01*
X6045777Y-10739484D02*
X6045777Y-10634722D01*
X6045777Y-10634722D02*
X6036253Y-10615674D01*
X6036253Y-10615674D02*
X6017206Y-10606150D01*
X6017206Y-10606150D02*
X5988634Y-10606150D01*
X5988634Y-10606150D02*
X5969587Y-10615674D01*
X5969587Y-10615674D02*
X5960063Y-10625198D01*
X6169587Y-10739484D02*
X6150539Y-10729960D01*
X6150539Y-10729960D02*
X6141015Y-10720436D01*
X6141015Y-10720436D02*
X6131491Y-10701389D01*
X6131491Y-10701389D02*
X6131491Y-10644246D01*
X6131491Y-10644246D02*
X6141015Y-10625198D01*
X6141015Y-10625198D02*
X6150539Y-10615674D01*
X6150539Y-10615674D02*
X6169587Y-10606150D01*
X6169587Y-10606150D02*
X6198158Y-10606150D01*
X6198158Y-10606150D02*
X6217206Y-10615674D01*
X6217206Y-10615674D02*
X6226730Y-10625198D01*
X6226730Y-10625198D02*
X6236253Y-10644246D01*
X6236253Y-10644246D02*
X6236253Y-10701389D01*
X6236253Y-10701389D02*
X6226730Y-10720436D01*
X6226730Y-10720436D02*
X6217206Y-10729960D01*
X6217206Y-10729960D02*
X6198158Y-10739484D01*
X6198158Y-10739484D02*
X6169587Y-10739484D01*
X6350539Y-10739484D02*
X6331491Y-10729960D01*
X6331491Y-10729960D02*
X6321968Y-10710912D01*
X6321968Y-10710912D02*
X6321968Y-10539484D01*
X6502920Y-10729960D02*
X6483872Y-10739484D01*
X6483872Y-10739484D02*
X6445777Y-10739484D01*
X6445777Y-10739484D02*
X6426730Y-10729960D01*
X6426730Y-10729960D02*
X6417206Y-10710912D01*
X6417206Y-10710912D02*
X6417206Y-10634722D01*
X6417206Y-10634722D02*
X6426730Y-10615674D01*
X6426730Y-10615674D02*
X6445777Y-10606150D01*
X6445777Y-10606150D02*
X6483872Y-10606150D01*
X6483872Y-10606150D02*
X6502920Y-10615674D01*
X6502920Y-10615674D02*
X6512444Y-10634722D01*
X6512444Y-10634722D02*
X6512444Y-10653770D01*
X6512444Y-10653770D02*
X6417206Y-10672817D01*
X6588634Y-10729960D02*
X6607682Y-10739484D01*
X6607682Y-10739484D02*
X6645777Y-10739484D01*
X6645777Y-10739484D02*
X6664825Y-10729960D01*
X6664825Y-10729960D02*
X6674349Y-10710912D01*
X6674349Y-10710912D02*
X6674349Y-10701389D01*
X6674349Y-10701389D02*
X6664825Y-10682341D01*
X6664825Y-10682341D02*
X6645777Y-10672817D01*
X6645777Y-10672817D02*
X6617206Y-10672817D01*
X6617206Y-10672817D02*
X6598158Y-10663293D01*
X6598158Y-10663293D02*
X6588634Y-10644246D01*
X6588634Y-10644246D02*
X6588634Y-10634722D01*
X6588634Y-10634722D02*
X6598158Y-10615674D01*
X6598158Y-10615674D02*
X6617206Y-10606150D01*
X6617206Y-10606150D02*
X6645777Y-10606150D01*
X6645777Y-10606150D02*
X6664825Y-10615674D01*
X6741015Y-10815674D02*
X6750539Y-10806150D01*
X6750539Y-10806150D02*
X6769587Y-10777579D01*
X6769587Y-10777579D02*
X6779111Y-10758531D01*
X6779111Y-10758531D02*
X6788634Y-10729960D01*
X6788634Y-10729960D02*
X6798158Y-10682341D01*
X6798158Y-10682341D02*
X6798158Y-10644246D01*
X6798158Y-10644246D02*
X6788634Y-10596627D01*
X6788634Y-10596627D02*
X6779111Y-10568055D01*
X6779111Y-10568055D02*
X6769587Y-10549008D01*
X6769587Y-10549008D02*
X6750539Y-10520436D01*
X6750539Y-10520436D02*
X6741015Y-10510912D01*
X1485000Y-11068000D02*
X1585000Y-10968000D01*
X1485000Y-10868000D01*
X1385000Y-10968000D01*
X1485000Y-11068000D01*
X1826729Y-10859484D02*
X1950539Y-10859484D01*
X1950539Y-10859484D02*
X1883872Y-10935674D01*
X1883872Y-10935674D02*
X1912443Y-10935674D01*
X1912443Y-10935674D02*
X1931491Y-10945198D01*
X1931491Y-10945198D02*
X1941015Y-10954722D01*
X1941015Y-10954722D02*
X1950539Y-10973770D01*
X1950539Y-10973770D02*
X1950539Y-11021389D01*
X1950539Y-11021389D02*
X1941015Y-11040436D01*
X1941015Y-11040436D02*
X1931491Y-11049960D01*
X1931491Y-11049960D02*
X1912443Y-11059484D01*
X1912443Y-11059484D02*
X1855301Y-11059484D01*
X1855301Y-11059484D02*
X1836253Y-11049960D01*
X1836253Y-11049960D02*
X1826729Y-11040436D01*
X2036253Y-11040436D02*
X2045777Y-11049960D01*
X2045777Y-11049960D02*
X2036253Y-11059484D01*
X2036253Y-11059484D02*
X2026729Y-11049960D01*
X2026729Y-11049960D02*
X2036253Y-11040436D01*
X2036253Y-11040436D02*
X2036253Y-11059484D01*
X2169586Y-10859484D02*
X2188634Y-10859484D01*
X2188634Y-10859484D02*
X2207682Y-10869008D01*
X2207682Y-10869008D02*
X2217205Y-10878531D01*
X2217205Y-10878531D02*
X2226729Y-10897579D01*
X2226729Y-10897579D02*
X2236253Y-10935674D01*
X2236253Y-10935674D02*
X2236253Y-10983293D01*
X2236253Y-10983293D02*
X2226729Y-11021389D01*
X2226729Y-11021389D02*
X2217205Y-11040436D01*
X2217205Y-11040436D02*
X2207682Y-11049960D01*
X2207682Y-11049960D02*
X2188634Y-11059484D01*
X2188634Y-11059484D02*
X2169586Y-11059484D01*
X2169586Y-11059484D02*
X2150539Y-11049960D01*
X2150539Y-11049960D02*
X2141015Y-11040436D01*
X2141015Y-11040436D02*
X2131491Y-11021389D01*
X2131491Y-11021389D02*
X2121967Y-10983293D01*
X2121967Y-10983293D02*
X2121967Y-10935674D01*
X2121967Y-10935674D02*
X2131491Y-10897579D01*
X2131491Y-10897579D02*
X2141015Y-10878531D01*
X2141015Y-10878531D02*
X2150539Y-10869008D01*
X2150539Y-10869008D02*
X2169586Y-10859484D01*
X2407682Y-10926150D02*
X2407682Y-11059484D01*
X2360063Y-10849960D02*
X2312444Y-10992817D01*
X2312444Y-10992817D02*
X2436253Y-10992817D01*
X2541015Y-10945198D02*
X2521967Y-10935674D01*
X2521967Y-10935674D02*
X2512444Y-10926150D01*
X2512444Y-10926150D02*
X2502920Y-10907103D01*
X2502920Y-10907103D02*
X2502920Y-10897579D01*
X2502920Y-10897579D02*
X2512444Y-10878531D01*
X2512444Y-10878531D02*
X2521967Y-10869008D01*
X2521967Y-10869008D02*
X2541015Y-10859484D01*
X2541015Y-10859484D02*
X2579110Y-10859484D01*
X2579110Y-10859484D02*
X2598158Y-10869008D01*
X2598158Y-10869008D02*
X2607682Y-10878531D01*
X2607682Y-10878531D02*
X2617205Y-10897579D01*
X2617205Y-10897579D02*
X2617205Y-10907103D01*
X2617205Y-10907103D02*
X2607682Y-10926150D01*
X2607682Y-10926150D02*
X2598158Y-10935674D01*
X2598158Y-10935674D02*
X2579110Y-10945198D01*
X2579110Y-10945198D02*
X2541015Y-10945198D01*
X2541015Y-10945198D02*
X2521967Y-10954722D01*
X2521967Y-10954722D02*
X2512444Y-10964246D01*
X2512444Y-10964246D02*
X2502920Y-10983293D01*
X2502920Y-10983293D02*
X2502920Y-11021389D01*
X2502920Y-11021389D02*
X2512444Y-11040436D01*
X2512444Y-11040436D02*
X2521967Y-11049960D01*
X2521967Y-11049960D02*
X2541015Y-11059484D01*
X2541015Y-11059484D02*
X2579110Y-11059484D01*
X2579110Y-11059484D02*
X2598158Y-11049960D01*
X2598158Y-11049960D02*
X2607682Y-11040436D01*
X2607682Y-11040436D02*
X2617205Y-11021389D01*
X2617205Y-11021389D02*
X2617205Y-10983293D01*
X2617205Y-10983293D02*
X2607682Y-10964246D01*
X2607682Y-10964246D02*
X2598158Y-10954722D01*
X2598158Y-10954722D02*
X2579110Y-10945198D01*
X2702920Y-11059484D02*
X2702920Y-10926150D01*
X2702920Y-10945198D02*
X2712444Y-10935674D01*
X2712444Y-10935674D02*
X2731491Y-10926150D01*
X2731491Y-10926150D02*
X2760063Y-10926150D01*
X2760063Y-10926150D02*
X2779110Y-10935674D01*
X2779110Y-10935674D02*
X2788634Y-10954722D01*
X2788634Y-10954722D02*
X2788634Y-11059484D01*
X2788634Y-10954722D02*
X2798158Y-10935674D01*
X2798158Y-10935674D02*
X2817205Y-10926150D01*
X2817205Y-10926150D02*
X2845777Y-10926150D01*
X2845777Y-10926150D02*
X2864824Y-10935674D01*
X2864824Y-10935674D02*
X2874348Y-10954722D01*
X2874348Y-10954722D02*
X2874348Y-11059484D01*
X2969586Y-11059484D02*
X2969586Y-10926150D01*
X2969586Y-10945198D02*
X2979110Y-10935674D01*
X2979110Y-10935674D02*
X2998158Y-10926150D01*
X2998158Y-10926150D02*
X3026729Y-10926150D01*
X3026729Y-10926150D02*
X3045777Y-10935674D01*
X3045777Y-10935674D02*
X3055301Y-10954722D01*
X3055301Y-10954722D02*
X3055301Y-11059484D01*
X3055301Y-10954722D02*
X3064824Y-10935674D01*
X3064824Y-10935674D02*
X3083872Y-10926150D01*
X3083872Y-10926150D02*
X3112443Y-10926150D01*
X3112443Y-10926150D02*
X3131491Y-10935674D01*
X3131491Y-10935674D02*
X3141015Y-10954722D01*
X3141015Y-10954722D02*
X3141015Y-11059484D01*
X3531491Y-10849960D02*
X3360063Y-11107103D01*
X3788634Y-10859484D02*
X3807682Y-10859484D01*
X3807682Y-10859484D02*
X3826729Y-10869008D01*
X3826729Y-10869008D02*
X3836253Y-10878531D01*
X3836253Y-10878531D02*
X3845777Y-10897579D01*
X3845777Y-10897579D02*
X3855301Y-10935674D01*
X3855301Y-10935674D02*
X3855301Y-10983293D01*
X3855301Y-10983293D02*
X3845777Y-11021389D01*
X3845777Y-11021389D02*
X3836253Y-11040436D01*
X3836253Y-11040436D02*
X3826729Y-11049960D01*
X3826729Y-11049960D02*
X3807682Y-11059484D01*
X3807682Y-11059484D02*
X3788634Y-11059484D01*
X3788634Y-11059484D02*
X3769586Y-11049960D01*
X3769586Y-11049960D02*
X3760063Y-11040436D01*
X3760063Y-11040436D02*
X3750539Y-11021389D01*
X3750539Y-11021389D02*
X3741015Y-10983293D01*
X3741015Y-10983293D02*
X3741015Y-10935674D01*
X3741015Y-10935674D02*
X3750539Y-10897579D01*
X3750539Y-10897579D02*
X3760063Y-10878531D01*
X3760063Y-10878531D02*
X3769586Y-10869008D01*
X3769586Y-10869008D02*
X3788634Y-10859484D01*
X3941015Y-11040436D02*
X3950539Y-11049960D01*
X3950539Y-11049960D02*
X3941015Y-11059484D01*
X3941015Y-11059484D02*
X3931491Y-11049960D01*
X3931491Y-11049960D02*
X3941015Y-11040436D01*
X3941015Y-11040436D02*
X3941015Y-11059484D01*
X4141015Y-11059484D02*
X4026729Y-11059484D01*
X4083872Y-11059484D02*
X4083872Y-10859484D01*
X4083872Y-10859484D02*
X4064825Y-10888055D01*
X4064825Y-10888055D02*
X4045777Y-10907103D01*
X4045777Y-10907103D02*
X4026729Y-10916627D01*
X4217206Y-10878531D02*
X4226729Y-10869008D01*
X4226729Y-10869008D02*
X4245777Y-10859484D01*
X4245777Y-10859484D02*
X4293396Y-10859484D01*
X4293396Y-10859484D02*
X4312444Y-10869008D01*
X4312444Y-10869008D02*
X4321968Y-10878531D01*
X4321968Y-10878531D02*
X4331491Y-10897579D01*
X4331491Y-10897579D02*
X4331491Y-10916627D01*
X4331491Y-10916627D02*
X4321968Y-10945198D01*
X4321968Y-10945198D02*
X4207682Y-11059484D01*
X4207682Y-11059484D02*
X4331491Y-11059484D01*
X4455301Y-10859484D02*
X4474349Y-10859484D01*
X4474349Y-10859484D02*
X4493396Y-10869008D01*
X4493396Y-10869008D02*
X4502920Y-10878531D01*
X4502920Y-10878531D02*
X4512444Y-10897579D01*
X4512444Y-10897579D02*
X4521968Y-10935674D01*
X4521968Y-10935674D02*
X4521968Y-10983293D01*
X4521968Y-10983293D02*
X4512444Y-11021389D01*
X4512444Y-11021389D02*
X4502920Y-11040436D01*
X4502920Y-11040436D02*
X4493396Y-11049960D01*
X4493396Y-11049960D02*
X4474349Y-11059484D01*
X4474349Y-11059484D02*
X4455301Y-11059484D01*
X4455301Y-11059484D02*
X4436253Y-11049960D01*
X4436253Y-11049960D02*
X4426729Y-11040436D01*
X4426729Y-11040436D02*
X4417206Y-11021389D01*
X4417206Y-11021389D02*
X4407682Y-10983293D01*
X4407682Y-10983293D02*
X4407682Y-10935674D01*
X4407682Y-10935674D02*
X4417206Y-10897579D01*
X4417206Y-10897579D02*
X4426729Y-10878531D01*
X4426729Y-10878531D02*
X4436253Y-10869008D01*
X4436253Y-10869008D02*
X4455301Y-10859484D01*
X4645777Y-10859484D02*
X4664825Y-10859484D01*
X4664825Y-10859484D02*
X4683872Y-10869008D01*
X4683872Y-10869008D02*
X4693396Y-10878531D01*
X4693396Y-10878531D02*
X4702920Y-10897579D01*
X4702920Y-10897579D02*
X4712444Y-10935674D01*
X4712444Y-10935674D02*
X4712444Y-10983293D01*
X4712444Y-10983293D02*
X4702920Y-11021389D01*
X4702920Y-11021389D02*
X4693396Y-11040436D01*
X4693396Y-11040436D02*
X4683872Y-11049960D01*
X4683872Y-11049960D02*
X4664825Y-11059484D01*
X4664825Y-11059484D02*
X4645777Y-11059484D01*
X4645777Y-11059484D02*
X4626729Y-11049960D01*
X4626729Y-11049960D02*
X4617206Y-11040436D01*
X4617206Y-11040436D02*
X4607682Y-11021389D01*
X4607682Y-11021389D02*
X4598158Y-10983293D01*
X4598158Y-10983293D02*
X4598158Y-10935674D01*
X4598158Y-10935674D02*
X4607682Y-10897579D01*
X4607682Y-10897579D02*
X4617206Y-10878531D01*
X4617206Y-10878531D02*
X4626729Y-10869008D01*
X4626729Y-10869008D02*
X4645777Y-10859484D01*
X4788634Y-10859484D02*
X4788634Y-10897579D01*
X4864825Y-10859484D02*
X4864825Y-10897579D01*
X5160063Y-11135674D02*
X5150539Y-11126150D01*
X5150539Y-11126150D02*
X5131491Y-11097579D01*
X5131491Y-11097579D02*
X5121968Y-11078531D01*
X5121968Y-11078531D02*
X5112444Y-11049960D01*
X5112444Y-11049960D02*
X5102920Y-11002341D01*
X5102920Y-11002341D02*
X5102920Y-10964246D01*
X5102920Y-10964246D02*
X5112444Y-10916627D01*
X5112444Y-10916627D02*
X5121968Y-10888055D01*
X5121968Y-10888055D02*
X5131491Y-10869008D01*
X5131491Y-10869008D02*
X5150539Y-10840436D01*
X5150539Y-10840436D02*
X5160063Y-10830912D01*
X5321968Y-10926150D02*
X5321968Y-11059484D01*
X5274349Y-10849960D02*
X5226730Y-10992817D01*
X5226730Y-10992817D02*
X5350539Y-10992817D01*
X5579111Y-11059484D02*
X5579111Y-10859484D01*
X5664825Y-11059484D02*
X5664825Y-10954722D01*
X5664825Y-10954722D02*
X5655301Y-10935674D01*
X5655301Y-10935674D02*
X5636253Y-10926150D01*
X5636253Y-10926150D02*
X5607682Y-10926150D01*
X5607682Y-10926150D02*
X5588634Y-10935674D01*
X5588634Y-10935674D02*
X5579111Y-10945198D01*
X5788634Y-11059484D02*
X5769587Y-11049960D01*
X5769587Y-11049960D02*
X5760063Y-11040436D01*
X5760063Y-11040436D02*
X5750539Y-11021389D01*
X5750539Y-11021389D02*
X5750539Y-10964246D01*
X5750539Y-10964246D02*
X5760063Y-10945198D01*
X5760063Y-10945198D02*
X5769587Y-10935674D01*
X5769587Y-10935674D02*
X5788634Y-10926150D01*
X5788634Y-10926150D02*
X5817206Y-10926150D01*
X5817206Y-10926150D02*
X5836253Y-10935674D01*
X5836253Y-10935674D02*
X5845777Y-10945198D01*
X5845777Y-10945198D02*
X5855301Y-10964246D01*
X5855301Y-10964246D02*
X5855301Y-11021389D01*
X5855301Y-11021389D02*
X5845777Y-11040436D01*
X5845777Y-11040436D02*
X5836253Y-11049960D01*
X5836253Y-11049960D02*
X5817206Y-11059484D01*
X5817206Y-11059484D02*
X5788634Y-11059484D01*
X5969587Y-11059484D02*
X5950539Y-11049960D01*
X5950539Y-11049960D02*
X5941015Y-11030912D01*
X5941015Y-11030912D02*
X5941015Y-10859484D01*
X6121968Y-11049960D02*
X6102920Y-11059484D01*
X6102920Y-11059484D02*
X6064825Y-11059484D01*
X6064825Y-11059484D02*
X6045777Y-11049960D01*
X6045777Y-11049960D02*
X6036253Y-11030912D01*
X6036253Y-11030912D02*
X6036253Y-10954722D01*
X6036253Y-10954722D02*
X6045777Y-10935674D01*
X6045777Y-10935674D02*
X6064825Y-10926150D01*
X6064825Y-10926150D02*
X6102920Y-10926150D01*
X6102920Y-10926150D02*
X6121968Y-10935674D01*
X6121968Y-10935674D02*
X6131491Y-10954722D01*
X6131491Y-10954722D02*
X6131491Y-10973770D01*
X6131491Y-10973770D02*
X6036253Y-10992817D01*
X6207682Y-11049960D02*
X6226730Y-11059484D01*
X6226730Y-11059484D02*
X6264825Y-11059484D01*
X6264825Y-11059484D02*
X6283872Y-11049960D01*
X6283872Y-11049960D02*
X6293396Y-11030912D01*
X6293396Y-11030912D02*
X6293396Y-11021389D01*
X6293396Y-11021389D02*
X6283872Y-11002341D01*
X6283872Y-11002341D02*
X6264825Y-10992817D01*
X6264825Y-10992817D02*
X6236253Y-10992817D01*
X6236253Y-10992817D02*
X6217206Y-10983293D01*
X6217206Y-10983293D02*
X6207682Y-10964246D01*
X6207682Y-10964246D02*
X6207682Y-10954722D01*
X6207682Y-10954722D02*
X6217206Y-10935674D01*
X6217206Y-10935674D02*
X6236253Y-10926150D01*
X6236253Y-10926150D02*
X6264825Y-10926150D01*
X6264825Y-10926150D02*
X6283872Y-10935674D01*
X6360063Y-11135674D02*
X6369587Y-11126150D01*
X6369587Y-11126150D02*
X6388634Y-11097579D01*
X6388634Y-11097579D02*
X6398158Y-11078531D01*
X6398158Y-11078531D02*
X6407682Y-11049960D01*
X6407682Y-11049960D02*
X6417206Y-11002341D01*
X6417206Y-11002341D02*
X6417206Y-10964246D01*
X6417206Y-10964246D02*
X6407682Y-10916627D01*
X6407682Y-10916627D02*
X6398158Y-10888055D01*
X6398158Y-10888055D02*
X6388634Y-10869008D01*
X6388634Y-10869008D02*
X6369587Y-10840436D01*
X6369587Y-10840436D02*
X6360063Y-10830912D01*
M02*
