G04 #@! TF.GenerationSoftware,KiCad,Pcbnew,8.0.2-1.fc39*
G04 #@! TF.CreationDate,2024-05-29T21:02:28-04:00*
G04 #@! TF.ProjectId,KeychronQ9OrthoIntegrated,4b657963-6872-46f6-9e51-394f7274686f,rev?*
G04 #@! TF.SameCoordinates,Original*
G04 #@! TF.FileFunction,Soldermask,Bot*
G04 #@! TF.FilePolarity,Negative*
%FSLAX46Y46*%
G04 Gerber Fmt 4.6, Leading zero omitted, Abs format (unit mm)*
G04 Created by KiCad (PCBNEW 8.0.2-1.fc39) date 2024-05-29 21:02:28*
%MOMM*%
%LPD*%
G01*
G04 APERTURE LIST*
G04 Aperture macros list*
%AMRoundRect*
0 Rectangle with rounded corners*
0 $1 Rounding radius*
0 $2 $3 $4 $5 $6 $7 $8 $9 X,Y pos of 4 corners*
0 Add a 4 corners polygon primitive as box body*
4,1,4,$2,$3,$4,$5,$6,$7,$8,$9,$2,$3,0*
0 Add four circle primitives for the rounded corners*
1,1,$1+$1,$2,$3*
1,1,$1+$1,$4,$5*
1,1,$1+$1,$6,$7*
1,1,$1+$1,$8,$9*
0 Add four rect primitives between the rounded corners*
20,1,$1+$1,$2,$3,$4,$5,0*
20,1,$1+$1,$4,$5,$6,$7,0*
20,1,$1+$1,$6,$7,$8,$9,0*
20,1,$1+$1,$8,$9,$2,$3,0*%
%AMRotRect*
0 Rectangle, with rotation*
0 The origin of the aperture is its center*
0 $1 length*
0 $2 width*
0 $3 Rotation angle, in degrees counterclockwise*
0 Add horizontal line*
21,1,$1,$2,0,0,$3*%
G04 Aperture macros list end*
%ADD10C,2.000000*%
%ADD11RoundRect,0.550000X0.550000X-1.150000X0.550000X1.150000X-0.550000X1.150000X-0.550000X-1.150000X0*%
%ADD12RoundRect,0.500000X0.500000X-0.500000X0.500000X0.500000X-0.500000X0.500000X-0.500000X-0.500000X0*%
%ADD13RoundRect,0.140000X0.170000X-0.140000X0.170000X0.140000X-0.170000X0.140000X-0.170000X-0.140000X0*%
%ADD14C,1.750000*%
%ADD15C,3.987800*%
%ADD16C,3.300000*%
%ADD17RoundRect,0.250000X1.025000X1.000000X-1.025000X1.000000X-1.025000X-1.000000X1.025000X-1.000000X0*%
%ADD18RoundRect,0.225000X0.375000X-0.225000X0.375000X0.225000X-0.375000X0.225000X-0.375000X-0.225000X0*%
%ADD19RoundRect,0.150000X0.475000X0.150000X-0.475000X0.150000X-0.475000X-0.150000X0.475000X-0.150000X0*%
%ADD20RoundRect,0.225000X-0.225000X-0.375000X0.225000X-0.375000X0.225000X0.375000X-0.225000X0.375000X0*%
%ADD21RoundRect,0.135000X-0.135000X-0.185000X0.135000X-0.185000X0.135000X0.185000X-0.135000X0.185000X0*%
%ADD22RoundRect,0.135000X-0.185000X0.135000X-0.185000X-0.135000X0.185000X-0.135000X0.185000X0.135000X0*%
%ADD23RoundRect,0.140000X0.021213X-0.219203X0.219203X-0.021213X-0.021213X0.219203X-0.219203X0.021213X0*%
%ADD24RoundRect,0.140000X-0.140000X-0.170000X0.140000X-0.170000X0.140000X0.170000X-0.140000X0.170000X0*%
%ADD25RoundRect,0.140000X-0.170000X0.140000X-0.170000X-0.140000X0.170000X-0.140000X0.170000X0.140000X0*%
%ADD26R,1.700000X1.000000*%
%ADD27RoundRect,0.050000X0.387500X0.050000X-0.387500X0.050000X-0.387500X-0.050000X0.387500X-0.050000X0*%
%ADD28RoundRect,0.050000X0.050000X0.387500X-0.050000X0.387500X-0.050000X-0.387500X0.050000X-0.387500X0*%
%ADD29R,3.200000X3.200000*%
%ADD30RoundRect,0.150000X0.512500X0.150000X-0.512500X0.150000X-0.512500X-0.150000X0.512500X-0.150000X0*%
%ADD31RoundRect,0.150000X-0.150000X-0.625000X0.150000X-0.625000X0.150000X0.625000X-0.150000X0.625000X0*%
%ADD32RoundRect,0.250000X-0.350000X-0.650000X0.350000X-0.650000X0.350000X0.650000X-0.350000X0.650000X0*%
%ADD33RoundRect,0.140000X-0.021213X0.219203X-0.219203X0.021213X0.021213X-0.219203X0.219203X-0.021213X0*%
%ADD34RoundRect,0.250000X-1.025000X-1.000000X1.025000X-1.000000X1.025000X1.000000X-1.025000X1.000000X0*%
%ADD35RoundRect,0.225000X-0.250000X0.225000X-0.250000X-0.225000X0.250000X-0.225000X0.250000X0.225000X0*%
%ADD36RotRect,1.400000X1.200000X45.000000*%
%ADD37RoundRect,0.150000X0.150000X-0.650000X0.150000X0.650000X-0.150000X0.650000X-0.150000X-0.650000X0*%
%ADD38RoundRect,0.140000X0.219203X0.021213X0.021213X0.219203X-0.219203X-0.021213X-0.021213X-0.219203X0*%
%ADD39R,1.700000X1.700000*%
%ADD40O,1.700000X1.700000*%
%ADD41RoundRect,0.140000X0.140000X0.170000X-0.140000X0.170000X-0.140000X-0.170000X0.140000X-0.170000X0*%
%ADD42RoundRect,0.135000X0.035355X-0.226274X0.226274X-0.035355X-0.035355X0.226274X-0.226274X0.035355X0*%
G04 APERTURE END LIST*
D10*
G04 #@! TO.C,SW2*
X313412501Y-42212500D03*
X318412499Y-42212500D03*
D11*
X321512500Y-49212500D03*
X310312500Y-49212500D03*
D12*
X315912500Y-56712500D03*
D10*
X318412500Y-56712500D03*
X313412500Y-56712500D03*
G04 #@! TD*
G04 #@! TO.C,SW1*
X313412501Y-18400000D03*
X318412499Y-18400000D03*
D11*
X321512500Y-25400000D03*
X310312500Y-25400000D03*
D12*
X315912500Y-32900000D03*
D10*
X318412500Y-32900000D03*
X313412500Y-32900000D03*
G04 #@! TD*
D13*
G04 #@! TO.C,C2*
X285154448Y-49884600D03*
X285154448Y-48924600D03*
G04 #@! TD*
D14*
G04 #@! TO.C,MX54*
X125730000Y-82550000D03*
D15*
X120650000Y-82550000D03*
D14*
X115570000Y-82550000D03*
D16*
X116840000Y-80010000D03*
D17*
X113290000Y-80010000D03*
X126740000Y-77470000D03*
D16*
X123190000Y-77470000D03*
G04 #@! TD*
D14*
G04 #@! TO.C,MX9*
X182880000Y-25400000D03*
D15*
X177800000Y-25400000D03*
D14*
X172720000Y-25400000D03*
D16*
X173990000Y-22860000D03*
D17*
X170440000Y-22860000D03*
X183890000Y-20320000D03*
D16*
X180340000Y-20320000D03*
G04 #@! TD*
D18*
G04 #@! TO.C,D6*
X123825000Y-27843750D03*
X123825000Y-24543750D03*
G04 #@! TD*
G04 #@! TO.C,D56*
X161925000Y-84993750D03*
X161925000Y-81693750D03*
G04 #@! TD*
D14*
G04 #@! TO.C,MX37*
X106680000Y-63500000D03*
D15*
X101600000Y-63500000D03*
D14*
X96520000Y-63500000D03*
D16*
X97790000Y-60960000D03*
D17*
X94240000Y-60960000D03*
X107690000Y-58420000D03*
D16*
X104140000Y-58420000D03*
G04 #@! TD*
D19*
G04 #@! TO.C,U2*
X42549184Y-34917548D03*
X42549183Y-35867548D03*
X42549184Y-36817548D03*
X40199184Y-36817548D03*
X40199185Y-35867548D03*
X40199184Y-34917548D03*
G04 #@! TD*
D18*
G04 #@! TO.C,D43*
X219075000Y-65943750D03*
X219075000Y-62643750D03*
G04 #@! TD*
D14*
G04 #@! TO.C,MX20*
X87630000Y-44450000D03*
D15*
X82550000Y-44450000D03*
D14*
X77470000Y-44450000D03*
D16*
X78740000Y-41910000D03*
D17*
X75190000Y-41910000D03*
X88640000Y-39370000D03*
D16*
X85090000Y-39370000D03*
G04 #@! TD*
D18*
G04 #@! TO.C,D1*
X28575000Y-27843750D03*
X28575000Y-24543750D03*
G04 #@! TD*
G04 #@! TO.C,D3*
X66675000Y-27843750D03*
X66675000Y-24543750D03*
G04 #@! TD*
G04 #@! TO.C,D17*
X28575000Y-46893750D03*
X28575000Y-43593750D03*
G04 #@! TD*
G04 #@! TO.C,D11*
X219075000Y-27843750D03*
X219075000Y-24543750D03*
G04 #@! TD*
G04 #@! TO.C,D45*
X257175000Y-65943750D03*
X257175000Y-62643750D03*
G04 #@! TD*
D14*
G04 #@! TO.C,MX49*
X49530000Y-82550000D03*
D15*
X44450000Y-82550000D03*
D14*
X39370000Y-82550000D03*
D16*
X40640000Y-80010000D03*
D17*
X37090000Y-80010000D03*
X50540000Y-77470000D03*
D16*
X46990000Y-77470000D03*
G04 #@! TD*
D18*
G04 #@! TO.C,D64*
X295275000Y-84993750D03*
X295275000Y-81693750D03*
G04 #@! TD*
D14*
G04 #@! TO.C,MX36*
X87630000Y-63500000D03*
D15*
X82550000Y-63500000D03*
D14*
X77470000Y-63500000D03*
D16*
X78740000Y-60960000D03*
D17*
X75190000Y-60960000D03*
X88640000Y-58420000D03*
D16*
X85090000Y-58420000D03*
G04 #@! TD*
D18*
G04 #@! TO.C,D65*
X314325000Y-84993750D03*
X314325000Y-81693750D03*
G04 #@! TD*
D13*
G04 #@! TO.C,C1*
X279945468Y-49884600D03*
X279945468Y-48924600D03*
G04 #@! TD*
D14*
G04 #@! TO.C,MX16*
X320992500Y-25400000D03*
D15*
X315912500Y-25400000D03*
D14*
X310832500Y-25400000D03*
D16*
X312102500Y-22860000D03*
D17*
X308552500Y-22860000D03*
X322002500Y-20320000D03*
D16*
X318452500Y-20320000D03*
G04 #@! TD*
D18*
G04 #@! TO.C,D27*
X219075000Y-46893750D03*
X219075000Y-43593750D03*
G04 #@! TD*
D20*
G04 #@! TO.C,D59*
X211868750Y-86121875D03*
X215168750Y-86121875D03*
G04 #@! TD*
D14*
G04 #@! TO.C,MX5*
X106680000Y-25400000D03*
D15*
X101600000Y-25400000D03*
D14*
X96520000Y-25400000D03*
D16*
X97790000Y-22860000D03*
D17*
X94240000Y-22860000D03*
X107690000Y-20320000D03*
D16*
X104140000Y-20320000D03*
G04 #@! TD*
D21*
G04 #@! TO.C,R4*
X322800277Y-40574184D03*
X323820275Y-40574184D03*
G04 #@! TD*
D14*
G04 #@! TO.C,MX35*
X68580000Y-63500000D03*
D15*
X63500000Y-63500000D03*
D14*
X58420000Y-63500000D03*
D16*
X59690000Y-60960000D03*
D17*
X56140000Y-60960000D03*
X69590000Y-58420000D03*
D16*
X66040000Y-58420000D03*
G04 #@! TD*
D18*
G04 #@! TO.C,D44*
X238125000Y-65943750D03*
X238125000Y-62643750D03*
G04 #@! TD*
G04 #@! TO.C,D51*
X85725000Y-84993750D03*
X85725000Y-81693750D03*
G04 #@! TD*
G04 #@! TO.C,D22*
X123825000Y-46893750D03*
X123825000Y-43593750D03*
G04 #@! TD*
D14*
G04 #@! TO.C,MX59*
X220980000Y-82550000D03*
D15*
X215900000Y-82550000D03*
D14*
X210820000Y-82550000D03*
D16*
X212090000Y-80010000D03*
D17*
X208540000Y-80010000D03*
X221990000Y-77470000D03*
D16*
X218440000Y-77470000D03*
G04 #@! TD*
D14*
G04 #@! TO.C,MX30*
X278130000Y-44450000D03*
D15*
X273050000Y-44450000D03*
D14*
X267970000Y-44450000D03*
D16*
X269240000Y-41910000D03*
D17*
X265690000Y-41910000D03*
X279140000Y-39370000D03*
D16*
X275590000Y-39370000D03*
G04 #@! TD*
D14*
G04 #@! TO.C,MX44*
X240030000Y-63500000D03*
D15*
X234950000Y-63500000D03*
D14*
X229870000Y-63500000D03*
D16*
X231140000Y-60960000D03*
D17*
X227590000Y-60960000D03*
X241040000Y-58420000D03*
D16*
X237490000Y-58420000D03*
G04 #@! TD*
D22*
G04 #@! TO.C,R8*
X305748572Y-51375113D03*
X305748572Y-52395111D03*
G04 #@! TD*
D18*
G04 #@! TO.C,D13*
X257175000Y-27843750D03*
X257175000Y-24543750D03*
G04 #@! TD*
D14*
G04 #@! TO.C,MX50*
X68580000Y-82550000D03*
D15*
X63500000Y-82550000D03*
D14*
X58420000Y-82550000D03*
D16*
X59690000Y-80010000D03*
D17*
X56140000Y-80010000D03*
X69590000Y-77470000D03*
D16*
X66040000Y-77470000D03*
G04 #@! TD*
D18*
G04 #@! TO.C,D15*
X295275000Y-27843750D03*
X295275000Y-24543750D03*
G04 #@! TD*
D23*
G04 #@! TO.C,C10*
X309278689Y-75453148D03*
X309957511Y-74774326D03*
G04 #@! TD*
D14*
G04 #@! TO.C,MX56*
X163830000Y-82550000D03*
D15*
X158750000Y-82550000D03*
D14*
X153670000Y-82550000D03*
D16*
X154940000Y-80010000D03*
D17*
X151390000Y-80010000D03*
X164840000Y-77470000D03*
D16*
X161290000Y-77470000D03*
G04 #@! TD*
D18*
G04 #@! TO.C,D31*
X295275000Y-46893750D03*
X295275000Y-43593750D03*
G04 #@! TD*
G04 #@! TO.C,D41*
X180975000Y-65943750D03*
X180975000Y-62643750D03*
G04 #@! TD*
D14*
G04 #@! TO.C,MX47*
X297180000Y-63500000D03*
D15*
X292100000Y-63500000D03*
D14*
X287020000Y-63500000D03*
D16*
X288290000Y-60960000D03*
D17*
X284740000Y-60960000D03*
X298190000Y-58420000D03*
D16*
X294640000Y-58420000D03*
G04 #@! TD*
D22*
G04 #@! TO.C,R7*
X306939196Y-51375113D03*
X306939196Y-52395111D03*
G04 #@! TD*
D18*
G04 #@! TO.C,D62*
X257175000Y-84993750D03*
X257175000Y-81693750D03*
G04 #@! TD*
D24*
G04 #@! TO.C,C7*
X312114660Y-60070652D03*
X313074660Y-60070652D03*
G04 #@! TD*
D18*
G04 #@! TO.C,D29*
X257175000Y-46893750D03*
X257175000Y-43593750D03*
G04 #@! TD*
D14*
G04 #@! TO.C,MX42*
X201930000Y-63500000D03*
D15*
X196850000Y-63500000D03*
D14*
X191770000Y-63500000D03*
D16*
X193040000Y-60960000D03*
D17*
X189490000Y-60960000D03*
X202940000Y-58420000D03*
D16*
X199390000Y-58420000D03*
G04 #@! TD*
D14*
G04 #@! TO.C,MX1*
X30480000Y-25400000D03*
D15*
X25400000Y-25400000D03*
D14*
X20320000Y-25400000D03*
D16*
X21590000Y-22860000D03*
D17*
X18040000Y-22860000D03*
X31490000Y-20320000D03*
D16*
X27940000Y-20320000D03*
G04 #@! TD*
D18*
G04 #@! TO.C,D19*
X66675000Y-46893750D03*
X66675000Y-43593750D03*
G04 #@! TD*
D14*
G04 #@! TO.C,MX65*
X316230000Y-82550000D03*
D15*
X311150000Y-82550000D03*
D14*
X306070000Y-82550000D03*
D16*
X307340000Y-80010000D03*
D17*
X303790000Y-80010000D03*
X317240000Y-77470000D03*
D16*
X313690000Y-77470000D03*
G04 #@! TD*
D14*
G04 #@! TO.C,MX40*
X163830000Y-63500000D03*
D15*
X158750000Y-63500000D03*
D14*
X153670000Y-63500000D03*
D16*
X154940000Y-60960000D03*
D17*
X151390000Y-60960000D03*
X164840000Y-58420000D03*
D16*
X161290000Y-58420000D03*
G04 #@! TD*
D18*
G04 #@! TO.C,D30*
X276225000Y-46893750D03*
X276225000Y-43593750D03*
G04 #@! TD*
D25*
G04 #@! TO.C,C8*
X313636456Y-67329708D03*
X313636456Y-68289708D03*
G04 #@! TD*
D18*
G04 #@! TO.C,D12*
X238125000Y-27843750D03*
X238125000Y-24543750D03*
G04 #@! TD*
D13*
G04 #@! TO.C,C3*
X305004432Y-56681124D03*
X305004432Y-55721124D03*
G04 #@! TD*
D18*
G04 #@! TO.C,D7*
X142875000Y-27843750D03*
X142875000Y-24543750D03*
G04 #@! TD*
D14*
G04 #@! TO.C,MX28*
X240030000Y-44450000D03*
D15*
X234950000Y-44450000D03*
D14*
X229870000Y-44450000D03*
D16*
X231140000Y-41910000D03*
D17*
X227590000Y-41910000D03*
X241040000Y-39370000D03*
D16*
X237490000Y-39370000D03*
G04 #@! TD*
D18*
G04 #@! TO.C,D55*
X142875000Y-84993750D03*
X142875000Y-81693750D03*
G04 #@! TD*
G04 #@! TO.C,D38*
X123825000Y-65943750D03*
X123825000Y-62643750D03*
G04 #@! TD*
D14*
G04 #@! TO.C,MX63*
X278130000Y-82550000D03*
D15*
X273050000Y-82550000D03*
D14*
X267970000Y-82550000D03*
D16*
X269240000Y-80010000D03*
D17*
X265690000Y-80010000D03*
X279140000Y-77470000D03*
D16*
X275590000Y-77470000D03*
G04 #@! TD*
D18*
G04 #@! TO.C,D23*
X142875000Y-46893750D03*
X142875000Y-43593750D03*
G04 #@! TD*
G04 #@! TO.C,D18*
X47625000Y-46893750D03*
X47625000Y-43593750D03*
G04 #@! TD*
D21*
G04 #@! TO.C,R6*
X322800277Y-39532388D03*
X323820275Y-39532388D03*
G04 #@! TD*
D14*
G04 #@! TO.C,MX19*
X68580000Y-44450000D03*
D15*
X63500000Y-44450000D03*
D14*
X58420000Y-44450000D03*
D16*
X59690000Y-41910000D03*
D17*
X56140000Y-41910000D03*
X69590000Y-39370000D03*
D16*
X66040000Y-39370000D03*
G04 #@! TD*
D26*
G04 #@! TO.C,RST1*
X295250000Y-70821032D03*
X288950000Y-70821032D03*
X295250000Y-74621032D03*
X288950000Y-74621032D03*
G04 #@! TD*
D14*
G04 #@! TO.C,MX51*
X87630000Y-82550000D03*
D15*
X82550000Y-82550000D03*
D14*
X77470000Y-82550000D03*
D16*
X78740000Y-80010000D03*
D17*
X75190000Y-80010000D03*
X88640000Y-77470000D03*
D16*
X85090000Y-77470000D03*
G04 #@! TD*
D27*
G04 #@! TO.C,U3*
X310972008Y-61191352D03*
X310972008Y-61591353D03*
X310972008Y-61991352D03*
X310972008Y-62391352D03*
X310972008Y-62791352D03*
X310972008Y-63191351D03*
X310972008Y-63591352D03*
X310972008Y-63991352D03*
X310972008Y-64391353D03*
X310972008Y-64791352D03*
X310972008Y-65191352D03*
X310972008Y-65591352D03*
X310972008Y-65991351D03*
X310972008Y-66391352D03*
D28*
X310134508Y-67228852D03*
X309734507Y-67228852D03*
X309334508Y-67228852D03*
X308934508Y-67228852D03*
X308534508Y-67228852D03*
X308134509Y-67228852D03*
X307734508Y-67228852D03*
X307334508Y-67228852D03*
X306934507Y-67228852D03*
X306534508Y-67228852D03*
X306134508Y-67228852D03*
X305734508Y-67228852D03*
X305334509Y-67228852D03*
X304934508Y-67228852D03*
D27*
X304097008Y-66391352D03*
X304097008Y-65991351D03*
X304097008Y-65591352D03*
X304097008Y-65191352D03*
X304097008Y-64791352D03*
X304097008Y-64391353D03*
X304097008Y-63991352D03*
X304097008Y-63591352D03*
X304097008Y-63191351D03*
X304097008Y-62791352D03*
X304097008Y-62391352D03*
X304097008Y-61991352D03*
X304097008Y-61591353D03*
X304097008Y-61191352D03*
D28*
X304934508Y-60353852D03*
X305334509Y-60353852D03*
X305734508Y-60353852D03*
X306134508Y-60353852D03*
X306534508Y-60353852D03*
X306934507Y-60353852D03*
X307334508Y-60353852D03*
X307734508Y-60353852D03*
X308134509Y-60353852D03*
X308534508Y-60353852D03*
X308934508Y-60353852D03*
X309334508Y-60353852D03*
X309734507Y-60353852D03*
X310134508Y-60353852D03*
D29*
X307534508Y-63791352D03*
G04 #@! TD*
D18*
G04 #@! TO.C,D21*
X104775000Y-46893750D03*
X104775000Y-43593750D03*
G04 #@! TD*
G04 #@! TO.C,D49*
X47625000Y-84993750D03*
X47625000Y-81693750D03*
G04 #@! TD*
D15*
G04 #@! TO.C,S2*
X213518750Y-74295000D03*
X237331250Y-74295000D03*
G04 #@! TD*
D30*
G04 #@! TO.C,U1*
X283712500Y-49000349D03*
X283712500Y-50900347D03*
X281437500Y-49950348D03*
G04 #@! TD*
D20*
G04 #@! TO.C,D52*
X97568750Y-86121875D03*
X100868750Y-86121875D03*
G04 #@! TD*
D14*
G04 #@! TO.C,MX31*
X297180000Y-44450000D03*
D15*
X292100000Y-44450000D03*
D14*
X287020000Y-44450000D03*
D16*
X288290000Y-41910000D03*
D17*
X284740000Y-41910000D03*
X298190000Y-39370000D03*
D16*
X294640000Y-39370000D03*
G04 #@! TD*
D18*
G04 #@! TO.C,D4*
X85725000Y-27843750D03*
X85725000Y-24543750D03*
G04 #@! TD*
D14*
G04 #@! TO.C,MX10*
X201930000Y-25400000D03*
D15*
X196850000Y-25400000D03*
D14*
X191770000Y-25400000D03*
D16*
X193040000Y-22860000D03*
D17*
X189490000Y-22860000D03*
X202940000Y-20320000D03*
D16*
X199390000Y-20320000D03*
G04 #@! TD*
D18*
G04 #@! TO.C,D50*
X66675000Y-84993750D03*
X66675000Y-81693750D03*
G04 #@! TD*
D14*
G04 #@! TO.C,MX12*
X240030000Y-25400000D03*
D15*
X234950000Y-25400000D03*
D14*
X229870000Y-25400000D03*
D16*
X231140000Y-22860000D03*
D17*
X227590000Y-22860000D03*
X241040000Y-20320000D03*
D16*
X237490000Y-20320000D03*
G04 #@! TD*
D14*
G04 #@! TO.C,MX23*
X144780000Y-44450000D03*
D15*
X139700000Y-44450000D03*
D14*
X134620000Y-44450000D03*
D16*
X135890000Y-41910000D03*
D17*
X132340000Y-41910000D03*
X145790000Y-39370000D03*
D16*
X142240000Y-39370000D03*
G04 #@! TD*
D14*
G04 #@! TO.C,MX17*
X30480000Y-44450000D03*
D15*
X25400000Y-44450000D03*
D14*
X20320000Y-44450000D03*
D16*
X21590000Y-41910000D03*
D17*
X18040000Y-41910000D03*
X31490000Y-39370000D03*
D16*
X27940000Y-39370000D03*
G04 #@! TD*
D31*
G04 #@! TO.C,J1*
X39862464Y-30077708D03*
X40862464Y-30077708D03*
X41862464Y-30077708D03*
X42862464Y-30077709D03*
X43862464Y-30077708D03*
X44862464Y-30077708D03*
X45862464Y-30077708D03*
D32*
X38562464Y-32602708D03*
X47162464Y-32602708D03*
G04 #@! TD*
D14*
G04 #@! TO.C,MX24*
X163830000Y-44450000D03*
D15*
X158750000Y-44450000D03*
D14*
X153670000Y-44450000D03*
D16*
X154940000Y-41910000D03*
D17*
X151390000Y-41910000D03*
X164840000Y-39370000D03*
D16*
X161290000Y-39370000D03*
G04 #@! TD*
D18*
G04 #@! TO.C,D61*
X238125000Y-84993750D03*
X238125000Y-81693750D03*
G04 #@! TD*
G04 #@! TO.C,D35*
X66675000Y-65943750D03*
X66675000Y-62643750D03*
G04 #@! TD*
D33*
G04 #@! TO.C,C13*
X306302129Y-71434792D03*
X306980951Y-70755970D03*
G04 #@! TD*
D18*
G04 #@! TO.C,D32*
X319087500Y-51656250D03*
X319087500Y-48356250D03*
G04 #@! TD*
D14*
G04 #@! TO.C,MX27*
X220980000Y-44450000D03*
D15*
X215900000Y-44450000D03*
D14*
X210820000Y-44450000D03*
D16*
X212090000Y-41910000D03*
D17*
X208540000Y-41910000D03*
X221990000Y-39370000D03*
D16*
X218440000Y-39370000D03*
G04 #@! TD*
D14*
G04 #@! TO.C,MX26*
X201930000Y-44450000D03*
D15*
X196850000Y-44450000D03*
D14*
X191770000Y-44450000D03*
D16*
X193040000Y-41910000D03*
D17*
X189490000Y-41910000D03*
X202940000Y-39370000D03*
D16*
X199390000Y-39370000D03*
G04 #@! TD*
D18*
G04 #@! TO.C,D48*
X28575000Y-84993750D03*
X28575000Y-81693750D03*
G04 #@! TD*
G04 #@! TO.C,D26*
X200025000Y-46893750D03*
X200025000Y-43593750D03*
G04 #@! TD*
D14*
G04 #@! TO.C,MX13*
X259080000Y-25400000D03*
D15*
X254000000Y-25400000D03*
D14*
X248920000Y-25400000D03*
D16*
X250190000Y-22860000D03*
D17*
X246640000Y-22860000D03*
X260090000Y-20320000D03*
D16*
X256540000Y-20320000D03*
G04 #@! TD*
D14*
G04 #@! TO.C,MX53*
X106045000Y-82550000D03*
D15*
X111125000Y-82550000D03*
D14*
X116205000Y-82550000D03*
D16*
X114935000Y-85090000D03*
D34*
X118485000Y-85090000D03*
X105035000Y-87630000D03*
D16*
X108585000Y-87630000D03*
G04 #@! TD*
D35*
G04 #@! TO.C,C5*
X302176700Y-54830812D03*
X302176700Y-56380812D03*
G04 #@! TD*
D18*
G04 #@! TO.C,D39*
X142875000Y-65943750D03*
X142875000Y-62643750D03*
G04 #@! TD*
D36*
G04 #@! TO.C,Y1*
X307804215Y-74855487D03*
X309359850Y-73299852D03*
X308157769Y-72097771D03*
X306602134Y-73653406D03*
G04 #@! TD*
D14*
G04 #@! TO.C,MX62*
X259080000Y-82550000D03*
D15*
X254000000Y-82550000D03*
D14*
X248920000Y-82550000D03*
D16*
X250190000Y-80010000D03*
D17*
X246640000Y-80010000D03*
X260090000Y-77470000D03*
D16*
X256540000Y-77470000D03*
G04 #@! TD*
D13*
G04 #@! TO.C,C16*
X308427476Y-56681124D03*
X308427476Y-55721124D03*
G04 #@! TD*
D14*
G04 #@! TO.C,MX4*
X87630000Y-25400000D03*
D15*
X82550000Y-25400000D03*
D14*
X77470000Y-25400000D03*
D16*
X78740000Y-22860000D03*
D17*
X75190000Y-22860000D03*
X88640000Y-20320000D03*
D16*
X85090000Y-20320000D03*
G04 #@! TD*
D14*
G04 #@! TO.C,MX43*
X220980000Y-63500000D03*
D15*
X215900000Y-63500000D03*
D14*
X210820000Y-63500000D03*
D16*
X212090000Y-60960000D03*
D17*
X208540000Y-60960000D03*
X221990000Y-58420000D03*
D16*
X218440000Y-58420000D03*
G04 #@! TD*
D14*
G04 #@! TO.C,MX52*
X106680000Y-82550000D03*
D15*
X101600000Y-82550000D03*
D14*
X96520000Y-82550000D03*
D16*
X97790000Y-80010000D03*
D17*
X94240000Y-80010000D03*
X107690000Y-77470000D03*
D16*
X104140000Y-77470000D03*
G04 #@! TD*
D14*
G04 #@! TO.C,MX41*
X182880000Y-63500000D03*
D15*
X177800000Y-63500000D03*
D14*
X172720000Y-63500000D03*
D16*
X173990000Y-60960000D03*
D17*
X170440000Y-60960000D03*
X183890000Y-58420000D03*
D16*
X180340000Y-58420000D03*
G04 #@! TD*
D18*
G04 #@! TO.C,D9*
X180975000Y-27843750D03*
X180975000Y-24543750D03*
G04 #@! TD*
D14*
G04 #@! TO.C,MX15*
X297180000Y-25400000D03*
D15*
X292100000Y-25400000D03*
D14*
X287020000Y-25400000D03*
D16*
X288290000Y-22860000D03*
D17*
X284740000Y-22860000D03*
X298190000Y-20320000D03*
D16*
X294640000Y-20320000D03*
G04 #@! TD*
D13*
G04 #@! TO.C,C11*
X322119652Y-57060576D03*
X322119652Y-58020576D03*
G04 #@! TD*
D14*
G04 #@! TO.C,MX57*
X182880000Y-82550000D03*
D15*
X177800000Y-82550000D03*
D14*
X172720000Y-82550000D03*
D16*
X173990000Y-80010000D03*
D17*
X170440000Y-80010000D03*
X183890000Y-77470000D03*
D16*
X180340000Y-77470000D03*
G04 #@! TD*
D18*
G04 #@! TO.C,D58*
X200025000Y-84993750D03*
X200025000Y-81693750D03*
G04 #@! TD*
D14*
G04 #@! TO.C,MX38*
X125730000Y-63500000D03*
D15*
X120650000Y-63500000D03*
D14*
X115570000Y-63500000D03*
D16*
X116840000Y-60960000D03*
D17*
X113290000Y-60960000D03*
X126740000Y-58420000D03*
D16*
X123190000Y-58420000D03*
G04 #@! TD*
D18*
G04 #@! TO.C,D37*
X104775000Y-65943750D03*
X104775000Y-62643750D03*
G04 #@! TD*
G04 #@! TO.C,D40*
X161925000Y-65943750D03*
X161925000Y-62643750D03*
G04 #@! TD*
D14*
G04 #@! TO.C,MX14*
X278130000Y-25400000D03*
D15*
X273050000Y-25400000D03*
D14*
X267970000Y-25400000D03*
D16*
X269240000Y-22860000D03*
D17*
X265690000Y-22860000D03*
X279140000Y-20320000D03*
D16*
X275590000Y-20320000D03*
G04 #@! TD*
D21*
G04 #@! TO.C,R3*
X320865513Y-40574184D03*
X321885511Y-40574184D03*
G04 #@! TD*
D14*
G04 #@! TO.C,MX11*
X220980000Y-25400000D03*
D15*
X215900000Y-25400000D03*
D14*
X210820000Y-25400000D03*
D16*
X212090000Y-22860000D03*
D17*
X208540000Y-22860000D03*
X221990000Y-20320000D03*
D16*
X218440000Y-20320000D03*
G04 #@! TD*
D37*
G04 #@! TO.C,U4*
X322089888Y-59596040D03*
X320819888Y-59596040D03*
X319549888Y-59596040D03*
X318279888Y-59596040D03*
X318279888Y-66796040D03*
X319549888Y-66796040D03*
X320819888Y-66796040D03*
X322089888Y-66796040D03*
G04 #@! TD*
D14*
G04 #@! TO.C,MX48*
X30480000Y-82550000D03*
D15*
X25400000Y-82550000D03*
D14*
X20320000Y-82550000D03*
D16*
X21590000Y-80010000D03*
D17*
X18040000Y-80010000D03*
X31490000Y-77470000D03*
D16*
X27940000Y-77470000D03*
G04 #@! TD*
D18*
G04 #@! TO.C,D42*
X200025000Y-65943750D03*
X200025000Y-62643750D03*
G04 #@! TD*
G04 #@! TO.C,D14*
X276225000Y-27843750D03*
X276225000Y-24543750D03*
G04 #@! TD*
D14*
G04 #@! TO.C,MX21*
X106680000Y-44450000D03*
D15*
X101600000Y-44450000D03*
D14*
X96520000Y-44450000D03*
D16*
X97790000Y-41910000D03*
D17*
X94240000Y-41910000D03*
X107690000Y-39370000D03*
D16*
X104140000Y-39370000D03*
G04 #@! TD*
D14*
G04 #@! TO.C,MX25*
X182880000Y-44450000D03*
D15*
X177800000Y-44450000D03*
D14*
X172720000Y-44450000D03*
D16*
X173990000Y-41910000D03*
D17*
X170440000Y-41910000D03*
X183890000Y-39370000D03*
D16*
X180340000Y-39370000D03*
G04 #@! TD*
D18*
G04 #@! TO.C,D28*
X238125000Y-46893750D03*
X238125000Y-43593750D03*
G04 #@! TD*
G04 #@! TO.C,D10*
X200025000Y-27843750D03*
X200025000Y-24543750D03*
G04 #@! TD*
D14*
G04 #@! TO.C,MX32*
X320992500Y-49212500D03*
D15*
X315912500Y-49212500D03*
D14*
X310832500Y-49212500D03*
D16*
X312102500Y-46672500D03*
D17*
X308552500Y-46672500D03*
X322002500Y-44132500D03*
D16*
X318452500Y-44132500D03*
G04 #@! TD*
D38*
G04 #@! TO.C,C12*
X306385639Y-75601976D03*
X305706817Y-74923154D03*
G04 #@! TD*
D14*
G04 #@! TO.C,MX22*
X125730000Y-44450000D03*
D15*
X120650000Y-44450000D03*
D14*
X115570000Y-44450000D03*
D16*
X116840000Y-41910000D03*
D17*
X113290000Y-41910000D03*
X126740000Y-39370000D03*
D16*
X123190000Y-39370000D03*
G04 #@! TD*
D18*
G04 #@! TO.C,D54*
X123825000Y-84993750D03*
X123825000Y-81693750D03*
G04 #@! TD*
G04 #@! TO.C,D16*
X319087500Y-27843750D03*
X319087500Y-24543750D03*
G04 #@! TD*
D14*
G04 #@! TO.C,MX46*
X278130000Y-63500000D03*
D15*
X273050000Y-63500000D03*
D14*
X267970000Y-63500000D03*
D16*
X269240000Y-60960000D03*
D17*
X265690000Y-60960000D03*
X279140000Y-58420000D03*
D16*
X275590000Y-58420000D03*
G04 #@! TD*
D18*
G04 #@! TO.C,D36*
X85725000Y-65943750D03*
X85725000Y-62643750D03*
G04 #@! TD*
G04 #@! TO.C,D33*
X28575000Y-65943750D03*
X28575000Y-62643750D03*
G04 #@! TD*
D14*
G04 #@! TO.C,MX39*
X144780000Y-63500000D03*
D15*
X139700000Y-63500000D03*
D14*
X134620000Y-63500000D03*
D16*
X135890000Y-60960000D03*
D17*
X132340000Y-60960000D03*
X145790000Y-58420000D03*
D16*
X142240000Y-58420000D03*
G04 #@! TD*
D18*
G04 #@! TO.C,D63*
X276225000Y-84993750D03*
X276225000Y-81693750D03*
G04 #@! TD*
D26*
G04 #@! TO.C,BOOT1*
X319018876Y-35697624D03*
X312718876Y-35697624D03*
X319018876Y-39497624D03*
X312718876Y-39497624D03*
G04 #@! TD*
D33*
G04 #@! TO.C,C4*
X305260333Y-70530367D03*
X305939155Y-69851545D03*
G04 #@! TD*
D14*
G04 #@! TO.C,MX29*
X259080000Y-44450000D03*
D15*
X254000000Y-44450000D03*
D14*
X248920000Y-44450000D03*
D16*
X250190000Y-41910000D03*
D17*
X246640000Y-41910000D03*
X260090000Y-39370000D03*
D16*
X256540000Y-39370000D03*
G04 #@! TD*
D14*
G04 #@! TO.C,MX61*
X240030000Y-82550000D03*
D15*
X234950000Y-82550000D03*
D14*
X229870000Y-82550000D03*
D16*
X231140000Y-80010000D03*
D17*
X227590000Y-80010000D03*
X241040000Y-77470000D03*
D16*
X237490000Y-77470000D03*
G04 #@! TD*
D14*
G04 #@! TO.C,MX33*
X30480000Y-63500000D03*
D15*
X25400000Y-63500000D03*
D14*
X20320000Y-63500000D03*
D16*
X21590000Y-60960000D03*
D17*
X18040000Y-60960000D03*
X31490000Y-58420000D03*
D16*
X27940000Y-58420000D03*
G04 #@! TD*
D18*
G04 #@! TO.C,D2*
X47625000Y-27843750D03*
X47625000Y-24543750D03*
G04 #@! TD*
D14*
G04 #@! TO.C,MX34*
X49530000Y-63500000D03*
D15*
X44450000Y-63500000D03*
D14*
X39370000Y-63500000D03*
D16*
X40640000Y-60960000D03*
D17*
X37090000Y-60960000D03*
X50540000Y-58420000D03*
D16*
X46990000Y-58420000D03*
G04 #@! TD*
D13*
G04 #@! TO.C,C14*
X303962636Y-56681124D03*
X303962636Y-55721124D03*
G04 #@! TD*
D15*
G04 #@! TO.C,S1*
X99218750Y-74295000D03*
X123031250Y-74295000D03*
G04 #@! TD*
D18*
G04 #@! TO.C,D46*
X276225000Y-65943750D03*
X276225000Y-62643750D03*
G04 #@! TD*
G04 #@! TO.C,D25*
X180975000Y-46893750D03*
X180975000Y-43593750D03*
G04 #@! TD*
G04 #@! TO.C,D47*
X295275000Y-65943750D03*
X295275000Y-62643750D03*
G04 #@! TD*
D39*
G04 #@! TO.C,J3*
X296584432Y-89892112D03*
D40*
X299124432Y-89892112D03*
X301664431Y-89892112D03*
X304204432Y-89892112D03*
X306744432Y-89892112D03*
G04 #@! TD*
D14*
G04 #@! TO.C,MX45*
X259080000Y-63500000D03*
D15*
X254000000Y-63500000D03*
D14*
X248920000Y-63500000D03*
D16*
X250190000Y-60960000D03*
D17*
X246640000Y-60960000D03*
X260090000Y-58420000D03*
D16*
X256540000Y-58420000D03*
G04 #@! TD*
D18*
G04 #@! TO.C,D57*
X180975000Y-84993750D03*
X180975000Y-81693750D03*
G04 #@! TD*
D22*
G04 #@! TO.C,R5*
X299144280Y-71954385D03*
X299144280Y-72974383D03*
G04 #@! TD*
D14*
G04 #@! TO.C,MX64*
X297180000Y-82550000D03*
D15*
X292100000Y-82550000D03*
D14*
X287020000Y-82550000D03*
D16*
X288290000Y-80010000D03*
D17*
X284740000Y-80010000D03*
X298190000Y-77470000D03*
D16*
X294640000Y-77470000D03*
G04 #@! TD*
D14*
G04 #@! TO.C,MX18*
X49530000Y-44450000D03*
D15*
X44450000Y-44450000D03*
D14*
X39370000Y-44450000D03*
D16*
X40640000Y-41910000D03*
D17*
X37090000Y-41910000D03*
X50540000Y-39370000D03*
D16*
X46990000Y-39370000D03*
G04 #@! TD*
D18*
G04 #@! TO.C,D8*
X161925000Y-27843750D03*
X161925000Y-24543750D03*
G04 #@! TD*
D38*
G04 #@! TO.C,C9*
X301176659Y-63088967D03*
X300497837Y-62410145D03*
G04 #@! TD*
D13*
G04 #@! TO.C,C15*
X307385680Y-56681124D03*
X307385680Y-55721124D03*
G04 #@! TD*
D18*
G04 #@! TO.C,D24*
X161925000Y-46893750D03*
X161925000Y-43593750D03*
G04 #@! TD*
D14*
G04 #@! TO.C,MX55*
X144780000Y-82550000D03*
D15*
X139700000Y-82550000D03*
D14*
X134620000Y-82550000D03*
D16*
X135890000Y-80010000D03*
D17*
X132340000Y-80010000D03*
X145790000Y-77470000D03*
D16*
X142240000Y-77470000D03*
G04 #@! TD*
D14*
G04 #@! TO.C,MX60*
X220345000Y-82550000D03*
D15*
X225425000Y-82550000D03*
D14*
X230505000Y-82550000D03*
D16*
X229235000Y-85090000D03*
D34*
X232785000Y-85090000D03*
X219335000Y-87630000D03*
D16*
X222885000Y-87630000D03*
G04 #@! TD*
D41*
G04 #@! TO.C,C6*
X303252012Y-58582372D03*
X302292012Y-58582372D03*
G04 #@! TD*
D18*
G04 #@! TO.C,D34*
X47625000Y-65943750D03*
X47625000Y-62643750D03*
G04 #@! TD*
D14*
G04 #@! TO.C,MX2*
X49530000Y-25400000D03*
D15*
X44450000Y-25400000D03*
D14*
X39370000Y-25400000D03*
D16*
X40640000Y-22860000D03*
D17*
X37090000Y-22860000D03*
X50540000Y-20320000D03*
D16*
X46990000Y-20320000D03*
G04 #@! TD*
D14*
G04 #@! TO.C,MX58*
X201930000Y-82550000D03*
D15*
X196850000Y-82550000D03*
D14*
X191770000Y-82550000D03*
D16*
X193040000Y-80010000D03*
D17*
X189490000Y-80010000D03*
X202940000Y-77470000D03*
D16*
X199390000Y-77470000D03*
G04 #@! TD*
D14*
G04 #@! TO.C,MX6*
X125730000Y-25400000D03*
D15*
X120650000Y-25400000D03*
D14*
X115570000Y-25400000D03*
D16*
X116840000Y-22860000D03*
D17*
X113290000Y-22860000D03*
X126740000Y-20320000D03*
D16*
X123190000Y-20320000D03*
G04 #@! TD*
D18*
G04 #@! TO.C,D20*
X85725000Y-46893750D03*
X85725000Y-43593750D03*
G04 #@! TD*
D14*
G04 #@! TO.C,MX8*
X163830000Y-25400000D03*
D15*
X158750000Y-25400000D03*
D14*
X153670000Y-25400000D03*
D16*
X154940000Y-22860000D03*
D17*
X151390000Y-22860000D03*
X164840000Y-20320000D03*
D16*
X161290000Y-20320000D03*
G04 #@! TD*
D42*
G04 #@! TO.C,R9*
X305960368Y-72371865D03*
X305239120Y-73093113D03*
G04 #@! TD*
D14*
G04 #@! TO.C,MX7*
X144780000Y-25400000D03*
D15*
X139700000Y-25400000D03*
D14*
X134620000Y-25400000D03*
D16*
X135890000Y-22860000D03*
D17*
X132340000Y-22860000D03*
X145790000Y-20320000D03*
D16*
X142240000Y-20320000D03*
G04 #@! TD*
D14*
G04 #@! TO.C,MX3*
X68580000Y-25400000D03*
D15*
X63500000Y-25400000D03*
D14*
X58420000Y-25400000D03*
D16*
X59690000Y-22860000D03*
D17*
X56140000Y-22860000D03*
X69590000Y-20320000D03*
D16*
X66040000Y-20320000D03*
G04 #@! TD*
D18*
G04 #@! TO.C,D5*
X104775000Y-27843750D03*
X104775000Y-24543750D03*
G04 #@! TD*
M02*
