%TF.GenerationSoftware,KiCad,Pcbnew,8.0.2-1.fc39*%
%TF.CreationDate,2024-05-29T21:02:28-04:00*%
%TF.ProjectId,KeychronQ9OrthoIntegrated,4b657963-6872-46f6-9e51-394f7274686f,rev?*%
%TF.SameCoordinates,Original*%
%TF.FileFunction,Drillmap*%
%TF.FilePolarity,Positive*%
%FSLAX45Y45*%
G04 Gerber Fmt 4.5, Leading zero omitted, Abs format (unit mm)*
G04 Created by KiCad (PCBNEW 8.0.2-1.fc39) date 2024-05-29 21:02:28*
%MOMM*%
%LPD*%
G01*
G04 APERTURE LIST*
%ADD10C,0.050000*%
%ADD11C,0.200000*%
%ADD12C,0.175000*%
%ADD13C,0.398780*%
G04 APERTURE END LIST*
D10*
X1746250Y-9207500D02*
G75*
G02*
X1587500Y-9048750I0J158750D01*
G01*
X16629062Y-9207500D02*
G75*
G02*
X17502188Y-9207500I436563J-357187D01*
G01*
X1944687Y-9207500D02*
G75*
G02*
X2817812Y-9207500I436563J-357187D01*
G01*
X32186562Y-1587500D02*
G75*
G02*
X31313437Y-1587500I-436563J357187D01*
G01*
X32186562Y-9207500D02*
X32385000Y-9207500D01*
X17502188Y-9207500D02*
X31313437Y-9207500D01*
X32543750Y-9048750D02*
G75*
G02*
X32385000Y-9207500I-158750J0D01*
G01*
X7302500Y-1587500D02*
X7024687Y-1865312D01*
X1587500Y-1944687D02*
G75*
G02*
X1666875Y-1865310I79380J-3D01*
G01*
X1587500Y-1944687D02*
X1587500Y-9048750D01*
X17502188Y-1587500D02*
G75*
G02*
X16629062Y-1587500I-436563J357187D01*
G01*
X31313437Y-9207500D02*
G75*
G02*
X32186562Y-9207500I436563J-357187D01*
G01*
X1746250Y-9207500D02*
X1944687Y-9207500D01*
X7024687Y-1865312D02*
X1666875Y-1865312D01*
X32186562Y-1587500D02*
X32385000Y-1587500D01*
X17502188Y-1587500D02*
X31313437Y-1587500D01*
X16629062Y-1587500D02*
X7302500Y-1587500D01*
X32385000Y-1587500D02*
G75*
G02*
X32543750Y-1746250I0J-158750D01*
G01*
X16629062Y-9207500D02*
X2817812Y-9207500D01*
X32543750Y-1746250D02*
X32543750Y-9048750D01*
D11*
D12*
X1944500Y-2452500D02*
X2119500Y-2627500D01*
X2119500Y-2452500D02*
X1944500Y-2627500D01*
X1944500Y-4357500D02*
X2119500Y-4532500D01*
X2119500Y-4357500D02*
X1944500Y-4532500D01*
X1944500Y-6262500D02*
X2119500Y-6437500D01*
X2119500Y-6262500D02*
X1944500Y-6437500D01*
X1944500Y-8167500D02*
X2119500Y-8342500D01*
X2119500Y-8167500D02*
X1944500Y-8342500D01*
X2960500Y-2452500D02*
X3135500Y-2627500D01*
X3135500Y-2452500D02*
X2960500Y-2627500D01*
X2960500Y-4357500D02*
X3135500Y-4532500D01*
X3135500Y-4357500D02*
X2960500Y-4532500D01*
X2960500Y-6262500D02*
X3135500Y-6437500D01*
X3135500Y-6262500D02*
X2960500Y-6437500D01*
X2960500Y-8167500D02*
X3135500Y-8342500D01*
X3135500Y-8167500D02*
X2960500Y-8342500D01*
X3849500Y-2452500D02*
X4024500Y-2627500D01*
X4024500Y-2452500D02*
X3849500Y-2627500D01*
X3849500Y-4357500D02*
X4024500Y-4532500D01*
X4024500Y-4357500D02*
X3849500Y-4532500D01*
X3849500Y-6262500D02*
X4024500Y-6437500D01*
X4024500Y-6262500D02*
X3849500Y-6437500D01*
X3849500Y-8167500D02*
X4024500Y-8342500D01*
X4024500Y-8167500D02*
X3849500Y-8342500D01*
X4865500Y-2452500D02*
X5040500Y-2627500D01*
X5040500Y-2452500D02*
X4865500Y-2627500D01*
X4865500Y-4357500D02*
X5040500Y-4532500D01*
X5040500Y-4357500D02*
X4865500Y-4532500D01*
X4865500Y-6262500D02*
X5040500Y-6437500D01*
X5040500Y-6262500D02*
X4865500Y-6437500D01*
X4865500Y-8167500D02*
X5040500Y-8342500D01*
X5040500Y-8167500D02*
X4865500Y-8342500D01*
X5754500Y-2452500D02*
X5929500Y-2627500D01*
X5929500Y-2452500D02*
X5754500Y-2627500D01*
X5754500Y-4357500D02*
X5929500Y-4532500D01*
X5929500Y-4357500D02*
X5754500Y-4532500D01*
X5754500Y-6262500D02*
X5929500Y-6437500D01*
X5929500Y-6262500D02*
X5754500Y-6437500D01*
X5754500Y-8167500D02*
X5929500Y-8342500D01*
X5929500Y-8167500D02*
X5754500Y-8342500D01*
X6770500Y-2452500D02*
X6945500Y-2627500D01*
X6945500Y-2452500D02*
X6770500Y-2627500D01*
X6770500Y-4357500D02*
X6945500Y-4532500D01*
X6945500Y-4357500D02*
X6770500Y-4532500D01*
X6770500Y-6262500D02*
X6945500Y-6437500D01*
X6945500Y-6262500D02*
X6770500Y-6437500D01*
X6770500Y-8167500D02*
X6945500Y-8342500D01*
X6945500Y-8167500D02*
X6770500Y-8342500D01*
X7659500Y-2452500D02*
X7834500Y-2627500D01*
X7834500Y-2452500D02*
X7659500Y-2627500D01*
X7659500Y-4357500D02*
X7834500Y-4532500D01*
X7834500Y-4357500D02*
X7659500Y-4532500D01*
X7659500Y-6262500D02*
X7834500Y-6437500D01*
X7834500Y-6262500D02*
X7659500Y-6437500D01*
X7659500Y-8167500D02*
X7834500Y-8342500D01*
X7834500Y-8167500D02*
X7659500Y-8342500D01*
X8675500Y-2452500D02*
X8850500Y-2627500D01*
X8850500Y-2452500D02*
X8675500Y-2627500D01*
X8675500Y-4357500D02*
X8850500Y-4532500D01*
X8850500Y-4357500D02*
X8675500Y-4532500D01*
X8675500Y-6262500D02*
X8850500Y-6437500D01*
X8850500Y-6262500D02*
X8675500Y-6437500D01*
X8675500Y-8167500D02*
X8850500Y-8342500D01*
X8850500Y-8167500D02*
X8675500Y-8342500D01*
X9564500Y-2452500D02*
X9739500Y-2627500D01*
X9739500Y-2452500D02*
X9564500Y-2627500D01*
X9564500Y-4357500D02*
X9739500Y-4532500D01*
X9739500Y-4357500D02*
X9564500Y-4532500D01*
X9564500Y-6262500D02*
X9739500Y-6437500D01*
X9739500Y-6262500D02*
X9564500Y-6437500D01*
X9564500Y-8167500D02*
X9739500Y-8342500D01*
X9739500Y-8167500D02*
X9564500Y-8342500D01*
X10517000Y-8167500D02*
X10692000Y-8342500D01*
X10692000Y-8167500D02*
X10517000Y-8342500D01*
X10580500Y-2452500D02*
X10755500Y-2627500D01*
X10755500Y-2452500D02*
X10580500Y-2627500D01*
X10580500Y-4357500D02*
X10755500Y-4532500D01*
X10755500Y-4357500D02*
X10580500Y-4532500D01*
X10580500Y-6262500D02*
X10755500Y-6437500D01*
X10755500Y-6262500D02*
X10580500Y-6437500D01*
X10580500Y-8167500D02*
X10755500Y-8342500D01*
X10755500Y-8167500D02*
X10580500Y-8342500D01*
X11469500Y-2452500D02*
X11644500Y-2627500D01*
X11644500Y-2452500D02*
X11469500Y-2627500D01*
X11469500Y-4357500D02*
X11644500Y-4532500D01*
X11644500Y-4357500D02*
X11469500Y-4532500D01*
X11469500Y-6262500D02*
X11644500Y-6437500D01*
X11644500Y-6262500D02*
X11469500Y-6437500D01*
X11469500Y-8167500D02*
X11644500Y-8342500D01*
X11644500Y-8167500D02*
X11469500Y-8342500D01*
X11533000Y-8167500D02*
X11708000Y-8342500D01*
X11708000Y-8167500D02*
X11533000Y-8342500D01*
X12485500Y-2452500D02*
X12660500Y-2627500D01*
X12660500Y-2452500D02*
X12485500Y-2627500D01*
X12485500Y-4357500D02*
X12660500Y-4532500D01*
X12660500Y-4357500D02*
X12485500Y-4532500D01*
X12485500Y-6262500D02*
X12660500Y-6437500D01*
X12660500Y-6262500D02*
X12485500Y-6437500D01*
X12485500Y-8167500D02*
X12660500Y-8342500D01*
X12660500Y-8167500D02*
X12485500Y-8342500D01*
X13374500Y-2452500D02*
X13549500Y-2627500D01*
X13549500Y-2452500D02*
X13374500Y-2627500D01*
X13374500Y-4357500D02*
X13549500Y-4532500D01*
X13549500Y-4357500D02*
X13374500Y-4532500D01*
X13374500Y-6262500D02*
X13549500Y-6437500D01*
X13549500Y-6262500D02*
X13374500Y-6437500D01*
X13374500Y-8167500D02*
X13549500Y-8342500D01*
X13549500Y-8167500D02*
X13374500Y-8342500D01*
X14390500Y-2452500D02*
X14565500Y-2627500D01*
X14565500Y-2452500D02*
X14390500Y-2627500D01*
X14390500Y-4357500D02*
X14565500Y-4532500D01*
X14565500Y-4357500D02*
X14390500Y-4532500D01*
X14390500Y-6262500D02*
X14565500Y-6437500D01*
X14565500Y-6262500D02*
X14390500Y-6437500D01*
X14390500Y-8167500D02*
X14565500Y-8342500D01*
X14565500Y-8167500D02*
X14390500Y-8342500D01*
X15279500Y-2452500D02*
X15454500Y-2627500D01*
X15454500Y-2452500D02*
X15279500Y-2627500D01*
X15279500Y-4357500D02*
X15454500Y-4532500D01*
X15454500Y-4357500D02*
X15279500Y-4532500D01*
X15279500Y-6262500D02*
X15454500Y-6437500D01*
X15454500Y-6262500D02*
X15279500Y-6437500D01*
X15279500Y-8167500D02*
X15454500Y-8342500D01*
X15454500Y-8167500D02*
X15279500Y-8342500D01*
X16295500Y-2452500D02*
X16470500Y-2627500D01*
X16470500Y-2452500D02*
X16295500Y-2627500D01*
X16295500Y-4357500D02*
X16470500Y-4532500D01*
X16470500Y-4357500D02*
X16295500Y-4532500D01*
X16295500Y-6262500D02*
X16470500Y-6437500D01*
X16470500Y-6262500D02*
X16295500Y-6437500D01*
X16295500Y-8167500D02*
X16470500Y-8342500D01*
X16470500Y-8167500D02*
X16295500Y-8342500D01*
X17184500Y-2452500D02*
X17359500Y-2627500D01*
X17359500Y-2452500D02*
X17184500Y-2627500D01*
X17184500Y-4357500D02*
X17359500Y-4532500D01*
X17359500Y-4357500D02*
X17184500Y-4532500D01*
X17184500Y-6262500D02*
X17359500Y-6437500D01*
X17359500Y-6262500D02*
X17184500Y-6437500D01*
X17184500Y-8167500D02*
X17359500Y-8342500D01*
X17359500Y-8167500D02*
X17184500Y-8342500D01*
X18200500Y-2452500D02*
X18375500Y-2627500D01*
X18375500Y-2452500D02*
X18200500Y-2627500D01*
X18200500Y-4357500D02*
X18375500Y-4532500D01*
X18375500Y-4357500D02*
X18200500Y-4532500D01*
X18200500Y-6262500D02*
X18375500Y-6437500D01*
X18375500Y-6262500D02*
X18200500Y-6437500D01*
X18200500Y-8167500D02*
X18375500Y-8342500D01*
X18375500Y-8167500D02*
X18200500Y-8342500D01*
X19089500Y-2452500D02*
X19264500Y-2627500D01*
X19264500Y-2452500D02*
X19089500Y-2627500D01*
X19089500Y-4357500D02*
X19264500Y-4532500D01*
X19264500Y-4357500D02*
X19089500Y-4532500D01*
X19089500Y-6262500D02*
X19264500Y-6437500D01*
X19264500Y-6262500D02*
X19089500Y-6437500D01*
X19089500Y-8167500D02*
X19264500Y-8342500D01*
X19264500Y-8167500D02*
X19089500Y-8342500D01*
X20105500Y-2452500D02*
X20280500Y-2627500D01*
X20280500Y-2452500D02*
X20105500Y-2627500D01*
X20105500Y-4357500D02*
X20280500Y-4532500D01*
X20280500Y-4357500D02*
X20105500Y-4532500D01*
X20105500Y-6262500D02*
X20280500Y-6437500D01*
X20280500Y-6262500D02*
X20105500Y-6437500D01*
X20105500Y-8167500D02*
X20280500Y-8342500D01*
X20280500Y-8167500D02*
X20105500Y-8342500D01*
X20994500Y-2452500D02*
X21169500Y-2627500D01*
X21169500Y-2452500D02*
X20994500Y-2627500D01*
X20994500Y-4357500D02*
X21169500Y-4532500D01*
X21169500Y-4357500D02*
X20994500Y-4532500D01*
X20994500Y-6262500D02*
X21169500Y-6437500D01*
X21169500Y-6262500D02*
X20994500Y-6437500D01*
X20994500Y-8167500D02*
X21169500Y-8342500D01*
X21169500Y-8167500D02*
X20994500Y-8342500D01*
X21947000Y-8167500D02*
X22122000Y-8342500D01*
X22122000Y-8167500D02*
X21947000Y-8342500D01*
X22010500Y-2452500D02*
X22185500Y-2627500D01*
X22185500Y-2452500D02*
X22010500Y-2627500D01*
X22010500Y-4357500D02*
X22185500Y-4532500D01*
X22185500Y-4357500D02*
X22010500Y-4532500D01*
X22010500Y-6262500D02*
X22185500Y-6437500D01*
X22185500Y-6262500D02*
X22010500Y-6437500D01*
X22010500Y-8167500D02*
X22185500Y-8342500D01*
X22185500Y-8167500D02*
X22010500Y-8342500D01*
X22899500Y-2452500D02*
X23074500Y-2627500D01*
X23074500Y-2452500D02*
X22899500Y-2627500D01*
X22899500Y-4357500D02*
X23074500Y-4532500D01*
X23074500Y-4357500D02*
X22899500Y-4532500D01*
X22899500Y-6262500D02*
X23074500Y-6437500D01*
X23074500Y-6262500D02*
X22899500Y-6437500D01*
X22899500Y-8167500D02*
X23074500Y-8342500D01*
X23074500Y-8167500D02*
X22899500Y-8342500D01*
X22963000Y-8167500D02*
X23138000Y-8342500D01*
X23138000Y-8167500D02*
X22963000Y-8342500D01*
X23915500Y-2452500D02*
X24090500Y-2627500D01*
X24090500Y-2452500D02*
X23915500Y-2627500D01*
X23915500Y-4357500D02*
X24090500Y-4532500D01*
X24090500Y-4357500D02*
X23915500Y-4532500D01*
X23915500Y-6262500D02*
X24090500Y-6437500D01*
X24090500Y-6262500D02*
X23915500Y-6437500D01*
X23915500Y-8167500D02*
X24090500Y-8342500D01*
X24090500Y-8167500D02*
X23915500Y-8342500D01*
X24804500Y-2452500D02*
X24979500Y-2627500D01*
X24979500Y-2452500D02*
X24804500Y-2627500D01*
X24804500Y-4357500D02*
X24979500Y-4532500D01*
X24979500Y-4357500D02*
X24804500Y-4532500D01*
X24804500Y-6262500D02*
X24979500Y-6437500D01*
X24979500Y-6262500D02*
X24804500Y-6437500D01*
X24804500Y-8167500D02*
X24979500Y-8342500D01*
X24979500Y-8167500D02*
X24804500Y-8342500D01*
X25820500Y-2452500D02*
X25995500Y-2627500D01*
X25995500Y-2452500D02*
X25820500Y-2627500D01*
X25820500Y-4357500D02*
X25995500Y-4532500D01*
X25995500Y-4357500D02*
X25820500Y-4532500D01*
X25820500Y-6262500D02*
X25995500Y-6437500D01*
X25995500Y-6262500D02*
X25820500Y-6437500D01*
X25820500Y-8167500D02*
X25995500Y-8342500D01*
X25995500Y-8167500D02*
X25820500Y-8342500D01*
X26709500Y-2452500D02*
X26884500Y-2627500D01*
X26884500Y-2452500D02*
X26709500Y-2627500D01*
X26709500Y-4357500D02*
X26884500Y-4532500D01*
X26884500Y-4357500D02*
X26709500Y-4532500D01*
X26709500Y-6262500D02*
X26884500Y-6437500D01*
X26884500Y-6262500D02*
X26709500Y-6437500D01*
X26709500Y-8167500D02*
X26884500Y-8342500D01*
X26884500Y-8167500D02*
X26709500Y-8342500D01*
X27725500Y-2452500D02*
X27900500Y-2627500D01*
X27900500Y-2452500D02*
X27725500Y-2627500D01*
X27725500Y-4357500D02*
X27900500Y-4532500D01*
X27900500Y-4357500D02*
X27725500Y-4532500D01*
X27725500Y-6262500D02*
X27900500Y-6437500D01*
X27900500Y-6262500D02*
X27725500Y-6437500D01*
X27725500Y-8167500D02*
X27900500Y-8342500D01*
X27900500Y-8167500D02*
X27725500Y-8342500D01*
X28614500Y-2452500D02*
X28789500Y-2627500D01*
X28789500Y-2452500D02*
X28614500Y-2627500D01*
X28614500Y-4357500D02*
X28789500Y-4532500D01*
X28789500Y-4357500D02*
X28614500Y-4532500D01*
X28614500Y-6262500D02*
X28789500Y-6437500D01*
X28789500Y-6262500D02*
X28614500Y-6437500D01*
X28614500Y-8167500D02*
X28789500Y-8342500D01*
X28789500Y-8167500D02*
X28614500Y-8342500D01*
X29630500Y-2452500D02*
X29805500Y-2627500D01*
X29805500Y-2452500D02*
X29630500Y-2627500D01*
X29630500Y-4357500D02*
X29805500Y-4532500D01*
X29805500Y-4357500D02*
X29630500Y-4532500D01*
X29630500Y-6262500D02*
X29805500Y-6437500D01*
X29805500Y-6262500D02*
X29630500Y-6437500D01*
X29630500Y-8167500D02*
X29805500Y-8342500D01*
X29805500Y-8167500D02*
X29630500Y-8342500D01*
X30519500Y-8167500D02*
X30694500Y-8342500D01*
X30694500Y-8167500D02*
X30519500Y-8342500D01*
X30995750Y-2452500D02*
X31170750Y-2627500D01*
X31170750Y-2452500D02*
X30995750Y-2627500D01*
X30995750Y-4833750D02*
X31170750Y-5008750D01*
X31170750Y-4833750D02*
X30995750Y-5008750D01*
X31535500Y-8167500D02*
X31710500Y-8342500D01*
X31710500Y-8167500D02*
X31535500Y-8342500D01*
X32011750Y-2452500D02*
X32186750Y-2627500D01*
X32186750Y-2452500D02*
X32011750Y-2627500D01*
X32011750Y-4833750D02*
X32186750Y-5008750D01*
X32186750Y-4833750D02*
X32011750Y-5008750D01*
D13*
X2739390Y-2540000D02*
G75*
G02*
X2340610Y-2540000I-199390J0D01*
G01*
X2340610Y-2540000D02*
G75*
G02*
X2739390Y-2540000I199390J0D01*
G01*
X2739390Y-4445000D02*
G75*
G02*
X2340610Y-4445000I-199390J0D01*
G01*
X2340610Y-4445000D02*
G75*
G02*
X2739390Y-4445000I199390J0D01*
G01*
X2739390Y-6350000D02*
G75*
G02*
X2340610Y-6350000I-199390J0D01*
G01*
X2340610Y-6350000D02*
G75*
G02*
X2739390Y-6350000I199390J0D01*
G01*
X2739390Y-8255000D02*
G75*
G02*
X2340610Y-8255000I-199390J0D01*
G01*
X2340610Y-8255000D02*
G75*
G02*
X2739390Y-8255000I199390J0D01*
G01*
X4644390Y-2540000D02*
G75*
G02*
X4245610Y-2540000I-199390J0D01*
G01*
X4245610Y-2540000D02*
G75*
G02*
X4644390Y-2540000I199390J0D01*
G01*
X4644390Y-4445000D02*
G75*
G02*
X4245610Y-4445000I-199390J0D01*
G01*
X4245610Y-4445000D02*
G75*
G02*
X4644390Y-4445000I199390J0D01*
G01*
X4644390Y-6350000D02*
G75*
G02*
X4245610Y-6350000I-199390J0D01*
G01*
X4245610Y-6350000D02*
G75*
G02*
X4644390Y-6350000I199390J0D01*
G01*
X4644390Y-8255000D02*
G75*
G02*
X4245610Y-8255000I-199390J0D01*
G01*
X4245610Y-8255000D02*
G75*
G02*
X4644390Y-8255000I199390J0D01*
G01*
X6549390Y-2540000D02*
G75*
G02*
X6150610Y-2540000I-199390J0D01*
G01*
X6150610Y-2540000D02*
G75*
G02*
X6549390Y-2540000I199390J0D01*
G01*
X6549390Y-4445000D02*
G75*
G02*
X6150610Y-4445000I-199390J0D01*
G01*
X6150610Y-4445000D02*
G75*
G02*
X6549390Y-4445000I199390J0D01*
G01*
X6549390Y-6350000D02*
G75*
G02*
X6150610Y-6350000I-199390J0D01*
G01*
X6150610Y-6350000D02*
G75*
G02*
X6549390Y-6350000I199390J0D01*
G01*
X6549390Y-8255000D02*
G75*
G02*
X6150610Y-8255000I-199390J0D01*
G01*
X6150610Y-8255000D02*
G75*
G02*
X6549390Y-8255000I199390J0D01*
G01*
X8454390Y-2540000D02*
G75*
G02*
X8055610Y-2540000I-199390J0D01*
G01*
X8055610Y-2540000D02*
G75*
G02*
X8454390Y-2540000I199390J0D01*
G01*
X8454390Y-4445000D02*
G75*
G02*
X8055610Y-4445000I-199390J0D01*
G01*
X8055610Y-4445000D02*
G75*
G02*
X8454390Y-4445000I199390J0D01*
G01*
X8454390Y-6350000D02*
G75*
G02*
X8055610Y-6350000I-199390J0D01*
G01*
X8055610Y-6350000D02*
G75*
G02*
X8454390Y-6350000I199390J0D01*
G01*
X8454390Y-8255000D02*
G75*
G02*
X8055610Y-8255000I-199390J0D01*
G01*
X8055610Y-8255000D02*
G75*
G02*
X8454390Y-8255000I199390J0D01*
G01*
X10121265Y-7429500D02*
G75*
G02*
X9722485Y-7429500I-199390J0D01*
G01*
X9722485Y-7429500D02*
G75*
G02*
X10121265Y-7429500I199390J0D01*
G01*
X10359390Y-2540000D02*
G75*
G02*
X9960610Y-2540000I-199390J0D01*
G01*
X9960610Y-2540000D02*
G75*
G02*
X10359390Y-2540000I199390J0D01*
G01*
X10359390Y-4445000D02*
G75*
G02*
X9960610Y-4445000I-199390J0D01*
G01*
X9960610Y-4445000D02*
G75*
G02*
X10359390Y-4445000I199390J0D01*
G01*
X10359390Y-6350000D02*
G75*
G02*
X9960610Y-6350000I-199390J0D01*
G01*
X9960610Y-6350000D02*
G75*
G02*
X10359390Y-6350000I199390J0D01*
G01*
X10359390Y-8255000D02*
G75*
G02*
X9960610Y-8255000I-199390J0D01*
G01*
X9960610Y-8255000D02*
G75*
G02*
X10359390Y-8255000I199390J0D01*
G01*
X11311890Y-8255000D02*
G75*
G02*
X10913110Y-8255000I-199390J0D01*
G01*
X10913110Y-8255000D02*
G75*
G02*
X11311890Y-8255000I199390J0D01*
G01*
X12264390Y-2540000D02*
G75*
G02*
X11865610Y-2540000I-199390J0D01*
G01*
X11865610Y-2540000D02*
G75*
G02*
X12264390Y-2540000I199390J0D01*
G01*
X12264390Y-4445000D02*
G75*
G02*
X11865610Y-4445000I-199390J0D01*
G01*
X11865610Y-4445000D02*
G75*
G02*
X12264390Y-4445000I199390J0D01*
G01*
X12264390Y-6350000D02*
G75*
G02*
X11865610Y-6350000I-199390J0D01*
G01*
X11865610Y-6350000D02*
G75*
G02*
X12264390Y-6350000I199390J0D01*
G01*
X12264390Y-8255000D02*
G75*
G02*
X11865610Y-8255000I-199390J0D01*
G01*
X11865610Y-8255000D02*
G75*
G02*
X12264390Y-8255000I199390J0D01*
G01*
X12502515Y-7429500D02*
G75*
G02*
X12103735Y-7429500I-199390J0D01*
G01*
X12103735Y-7429500D02*
G75*
G02*
X12502515Y-7429500I199390J0D01*
G01*
X14169390Y-2540000D02*
G75*
G02*
X13770610Y-2540000I-199390J0D01*
G01*
X13770610Y-2540000D02*
G75*
G02*
X14169390Y-2540000I199390J0D01*
G01*
X14169390Y-4445000D02*
G75*
G02*
X13770610Y-4445000I-199390J0D01*
G01*
X13770610Y-4445000D02*
G75*
G02*
X14169390Y-4445000I199390J0D01*
G01*
X14169390Y-6350000D02*
G75*
G02*
X13770610Y-6350000I-199390J0D01*
G01*
X13770610Y-6350000D02*
G75*
G02*
X14169390Y-6350000I199390J0D01*
G01*
X14169390Y-8255000D02*
G75*
G02*
X13770610Y-8255000I-199390J0D01*
G01*
X13770610Y-8255000D02*
G75*
G02*
X14169390Y-8255000I199390J0D01*
G01*
X16074390Y-2540000D02*
G75*
G02*
X15675610Y-2540000I-199390J0D01*
G01*
X15675610Y-2540000D02*
G75*
G02*
X16074390Y-2540000I199390J0D01*
G01*
X16074390Y-4445000D02*
G75*
G02*
X15675610Y-4445000I-199390J0D01*
G01*
X15675610Y-4445000D02*
G75*
G02*
X16074390Y-4445000I199390J0D01*
G01*
X16074390Y-6350000D02*
G75*
G02*
X15675610Y-6350000I-199390J0D01*
G01*
X15675610Y-6350000D02*
G75*
G02*
X16074390Y-6350000I199390J0D01*
G01*
X16074390Y-8255000D02*
G75*
G02*
X15675610Y-8255000I-199390J0D01*
G01*
X15675610Y-8255000D02*
G75*
G02*
X16074390Y-8255000I199390J0D01*
G01*
X17979390Y-2540000D02*
G75*
G02*
X17580610Y-2540000I-199390J0D01*
G01*
X17580610Y-2540000D02*
G75*
G02*
X17979390Y-2540000I199390J0D01*
G01*
X17979390Y-4445000D02*
G75*
G02*
X17580610Y-4445000I-199390J0D01*
G01*
X17580610Y-4445000D02*
G75*
G02*
X17979390Y-4445000I199390J0D01*
G01*
X17979390Y-6350000D02*
G75*
G02*
X17580610Y-6350000I-199390J0D01*
G01*
X17580610Y-6350000D02*
G75*
G02*
X17979390Y-6350000I199390J0D01*
G01*
X17979390Y-8255000D02*
G75*
G02*
X17580610Y-8255000I-199390J0D01*
G01*
X17580610Y-8255000D02*
G75*
G02*
X17979390Y-8255000I199390J0D01*
G01*
X19884390Y-2540000D02*
G75*
G02*
X19485610Y-2540000I-199390J0D01*
G01*
X19485610Y-2540000D02*
G75*
G02*
X19884390Y-2540000I199390J0D01*
G01*
X19884390Y-4445000D02*
G75*
G02*
X19485610Y-4445000I-199390J0D01*
G01*
X19485610Y-4445000D02*
G75*
G02*
X19884390Y-4445000I199390J0D01*
G01*
X19884390Y-6350000D02*
G75*
G02*
X19485610Y-6350000I-199390J0D01*
G01*
X19485610Y-6350000D02*
G75*
G02*
X19884390Y-6350000I199390J0D01*
G01*
X19884390Y-8255000D02*
G75*
G02*
X19485610Y-8255000I-199390J0D01*
G01*
X19485610Y-8255000D02*
G75*
G02*
X19884390Y-8255000I199390J0D01*
G01*
X21551265Y-7429500D02*
G75*
G02*
X21152485Y-7429500I-199390J0D01*
G01*
X21152485Y-7429500D02*
G75*
G02*
X21551265Y-7429500I199390J0D01*
G01*
X21789390Y-2540000D02*
G75*
G02*
X21390610Y-2540000I-199390J0D01*
G01*
X21390610Y-2540000D02*
G75*
G02*
X21789390Y-2540000I199390J0D01*
G01*
X21789390Y-4445000D02*
G75*
G02*
X21390610Y-4445000I-199390J0D01*
G01*
X21390610Y-4445000D02*
G75*
G02*
X21789390Y-4445000I199390J0D01*
G01*
X21789390Y-6350000D02*
G75*
G02*
X21390610Y-6350000I-199390J0D01*
G01*
X21390610Y-6350000D02*
G75*
G02*
X21789390Y-6350000I199390J0D01*
G01*
X21789390Y-8255000D02*
G75*
G02*
X21390610Y-8255000I-199390J0D01*
G01*
X21390610Y-8255000D02*
G75*
G02*
X21789390Y-8255000I199390J0D01*
G01*
X22741890Y-8255000D02*
G75*
G02*
X22343110Y-8255000I-199390J0D01*
G01*
X22343110Y-8255000D02*
G75*
G02*
X22741890Y-8255000I199390J0D01*
G01*
X23694390Y-2540000D02*
G75*
G02*
X23295610Y-2540000I-199390J0D01*
G01*
X23295610Y-2540000D02*
G75*
G02*
X23694390Y-2540000I199390J0D01*
G01*
X23694390Y-4445000D02*
G75*
G02*
X23295610Y-4445000I-199390J0D01*
G01*
X23295610Y-4445000D02*
G75*
G02*
X23694390Y-4445000I199390J0D01*
G01*
X23694390Y-6350000D02*
G75*
G02*
X23295610Y-6350000I-199390J0D01*
G01*
X23295610Y-6350000D02*
G75*
G02*
X23694390Y-6350000I199390J0D01*
G01*
X23694390Y-8255000D02*
G75*
G02*
X23295610Y-8255000I-199390J0D01*
G01*
X23295610Y-8255000D02*
G75*
G02*
X23694390Y-8255000I199390J0D01*
G01*
X23932515Y-7429500D02*
G75*
G02*
X23533735Y-7429500I-199390J0D01*
G01*
X23533735Y-7429500D02*
G75*
G02*
X23932515Y-7429500I199390J0D01*
G01*
X25599390Y-2540000D02*
G75*
G02*
X25200610Y-2540000I-199390J0D01*
G01*
X25200610Y-2540000D02*
G75*
G02*
X25599390Y-2540000I199390J0D01*
G01*
X25599390Y-4445000D02*
G75*
G02*
X25200610Y-4445000I-199390J0D01*
G01*
X25200610Y-4445000D02*
G75*
G02*
X25599390Y-4445000I199390J0D01*
G01*
X25599390Y-6350000D02*
G75*
G02*
X25200610Y-6350000I-199390J0D01*
G01*
X25200610Y-6350000D02*
G75*
G02*
X25599390Y-6350000I199390J0D01*
G01*
X25599390Y-8255000D02*
G75*
G02*
X25200610Y-8255000I-199390J0D01*
G01*
X25200610Y-8255000D02*
G75*
G02*
X25599390Y-8255000I199390J0D01*
G01*
X27504390Y-2540000D02*
G75*
G02*
X27105610Y-2540000I-199390J0D01*
G01*
X27105610Y-2540000D02*
G75*
G02*
X27504390Y-2540000I199390J0D01*
G01*
X27504390Y-4445000D02*
G75*
G02*
X27105610Y-4445000I-199390J0D01*
G01*
X27105610Y-4445000D02*
G75*
G02*
X27504390Y-4445000I199390J0D01*
G01*
X27504390Y-6350000D02*
G75*
G02*
X27105610Y-6350000I-199390J0D01*
G01*
X27105610Y-6350000D02*
G75*
G02*
X27504390Y-6350000I199390J0D01*
G01*
X27504390Y-8255000D02*
G75*
G02*
X27105610Y-8255000I-199390J0D01*
G01*
X27105610Y-8255000D02*
G75*
G02*
X27504390Y-8255000I199390J0D01*
G01*
X29409390Y-2540000D02*
G75*
G02*
X29010610Y-2540000I-199390J0D01*
G01*
X29010610Y-2540000D02*
G75*
G02*
X29409390Y-2540000I199390J0D01*
G01*
X29409390Y-4445000D02*
G75*
G02*
X29010610Y-4445000I-199390J0D01*
G01*
X29010610Y-4445000D02*
G75*
G02*
X29409390Y-4445000I199390J0D01*
G01*
X29409390Y-6350000D02*
G75*
G02*
X29010610Y-6350000I-199390J0D01*
G01*
X29010610Y-6350000D02*
G75*
G02*
X29409390Y-6350000I199390J0D01*
G01*
X29409390Y-8255000D02*
G75*
G02*
X29010610Y-8255000I-199390J0D01*
G01*
X29010610Y-8255000D02*
G75*
G02*
X29409390Y-8255000I199390J0D01*
G01*
X31314390Y-8255000D02*
G75*
G02*
X30915610Y-8255000I-199390J0D01*
G01*
X30915610Y-8255000D02*
G75*
G02*
X31314390Y-8255000I199390J0D01*
G01*
X31790640Y-2540000D02*
G75*
G02*
X31391860Y-2540000I-199390J0D01*
G01*
X31391860Y-2540000D02*
G75*
G02*
X31790640Y-2540000I199390J0D01*
G01*
X31790640Y-4921250D02*
G75*
G02*
X31391860Y-4921250I-199390J0D01*
G01*
X31391860Y-4921250D02*
G75*
G02*
X31790640Y-4921250I199390J0D01*
G01*
D11*
X1845777Y-9521484D02*
X1845777Y-9321484D01*
X1845777Y-9321484D02*
X1893396Y-9321484D01*
X1893396Y-9321484D02*
X1921967Y-9331008D01*
X1921967Y-9331008D02*
X1941015Y-9350055D01*
X1941015Y-9350055D02*
X1950539Y-9369103D01*
X1950539Y-9369103D02*
X1960062Y-9407198D01*
X1960062Y-9407198D02*
X1960062Y-9435770D01*
X1960062Y-9435770D02*
X1950539Y-9473865D01*
X1950539Y-9473865D02*
X1941015Y-9492912D01*
X1941015Y-9492912D02*
X1921967Y-9511960D01*
X1921967Y-9511960D02*
X1893396Y-9521484D01*
X1893396Y-9521484D02*
X1845777Y-9521484D01*
X2045777Y-9521484D02*
X2045777Y-9388150D01*
X2045777Y-9426246D02*
X2055301Y-9407198D01*
X2055301Y-9407198D02*
X2064824Y-9397674D01*
X2064824Y-9397674D02*
X2083872Y-9388150D01*
X2083872Y-9388150D02*
X2102920Y-9388150D01*
X2169586Y-9521484D02*
X2169586Y-9388150D01*
X2169586Y-9321484D02*
X2160063Y-9331008D01*
X2160063Y-9331008D02*
X2169586Y-9340531D01*
X2169586Y-9340531D02*
X2179110Y-9331008D01*
X2179110Y-9331008D02*
X2169586Y-9321484D01*
X2169586Y-9321484D02*
X2169586Y-9340531D01*
X2293396Y-9521484D02*
X2274348Y-9511960D01*
X2274348Y-9511960D02*
X2264824Y-9492912D01*
X2264824Y-9492912D02*
X2264824Y-9321484D01*
X2398158Y-9521484D02*
X2379110Y-9511960D01*
X2379110Y-9511960D02*
X2369586Y-9492912D01*
X2369586Y-9492912D02*
X2369586Y-9321484D01*
X2626729Y-9521484D02*
X2626729Y-9321484D01*
X2626729Y-9321484D02*
X2693396Y-9464341D01*
X2693396Y-9464341D02*
X2760063Y-9321484D01*
X2760063Y-9321484D02*
X2760063Y-9521484D01*
X2941015Y-9521484D02*
X2941015Y-9416722D01*
X2941015Y-9416722D02*
X2931491Y-9397674D01*
X2931491Y-9397674D02*
X2912443Y-9388150D01*
X2912443Y-9388150D02*
X2874348Y-9388150D01*
X2874348Y-9388150D02*
X2855301Y-9397674D01*
X2941015Y-9511960D02*
X2921967Y-9521484D01*
X2921967Y-9521484D02*
X2874348Y-9521484D01*
X2874348Y-9521484D02*
X2855301Y-9511960D01*
X2855301Y-9511960D02*
X2845777Y-9492912D01*
X2845777Y-9492912D02*
X2845777Y-9473865D01*
X2845777Y-9473865D02*
X2855301Y-9454817D01*
X2855301Y-9454817D02*
X2874348Y-9445293D01*
X2874348Y-9445293D02*
X2921967Y-9445293D01*
X2921967Y-9445293D02*
X2941015Y-9435770D01*
X3036253Y-9388150D02*
X3036253Y-9588150D01*
X3036253Y-9397674D02*
X3055301Y-9388150D01*
X3055301Y-9388150D02*
X3093396Y-9388150D01*
X3093396Y-9388150D02*
X3112443Y-9397674D01*
X3112443Y-9397674D02*
X3121967Y-9407198D01*
X3121967Y-9407198D02*
X3131491Y-9426246D01*
X3131491Y-9426246D02*
X3131491Y-9483389D01*
X3131491Y-9483389D02*
X3121967Y-9502436D01*
X3121967Y-9502436D02*
X3112443Y-9511960D01*
X3112443Y-9511960D02*
X3093396Y-9521484D01*
X3093396Y-9521484D02*
X3055301Y-9521484D01*
X3055301Y-9521484D02*
X3036253Y-9511960D01*
X3217205Y-9502436D02*
X3226729Y-9511960D01*
X3226729Y-9511960D02*
X3217205Y-9521484D01*
X3217205Y-9521484D02*
X3207682Y-9511960D01*
X3207682Y-9511960D02*
X3217205Y-9502436D01*
X3217205Y-9502436D02*
X3217205Y-9521484D01*
X3217205Y-9397674D02*
X3226729Y-9407198D01*
X3226729Y-9407198D02*
X3217205Y-9416722D01*
X3217205Y-9416722D02*
X3207682Y-9407198D01*
X3207682Y-9407198D02*
X3217205Y-9397674D01*
X3217205Y-9397674D02*
X3217205Y-9416722D01*
D12*
X1410000Y-9762500D02*
X1585000Y-9937500D01*
X1585000Y-9762500D02*
X1410000Y-9937500D01*
D11*
X1950539Y-9941484D02*
X1836253Y-9941484D01*
X1893396Y-9941484D02*
X1893396Y-9741484D01*
X1893396Y-9741484D02*
X1874348Y-9770055D01*
X1874348Y-9770055D02*
X1855301Y-9789103D01*
X1855301Y-9789103D02*
X1836253Y-9798627D01*
X2036253Y-9922436D02*
X2045777Y-9931960D01*
X2045777Y-9931960D02*
X2036253Y-9941484D01*
X2036253Y-9941484D02*
X2026729Y-9931960D01*
X2026729Y-9931960D02*
X2036253Y-9922436D01*
X2036253Y-9922436D02*
X2036253Y-9941484D01*
X2112444Y-9741484D02*
X2245777Y-9741484D01*
X2245777Y-9741484D02*
X2160063Y-9941484D01*
X2417205Y-9741484D02*
X2321967Y-9741484D01*
X2321967Y-9741484D02*
X2312444Y-9836722D01*
X2312444Y-9836722D02*
X2321967Y-9827198D01*
X2321967Y-9827198D02*
X2341015Y-9817674D01*
X2341015Y-9817674D02*
X2388634Y-9817674D01*
X2388634Y-9817674D02*
X2407682Y-9827198D01*
X2407682Y-9827198D02*
X2417205Y-9836722D01*
X2417205Y-9836722D02*
X2426729Y-9855770D01*
X2426729Y-9855770D02*
X2426729Y-9903389D01*
X2426729Y-9903389D02*
X2417205Y-9922436D01*
X2417205Y-9922436D02*
X2407682Y-9931960D01*
X2407682Y-9931960D02*
X2388634Y-9941484D01*
X2388634Y-9941484D02*
X2341015Y-9941484D01*
X2341015Y-9941484D02*
X2321967Y-9931960D01*
X2321967Y-9931960D02*
X2312444Y-9922436D01*
X2550539Y-9741484D02*
X2569586Y-9741484D01*
X2569586Y-9741484D02*
X2588634Y-9751008D01*
X2588634Y-9751008D02*
X2598158Y-9760531D01*
X2598158Y-9760531D02*
X2607682Y-9779579D01*
X2607682Y-9779579D02*
X2617205Y-9817674D01*
X2617205Y-9817674D02*
X2617205Y-9865293D01*
X2617205Y-9865293D02*
X2607682Y-9903389D01*
X2607682Y-9903389D02*
X2598158Y-9922436D01*
X2598158Y-9922436D02*
X2588634Y-9931960D01*
X2588634Y-9931960D02*
X2569586Y-9941484D01*
X2569586Y-9941484D02*
X2550539Y-9941484D01*
X2550539Y-9941484D02*
X2531491Y-9931960D01*
X2531491Y-9931960D02*
X2521967Y-9922436D01*
X2521967Y-9922436D02*
X2512444Y-9903389D01*
X2512444Y-9903389D02*
X2502920Y-9865293D01*
X2502920Y-9865293D02*
X2502920Y-9817674D01*
X2502920Y-9817674D02*
X2512444Y-9779579D01*
X2512444Y-9779579D02*
X2521967Y-9760531D01*
X2521967Y-9760531D02*
X2531491Y-9751008D01*
X2531491Y-9751008D02*
X2550539Y-9741484D01*
X2702920Y-9941484D02*
X2702920Y-9808150D01*
X2702920Y-9827198D02*
X2712444Y-9817674D01*
X2712444Y-9817674D02*
X2731491Y-9808150D01*
X2731491Y-9808150D02*
X2760063Y-9808150D01*
X2760063Y-9808150D02*
X2779110Y-9817674D01*
X2779110Y-9817674D02*
X2788634Y-9836722D01*
X2788634Y-9836722D02*
X2788634Y-9941484D01*
X2788634Y-9836722D02*
X2798158Y-9817674D01*
X2798158Y-9817674D02*
X2817205Y-9808150D01*
X2817205Y-9808150D02*
X2845777Y-9808150D01*
X2845777Y-9808150D02*
X2864824Y-9817674D01*
X2864824Y-9817674D02*
X2874348Y-9836722D01*
X2874348Y-9836722D02*
X2874348Y-9941484D01*
X2969586Y-9941484D02*
X2969586Y-9808150D01*
X2969586Y-9827198D02*
X2979110Y-9817674D01*
X2979110Y-9817674D02*
X2998158Y-9808150D01*
X2998158Y-9808150D02*
X3026729Y-9808150D01*
X3026729Y-9808150D02*
X3045777Y-9817674D01*
X3045777Y-9817674D02*
X3055301Y-9836722D01*
X3055301Y-9836722D02*
X3055301Y-9941484D01*
X3055301Y-9836722D02*
X3064824Y-9817674D01*
X3064824Y-9817674D02*
X3083872Y-9808150D01*
X3083872Y-9808150D02*
X3112443Y-9808150D01*
X3112443Y-9808150D02*
X3131491Y-9817674D01*
X3131491Y-9817674D02*
X3141015Y-9836722D01*
X3141015Y-9836722D02*
X3141015Y-9941484D01*
X3531491Y-9731960D02*
X3360063Y-9989103D01*
X3788634Y-9741484D02*
X3807682Y-9741484D01*
X3807682Y-9741484D02*
X3826729Y-9751008D01*
X3826729Y-9751008D02*
X3836253Y-9760531D01*
X3836253Y-9760531D02*
X3845777Y-9779579D01*
X3845777Y-9779579D02*
X3855301Y-9817674D01*
X3855301Y-9817674D02*
X3855301Y-9865293D01*
X3855301Y-9865293D02*
X3845777Y-9903389D01*
X3845777Y-9903389D02*
X3836253Y-9922436D01*
X3836253Y-9922436D02*
X3826729Y-9931960D01*
X3826729Y-9931960D02*
X3807682Y-9941484D01*
X3807682Y-9941484D02*
X3788634Y-9941484D01*
X3788634Y-9941484D02*
X3769586Y-9931960D01*
X3769586Y-9931960D02*
X3760063Y-9922436D01*
X3760063Y-9922436D02*
X3750539Y-9903389D01*
X3750539Y-9903389D02*
X3741015Y-9865293D01*
X3741015Y-9865293D02*
X3741015Y-9817674D01*
X3741015Y-9817674D02*
X3750539Y-9779579D01*
X3750539Y-9779579D02*
X3760063Y-9760531D01*
X3760063Y-9760531D02*
X3769586Y-9751008D01*
X3769586Y-9751008D02*
X3788634Y-9741484D01*
X3941015Y-9922436D02*
X3950539Y-9931960D01*
X3950539Y-9931960D02*
X3941015Y-9941484D01*
X3941015Y-9941484D02*
X3931491Y-9931960D01*
X3931491Y-9931960D02*
X3941015Y-9922436D01*
X3941015Y-9922436D02*
X3941015Y-9941484D01*
X4074348Y-9741484D02*
X4093396Y-9741484D01*
X4093396Y-9741484D02*
X4112444Y-9751008D01*
X4112444Y-9751008D02*
X4121967Y-9760531D01*
X4121967Y-9760531D02*
X4131491Y-9779579D01*
X4131491Y-9779579D02*
X4141015Y-9817674D01*
X4141015Y-9817674D02*
X4141015Y-9865293D01*
X4141015Y-9865293D02*
X4131491Y-9903389D01*
X4131491Y-9903389D02*
X4121967Y-9922436D01*
X4121967Y-9922436D02*
X4112444Y-9931960D01*
X4112444Y-9931960D02*
X4093396Y-9941484D01*
X4093396Y-9941484D02*
X4074348Y-9941484D01*
X4074348Y-9941484D02*
X4055301Y-9931960D01*
X4055301Y-9931960D02*
X4045777Y-9922436D01*
X4045777Y-9922436D02*
X4036253Y-9903389D01*
X4036253Y-9903389D02*
X4026729Y-9865293D01*
X4026729Y-9865293D02*
X4026729Y-9817674D01*
X4026729Y-9817674D02*
X4036253Y-9779579D01*
X4036253Y-9779579D02*
X4045777Y-9760531D01*
X4045777Y-9760531D02*
X4055301Y-9751008D01*
X4055301Y-9751008D02*
X4074348Y-9741484D01*
X4312444Y-9741484D02*
X4274348Y-9741484D01*
X4274348Y-9741484D02*
X4255301Y-9751008D01*
X4255301Y-9751008D02*
X4245777Y-9760531D01*
X4245777Y-9760531D02*
X4226729Y-9789103D01*
X4226729Y-9789103D02*
X4217206Y-9827198D01*
X4217206Y-9827198D02*
X4217206Y-9903389D01*
X4217206Y-9903389D02*
X4226729Y-9922436D01*
X4226729Y-9922436D02*
X4236253Y-9931960D01*
X4236253Y-9931960D02*
X4255301Y-9941484D01*
X4255301Y-9941484D02*
X4293396Y-9941484D01*
X4293396Y-9941484D02*
X4312444Y-9931960D01*
X4312444Y-9931960D02*
X4321968Y-9922436D01*
X4321968Y-9922436D02*
X4331491Y-9903389D01*
X4331491Y-9903389D02*
X4331491Y-9855770D01*
X4331491Y-9855770D02*
X4321968Y-9836722D01*
X4321968Y-9836722D02*
X4312444Y-9827198D01*
X4312444Y-9827198D02*
X4293396Y-9817674D01*
X4293396Y-9817674D02*
X4255301Y-9817674D01*
X4255301Y-9817674D02*
X4236253Y-9827198D01*
X4236253Y-9827198D02*
X4226729Y-9836722D01*
X4226729Y-9836722D02*
X4217206Y-9855770D01*
X4445777Y-9827198D02*
X4426729Y-9817674D01*
X4426729Y-9817674D02*
X4417206Y-9808150D01*
X4417206Y-9808150D02*
X4407682Y-9789103D01*
X4407682Y-9789103D02*
X4407682Y-9779579D01*
X4407682Y-9779579D02*
X4417206Y-9760531D01*
X4417206Y-9760531D02*
X4426729Y-9751008D01*
X4426729Y-9751008D02*
X4445777Y-9741484D01*
X4445777Y-9741484D02*
X4483872Y-9741484D01*
X4483872Y-9741484D02*
X4502920Y-9751008D01*
X4502920Y-9751008D02*
X4512444Y-9760531D01*
X4512444Y-9760531D02*
X4521968Y-9779579D01*
X4521968Y-9779579D02*
X4521968Y-9789103D01*
X4521968Y-9789103D02*
X4512444Y-9808150D01*
X4512444Y-9808150D02*
X4502920Y-9817674D01*
X4502920Y-9817674D02*
X4483872Y-9827198D01*
X4483872Y-9827198D02*
X4445777Y-9827198D01*
X4445777Y-9827198D02*
X4426729Y-9836722D01*
X4426729Y-9836722D02*
X4417206Y-9846246D01*
X4417206Y-9846246D02*
X4407682Y-9865293D01*
X4407682Y-9865293D02*
X4407682Y-9903389D01*
X4407682Y-9903389D02*
X4417206Y-9922436D01*
X4417206Y-9922436D02*
X4426729Y-9931960D01*
X4426729Y-9931960D02*
X4445777Y-9941484D01*
X4445777Y-9941484D02*
X4483872Y-9941484D01*
X4483872Y-9941484D02*
X4502920Y-9931960D01*
X4502920Y-9931960D02*
X4512444Y-9922436D01*
X4512444Y-9922436D02*
X4521968Y-9903389D01*
X4521968Y-9903389D02*
X4521968Y-9865293D01*
X4521968Y-9865293D02*
X4512444Y-9846246D01*
X4512444Y-9846246D02*
X4502920Y-9836722D01*
X4502920Y-9836722D02*
X4483872Y-9827198D01*
X4617206Y-9941484D02*
X4655301Y-9941484D01*
X4655301Y-9941484D02*
X4674349Y-9931960D01*
X4674349Y-9931960D02*
X4683872Y-9922436D01*
X4683872Y-9922436D02*
X4702920Y-9893865D01*
X4702920Y-9893865D02*
X4712444Y-9855770D01*
X4712444Y-9855770D02*
X4712444Y-9779579D01*
X4712444Y-9779579D02*
X4702920Y-9760531D01*
X4702920Y-9760531D02*
X4693396Y-9751008D01*
X4693396Y-9751008D02*
X4674349Y-9741484D01*
X4674349Y-9741484D02*
X4636253Y-9741484D01*
X4636253Y-9741484D02*
X4617206Y-9751008D01*
X4617206Y-9751008D02*
X4607682Y-9760531D01*
X4607682Y-9760531D02*
X4598158Y-9779579D01*
X4598158Y-9779579D02*
X4598158Y-9827198D01*
X4598158Y-9827198D02*
X4607682Y-9846246D01*
X4607682Y-9846246D02*
X4617206Y-9855770D01*
X4617206Y-9855770D02*
X4636253Y-9865293D01*
X4636253Y-9865293D02*
X4674349Y-9865293D01*
X4674349Y-9865293D02*
X4693396Y-9855770D01*
X4693396Y-9855770D02*
X4702920Y-9846246D01*
X4702920Y-9846246D02*
X4712444Y-9827198D01*
X4788634Y-9741484D02*
X4788634Y-9779579D01*
X4864825Y-9741484D02*
X4864825Y-9779579D01*
X5160063Y-10017674D02*
X5150539Y-10008150D01*
X5150539Y-10008150D02*
X5131491Y-9979579D01*
X5131491Y-9979579D02*
X5121968Y-9960531D01*
X5121968Y-9960531D02*
X5112444Y-9931960D01*
X5112444Y-9931960D02*
X5102920Y-9884341D01*
X5102920Y-9884341D02*
X5102920Y-9846246D01*
X5102920Y-9846246D02*
X5112444Y-9798627D01*
X5112444Y-9798627D02*
X5121968Y-9770055D01*
X5121968Y-9770055D02*
X5131491Y-9751008D01*
X5131491Y-9751008D02*
X5150539Y-9722436D01*
X5150539Y-9722436D02*
X5160063Y-9712912D01*
X5341015Y-9941484D02*
X5226730Y-9941484D01*
X5283872Y-9941484D02*
X5283872Y-9741484D01*
X5283872Y-9741484D02*
X5264825Y-9770055D01*
X5264825Y-9770055D02*
X5245777Y-9789103D01*
X5245777Y-9789103D02*
X5226730Y-9798627D01*
X5407682Y-9741484D02*
X5531491Y-9741484D01*
X5531491Y-9741484D02*
X5464825Y-9817674D01*
X5464825Y-9817674D02*
X5493396Y-9817674D01*
X5493396Y-9817674D02*
X5512444Y-9827198D01*
X5512444Y-9827198D02*
X5521968Y-9836722D01*
X5521968Y-9836722D02*
X5531491Y-9855770D01*
X5531491Y-9855770D02*
X5531491Y-9903389D01*
X5531491Y-9903389D02*
X5521968Y-9922436D01*
X5521968Y-9922436D02*
X5512444Y-9931960D01*
X5512444Y-9931960D02*
X5493396Y-9941484D01*
X5493396Y-9941484D02*
X5436253Y-9941484D01*
X5436253Y-9941484D02*
X5417206Y-9931960D01*
X5417206Y-9931960D02*
X5407682Y-9922436D01*
X5655301Y-9741484D02*
X5674349Y-9741484D01*
X5674349Y-9741484D02*
X5693396Y-9751008D01*
X5693396Y-9751008D02*
X5702920Y-9760531D01*
X5702920Y-9760531D02*
X5712444Y-9779579D01*
X5712444Y-9779579D02*
X5721968Y-9817674D01*
X5721968Y-9817674D02*
X5721968Y-9865293D01*
X5721968Y-9865293D02*
X5712444Y-9903389D01*
X5712444Y-9903389D02*
X5702920Y-9922436D01*
X5702920Y-9922436D02*
X5693396Y-9931960D01*
X5693396Y-9931960D02*
X5674349Y-9941484D01*
X5674349Y-9941484D02*
X5655301Y-9941484D01*
X5655301Y-9941484D02*
X5636253Y-9931960D01*
X5636253Y-9931960D02*
X5626729Y-9922436D01*
X5626729Y-9922436D02*
X5617206Y-9903389D01*
X5617206Y-9903389D02*
X5607682Y-9865293D01*
X5607682Y-9865293D02*
X5607682Y-9817674D01*
X5607682Y-9817674D02*
X5617206Y-9779579D01*
X5617206Y-9779579D02*
X5626729Y-9760531D01*
X5626729Y-9760531D02*
X5636253Y-9751008D01*
X5636253Y-9751008D02*
X5655301Y-9741484D01*
X5960063Y-9941484D02*
X5960063Y-9741484D01*
X6045777Y-9941484D02*
X6045777Y-9836722D01*
X6045777Y-9836722D02*
X6036253Y-9817674D01*
X6036253Y-9817674D02*
X6017206Y-9808150D01*
X6017206Y-9808150D02*
X5988634Y-9808150D01*
X5988634Y-9808150D02*
X5969587Y-9817674D01*
X5969587Y-9817674D02*
X5960063Y-9827198D01*
X6169587Y-9941484D02*
X6150539Y-9931960D01*
X6150539Y-9931960D02*
X6141015Y-9922436D01*
X6141015Y-9922436D02*
X6131491Y-9903389D01*
X6131491Y-9903389D02*
X6131491Y-9846246D01*
X6131491Y-9846246D02*
X6141015Y-9827198D01*
X6141015Y-9827198D02*
X6150539Y-9817674D01*
X6150539Y-9817674D02*
X6169587Y-9808150D01*
X6169587Y-9808150D02*
X6198158Y-9808150D01*
X6198158Y-9808150D02*
X6217206Y-9817674D01*
X6217206Y-9817674D02*
X6226730Y-9827198D01*
X6226730Y-9827198D02*
X6236253Y-9846246D01*
X6236253Y-9846246D02*
X6236253Y-9903389D01*
X6236253Y-9903389D02*
X6226730Y-9922436D01*
X6226730Y-9922436D02*
X6217206Y-9931960D01*
X6217206Y-9931960D02*
X6198158Y-9941484D01*
X6198158Y-9941484D02*
X6169587Y-9941484D01*
X6350539Y-9941484D02*
X6331491Y-9931960D01*
X6331491Y-9931960D02*
X6321968Y-9912912D01*
X6321968Y-9912912D02*
X6321968Y-9741484D01*
X6502920Y-9931960D02*
X6483872Y-9941484D01*
X6483872Y-9941484D02*
X6445777Y-9941484D01*
X6445777Y-9941484D02*
X6426730Y-9931960D01*
X6426730Y-9931960D02*
X6417206Y-9912912D01*
X6417206Y-9912912D02*
X6417206Y-9836722D01*
X6417206Y-9836722D02*
X6426730Y-9817674D01*
X6426730Y-9817674D02*
X6445777Y-9808150D01*
X6445777Y-9808150D02*
X6483872Y-9808150D01*
X6483872Y-9808150D02*
X6502920Y-9817674D01*
X6502920Y-9817674D02*
X6512444Y-9836722D01*
X6512444Y-9836722D02*
X6512444Y-9855770D01*
X6512444Y-9855770D02*
X6417206Y-9874817D01*
X6588634Y-9931960D02*
X6607682Y-9941484D01*
X6607682Y-9941484D02*
X6645777Y-9941484D01*
X6645777Y-9941484D02*
X6664825Y-9931960D01*
X6664825Y-9931960D02*
X6674349Y-9912912D01*
X6674349Y-9912912D02*
X6674349Y-9903389D01*
X6674349Y-9903389D02*
X6664825Y-9884341D01*
X6664825Y-9884341D02*
X6645777Y-9874817D01*
X6645777Y-9874817D02*
X6617206Y-9874817D01*
X6617206Y-9874817D02*
X6598158Y-9865293D01*
X6598158Y-9865293D02*
X6588634Y-9846246D01*
X6588634Y-9846246D02*
X6588634Y-9836722D01*
X6588634Y-9836722D02*
X6598158Y-9817674D01*
X6598158Y-9817674D02*
X6617206Y-9808150D01*
X6617206Y-9808150D02*
X6645777Y-9808150D01*
X6645777Y-9808150D02*
X6664825Y-9817674D01*
X6741015Y-10017674D02*
X6750539Y-10008150D01*
X6750539Y-10008150D02*
X6769587Y-9979579D01*
X6769587Y-9979579D02*
X6779111Y-9960531D01*
X6779111Y-9960531D02*
X6788634Y-9931960D01*
X6788634Y-9931960D02*
X6798158Y-9884341D01*
X6798158Y-9884341D02*
X6798158Y-9846246D01*
X6798158Y-9846246D02*
X6788634Y-9798627D01*
X6788634Y-9798627D02*
X6779111Y-9770055D01*
X6779111Y-9770055D02*
X6769587Y-9751008D01*
X6769587Y-9751008D02*
X6750539Y-9722436D01*
X6750539Y-9722436D02*
X6741015Y-9712912D01*
X7102920Y-10017674D02*
X7093396Y-10008150D01*
X7093396Y-10008150D02*
X7074349Y-9979579D01*
X7074349Y-9979579D02*
X7064825Y-9960531D01*
X7064825Y-9960531D02*
X7055301Y-9931960D01*
X7055301Y-9931960D02*
X7045777Y-9884341D01*
X7045777Y-9884341D02*
X7045777Y-9846246D01*
X7045777Y-9846246D02*
X7055301Y-9798627D01*
X7055301Y-9798627D02*
X7064825Y-9770055D01*
X7064825Y-9770055D02*
X7074349Y-9751008D01*
X7074349Y-9751008D02*
X7093396Y-9722436D01*
X7093396Y-9722436D02*
X7102920Y-9712912D01*
X7179111Y-9808150D02*
X7179111Y-9941484D01*
X7179111Y-9827198D02*
X7188634Y-9817674D01*
X7188634Y-9817674D02*
X7207682Y-9808150D01*
X7207682Y-9808150D02*
X7236253Y-9808150D01*
X7236253Y-9808150D02*
X7255301Y-9817674D01*
X7255301Y-9817674D02*
X7264825Y-9836722D01*
X7264825Y-9836722D02*
X7264825Y-9941484D01*
X7388634Y-9941484D02*
X7369587Y-9931960D01*
X7369587Y-9931960D02*
X7360063Y-9922436D01*
X7360063Y-9922436D02*
X7350539Y-9903389D01*
X7350539Y-9903389D02*
X7350539Y-9846246D01*
X7350539Y-9846246D02*
X7360063Y-9827198D01*
X7360063Y-9827198D02*
X7369587Y-9817674D01*
X7369587Y-9817674D02*
X7388634Y-9808150D01*
X7388634Y-9808150D02*
X7417206Y-9808150D01*
X7417206Y-9808150D02*
X7436253Y-9817674D01*
X7436253Y-9817674D02*
X7445777Y-9827198D01*
X7445777Y-9827198D02*
X7455301Y-9846246D01*
X7455301Y-9846246D02*
X7455301Y-9903389D01*
X7455301Y-9903389D02*
X7445777Y-9922436D01*
X7445777Y-9922436D02*
X7436253Y-9931960D01*
X7436253Y-9931960D02*
X7417206Y-9941484D01*
X7417206Y-9941484D02*
X7388634Y-9941484D01*
X7512444Y-9808150D02*
X7588634Y-9808150D01*
X7541015Y-9741484D02*
X7541015Y-9912912D01*
X7541015Y-9912912D02*
X7550539Y-9931960D01*
X7550539Y-9931960D02*
X7569587Y-9941484D01*
X7569587Y-9941484D02*
X7588634Y-9941484D01*
X7807682Y-9808150D02*
X7807682Y-10008150D01*
X7807682Y-9817674D02*
X7826730Y-9808150D01*
X7826730Y-9808150D02*
X7864825Y-9808150D01*
X7864825Y-9808150D02*
X7883873Y-9817674D01*
X7883873Y-9817674D02*
X7893396Y-9827198D01*
X7893396Y-9827198D02*
X7902920Y-9846246D01*
X7902920Y-9846246D02*
X7902920Y-9903389D01*
X7902920Y-9903389D02*
X7893396Y-9922436D01*
X7893396Y-9922436D02*
X7883873Y-9931960D01*
X7883873Y-9931960D02*
X7864825Y-9941484D01*
X7864825Y-9941484D02*
X7826730Y-9941484D01*
X7826730Y-9941484D02*
X7807682Y-9931960D01*
X8017206Y-9941484D02*
X7998158Y-9931960D01*
X7998158Y-9931960D02*
X7988634Y-9912912D01*
X7988634Y-9912912D02*
X7988634Y-9741484D01*
X8179111Y-9941484D02*
X8179111Y-9836722D01*
X8179111Y-9836722D02*
X8169587Y-9817674D01*
X8169587Y-9817674D02*
X8150539Y-9808150D01*
X8150539Y-9808150D02*
X8112444Y-9808150D01*
X8112444Y-9808150D02*
X8093396Y-9817674D01*
X8179111Y-9931960D02*
X8160063Y-9941484D01*
X8160063Y-9941484D02*
X8112444Y-9941484D01*
X8112444Y-9941484D02*
X8093396Y-9931960D01*
X8093396Y-9931960D02*
X8083873Y-9912912D01*
X8083873Y-9912912D02*
X8083873Y-9893865D01*
X8083873Y-9893865D02*
X8093396Y-9874817D01*
X8093396Y-9874817D02*
X8112444Y-9865293D01*
X8112444Y-9865293D02*
X8160063Y-9865293D01*
X8160063Y-9865293D02*
X8179111Y-9855770D01*
X8245777Y-9808150D02*
X8321968Y-9808150D01*
X8274349Y-9741484D02*
X8274349Y-9912912D01*
X8274349Y-9912912D02*
X8283873Y-9931960D01*
X8283873Y-9931960D02*
X8302920Y-9941484D01*
X8302920Y-9941484D02*
X8321968Y-9941484D01*
X8464825Y-9931960D02*
X8445777Y-9941484D01*
X8445777Y-9941484D02*
X8407682Y-9941484D01*
X8407682Y-9941484D02*
X8388635Y-9931960D01*
X8388635Y-9931960D02*
X8379111Y-9912912D01*
X8379111Y-9912912D02*
X8379111Y-9836722D01*
X8379111Y-9836722D02*
X8388635Y-9817674D01*
X8388635Y-9817674D02*
X8407682Y-9808150D01*
X8407682Y-9808150D02*
X8445777Y-9808150D01*
X8445777Y-9808150D02*
X8464825Y-9817674D01*
X8464825Y-9817674D02*
X8474349Y-9836722D01*
X8474349Y-9836722D02*
X8474349Y-9855770D01*
X8474349Y-9855770D02*
X8379111Y-9874817D01*
X8645777Y-9941484D02*
X8645777Y-9741484D01*
X8645777Y-9931960D02*
X8626730Y-9941484D01*
X8626730Y-9941484D02*
X8588635Y-9941484D01*
X8588635Y-9941484D02*
X8569587Y-9931960D01*
X8569587Y-9931960D02*
X8560063Y-9922436D01*
X8560063Y-9922436D02*
X8550539Y-9903389D01*
X8550539Y-9903389D02*
X8550539Y-9846246D01*
X8550539Y-9846246D02*
X8560063Y-9827198D01*
X8560063Y-9827198D02*
X8569587Y-9817674D01*
X8569587Y-9817674D02*
X8588635Y-9808150D01*
X8588635Y-9808150D02*
X8626730Y-9808150D01*
X8626730Y-9808150D02*
X8645777Y-9817674D01*
X8721968Y-10017674D02*
X8731492Y-10008150D01*
X8731492Y-10008150D02*
X8750539Y-9979579D01*
X8750539Y-9979579D02*
X8760063Y-9960531D01*
X8760063Y-9960531D02*
X8769587Y-9931960D01*
X8769587Y-9931960D02*
X8779111Y-9884341D01*
X8779111Y-9884341D02*
X8779111Y-9846246D01*
X8779111Y-9846246D02*
X8769587Y-9798627D01*
X8769587Y-9798627D02*
X8760063Y-9770055D01*
X8760063Y-9770055D02*
X8750539Y-9751008D01*
X8750539Y-9751008D02*
X8731492Y-9722436D01*
X8731492Y-9722436D02*
X8721968Y-9712912D01*
X1585000Y-10145000D02*
G75*
G02*
X1385000Y-10145000I-100000J0D01*
G01*
X1385000Y-10145000D02*
G75*
G02*
X1585000Y-10145000I100000J0D01*
G01*
X1826729Y-10036484D02*
X1950539Y-10036484D01*
X1950539Y-10036484D02*
X1883872Y-10112674D01*
X1883872Y-10112674D02*
X1912443Y-10112674D01*
X1912443Y-10112674D02*
X1931491Y-10122198D01*
X1931491Y-10122198D02*
X1941015Y-10131722D01*
X1941015Y-10131722D02*
X1950539Y-10150770D01*
X1950539Y-10150770D02*
X1950539Y-10198389D01*
X1950539Y-10198389D02*
X1941015Y-10217436D01*
X1941015Y-10217436D02*
X1931491Y-10226960D01*
X1931491Y-10226960D02*
X1912443Y-10236484D01*
X1912443Y-10236484D02*
X1855301Y-10236484D01*
X1855301Y-10236484D02*
X1836253Y-10226960D01*
X1836253Y-10226960D02*
X1826729Y-10217436D01*
X2036253Y-10217436D02*
X2045777Y-10226960D01*
X2045777Y-10226960D02*
X2036253Y-10236484D01*
X2036253Y-10236484D02*
X2026729Y-10226960D01*
X2026729Y-10226960D02*
X2036253Y-10217436D01*
X2036253Y-10217436D02*
X2036253Y-10236484D01*
X2141015Y-10236484D02*
X2179110Y-10236484D01*
X2179110Y-10236484D02*
X2198158Y-10226960D01*
X2198158Y-10226960D02*
X2207682Y-10217436D01*
X2207682Y-10217436D02*
X2226729Y-10188865D01*
X2226729Y-10188865D02*
X2236253Y-10150770D01*
X2236253Y-10150770D02*
X2236253Y-10074579D01*
X2236253Y-10074579D02*
X2226729Y-10055531D01*
X2226729Y-10055531D02*
X2217205Y-10046008D01*
X2217205Y-10046008D02*
X2198158Y-10036484D01*
X2198158Y-10036484D02*
X2160063Y-10036484D01*
X2160063Y-10036484D02*
X2141015Y-10046008D01*
X2141015Y-10046008D02*
X2131491Y-10055531D01*
X2131491Y-10055531D02*
X2121967Y-10074579D01*
X2121967Y-10074579D02*
X2121967Y-10122198D01*
X2121967Y-10122198D02*
X2131491Y-10141246D01*
X2131491Y-10141246D02*
X2141015Y-10150770D01*
X2141015Y-10150770D02*
X2160063Y-10160293D01*
X2160063Y-10160293D02*
X2198158Y-10160293D01*
X2198158Y-10160293D02*
X2217205Y-10150770D01*
X2217205Y-10150770D02*
X2226729Y-10141246D01*
X2226729Y-10141246D02*
X2236253Y-10122198D01*
X2350539Y-10122198D02*
X2331491Y-10112674D01*
X2331491Y-10112674D02*
X2321967Y-10103150D01*
X2321967Y-10103150D02*
X2312444Y-10084103D01*
X2312444Y-10084103D02*
X2312444Y-10074579D01*
X2312444Y-10074579D02*
X2321967Y-10055531D01*
X2321967Y-10055531D02*
X2331491Y-10046008D01*
X2331491Y-10046008D02*
X2350539Y-10036484D01*
X2350539Y-10036484D02*
X2388634Y-10036484D01*
X2388634Y-10036484D02*
X2407682Y-10046008D01*
X2407682Y-10046008D02*
X2417205Y-10055531D01*
X2417205Y-10055531D02*
X2426729Y-10074579D01*
X2426729Y-10074579D02*
X2426729Y-10084103D01*
X2426729Y-10084103D02*
X2417205Y-10103150D01*
X2417205Y-10103150D02*
X2407682Y-10112674D01*
X2407682Y-10112674D02*
X2388634Y-10122198D01*
X2388634Y-10122198D02*
X2350539Y-10122198D01*
X2350539Y-10122198D02*
X2331491Y-10131722D01*
X2331491Y-10131722D02*
X2321967Y-10141246D01*
X2321967Y-10141246D02*
X2312444Y-10160293D01*
X2312444Y-10160293D02*
X2312444Y-10198389D01*
X2312444Y-10198389D02*
X2321967Y-10217436D01*
X2321967Y-10217436D02*
X2331491Y-10226960D01*
X2331491Y-10226960D02*
X2350539Y-10236484D01*
X2350539Y-10236484D02*
X2388634Y-10236484D01*
X2388634Y-10236484D02*
X2407682Y-10226960D01*
X2407682Y-10226960D02*
X2417205Y-10217436D01*
X2417205Y-10217436D02*
X2426729Y-10198389D01*
X2426729Y-10198389D02*
X2426729Y-10160293D01*
X2426729Y-10160293D02*
X2417205Y-10141246D01*
X2417205Y-10141246D02*
X2407682Y-10131722D01*
X2407682Y-10131722D02*
X2388634Y-10122198D01*
X2541015Y-10122198D02*
X2521967Y-10112674D01*
X2521967Y-10112674D02*
X2512444Y-10103150D01*
X2512444Y-10103150D02*
X2502920Y-10084103D01*
X2502920Y-10084103D02*
X2502920Y-10074579D01*
X2502920Y-10074579D02*
X2512444Y-10055531D01*
X2512444Y-10055531D02*
X2521967Y-10046008D01*
X2521967Y-10046008D02*
X2541015Y-10036484D01*
X2541015Y-10036484D02*
X2579110Y-10036484D01*
X2579110Y-10036484D02*
X2598158Y-10046008D01*
X2598158Y-10046008D02*
X2607682Y-10055531D01*
X2607682Y-10055531D02*
X2617205Y-10074579D01*
X2617205Y-10074579D02*
X2617205Y-10084103D01*
X2617205Y-10084103D02*
X2607682Y-10103150D01*
X2607682Y-10103150D02*
X2598158Y-10112674D01*
X2598158Y-10112674D02*
X2579110Y-10122198D01*
X2579110Y-10122198D02*
X2541015Y-10122198D01*
X2541015Y-10122198D02*
X2521967Y-10131722D01*
X2521967Y-10131722D02*
X2512444Y-10141246D01*
X2512444Y-10141246D02*
X2502920Y-10160293D01*
X2502920Y-10160293D02*
X2502920Y-10198389D01*
X2502920Y-10198389D02*
X2512444Y-10217436D01*
X2512444Y-10217436D02*
X2521967Y-10226960D01*
X2521967Y-10226960D02*
X2541015Y-10236484D01*
X2541015Y-10236484D02*
X2579110Y-10236484D01*
X2579110Y-10236484D02*
X2598158Y-10226960D01*
X2598158Y-10226960D02*
X2607682Y-10217436D01*
X2607682Y-10217436D02*
X2617205Y-10198389D01*
X2617205Y-10198389D02*
X2617205Y-10160293D01*
X2617205Y-10160293D02*
X2607682Y-10141246D01*
X2607682Y-10141246D02*
X2598158Y-10131722D01*
X2598158Y-10131722D02*
X2579110Y-10122198D01*
X2702920Y-10236484D02*
X2702920Y-10103150D01*
X2702920Y-10122198D02*
X2712444Y-10112674D01*
X2712444Y-10112674D02*
X2731491Y-10103150D01*
X2731491Y-10103150D02*
X2760063Y-10103150D01*
X2760063Y-10103150D02*
X2779110Y-10112674D01*
X2779110Y-10112674D02*
X2788634Y-10131722D01*
X2788634Y-10131722D02*
X2788634Y-10236484D01*
X2788634Y-10131722D02*
X2798158Y-10112674D01*
X2798158Y-10112674D02*
X2817205Y-10103150D01*
X2817205Y-10103150D02*
X2845777Y-10103150D01*
X2845777Y-10103150D02*
X2864824Y-10112674D01*
X2864824Y-10112674D02*
X2874348Y-10131722D01*
X2874348Y-10131722D02*
X2874348Y-10236484D01*
X2969586Y-10236484D02*
X2969586Y-10103150D01*
X2969586Y-10122198D02*
X2979110Y-10112674D01*
X2979110Y-10112674D02*
X2998158Y-10103150D01*
X2998158Y-10103150D02*
X3026729Y-10103150D01*
X3026729Y-10103150D02*
X3045777Y-10112674D01*
X3045777Y-10112674D02*
X3055301Y-10131722D01*
X3055301Y-10131722D02*
X3055301Y-10236484D01*
X3055301Y-10131722D02*
X3064824Y-10112674D01*
X3064824Y-10112674D02*
X3083872Y-10103150D01*
X3083872Y-10103150D02*
X3112443Y-10103150D01*
X3112443Y-10103150D02*
X3131491Y-10112674D01*
X3131491Y-10112674D02*
X3141015Y-10131722D01*
X3141015Y-10131722D02*
X3141015Y-10236484D01*
X3531491Y-10026960D02*
X3360063Y-10284103D01*
X3788634Y-10036484D02*
X3807682Y-10036484D01*
X3807682Y-10036484D02*
X3826729Y-10046008D01*
X3826729Y-10046008D02*
X3836253Y-10055531D01*
X3836253Y-10055531D02*
X3845777Y-10074579D01*
X3845777Y-10074579D02*
X3855301Y-10112674D01*
X3855301Y-10112674D02*
X3855301Y-10160293D01*
X3855301Y-10160293D02*
X3845777Y-10198389D01*
X3845777Y-10198389D02*
X3836253Y-10217436D01*
X3836253Y-10217436D02*
X3826729Y-10226960D01*
X3826729Y-10226960D02*
X3807682Y-10236484D01*
X3807682Y-10236484D02*
X3788634Y-10236484D01*
X3788634Y-10236484D02*
X3769586Y-10226960D01*
X3769586Y-10226960D02*
X3760063Y-10217436D01*
X3760063Y-10217436D02*
X3750539Y-10198389D01*
X3750539Y-10198389D02*
X3741015Y-10160293D01*
X3741015Y-10160293D02*
X3741015Y-10112674D01*
X3741015Y-10112674D02*
X3750539Y-10074579D01*
X3750539Y-10074579D02*
X3760063Y-10055531D01*
X3760063Y-10055531D02*
X3769586Y-10046008D01*
X3769586Y-10046008D02*
X3788634Y-10036484D01*
X3941015Y-10217436D02*
X3950539Y-10226960D01*
X3950539Y-10226960D02*
X3941015Y-10236484D01*
X3941015Y-10236484D02*
X3931491Y-10226960D01*
X3931491Y-10226960D02*
X3941015Y-10217436D01*
X3941015Y-10217436D02*
X3941015Y-10236484D01*
X4141015Y-10236484D02*
X4026729Y-10236484D01*
X4083872Y-10236484D02*
X4083872Y-10036484D01*
X4083872Y-10036484D02*
X4064825Y-10065055D01*
X4064825Y-10065055D02*
X4045777Y-10084103D01*
X4045777Y-10084103D02*
X4026729Y-10093627D01*
X4321968Y-10036484D02*
X4226729Y-10036484D01*
X4226729Y-10036484D02*
X4217206Y-10131722D01*
X4217206Y-10131722D02*
X4226729Y-10122198D01*
X4226729Y-10122198D02*
X4245777Y-10112674D01*
X4245777Y-10112674D02*
X4293396Y-10112674D01*
X4293396Y-10112674D02*
X4312444Y-10122198D01*
X4312444Y-10122198D02*
X4321968Y-10131722D01*
X4321968Y-10131722D02*
X4331491Y-10150770D01*
X4331491Y-10150770D02*
X4331491Y-10198389D01*
X4331491Y-10198389D02*
X4321968Y-10217436D01*
X4321968Y-10217436D02*
X4312444Y-10226960D01*
X4312444Y-10226960D02*
X4293396Y-10236484D01*
X4293396Y-10236484D02*
X4245777Y-10236484D01*
X4245777Y-10236484D02*
X4226729Y-10226960D01*
X4226729Y-10226960D02*
X4217206Y-10217436D01*
X4398158Y-10036484D02*
X4531491Y-10036484D01*
X4531491Y-10036484D02*
X4445777Y-10236484D01*
X4645777Y-10036484D02*
X4664825Y-10036484D01*
X4664825Y-10036484D02*
X4683872Y-10046008D01*
X4683872Y-10046008D02*
X4693396Y-10055531D01*
X4693396Y-10055531D02*
X4702920Y-10074579D01*
X4702920Y-10074579D02*
X4712444Y-10112674D01*
X4712444Y-10112674D02*
X4712444Y-10160293D01*
X4712444Y-10160293D02*
X4702920Y-10198389D01*
X4702920Y-10198389D02*
X4693396Y-10217436D01*
X4693396Y-10217436D02*
X4683872Y-10226960D01*
X4683872Y-10226960D02*
X4664825Y-10236484D01*
X4664825Y-10236484D02*
X4645777Y-10236484D01*
X4645777Y-10236484D02*
X4626729Y-10226960D01*
X4626729Y-10226960D02*
X4617206Y-10217436D01*
X4617206Y-10217436D02*
X4607682Y-10198389D01*
X4607682Y-10198389D02*
X4598158Y-10160293D01*
X4598158Y-10160293D02*
X4598158Y-10112674D01*
X4598158Y-10112674D02*
X4607682Y-10074579D01*
X4607682Y-10074579D02*
X4617206Y-10055531D01*
X4617206Y-10055531D02*
X4626729Y-10046008D01*
X4626729Y-10046008D02*
X4645777Y-10036484D01*
X4788634Y-10036484D02*
X4788634Y-10074579D01*
X4864825Y-10036484D02*
X4864825Y-10074579D01*
X5160063Y-10312674D02*
X5150539Y-10303150D01*
X5150539Y-10303150D02*
X5131491Y-10274579D01*
X5131491Y-10274579D02*
X5121968Y-10255531D01*
X5121968Y-10255531D02*
X5112444Y-10226960D01*
X5112444Y-10226960D02*
X5102920Y-10179341D01*
X5102920Y-10179341D02*
X5102920Y-10141246D01*
X5102920Y-10141246D02*
X5112444Y-10093627D01*
X5112444Y-10093627D02*
X5121968Y-10065055D01*
X5121968Y-10065055D02*
X5131491Y-10046008D01*
X5131491Y-10046008D02*
X5150539Y-10017436D01*
X5150539Y-10017436D02*
X5160063Y-10007912D01*
X5321968Y-10036484D02*
X5283872Y-10036484D01*
X5283872Y-10036484D02*
X5264825Y-10046008D01*
X5264825Y-10046008D02*
X5255301Y-10055531D01*
X5255301Y-10055531D02*
X5236253Y-10084103D01*
X5236253Y-10084103D02*
X5226730Y-10122198D01*
X5226730Y-10122198D02*
X5226730Y-10198389D01*
X5226730Y-10198389D02*
X5236253Y-10217436D01*
X5236253Y-10217436D02*
X5245777Y-10226960D01*
X5245777Y-10226960D02*
X5264825Y-10236484D01*
X5264825Y-10236484D02*
X5302920Y-10236484D01*
X5302920Y-10236484D02*
X5321968Y-10226960D01*
X5321968Y-10226960D02*
X5331491Y-10217436D01*
X5331491Y-10217436D02*
X5341015Y-10198389D01*
X5341015Y-10198389D02*
X5341015Y-10150770D01*
X5341015Y-10150770D02*
X5331491Y-10131722D01*
X5331491Y-10131722D02*
X5321968Y-10122198D01*
X5321968Y-10122198D02*
X5302920Y-10112674D01*
X5302920Y-10112674D02*
X5264825Y-10112674D01*
X5264825Y-10112674D02*
X5245777Y-10122198D01*
X5245777Y-10122198D02*
X5236253Y-10131722D01*
X5236253Y-10131722D02*
X5226730Y-10150770D01*
X5436253Y-10236484D02*
X5474349Y-10236484D01*
X5474349Y-10236484D02*
X5493396Y-10226960D01*
X5493396Y-10226960D02*
X5502920Y-10217436D01*
X5502920Y-10217436D02*
X5521968Y-10188865D01*
X5521968Y-10188865D02*
X5531491Y-10150770D01*
X5531491Y-10150770D02*
X5531491Y-10074579D01*
X5531491Y-10074579D02*
X5521968Y-10055531D01*
X5521968Y-10055531D02*
X5512444Y-10046008D01*
X5512444Y-10046008D02*
X5493396Y-10036484D01*
X5493396Y-10036484D02*
X5455301Y-10036484D01*
X5455301Y-10036484D02*
X5436253Y-10046008D01*
X5436253Y-10046008D02*
X5426730Y-10055531D01*
X5426730Y-10055531D02*
X5417206Y-10074579D01*
X5417206Y-10074579D02*
X5417206Y-10122198D01*
X5417206Y-10122198D02*
X5426730Y-10141246D01*
X5426730Y-10141246D02*
X5436253Y-10150770D01*
X5436253Y-10150770D02*
X5455301Y-10160293D01*
X5455301Y-10160293D02*
X5493396Y-10160293D01*
X5493396Y-10160293D02*
X5512444Y-10150770D01*
X5512444Y-10150770D02*
X5521968Y-10141246D01*
X5521968Y-10141246D02*
X5531491Y-10122198D01*
X5769587Y-10236484D02*
X5769587Y-10036484D01*
X5855301Y-10236484D02*
X5855301Y-10131722D01*
X5855301Y-10131722D02*
X5845777Y-10112674D01*
X5845777Y-10112674D02*
X5826730Y-10103150D01*
X5826730Y-10103150D02*
X5798158Y-10103150D01*
X5798158Y-10103150D02*
X5779110Y-10112674D01*
X5779110Y-10112674D02*
X5769587Y-10122198D01*
X5979110Y-10236484D02*
X5960063Y-10226960D01*
X5960063Y-10226960D02*
X5950539Y-10217436D01*
X5950539Y-10217436D02*
X5941015Y-10198389D01*
X5941015Y-10198389D02*
X5941015Y-10141246D01*
X5941015Y-10141246D02*
X5950539Y-10122198D01*
X5950539Y-10122198D02*
X5960063Y-10112674D01*
X5960063Y-10112674D02*
X5979110Y-10103150D01*
X5979110Y-10103150D02*
X6007682Y-10103150D01*
X6007682Y-10103150D02*
X6026730Y-10112674D01*
X6026730Y-10112674D02*
X6036253Y-10122198D01*
X6036253Y-10122198D02*
X6045777Y-10141246D01*
X6045777Y-10141246D02*
X6045777Y-10198389D01*
X6045777Y-10198389D02*
X6036253Y-10217436D01*
X6036253Y-10217436D02*
X6026730Y-10226960D01*
X6026730Y-10226960D02*
X6007682Y-10236484D01*
X6007682Y-10236484D02*
X5979110Y-10236484D01*
X6160063Y-10236484D02*
X6141015Y-10226960D01*
X6141015Y-10226960D02*
X6131491Y-10207912D01*
X6131491Y-10207912D02*
X6131491Y-10036484D01*
X6312444Y-10226960D02*
X6293396Y-10236484D01*
X6293396Y-10236484D02*
X6255301Y-10236484D01*
X6255301Y-10236484D02*
X6236253Y-10226960D01*
X6236253Y-10226960D02*
X6226730Y-10207912D01*
X6226730Y-10207912D02*
X6226730Y-10131722D01*
X6226730Y-10131722D02*
X6236253Y-10112674D01*
X6236253Y-10112674D02*
X6255301Y-10103150D01*
X6255301Y-10103150D02*
X6293396Y-10103150D01*
X6293396Y-10103150D02*
X6312444Y-10112674D01*
X6312444Y-10112674D02*
X6321968Y-10131722D01*
X6321968Y-10131722D02*
X6321968Y-10150770D01*
X6321968Y-10150770D02*
X6226730Y-10169817D01*
X6398158Y-10226960D02*
X6417206Y-10236484D01*
X6417206Y-10236484D02*
X6455301Y-10236484D01*
X6455301Y-10236484D02*
X6474349Y-10226960D01*
X6474349Y-10226960D02*
X6483872Y-10207912D01*
X6483872Y-10207912D02*
X6483872Y-10198389D01*
X6483872Y-10198389D02*
X6474349Y-10179341D01*
X6474349Y-10179341D02*
X6455301Y-10169817D01*
X6455301Y-10169817D02*
X6426730Y-10169817D01*
X6426730Y-10169817D02*
X6407682Y-10160293D01*
X6407682Y-10160293D02*
X6398158Y-10141246D01*
X6398158Y-10141246D02*
X6398158Y-10131722D01*
X6398158Y-10131722D02*
X6407682Y-10112674D01*
X6407682Y-10112674D02*
X6426730Y-10103150D01*
X6426730Y-10103150D02*
X6455301Y-10103150D01*
X6455301Y-10103150D02*
X6474349Y-10112674D01*
X6550539Y-10312674D02*
X6560063Y-10303150D01*
X6560063Y-10303150D02*
X6579111Y-10274579D01*
X6579111Y-10274579D02*
X6588634Y-10255531D01*
X6588634Y-10255531D02*
X6598158Y-10226960D01*
X6598158Y-10226960D02*
X6607682Y-10179341D01*
X6607682Y-10179341D02*
X6607682Y-10141246D01*
X6607682Y-10141246D02*
X6598158Y-10093627D01*
X6598158Y-10093627D02*
X6588634Y-10065055D01*
X6588634Y-10065055D02*
X6579111Y-10046008D01*
X6579111Y-10046008D02*
X6560063Y-10017436D01*
X6560063Y-10017436D02*
X6550539Y-10007912D01*
X6912444Y-10312674D02*
X6902920Y-10303150D01*
X6902920Y-10303150D02*
X6883872Y-10274579D01*
X6883872Y-10274579D02*
X6874349Y-10255531D01*
X6874349Y-10255531D02*
X6864825Y-10226960D01*
X6864825Y-10226960D02*
X6855301Y-10179341D01*
X6855301Y-10179341D02*
X6855301Y-10141246D01*
X6855301Y-10141246D02*
X6864825Y-10093627D01*
X6864825Y-10093627D02*
X6874349Y-10065055D01*
X6874349Y-10065055D02*
X6883872Y-10046008D01*
X6883872Y-10046008D02*
X6902920Y-10017436D01*
X6902920Y-10017436D02*
X6912444Y-10007912D01*
X6988634Y-10103150D02*
X6988634Y-10236484D01*
X6988634Y-10122198D02*
X6998158Y-10112674D01*
X6998158Y-10112674D02*
X7017206Y-10103150D01*
X7017206Y-10103150D02*
X7045777Y-10103150D01*
X7045777Y-10103150D02*
X7064825Y-10112674D01*
X7064825Y-10112674D02*
X7074349Y-10131722D01*
X7074349Y-10131722D02*
X7074349Y-10236484D01*
X7198158Y-10236484D02*
X7179111Y-10226960D01*
X7179111Y-10226960D02*
X7169587Y-10217436D01*
X7169587Y-10217436D02*
X7160063Y-10198389D01*
X7160063Y-10198389D02*
X7160063Y-10141246D01*
X7160063Y-10141246D02*
X7169587Y-10122198D01*
X7169587Y-10122198D02*
X7179111Y-10112674D01*
X7179111Y-10112674D02*
X7198158Y-10103150D01*
X7198158Y-10103150D02*
X7226730Y-10103150D01*
X7226730Y-10103150D02*
X7245777Y-10112674D01*
X7245777Y-10112674D02*
X7255301Y-10122198D01*
X7255301Y-10122198D02*
X7264825Y-10141246D01*
X7264825Y-10141246D02*
X7264825Y-10198389D01*
X7264825Y-10198389D02*
X7255301Y-10217436D01*
X7255301Y-10217436D02*
X7245777Y-10226960D01*
X7245777Y-10226960D02*
X7226730Y-10236484D01*
X7226730Y-10236484D02*
X7198158Y-10236484D01*
X7321968Y-10103150D02*
X7398158Y-10103150D01*
X7350539Y-10036484D02*
X7350539Y-10207912D01*
X7350539Y-10207912D02*
X7360063Y-10226960D01*
X7360063Y-10226960D02*
X7379111Y-10236484D01*
X7379111Y-10236484D02*
X7398158Y-10236484D01*
X7617206Y-10103150D02*
X7617206Y-10303150D01*
X7617206Y-10112674D02*
X7636253Y-10103150D01*
X7636253Y-10103150D02*
X7674349Y-10103150D01*
X7674349Y-10103150D02*
X7693396Y-10112674D01*
X7693396Y-10112674D02*
X7702920Y-10122198D01*
X7702920Y-10122198D02*
X7712444Y-10141246D01*
X7712444Y-10141246D02*
X7712444Y-10198389D01*
X7712444Y-10198389D02*
X7702920Y-10217436D01*
X7702920Y-10217436D02*
X7693396Y-10226960D01*
X7693396Y-10226960D02*
X7674349Y-10236484D01*
X7674349Y-10236484D02*
X7636253Y-10236484D01*
X7636253Y-10236484D02*
X7617206Y-10226960D01*
X7826730Y-10236484D02*
X7807682Y-10226960D01*
X7807682Y-10226960D02*
X7798158Y-10207912D01*
X7798158Y-10207912D02*
X7798158Y-10036484D01*
X7988634Y-10236484D02*
X7988634Y-10131722D01*
X7988634Y-10131722D02*
X7979111Y-10112674D01*
X7979111Y-10112674D02*
X7960063Y-10103150D01*
X7960063Y-10103150D02*
X7921968Y-10103150D01*
X7921968Y-10103150D02*
X7902920Y-10112674D01*
X7988634Y-10226960D02*
X7969587Y-10236484D01*
X7969587Y-10236484D02*
X7921968Y-10236484D01*
X7921968Y-10236484D02*
X7902920Y-10226960D01*
X7902920Y-10226960D02*
X7893396Y-10207912D01*
X7893396Y-10207912D02*
X7893396Y-10188865D01*
X7893396Y-10188865D02*
X7902920Y-10169817D01*
X7902920Y-10169817D02*
X7921968Y-10160293D01*
X7921968Y-10160293D02*
X7969587Y-10160293D01*
X7969587Y-10160293D02*
X7988634Y-10150770D01*
X8055301Y-10103150D02*
X8131492Y-10103150D01*
X8083873Y-10036484D02*
X8083873Y-10207912D01*
X8083873Y-10207912D02*
X8093396Y-10226960D01*
X8093396Y-10226960D02*
X8112444Y-10236484D01*
X8112444Y-10236484D02*
X8131492Y-10236484D01*
X8274349Y-10226960D02*
X8255301Y-10236484D01*
X8255301Y-10236484D02*
X8217206Y-10236484D01*
X8217206Y-10236484D02*
X8198158Y-10226960D01*
X8198158Y-10226960D02*
X8188634Y-10207912D01*
X8188634Y-10207912D02*
X8188634Y-10131722D01*
X8188634Y-10131722D02*
X8198158Y-10112674D01*
X8198158Y-10112674D02*
X8217206Y-10103150D01*
X8217206Y-10103150D02*
X8255301Y-10103150D01*
X8255301Y-10103150D02*
X8274349Y-10112674D01*
X8274349Y-10112674D02*
X8283873Y-10131722D01*
X8283873Y-10131722D02*
X8283873Y-10150770D01*
X8283873Y-10150770D02*
X8188634Y-10169817D01*
X8455301Y-10236484D02*
X8455301Y-10036484D01*
X8455301Y-10226960D02*
X8436254Y-10236484D01*
X8436254Y-10236484D02*
X8398158Y-10236484D01*
X8398158Y-10236484D02*
X8379111Y-10226960D01*
X8379111Y-10226960D02*
X8369587Y-10217436D01*
X8369587Y-10217436D02*
X8360063Y-10198389D01*
X8360063Y-10198389D02*
X8360063Y-10141246D01*
X8360063Y-10141246D02*
X8369587Y-10122198D01*
X8369587Y-10122198D02*
X8379111Y-10112674D01*
X8379111Y-10112674D02*
X8398158Y-10103150D01*
X8398158Y-10103150D02*
X8436254Y-10103150D01*
X8436254Y-10103150D02*
X8455301Y-10112674D01*
X8531492Y-10312674D02*
X8541016Y-10303150D01*
X8541016Y-10303150D02*
X8560063Y-10274579D01*
X8560063Y-10274579D02*
X8569587Y-10255531D01*
X8569587Y-10255531D02*
X8579111Y-10226960D01*
X8579111Y-10226960D02*
X8588635Y-10179341D01*
X8588635Y-10179341D02*
X8588635Y-10141246D01*
X8588635Y-10141246D02*
X8579111Y-10093627D01*
X8579111Y-10093627D02*
X8569587Y-10065055D01*
X8569587Y-10065055D02*
X8560063Y-10046008D01*
X8560063Y-10046008D02*
X8541016Y-10017436D01*
X8541016Y-10017436D02*
X8531492Y-10007912D01*
M02*
