G04 #@! TF.GenerationSoftware,KiCad,Pcbnew,8.0.2-1.fc39*
G04 #@! TF.CreationDate,2024-06-01T14:36:52-04:00*
G04 #@! TF.ProjectId,KeychronQ9OrthoIntegrated,4b657963-6872-46f6-9e51-394f7274686f,rev?*
G04 #@! TF.SameCoordinates,Original*
G04 #@! TF.FileFunction,Soldermask,Top*
G04 #@! TF.FilePolarity,Negative*
%FSLAX46Y46*%
G04 Gerber Fmt 4.6, Leading zero omitted, Abs format (unit mm)*
G04 Created by KiCad (PCBNEW 8.0.2-1.fc39) date 2024-06-01 14:36:52*
%MOMM*%
%LPD*%
G01*
G04 APERTURE LIST*
%ADD10C,3.987800*%
%ADD11C,1.750000*%
%ADD12C,3.300000*%
%ADD13C,4.000000*%
%ADD14R,1.700000X1.700000*%
%ADD15O,1.700000X1.700000*%
G04 APERTURE END LIST*
D10*
G04 #@! TO.C,S3*
X161131250Y-74295000D03*
X137318750Y-74295000D03*
G04 #@! TD*
G04 #@! TO.C,S4*
X275431042Y-74295000D03*
X251618542Y-74295000D03*
G04 #@! TD*
D11*
G04 #@! TO.C,MX54*
X125730000Y-82550000D03*
D10*
X120650000Y-82550000D03*
D11*
X115570000Y-82550000D03*
D12*
X116840000Y-80010000D03*
X123190000Y-77470000D03*
G04 #@! TD*
D11*
G04 #@! TO.C,MX9*
X182880000Y-25400000D03*
D10*
X177800000Y-25400000D03*
D11*
X172720000Y-25400000D03*
D12*
X173990000Y-22860000D03*
X180340000Y-20320000D03*
G04 #@! TD*
D11*
G04 #@! TO.C,MX37*
X106680000Y-63500000D03*
D10*
X101600000Y-63500000D03*
D11*
X96520000Y-63500000D03*
D12*
X97790000Y-60960000D03*
X104140000Y-58420000D03*
G04 #@! TD*
D11*
G04 #@! TO.C,MX20*
X87630000Y-44450000D03*
D10*
X82550000Y-44450000D03*
D11*
X77470000Y-44450000D03*
D12*
X78740000Y-41910000D03*
X85090000Y-39370000D03*
G04 #@! TD*
D11*
G04 #@! TO.C,MX49*
X49530000Y-82550000D03*
D10*
X44450000Y-82550000D03*
D11*
X39370000Y-82550000D03*
D12*
X40640000Y-80010000D03*
X46990000Y-77470000D03*
G04 #@! TD*
D11*
G04 #@! TO.C,MX36*
X87630000Y-63500000D03*
D10*
X82550000Y-63500000D03*
D11*
X77470000Y-63500000D03*
D12*
X78740000Y-60960000D03*
X85090000Y-58420000D03*
G04 #@! TD*
D11*
G04 #@! TO.C,MX16*
X320992500Y-25400000D03*
D10*
X315912500Y-25400000D03*
D11*
X310832500Y-25400000D03*
D12*
X312102500Y-22860000D03*
X318452500Y-20320000D03*
G04 #@! TD*
D11*
G04 #@! TO.C,MX5*
X106680000Y-25400000D03*
D10*
X101600000Y-25400000D03*
D11*
X96520000Y-25400000D03*
D12*
X97790000Y-22860000D03*
X104140000Y-20320000D03*
G04 #@! TD*
D11*
G04 #@! TO.C,MX35*
X68580000Y-63500000D03*
D10*
X63500000Y-63500000D03*
D11*
X58420000Y-63500000D03*
D12*
X59690000Y-60960000D03*
X66040000Y-58420000D03*
G04 #@! TD*
D11*
G04 #@! TO.C,MX59*
X220980000Y-82550000D03*
D10*
X215900000Y-82550000D03*
D11*
X210820000Y-82550000D03*
D12*
X212090000Y-80010000D03*
X218440000Y-77470000D03*
G04 #@! TD*
D11*
G04 #@! TO.C,MX30*
X278130000Y-44450000D03*
D10*
X273050000Y-44450000D03*
D11*
X267970000Y-44450000D03*
D12*
X269240000Y-41910000D03*
X275590000Y-39370000D03*
G04 #@! TD*
D11*
G04 #@! TO.C,MX44*
X240030000Y-63500000D03*
D10*
X234950000Y-63500000D03*
D11*
X229870000Y-63500000D03*
D12*
X231140000Y-60960000D03*
X237490000Y-58420000D03*
G04 #@! TD*
D11*
G04 #@! TO.C,MX50*
X68580000Y-82550000D03*
D10*
X63500000Y-82550000D03*
D11*
X58420000Y-82550000D03*
D12*
X59690000Y-80010000D03*
X66040000Y-77470000D03*
G04 #@! TD*
D11*
G04 #@! TO.C,MX56*
X163830000Y-82550000D03*
D10*
X158750000Y-82550000D03*
D11*
X153670000Y-82550000D03*
D12*
X154940000Y-80010000D03*
X161290000Y-77470000D03*
G04 #@! TD*
D11*
G04 #@! TO.C,MX47*
X297180000Y-63500000D03*
D10*
X292100000Y-63500000D03*
D11*
X287020000Y-63500000D03*
D12*
X288290000Y-60960000D03*
X294640000Y-58420000D03*
G04 #@! TD*
D11*
G04 #@! TO.C,MX42*
X201930000Y-63500000D03*
D10*
X196850000Y-63500000D03*
D11*
X191770000Y-63500000D03*
D12*
X193040000Y-60960000D03*
X199390000Y-58420000D03*
G04 #@! TD*
D11*
G04 #@! TO.C,MX1*
X30480000Y-25400000D03*
D10*
X25400000Y-25400000D03*
D11*
X20320000Y-25400000D03*
D12*
X21590000Y-22860000D03*
X27940000Y-20320000D03*
G04 #@! TD*
D11*
G04 #@! TO.C,MX65*
X316230000Y-82550000D03*
D10*
X311150000Y-82550000D03*
D11*
X306070000Y-82550000D03*
D12*
X307340000Y-80010000D03*
X313690000Y-77470000D03*
G04 #@! TD*
D11*
G04 #@! TO.C,MX40*
X163830000Y-63500000D03*
D10*
X158750000Y-63500000D03*
D11*
X153670000Y-63500000D03*
D12*
X154940000Y-60960000D03*
X161290000Y-58420000D03*
G04 #@! TD*
D11*
G04 #@! TO.C,MX28*
X240030000Y-44450000D03*
D10*
X234950000Y-44450000D03*
D11*
X229870000Y-44450000D03*
D12*
X231140000Y-41910000D03*
X237490000Y-39370000D03*
G04 #@! TD*
D11*
G04 #@! TO.C,MX67*
X258444793Y-82550000D03*
D10*
X263524792Y-82550000D03*
D11*
X268604791Y-82550000D03*
D12*
X267334792Y-85090000D03*
X260984792Y-87630000D03*
G04 #@! TD*
D11*
G04 #@! TO.C,MX63*
X278130000Y-82550000D03*
D10*
X273050000Y-82550000D03*
D11*
X267970000Y-82550000D03*
D12*
X269240000Y-80010000D03*
X275590000Y-77470000D03*
G04 #@! TD*
D11*
G04 #@! TO.C,MX19*
X68580000Y-44450000D03*
D10*
X63500000Y-44450000D03*
D11*
X58420000Y-44450000D03*
D12*
X59690000Y-41910000D03*
X66040000Y-39370000D03*
G04 #@! TD*
D10*
G04 #@! TO.C,S5*
X194468749Y-74295000D03*
D13*
X194468750Y-89535000D03*
X218281250Y-89535000D03*
D10*
X218281251Y-74295000D03*
G04 #@! TD*
D11*
G04 #@! TO.C,MX51*
X87630000Y-82550000D03*
D10*
X82550000Y-82550000D03*
D11*
X77470000Y-82550000D03*
D12*
X78740000Y-80010000D03*
X85090000Y-77470000D03*
G04 #@! TD*
D10*
G04 #@! TO.C,S2*
X213518750Y-74295000D03*
D13*
X213518750Y-89535000D03*
D10*
X237331250Y-74295000D03*
D13*
X237331250Y-89535000D03*
G04 #@! TD*
D11*
G04 #@! TO.C,MX31*
X297180000Y-44450000D03*
D10*
X292100000Y-44450000D03*
D11*
X287020000Y-44450000D03*
D12*
X288290000Y-41910000D03*
X294640000Y-39370000D03*
G04 #@! TD*
D11*
G04 #@! TO.C,MX10*
X201930000Y-25400000D03*
D10*
X196850000Y-25400000D03*
D11*
X191770000Y-25400000D03*
D12*
X193040000Y-22860000D03*
X199390000Y-20320000D03*
G04 #@! TD*
D11*
G04 #@! TO.C,MX12*
X240030000Y-25400000D03*
D10*
X234950000Y-25400000D03*
D11*
X229870000Y-25400000D03*
D12*
X231140000Y-22860000D03*
X237490000Y-20320000D03*
G04 #@! TD*
D11*
G04 #@! TO.C,MX23*
X144780000Y-44450000D03*
D10*
X139700000Y-44450000D03*
D11*
X134620000Y-44450000D03*
D12*
X135890000Y-41910000D03*
X142240000Y-39370000D03*
G04 #@! TD*
D11*
G04 #@! TO.C,MX17*
X30480000Y-44450000D03*
D10*
X25400000Y-44450000D03*
D11*
X20320000Y-44450000D03*
D12*
X21590000Y-41910000D03*
X27940000Y-39370000D03*
G04 #@! TD*
D11*
G04 #@! TO.C,MX24*
X163830000Y-44450000D03*
D10*
X158750000Y-44450000D03*
D11*
X153670000Y-44450000D03*
D12*
X154940000Y-41910000D03*
X161290000Y-39370000D03*
G04 #@! TD*
D11*
G04 #@! TO.C,MX27*
X220980000Y-44450000D03*
D10*
X215900000Y-44450000D03*
D11*
X210820000Y-44450000D03*
D12*
X212090000Y-41910000D03*
X218440000Y-39370000D03*
G04 #@! TD*
D11*
G04 #@! TO.C,MX26*
X201930000Y-44450000D03*
D10*
X196850000Y-44450000D03*
D11*
X191770000Y-44450000D03*
D12*
X193040000Y-41910000D03*
X199390000Y-39370000D03*
G04 #@! TD*
D11*
G04 #@! TO.C,MX13*
X259080000Y-25400000D03*
D10*
X254000000Y-25400000D03*
D11*
X248920000Y-25400000D03*
D12*
X250190000Y-22860000D03*
X256540000Y-20320000D03*
G04 #@! TD*
D11*
G04 #@! TO.C,MX53*
X106045000Y-82550000D03*
D10*
X111125000Y-82550000D03*
D11*
X116205000Y-82550000D03*
D12*
X114935000Y-85090000D03*
X108585000Y-87630000D03*
G04 #@! TD*
D11*
G04 #@! TO.C,MX62*
X259080000Y-82550000D03*
D10*
X254000000Y-82550000D03*
D11*
X248920000Y-82550000D03*
D12*
X250190000Y-80010000D03*
X256540000Y-77470000D03*
G04 #@! TD*
D11*
G04 #@! TO.C,MX4*
X87630000Y-25400000D03*
D10*
X82550000Y-25400000D03*
D11*
X77470000Y-25400000D03*
D12*
X78740000Y-22860000D03*
X85090000Y-20320000D03*
G04 #@! TD*
D11*
G04 #@! TO.C,MX43*
X220980000Y-63500000D03*
D10*
X215900000Y-63500000D03*
D11*
X210820000Y-63500000D03*
D12*
X212090000Y-60960000D03*
X218440000Y-58420000D03*
G04 #@! TD*
D11*
G04 #@! TO.C,MX52*
X106680000Y-82550000D03*
D10*
X101600000Y-82550000D03*
D11*
X96520000Y-82550000D03*
D12*
X97790000Y-80010000D03*
X104140000Y-77470000D03*
G04 #@! TD*
D11*
G04 #@! TO.C,MX41*
X182880000Y-63500000D03*
D10*
X177800000Y-63500000D03*
D11*
X172720000Y-63500000D03*
D12*
X173990000Y-60960000D03*
X180340000Y-58420000D03*
G04 #@! TD*
D11*
G04 #@! TO.C,MX15*
X297180000Y-25400000D03*
D10*
X292100000Y-25400000D03*
D11*
X287020000Y-25400000D03*
D12*
X288290000Y-22860000D03*
X294640000Y-20320000D03*
G04 #@! TD*
D11*
G04 #@! TO.C,MX57*
X182880000Y-82550000D03*
D10*
X177800000Y-82550000D03*
D11*
X172720000Y-82550000D03*
D12*
X173990000Y-80010000D03*
X180340000Y-77470000D03*
G04 #@! TD*
D11*
G04 #@! TO.C,MX38*
X125730000Y-63500000D03*
D10*
X120650000Y-63500000D03*
D11*
X115570000Y-63500000D03*
D12*
X116840000Y-60960000D03*
X123190000Y-58420000D03*
G04 #@! TD*
D11*
G04 #@! TO.C,MX66*
X144145001Y-82550000D03*
D10*
X149225000Y-82550000D03*
D11*
X154304999Y-82550000D03*
D12*
X153035000Y-85090000D03*
X146685000Y-87630000D03*
G04 #@! TD*
D11*
G04 #@! TO.C,MX14*
X278130000Y-25400000D03*
D10*
X273050000Y-25400000D03*
D11*
X267970000Y-25400000D03*
D12*
X269240000Y-22860000D03*
X275590000Y-20320000D03*
G04 #@! TD*
D11*
G04 #@! TO.C,MX11*
X220980000Y-25400000D03*
D10*
X215900000Y-25400000D03*
D11*
X210820000Y-25400000D03*
D12*
X212090000Y-22860000D03*
X218440000Y-20320000D03*
G04 #@! TD*
D11*
G04 #@! TO.C,MX48*
X30480000Y-82550000D03*
D10*
X25400000Y-82550000D03*
D11*
X20320000Y-82550000D03*
D12*
X21590000Y-80010000D03*
X27940000Y-77470000D03*
G04 #@! TD*
D11*
G04 #@! TO.C,MX21*
X106680000Y-44450000D03*
D10*
X101600000Y-44450000D03*
D11*
X96520000Y-44450000D03*
D12*
X97790000Y-41910000D03*
X104140000Y-39370000D03*
G04 #@! TD*
D11*
G04 #@! TO.C,MX25*
X182880000Y-44450000D03*
D10*
X177800000Y-44450000D03*
D11*
X172720000Y-44450000D03*
D12*
X173990000Y-41910000D03*
X180340000Y-39370000D03*
G04 #@! TD*
D11*
G04 #@! TO.C,MX32*
X320992500Y-49212500D03*
D10*
X315912500Y-49212500D03*
D11*
X310832500Y-49212500D03*
D12*
X312102500Y-46672500D03*
X318452500Y-44132500D03*
G04 #@! TD*
D11*
G04 #@! TO.C,MX22*
X125730000Y-44450000D03*
D10*
X120650000Y-44450000D03*
D11*
X115570000Y-44450000D03*
D12*
X116840000Y-41910000D03*
X123190000Y-39370000D03*
G04 #@! TD*
D11*
G04 #@! TO.C,MX46*
X278130000Y-63500000D03*
D10*
X273050000Y-63500000D03*
D11*
X267970000Y-63500000D03*
D12*
X269240000Y-60960000D03*
X275590000Y-58420000D03*
G04 #@! TD*
D11*
G04 #@! TO.C,MX39*
X144780000Y-63500000D03*
D10*
X139700000Y-63500000D03*
D11*
X134620000Y-63500000D03*
D12*
X135890000Y-60960000D03*
X142240000Y-58420000D03*
G04 #@! TD*
D11*
G04 #@! TO.C,MX29*
X259080000Y-44450000D03*
D10*
X254000000Y-44450000D03*
D11*
X248920000Y-44450000D03*
D12*
X250190000Y-41910000D03*
X256540000Y-39370000D03*
G04 #@! TD*
D11*
G04 #@! TO.C,MX61*
X240030000Y-82550000D03*
D10*
X234950000Y-82550000D03*
D11*
X229870000Y-82550000D03*
D12*
X231140000Y-80010000D03*
X237490000Y-77470000D03*
G04 #@! TD*
D11*
G04 #@! TO.C,MX33*
X30480000Y-63500000D03*
D10*
X25400000Y-63500000D03*
D11*
X20320000Y-63500000D03*
D12*
X21590000Y-60960000D03*
X27940000Y-58420000D03*
G04 #@! TD*
D11*
G04 #@! TO.C,MX34*
X49530000Y-63500000D03*
D10*
X44450000Y-63500000D03*
D11*
X39370000Y-63500000D03*
D12*
X40640000Y-60960000D03*
X46990000Y-58420000D03*
G04 #@! TD*
D10*
G04 #@! TO.C,S1*
X99218750Y-74295000D03*
D13*
X99218750Y-89535000D03*
D10*
X123031250Y-74295000D03*
D13*
X123031250Y-89535000D03*
G04 #@! TD*
D14*
G04 #@! TO.C,J3*
X296584432Y-89892112D03*
D15*
X299124432Y-89892112D03*
X301664432Y-89892112D03*
X304204432Y-89892112D03*
X306744432Y-89892112D03*
G04 #@! TD*
D11*
G04 #@! TO.C,MX45*
X259080000Y-63500000D03*
D10*
X254000000Y-63500000D03*
D11*
X248920000Y-63500000D03*
D12*
X250190000Y-60960000D03*
X256540000Y-58420000D03*
G04 #@! TD*
D11*
G04 #@! TO.C,MX68*
X201295001Y-82550000D03*
D10*
X206375000Y-82550000D03*
D11*
X211454999Y-82550000D03*
D12*
X210185000Y-85090000D03*
X203835000Y-87630000D03*
G04 #@! TD*
D11*
G04 #@! TO.C,MX64*
X297180000Y-82550000D03*
D10*
X292100000Y-82550000D03*
D11*
X287020000Y-82550000D03*
D12*
X288290000Y-80010000D03*
X294640000Y-77470000D03*
G04 #@! TD*
D11*
G04 #@! TO.C,MX18*
X49530000Y-44450000D03*
D10*
X44450000Y-44450000D03*
D11*
X39370000Y-44450000D03*
D12*
X40640000Y-41910000D03*
X46990000Y-39370000D03*
G04 #@! TD*
D11*
G04 #@! TO.C,MX55*
X144780000Y-82550000D03*
D10*
X139700000Y-82550000D03*
D11*
X134620000Y-82550000D03*
D12*
X135890000Y-80010000D03*
X142240000Y-77470000D03*
G04 #@! TD*
D11*
G04 #@! TO.C,MX60*
X220345000Y-82550000D03*
D10*
X225425000Y-82550000D03*
D11*
X230505000Y-82550000D03*
D12*
X229235000Y-85090000D03*
X222885000Y-87630000D03*
G04 #@! TD*
D11*
G04 #@! TO.C,MX2*
X49530000Y-25400000D03*
D10*
X44450000Y-25400000D03*
D11*
X39370000Y-25400000D03*
D12*
X40640000Y-22860000D03*
X46990000Y-20320000D03*
G04 #@! TD*
D11*
G04 #@! TO.C,MX58*
X201930000Y-82550000D03*
D10*
X196850000Y-82550000D03*
D11*
X191770000Y-82550000D03*
D12*
X193040000Y-80010000D03*
X199390000Y-77470000D03*
G04 #@! TD*
D11*
G04 #@! TO.C,MX6*
X125730000Y-25400000D03*
D10*
X120650000Y-25400000D03*
D11*
X115570000Y-25400000D03*
D12*
X116840000Y-22860000D03*
X123190000Y-20320000D03*
G04 #@! TD*
D11*
G04 #@! TO.C,MX8*
X163830000Y-25400000D03*
D10*
X158750000Y-25400000D03*
D11*
X153670000Y-25400000D03*
D12*
X154940000Y-22860000D03*
X161290000Y-20320000D03*
G04 #@! TD*
D11*
G04 #@! TO.C,MX7*
X144780000Y-25400000D03*
D10*
X139700000Y-25400000D03*
D11*
X134620000Y-25400000D03*
D12*
X135890000Y-22860000D03*
X142240000Y-20320000D03*
G04 #@! TD*
D11*
G04 #@! TO.C,MX3*
X68580000Y-25400000D03*
D10*
X63500000Y-25400000D03*
D11*
X58420000Y-25400000D03*
D12*
X59690000Y-22860000D03*
X66040000Y-20320000D03*
G04 #@! TD*
M02*
