M48
; DRILL file {KiCad 8.0.2-1.fc39} date 2024-06-01T14:36:52-0400
; FORMAT={-:-/ absolute / metric / decimal}
; #@! TF.CreationDate,2024-06-01T14:36:52-04:00
; #@! TF.GenerationSoftware,Kicad,Pcbnew,8.0.2-1.fc39
; #@! TF.FileFunction,Plated,1,2,PTH
FMAT,2
METRIC
; #@! TA.AperFunction,Plated,PTH,ViaDrill
T1C0.300
; #@! TA.AperFunction,Plated,PTH,ComponentDrill
T2C1.000
; #@! TA.AperFunction,Plated,PTH,ComponentDrill
T3C3.000
; #@! TA.AperFunction,Plated,PTH,ComponentDrill
T4C3.048
%
G90
G05
T1
X18.064Y-20.482
X23.124Y-73.019
X23.273Y-53.969
X34.882Y-45.783
X34.882Y-48.016
X34.882Y-73.019
X36.965Y-35.961
X37.412Y-45.039
X37.412Y-64.238
X43.811Y-34.472
X44.654Y-53.969
X48.723Y-31.198
X53.932Y-20.482
X53.932Y-73.019
X72.982Y-73.019
X91.883Y-73.019
X92.032Y-18.548
X96.943Y-84.33
X102.747Y-86.86
X111.23Y-56.648
X121.946Y-85.52
X130.026Y-87.759
X130.132Y-56.648
X134.937Y-84.485
X136.872Y-83.741
X140.103Y-73.019
X142.379Y-84.634
X149.33Y-56.648
X158.855Y-34.919
X160.089Y-85.378
X185.985Y-74.067
X187.133Y-37.598
X187.325Y-87.709
X187.43Y-56.945
X193.873Y-83.294
X206.331Y-37.746
X211.243Y-84.627
X216.898Y-86.413
X225.381Y-37.895
X226.467Y-71.537
X244.475Y-73.025
X244.475Y-88.503
X246.261Y-83.443
X249.237Y-84.534
X251.172Y-83.592
X256.53Y-85.229
X260.951Y-46.894
X262.44Y-34.323
X262.44Y-35.123
X262.44Y-35.923
X262.44Y-36.723
X264.672Y-34.323
X264.672Y-35.123
X264.672Y-35.923
X264.672Y-36.723
X266.111Y-46.894
X267.891Y-88.106
X267.891Y-90.487
X273.416Y-87.709
X279.747Y-83.592
X280.541Y-47.767
X282.531Y-33.133
X282.531Y-39.83
X282.922Y-47.767
X284.559Y-47.767
X292.056Y-70.786
X296.819Y-56.201
X296.819Y-60.666
X297.483Y-84.994
X297.619Y-56.201
X297.619Y-60.666
X297.861Y-42.36
X298.419Y-56.201
X298.419Y-60.666
X298.754Y-70.935
X298.754Y-74.656
X299.051Y-46.825
X299.144Y-48.909
X299.144Y-51.439
X299.219Y-56.201
X299.219Y-60.666
X299.819Y-61.717
X299.893Y-70.094
X299.944Y-48.909
X299.944Y-51.439
X300.093Y-65.726
X300.458Y-69.528
X301.024Y-68.962
X301.093Y-71.977
X301.228Y-51.439
X301.228Y-48.9
X301.659Y-68.476
X301.693Y-71.4
X302.028Y-48.909
X302.028Y-51.439
X302.177Y-57.466
X302.362Y-70.647
X302.474Y-40.574
X302.992Y-70.154
X303.07Y-43.848
X303.07Y-77.781
X303.963Y-58.582
X304.26Y-33.43
X304.558Y-55.011
X304.856Y-71.233
X305.004Y-57.541
X305.302Y-50.099
X305.977Y-84.994
X306.335Y-62.591
X306.335Y-64.991
X306.735Y-68.908
X307.535Y-63.791
X307.832Y-40.574
X307.832Y-54.862
X307.981Y-53.076
X308.087Y-57.538
X308.279Y-76.255
X308.623Y-52.598
X308.735Y-62.591
X308.735Y-64.991
X308.8Y-70.426
X308.917Y-42.664
X310.213Y-71.84
X310.958Y-78.674
X312.102Y-31.049
X312.148Y-61.391
X313.041Y-26.138
X313.233Y-61.119
X314.126Y-61.119
X315.274Y-44.295
X315.317Y-61.416
X315.323Y-21.425
X315.808Y-65.945
X315.869Y-71.977
X315.912Y-30.609
X315.912Y-54.719
X316.508Y-58.589
X317.149Y-51.736
X317.208Y-81.204
X318.28Y-68.256
X319.831Y-72.132
X320.59Y-71.848
X321.078Y-51.806
X321.299Y-35.698
X321.349Y-71.598
X321.822Y-46.676
X322.07Y-28.569
X322.12Y-71.382
X322.864Y-71.084
X323.608Y-70.786
X324.054Y-37.746
T2
X296.584Y-89.892
X299.124Y-89.892
X301.664Y-89.892
X304.204Y-89.892
X306.744Y-89.892
X313.412Y-18.4
X313.412Y-32.9
X313.412Y-42.212
X313.412Y-56.712
X315.912Y-32.9
X315.912Y-56.712
X318.412Y-18.4
X318.412Y-32.9
X318.412Y-42.212
X318.412Y-56.712
T3
X21.59Y-22.86
X21.59Y-41.91
X21.59Y-60.96
X21.59Y-80.01
X27.94Y-20.32
X27.94Y-39.37
X27.94Y-58.42
X27.94Y-77.47
X40.64Y-22.86
X40.64Y-41.91
X40.64Y-60.96
X40.64Y-80.01
X46.99Y-20.32
X46.99Y-39.37
X46.99Y-58.42
X46.99Y-77.47
X59.69Y-22.86
X59.69Y-41.91
X59.69Y-60.96
X59.69Y-80.01
X66.04Y-20.32
X66.04Y-39.37
X66.04Y-58.42
X66.04Y-77.47
X78.74Y-22.86
X78.74Y-41.91
X78.74Y-60.96
X78.74Y-80.01
X85.09Y-20.32
X85.09Y-39.37
X85.09Y-58.42
X85.09Y-77.47
X97.79Y-22.86
X97.79Y-41.91
X97.79Y-60.96
X97.79Y-80.01
X104.14Y-20.32
X104.14Y-39.37
X104.14Y-58.42
X104.14Y-77.47
X108.585Y-87.63
X114.935Y-85.09
X116.84Y-22.86
X116.84Y-41.91
X116.84Y-60.96
X116.84Y-80.01
X123.19Y-20.32
X123.19Y-39.37
X123.19Y-58.42
X123.19Y-77.47
X135.89Y-22.86
X135.89Y-41.91
X135.89Y-60.96
X135.89Y-80.01
X142.24Y-20.32
X142.24Y-39.37
X142.24Y-58.42
X142.24Y-77.47
X146.685Y-87.63
X153.035Y-85.09
X154.94Y-22.86
X154.94Y-41.91
X154.94Y-60.96
X154.94Y-80.01
X161.29Y-20.32
X161.29Y-39.37
X161.29Y-58.42
X161.29Y-77.47
X173.99Y-22.86
X173.99Y-41.91
X173.99Y-60.96
X173.99Y-80.01
X180.34Y-20.32
X180.34Y-39.37
X180.34Y-58.42
X180.34Y-77.47
X193.04Y-22.86
X193.04Y-41.91
X193.04Y-60.96
X193.04Y-80.01
X199.39Y-20.32
X199.39Y-39.37
X199.39Y-58.42
X199.39Y-77.47
X203.835Y-87.63
X210.185Y-85.09
X212.09Y-22.86
X212.09Y-41.91
X212.09Y-60.96
X212.09Y-80.01
X218.44Y-20.32
X218.44Y-39.37
X218.44Y-58.42
X218.44Y-77.47
X222.885Y-87.63
X229.235Y-85.09
X231.14Y-22.86
X231.14Y-41.91
X231.14Y-60.96
X231.14Y-80.01
X237.49Y-20.32
X237.49Y-39.37
X237.49Y-58.42
X237.49Y-77.47
X250.19Y-22.86
X250.19Y-41.91
X250.19Y-60.96
X250.19Y-80.01
X256.54Y-20.32
X256.54Y-39.37
X256.54Y-58.42
X256.54Y-77.47
X260.985Y-87.63
X267.335Y-85.09
X269.24Y-22.86
X269.24Y-41.91
X269.24Y-60.96
X269.24Y-80.01
X275.59Y-20.32
X275.59Y-39.37
X275.59Y-58.42
X275.59Y-77.47
X288.29Y-22.86
X288.29Y-41.91
X288.29Y-60.96
X288.29Y-80.01
X294.64Y-20.32
X294.64Y-39.37
X294.64Y-58.42
X294.64Y-77.47
X307.34Y-80.01
X312.102Y-22.86
X312.102Y-46.672
X313.69Y-77.47
X318.452Y-20.32
X318.452Y-44.133
T4
X99.219Y-89.535
X123.031Y-89.535
X137.319Y-89.535
X161.131Y-89.535
X194.469Y-89.535
X213.519Y-89.535
X237.331Y-89.535
X251.619Y-89.535
X275.431Y-89.535
M30
