G04 #@! TF.GenerationSoftware,KiCad,Pcbnew,8.0.2-1.fc39*
G04 #@! TF.CreationDate,2024-05-29T21:02:28-04:00*
G04 #@! TF.ProjectId,KeychronQ9OrthoIntegrated,4b657963-6872-46f6-9e51-394f7274686f,rev?*
G04 #@! TF.SameCoordinates,Original*
G04 #@! TF.FileFunction,AssemblyDrawing,Top*
%FSLAX46Y46*%
G04 Gerber Fmt 4.6, Leading zero omitted, Abs format (unit mm)*
G04 Created by KiCad (PCBNEW 8.0.2-1.fc39) date 2024-05-29 21:02:28*
%MOMM*%
%LPD*%
G01*
G04 APERTURE LIST*
%ADD10C,0.150000*%
%ADD11C,0.120000*%
G04 APERTURE END LIST*
D10*
X324617319Y-56545834D02*
X324141128Y-56879167D01*
X324617319Y-57117262D02*
X323617319Y-57117262D01*
X323617319Y-57117262D02*
X323617319Y-56736310D01*
X323617319Y-56736310D02*
X323664938Y-56641072D01*
X323664938Y-56641072D02*
X323712557Y-56593453D01*
X323712557Y-56593453D02*
X323807795Y-56545834D01*
X323807795Y-56545834D02*
X323950652Y-56545834D01*
X323950652Y-56545834D02*
X324045890Y-56593453D01*
X324045890Y-56593453D02*
X324093509Y-56641072D01*
X324093509Y-56641072D02*
X324141128Y-56736310D01*
X324141128Y-56736310D02*
X324141128Y-57117262D01*
X324617319Y-55974405D02*
X324569700Y-56069643D01*
X324569700Y-56069643D02*
X324522080Y-56117262D01*
X324522080Y-56117262D02*
X324426842Y-56164881D01*
X324426842Y-56164881D02*
X324141128Y-56164881D01*
X324141128Y-56164881D02*
X324045890Y-56117262D01*
X324045890Y-56117262D02*
X323998271Y-56069643D01*
X323998271Y-56069643D02*
X323950652Y-55974405D01*
X323950652Y-55974405D02*
X323950652Y-55831548D01*
X323950652Y-55831548D02*
X323998271Y-55736310D01*
X323998271Y-55736310D02*
X324045890Y-55688691D01*
X324045890Y-55688691D02*
X324141128Y-55641072D01*
X324141128Y-55641072D02*
X324426842Y-55641072D01*
X324426842Y-55641072D02*
X324522080Y-55688691D01*
X324522080Y-55688691D02*
X324569700Y-55736310D01*
X324569700Y-55736310D02*
X324617319Y-55831548D01*
X324617319Y-55831548D02*
X324617319Y-55974405D01*
X323950652Y-55355357D02*
X323950652Y-54974405D01*
X323617319Y-55212500D02*
X324474461Y-55212500D01*
X324474461Y-55212500D02*
X324569700Y-55164881D01*
X324569700Y-55164881D02*
X324617319Y-55069643D01*
X324617319Y-55069643D02*
X324617319Y-54974405D01*
X324617319Y-54212500D02*
X324093509Y-54212500D01*
X324093509Y-54212500D02*
X323998271Y-54260119D01*
X323998271Y-54260119D02*
X323950652Y-54355357D01*
X323950652Y-54355357D02*
X323950652Y-54545833D01*
X323950652Y-54545833D02*
X323998271Y-54641071D01*
X324569700Y-54212500D02*
X324617319Y-54307738D01*
X324617319Y-54307738D02*
X324617319Y-54545833D01*
X324617319Y-54545833D02*
X324569700Y-54641071D01*
X324569700Y-54641071D02*
X324474461Y-54688690D01*
X324474461Y-54688690D02*
X324379223Y-54688690D01*
X324379223Y-54688690D02*
X324283985Y-54641071D01*
X324283985Y-54641071D02*
X324236366Y-54545833D01*
X324236366Y-54545833D02*
X324236366Y-54307738D01*
X324236366Y-54307738D02*
X324188747Y-54212500D01*
X324617319Y-53736309D02*
X323950652Y-53736309D01*
X324141128Y-53736309D02*
X324045890Y-53688690D01*
X324045890Y-53688690D02*
X323998271Y-53641071D01*
X323998271Y-53641071D02*
X323950652Y-53545833D01*
X323950652Y-53545833D02*
X323950652Y-53450595D01*
X323950652Y-53212499D02*
X324617319Y-52974404D01*
X323950652Y-52736309D02*
X324617319Y-52974404D01*
X324617319Y-52974404D02*
X324855414Y-53069642D01*
X324855414Y-53069642D02*
X324903033Y-53117261D01*
X324903033Y-53117261D02*
X324950652Y-53212499D01*
X324093509Y-52355356D02*
X324093509Y-52022023D01*
X324617319Y-51879166D02*
X324617319Y-52355356D01*
X324617319Y-52355356D02*
X323617319Y-52355356D01*
X323617319Y-52355356D02*
X323617319Y-51879166D01*
X323950652Y-51450594D02*
X324617319Y-51450594D01*
X324045890Y-51450594D02*
X323998271Y-51402975D01*
X323998271Y-51402975D02*
X323950652Y-51307737D01*
X323950652Y-51307737D02*
X323950652Y-51164880D01*
X323950652Y-51164880D02*
X323998271Y-51069642D01*
X323998271Y-51069642D02*
X324093509Y-51022023D01*
X324093509Y-51022023D02*
X324617319Y-51022023D01*
X324569700Y-50117261D02*
X324617319Y-50212499D01*
X324617319Y-50212499D02*
X324617319Y-50402975D01*
X324617319Y-50402975D02*
X324569700Y-50498213D01*
X324569700Y-50498213D02*
X324522080Y-50545832D01*
X324522080Y-50545832D02*
X324426842Y-50593451D01*
X324426842Y-50593451D02*
X324141128Y-50593451D01*
X324141128Y-50593451D02*
X324045890Y-50545832D01*
X324045890Y-50545832D02*
X323998271Y-50498213D01*
X323998271Y-50498213D02*
X323950652Y-50402975D01*
X323950652Y-50402975D02*
X323950652Y-50212499D01*
X323950652Y-50212499D02*
X323998271Y-50117261D01*
X324617319Y-49545832D02*
X324569700Y-49641070D01*
X324569700Y-49641070D02*
X324522080Y-49688689D01*
X324522080Y-49688689D02*
X324426842Y-49736308D01*
X324426842Y-49736308D02*
X324141128Y-49736308D01*
X324141128Y-49736308D02*
X324045890Y-49688689D01*
X324045890Y-49688689D02*
X323998271Y-49641070D01*
X323998271Y-49641070D02*
X323950652Y-49545832D01*
X323950652Y-49545832D02*
X323950652Y-49402975D01*
X323950652Y-49402975D02*
X323998271Y-49307737D01*
X323998271Y-49307737D02*
X324045890Y-49260118D01*
X324045890Y-49260118D02*
X324141128Y-49212499D01*
X324141128Y-49212499D02*
X324426842Y-49212499D01*
X324426842Y-49212499D02*
X324522080Y-49260118D01*
X324522080Y-49260118D02*
X324569700Y-49307737D01*
X324569700Y-49307737D02*
X324617319Y-49402975D01*
X324617319Y-49402975D02*
X324617319Y-49545832D01*
X324617319Y-48355356D02*
X323617319Y-48355356D01*
X324569700Y-48355356D02*
X324617319Y-48450594D01*
X324617319Y-48450594D02*
X324617319Y-48641070D01*
X324617319Y-48641070D02*
X324569700Y-48736308D01*
X324569700Y-48736308D02*
X324522080Y-48783927D01*
X324522080Y-48783927D02*
X324426842Y-48831546D01*
X324426842Y-48831546D02*
X324141128Y-48831546D01*
X324141128Y-48831546D02*
X324045890Y-48783927D01*
X324045890Y-48783927D02*
X323998271Y-48736308D01*
X323998271Y-48736308D02*
X323950652Y-48641070D01*
X323950652Y-48641070D02*
X323950652Y-48450594D01*
X323950652Y-48450594D02*
X323998271Y-48355356D01*
X324569700Y-47498213D02*
X324617319Y-47593451D01*
X324617319Y-47593451D02*
X324617319Y-47783927D01*
X324617319Y-47783927D02*
X324569700Y-47879165D01*
X324569700Y-47879165D02*
X324474461Y-47926784D01*
X324474461Y-47926784D02*
X324093509Y-47926784D01*
X324093509Y-47926784D02*
X323998271Y-47879165D01*
X323998271Y-47879165D02*
X323950652Y-47783927D01*
X323950652Y-47783927D02*
X323950652Y-47593451D01*
X323950652Y-47593451D02*
X323998271Y-47498213D01*
X323998271Y-47498213D02*
X324093509Y-47450594D01*
X324093509Y-47450594D02*
X324188747Y-47450594D01*
X324188747Y-47450594D02*
X324283985Y-47926784D01*
X324617319Y-47022022D02*
X323950652Y-47022022D01*
X324141128Y-47022022D02*
X324045890Y-46974403D01*
X324045890Y-46974403D02*
X323998271Y-46926784D01*
X323998271Y-46926784D02*
X323950652Y-46831546D01*
X323950652Y-46831546D02*
X323950652Y-46736308D01*
X324712557Y-46641070D02*
X324712557Y-45879165D01*
X324569700Y-45688688D02*
X324617319Y-45545831D01*
X324617319Y-45545831D02*
X324617319Y-45307736D01*
X324617319Y-45307736D02*
X324569700Y-45212498D01*
X324569700Y-45212498D02*
X324522080Y-45164879D01*
X324522080Y-45164879D02*
X324426842Y-45117260D01*
X324426842Y-45117260D02*
X324331604Y-45117260D01*
X324331604Y-45117260D02*
X324236366Y-45164879D01*
X324236366Y-45164879D02*
X324188747Y-45212498D01*
X324188747Y-45212498D02*
X324141128Y-45307736D01*
X324141128Y-45307736D02*
X324093509Y-45498212D01*
X324093509Y-45498212D02*
X324045890Y-45593450D01*
X324045890Y-45593450D02*
X323998271Y-45641069D01*
X323998271Y-45641069D02*
X323903033Y-45688688D01*
X323903033Y-45688688D02*
X323807795Y-45688688D01*
X323807795Y-45688688D02*
X323712557Y-45641069D01*
X323712557Y-45641069D02*
X323664938Y-45593450D01*
X323664938Y-45593450D02*
X323617319Y-45498212D01*
X323617319Y-45498212D02*
X323617319Y-45260117D01*
X323617319Y-45260117D02*
X323664938Y-45117260D01*
X323950652Y-44783926D02*
X324617319Y-44593450D01*
X324617319Y-44593450D02*
X324141128Y-44402974D01*
X324141128Y-44402974D02*
X324617319Y-44212498D01*
X324617319Y-44212498D02*
X323950652Y-44022022D01*
X324617319Y-43641069D02*
X323950652Y-43641069D01*
X323617319Y-43641069D02*
X323664938Y-43688688D01*
X323664938Y-43688688D02*
X323712557Y-43641069D01*
X323712557Y-43641069D02*
X323664938Y-43593450D01*
X323664938Y-43593450D02*
X323617319Y-43641069D01*
X323617319Y-43641069D02*
X323712557Y-43641069D01*
X323950652Y-43307736D02*
X323950652Y-42926784D01*
X323617319Y-43164879D02*
X324474461Y-43164879D01*
X324474461Y-43164879D02*
X324569700Y-43117260D01*
X324569700Y-43117260D02*
X324617319Y-43022022D01*
X324617319Y-43022022D02*
X324617319Y-42926784D01*
X324569700Y-42164879D02*
X324617319Y-42260117D01*
X324617319Y-42260117D02*
X324617319Y-42450593D01*
X324617319Y-42450593D02*
X324569700Y-42545831D01*
X324569700Y-42545831D02*
X324522080Y-42593450D01*
X324522080Y-42593450D02*
X324426842Y-42641069D01*
X324426842Y-42641069D02*
X324141128Y-42641069D01*
X324141128Y-42641069D02*
X324045890Y-42593450D01*
X324045890Y-42593450D02*
X323998271Y-42545831D01*
X323998271Y-42545831D02*
X323950652Y-42450593D01*
X323950652Y-42450593D02*
X323950652Y-42260117D01*
X323950652Y-42260117D02*
X323998271Y-42164879D01*
X324617319Y-41736307D02*
X323617319Y-41736307D01*
X324617319Y-41307736D02*
X324093509Y-41307736D01*
X324093509Y-41307736D02*
X323998271Y-41355355D01*
X323998271Y-41355355D02*
X323950652Y-41450593D01*
X323950652Y-41450593D02*
X323950652Y-41593450D01*
X323950652Y-41593450D02*
X323998271Y-41688688D01*
X323998271Y-41688688D02*
X324045890Y-41736307D01*
X314579167Y-49619700D02*
X314722024Y-49667319D01*
X314722024Y-49667319D02*
X314960119Y-49667319D01*
X314960119Y-49667319D02*
X315055357Y-49619700D01*
X315055357Y-49619700D02*
X315102976Y-49572080D01*
X315102976Y-49572080D02*
X315150595Y-49476842D01*
X315150595Y-49476842D02*
X315150595Y-49381604D01*
X315150595Y-49381604D02*
X315102976Y-49286366D01*
X315102976Y-49286366D02*
X315055357Y-49238747D01*
X315055357Y-49238747D02*
X314960119Y-49191128D01*
X314960119Y-49191128D02*
X314769643Y-49143509D01*
X314769643Y-49143509D02*
X314674405Y-49095890D01*
X314674405Y-49095890D02*
X314626786Y-49048271D01*
X314626786Y-49048271D02*
X314579167Y-48953033D01*
X314579167Y-48953033D02*
X314579167Y-48857795D01*
X314579167Y-48857795D02*
X314626786Y-48762557D01*
X314626786Y-48762557D02*
X314674405Y-48714938D01*
X314674405Y-48714938D02*
X314769643Y-48667319D01*
X314769643Y-48667319D02*
X315007738Y-48667319D01*
X315007738Y-48667319D02*
X315150595Y-48714938D01*
X315483929Y-48667319D02*
X315722024Y-49667319D01*
X315722024Y-49667319D02*
X315912500Y-48953033D01*
X315912500Y-48953033D02*
X316102976Y-49667319D01*
X316102976Y-49667319D02*
X316341072Y-48667319D01*
X316674405Y-48762557D02*
X316722024Y-48714938D01*
X316722024Y-48714938D02*
X316817262Y-48667319D01*
X316817262Y-48667319D02*
X317055357Y-48667319D01*
X317055357Y-48667319D02*
X317150595Y-48714938D01*
X317150595Y-48714938D02*
X317198214Y-48762557D01*
X317198214Y-48762557D02*
X317245833Y-48857795D01*
X317245833Y-48857795D02*
X317245833Y-48953033D01*
X317245833Y-48953033D02*
X317198214Y-49095890D01*
X317198214Y-49095890D02*
X316626786Y-49667319D01*
X316626786Y-49667319D02*
X317245833Y-49667319D01*
X324617319Y-32733334D02*
X324141128Y-33066667D01*
X324617319Y-33304762D02*
X323617319Y-33304762D01*
X323617319Y-33304762D02*
X323617319Y-32923810D01*
X323617319Y-32923810D02*
X323664938Y-32828572D01*
X323664938Y-32828572D02*
X323712557Y-32780953D01*
X323712557Y-32780953D02*
X323807795Y-32733334D01*
X323807795Y-32733334D02*
X323950652Y-32733334D01*
X323950652Y-32733334D02*
X324045890Y-32780953D01*
X324045890Y-32780953D02*
X324093509Y-32828572D01*
X324093509Y-32828572D02*
X324141128Y-32923810D01*
X324141128Y-32923810D02*
X324141128Y-33304762D01*
X324617319Y-32161905D02*
X324569700Y-32257143D01*
X324569700Y-32257143D02*
X324522080Y-32304762D01*
X324522080Y-32304762D02*
X324426842Y-32352381D01*
X324426842Y-32352381D02*
X324141128Y-32352381D01*
X324141128Y-32352381D02*
X324045890Y-32304762D01*
X324045890Y-32304762D02*
X323998271Y-32257143D01*
X323998271Y-32257143D02*
X323950652Y-32161905D01*
X323950652Y-32161905D02*
X323950652Y-32019048D01*
X323950652Y-32019048D02*
X323998271Y-31923810D01*
X323998271Y-31923810D02*
X324045890Y-31876191D01*
X324045890Y-31876191D02*
X324141128Y-31828572D01*
X324141128Y-31828572D02*
X324426842Y-31828572D01*
X324426842Y-31828572D02*
X324522080Y-31876191D01*
X324522080Y-31876191D02*
X324569700Y-31923810D01*
X324569700Y-31923810D02*
X324617319Y-32019048D01*
X324617319Y-32019048D02*
X324617319Y-32161905D01*
X323950652Y-31542857D02*
X323950652Y-31161905D01*
X323617319Y-31400000D02*
X324474461Y-31400000D01*
X324474461Y-31400000D02*
X324569700Y-31352381D01*
X324569700Y-31352381D02*
X324617319Y-31257143D01*
X324617319Y-31257143D02*
X324617319Y-31161905D01*
X324617319Y-30400000D02*
X324093509Y-30400000D01*
X324093509Y-30400000D02*
X323998271Y-30447619D01*
X323998271Y-30447619D02*
X323950652Y-30542857D01*
X323950652Y-30542857D02*
X323950652Y-30733333D01*
X323950652Y-30733333D02*
X323998271Y-30828571D01*
X324569700Y-30400000D02*
X324617319Y-30495238D01*
X324617319Y-30495238D02*
X324617319Y-30733333D01*
X324617319Y-30733333D02*
X324569700Y-30828571D01*
X324569700Y-30828571D02*
X324474461Y-30876190D01*
X324474461Y-30876190D02*
X324379223Y-30876190D01*
X324379223Y-30876190D02*
X324283985Y-30828571D01*
X324283985Y-30828571D02*
X324236366Y-30733333D01*
X324236366Y-30733333D02*
X324236366Y-30495238D01*
X324236366Y-30495238D02*
X324188747Y-30400000D01*
X324617319Y-29923809D02*
X323950652Y-29923809D01*
X324141128Y-29923809D02*
X324045890Y-29876190D01*
X324045890Y-29876190D02*
X323998271Y-29828571D01*
X323998271Y-29828571D02*
X323950652Y-29733333D01*
X323950652Y-29733333D02*
X323950652Y-29638095D01*
X323950652Y-29399999D02*
X324617319Y-29161904D01*
X323950652Y-28923809D02*
X324617319Y-29161904D01*
X324617319Y-29161904D02*
X324855414Y-29257142D01*
X324855414Y-29257142D02*
X324903033Y-29304761D01*
X324903033Y-29304761D02*
X324950652Y-29399999D01*
X324093509Y-28542856D02*
X324093509Y-28209523D01*
X324617319Y-28066666D02*
X324617319Y-28542856D01*
X324617319Y-28542856D02*
X323617319Y-28542856D01*
X323617319Y-28542856D02*
X323617319Y-28066666D01*
X323950652Y-27638094D02*
X324617319Y-27638094D01*
X324045890Y-27638094D02*
X323998271Y-27590475D01*
X323998271Y-27590475D02*
X323950652Y-27495237D01*
X323950652Y-27495237D02*
X323950652Y-27352380D01*
X323950652Y-27352380D02*
X323998271Y-27257142D01*
X323998271Y-27257142D02*
X324093509Y-27209523D01*
X324093509Y-27209523D02*
X324617319Y-27209523D01*
X324569700Y-26304761D02*
X324617319Y-26399999D01*
X324617319Y-26399999D02*
X324617319Y-26590475D01*
X324617319Y-26590475D02*
X324569700Y-26685713D01*
X324569700Y-26685713D02*
X324522080Y-26733332D01*
X324522080Y-26733332D02*
X324426842Y-26780951D01*
X324426842Y-26780951D02*
X324141128Y-26780951D01*
X324141128Y-26780951D02*
X324045890Y-26733332D01*
X324045890Y-26733332D02*
X323998271Y-26685713D01*
X323998271Y-26685713D02*
X323950652Y-26590475D01*
X323950652Y-26590475D02*
X323950652Y-26399999D01*
X323950652Y-26399999D02*
X323998271Y-26304761D01*
X324617319Y-25733332D02*
X324569700Y-25828570D01*
X324569700Y-25828570D02*
X324522080Y-25876189D01*
X324522080Y-25876189D02*
X324426842Y-25923808D01*
X324426842Y-25923808D02*
X324141128Y-25923808D01*
X324141128Y-25923808D02*
X324045890Y-25876189D01*
X324045890Y-25876189D02*
X323998271Y-25828570D01*
X323998271Y-25828570D02*
X323950652Y-25733332D01*
X323950652Y-25733332D02*
X323950652Y-25590475D01*
X323950652Y-25590475D02*
X323998271Y-25495237D01*
X323998271Y-25495237D02*
X324045890Y-25447618D01*
X324045890Y-25447618D02*
X324141128Y-25399999D01*
X324141128Y-25399999D02*
X324426842Y-25399999D01*
X324426842Y-25399999D02*
X324522080Y-25447618D01*
X324522080Y-25447618D02*
X324569700Y-25495237D01*
X324569700Y-25495237D02*
X324617319Y-25590475D01*
X324617319Y-25590475D02*
X324617319Y-25733332D01*
X324617319Y-24542856D02*
X323617319Y-24542856D01*
X324569700Y-24542856D02*
X324617319Y-24638094D01*
X324617319Y-24638094D02*
X324617319Y-24828570D01*
X324617319Y-24828570D02*
X324569700Y-24923808D01*
X324569700Y-24923808D02*
X324522080Y-24971427D01*
X324522080Y-24971427D02*
X324426842Y-25019046D01*
X324426842Y-25019046D02*
X324141128Y-25019046D01*
X324141128Y-25019046D02*
X324045890Y-24971427D01*
X324045890Y-24971427D02*
X323998271Y-24923808D01*
X323998271Y-24923808D02*
X323950652Y-24828570D01*
X323950652Y-24828570D02*
X323950652Y-24638094D01*
X323950652Y-24638094D02*
X323998271Y-24542856D01*
X324569700Y-23685713D02*
X324617319Y-23780951D01*
X324617319Y-23780951D02*
X324617319Y-23971427D01*
X324617319Y-23971427D02*
X324569700Y-24066665D01*
X324569700Y-24066665D02*
X324474461Y-24114284D01*
X324474461Y-24114284D02*
X324093509Y-24114284D01*
X324093509Y-24114284D02*
X323998271Y-24066665D01*
X323998271Y-24066665D02*
X323950652Y-23971427D01*
X323950652Y-23971427D02*
X323950652Y-23780951D01*
X323950652Y-23780951D02*
X323998271Y-23685713D01*
X323998271Y-23685713D02*
X324093509Y-23638094D01*
X324093509Y-23638094D02*
X324188747Y-23638094D01*
X324188747Y-23638094D02*
X324283985Y-24114284D01*
X324617319Y-23209522D02*
X323950652Y-23209522D01*
X324141128Y-23209522D02*
X324045890Y-23161903D01*
X324045890Y-23161903D02*
X323998271Y-23114284D01*
X323998271Y-23114284D02*
X323950652Y-23019046D01*
X323950652Y-23019046D02*
X323950652Y-22923808D01*
X324712557Y-22828570D02*
X324712557Y-22066665D01*
X324569700Y-21876188D02*
X324617319Y-21733331D01*
X324617319Y-21733331D02*
X324617319Y-21495236D01*
X324617319Y-21495236D02*
X324569700Y-21399998D01*
X324569700Y-21399998D02*
X324522080Y-21352379D01*
X324522080Y-21352379D02*
X324426842Y-21304760D01*
X324426842Y-21304760D02*
X324331604Y-21304760D01*
X324331604Y-21304760D02*
X324236366Y-21352379D01*
X324236366Y-21352379D02*
X324188747Y-21399998D01*
X324188747Y-21399998D02*
X324141128Y-21495236D01*
X324141128Y-21495236D02*
X324093509Y-21685712D01*
X324093509Y-21685712D02*
X324045890Y-21780950D01*
X324045890Y-21780950D02*
X323998271Y-21828569D01*
X323998271Y-21828569D02*
X323903033Y-21876188D01*
X323903033Y-21876188D02*
X323807795Y-21876188D01*
X323807795Y-21876188D02*
X323712557Y-21828569D01*
X323712557Y-21828569D02*
X323664938Y-21780950D01*
X323664938Y-21780950D02*
X323617319Y-21685712D01*
X323617319Y-21685712D02*
X323617319Y-21447617D01*
X323617319Y-21447617D02*
X323664938Y-21304760D01*
X323950652Y-20971426D02*
X324617319Y-20780950D01*
X324617319Y-20780950D02*
X324141128Y-20590474D01*
X324141128Y-20590474D02*
X324617319Y-20399998D01*
X324617319Y-20399998D02*
X323950652Y-20209522D01*
X324617319Y-19828569D02*
X323950652Y-19828569D01*
X323617319Y-19828569D02*
X323664938Y-19876188D01*
X323664938Y-19876188D02*
X323712557Y-19828569D01*
X323712557Y-19828569D02*
X323664938Y-19780950D01*
X323664938Y-19780950D02*
X323617319Y-19828569D01*
X323617319Y-19828569D02*
X323712557Y-19828569D01*
X323950652Y-19495236D02*
X323950652Y-19114284D01*
X323617319Y-19352379D02*
X324474461Y-19352379D01*
X324474461Y-19352379D02*
X324569700Y-19304760D01*
X324569700Y-19304760D02*
X324617319Y-19209522D01*
X324617319Y-19209522D02*
X324617319Y-19114284D01*
X324569700Y-18352379D02*
X324617319Y-18447617D01*
X324617319Y-18447617D02*
X324617319Y-18638093D01*
X324617319Y-18638093D02*
X324569700Y-18733331D01*
X324569700Y-18733331D02*
X324522080Y-18780950D01*
X324522080Y-18780950D02*
X324426842Y-18828569D01*
X324426842Y-18828569D02*
X324141128Y-18828569D01*
X324141128Y-18828569D02*
X324045890Y-18780950D01*
X324045890Y-18780950D02*
X323998271Y-18733331D01*
X323998271Y-18733331D02*
X323950652Y-18638093D01*
X323950652Y-18638093D02*
X323950652Y-18447617D01*
X323950652Y-18447617D02*
X323998271Y-18352379D01*
X324617319Y-17923807D02*
X323617319Y-17923807D01*
X324617319Y-17495236D02*
X324093509Y-17495236D01*
X324093509Y-17495236D02*
X323998271Y-17542855D01*
X323998271Y-17542855D02*
X323950652Y-17638093D01*
X323950652Y-17638093D02*
X323950652Y-17780950D01*
X323950652Y-17780950D02*
X323998271Y-17876188D01*
X323998271Y-17876188D02*
X324045890Y-17923807D01*
X314579167Y-25807200D02*
X314722024Y-25854819D01*
X314722024Y-25854819D02*
X314960119Y-25854819D01*
X314960119Y-25854819D02*
X315055357Y-25807200D01*
X315055357Y-25807200D02*
X315102976Y-25759580D01*
X315102976Y-25759580D02*
X315150595Y-25664342D01*
X315150595Y-25664342D02*
X315150595Y-25569104D01*
X315150595Y-25569104D02*
X315102976Y-25473866D01*
X315102976Y-25473866D02*
X315055357Y-25426247D01*
X315055357Y-25426247D02*
X314960119Y-25378628D01*
X314960119Y-25378628D02*
X314769643Y-25331009D01*
X314769643Y-25331009D02*
X314674405Y-25283390D01*
X314674405Y-25283390D02*
X314626786Y-25235771D01*
X314626786Y-25235771D02*
X314579167Y-25140533D01*
X314579167Y-25140533D02*
X314579167Y-25045295D01*
X314579167Y-25045295D02*
X314626786Y-24950057D01*
X314626786Y-24950057D02*
X314674405Y-24902438D01*
X314674405Y-24902438D02*
X314769643Y-24854819D01*
X314769643Y-24854819D02*
X315007738Y-24854819D01*
X315007738Y-24854819D02*
X315150595Y-24902438D01*
X315483929Y-24854819D02*
X315722024Y-25854819D01*
X315722024Y-25854819D02*
X315912500Y-25140533D01*
X315912500Y-25140533D02*
X316102976Y-25854819D01*
X316102976Y-25854819D02*
X316341072Y-24854819D01*
X317245833Y-25854819D02*
X316674405Y-25854819D01*
X316960119Y-25854819D02*
X316960119Y-24854819D01*
X316960119Y-24854819D02*
X316864881Y-24997676D01*
X316864881Y-24997676D02*
X316769643Y-25092914D01*
X316769643Y-25092914D02*
X316674405Y-25140533D01*
D11*
G04 #@! TO.C,SW2*
X321712500Y-55212500D02*
X311212500Y-55212500D01*
X321712500Y-43212500D02*
X321712500Y-55212500D01*
X311212500Y-55212500D02*
X310112500Y-54212500D01*
X310112500Y-54212500D02*
X310112500Y-43212500D01*
X310112500Y-43212500D02*
X321712500Y-43212500D01*
G04 #@! TO.C,SW1*
X321712500Y-31400000D02*
X311212500Y-31400000D01*
X321712500Y-19400000D02*
X321712500Y-31400000D01*
X311212500Y-31400000D02*
X310112500Y-30400000D01*
X310112500Y-30400000D02*
X310112500Y-19400000D01*
X310112500Y-19400000D02*
X321712500Y-19400000D01*
G04 #@! TD*
M02*
