  0
SECTION
  2
HEADER
  9
$ACADVER
  1
AC1032
  9
$ACADMAINTVER
 90
      228
  9
$DWGCODEPAGE
  3
ANSI_1252
  9
$REQUIREDVERSIONS
160
                 0
  9
$INSBASE
 10
0.0
 20
0.0
 30
0.0
  9
$EXTMIN
 10
1.000000000000000E+20
 20
1.000000000000000E+20
 30
1.000000000000000E+20
  9
$EXTMAX
 10
-1.000000000000000E+20
 20
-1.000000000000000E+20
 30
-1.000000000000000E+20
  9
$LIMMIN
 10
0.0
 20
0.0
  9
$LIMMAX
 10
12.0
 20
9.0
  9
$ORTHOMODE
 70
     0
  9
$REGENMODE
 70
     1
  9
$FILLMODE
 70
     1
  9
$QTEXTMODE
 70
     0
  9
$MIRRTEXT
 70
     0
  9
$LTSCALE
 40
1.0
  9
$ATTMODE
 70
     1
  9
$TEXTSIZE
 40
0.2
  9
$TRACEWID
 40
0.05
  9
$TEXTSTYLE
  7
Standard
  9
$CLAYER
  8
0
  9
$CELTYPE
  6
ByLayer
  9
$CECOLOR
 62
   256
  9
$CELTSCALE
 40
1.0
  9
$DISPSILH
 70
     0
  9
$DIMSCALE
 40
1.0
  9
$DIMASZ
 40
0.18
  9
$DIMEXO
 40
0.0625
  9
$DIMDLI
 40
0.38
  9
$DIMRND
 40
0.0
  9
$DIMDLE
 40
0.0
  9
$DIMEXE
 40
0.18
  9
$DIMTP
 40
0.0
  9
$DIMTM
 40
0.0
  9
$DIMTXT
 40
0.18
  9
$DIMCEN
 40
0.09
  9
$DIMTSZ
 40
0.0
  9
$DIMTOL
 70
     0
  9
$DIMLIM
 70
     0
  9
$DIMTIH
 70
     1
  9
$DIMTOH
 70
     1
  9
$DIMSE1
 70
     0
  9
$DIMSE2
 70
     0
  9
$DIMTAD
 70
     0
  9
$DIMZIN
 70
     0
  9
$DIMBLK
  1

  9
$DIMASO
 70
     1
  9
$DIMSHO
 70
     1
  9
$DIMPOST
  1

  9
$DIMAPOST
  1

  9
$DIMALT
 70
     0
  9
$DIMALTD
 70
     2
  9
$DIMALTF
 40
25.4
  9
$DIMLFAC
 40
1.0
  9
$DIMTOFL
 70
     0
  9
$DIMTVP
 40
0.0
  9
$DIMTIX
 70
     0
  9
$DIMSOXD
 70
     0
  9
$DIMSAH
 70
     0
  9
$DIMBLK1
  1

  9
$DIMBLK2
  1

  9
$DIMSTYLE
  2
Standard
  9
$DIMCLRD
 70
     0
  9
$DIMCLRE
 70
     0
  9
$DIMCLRT
 70
     0
  9
$DIMTFAC
 40
1.0
  9
$DIMGAP
 40
0.09
  9
$DIMJUST
 70
     0
  9
$DIMSD1
 70
     0
  9
$DIMSD2
 70
     0
  9
$DIMTOLJ
 70
     1
  9
$DIMTZIN
 70
     0
  9
$DIMALTZ
 70
     0
  9
$DIMALTTZ
 70
     0
  9
$DIMUPT
 70
     0
  9
$DIMDEC
 70
     4
  9
$DIMTDEC
 70
     4
  9
$DIMALTU
 70
     2
  9
$DIMALTTD
 70
     2
  9
$DIMTXSTY
  7
Standard
  9
$DIMAUNIT
 70
     0
  9
$DIMADEC
 70
     0
  9
$DIMALTRND
 40
0.0
  9
$DIMAZIN
 70
     0
  9
$DIMDSEP
 70
    46
  9
$DIMATFIT
 70
     3
  9
$DIMFRAC
 70
     0
  9
$DIMLDRBLK
  1

  9
$DIMLUNIT
 70
     2
  9
$DIMLWD
 70
    -2
  9
$DIMLWE
 70
    -2
  9
$DIMTMOVE
 70
     0
  9
$DIMFXL
 40
1.0
  9
$DIMFXLON
 70
     0
  9
$DIMJOGANG
 40
0.7853981633974483
  9
$DIMTFILL
 70
     0
  9
$DIMTFILLCLR
 70
     0
  9
$DIMARCSYM
 70
     0
  9
$DIMLTYPE
  6

  9
$DIMLTEX1
  6

  9
$DIMLTEX2
  6

  9
$DIMTXTDIRECTION
 70
     0
  9
$LUNITS
 70
     2
  9
$LUPREC
 70
     4
  9
$SKETCHINC
 40
0.1
  9
$FILLETRAD
 40
0.0
  9
$AUNITS
 70
     0
  9
$AUPREC
 70
     0
  9
$MENU
  1
.
  9
$ELEVATION
 40
0.0
  9
$PELEVATION
 40
0.0
  9
$THICKNESS
 40
0.0
  9
$LIMCHECK
 70
     0
  9
$CHAMFERA
 40
0.0
  9
$CHAMFERB
 40
0.0
  9
$CHAMFERC
 40
0.0
  9
$CHAMFERD
 40
0.0
  9
$SKPOLY
 70
     0
  9
$TDCREATE
 40
2460465.503136574
  9
$TDUCREATE
 40
2460465.669803241
  9
$TDUPDATE
 40
2460465.503136574
  9
$TDUUPDATE
 40
2460465.669803241
  9
$TDINDWG
 40
0.0000000000
  9
$TDUSRTIMER
 40
0.0000000000
  9
$USRTIMER
 70
     1
  9
$ANGBASE
 50
0.0
  9
$ANGDIR
 70
     0
  9
$PDMODE
 70
     0
  9
$PDSIZE
 40
0.0
  9
$PLINEWID
 40
0.0
  9
$SPLFRAME
 70
     0
  9
$SPLINETYPE
 70
     6
  9
$SPLINESEGS
 70
     8
  9
$HANDSEED
  5
AD
  9
$SURFTAB1
 70
     6
  9
$SURFTAB2
 70
     6
  9
$SURFTYPE
 70
     6
  9
$SURFU
 70
     6
  9
$SURFV
 70
     6
  9
$UCSBASE
  2

  9
$UCSNAME
  2

  9
$UCSORG
 10
0.0
 20
0.0
 30
0.0
  9
$UCSXDIR
 10
1.0
 20
0.0
 30
0.0
  9
$UCSYDIR
 10
0.0
 20
1.0
 30
0.0
  9
$UCSORTHOREF
  2

  9
$UCSORTHOVIEW
 70
     0
  9
$UCSORGTOP
 10
0.0
 20
0.0
 30
0.0
  9
$UCSORGBOTTOM
 10
0.0
 20
0.0
 30
0.0
  9
$UCSORGLEFT
 10
0.0
 20
0.0
 30
0.0
  9
$UCSORGRIGHT
 10
0.0
 20
0.0
 30
0.0
  9
$UCSORGFRONT
 10
0.0
 20
0.0
 30
0.0
  9
$UCSORGBACK
 10
0.0
 20
0.0
 30
0.0
  9
$PUCSBASE
  2

  9
$PUCSNAME
  2

  9
$PUCSORG
 10
0.0
 20
0.0
 30
0.0
  9
$PUCSXDIR
 10
1.0
 20
0.0
 30
0.0
  9
$PUCSYDIR
 10
0.0
 20
1.0
 30
0.0
  9
$PUCSORTHOREF
  2

  9
$PUCSORTHOVIEW
 70
     0
  9
$PUCSORGTOP
 10
0.0
 20
0.0
 30
0.0
  9
$PUCSORGBOTTOM
 10
0.0
 20
0.0
 30
0.0
  9
$PUCSORGLEFT
 10
0.0
 20
0.0
 30
0.0
  9
$PUCSORGRIGHT
 10
0.0
 20
0.0
 30
0.0
  9
$PUCSORGFRONT
 10
0.0
 20
0.0
 30
0.0
  9
$PUCSORGBACK
 10
0.0
 20
0.0
 30
0.0
  9
$USERI1
 70
     0
  9
$USERI2
 70
     0
  9
$USERI3
 70
     0
  9
$USERI4
 70
     0
  9
$USERI5
 70
     0
  9
$USERR1
 40
0.0
  9
$USERR2
 40
0.0
  9
$USERR3
 40
0.0
  9
$USERR4
 40
0.0
  9
$USERR5
 40
0.0
  9
$WORLDVIEW
 70
     1
  9
$SHADEDGE
 70
     3
  9
$SHADEDIF
 70
    70
  9
$TILEMODE
 70
     1
  9
$MAXACTVP
 70
    64
  9
$PINSBASE
 10
0.0
 20
0.0
 30
0.0
  9
$PLIMCHECK
 70
     0
  9
$PEXTMIN
 10
1.000000000000000E+20
 20
1.000000000000000E+20
 30
1.000000000000000E+20
  9
$PEXTMAX
 10
-1.000000000000000E+20
 20
-1.000000000000000E+20
 30
-1.000000000000000E+20
  9
$PLIMMIN
 10
0.0
 20
0.0
  9
$PLIMMAX
 10
12.0
 20
9.0
  9
$UNITMODE
 70
     0
  9
$VISRETAIN
 70
     1
  9
$PLINEGEN
 70
     0
  9
$PSLTSCALE
 70
     1
  9
$TREEDEPTH
 70
  3020
  9
$CMLSTYLE
  2
Standard
  9
$CMLJUST
 70
     0
  9
$CMLSCALE
 40
1.0
  9
$PROXYGRAPHICS
 70
     1
  9
$MEASUREMENT
 70
     0
  9
$CELWEIGHT
370
    -1
  9
$ENDCAPS
280
     0
  9
$JOINSTYLE
280
     0
  9
$LWDISPLAY
290
     1
  9
$INSUNITS
 70
     4
  9
$HYPERLINKBASE
  1

  9
$STYLESHEET
  1

  9
$XEDIT
290
     1
  9
$CEPSNTYPE
380
     0
  9
$PSTYLEMODE
290
     1
  9
$FINGERPRINTGUID
  2
{5B24F0E7-57E3-CF44-9BE5-201FFCB2FBC0}
  9
$VERSIONGUID
  2
{C27F4C39-5DD8-EE4D-B247-D282A4A6CC80}
  9
$EXTNAMES
290
     1
  9
$PSVPSCALE
 40
0.0
  9
$OLESTARTUP
290
     0
  9
$SORTENTS
280
   127
  9
$INDEXCTL
280
     0
  9
$HIDETEXT
280
     1
  9
$XCLIPFRAME
280
     2
  9
$HALOGAP
280
     0
  9
$OBSCOLOR
 70
   257
  9
$OBSLTYPE
280
     0
  9
$INTERSECTIONDISPLAY
280
     0
  9
$INTERSECTIONCOLOR
 70
   257
  9
$DIMASSOC
280
     2
  9
$PROJECTNAME
  1

  9
$CAMERADISPLAY
290
     0
  9
$LENSLENGTH
 40
50.0
  9
$CAMERAHEIGHT
 40
0.0
  9
$STEPSPERSEC
 40
2.0
  9
$STEPSIZE
 40
6.0
  9
$3DDWFPREC
 40
2.0
  9
$PSOLWIDTH
 40
0.25
  9
$PSOLHEIGHT
 40
4.0
  9
$LOFTANG1
 40
1.570796326794896
  9
$LOFTANG2
 40
1.570796326794896
  9
$LOFTMAG1
 40
0.0
  9
$LOFTMAG2
 40
0.0
  9
$LOFTPARAM
 70
     7
  9
$LOFTNORMALS
280
     1
  9
$LATITUDE
 40
37.795
  9
$LONGITUDE
 40
-122.394
  9
$NORTHDIRECTION
 40
0.0
  9
$TIMEZONE
 70
 -8000
  9
$LIGHTGLYPHDISPLAY
280
     1
  9
$TILEMODELIGHTSYNCH
280
     1
  9
$CMATERIAL
347
11
  9
$SOLIDHIST
280
     0
  9
$SHOWHIST
280
     1
  9
$DWFFRAME
280
     2
  9
$DGNFRAME
280
     0
  9
$REALWORLDSCALE
290
     1
  9
$INTERFERECOLOR
 62
     1
  9
$INTERFEREOBJVS
345
33
  9
$INTERFEREVPVS
346
30
  9
$CSHADOW
280
     0
  9
$SHADOWPLANELOCATION
 40
0.0
  0
ENDSEC
  0
SECTION
  2
CLASSES
  0
CLASS
  1
ACDBDICTIONARYWDFLT
  2
AcDbDictionaryWithDefault
  3
ObjectDBX Classes
 90
        0
 91
        1
280
     0
281
     0
  0
CLASS
  1
MATERIAL
  2
AcDbMaterial
  3
ObjectDBX Classes
 90
     1153
 91
        3
280
     0
281
     0
  0
CLASS
  1
VISUALSTYLE
  2
AcDbVisualStyle
  3
ObjectDBX Classes
 90
     4095
 91
       24
280
     0
281
     0
  0
CLASS
  1
SCALE
  2
AcDbScale
  3
ObjectDBX Classes
 90
     1153
 91
       17
280
     0
281
     0
  0
CLASS
  1
TABLESTYLE
  2
AcDbTableStyle
  3
ObjectDBX Classes
 90
     4095
 91
        1
280
     0
281
     0
  0
CLASS
  1
MLEADERSTYLE
  2
AcDbMLeaderStyle
  3
ACDB_MLEADERSTYLE_CLASS
 90
     4095
 91
        1
280
     0
281
     0
  0
CLASS
  1
ACDBSECTIONVIEWSTYLE
  2
AcDbSectionViewStyle
  3
ObjectDBX Classes
 90
     1025
 91
        1
280
     0
281
     0
  0
CLASS
  1
ACDBDETAILVIEWSTYLE
  2
AcDbDetailViewStyle
  3
ObjectDBX Classes
 90
     1025
 91
        1
280
     0
281
     0
  0
CLASS
  1
DICTIONARYVAR
  2
AcDbDictionaryVar
  3
ObjectDBX Classes
 90
        0
 91
        5
280
     0
281
     0
  0
CLASS
  1
CELLSTYLEMAP
  2
AcDbCellStyleMap
  3
ObjectDBX Classes
 90
     1152
 91
        1
280
     0
281
     0
  0
ENDSEC
  0
SECTION
  2
TABLES
  0
TABLE
  2
VPORT
  5
8
330
0
100
AcDbSymbolTable
 70
     1
  0
VPORT
  5
57
330
8
100
AcDbSymbolTableRecord
100
AcDbViewportTableRecord
  2
*Active
 70
     0
 10
0.0
 20
0.0
 11
1.0
 21
1.0
 12
0.0
 22
0.0
 13
0.0
 23
0.0
 14
1.0
 24
1.0
 15
0.0
 25
0.0
 16
0.0
 26
0.0
 36
1.0
 17
52.53562445854811
 27
52.46330122355982
 37
0.0
 40
92.51401363816517
 41
3.44762903885875
 42
50.0
 43
0.0
 44
0.0
 50
0.0
 51
0.0
 71
     0
 72
   100
 73
     1
 74
     1
 75
     0
 76
     0
 77
     0
 78
     0
281
     0
 65
     1
110
0.0
120
0.0
130
0.0
111
1.0
121
0.0
131
0.0
112
0.0
122
1.0
132
0.0
 79
     0
146
0.0
 60
     3
 61
     5
292
     1
282
     1
141
0.0
142
0.0
 63
   250
421
  3355443
  0
ENDTAB
  0
TABLE
  2
LTYPE
  5
5
330
0
100
AcDbSymbolTable
 70
     1
  0
LTYPE
  5
5B
330
5
100
AcDbSymbolTableRecord
100
AcDbLinetypeTableRecord
  2
ByBlock
 70
     0
  3

 72
    65
 73
     0
 40
0.0
  0
LTYPE
  5
5C
330
5
100
AcDbSymbolTableRecord
100
AcDbLinetypeTableRecord
  2
ByLayer
 70
     0
  3

 72
    65
 73
     0
 40
0.0
  0
LTYPE
  5
5D
330
5
100
AcDbSymbolTableRecord
100
AcDbLinetypeTableRecord
  2
Continuous
 70
     0
  3
Solid line
 72
    65
 73
     0
 40
0.0
  0
ENDTAB
  0
TABLE
  2
LAYER
  5
2
330
0
100
AcDbSymbolTable
 70
     2
  0
LAYER
  5
54
330
2
100
AcDbSymbolTableRecord
100
AcDbLayerTableRecord
  2
0
 70
     0
 62
     7
  6
Continuous
370
    -3
390
F
347
21
348
0
  0
LAYER
  5
78
330
2
100
AcDbSymbolTableRecord
100
AcDbLayerTableRecord
  2
Layer 1
 70
     0
 62
     7
  6
Continuous
370
     0
390
F
347
21
348
0
  0
ENDTAB
  0
TABLE
  2
STYLE
  5
3
330
0
100
AcDbSymbolTable
 70
     2
  0
STYLE
  5
55
330
3
100
AcDbSymbolTableRecord
100
AcDbTextStyleTableRecord
  2
Standard
 70
     0
 40
0.0
 41
1.0
 50
0.0
 71
     0
 42
0.2
  3
txt
  4

  0
STYLE
  5
5A
330
3
100
AcDbSymbolTableRecord
100
AcDbTextStyleTableRecord
  2
Annotative
 70
     0
 40
0.0
 41
1.0
 50
0.0
 71
     0
 42
0.2
  3
txt
  4

1001
AcadAnnotative
1000
AnnotativeData
1002
{
1070
     1
1070
     1
1002
}
  0
ENDTAB
  0
TABLE
  2
VIEW
  5
6
330
0
100
AcDbSymbolTable
 70
     0
  0
ENDTAB
  0
TABLE
  2
UCS
  5
7
330
0
100
AcDbSymbolTable
 70
     0
  0
ENDTAB
  0
TABLE
  2
APPID
  5
9
330
0
100
AcDbSymbolTable
 70
     2
  0
APPID
  5
56
330
9
100
AcDbSymbolTableRecord
100
AcDbRegAppTableRecord
  2
ACAD
 70
     0
  0
APPID
  5
5E
330
9
100
AcDbSymbolTableRecord
100
AcDbRegAppTableRecord
  2
AcadAnnotative
 70
     0
  0
ENDTAB
  0
TABLE
  2
DIMSTYLE
  5
A
330
0
100
AcDbSymbolTable
 70
     2
100
AcDbDimStyleTable
 71
     0
  0
DIMSTYLE
105
58
330
A
100
AcDbSymbolTableRecord
100
AcDbDimStyleTableRecord
  2
Standard
 70
     0
340
55
  0
DIMSTYLE
105
59
330
A
100
AcDbSymbolTableRecord
100
AcDbDimStyleTableRecord
  2
Annotative
 70
     0
340
55
1001
AcadAnnotative
1000
AnnotativeData
1002
{
1070
     1
1070
     1
1002
}
  0
ENDTAB
  0
TABLE
  2
BLOCK_RECORD
  5
1
330
0
100
AcDbSymbolTable
 70
     1
  0
BLOCK_RECORD
  5
70
330
1
100
AcDbSymbolTableRecord
100
AcDbBlockTableRecord
  2
*Model_Space
340
73
 70
     0
280
     1
281
     0
  0
BLOCK_RECORD
  5
6C
330
1
100
AcDbSymbolTableRecord
100
AcDbBlockTableRecord
  2
*Paper_Space
340
6F
 70
     0
280
     1
281
     0
  0
BLOCK_RECORD
  5
74
330
1
100
AcDbSymbolTableRecord
100
AcDbBlockTableRecord
  2
*Paper_Space0
340
77
 70
     0
280
     1
281
     0
  0
ENDTAB
  0
ENDSEC
  0
SECTION
  2
BLOCKS
  0
BLOCK
  5
71
330
70
100
AcDbEntity
  8
0
100
AcDbBlockBegin
  2
*Model_Space
 70
     0
 10
0.0
 20
0.0
 30
0.0
  3
*Model_Space
  1

  0
ENDBLK
  5
72
330
70
100
AcDbEntity
  8
0
100
AcDbBlockEnd
  0
BLOCK
  5
6D
330
6C
100
AcDbEntity
 67
     1
  8
0
100
AcDbBlockBegin
  2
*Paper_Space
 70
     0
 10
0.0
 20
0.0
 30
0.0
  3
*Paper_Space
  1

  0
ENDBLK
  5
6E
330
6C
100
AcDbEntity
 67
     1
  8
0
100
AcDbBlockEnd
  0
BLOCK
  5
75
330
74
100
AcDbEntity
 67
     1
  8
0
100
AcDbBlockBegin
  2
*Paper_Space0
 70
     0
 10
0.0
 20
0.0
 30
0.0
  3
*Paper_Space0
  1

  0
ENDBLK
  5
76
330
74
100
AcDbEntity
 67
     1
  8
0
100
AcDbBlockEnd
  0
ENDSEC
  0
SECTION
  2
ENTITIES
  0
SPLINE
  5
79
330
70
100
AcDbEntity
  8
Layer 1
 62
    18
420
        0
370
    25
100
AcDbSpline
210
0.0
220
0.0
230
1.0
 70
     9
 71
     3
 72
    29
 73
    25
 74
     0
 42
0.0000000001
 43
0.0000000001
 40
0.0
 40
0.0
 40
0.0
 40
0.0
 40
1.0
 40
1.0
 40
1.0
 40
2.0
 40
2.0
 40
2.0
 40
3.0
 40
3.0
 40
3.0
 40
4.0
 40
4.0
 40
4.0
 40
5.0
 40
5.0
 40
5.0
 40
6.0
 40
6.0
 40
6.0
 40
7.0
 40
7.0
 40
7.0
 40
8.0
 40
8.0
 40
8.0
 40
8.0
 10
-86.22062954220117
 20
74.03829955528128
 30
0.0
 10
-86.22062954220117
 20
74.03829955528128
 30
0.0
 10
-99.22062953895142
 20
74.03829955528128
 30
0.0
 10
-99.22062953895142
 20
74.03829955528128
 30
0.0
 10
-99.49677191379793
 20
74.03829955528128
 30
0.0
 10
-99.72062953882664
 20
74.26215718031
 30
0.0
 10
-99.72062953882664
 20
74.5382995551565
 30
0.0
 10
-99.72062953882664
 20
74.5382995551565
 30
0.0
 10
-99.72062953882664
 20
87.53829955190674
 30
0.0
 10
-99.72062953882664
 20
87.53829955190674
 30
0.0
 10
-99.72062953882664
 20
87.81444192675261
 30
0.0
 10
-99.49677191379793
 20
88.03829955178132
 30
0.0
 10
-99.22062953895142
 20
88.03829955178132
 30
0.0
 10
-99.22062953895142
 20
88.03829955178132
 30
0.0
 10
-86.22062954220117
 20
88.03829955178132
 30
0.0
 10
-86.22062954220117
 20
88.03829955178132
 30
0.0
 10
-85.94448716735533
 20
88.03829955178132
 30
0.0
 10
-85.72062954232661
 20
87.81444192675261
 30
0.0
 10
-85.72062954232661
 20
87.53829955190674
 30
0.0
 10
-85.72062954232661
 20
87.53829955190674
 30
0.0
 10
-85.72062954232661
 20
74.5382995551565
 30
0.0
 10
-85.72062954232661
 20
74.5382995551565
 30
0.0
 10
-85.72062954232661
 20
74.26215718031
 30
0.0
 10
-85.94448716735533
 20
74.03829955528128
 30
0.0
 10
-86.22062954220117
 20
74.03829955528128
 30
0.0
  0
SPLINE
  5
7A
330
70
100
AcDbEntity
  8
Layer 1
 62
    18
420
        0
370
    25
100
AcDbSpline
210
0.0
220
0.0
230
1.0
 70
     9
 71
     3
 72
    29
 73
    25
 74
     0
 42
0.0000000001
 43
0.0000000001
 40
0.0
 40
0.0
 40
0.0
 40
0.0
 40
1.0
 40
1.0
 40
1.0
 40
2.0
 40
2.0
 40
2.0
 40
3.0
 40
3.0
 40
3.0
 40
4.0
 40
4.0
 40
4.0
 40
5.0
 40
5.0
 40
5.0
 40
6.0
 40
6.0
 40
6.0
 40
7.0
 40
7.0
 40
7.0
 40
8.0
 40
8.0
 40
8.0
 40
8.0
 10
-67.17063454220151
 20
74.03829955528128
 30
0.0
 10
-67.17063454220151
 20
74.03829955528128
 30
0.0
 10
-80.17063453895145
 20
74.03829955528128
 30
0.0
 10
-80.17063453895145
 20
74.03829955528128
 30
0.0
 10
-80.44677691379826
 20
74.03829955528128
 30
0.0
 10
-80.67063453882665
 20
74.26215718031
 30
0.0
 10
-80.67063453882665
 20
74.5382995551565
 30
0.0
 10
-80.67063453882665
 20
74.5382995551565
 30
0.0
 10
-80.67063453882665
 20
87.53829955190674
 30
0.0
 10
-80.67063453882665
 20
87.53829955190674
 30
0.0
 10
-80.67063453882665
 20
87.81444192675261
 30
0.0
 10
-80.44677691379826
 20
88.03829955178132
 30
0.0
 10
-80.17063453895145
 20
88.03829955178132
 30
0.0
 10
-80.17063453895145
 20
88.03829955178132
 30
0.0
 10
-67.17063454220151
 20
88.03829955178132
 30
0.0
 10
-67.17063454220151
 20
88.03829955178132
 30
0.0
 10
-66.89449216735534
 20
88.03829955178132
 30
0.0
 10
-66.67063454232662
 20
87.81444192675261
 30
0.0
 10
-66.67063454232662
 20
87.53829955190674
 30
0.0
 10
-66.67063454232662
 20
87.53829955190674
 30
0.0
 10
-66.67063454232662
 20
74.5382995551565
 30
0.0
 10
-66.67063454232662
 20
74.5382995551565
 30
0.0
 10
-66.67063454232662
 20
74.26215718031
 30
0.0
 10
-66.89449216735534
 20
74.03829955528128
 30
0.0
 10
-67.17063454220151
 20
74.03829955528128
 30
0.0
  0
SPLINE
  5
7B
330
70
100
AcDbEntity
  8
Layer 1
 62
    18
420
        0
370
    25
100
AcDbSpline
210
0.0
220
0.0
230
1.0
 70
     9
 71
     3
 72
    29
 73
    25
 74
     0
 42
0.0000000001
 43
0.0000000001
 40
0.0
 40
0.0
 40
0.0
 40
0.0
 40
1.0
 40
1.0
 40
1.0
 40
2.0
 40
2.0
 40
2.0
 40
3.0
 40
3.0
 40
3.0
 40
4.0
 40
4.0
 40
4.0
 40
5.0
 40
5.0
 40
5.0
 40
6.0
 40
6.0
 40
6.0
 40
7.0
 40
7.0
 40
7.0
 40
8.0
 40
8.0
 40
8.0
 40
8.0
 10
-48.12063304220125
 20
74.03829955528128
 30
0.0
 10
-48.12063304220125
 20
74.03829955528128
 30
0.0
 10
-61.12063303895183
 20
74.03829955528128
 30
0.0
 10
-61.12063303895183
 20
74.03829955528128
 30
0.0
 10
-61.396775413798
 20
74.03829955528128
 30
0.0
 10
-61.62063303882671
 20
74.26215718031
 30
0.0
 10
-61.62063303882671
 20
74.5382995551565
 30
0.0
 10
-61.62063303882671
 20
74.5382995551565
 30
0.0
 10
-61.62063303882671
 20
87.53829955190674
 30
0.0
 10
-61.62063303882671
 20
87.53829955190674
 30
0.0
 10
-61.62063303882671
 20
87.81444192675261
 30
0.0
 10
-61.396775413798
 20
88.03829955178132
 30
0.0
 10
-61.12063303895183
 20
88.03829955178132
 30
0.0
 10
-61.12063303895183
 20
88.03829955178132
 30
0.0
 10
-48.12063304220125
 20
88.03829955178132
 30
0.0
 10
-48.12063304220125
 20
88.03829955178132
 30
0.0
 10
-47.8444906673554
 20
88.03829955178132
 30
0.0
 10
-47.62063304232669
 20
87.81444192675261
 30
0.0
 10
-47.62063304232669
 20
87.53829955190674
 30
0.0
 10
-47.62063304232669
 20
87.53829955190674
 30
0.0
 10
-47.62063304232669
 20
74.5382995551565
 30
0.0
 10
-47.62063304232669
 20
74.5382995551565
 30
0.0
 10
-47.62063304232669
 20
74.26215718031
 30
0.0
 10
-47.8444906673554
 20
74.03829955528128
 30
0.0
 10
-48.12063304220125
 20
74.03829955528128
 30
0.0
  0
SPLINE
  5
7C
330
70
100
AcDbEntity
  8
Layer 1
 62
    18
420
        0
370
    25
100
AcDbSpline
210
0.0
220
0.0
230
1.0
 70
     9
 71
     3
 72
    29
 73
    25
 74
     0
 42
0.0000000001
 43
0.0000000001
 40
0.0
 40
0.0
 40
0.0
 40
0.0
 40
1.0
 40
1.0
 40
1.0
 40
2.0
 40
2.0
 40
2.0
 40
3.0
 40
3.0
 40
3.0
 40
4.0
 40
4.0
 40
4.0
 40
5.0
 40
5.0
 40
5.0
 40
6.0
 40
6.0
 40
6.0
 40
7.0
 40
7.0
 40
7.0
 40
8.0
 40
8.0
 40
8.0
 40
8.0
 10
-29.07063154220165
 20
74.03829955528128
 30
0.0
 10
-29.07063154220165
 20
74.03829955528128
 30
0.0
 10
-42.0706315389519
 20
74.03829955528128
 30
0.0
 10
-42.0706315389519
 20
74.03829955528128
 30
0.0
 10
-42.34677391379807
 20
74.03829955528128
 30
0.0
 10
-42.57063153882678
 20
74.26215718031
 30
0.0
 10
-42.57063153882678
 20
74.5382995551565
 30
0.0
 10
-42.57063153882678
 20
74.5382995551565
 30
0.0
 10
-42.57063153882678
 20
87.53829955190674
 30
0.0
 10
-42.57063153882678
 20
87.53829955190674
 30
0.0
 10
-42.57063153882678
 20
87.81444192675261
 30
0.0
 10
-42.34677391379807
 20
88.03829955178132
 30
0.0
 10
-42.0706315389519
 20
88.03829955178132
 30
0.0
 10
-42.0706315389519
 20
88.03829955178132
 30
0.0
 10
-29.07063154220165
 20
88.03829955178132
 30
0.0
 10
-29.07063154220165
 20
88.03829955178132
 30
0.0
 10
-28.7944891673558
 20
88.03829955178132
 30
0.0
 10
-28.57063154232708
 20
87.81444192675261
 30
0.0
 10
-28.57063154232708
 20
87.53829955190674
 30
0.0
 10
-28.57063154232708
 20
87.53829955190674
 30
0.0
 10
-28.57063154232708
 20
74.5382995551565
 30
0.0
 10
-28.57063154232708
 20
74.5382995551565
 30
0.0
 10
-28.57063154232708
 20
74.26215718031
 30
0.0
 10
-28.7944891673558
 20
74.03829955528128
 30
0.0
 10
-29.07063154220165
 20
74.03829955528128
 30
0.0
  0
SPLINE
  5
7D
330
70
100
AcDbEntity
  8
Layer 1
 62
    18
420
        0
370
    25
100
AcDbSpline
210
0.0
220
0.0
230
1.0
 70
     9
 71
     3
 72
    29
 73
    25
 74
     0
 42
0.0000000001
 43
0.0000000001
 40
0.0
 40
0.0
 40
0.0
 40
0.0
 40
1.0
 40
1.0
 40
1.0
 40
2.0
 40
2.0
 40
2.0
 40
3.0
 40
3.0
 40
3.0
 40
4.0
 40
4.0
 40
4.0
 40
5.0
 40
5.0
 40
5.0
 40
6.0
 40
6.0
 40
6.0
 40
7.0
 40
7.0
 40
7.0
 40
8.0
 40
8.0
 40
8.0
 40
8.0
 10
-10.02063654220133
 20
74.03829955528128
 30
0.0
 10
-10.02063654220133
 20
74.03829955528128
 30
0.0
 10
-23.02063653895191
 20
74.03829955528128
 30
0.0
 10
-23.02063653895191
 20
74.03829955528128
 30
0.0
 10
-23.29677891379841
 20
74.03829955528128
 30
0.0
 10
-23.52063653882712
 20
74.26215718031
 30
0.0
 10
-23.52063653882712
 20
74.5382995551565
 30
0.0
 10
-23.52063653882712
 20
74.5382995551565
 30
0.0
 10
-23.52063653882712
 20
87.53829955190674
 30
0.0
 10
-23.52063653882712
 20
87.53829955190674
 30
0.0
 10
-23.52063653882712
 20
87.81444192675261
 30
0.0
 10
-23.29677891379841
 20
88.03829955178132
 30
0.0
 10
-23.02063653895191
 20
88.03829955178132
 30
0.0
 10
-23.02063653895191
 20
88.03829955178132
 30
0.0
 10
-10.02063654220133
 20
88.03829955178132
 30
0.0
 10
-10.02063654220133
 20
88.03829955178132
 30
0.0
 10
-9.744494167355805
 20
88.03829955178132
 30
0.0
 10
-9.520636542327093
 20
87.81444192675261
 30
0.0
 10
-9.520636542327093
 20
87.53829955190674
 30
0.0
 10
-9.520636542327093
 20
87.53829955190674
 30
0.0
 10
-9.520636542327093
 20
74.5382995551565
 30
0.0
 10
-9.520636542327093
 20
74.5382995551565
 30
0.0
 10
-9.520636542327093
 20
74.26215718031
 30
0.0
 10
-9.744494167355805
 20
74.03829955528128
 30
0.0
 10
-10.02063654220133
 20
74.03829955528128
 30
0.0
  0
SPLINE
  5
7E
330
70
100
AcDbEntity
  8
Layer 1
 62
    18
420
        0
370
    25
100
AcDbSpline
210
0.0
220
0.0
230
1.0
 70
     9
 71
     3
 72
    29
 73
    25
 74
     0
 42
0.0000000001
 43
0.0000000001
 40
0.0
 40
0.0
 40
0.0
 40
0.0
 40
1.0
 40
1.0
 40
1.0
 40
2.0
 40
2.0
 40
2.0
 40
3.0
 40
3.0
 40
3.0
 40
4.0
 40
4.0
 40
4.0
 40
5.0
 40
5.0
 40
5.0
 40
6.0
 40
6.0
 40
6.0
 40
7.0
 40
7.0
 40
7.0
 40
8.0
 40
8.0
 40
8.0
 40
8.0
 10
9.029373457798293
 20
74.03829955528128
 30
0.0
 10
9.029373457798293
 20
74.03829955528128
 30
0.0
 10
-3.970626538951959
 20
74.03829955528128
 30
0.0
 10
-3.970626538951959
 20
74.03829955528128
 30
0.0
 10
-4.246768913798455
 20
74.03829955528128
 30
0.0
 10
-4.470626538827167
 20
74.26215718031
 30
0.0
 10
-4.470626538827167
 20
74.5382995551565
 30
0.0
 10
-4.470626538827167
 20
74.5382995551565
 30
0.0
 10
-4.470626538827167
 20
87.53829955190674
 30
0.0
 10
-4.470626538827167
 20
87.53829955190674
 30
0.0
 10
-4.470626538827167
 20
87.81444192675261
 30
0.0
 10
-4.246768913798455
 20
88.03829955178132
 30
0.0
 10
-3.970626538951959
 20
88.03829955178132
 30
0.0
 10
-3.970626538951959
 20
88.03829955178132
 30
0.0
 10
9.029373457798293
 20
88.03829955178132
 30
0.0
 10
9.029373457798293
 20
88.03829955178132
 30
0.0
 10
9.305515832644147
 20
88.03829955178132
 30
0.0
 10
9.529373457673179
 20
87.81444192675261
 30
0.0
 10
9.529373457673179
 20
87.53829955190674
 30
0.0
 10
9.529373457673179
 20
87.53829955190674
 30
0.0
 10
9.529373457673179
 20
74.5382995551565
 30
0.0
 10
9.529373457673179
 20
74.5382995551565
 30
0.0
 10
9.529373457673179
 20
74.26215718031
 30
0.0
 10
9.305515832644147
 20
74.03829955528128
 30
0.0
 10
9.029373457798293
 20
74.03829955528128
 30
0.0
  0
SPLINE
  5
7F
330
70
100
AcDbEntity
  8
Layer 1
 62
    18
420
        0
370
    25
100
AcDbSpline
210
0.0
220
0.0
230
1.0
 70
     9
 71
     3
 72
    29
 73
    25
 74
     0
 42
0.0000000001
 43
0.0000000001
 40
0.0
 40
0.0
 40
0.0
 40
0.0
 40
1.0
 40
1.0
 40
1.0
 40
2.0
 40
2.0
 40
2.0
 40
3.0
 40
3.0
 40
3.0
 40
4.0
 40
4.0
 40
4.0
 40
5.0
 40
5.0
 40
5.0
 40
6.0
 40
6.0
 40
6.0
 40
7.0
 40
7.0
 40
7.0
 40
8.0
 40
8.0
 40
8.0
 40
8.0
 10
28.07936845779829
 20
74.03829955528128
 30
0.0
 10
28.07936845779829
 20
74.03829955528128
 30
0.0
 10
15.07936846104803
 20
74.03829955528128
 30
0.0
 10
15.07936846104803
 20
74.03829955528128
 30
0.0
 10
14.80322608620153
 20
74.03829955528128
 30
0.0
 10
14.57936846117282
 20
74.26215718031
 30
0.0
 10
14.57936846117282
 20
74.5382995551565
 30
0.0
 10
14.57936846117282
 20
74.5382995551565
 30
0.0
 10
14.57936846117282
 20
87.53829955190674
 30
0.0
 10
14.57936846117282
 20
87.53829955190674
 30
0.0
 10
14.57936846117282
 20
87.81444192675261
 30
0.0
 10
14.80322608620153
 20
88.03829955178132
 30
0.0
 10
15.07936846104803
 20
88.03829955178132
 30
0.0
 10
15.07936846104803
 20
88.03829955178132
 30
0.0
 10
28.07936845779829
 20
88.03829955178132
 30
0.0
 10
28.07936845779829
 20
88.03829955178132
 30
0.0
 10
28.35551083264414
 20
88.03829955178132
 30
0.0
 10
28.57936845767285
 20
87.81444192675261
 30
0.0
 10
28.57936845767285
 20
87.53829955190674
 30
0.0
 10
28.57936845767285
 20
87.53829955190674
 30
0.0
 10
28.57936845767285
 20
74.5382995551565
 30
0.0
 10
28.57936845767285
 20
74.5382995551565
 30
0.0
 10
28.57936845767285
 20
74.26215718031
 30
0.0
 10
28.35551083264414
 20
74.03829955528128
 30
0.0
 10
28.07936845779829
 20
74.03829955528128
 30
0.0
  0
SPLINE
  5
80
330
70
100
AcDbEntity
  8
Layer 1
 62
    18
420
        0
370
    25
100
AcDbSpline
210
0.0
220
0.0
230
1.0
 70
     9
 71
     3
 72
    29
 73
    25
 74
     0
 42
0.0000000001
 43
0.0000000001
 40
0.0
 40
0.0
 40
0.0
 40
0.0
 40
1.0
 40
1.0
 40
1.0
 40
2.0
 40
2.0
 40
2.0
 40
3.0
 40
3.0
 40
3.0
 40
4.0
 40
4.0
 40
4.0
 40
5.0
 40
5.0
 40
5.0
 40
6.0
 40
6.0
 40
6.0
 40
7.0
 40
7.0
 40
7.0
 40
8.0
 40
8.0
 40
8.0
 40
8.0
 10
47.12936845779847
 20
74.03829955528128
 30
0.0
 10
47.12936845779847
 20
74.03829955528128
 30
0.0
 10
34.12936846104822
 20
74.03829955528128
 30
0.0
 10
34.12936846104822
 20
74.03829955528128
 30
0.0
 10
33.85322608620173
 20
74.03829955528128
 30
0.0
 10
33.62936846117302
 20
74.26215718031
 30
0.0
 10
33.62936846117302
 20
74.5382995551565
 30
0.0
 10
33.62936846117302
 20
74.5382995551565
 30
0.0
 10
33.62936846117302
 20
87.53829955190674
 30
0.0
 10
33.62936846117302
 20
87.53829955190674
 30
0.0
 10
33.62936846117302
 20
87.81444192675261
 30
0.0
 10
33.85322608620173
 20
88.03829955178132
 30
0.0
 10
34.12936846104822
 20
88.03829955178132
 30
0.0
 10
34.12936846104822
 20
88.03829955178132
 30
0.0
 10
47.12936845779847
 20
88.03829955178132
 30
0.0
 10
47.12936845779847
 20
88.03829955178132
 30
0.0
 10
47.40551083264433
 20
88.03829955178132
 30
0.0
 10
47.62936845767272
 20
87.81444192675261
 30
0.0
 10
47.62936845767272
 20
87.53829955190674
 30
0.0
 10
47.62936845767272
 20
87.53829955190674
 30
0.0
 10
47.62936845767272
 20
74.5382995551565
 30
0.0
 10
47.62936845767272
 20
74.5382995551565
 30
0.0
 10
47.62936845767272
 20
74.26215718031
 30
0.0
 10
47.40551083264433
 20
74.03829955528128
 30
0.0
 10
47.12936845779847
 20
74.03829955528128
 30
0.0
  0
SPLINE
  5
81
330
70
100
AcDbEntity
  8
Layer 1
 62
    18
420
        0
370
    25
100
AcDbSpline
210
0.0
220
0.0
230
1.0
 70
     9
 71
     3
 72
    29
 73
    25
 74
     0
 42
0.0000000001
 43
0.0000000001
 40
0.0
 40
0.0
 40
0.0
 40
0.0
 40
1.0
 40
1.0
 40
1.0
 40
2.0
 40
2.0
 40
2.0
 40
3.0
 40
3.0
 40
3.0
 40
4.0
 40
4.0
 40
4.0
 40
5.0
 40
5.0
 40
5.0
 40
6.0
 40
6.0
 40
6.0
 40
7.0
 40
7.0
 40
7.0
 40
8.0
 40
8.0
 40
8.0
 40
8.0
 10
66.17936845779898
 20
74.03829955528128
 30
0.0
 10
66.17936845779898
 20
74.03829955528128
 30
0.0
 10
53.17936846104873
 20
74.03829955528128
 30
0.0
 10
53.17936846104873
 20
74.03829955528128
 30
0.0
 10
52.90322608620288
 20
74.03829955528128
 30
0.0
 10
52.67936846117352
 20
74.26215718031
 30
0.0
 10
52.67936846117352
 20
74.5382995551565
 30
0.0
 10
52.67936846117352
 20
74.5382995551565
 30
0.0
 10
52.67936846117352
 20
87.53829955190674
 30
0.0
 10
52.67936846117352
 20
87.53829955190674
 30
0.0
 10
52.67936846117352
 20
87.81444192675261
 30
0.0
 10
52.90322608620288
 20
88.03829955178132
 30
0.0
 10
53.17936846104873
 20
88.03829955178132
 30
0.0
 10
53.17936846104873
 20
88.03829955178132
 30
0.0
 10
66.17936845779898
 20
88.03829955178132
 30
0.0
 10
66.17936845779898
 20
88.03829955178132
 30
0.0
 10
66.45551083264483
 20
88.03829955178132
 30
0.0
 10
66.67936845767354
 20
87.81444192675261
 30
0.0
 10
66.67936845767354
 20
87.53829955190674
 30
0.0
 10
66.67936845767354
 20
87.53829955190674
 30
0.0
 10
66.67936845767354
 20
74.5382995551565
 30
0.0
 10
66.67936845767354
 20
74.5382995551565
 30
0.0
 10
66.67936845767354
 20
74.26215718031
 30
0.0
 10
66.45551083264483
 20
74.03829955528128
 30
0.0
 10
66.17936845779898
 20
74.03829955528128
 30
0.0
  0
SPLINE
  5
82
330
70
100
AcDbEntity
  8
Layer 1
 62
    18
420
        0
370
    25
100
AcDbSpline
210
0.0
220
0.0
230
1.0
 70
     9
 71
     3
 72
    29
 73
    25
 74
     0
 42
0.0000000001
 43
0.0000000001
 40
0.0
 40
0.0
 40
0.0
 40
0.0
 40
1.0
 40
1.0
 40
1.0
 40
2.0
 40
2.0
 40
2.0
 40
3.0
 40
3.0
 40
3.0
 40
4.0
 40
4.0
 40
4.0
 40
5.0
 40
5.0
 40
5.0
 40
6.0
 40
6.0
 40
6.0
 40
7.0
 40
7.0
 40
7.0
 40
8.0
 40
8.0
 40
8.0
 40
8.0
 10
85.22937845779958
 20
74.03829955528128
 30
0.0
 10
85.22937845779958
 20
74.03829955528128
 30
0.0
 10
72.22937846104868
 20
74.03829955528128
 30
0.0
 10
72.22937846104868
 20
74.03829955528128
 30
0.0
 10
71.95323608620348
 20
74.03829955528128
 30
0.0
 10
71.72937846117476
 20
74.26215718031
 30
0.0
 10
71.72937846117476
 20
74.5382995551565
 30
0.0
 10
71.72937846117476
 20
74.5382995551565
 30
0.0
 10
71.72937846117476
 20
87.53829955190674
 30
0.0
 10
71.72937846117476
 20
87.53829955190674
 30
0.0
 10
71.72937846117476
 20
87.81444192675261
 30
0.0
 10
71.95323608620348
 20
88.03829955178132
 30
0.0
 10
72.22937846104868
 20
88.03829955178132
 30
0.0
 10
72.22937846104868
 20
88.03829955178132
 30
0.0
 10
85.22937845779958
 20
88.03829955178132
 30
0.0
 10
85.22937845779958
 20
88.03829955178132
 30
0.0
 10
85.50552083264543
 20
88.03829955178132
 30
0.0
 10
85.72937845767414
 20
87.81444192675261
 30
0.0
 10
85.72937845767414
 20
87.53829955190674
 30
0.0
 10
85.72937845767414
 20
87.53829955190674
 30
0.0
 10
85.72937845767414
 20
74.5382995551565
 30
0.0
 10
85.72937845767414
 20
74.5382995551565
 30
0.0
 10
85.72937845767414
 20
74.26215718031
 30
0.0
 10
85.50552083264543
 20
74.03829955528128
 30
0.0
 10
85.22937845779958
 20
74.03829955528128
 30
0.0
  0
SPLINE
  5
83
330
70
100
AcDbEntity
  8
Layer 1
 62
    18
420
        0
370
    25
100
AcDbSpline
210
0.0
220
0.0
230
1.0
 70
     9
 71
     3
 72
    29
 73
    25
 74
     0
 42
0.0000000001
 43
0.0000000001
 40
0.0
 40
0.0
 40
0.0
 40
0.0
 40
1.0
 40
1.0
 40
1.0
 40
2.0
 40
2.0
 40
2.0
 40
3.0
 40
3.0
 40
3.0
 40
4.0
 40
4.0
 40
4.0
 40
5.0
 40
5.0
 40
5.0
 40
6.0
 40
6.0
 40
6.0
 40
7.0
 40
7.0
 40
7.0
 40
8.0
 40
8.0
 40
8.0
 40
8.0
 10
142.3793684577985
 20
74.03829955528128
 30
0.0
 10
142.3793684577985
 20
74.03829955528128
 30
0.0
 10
129.3793684610482
 20
74.03829955528128
 30
0.0
 10
129.3793684610482
 20
74.03829955528128
 30
0.0
 10
129.1032260862023
 20
74.03829955528128
 30
0.0
 10
128.8793684611736
 20
74.26215718031
 30
0.0
 10
128.8793684611736
 20
74.5382995551565
 30
0.0
 10
128.8793684611736
 20
74.5382995551565
 30
0.0
 10
128.8793684611736
 20
87.53829955190674
 30
0.0
 10
128.8793684611736
 20
87.53829955190674
 30
0.0
 10
128.8793684611736
 20
87.81444192675261
 30
0.0
 10
129.1032260862023
 20
88.03829955178132
 30
0.0
 10
129.3793684610482
 20
88.03829955178132
 30
0.0
 10
129.3793684610482
 20
88.03829955178132
 30
0.0
 10
142.3793684577985
 20
88.03829955178132
 30
0.0
 10
142.3793684577985
 20
88.03829955178132
 30
0.0
 10
142.6555108326443
 20
88.03829955178132
 30
0.0
 10
142.8793684576724
 20
87.81444192675261
 30
0.0
 10
142.8793684576724
 20
87.53829955190674
 30
0.0
 10
142.8793684576724
 20
87.53829955190674
 30
0.0
 10
142.8793684576724
 20
74.5382995551565
 30
0.0
 10
142.8793684576724
 20
74.5382995551565
 30
0.0
 10
142.8793684576724
 20
74.26215718031
 30
0.0
 10
142.6555108326443
 20
74.03829955528128
 30
0.0
 10
142.3793684577985
 20
74.03829955528128
 30
0.0
  0
SPLINE
  5
84
330
70
100
AcDbEntity
  8
Layer 1
 62
    18
420
        0
370
    25
100
AcDbSpline
210
0.0
220
0.0
230
1.0
 70
     9
 71
     3
 72
    29
 73
    25
 74
     0
 42
0.0000000001
 43
0.0000000001
 40
0.0
 40
0.0
 40
0.0
 40
0.0
 40
1.0
 40
1.0
 40
1.0
 40
2.0
 40
2.0
 40
2.0
 40
3.0
 40
3.0
 40
3.0
 40
4.0
 40
4.0
 40
4.0
 40
5.0
 40
5.0
 40
5.0
 40
6.0
 40
6.0
 40
6.0
 40
7.0
 40
7.0
 40
7.0
 40
8.0
 40
8.0
 40
8.0
 40
8.0
 10
161.4293734577995
 20
74.03829955528128
 30
0.0
 10
161.4293734577995
 20
74.03829955528128
 30
0.0
 10
148.4293734610492
 20
74.03829955528128
 30
0.0
 10
148.4293734610492
 20
74.03829955528128
 30
0.0
 10
148.1532310862021
 20
74.03829955528128
 30
0.0
 10
147.9293734611734
 20
74.26215718031
 30
0.0
 10
147.9293734611734
 20
74.5382995551565
 30
0.0
 10
147.9293734611734
 20
74.5382995551565
 30
0.0
 10
147.9293734611734
 20
87.53829955190674
 30
0.0
 10
147.9293734611734
 20
87.53829955190674
 30
0.0
 10
147.9293734611734
 20
87.81444192675261
 30
0.0
 10
148.1532310862021
 20
88.03829955178132
 30
0.0
 10
148.4293734610492
 20
88.03829955178132
 30
0.0
 10
148.4293734610492
 20
88.03829955178132
 30
0.0
 10
161.4293734577995
 20
88.03829955178132
 30
0.0
 10
161.4293734577995
 20
88.03829955178132
 30
0.0
 10
161.7055158326453
 20
88.03829955178132
 30
0.0
 10
161.9293734576741
 20
87.81444192675261
 30
0.0
 10
161.9293734576741
 20
87.53829955190674
 30
0.0
 10
161.9293734576741
 20
87.53829955190674
 30
0.0
 10
161.9293734576741
 20
74.5382995551565
 30
0.0
 10
161.9293734576741
 20
74.5382995551565
 30
0.0
 10
161.9293734576741
 20
74.26215718031
 30
0.0
 10
161.7055158326453
 20
74.03829955528128
 30
0.0
 10
161.4293734577995
 20
74.03829955528128
 30
0.0
  0
SPLINE
  5
85
330
70
100
AcDbEntity
  8
Layer 1
 62
    18
420
        0
370
    25
100
AcDbSpline
210
0.0
220
0.0
230
1.0
 70
     9
 71
     3
 72
    29
 73
    25
 74
     0
 42
0.0000000001
 43
0.0000000001
 40
0.0
 40
0.0
 40
0.0
 40
0.0
 40
1.0
 40
1.0
 40
1.0
 40
2.0
 40
2.0
 40
2.0
 40
3.0
 40
3.0
 40
3.0
 40
4.0
 40
4.0
 40
4.0
 40
5.0
 40
5.0
 40
5.0
 40
6.0
 40
6.0
 40
6.0
 40
7.0
 40
7.0
 40
7.0
 40
8.0
 40
8.0
 40
8.0
 40
8.0
 10
180.4793784577992
 20
74.03829955528128
 30
0.0
 10
180.4793784577992
 20
74.03829955528128
 30
0.0
 10
167.479378461049
 20
74.03829955528128
 30
0.0
 10
167.479378461049
 20
74.03829955528128
 30
0.0
 10
167.2032360862031
 20
74.03829955528128
 30
0.0
 10
166.9793784611744
 20
74.26215718031
 30
0.0
 10
166.9793784611744
 20
74.5382995551565
 30
0.0
 10
166.9793784611744
 20
74.5382995551565
 30
0.0
 10
166.9793784611744
 20
87.53829955190674
 30
0.0
 10
166.9793784611744
 20
87.53829955190674
 30
0.0
 10
166.9793784611744
 20
87.81444192675261
 30
0.0
 10
167.2032360862031
 20
88.03829955178132
 30
0.0
 10
167.479378461049
 20
88.03829955178132
 30
0.0
 10
167.479378461049
 20
88.03829955178132
 30
0.0
 10
180.4793784577992
 20
88.03829955178132
 30
0.0
 10
180.4793784577992
 20
88.03829955178132
 30
0.0
 10
180.7555208326451
 20
88.03829955178132
 30
0.0
 10
180.9793784576738
 20
87.81444192675261
 30
0.0
 10
180.9793784576738
 20
87.53829955190674
 30
0.0
 10
180.9793784576738
 20
87.53829955190674
 30
0.0
 10
180.9793784576738
 20
74.5382995551565
 30
0.0
 10
180.9793784576738
 20
74.5382995551565
 30
0.0
 10
180.9793784576738
 20
74.26215718031
 30
0.0
 10
180.7555208326451
 20
74.03829955528128
 30
0.0
 10
180.4793784577992
 20
74.03829955528128
 30
0.0
  0
SPLINE
  5
86
330
70
100
AcDbEntity
  8
Layer 1
 62
    18
420
        0
370
    25
100
AcDbSpline
210
0.0
220
0.0
230
1.0
 70
     9
 71
     3
 72
    29
 73
    25
 74
     0
 42
0.0000000001
 43
0.0000000001
 40
0.0
 40
0.0
 40
0.0
 40
0.0
 40
1.0
 40
1.0
 40
1.0
 40
2.0
 40
2.0
 40
2.0
 40
3.0
 40
3.0
 40
3.0
 40
4.0
 40
4.0
 40
4.0
 40
5.0
 40
5.0
 40
5.0
 40
6.0
 40
6.0
 40
6.0
 40
7.0
 40
7.0
 40
7.0
 40
8.0
 40
8.0
 40
8.0
 40
8.0
 10
204.2918784577985
 20
74.03829955528128
 30
0.0
 10
204.2918784577985
 20
74.03829955528128
 30
0.0
 10
191.2918784610482
 20
74.03829955528128
 30
0.0
 10
191.2918784610482
 20
74.03829955528128
 30
0.0
 10
191.0157360862024
 20
74.03829955528128
 30
0.0
 10
190.7918784611737
 20
74.26215718031
 30
0.0
 10
190.7918784611737
 20
74.5382995551565
 30
0.0
 10
190.7918784611737
 20
74.5382995551565
 30
0.0
 10
190.7918784611737
 20
87.53829955190674
 30
0.0
 10
190.7918784611737
 20
87.53829955190674
 30
0.0
 10
190.7918784611737
 20
87.81444192675261
 30
0.0
 10
191.0157360862024
 20
88.03829955178132
 30
0.0
 10
191.2918784610482
 20
88.03829955178132
 30
0.0
 10
191.2918784610482
 20
88.03829955178132
 30
0.0
 10
204.2918784577985
 20
88.03829955178132
 30
0.0
 10
204.2918784577985
 20
88.03829955178132
 30
0.0
 10
204.5680208326444
 20
88.03829955178132
 30
0.0
 10
204.7918784576731
 20
87.81444192675261
 30
0.0
 10
204.7918784576731
 20
87.53829955190674
 30
0.0
 10
204.7918784576731
 20
87.53829955190674
 30
0.0
 10
204.7918784576731
 20
74.5382995551565
 30
0.0
 10
204.7918784576731
 20
74.5382995551565
 30
0.0
 10
204.7918784576731
 20
74.26215718031
 30
0.0
 10
204.5680208326444
 20
74.03829955528128
 30
0.0
 10
204.2918784577985
 20
74.03829955528128
 30
0.0
  0
SPLINE
  5
87
330
70
100
AcDbEntity
  8
Layer 1
 62
    18
420
        0
370
    25
100
AcDbSpline
210
0.0
220
0.0
230
1.0
 70
     9
 71
     3
 72
    65
 73
    61
 74
     0
 42
0.0000000001
 43
0.0000000001
 40
0.0
 40
0.0
 40
0.0
 40
0.0
 40
1.0
 40
1.0
 40
1.0
 40
2.0
 40
2.0
 40
2.0
 40
3.0
 40
3.0
 40
3.0
 40
4.0
 40
4.0
 40
4.0
 40
5.0
 40
5.0
 40
5.0
 40
6.0
 40
6.0
 40
6.0
 40
7.0
 40
7.0
 40
7.0
 40
8.0
 40
8.0
 40
8.0
 40
9.0
 40
9.0
 40
9.0
 40
10.0
 40
10.0
 40
10.0
 40
11.0
 40
11.0
 40
11.0
 40
12.0
 40
12.0
 40
12.0
 40
13.0
 40
13.0
 40
13.0
 40
14.0
 40
14.0
 40
14.0
 40
15.0
 40
15.0
 40
15.0
 40
16.0
 40
16.0
 40
16.0
 40
17.0
 40
17.0
 40
17.0
 40
18.0
 40
18.0
 40
18.0
 40
19.0
 40
19.0
 40
19.0
 40
20.0
 40
20.0
 40
20.0
 40
20.0
 10
129.9663807107332
 20
30.88868844781546
 30
0.0
 10
129.9663807107332
 20
30.88868844781546
 30
0.0
 10
129.3793584634298
 20
30.88868844781546
 30
0.0
 10
129.3793584634298
 20
30.88868844781546
 30
0.0
 10
129.1032160885839
 20
30.88868844781546
 30
0.0
 10
128.8793584635552
 20
30.66483082278674
 30
0.0
 10
128.8793584635552
 20
30.38868844793961
 30
0.0
 10
128.8793584635552
 20
30.38868844793961
 30
0.0
 10
128.8793584635552
 20
17.38868845119064
 30
0.0
 10
128.8793584635552
 20
17.38868845119064
 30
0.0
 10
128.8793584635552
 20
17.1125460763435
 30
0.0
 10
129.1032160885839
 20
16.88868845131479
 30
0.0
 10
129.3793584634298
 20
16.88868845131479
 30
0.0
 10
129.3793584634298
 20
16.88868845131479
 30
0.0
 10
161.4293584554175
 20
16.88868845131479
 30
0.0
 10
161.4293584554175
 20
16.88868845131479
 30
0.0
 10
161.7055008302634
 20
16.88868845131479
 30
0.0
 10
161.9293584552921
 20
17.1125460763435
 30
0.0
 10
161.9293584552921
 20
17.38868845119064
 30
0.0
 10
161.9293584552921
 20
17.38868845119064
 30
0.0
 10
161.9293584552921
 20
30.38868844793961
 30
0.0
 10
161.9293584552921
 20
30.38868844793961
 30
0.0
 10
161.9293584552921
 20
30.66483082278674
 30
0.0
 10
161.7055008302634
 20
30.88868844781546
 30
0.0
 10
161.4293584554175
 20
30.88868844781546
 30
0.0
 10
161.4293584554175
 20
30.88868844781546
 30
0.0
 10
160.8423777845764
 20
30.88868844781546
 30
0.0
 10
160.8423777845764
 20
30.88868844781546
 30
0.0
 10
160.8423777845764
 20
30.88868844781546
 30
0.0
 10
160.8423784585491
 20
32.38868844781391
 30
0.0
 10
160.8423784585491
 20
32.38868844781391
 30
0.0
 10
160.8423784585491
 20
32.66483082266105
 30
0.0
 10
160.6185208335204
 20
32.88868844768976
 30
0.0
 10
160.3423784586732
 20
32.88868844768976
 30
0.0
 10
160.3423784586732
 20
32.88868844768976
 30
0.0
 10
154.3423784601733
 20
32.88868844768976
 30
0.0
 10
154.3423784601733
 20
32.88868844768976
 30
0.0
 10
154.0662360853275
 20
32.88868844768976
 30
0.0
 10
153.8423784602987
 20
32.66483082266105
 30
0.0
 10
153.8423784602987
 20
32.38868844781391
 30
0.0
 10
153.8423784602987
 20
32.38868844781391
 30
0.0
 10
153.8423776185783
 20
30.88868844781546
 30
0.0
 10
153.8423776185783
 20
30.88868844781546
 30
0.0
 10
153.8423776185783
 20
30.88868844781546
 30
0.0
 10
136.9663784585489
 20
30.88868903383812
 30
0.0
 10
136.9663784585489
 20
30.88868903383812
 30
0.0
 10
136.9663784585489
 20
30.88868903383812
 30
0.0
 10
136.9663784585489
 20
32.38868844781391
 30
0.0
 10
136.9663784585489
 20
32.38868844781391
 30
0.0
 10
136.9663784585489
 20
32.66483082266105
 30
0.0
 10
136.7425208335202
 20
32.88868844768976
 30
0.0
 10
136.4663784586743
 20
32.88868844768976
 30
0.0
 10
136.4663784586743
 20
32.88868844768976
 30
0.0
 10
130.4663784601744
 20
32.88868844768976
 30
0.0
 10
130.4663784601744
 20
32.88868844768976
 30
0.0
 10
130.1902360853273
 20
32.88868844768976
 30
0.0
 10
129.9663784602986
 20
32.66483082266105
 30
0.0
 10
129.9663784602986
 20
32.38868844781391
 30
0.0
 10
129.9663784602986
 20
32.38868844781391
 30
0.0
 10
129.9663784602986
 20
30.88868903383812
 30
0.0
 10
129.9663807107332
 20
30.88868844781546
 30
0.0
  0
SPLINE
  5
88
330
70
100
AcDbEntity
  8
Layer 1
 62
    18
420
        0
370
    25
100
AcDbSpline
210
0.0
220
0.0
230
1.0
 70
     9
 71
     3
 72
    29
 73
    25
 74
     0
 42
0.0000000001
 43
0.0000000001
 40
0.0
 40
0.0
 40
0.0
 40
0.0
 40
1.0
 40
1.0
 40
1.0
 40
2.0
 40
2.0
 40
2.0
 40
3.0
 40
3.0
 40
3.0
 40
4.0
 40
4.0
 40
4.0
 40
5.0
 40
5.0
 40
5.0
 40
6.0
 40
6.0
 40
6.0
 40
7.0
 40
7.0
 40
7.0
 40
8.0
 40
8.0
 40
8.0
 40
8.0
 10
180.4793784577992
 20
16.8882895552816
 30
0.0
 10
180.4793784577992
 20
16.8882895552816
 30
0.0
 10
167.479378461049
 20
16.8882895552816
 30
0.0
 10
167.479378461049
 20
16.8882895552816
 30
0.0
 10
167.2032360862031
 20
16.8882895552816
 30
0.0
 10
166.9793784611744
 20
17.11214718031031
 30
0.0
 10
166.9793784611744
 20
17.38828955515616
 30
0.0
 10
166.9793784611744
 20
17.38828955515616
 30
0.0
 10
166.9793784611744
 20
30.38828955190642
 30
0.0
 10
166.9793784611744
 20
30.38828955190642
 30
0.0
 10
166.9793784611744
 20
30.66443192675356
 30
0.0
 10
167.2032360862031
 20
30.88828955178227
 30
0.0
 10
167.479378461049
 20
30.88828955178227
 30
0.0
 10
167.479378461049
 20
30.88828955178227
 30
0.0
 10
180.4793784577992
 20
30.88828955178227
 30
0.0
 10
180.4793784577992
 20
30.88828955178227
 30
0.0
 10
180.7555208326451
 20
30.88828955178227
 30
0.0
 10
180.9793784576738
 20
30.66443192675356
 30
0.0
 10
180.9793784576738
 20
30.38828955190642
 30
0.0
 10
180.9793784576738
 20
30.38828955190642
 30
0.0
 10
180.9793784576738
 20
17.38828955515616
 30
0.0
 10
180.9793784576738
 20
17.38828955515616
 30
0.0
 10
180.9793784576738
 20
17.11214718031031
 30
0.0
 10
180.7555208326451
 20
16.8882895552816
 30
0.0
 10
180.4793784577992
 20
16.8882895552816
 30
0.0
  0
SPLINE
  5
89
330
70
100
AcDbEntity
  8
Layer 1
 62
    18
420
        0
370
    25
100
AcDbSpline
210
0.0
220
0.0
230
1.0
 70
     9
 71
     3
 72
    29
 73
    25
 74
     0
 42
0.0000000001
 43
0.0000000001
 40
0.0
 40
0.0
 40
0.0
 40
0.0
 40
1.0
 40
1.0
 40
1.0
 40
2.0
 40
2.0
 40
2.0
 40
3.0
 40
3.0
 40
3.0
 40
4.0
 40
4.0
 40
4.0
 40
5.0
 40
5.0
 40
5.0
 40
6.0
 40
6.0
 40
6.0
 40
7.0
 40
7.0
 40
7.0
 40
8.0
 40
8.0
 40
8.0
 40
8.0
 10
199.5293584577986
 20
16.8882895552816
 30
0.0
 10
199.5293584577986
 20
16.8882895552816
 30
0.0
 10
186.5293584610484
 20
16.8882895552816
 30
0.0
 10
186.5293584610484
 20
16.8882895552816
 30
0.0
 10
186.2532160862025
 20
16.8882895552816
 30
0.0
 10
186.0293584611738
 20
17.11214718031031
 30
0.0
 10
186.0293584611738
 20
17.38828955515616
 30
0.0
 10
186.0293584611738
 20
17.38828955515616
 30
0.0
 10
186.0293584611738
 20
30.38828955190642
 30
0.0
 10
186.0293584611738
 20
30.38828955190642
 30
0.0
 10
186.0293584611738
 20
30.66443192675356
 30
0.0
 10
186.2532160862025
 20
30.88828955178227
 30
0.0
 10
186.5293584610484
 20
30.88828955178227
 30
0.0
 10
186.5293584610484
 20
30.88828955178227
 30
0.0
 10
199.5293584577986
 20
30.88828955178227
 30
0.0
 10
199.5293584577986
 20
30.88828955178227
 30
0.0
 10
199.8055008326445
 20
30.88828955178227
 30
0.0
 10
200.0293584576732
 20
30.66443192675356
 30
0.0
 10
200.0293584576732
 20
30.38828955190642
 30
0.0
 10
200.0293584576732
 20
30.38828955190642
 30
0.0
 10
200.0293584576732
 20
17.38828955515616
 30
0.0
 10
200.0293584576732
 20
17.38828955515616
 30
0.0
 10
200.0293584576732
 20
17.11214718031031
 30
0.0
 10
199.8055008326445
 20
16.8882895552816
 30
0.0
 10
199.5293584577986
 20
16.8882895552816
 30
0.0
  0
SPLINE
  5
8A
330
70
100
AcDbEntity
  8
Layer 1
 62
    18
420
        0
370
    25
100
AcDbSpline
210
0.0
220
0.0
230
1.0
 70
     9
 71
     3
 72
    29
 73
    25
 74
     0
 42
0.0000000001
 43
0.0000000001
 40
0.0
 40
0.0
 40
0.0
 40
0.0
 40
1.0
 40
1.0
 40
1.0
 40
2.0
 40
2.0
 40
2.0
 40
3.0
 40
3.0
 40
3.0
 40
4.0
 40
4.0
 40
4.0
 40
5.0
 40
5.0
 40
5.0
 40
6.0
 40
6.0
 40
6.0
 40
7.0
 40
7.0
 40
7.0
 40
8.0
 40
8.0
 40
8.0
 40
8.0
 10
204.2918784577985
 20
50.22579955528201
 30
0.0
 10
204.2918784577985
 20
50.22579955528201
 30
0.0
 10
191.2918784610482
 20
50.22579955528201
 30
0.0
 10
191.2918784610482
 20
50.22579955528201
 30
0.0
 10
191.0157360862024
 20
50.22579955528201
 30
0.0
 10
190.7918784611737
 20
50.44965718031072
 30
0.0
 10
190.7918784611737
 20
50.72579955515657
 30
0.0
 10
190.7918784611737
 20
50.72579955515657
 30
0.0
 10
190.7918784611737
 20
63.72579955190619
 30
0.0
 10
190.7918784611737
 20
63.72579955190619
 30
0.0
 10
190.7918784611737
 20
64.00194192675268
 30
0.0
 10
191.0157360862024
 20
64.22579955178139
 30
0.0
 10
191.2918784610482
 20
64.22579955178139
 30
0.0
 10
191.2918784610482
 20
64.22579955178139
 30
0.0
 10
204.2918784577985
 20
64.22579955178139
 30
0.0
 10
204.2918784577985
 20
64.22579955178139
 30
0.0
 10
204.5680208326444
 20
64.22579955178139
 30
0.0
 10
204.7918784576731
 20
64.00194192675268
 30
0.0
 10
204.7918784576731
 20
63.72579955190619
 30
0.0
 10
204.7918784576731
 20
63.72579955190619
 30
0.0
 10
204.7918784576731
 20
50.72579955515657
 30
0.0
 10
204.7918784576731
 20
50.72579955515657
 30
0.0
 10
204.7918784576731
 20
50.44965718031072
 30
0.0
 10
204.5680208326444
 20
50.22579955528201
 30
0.0
 10
204.2918784577985
 20
50.22579955528201
 30
0.0
  0
SPLINE
  5
8B
330
70
100
AcDbEntity
  8
Layer 1
 62
    18
420
        0
370
    25
100
AcDbSpline
210
0.0
220
0.0
230
1.0
 70
     9
 71
     3
 72
    29
 73
    25
 74
     0
 42
0.0000000001
 43
0.0000000001
 40
0.0
 40
0.0
 40
0.0
 40
0.0
 40
1.0
 40
1.0
 40
1.0
 40
2.0
 40
2.0
 40
2.0
 40
3.0
 40
3.0
 40
3.0
 40
4.0
 40
4.0
 40
4.0
 40
5.0
 40
5.0
 40
5.0
 40
6.0
 40
6.0
 40
6.0
 40
7.0
 40
7.0
 40
7.0
 40
8.0
 40
8.0
 40
8.0
 40
8.0
 10
142.3793684577985
 20
54.98829955615637
 30
0.0
 10
142.3793684577985
 20
54.98829955615637
 30
0.0
 10
129.3793684610482
 20
54.98829955615637
 30
0.0
 10
129.3793684610482
 20
54.98829955615637
 30
0.0
 10
129.1032260862023
 20
54.98829955615637
 30
0.0
 10
128.8793684611736
 20
55.21215718118509
 30
0.0
 10
128.8793684611736
 20
55.48829955603158
 30
0.0
 10
128.8793684611736
 20
55.48829955603158
 30
0.0
 10
128.8793684611736
 20
68.48829955278183
 30
0.0
 10
128.8793684611736
 20
68.48829955278183
 30
0.0
 10
128.8793684611736
 20
68.76444192762832
 30
0.0
 10
129.1032260862023
 20
68.98829955265703
 30
0.0
 10
129.3793684610482
 20
68.98829955265703
 30
0.0
 10
129.3793684610482
 20
68.98829955265703
 30
0.0
 10
142.3793684577985
 20
68.98829955265703
 30
0.0
 10
142.3793684577985
 20
68.98829955265703
 30
0.0
 10
142.6555108326443
 20
68.98829955265703
 30
0.0
 10
142.8793684576724
 20
68.76444192762832
 30
0.0
 10
142.8793684576724
 20
68.48829955278183
 30
0.0
 10
142.8793684576724
 20
68.48829955278183
 30
0.0
 10
142.8793684576724
 20
55.48829955603158
 30
0.0
 10
142.8793684576724
 20
55.48829955603158
 30
0.0
 10
142.8793684576724
 20
55.21215718118509
 30
0.0
 10
142.6555108326443
 20
54.98829955615637
 30
0.0
 10
142.3793684577985
 20
54.98829955615637
 30
0.0
  0
SPLINE
  5
8C
330
70
100
AcDbEntity
  8
Layer 1
 62
    18
420
        0
370
    25
100
AcDbSpline
210
0.0
220
0.0
230
1.0
 70
     9
 71
     3
 72
    29
 73
    25
 74
     0
 42
0.0000000001
 43
0.0000000001
 40
0.0
 40
0.0
 40
0.0
 40
0.0
 40
1.0
 40
1.0
 40
1.0
 40
2.0
 40
2.0
 40
2.0
 40
3.0
 40
3.0
 40
3.0
 40
4.0
 40
4.0
 40
4.0
 40
5.0
 40
5.0
 40
5.0
 40
6.0
 40
6.0
 40
6.0
 40
7.0
 40
7.0
 40
7.0
 40
8.0
 40
8.0
 40
8.0
 40
8.0
 10
161.4293684577986
 20
54.98829955615637
 30
0.0
 10
161.4293684577986
 20
54.98829955615637
 30
0.0
 10
148.4293684610477
 20
54.98829955615637
 30
0.0
 10
148.4293684610477
 20
54.98829955615637
 30
0.0
 10
148.1532260862025
 20
54.98829955615637
 30
0.0
 10
147.9293684611738
 20
55.21215718118509
 30
0.0
 10
147.9293684611738
 20
55.48829955603158
 30
0.0
 10
147.9293684611738
 20
55.48829955603158
 30
0.0
 10
147.9293684611738
 20
68.48829955278183
 30
0.0
 10
147.9293684611738
 20
68.48829955278183
 30
0.0
 10
147.9293684611738
 20
68.76444192762832
 30
0.0
 10
148.1532260862025
 20
68.98829955265703
 30
0.0
 10
148.4293684610477
 20
68.98829955265703
 30
0.0
 10
148.4293684610477
 20
68.98829955265703
 30
0.0
 10
161.4293684577986
 20
68.98829955265703
 30
0.0
 10
161.4293684577986
 20
68.98829955265703
 30
0.0
 10
161.7055108326445
 20
68.98829955265703
 30
0.0
 10
161.9293684576726
 20
68.76444192762832
 30
0.0
 10
161.9293684576726
 20
68.48829955278183
 30
0.0
 10
161.9293684576726
 20
68.48829955278183
 30
0.0
 10
161.9293684576726
 20
55.48829955603158
 30
0.0
 10
161.9293684576726
 20
55.48829955603158
 30
0.0
 10
161.9293684576726
 20
55.21215718118509
 30
0.0
 10
161.7055108326445
 20
54.98829955615637
 30
0.0
 10
161.4293684577986
 20
54.98829955615637
 30
0.0
  0
SPLINE
  5
8D
330
70
100
AcDbEntity
  8
Layer 1
 62
    18
420
        0
370
    25
100
AcDbSpline
210
0.0
220
0.0
230
1.0
 70
     9
 71
     3
 72
    29
 73
    25
 74
     0
 42
0.0000000001
 43
0.0000000001
 40
0.0
 40
0.0
 40
0.0
 40
0.0
 40
1.0
 40
1.0
 40
1.0
 40
2.0
 40
2.0
 40
2.0
 40
3.0
 40
3.0
 40
3.0
 40
4.0
 40
4.0
 40
4.0
 40
5.0
 40
5.0
 40
5.0
 40
6.0
 40
6.0
 40
6.0
 40
7.0
 40
7.0
 40
7.0
 40
8.0
 40
8.0
 40
8.0
 40
8.0
 10
180.4793784577992
 20
54.98829955615637
 30
0.0
 10
180.4793784577992
 20
54.98829955615637
 30
0.0
 10
167.479378461049
 20
54.98829955615637
 30
0.0
 10
167.479378461049
 20
54.98829955615637
 30
0.0
 10
167.2032360862031
 20
54.98829955615637
 30
0.0
 10
166.9793784611744
 20
55.21215718118509
 30
0.0
 10
166.9793784611744
 20
55.48829955603158
 30
0.0
 10
166.9793784611744
 20
55.48829955603158
 30
0.0
 10
166.9793784611744
 20
68.48829955278183
 30
0.0
 10
166.9793784611744
 20
68.48829955278183
 30
0.0
 10
166.9793784611744
 20
68.76444192762832
 30
0.0
 10
167.2032360862031
 20
68.98829955265703
 30
0.0
 10
167.479378461049
 20
68.98829955265703
 30
0.0
 10
167.479378461049
 20
68.98829955265703
 30
0.0
 10
180.4793784577992
 20
68.98829955265703
 30
0.0
 10
180.4793784577992
 20
68.98829955265703
 30
0.0
 10
180.7555208326451
 20
68.98829955265703
 30
0.0
 10
180.9793784576738
 20
68.76444192762832
 30
0.0
 10
180.9793784576738
 20
68.48829955278183
 30
0.0
 10
180.9793784576738
 20
68.48829955278183
 30
0.0
 10
180.9793784576738
 20
55.48829955603158
 30
0.0
 10
180.9793784576738
 20
55.48829955603158
 30
0.0
 10
180.9793784576738
 20
55.21215718118509
 30
0.0
 10
180.7555208326451
 20
54.98829955615637
 30
0.0
 10
180.4793784577992
 20
54.98829955615637
 30
0.0
  0
SPLINE
  5
8E
330
70
100
AcDbEntity
  8
Layer 1
 62
    18
420
        0
370
    25
100
AcDbSpline
210
0.0
220
0.0
230
1.0
 70
     9
 71
     3
 72
    29
 73
    25
 74
     0
 42
0.0000000001
 43
0.0000000001
 40
0.0
 40
0.0
 40
0.0
 40
0.0
 40
1.0
 40
1.0
 40
1.0
 40
2.0
 40
2.0
 40
2.0
 40
3.0
 40
3.0
 40
3.0
 40
4.0
 40
4.0
 40
4.0
 40
5.0
 40
5.0
 40
5.0
 40
6.0
 40
6.0
 40
6.0
 40
7.0
 40
7.0
 40
7.0
 40
8.0
 40
8.0
 40
8.0
 40
8.0
 10
142.3793534577985
 20
35.93829955528091
 30
0.0
 10
142.3793534577985
 20
35.93829955528091
 30
0.0
 10
129.3793534610482
 20
35.93829955528091
 30
0.0
 10
129.3793534610482
 20
35.93829955528091
 30
0.0
 10
129.1032110862024
 20
35.93829955528091
 30
0.0
 10
128.8793534611736
 20
36.16215718030962
 30
0.0
 10
128.8793534611736
 20
36.43829955515676
 30
0.0
 10
128.8793534611736
 20
36.43829955515676
 30
0.0
 10
128.8793534611736
 20
49.438299551907
 30
0.0
 10
128.8793534611736
 20
49.438299551907
 30
0.0
 10
128.8793534611736
 20
49.71444192675286
 30
0.0
 10
129.1032110862024
 20
49.93829955178157
 30
0.0
 10
129.3793534610482
 20
49.93829955178157
 30
0.0
 10
129.3793534610482
 20
49.93829955178157
 30
0.0
 10
142.3793534577985
 20
49.93829955178157
 30
0.0
 10
142.3793534577985
 20
49.93829955178157
 30
0.0
 10
142.6554958326456
 20
49.93829955178157
 30
0.0
 10
142.8793534576743
 20
49.71444192675286
 30
0.0
 10
142.8793534576743
 20
49.438299551907
 30
0.0
 10
142.8793534576743
 20
49.438299551907
 30
0.0
 10
142.8793534576743
 20
36.43829955515676
 30
0.0
 10
142.8793534576743
 20
36.43829955515676
 30
0.0
 10
142.8793534576743
 20
36.16215718030962
 30
0.0
 10
142.6554958326456
 20
35.93829955528091
 30
0.0
 10
142.3793534577985
 20
35.93829955528091
 30
0.0
  0
SPLINE
  5
8F
330
70
100
AcDbEntity
  8
Layer 1
 62
    18
420
        0
370
    25
100
AcDbSpline
210
0.0
220
0.0
230
1.0
 70
     9
 71
     3
 72
    29
 73
    25
 74
     0
 42
0.0000000001
 43
0.0000000001
 40
0.0
 40
0.0
 40
0.0
 40
0.0
 40
1.0
 40
1.0
 40
1.0
 40
2.0
 40
2.0
 40
2.0
 40
3.0
 40
3.0
 40
3.0
 40
4.0
 40
4.0
 40
4.0
 40
5.0
 40
5.0
 40
5.0
 40
6.0
 40
6.0
 40
6.0
 40
7.0
 40
7.0
 40
7.0
 40
8.0
 40
8.0
 40
8.0
 40
8.0
 10
161.4293534577987
 20
35.93829955528091
 30
0.0
 10
161.4293534577987
 20
35.93829955528091
 30
0.0
 10
148.4293534610484
 20
35.93829955528091
 30
0.0
 10
148.4293534610484
 20
35.93829955528091
 30
0.0
 10
148.1532110862026
 20
35.93829955528091
 30
0.0
 10
147.9293534611739
 20
36.16215718030962
 30
0.0
 10
147.9293534611739
 20
36.43829955515676
 30
0.0
 10
147.9293534611739
 20
36.43829955515676
 30
0.0
 10
147.9293534611739
 20
49.438299551907
 30
0.0
 10
147.9293534611739
 20
49.438299551907
 30
0.0
 10
147.9293534611739
 20
49.71444192675286
 30
0.0
 10
148.1532110862026
 20
49.93829955178157
 30
0.0
 10
148.4293534610484
 20
49.93829955178157
 30
0.0
 10
148.4293534610484
 20
49.93829955178157
 30
0.0
 10
161.4293534577987
 20
49.93829955178157
 30
0.0
 10
161.4293534577987
 20
49.93829955178157
 30
0.0
 10
161.7054958326458
 20
49.93829955178157
 30
0.0
 10
161.9293534576745
 20
49.71444192675286
 30
0.0
 10
161.9293534576745
 20
49.438299551907
 30
0.0
 10
161.9293534576745
 20
49.438299551907
 30
0.0
 10
161.9293534576745
 20
36.43829955515676
 30
0.0
 10
161.9293534576745
 20
36.43829955515676
 30
0.0
 10
161.9293534576745
 20
36.16215718030962
 30
0.0
 10
161.7054958326458
 20
35.93829955528091
 30
0.0
 10
161.4293534577987
 20
35.93829955528091
 30
0.0
  0
SPLINE
  5
90
330
70
100
AcDbEntity
  8
Layer 1
 62
    18
420
        0
370
    25
100
AcDbSpline
210
0.0
220
0.0
230
1.0
 70
     9
 71
     3
 72
    29
 73
    25
 74
     0
 42
0.0000000001
 43
0.0000000001
 40
0.0
 40
0.0
 40
0.0
 40
0.0
 40
1.0
 40
1.0
 40
1.0
 40
2.0
 40
2.0
 40
2.0
 40
3.0
 40
3.0
 40
3.0
 40
4.0
 40
4.0
 40
4.0
 40
5.0
 40
5.0
 40
5.0
 40
6.0
 40
6.0
 40
6.0
 40
7.0
 40
7.0
 40
7.0
 40
8.0
 40
8.0
 40
8.0
 40
8.0
 10
180.4793634577993
 20
35.93829955528091
 30
0.0
 10
180.4793634577993
 20
35.93829955528091
 30
0.0
 10
167.479363461049
 20
35.93829955528091
 30
0.0
 10
167.479363461049
 20
35.93829955528091
 30
0.0
 10
167.2032210862032
 20
35.93829955528091
 30
0.0
 10
166.9793634611744
 20
36.16215718030962
 30
0.0
 10
166.9793634611744
 20
36.43829955515676
 30
0.0
 10
166.9793634611744
 20
36.43829955515676
 30
0.0
 10
166.9793634611744
 20
49.438299551907
 30
0.0
 10
166.9793634611744
 20
49.438299551907
 30
0.0
 10
166.9793634611744
 20
49.71444192675286
 30
0.0
 10
167.2032210862032
 20
49.93829955178157
 30
0.0
 10
167.479363461049
 20
49.93829955178157
 30
0.0
 10
167.479363461049
 20
49.93829955178157
 30
0.0
 10
180.4793634577993
 20
49.93829955178157
 30
0.0
 10
180.4793634577993
 20
49.93829955178157
 30
0.0
 10
180.7555058326451
 20
49.93829955178157
 30
0.0
 10
180.9793634576738
 20
49.71444192675286
 30
0.0
 10
180.9793634576738
 20
49.438299551907
 30
0.0
 10
180.9793634576738
 20
49.438299551907
 30
0.0
 10
180.9793634576738
 20
36.43829955515676
 30
0.0
 10
180.9793634576738
 20
36.43829955515676
 30
0.0
 10
180.9793634576738
 20
36.16215718030962
 30
0.0
 10
180.7555058326451
 20
35.93829955528091
 30
0.0
 10
180.4793634577993
 20
35.93829955528091
 30
0.0
  0
SPLINE
  5
91
330
70
100
AcDbEntity
  8
Layer 1
 62
    18
420
        0
370
    20
100
AcDbSpline
210
0.0
220
0.0
230
1.0
 70
     9
 71
     3
 72
    29
 73
    25
 74
     0
 42
0.0000000001
 43
0.0000000001
 40
0.0
 40
0.0
 40
0.0
 40
0.0
 40
1.0
 40
1.0
 40
1.0
 40
2.0
 40
2.0
 40
2.0
 40
3.0
 40
3.0
 40
3.0
 40
4.0
 40
4.0
 40
4.0
 40
5.0
 40
5.0
 40
5.0
 40
6.0
 40
6.0
 40
6.0
 40
7.0
 40
7.0
 40
7.0
 40
8.0
 40
8.0
 40
8.0
 40
8.0
 10
28.03562446467243
 20
9.213307931071675
 30
0.0
 10
28.03562446467243
 20
9.213307931071675
 30
0.0
 10
26.53562446504809
 20
9.213307931071675
 30
0.0
 10
26.53562446504809
 20
9.213307931071675
 30
0.0
 10
25.43562446532301
 20
9.213307931071675
 30
0.0
 10
24.5356244655479
 20
10.11330793084615
 30
0.0
 10
24.5356244655479
 20
11.21330793057122
 30
0.0
 10
24.5356244655479
 20
11.21330793057122
 30
0.0
 10
24.5356244655479
 20
11.46330793050914
 30
0.0
 10
24.5356244655479
 20
11.46330793050914
 30
0.0
 10
24.5356244655479
 20
12.56330793023421
 30
0.0
 10
25.43562446532301
 20
13.46330793000869
 30
0.0
 10
26.53562446504809
 20
13.46330793000869
 30
0.0
 10
26.53562446504809
 20
13.46330793000869
 30
0.0
 10
28.03562446467243
 20
13.46330793000869
 30
0.0
 10
28.03562446467243
 20
13.46330793000869
 30
0.0
 10
29.1356244643975
 20
13.46330793000869
 30
0.0
 10
30.03562446417261
 20
12.56330793023421
 30
0.0
 10
30.03562446417261
 20
11.46330793050914
 30
0.0
 10
30.03562446417261
 20
11.46330793050914
 30
0.0
 10
30.03562446417261
 20
11.21330793057122
 30
0.0
 10
30.03562446417261
 20
11.21330793057122
 30
0.0
 10
30.03562446417261
 20
10.11330793084615
 30
0.0
 10
29.1356244643975
 20
9.213307931071675
 30
0.0
 10
28.03562446467243
 20
9.213307931071675
 30
0.0
  0
SPLINE
  5
92
330
70
100
AcDbEntity
  8
Layer 1
 62
    18
420
        0
370
    20
100
AcDbSpline
210
0.0
220
0.0
230
1.0
 70
     9
 71
     3
 72
    29
 73
    25
 74
     0
 42
0.0000000001
 43
0.0000000001
 40
0.0
 40
0.0
 40
0.0
 40
0.0
 40
1.0
 40
1.0
 40
1.0
 40
2.0
 40
2.0
 40
2.0
 40
3.0
 40
3.0
 40
3.0
 40
4.0
 40
4.0
 40
4.0
 40
5.0
 40
5.0
 40
5.0
 40
6.0
 40
6.0
 40
6.0
 40
7.0
 40
7.0
 40
7.0
 40
8.0
 40
8.0
 40
8.0
 40
8.0
 10
28.03562446467307
 20
95.71329454271891
 30
0.0
 10
28.03562446467307
 20
95.71329454271891
 30
0.0
 10
26.53562446504745
 20
95.71329454271891
 30
0.0
 10
26.53562446504745
 20
95.71329454271891
 30
0.0
 10
25.43562446532269
 20
95.71329454271891
 30
0.0
 10
24.5356244655479
 20
94.8132945429438
 30
0.0
 10
24.5356244655479
 20
93.71329454321935
 30
0.0
 10
24.5356244655479
 20
93.71329454321935
 30
0.0
 10
24.5356244655479
 20
93.46329454328079
 30
0.0
 10
24.5356244655479
 20
93.46329454328079
 30
0.0
 10
24.5356244655479
 20
92.36329454355702
 30
0.0
 10
25.43562446532269
 20
91.46329454378189
 30
0.0
 10
26.53562446504745
 20
91.46329454378189
 30
0.0
 10
26.53562446504745
 20
91.46329454378189
 30
0.0
 10
28.03562446467307
 20
91.46329454378189
 30
0.0
 10
28.03562446467307
 20
91.46329454378189
 30
0.0
 10
29.13562446439814
 20
91.46329454378189
 30
0.0
 10
30.03562446417261
 20
92.36329454355702
 30
0.0
 10
30.03562446417261
 20
93.46329454328079
 30
0.0
 10
30.03562446417261
 20
93.46329454328079
 30
0.0
 10
30.03562446417261
 20
93.71329454321935
 30
0.0
 10
30.03562446417261
 20
93.71329454321935
 30
0.0
 10
30.03562446417261
 20
94.8132945429438
 30
0.0
 10
29.13562446439814
 20
95.71329454271891
 30
0.0
 10
28.03562446467307
 20
95.71329454271891
 30
0.0
  0
CIRCLE
  5
93
330
70
100
AcDbEntity
  8
Layer 1
 62
    18
420
        0
370
    20
100
AcDbCircle
 10
186.0356244251727
 20
69.71329454921904
 30
0.0
 40
2.499999999374752
  0
CIRCLE
  5
94
330
70
100
AcDbEntity
  8
Layer 1
 62
    18
420
        0
370
    20
100
AcDbCircle
 10
197.7918784594234
 20
43.97629455565317
 30
0.0
 40
2.499999999374752
  0
SPLINE
  5
95
330
70
100
AcDbEntity
  8
Layer 1
 62
    18
420
        0
370
    20
100
AcDbSpline
210
0.0
220
0.0
230
1.0
 70
     9
 71
     3
 72
   314
 73
   310
 74
     0
 42
0.0000000001
 43
0.0000000001
 40
0.0
 40
0.0
 40
0.0
 40
0.0
 40
1.0
 40
1.0
 40
1.0
 40
2.0
 40
2.0
 40
2.0
 40
3.0
 40
3.0
 40
3.0
 40
4.0
 40
4.0
 40
4.0
 40
5.0
 40
5.0
 40
5.0
 40
6.0
 40
6.0
 40
6.0
 40
7.0
 40
7.0
 40
7.0
 40
8.0
 40
8.0
 40
8.0
 40
9.0
 40
9.0
 40
9.0
 40
10.0
 40
10.0
 40
10.0
 40
11.0
 40
11.0
 40
11.0
 40
12.0
 40
12.0
 40
12.0
 40
13.0
 40
13.0
 40
13.0
 40
14.0
 40
14.0
 40
14.0
 40
15.0
 40
15.0
 40
15.0
 40
16.0
 40
16.0
 40
16.0
 40
17.0
 40
17.0
 40
17.0
 40
18.0
 40
18.0
 40
18.0
 40
19.0
 40
19.0
 40
19.0
 40
20.0
 40
20.0
 40
20.0
 40
21.0
 40
21.0
 40
21.0
 40
22.0
 40
22.0
 40
22.0
 40
23.0
 40
23.0
 40
23.0
 40
24.0
 40
24.0
 40
24.0
 40
25.0
 40
25.0
 40
25.0
 40
26.0
 40
26.0
 40
26.0
 40
27.0
 40
27.0
 40
27.0
 40
28.0
 40
28.0
 40
28.0
 40
29.0
 40
29.0
 40
29.0
 40
30.0
 40
30.0
 40
30.0
 40
31.0
 40
31.0
 40
31.0
 40
32.0
 40
32.0
 40
32.0
 40
33.0
 40
33.0
 40
33.0
 40
34.0
 40
34.0
 40
34.0
 40
35.0
 40
35.0
 40
35.0
 40
36.0
 40
36.0
 40
36.0
 40
37.0
 40
37.0
 40
37.0
 40
38.0
 40
38.0
 40
38.0
 40
39.0
 40
39.0
 40
39.0
 40
40.0
 40
40.0
 40
40.0
 40
41.0
 40
41.0
 40
41.0
 40
42.0
 40
42.0
 40
42.0
 40
43.0
 40
43.0
 40
43.0
 40
44.0
 40
44.0
 40
44.0
 40
45.0
 40
45.0
 40
45.0
 40
46.0
 40
46.0
 40
46.0
 40
47.0
 40
47.0
 40
47.0
 40
48.0
 40
48.0
 40
48.0
 40
49.0
 40
49.0
 40
49.0
 40
50.0
 40
50.0
 40
50.0
 40
51.0
 40
51.0
 40
51.0
 40
52.0
 40
52.0
 40
52.0
 40
53.0
 40
53.0
 40
53.0
 40
54.0
 40
54.0
 40
54.0
 40
55.0
 40
55.0
 40
55.0
 40
56.0
 40
56.0
 40
56.0
 40
57.0
 40
57.0
 40
57.0
 40
58.0
 40
58.0
 40
58.0
 40
59.0
 40
59.0
 40
59.0
 40
60.0
 40
60.0
 40
60.0
 40
61.0
 40
61.0
 40
61.0
 40
62.0
 40
62.0
 40
62.0
 40
63.0
 40
63.0
 40
63.0
 40
64.0
 40
64.0
 40
64.0
 40
65.0
 40
65.0
 40
65.0
 40
66.0
 40
66.0
 40
66.0
 40
67.0
 40
67.0
 40
67.0
 40
68.0
 40
68.0
 40
68.0
 40
69.0
 40
69.0
 40
69.0
 40
70.0
 40
70.0
 40
70.0
 40
71.0
 40
71.0
 40
71.0
 40
72.0
 40
72.0
 40
72.0
 40
73.0
 40
73.0
 40
73.0
 40
74.0
 40
74.0
 40
74.0
 40
75.0
 40
75.0
 40
75.0
 40
76.0
 40
76.0
 40
76.0
 40
77.0
 40
77.0
 40
77.0
 40
78.0
 40
78.0
 40
78.0
 40
79.0
 40
79.0
 40
79.0
 40
80.0
 40
80.0
 40
80.0
 40
81.0
 40
81.0
 40
81.0
 40
82.0
 40
82.0
 40
82.0
 40
83.0
 40
83.0
 40
83.0
 40
84.0
 40
84.0
 40
84.0
 40
85.0
 40
85.0
 40
85.0
 40
86.0
 40
86.0
 40
86.0
 40
87.0
 40
87.0
 40
87.0
 40
88.0
 40
88.0
 40
88.0
 40
89.0
 40
89.0
 40
89.0
 40
90.0
 40
90.0
 40
90.0
 40
91.0
 40
91.0
 40
91.0
 40
92.0
 40
92.0
 40
92.0
 40
93.0
 40
93.0
 40
93.0
 40
94.0
 40
94.0
 40
94.0
 40
95.0
 40
95.0
 40
95.0
 40
96.0
 40
96.0
 40
96.0
 40
97.0
 40
97.0
 40
97.0
 40
98.0
 40
98.0
 40
98.0
 40
99.0
 40
99.0
 40
99.0
 40
100.0
 40
100.0
 40
100.0
 40
101.0
 40
101.0
 40
101.0
 40
102.0
 40
102.0
 40
102.0
 40
103.0
 40
103.0
 40
103.0
 40
103.0
 10
50.64830015414452
 20
13.21329456369346
 30
0.0
 10
50.84611044046511
 20
13.21329456351507
 30
0.0
 10
51.01957593694175
 20
13.3321872288705
 30
0.0
 10
51.10338856147088
 20
13.51136410612783
 30
0.0
 10
51.29363188986818
 20
13.91807139745401
 30
0.0
 10
51.86291337553737
 20
14.21329456309415
 30
0.0
 10
52.53562445854827
 20
14.21329456309415
 30
0.0
 10
53.2083321312939
 20
14.21329456309415
 30
0.0
 10
53.77761125535341
 20
13.9180743906765
 30
0.0
 10
53.96785452160728
 20
13.51136982973932
 30
0.0
 10
54.05166884773875
 20
13.33219045913341
 30
0.0
 10
54.22513549688332
 20
13.2132948500369
 30
0.0
 10
54.42294876265588
 20
13.21329484926878
 30
0.0
 10
54.42294876265588
 20
13.21329484926878
 30
0.0
 10
127.5356239801758
 20
13.21329456528551
 30
0.0
 10
127.5356239801758
 20
13.21329456528551
 30
0.0
 10
127.8106242328996
 20
13.21329456421773
 30
0.0
 10
128.0356244396737
 20
12.9882943565696
 30
0.0
 10
128.0356244396737
 20
12.71329410384581
 30
0.0
 10
128.0356244396737
 20
12.71329410384581
 30
0.0
 10
128.0356244396737
 20
10.21329456409313
 30
0.0
 10
128.0356244396737
 20
10.21329456409313
 30
0.0
 10
128.0356244396737
 20
9.938294564162186
 30
0.0
 10
128.2606244396173
 20
9.713294564218568
 30
0.0
 10
128.5356244395483
 20
9.713294564218568
 30
0.0
 10
128.5356244395483
 20
9.713294564218568
 30
0.0
 10
192.0356244236733
 20
9.713294564218568
 30
0.0
 10
192.0356244236733
 20
9.713294564218568
 30
0.0
 10
192.3106244236043
 20
9.713294564218568
 30
0.0
 10
192.5356244235479
 20
9.938294564162186
 30
0.0
 10
192.5356244235479
 20
10.21329456409313
 30
0.0
 10
192.5356244235479
 20
10.21329456409313
 30
0.0
 10
192.5356244235479
 20
12.71329456347944
 30
0.0
 10
192.5356244235479
 20
12.71329456347944
 30
0.0
 10
192.5356244235479
 20
12.98829456340461
 30
0.0
 10
192.7606244234864
 20
13.21329469384863
 30
0.0
 10
193.0356244234115
 20
13.21329485335448
 30
0.0
 10
193.0356244234115
 20
13.21329485335448
 30
0.0
 10
197.3983005039291
 20
13.21329738380865
 30
0.0
 10
197.3983005039291
 20
13.21329738380865
 30
0.0
 10
197.596142510122
 20
13.21329749856177
 30
0.0
 10
197.7696201998815
 20
13.33222160351565
 30
0.0
 10
197.8534508619636
 20
13.51142506193519
 30
0.0
 10
198.0436932995511
 20
13.9181032618553
 30
0.0
 10
198.6129496437817
 20
14.21329456309415
 30
0.0
 10
199.2856244218609
 20
14.21329456309415
 30
0.0
 10
199.9583025363753
 20
14.21329456309415
 30
0.0
 10
200.5275611911403
 20
13.91810033357789
 30
0.0
 10
200.7178039089128
 20
13.5114194365274
 30
0.0
 10
200.8016329880428
 20
13.33221843741045
 30
0.0
 10
200.9751096181254
 20
13.21329727745153
 30
0.0
 10
201.1729487259685
 20
13.2132972087031
 30
0.0
 10
201.1729487259685
 20
13.2132972087031
 30
0.0
 10
207.7856244197356
 20
13.21329491083724
 30
0.0
 10
207.7856244197356
 20
13.21329491083724
 30
0.0
 10
208.3379091132177
 20
13.21329471892174
 30
0.0
 10
208.785624419486
 20
13.66100986961143
 30
0.0
 10
208.785624419486
 20
14.21329456309351
 30
0.0
 10
208.785624419486
 20
14.21329456309351
 30
0.0
 10
208.785624419486
 20
88.71329454456995
 30
0.0
 10
208.785624419486
 20
88.71329454456995
 30
0.0
 10
208.785624419486
 20
89.26329454437732
 30
0.0
 10
208.3356244196437
 20
89.71329454426776
 30
0.0
 10
207.7856244198363
 20
89.71329454432616
 30
0.0
 10
207.7856244198363
 20
89.71329454432616
 30
0.0
 10
204.2856224206116
 20
89.71329454470026
 30
0.0
 10
204.2856224206116
 20
89.71329454470026
 30
0.0
 10
203.4606235237224
 20
89.71329454478881
 30
0.0
 10
202.7856244262532
 20
90.38829364231574
 30
0.0
 10
202.7856244262359
 20
91.21329253920505
 30
0.0
 10
202.7856244262359
 20
91.21329253920505
 30
0.0
 10
202.7856244262359
 20
91.21329510939451
 30
0.0
 10
202.7856244262359
 20
91.21329510939451
 30
0.0
 10
202.7856244262301
 20
91.48829479799939
 30
0.0
 10
202.5606246810037
 20
91.71329426070487
 30
0.0
 10
202.2856249923989
 20
91.71329391540727
 30
0.0
 10
202.2856249923989
 20
91.71329391540727
 30
0.0
 10
201.1729488487172
 20
91.71329251829819
 30
0.0
 10
201.1729488487172
 20
91.71329251829819
 30
0.0
 10
200.9751125500009
 20
91.71329226988879
 30
0.0
 10
200.8016370377566
 20
91.59437385433291
 30
0.0
 10
200.7178095646082
 20
91.41517520524363
 30
0.0
 10
200.527566757959
 20
91.00849166022014
 30
0.0
 10
199.9583058254602
 20
90.71329454396941
 30
0.0
 10
199.2856244218609
 20
90.71329454396941
 30
0.0
 10
198.6129390927826
 20
90.71329454396941
 30
0.0
 10
198.0436754418439
 20
91.00849510551574
 30
0.0
 10
197.8534323620305
 20
91.41518174261291
 30
0.0
 10
197.7696068911403
 20
91.59437721659847
 30
0.0
 10
197.5961326920863
 20
91.71329178597007
 30
0.0
 10
197.3983001177546
 20
91.71329155079893
 30
0.0
 10
197.3983001177546
 20
91.71329155079893
 30
0.0
 10
188.9927788547221
 20
91.71328155884607
 30
0.0
 10
188.9927788547221
 20
91.71328155884607
 30
0.0
 10
188.7429586765062
 20
91.71328126187544
 30
0.0
 10
188.5412410971813
 20
91.52722094561196
 30
0.0
 10
188.4983558563274
 20
91.28110922796926
 30
0.0
 10
188.2894155301616
 20
90.08203323975777
 30
0.0
 10
187.2261235967722
 20
89.17641380560773
 30
0.0
 10
185.958705189939
 20
89.21448096051079
 30
0.0
 10
184.5904220731681
 20
89.25557760631916
 30
0.0
 10
183.5356026065932
 20
90.44829931297634
 30
0.0
 10
183.5356103820124
 20
91.81719946341759
 30
0.0
 10
183.5356166445605
 20
92.91975138475384
 30
0.0
 10
183.5356243629474
 20
94.32045909980827
 30
0.0
 10
183.5356243629474
 20
94.32045909980827
 30
0.0
 10
183.5356244245505
 20
94.93902358930929
 30
0.0
 10
183.2600568351487
 20
95.21329454284435
 30
0.0
 10
182.9232519902559
 20
95.21329454284435
 30
0.0
 10
182.9232519902559
 20
95.21329454284435
 30
0.0
 10
119.8979968774025
 20
95.21329454284435
 30
0.0
 10
119.8979968774025
 20
95.21329454284435
 30
0.0
 10
119.5611920378544
 20
95.21329454284435
 30
0.0
 10
119.2856244418605
 20
94.9377269468504
 30
0.0
 10
119.2856244418605
 20
94.60092210730229
 30
0.0
 10
119.2856244418605
 20
94.60092210730229
 30
0.0
 10
119.2856244418605
 20
92.32566697923427
 30
0.0
 10
119.2856244418605
 20
92.32566697923427
 30
0.0
 10
119.2856244418605
 20
91.98886213970094
 30
0.0
 10
119.0100568458787
 20
91.71329453656296
 30
0.0
 10
118.6732520063454
 20
91.71329452781595
 30
0.0
 10
118.6732520063454
 20
91.71329452781595
 30
0.0
 10
54.42294951352909
 20
91.71329285924187
 30
0.0
 10
54.42294951352909
 20
91.71329285924187
 30
0.0
 10
54.22512194509029
 20
91.71329285410443
 30
0.0
 10
54.05164966647726
 20
91.59438324559387
 30
0.0
 10
53.96782704088764
 20
91.4151919671406
 30
0.0
 10
53.77758366133409
 20
91.0085004067205
 30
0.0
 10
53.20831582763293
 20
90.71329454396941
 30
0.0
 10
52.53562445854827
 20
90.71329454396941
 30
0.0
 10
51.86291335111494
 20
90.71329454396941
 30
0.0
 10
51.29363184853314
 20
91.00851773104549
 30
0.0
 10
51.10338850498532
 20
91.41522504523221
 30
0.0
 10
51.01957588755403
 20
91.59440190311729
 30
0.0
 10
50.84782871819666
 20
91.71329454574118
 30
0.0
 10
50.65001845243033
 20
91.71329455358209
 30
0.0
 10
48.14520176057536
 20
91.71329465286769
 30
0.0
 10
34.28562514813875
 20
91.71329575159377
 30
0.0
 10
34.28562446311027
 20
91.71330791046932
 30
0.0
 10
33.18562446338552
 20
91.71330791046932
 30
0.0
 10
32.28562446361073
 20
92.61330791024443
 30
0.0
 10
32.28562446361073
 20
93.7133079099695
 30
0.0
 10
32.28562446361073
 20
93.7133079099695
 30
0.0
 10
32.28562446361073
 20
93.71331192048133
 30
0.0
 10
32.28562446361073
 20
93.71331192048133
 30
0.0
 10
32.28562445748475
 20
95.91330971236164
 30
0.0
 10
30.48562627404258
 20
97.71330790784753
 30
0.0
 10
28.28562848124784
 20
97.71330790841737
 30
0.0
 10
28.28562848124784
 20
97.71330790841737
 30
0.0
 10
26.2856204674952
 20
97.71330790893522
 30
0.0
 10
26.2856204674952
 20
97.71330790893522
 30
0.0
 10
24.719907162417
 20
97.71330790892561
 30
0.0
 10
23.35679390212413
 20
96.80160768381563
 30
0.0
 10
22.70100271924707
 20
95.48283368377717
 30
0.0
 10
22.61692198617373
 20
95.31375015905766
 30
0.0
 10
22.43707451696478
 20
95.21366880741071
 30
0.0
 10
22.2482391225021
 20
95.21362633534312
 30
0.0
 10
22.2482391225021
 20
95.21362633534312
 30
0.0
 10
20.78551482325479
 20
95.21329734550725
 30
0.0
 10
20.78551482325479
 20
95.21329734550725
 30
0.0
 10
20.51057512710048
 20
95.21323550721998
 30
0.0
 10
20.28562446661057
 20
94.98823424607785
 30
0.0
 10
20.28562446661057
 20
94.71329454296977
 30
0.0
 10
20.28562446661057
 20
94.71329454296977
 30
0.0
 10
20.28562446661057
 20
92.21329454359375
 30
0.0
 10
20.28562446661057
 20
92.21329454359375
 30
0.0
 10
20.28562446661057
 20
91.93829454366278
 30
0.0
 10
20.06062446666694
 20
91.71329454371917
 30
0.0
 10
19.78562446673567
 20
91.71329454371917
 30
0.0
 10
19.78562446673567
 20
91.71329454371917
 30
0.0
 10
18.78562446698494
 20
91.71329454371917
 30
0.0
 10
18.78562446698494
 20
91.71329454371917
 30
0.0
 10
18.51062446705399
 20
91.71329454371917
 30
0.0
 10
18.28562446711037
 20
91.93829454366278
 30
0.0
 10
18.28562446711037
 20
92.21329454359375
 30
0.0
 10
18.28562446711037
 20
92.21329454359375
 30
0.0
 10
18.28562446711037
 20
94.71329454296913
 30
0.0
 10
18.28562446711037
 20
94.71329454296913
 30
0.0
 10
18.28562446711037
 20
94.98829454290072
 30
0.0
 10
18.06062446716708
 20
95.21329454284435
 30
0.0
 10
17.78562446723549
 20
95.21329454284435
 30
0.0
 10
17.78562446723549
 20
95.21329454284435
 30
0.0
 10
-44.71437551713942
 20
95.21329454284435
 30
0.0
 10
-44.71437551713942
 20
95.21329454284435
 30
0.0
 10
-44.9893754777833
 20
95.21329454284435
 30
0.0
 10
-45.2143754777266
 20
94.98829457504472
 30
0.0
 10
-45.21437551701494
 20
94.71329461440115
 30
0.0
 10
-45.21437551701494
 20
94.71329461440115
 30
0.0
 10
-45.21437601703678
 20
91.21329504383339
 30
0.0
 10
-45.21437601703678
 20
91.21329504383339
 30
0.0
 10
-45.21437601703678
 20
91.21329504383339
 30
0.0
 10
-45.21437601703678
 20
91.21329404383336
 30
0.0
 10
-45.21437601703678
 20
91.21329404383336
 30
0.0
 10
-45.21437602032164
 20
90.93829431920543
 30
0.0
 10
-45.43937579223847
 20
90.71329454481324
 30
0.0
 10
-45.7143755167108
 20
90.71329454483763
 30
0.0
 10
-45.7143755167108
 20
90.71329454483763
 30
0.0
 10
-72.71437650868286
 20
90.71329454723757
 30
0.0
 10
-72.71437650868286
 20
90.71329454723757
 30
0.0
 10
-72.98937623524359
 20
90.71329454726196
 30
0.0
 10
-73.2143760115214
 20
90.48829477100436
 30
0.0
 10
-73.2143760115214
 20
90.21329504444299
 30
0.0
 10
-73.2143760115214
 20
90.21329504444299
 30
0.0
 10
-73.2143760115214
 20
90.21329404393343
 30
0.0
 10
-73.2143760115214
 20
90.21329404393343
 30
0.0
 10
-73.2143760115214
 20
89.93829431695687
 30
0.0
 10
-73.43937578813868
 20
89.71329454055169
 30
0.0
 10
-73.71437551511523
 20
89.71329454081027
 30
0.0
 10
-73.71437551511523
 20
89.71329454081027
 30
0.0
 10
-82.71437684314767
 20
89.71329454928584
 30
0.0
 10
-82.71437684314767
 20
89.71329454928584
 30
0.0
 10
-82.98937638412775
 20
89.7132945495451
 30
0.0
 10
-83.21437600856578
 20
89.93829417419489
 30
0.0
 10
-83.21437600856578
 20
90.21329371517497
 30
0.0
 10
-83.21437600856578
 20
90.21329371517497
 30
0.0
 10
-83.21437600856578
 20
90.21329471566463
 30
0.0
 10
-83.21437600856578
 20
90.21329471566463
 30
0.0
 10
-83.21437600856578
 20
90.48829462146539
 30
0.0
 10
-83.43937593149396
 20
90.71329454438009
 30
0.0
 10
-83.71437583729536
 20
90.71329454436277
 30
0.0
 10
-83.71437583729536
 20
90.71329454436277
 30
0.0
 10
-96.71437652915006
 20
90.71329454354524
 30
0.0
 10
-96.71437652915006
 20
90.71329454354524
 30
0.0
 10
-96.98937623968564
 20
90.71329454352792
 30
0.0
 10
-97.21437600285163
 20
90.93829430667945
 30
0.0
 10
-97.21437600285193
 20
91.21329401721505
 30
0.0
 10
-97.21437600285193
 20
91.21329401721505
 30
0.0
 10
-97.21437600285193
 20
91.21329501726449
 30
0.0
 10
-97.21437600285193
 20
91.21329501726449
 30
0.0
 10
-97.21437600285193
 20
91.4882947574023
 30
0.0
 10
-97.43937579023789
 20
91.71329454475168
 30
0.0
 10
-97.7143755303757
 20
91.71329454470612
 30
0.0
 10
-97.7143755303757
 20
91.71329454470612
 30
0.0
 10
-102.7143755026108
 20
91.71329454388345
 30
0.0
 10
-102.7143755026108
 20
91.71329454388345
 30
0.0
 10
-103.2666602523461
 20
91.71329454379296
 30
0.0
 10
-103.7143755023895
 20
91.26557929367587
 30
0.0
 10
-103.7143755023895
 20
90.71329454394053
 30
0.0
 10
-103.7143755023895
 20
90.71329454394053
 30
0.0
 10
-103.7143755023895
 20
14.21329456309351
 30
0.0
 10
-103.7143755023895
 20
14.21329456309351
 30
0.0
 10
-103.7143755023895
 20
13.66100983070778
 30
0.0
 10
-103.2666602350261
 20
13.21329461124464
 30
0.0
 10
-102.71437550264
 20
13.21329467033229
 30
0.0
 10
-102.71437550264
 20
13.21329467033229
 30
0.0
 10
-96.10169980887199
 20
13.21329537781318
 30
0.0
 10
-96.10169980887199
 20
13.21329537781318
 30
0.0
 10
-95.90388064839304
 20
13.2132953989777
 30
0.0
 10
-95.73041172361298
 20
13.33219683756988
 30
0.0
 10
-95.64659403308361
 20
13.51138114214773
 30
0.0
 10
-95.45635089315654
 20
13.91808030688497
 30
0.0
 10
-94.88707643694931
 20
14.21329456309415
 30
0.0
 10
-94.21437550476438
 20
14.21329456309415
 30
0.0
 10
-93.54167130754483
 20
14.21329456309415
 30
0.0
 10
-92.97239459029178
 20
13.9180774411623
 30
0.0
 10
-92.78215149137505
 20
13.51137567535511
 30
0.0
 10
-92.69833547043365
 20
13.33219375541432
 30
0.0
 10
-92.52486767828255
 20
13.21329511784678
 30
0.0
 10
-92.32705138522225
 20
13.21329509896864
 30
0.0
 10
-92.32705138522225
 20
13.21329509896864
 30
0.0
 10
-87.21437382616192
 20
13.21329461105919
 30
0.0
 10
-87.21437382616192
 20
13.21329461105919
 30
0.0
 10
-86.93937475042423
 20
13.21329458481562
 30
0.0
 10
-86.71437550663886
 20
12.98829531955837
 30
0.0
 10
-86.71437550663886
 20
12.71329624382099
 30
0.0
 10
-86.71437550663886
 20
12.71329624382099
 30
0.0
 10
-86.71437550663886
 20
10.21329456409313
 30
0.0
 10
-86.71437550663886
 20
10.21329456409313
 30
0.0
 10
-86.71437550663886
 20
9.938294564162186
 30
0.0
 10
-86.48937550669556
 20
9.713294564218568
 30
0.0
 10
-86.21437550676461
 20
9.713294564218568
 30
0.0
 10
-86.21437550676461
 20
9.713294564218568
 30
0.0
 10
-22.71437552263929
 20
9.713294564218568
 30
0.0
 10
-22.71437552263929
 20
9.713294564218568
 30
0.0
 10
-22.43937552270834
 20
9.713294564218568
 30
0.0
 10
-22.21437552276472
 20
9.938294564162186
 30
0.0
 10
-22.21437552276472
 20
10.21329456409313
 30
0.0
 10
-22.21437552276472
 20
10.21329456409313
 30
0.0
 10
-22.21437552276472
 20
12.71329456346853
 30
0.0
 10
-22.21437552276472
 20
12.71329456346853
 30
0.0
 10
-22.21437552276472
 20
12.98829456339755
 30
0.0
 10
-21.98937552282303
 20
13.21329456346052
 30
0.0
 10
-21.714375522894
 20
13.2132945636094
 30
0.0
 10
-21.714375522894
 20
13.2132945636094
 30
0.0
 10
20.28562644283024
 20
13.21329458627741
 30
0.0
 10
20.28562644283024
 20
13.21329458627741
 30
0.0
 10
21.38562535575649
 20
13.21329458687099
 30
0.0
 10
22.28562446762131
 20
12.31329547678015
 30
0.0
 10
22.28562446919572
 20
11.21329656385325
 30
0.0
 10
22.28562446919572
 20
11.21329656385325
 30
0.0
 10
22.28562446919572
 20
11.21329056368617
 30
0.0
 10
22.28562446919572
 20
11.21329056368617
 30
0.0
 10
22.28562447234422
 20
9.013292764928126
 30
0.0
 10
24.08562267390411
 20
7.213294557616359
 30
0.0
 10
26.28562047266248
 20
7.213294547437729
 30
0.0
 10
26.28562047266248
 20
7.213294547437729
 30
0.0
 10
28.28563063370566
 20
7.213294538184428
 30
0.0
 10
28.28563063370566
 20
7.213294538184428
 30
0.0
 10
30.48562735352282
 20
7.213294528005798
 30
0.0
 10
32.28562457465353
 20
9.013291835891656
 30
0.0
 10
32.28562445843991
 20
11.21328855570913
 30
0.0
 10
32.28562445843991
 20
11.21328855570913
 30
0.0
 10
32.28562445843959
 20
11.21329455714934
 30
0.0
 10
32.28562445843959
 20
11.21329455714934
 30
0.0
 10
32.28562440033278
 20
12.31329456984507
 30
0.0
 10
33.18562436317812
 20
13.21329457942215
 30
0.0
 10
34.28562437587385
 20
13.21329457843136
 30
0.0
 10
34.28562437587385
 20
13.21329457843136
 30
0.0
 10
50.64830015414452
 20
13.21329456369346
 30
0.0
 10
50.64830015414452
 20
13.21329456369346
 30
0.0
  0
SPLINE
  5
96
330
70
100
AcDbEntity
  8
Layer 1
 62
    18
420
        0
370
    25
100
AcDbSpline
210
0.0
220
0.0
230
1.0
 70
     9
 71
     3
 72
    29
 73
    25
 74
     0
 42
0.0000000001
 43
0.0000000001
 40
0.0
 40
0.0
 40
0.0
 40
0.0
 40
1.0
 40
1.0
 40
1.0
 40
2.0
 40
2.0
 40
2.0
 40
3.0
 40
3.0
 40
3.0
 40
4.0
 40
4.0
 40
4.0
 40
5.0
 40
5.0
 40
5.0
 40
6.0
 40
6.0
 40
6.0
 40
7.0
 40
7.0
 40
7.0
 40
8.0
 40
8.0
 40
8.0
 40
8.0
 10
-83.92441122164758
 20
54.98829455290083
 30
0.0
 10
-83.92441122164758
 20
54.98829455290083
 30
0.0
 10
-99.13533978927336
 20
54.98829455290083
 30
0.0
 10
-99.13533978927336
 20
54.98829455290083
 30
0.0
 10
-99.45844609229908
 20
54.98829455290083
 30
0.0
 10
-99.72037550341326
 20
55.21215217792954
 30
0.0
 10
-99.72037550341326
 20
55.4882945527754
 30
0.0
 10
-99.72037550341326
 20
55.4882945527754
 30
0.0
 10
-99.72037550341326
 20
68.48829454952564
 30
0.0
 10
-99.72037550341326
 20
68.48829454952564
 30
0.0
 10
-99.72037550341326
 20
68.76443692437151
 30
0.0
 10
-99.45844609229908
 20
68.98829454940022
 30
0.0
 10
-99.13533978927336
 20
68.98829454940022
 30
0.0
 10
-99.13533978927336
 20
68.98829454940022
 30
0.0
 10
-83.92441122164758
 20
68.98829454940022
 30
0.0
 10
-83.92441122164758
 20
68.98829454940022
 30
0.0
 10
-83.60130491862248
 20
68.98829454940022
 30
0.0
 10
-83.33937550750864
 20
68.76443692437151
 30
0.0
 10
-83.33937550750864
 20
68.48829454952564
 30
0.0
 10
-83.33937550750864
 20
68.48829454952564
 30
0.0
 10
-83.33937550750864
 20
55.4882945527754
 30
0.0
 10
-83.33937550750864
 20
55.4882945527754
 30
0.0
 10
-83.33937550750864
 20
55.21215217792954
 30
0.0
 10
-83.60130491862248
 20
54.98829455290083
 30
0.0
 10
-83.92441122164758
 20
54.98829455290083
 30
0.0
  0
SPLINE
  5
97
330
70
100
AcDbEntity
  8
Layer 1
 62
    18
420
        0
370
    25
100
AcDbSpline
210
0.0
220
0.0
230
1.0
 70
     9
 71
     3
 72
    29
 73
    25
 74
     0
 42
0.0000000001
 43
0.0000000001
 40
0.0
 40
0.0
 40
0.0
 40
0.0
 40
1.0
 40
1.0
 40
1.0
 40
2.0
 40
2.0
 40
2.0
 40
3.0
 40
3.0
 40
3.0
 40
4.0
 40
4.0
 40
4.0
 40
5.0
 40
5.0
 40
5.0
 40
6.0
 40
6.0
 40
6.0
 40
7.0
 40
7.0
 40
7.0
 40
8.0
 40
8.0
 40
8.0
 40
8.0
 10
-86.22036828295646
 20
16.88829456242583
 30
0.0
 10
-86.22036828295646
 20
16.88829456242583
 30
0.0
 10
-99.22036827970641
 20
16.88829456242583
 30
0.0
 10
-99.22036827970641
 20
16.88829456242583
 30
0.0
 10
-99.49651065455292
 20
16.88829456242583
 30
0.0
 10
-99.72036827958161
 20
17.11215218745454
 30
0.0
 10
-99.72036827958161
 20
17.3882945623004
 30
0.0
 10
-99.72036827958161
 20
17.3882945623004
 30
0.0
 10
-99.72036827958161
 20
30.38829455905065
 30
0.0
 10
-99.72036827958161
 20
30.38829455905065
 30
0.0
 10
-99.72036827958161
 20
30.66443693389651
 30
0.0
 10
-99.49651065455292
 20
30.88829455892522
 30
0.0
 10
-99.22036827970641
 20
30.88829455892522
 30
0.0
 10
-99.22036827970641
 20
30.88829455892522
 30
0.0
 10
-86.22036828295646
 20
30.88829455892522
 30
0.0
 10
-86.22036828295646
 20
30.88829455892522
 30
0.0
 10
-85.9442259081103
 20
30.88829455892522
 30
0.0
 10
-85.7203682830819
 20
30.66443693389651
 30
0.0
 10
-85.7203682830819
 20
30.38829455905065
 30
0.0
 10
-85.7203682830819
 20
30.38829455905065
 30
0.0
 10
-85.7203682830819
 20
17.3882945623004
 30
0.0
 10
-85.7203682830819
 20
17.3882945623004
 30
0.0
 10
-85.7203682830819
 20
17.11215218745454
 30
0.0
 10
-85.9442259081103
 20
16.88829456242583
 30
0.0
 10
-86.22036828295646
 20
16.88829456242583
 30
0.0
  0
SPLINE
  5
98
330
70
100
AcDbEntity
  8
Layer 1
 62
    18
420
        0
370
    25
100
AcDbSpline
210
0.0
220
0.0
230
1.0
 70
     9
 71
     3
 72
    29
 73
    25
 74
     0
 42
0.0000000001
 43
0.0000000001
 40
0.0
 40
0.0
 40
0.0
 40
0.0
 40
1.0
 40
1.0
 40
1.0
 40
2.0
 40
2.0
 40
2.0
 40
3.0
 40
3.0
 40
3.0
 40
4.0
 40
4.0
 40
4.0
 40
5.0
 40
5.0
 40
5.0
 40
6.0
 40
6.0
 40
6.0
 40
7.0
 40
7.0
 40
7.0
 40
8.0
 40
8.0
 40
8.0
 40
8.0
 10
-67.17037328295649
 20
16.88829456242583
 30
0.0
 10
-67.17037328295649
 20
16.88829456242583
 30
0.0
 10
-80.17037327970674
 20
16.88829456242583
 30
0.0
 10
-80.17037327970674
 20
16.88829456242583
 30
0.0
 10
-80.44651565455355
 20
16.88829456242583
 30
0.0
 10
-80.67037327958194
 20
17.11215218745454
 30
0.0
 10
-80.67037327958194
 20
17.3882945623004
 30
0.0
 10
-80.67037327958194
 20
17.3882945623004
 30
0.0
 10
-80.67037327958194
 20
30.38829455905065
 30
0.0
 10
-80.67037327958194
 20
30.38829455905065
 30
0.0
 10
-80.67037327958194
 20
30.66443693389651
 30
0.0
 10
-80.44651565455355
 20
30.88829455892522
 30
0.0
 10
-80.17037327970674
 20
30.88829455892522
 30
0.0
 10
-80.17037327970674
 20
30.88829455892522
 30
0.0
 10
-67.17037328295649
 20
30.88829455892522
 30
0.0
 10
-67.17037328295649
 20
30.88829455892522
 30
0.0
 10
-66.89423090811063
 20
30.88829455892522
 30
0.0
 10
-66.67037328308191
 20
30.66443693389651
 30
0.0
 10
-66.67037328308191
 20
30.38829455905065
 30
0.0
 10
-66.67037328308191
 20
30.38829455905065
 30
0.0
 10
-66.67037328308191
 20
17.3882945623004
 30
0.0
 10
-66.67037328308191
 20
17.3882945623004
 30
0.0
 10
-66.67037328308191
 20
17.11215218745454
 30
0.0
 10
-66.89423090811063
 20
16.88829456242583
 30
0.0
 10
-67.17037328295649
 20
16.88829456242583
 30
0.0
  0
SPLINE
  5
99
330
70
100
AcDbEntity
  8
Layer 1
 62
    18
420
        0
370
    25
100
AcDbSpline
210
0.0
220
0.0
230
1.0
 70
     9
 71
     3
 72
    29
 73
    25
 74
     0
 42
0.0000000001
 43
0.0000000001
 40
0.0
 40
0.0
 40
0.0
 40
0.0
 40
1.0
 40
1.0
 40
1.0
 40
2.0
 40
2.0
 40
2.0
 40
3.0
 40
3.0
 40
3.0
 40
4.0
 40
4.0
 40
4.0
 40
5.0
 40
5.0
 40
5.0
 40
6.0
 40
6.0
 40
6.0
 40
7.0
 40
7.0
 40
7.0
 40
8.0
 40
8.0
 40
8.0
 40
8.0
 10
-48.12037178295655
 20
16.88829456242583
 30
0.0
 10
-48.12037178295655
 20
16.88829456242583
 30
0.0
 10
-61.1203717797068
 20
16.88829456242583
 30
0.0
 10
-61.1203717797068
 20
16.88829456242583
 30
0.0
 10
-61.3965141545533
 20
16.88829456242583
 30
0.0
 10
-61.62037177958169
 20
17.11215218745454
 30
0.0
 10
-61.62037177958169
 20
17.3882945623004
 30
0.0
 10
-61.62037177958169
 20
17.3882945623004
 30
0.0
 10
-61.62037177958169
 20
30.38829455905065
 30
0.0
 10
-61.62037177958169
 20
30.38829455905065
 30
0.0
 10
-61.62037177958169
 20
30.66443693389651
 30
0.0
 10
-61.3965141545533
 20
30.88829455892522
 30
0.0
 10
-61.1203717797068
 20
30.88829455892522
 30
0.0
 10
-61.1203717797068
 20
30.88829455892522
 30
0.0
 10
-48.12037178295655
 20
30.88829455892522
 30
0.0
 10
-48.12037178295655
 20
30.88829455892522
 30
0.0
 10
-47.84422940811006
 20
30.88829455892522
 30
0.0
 10
-47.6203717830823
 20
30.66443693389651
 30
0.0
 10
-47.6203717830823
 20
30.38829455905065
 30
0.0
 10
-47.6203717830823
 20
30.38829455905065
 30
0.0
 10
-47.6203717830823
 20
17.3882945623004
 30
0.0
 10
-47.6203717830823
 20
17.3882945623004
 30
0.0
 10
-47.6203717830823
 20
17.11215218745454
 30
0.0
 10
-47.84422940811006
 20
16.88829456242583
 30
0.0
 10
-48.12037178295655
 20
16.88829456242583
 30
0.0
  0
SPLINE
  5
9A
330
70
100
AcDbEntity
  8
Layer 1
 62
    18
420
        0
370
    25
100
AcDbSpline
210
0.0
220
0.0
230
1.0
 70
     9
 71
     3
 72
    47
 73
    43
 74
     0
 42
0.0000000001
 43
0.0000000001
 40
0.0
 40
0.0
 40
0.0
 40
0.0
 40
1.0
 40
1.0
 40
1.0
 40
2.0
 40
2.0
 40
2.0
 40
3.0
 40
3.0
 40
3.0
 40
4.0
 40
4.0
 40
4.0
 40
5.0
 40
5.0
 40
5.0
 40
6.0
 40
6.0
 40
6.0
 40
7.0
 40
7.0
 40
7.0
 40
8.0
 40
8.0
 40
8.0
 40
9.0
 40
9.0
 40
9.0
 40
10.0
 40
10.0
 40
10.0
 40
11.0
 40
11.0
 40
11.0
 40
12.0
 40
12.0
 40
12.0
 40
13.0
 40
13.0
 40
13.0
 40
14.0
 40
14.0
 40
14.0
 40
14.0
 10
-29.07037028295598
 20
30.88829455892522
 30
0.0
 10
-28.79422790811077
 20
30.88829455892522
 30
0.0
 10
-28.57037028308205
 20
30.66443693389651
 30
0.0
 10
-28.57037028308205
 20
30.38829455905065
 30
0.0
 10
-28.57037028308205
 20
30.38829455905065
 30
0.0
 10
-28.57037028308205
 20
17.3882945623004
 30
0.0
 10
-28.57037028308205
 20
17.3882945623004
 30
0.0
 10
-28.57037028308205
 20
17.11215218745454
 30
0.0
 10
-28.79422790811077
 20
16.88829456242583
 30
0.0
 10
-29.07037028295598
 20
16.88829456242583
 30
0.0
 10
-29.07037028295598
 20
16.88829456242583
 30
0.0
 10
-42.07037027970687
 20
16.88829456242583
 30
0.0
 10
-42.07037027970687
 20
16.88829456242583
 30
0.0
 10
-42.34651265455337
 20
16.88829456242583
 30
0.0
 10
-42.57037027958143
 20
17.11215218745454
 30
0.0
 10
-42.57037027958143
 20
17.3882945623004
 30
0.0
 10
-42.57037027958143
 20
17.3882945623004
 30
0.0
 10
-42.57037027958143
 20
30.38829455905065
 30
0.0
 10
-42.57037027958143
 20
30.38829455905065
 30
0.0
 10
-42.57037027958143
 20
30.66443693389651
 30
0.0
 10
-42.34651265455337
 20
30.88829455892522
 30
0.0
 10
-42.07037027970687
 20
30.88829455892522
 30
0.0
 10
-42.07037027970687
 20
30.88829455892522
 30
0.0
 10
-39.07037028045659
 20
30.88829333807868
 30
0.0
 10
-39.07037028045659
 20
30.88829333807868
 30
0.0
 10
-39.07037028045659
 20
30.88829333807868
 30
0.0
 10
-39.07037028045659
 20
32.38868844775166
 30
0.0
 10
-39.07037028045659
 20
32.38868844775166
 30
0.0
 10
-39.07037028045659
 20
32.66483082259816
 30
0.0
 10
-38.84651265542788
 20
32.88868844762687
 30
0.0
 10
-38.57037028058139
 20
32.88868844762687
 30
0.0
 10
-38.57037028058139
 20
32.88868844762687
 30
0.0
 10
-32.57037028208211
 20
32.88868844762687
 30
0.0
 10
-32.57037028208211
 20
32.88868844762687
 30
0.0
 10
-32.29422790723562
 20
32.88868844762687
 30
0.0
 10
-32.0703702822069
 20
32.66483082259816
 30
0.0
 10
-32.0703702822069
 20
32.38868844775166
 30
0.0
 10
-32.0703702822069
 20
32.38868844775166
 30
0.0
 10
-32.0703702822069
 20
30.88829658165749
 30
0.0
 10
-32.0703702822069
 20
30.88829658165749
 30
0.0
 10
-32.0703702822069
 20
30.88829658165749
 30
0.0
 10
-29.07037028295598
 20
30.88829455892522
 30
0.0
 10
-29.07037028295598
 20
30.88829455892522
 30
0.0
  0
SPLINE
  5
9B
330
70
100
AcDbEntity
  8
Layer 1
 62
    18
420
        0
370
    25
100
AcDbSpline
210
0.0
220
0.0
230
1.0
 70
     9
 71
     3
 72
    47
 73
    43
 74
     0
 42
0.0000000001
 43
0.0000000001
 40
0.0
 40
0.0
 40
0.0
 40
0.0
 40
1.0
 40
1.0
 40
1.0
 40
2.0
 40
2.0
 40
2.0
 40
3.0
 40
3.0
 40
3.0
 40
4.0
 40
4.0
 40
4.0
 40
5.0
 40
5.0
 40
5.0
 40
6.0
 40
6.0
 40
6.0
 40
7.0
 40
7.0
 40
7.0
 40
8.0
 40
8.0
 40
8.0
 40
9.0
 40
9.0
 40
9.0
 40
10.0
 40
10.0
 40
10.0
 40
11.0
 40
11.0
 40
11.0
 40
12.0
 40
12.0
 40
12.0
 40
13.0
 40
13.0
 40
13.0
 40
14.0
 40
14.0
 40
14.0
 40
14.0
 10
66.17962971704369
 20
30.88829455892522
 30
0.0
 10
66.4557720918889
 20
30.88829455892522
 30
0.0
 10
66.67962971691825
 20
30.66443693389651
 30
0.0
 10
66.67962971691825
 20
30.38829455905065
 30
0.0
 10
66.67962971691825
 20
30.38829455905065
 30
0.0
 10
66.67962971691825
 20
17.3882945623004
 30
0.0
 10
66.67962971691825
 20
17.3882945623004
 30
0.0
 10
66.67962971691825
 20
17.11215218745454
 30
0.0
 10
66.4557720918889
 20
16.88829456242583
 30
0.0
 10
66.17962971704369
 20
16.88829456242583
 30
0.0
 10
66.17962971704369
 20
16.88829456242583
 30
0.0
 10
53.17962972029344
 20
16.88829456242583
 30
0.0
 10
53.17962972029344
 20
16.88829456242583
 30
0.0
 10
52.90348734544759
 20
16.88829456242583
 30
0.0
 10
52.67962972041823
 20
17.11215218745454
 30
0.0
 10
52.67962972041823
 20
17.3882945623004
 30
0.0
 10
52.67962972041823
 20
17.3882945623004
 30
0.0
 10
52.67962972041823
 20
30.38829455905065
 30
0.0
 10
52.67962972041823
 20
30.38829455905065
 30
0.0
 10
52.67962972041823
 20
30.66443693389651
 30
0.0
 10
52.90348734544759
 20
30.88829455892522
 30
0.0
 10
53.17962972029344
 20
30.88829455892522
 30
0.0
 10
53.17962972029344
 20
30.88829455892522
 30
0.0
 10
56.1796297195434
 20
30.88829514469826
 30
0.0
 10
56.1796297195434
 20
30.88829514469826
 30
0.0
 10
56.1796297195434
 20
30.88829514469826
 30
0.0
 10
56.1796297195434
 20
32.38829455867469
 30
0.0
 10
56.1796297195434
 20
32.38829455867469
 30
0.0
 10
56.1796297195434
 20
32.66443693352118
 30
0.0
 10
56.40348734457211
 20
32.88829455854989
 30
0.0
 10
56.67962971941861
 20
32.88829455854989
 30
0.0
 10
56.67962971941861
 20
32.88829455854989
 30
0.0
 10
62.67962971791789
 20
32.88829455854989
 30
0.0
 10
62.67962971791789
 20
32.88829455854989
 30
0.0
 10
62.95577209276437
 20
32.88829455854989
 30
0.0
 10
63.17962971779309
 20
32.66443693352118
 30
0.0
 10
63.17962971779309
 20
32.38829455867469
 30
0.0
 10
63.17962971779309
 20
32.38829455867469
 30
0.0
 10
63.17962971779309
 20
30.88829514469826
 30
0.0
 10
63.17962971779309
 20
30.88829514469826
 30
0.0
 10
63.17962971779309
 20
30.88829514469826
 30
0.0
 10
66.17962971704369
 20
30.88829455892522
 30
0.0
 10
66.17962971704369
 20
30.88829455892522
 30
0.0
  0
SPLINE
  5
9C
330
70
100
AcDbEntity
  8
Layer 1
 62
    18
420
        0
370
    25
100
AcDbSpline
210
0.0
220
0.0
230
1.0
 70
     9
 71
     3
 72
    29
 73
    25
 74
     0
 42
0.0000000001
 43
0.0000000001
 40
0.0
 40
0.0
 40
0.0
 40
0.0
 40
1.0
 40
1.0
 40
1.0
 40
2.0
 40
2.0
 40
2.0
 40
3.0
 40
3.0
 40
3.0
 40
4.0
 40
4.0
 40
4.0
 40
5.0
 40
5.0
 40
5.0
 40
6.0
 40
6.0
 40
6.0
 40
7.0
 40
7.0
 40
7.0
 40
8.0
 40
8.0
 40
8.0
 40
8.0
 10
85.22963971704427
 20
16.88829456242583
 30
0.0
 10
85.22963971704427
 20
16.88829456242583
 30
0.0
 10
72.22963972029339
 20
16.88829456242583
 30
0.0
 10
72.22963972029339
 20
16.88829456242583
 30
0.0
 10
71.95349734544818
 20
16.88829456242583
 30
0.0
 10
71.72963972041947
 20
17.11215218745454
 30
0.0
 10
71.72963972041947
 20
17.3882945623004
 30
0.0
 10
71.72963972041947
 20
17.3882945623004
 30
0.0
 10
71.72963972041947
 20
30.38829455905065
 30
0.0
 10
71.72963972041947
 20
30.38829455905065
 30
0.0
 10
71.72963972041947
 20
30.66443693389651
 30
0.0
 10
71.95349734544818
 20
30.88829455892522
 30
0.0
 10
72.22963972029339
 20
30.88829455892522
 30
0.0
 10
72.22963972029339
 20
30.88829455892522
 30
0.0
 10
85.22963971704427
 20
30.88829455892522
 30
0.0
 10
85.22963971704427
 20
30.88829455892522
 30
0.0
 10
85.50578209189014
 20
30.88829455892522
 30
0.0
 10
85.72963971691885
 20
30.66443693389651
 30
0.0
 10
85.72963971691885
 20
30.38829455905065
 30
0.0
 10
85.72963971691885
 20
30.38829455905065
 30
0.0
 10
85.72963971691885
 20
17.3882945623004
 30
0.0
 10
85.72963971691885
 20
17.3882945623004
 30
0.0
 10
85.72963971691885
 20
17.11215218745454
 30
0.0
 10
85.50578209189014
 20
16.88829456242583
 30
0.0
 10
85.22963971704427
 20
16.88829456242583
 30
0.0
  0
SPLINE
  5
9D
330
70
100
AcDbEntity
  8
Layer 1
 62
    18
420
        0
370
    25
100
AcDbSpline
210
0.0
220
0.0
230
1.0
 70
    11
 71
     3
 72
    68
 73
    64
 74
     0
 42
0.0000000001
 43
0.0000000001
 40
0.0
 40
0.0
 40
0.0
 40
0.0
 40
1.0
 40
1.0
 40
1.0
 40
2.0
 40
2.0
 40
2.0
 40
3.0
 40
3.0
 40
3.0
 40
4.0
 40
4.0
 40
4.0
 40
5.0
 40
5.0
 40
5.0
 40
6.0
 40
6.0
 40
6.0
 40
7.0
 40
7.0
 40
7.0
 40
8.0
 40
8.0
 40
8.0
 40
9.0
 40
9.0
 40
9.0
 40
10.0
 40
10.0
 40
10.0
 40
11.0
 40
11.0
 40
11.0
 40
12.0
 40
12.0
 40
12.0
 40
13.0
 40
13.0
 40
13.0
 40
14.0
 40
14.0
 40
14.0
 40
15.0
 40
15.0
 40
15.0
 40
16.0
 40
16.0
 40
16.0
 40
17.0
 40
17.0
 40
17.0
 40
18.0
 40
18.0
 40
18.0
 40
19.0
 40
19.0
 40
19.0
 40
20.0
 40
20.0
 40
20.0
 40
21.0
 40
21.0
 40
21.0
 40
21.0
 10
25.07963222192503
 20
30.88829514469826
 30
0.0
 10
25.07963222192503
 20
30.88829514469826
 30
0.0
 10
25.07963222192503
 20
32.38829455867469
 30
0.0
 10
25.07963222192503
 20
32.38829455867469
 30
0.0
 10
25.07963222192503
 20
32.66443693352118
 30
0.0
 10
24.85577459689632
 20
32.88829455854989
 30
0.0
 10
24.57963222204983
 20
32.88829455854989
 30
0.0
 10
24.57963222204983
 20
32.88829455854989
 30
0.0
 10
16.16665221941913
 20
32.88829455861279
 30
0.0
 10
16.16665221941913
 20
32.88829455861279
 30
0.0
 10
15.89050984457199
 20
32.88829455861279
 30
0.0
 10
15.66665221954328
 20
32.66443693358407
 30
0.0
 10
15.66665221954328
 20
32.38829455873693
 30
0.0
 10
15.66665221954328
 20
32.38829455873693
 30
0.0
 10
15.66665446997796
 20
30.88829455873848
 30
0.0
 10
15.66665446997796
 20
30.88829455873848
 30
0.0
 10
15.66665446997796
 20
30.88829455873848
 30
0.0
 10
15.0796322226745
 20
30.88829455873848
 30
0.0
 10
15.0796322226745
 20
30.88829455873848
 30
0.0
 10
14.80348984782865
 20
30.88829455873848
 30
0.0
 10
14.57963222280026
 20
30.66443693370977
 30
0.0
 10
14.57963222280026
 20
30.38829455886264
 30
0.0
 10
14.57963222280026
 20
30.38829455886264
 30
0.0
 10
14.57963222280026
 20
17.38829456211366
 30
0.0
 10
14.57963222280026
 20
17.38829456211366
 30
0.0
 10
14.57963222280026
 20
17.11215218726653
 30
0.0
 10
14.80348984782865
 20
16.88829456223781
 30
0.0
 10
15.0796322226745
 20
16.88829456223781
 30
0.0
 10
15.0796322226745
 20
16.88829456223781
 30
0.0
 10
47.12963221466226
 20
16.88829456223781
 30
0.0
 10
47.12963221466226
 20
16.88829456223781
 30
0.0
 10
47.40577458950811
 20
16.88829456223781
 30
0.0
 10
47.62963221453714
 20
17.11215218726653
 30
0.0
 10
47.62963221453714
 20
17.38829456211366
 30
0.0
 10
47.62963221453714
 20
17.38829456211366
 30
0.0
 10
47.62963221453714
 20
30.38829455886264
 30
0.0
 10
47.62963221453714
 20
30.38829455886264
 30
0.0
 10
47.62963221453714
 20
30.66443693370977
 30
0.0
 10
47.40577458950811
 20
30.88829455873848
 30
0.0
 10
47.12963221466226
 20
30.88829455873848
 30
0.0
 10
47.12963221466226
 20
30.88829455873848
 30
0.0
 10
46.54265154382115
 20
30.88829455873848
 30
0.0
 10
46.54265154382115
 20
30.88829455873848
 30
0.0
 10
46.54265154382115
 20
30.88829455873848
 30
0.0
 10
46.5426522177938
 20
32.38829455873693
 30
0.0
 10
46.5426522177938
 20
32.38829455873693
 30
0.0
 10
46.5426522177938
 20
32.66443693358407
 30
0.0
 10
46.31879459276508
 20
32.88829455861279
 30
0.0
 10
46.04265221791795
 20
32.88829455861279
 30
0.0
 10
46.04265221791795
 20
32.88829455861279
 30
0.0
 10
40.04265221941802
 20
32.88829455861279
 30
0.0
 10
40.04265221941802
 20
32.88829455861279
 30
0.0
 10
39.76650984457218
 20
32.88829455861279
 30
0.0
 10
39.54265221954347
 20
32.66443693358407
 30
0.0
 10
39.54265221954347
 20
32.38829455873693
 30
0.0
 10
39.54265221954347
 20
32.38829455873693
 30
0.0
 10
39.54265137782267
 20
30.88829455873848
 30
0.0
 10
39.54265137782267
 20
30.88829455873848
 30
0.0
 10
39.54265137782267
 20
30.88829455873848
 30
0.0
 10
25.07963514331221
 20
30.88829506097001
 30
0.0
 10
25.07963514331221
 20
30.88829506097001
 30
0.0
 10
25.07963514331221
 20
30.88829506097001
 30
0.0
 10
25.07963222192503
 20
30.88829514469826
 30
0.0
 10
25.07963222192503
 20
30.88829514469826
 30
0.0
  0
SPLINE
  5
9E
330
70
100
AcDbEntity
  8
Layer 1
 62
    18
420
        0
370
    25
100
AcDbSpline
210
0.0
220
0.0
230
1.0
 70
     9
 71
     3
 72
    65
 73
    61
 74
     0
 42
0.0000000001
 43
0.0000000001
 40
0.0
 40
0.0
 40
0.0
 40
0.0
 40
1.0
 40
1.0
 40
1.0
 40
2.0
 40
2.0
 40
2.0
 40
3.0
 40
3.0
 40
3.0
 40
4.0
 40
4.0
 40
4.0
 40
5.0
 40
5.0
 40
5.0
 40
6.0
 40
6.0
 40
6.0
 40
7.0
 40
7.0
 40
7.0
 40
8.0
 40
8.0
 40
8.0
 40
9.0
 40
9.0
 40
9.0
 40
10.0
 40
10.0
 40
10.0
 40
11.0
 40
11.0
 40
11.0
 40
12.0
 40
12.0
 40
12.0
 40
13.0
 40
13.0
 40
13.0
 40
14.0
 40
14.0
 40
14.0
 40
15.0
 40
15.0
 40
15.0
 40
16.0
 40
16.0
 40
16.0
 40
17.0
 40
17.0
 40
17.0
 40
18.0
 40
18.0
 40
18.0
 40
19.0
 40
19.0
 40
19.0
 40
20.0
 40
20.0
 40
20.0
 40
20.0
 10
91.86664221716197
 20
72.53829955528219
 30
0.0
 10
91.86664221716197
 20
72.26215718043507
 30
0.0
 10
92.09049984219069
 20
72.03829955540635
 30
0.0
 10
92.36664221703781
 20
72.03829955540635
 30
0.0
 10
92.36664221703781
 20
72.03829955540635
 30
0.0
 10
98.36664221553775
 20
72.03829955540635
 30
0.0
 10
98.36664221553775
 20
72.03829955540635
 30
0.0
 10
98.64278459038359
 20
72.03829955540635
 30
0.0
 10
98.86664221541231
 20
72.26215718043507
 30
0.0
 10
98.86664221541231
 20
72.53829955528219
 30
0.0
 10
98.86664221541231
 20
72.53829955528219
 30
0.0
 10
98.86664221541231
 20
74.03829896925798
 30
0.0
 10
98.86664221541231
 20
74.03829896925798
 30
0.0
 10
98.86664312482627
 20
74.03829955528064
 30
0.0
 10
115.7426413754417
 20
74.03829955528064
 30
0.0
 10
115.7426413754417
 20
74.03829955528064
 30
0.0
 10
115.7426413754417
 20
74.03829955528064
 30
0.0
 10
115.7426422171621
 20
72.53829955528219
 30
0.0
 10
115.7426422171621
 20
72.53829955528219
 30
0.0
 10
115.7426422171621
 20
72.26215718043507
 30
0.0
 10
115.9664998421908
 20
72.03829955540635
 30
0.0
 10
116.2426422170367
 20
72.03829955540635
 30
0.0
 10
116.2426422170367
 20
72.03829955540635
 30
0.0
 10
122.2426422155366
 20
72.03829955540635
 30
0.0
 10
122.2426422155366
 20
72.03829955540635
 30
0.0
 10
122.5187845903838
 20
72.03829955540635
 30
0.0
 10
122.7426422154125
 20
72.26215718043507
 30
0.0
 10
122.7426422154125
 20
72.53829955528219
 30
0.0
 10
122.7426422154125
 20
72.53829955528219
 30
0.0
 10
122.7426415414398
 20
74.03829955528064
 30
0.0
 10
122.7426415414398
 20
74.03829955528064
 30
0.0
 10
122.7426415414398
 20
74.03829955528064
 30
0.0
 10
123.3296222122809
 20
74.03829955528064
 30
0.0
 10
123.3296222122809
 20
74.03829955528064
 30
0.0
 10
123.6057645871268
 20
74.03829955528064
 30
0.0
 10
123.8296222121555
 20
74.26215718030936
 30
0.0
 10
123.8296222121555
 20
74.5382995551565
 30
0.0
 10
123.8296222121555
 20
74.5382995551565
 30
0.0
 10
123.8296222121555
 20
87.53829955190546
 30
0.0
 10
123.8296222121555
 20
87.53829955190546
 30
0.0
 10
123.8296222121555
 20
87.81444192675261
 30
0.0
 10
123.6057645871268
 20
88.03829955178132
 30
0.0
 10
123.3296222122809
 20
88.03829955178132
 30
0.0
 10
123.3296222122809
 20
88.03829955178132
 30
0.0
 10
91.27962222029321
 20
88.03829955178132
 30
0.0
 10
91.27962222029321
 20
88.03829955178132
 30
0.0
 10
91.00347984544734
 20
88.03829955178132
 30
0.0
 10
90.77962222041863
 20
87.81444192675261
 30
0.0
 10
90.77962222041863
 20
87.53829955190546
 30
0.0
 10
90.77962222041863
 20
87.53829955190546
 30
0.0
 10
90.77962222041863
 20
74.5382995551565
 30
0.0
 10
90.77962222041863
 20
74.5382995551565
 30
0.0
 10
90.77962222041863
 20
74.26215718030936
 30
0.0
 10
91.00347984544734
 20
74.03829955528064
 30
0.0
 10
91.27962222029321
 20
74.03829955528064
 30
0.0
 10
91.27962222029321
 20
74.03829955528064
 30
0.0
 10
91.86664446759666
 20
74.03829955528064
 30
0.0
 10
91.86664446759666
 20
74.03829955528064
 30
0.0
 10
91.86664221716197
 20
74.03829896925798
 30
0.0
 10
91.86664221716197
 20
72.53829955528219
 30
0.0
 10
91.86664221716197
 20
72.53829955528219
 30
0.0
  0
SPLINE
  5
9F
330
70
100
AcDbEntity
  8
Layer 1
 62
    18
420
        0
370
    25
100
AcDbSpline
210
0.0
220
0.0
230
1.0
 70
     9
 71
     3
 72
    65
 73
    61
 74
     0
 42
0.0000000001
 43
0.0000000001
 40
0.0
 40
0.0
 40
0.0
 40
0.0
 40
1.0
 40
1.0
 40
1.0
 40
2.0
 40
2.0
 40
2.0
 40
3.0
 40
3.0
 40
3.0
 40
4.0
 40
4.0
 40
4.0
 40
5.0
 40
5.0
 40
5.0
 40
6.0
 40
6.0
 40
6.0
 40
7.0
 40
7.0
 40
7.0
 40
8.0
 40
8.0
 40
8.0
 40
9.0
 40
9.0
 40
9.0
 40
10.0
 40
10.0
 40
10.0
 40
11.0
 40
11.0
 40
11.0
 40
12.0
 40
12.0
 40
12.0
 40
13.0
 40
13.0
 40
13.0
 40
14.0
 40
14.0
 40
14.0
 40
15.0
 40
15.0
 40
15.0
 40
16.0
 40
16.0
 40
16.0
 40
17.0
 40
17.0
 40
17.0
 40
18.0
 40
18.0
 40
18.0
 40
19.0
 40
19.0
 40
19.0
 40
20.0
 40
20.0
 40
20.0
 40
20.0
 10
91.86652134154662
 20
30.88829455873848
 30
0.0
 10
91.86652134154662
 20
30.88829455873848
 30
0.0
 10
91.27949909424316
 20
30.88829455873848
 30
0.0
 10
91.27949909424316
 20
30.88829455873848
 30
0.0
 10
91.00335671939731
 20
30.88829455873848
 30
0.0
 10
90.7794990943686
 20
30.66443693370977
 30
0.0
 10
90.7794990943686
 20
30.38829455886264
 30
0.0
 10
90.7794990943686
 20
30.38829455886264
 30
0.0
 10
90.7794990943686
 20
17.38829456211366
 30
0.0
 10
90.7794990943686
 20
17.38829456211366
 30
0.0
 10
90.7794990943686
 20
17.11215218726653
 30
0.0
 10
91.00335671939731
 20
16.88829456223781
 30
0.0
 10
91.27949909424316
 20
16.88829456223781
 30
0.0
 10
91.27949909424316
 20
16.88829456223781
 30
0.0
 10
123.3294990862309
 20
16.88829456223781
 30
0.0
 10
123.3294990862309
 20
16.88829456223781
 30
0.0
 10
123.6056414610767
 20
16.88829456223781
 30
0.0
 10
123.8294990861055
 20
17.11215218726653
 30
0.0
 10
123.8294990861055
 20
17.38829456211366
 30
0.0
 10
123.8294990861055
 20
17.38829456211366
 30
0.0
 10
123.8294990861055
 20
30.38829455886264
 30
0.0
 10
123.8294990861055
 20
30.38829455886264
 30
0.0
 10
123.8294990861055
 20
30.66443693370977
 30
0.0
 10
123.6056414610767
 20
30.88829455873848
 30
0.0
 10
123.3294990862309
 20
30.88829455873848
 30
0.0
 10
123.3294990862309
 20
30.88829455873848
 30
0.0
 10
122.7425184153898
 20
30.88829455873848
 30
0.0
 10
122.7425184153898
 20
30.88829455873848
 30
0.0
 10
122.7425184153898
 20
30.88829455873848
 30
0.0
 10
122.7425190893624
 20
32.38829455873693
 30
0.0
 10
122.7425190893624
 20
32.38829455873693
 30
0.0
 10
122.7425190893624
 20
32.66443693358407
 30
0.0
 10
122.5186614643337
 20
32.88829455861279
 30
0.0
 10
122.2425190894866
 20
32.88829455861279
 30
0.0
 10
122.2425190894866
 20
32.88829455861279
 30
0.0
 10
116.2425190909867
 20
32.88829455861279
 30
0.0
 10
116.2425190909867
 20
32.88829455861279
 30
0.0
 10
115.9663767161408
 20
32.88829455861279
 30
0.0
 10
115.7425190911121
 20
32.66443693358407
 30
0.0
 10
115.7425190911121
 20
32.38829455873693
 30
0.0
 10
115.7425190911121
 20
32.38829455873693
 30
0.0
 10
115.7425182493916
 20
30.88829455873848
 30
0.0
 10
115.7425182493916
 20
30.88829455873848
 30
0.0
 10
115.7425182493916
 20
30.88829455873848
 30
0.0
 10
98.86651908936228
 20
30.88829514476115
 30
0.0
 10
98.86651908936228
 20
30.88829514476115
 30
0.0
 10
98.86651908936228
 20
30.88829514476115
 30
0.0
 10
98.86651908936228
 20
32.38829455873693
 30
0.0
 10
98.86651908936228
 20
32.38829455873693
 30
0.0
 10
98.86651908936228
 20
32.66443693358407
 30
0.0
 10
98.64266146433358
 20
32.88829455861279
 30
0.0
 10
98.36651908948772
 20
32.88829455861279
 30
0.0
 10
98.36651908948772
 20
32.88829455861279
 30
0.0
 10
92.3665190909878
 20
32.88829455861279
 30
0.0
 10
92.3665190909878
 20
32.88829455861279
 30
0.0
 10
92.09037671614066
 20
32.88829455861279
 30
0.0
 10
91.86651909111194
 20
32.66443693358407
 30
0.0
 10
91.86651909111194
 20
32.38829455873693
 30
0.0
 10
91.86651909111194
 20
32.38829455873693
 30
0.0
 10
91.86651909111194
 20
30.88829514476115
 30
0.0
 10
91.86652134154662
 20
30.88829455873848
 30
0.0
  0
SPLINE
  5
A0
330
70
100
AcDbEntity
  8
Layer 1
 62
    18
420
        0
370
    25
100
AcDbSpline
210
0.0
220
0.0
230
1.0
 70
     9
 71
     3
 72
    29
 73
    25
 74
     0
 42
0.0000000001
 43
0.0000000001
 40
0.0
 40
0.0
 40
0.0
 40
0.0
 40
1.0
 40
1.0
 40
1.0
 40
2.0
 40
2.0
 40
2.0
 40
3.0
 40
3.0
 40
3.0
 40
4.0
 40
4.0
 40
4.0
 40
5.0
 40
5.0
 40
5.0
 40
6.0
 40
6.0
 40
6.0
 40
7.0
 40
7.0
 40
7.0
 40
8.0
 40
8.0
 40
8.0
 40
8.0
 10
123.2445815027794
 20
35.93829955528155
 30
0.0
 10
123.2445815027794
 20
35.93829955528155
 30
0.0
 10
108.0336529351529
 20
35.93829955528155
 30
0.0
 10
108.0336529351529
 20
35.93829955528155
 30
0.0
 10
107.7105466321272
 20
35.93829955528155
 30
0.0
 10
107.4486172210137
 20
36.16215718031026
 30
0.0
 10
107.4486172210137
 20
36.43829955515612
 30
0.0
 10
107.4486172210137
 20
36.43829955515612
 30
0.0
 10
107.4486172210137
 20
49.43829955190636
 30
0.0
 10
107.4486172210137
 20
49.43829955190636
 30
0.0
 10
107.4486172210137
 20
49.71444192675222
 30
0.0
 10
107.7105466321272
 20
49.93829955178093
 30
0.0
 10
108.0336529351529
 20
49.93829955178093
 30
0.0
 10
108.0336529351529
 20
49.93829955178093
 30
0.0
 10
123.2445815027794
 20
49.93829955178093
 30
0.0
 10
123.2445815027794
 20
49.93829955178093
 30
0.0
 10
123.5676878058045
 20
49.93829955178093
 30
0.0
 10
123.8296172169186
 20
49.71444192675222
 30
0.0
 10
123.8296172169186
 20
49.43829955190636
 30
0.0
 10
123.8296172169186
 20
49.43829955190636
 30
0.0
 10
123.8296172169186
 20
36.43829955515612
 30
0.0
 10
123.8296172169186
 20
36.43829955515612
 30
0.0
 10
123.8296172169186
 20
36.16215718031026
 30
0.0
 10
123.5676878058045
 20
35.93829955528155
 30
0.0
 10
123.2445815027794
 20
35.93829955528155
 30
0.0
  0
SPLINE
  5
A1
330
70
100
AcDbEntity
  8
Layer 1
 62
    18
420
        0
370
    25
100
AcDbSpline
210
0.0
220
0.0
230
1.0
 70
     9
 71
     3
 72
    29
 73
    25
 74
     0
 42
0.0000000001
 43
0.0000000001
 40
0.0
 40
0.0
 40
0.0
 40
0.0
 40
1.0
 40
1.0
 40
1.0
 40
2.0
 40
2.0
 40
2.0
 40
3.0
 40
3.0
 40
3.0
 40
4.0
 40
4.0
 40
4.0
 40
5.0
 40
5.0
 40
5.0
 40
6.0
 40
6.0
 40
6.0
 40
7.0
 40
7.0
 40
7.0
 40
8.0
 40
8.0
 40
8.0
 40
8.0
 10
123.329624440824
 20
54.98830791964135
 30
0.0
 10
123.329624440824
 20
54.98830791964135
 30
0.0
 10
-80.17037550830023
 20
54.98830791964135
 30
0.0
 10
-80.17037550830023
 20
54.98830791964135
 30
0.0
 10
-80.44651788314672
 20
54.98830791964135
 30
0.0
 10
-80.67037550817575
 20
55.21216554467006
 30
0.0
 10
-80.67037550817575
 20
55.48830791951655
 30
0.0
 10
-80.67037550817575
 20
55.48830791951655
 30
0.0
 10
-80.67037550817575
 20
68.48830791626617
 30
0.0
 10
-80.67037550817575
 20
68.48830791626617
 30
0.0
 10
-80.67037550817575
 20
68.76445029111265
 30
0.0
 10
-80.44651788314672
 20
68.98830791614137
 30
0.0
 10
-80.17037550830023
 20
68.98830791614137
 30
0.0
 10
-80.17037550830023
 20
68.98830791614137
 30
0.0
 10
123.329624440824
 20
68.98830791614137
 30
0.0
 10
123.329624440824
 20
68.98830791614137
 30
0.0
 10
123.6057668156705
 20
68.98830791614137
 30
0.0
 10
123.8296244406992
 20
68.76445029111265
 30
0.0
 10
123.8296244406992
 20
68.48830791626617
 30
0.0
 10
123.8296244406992
 20
68.48830791626617
 30
0.0
 10
123.8296244406992
 20
55.48830791951655
 30
0.0
 10
123.8296244406992
 20
55.48830791951655
 30
0.0
 10
123.8296244406992
 20
55.21216554467006
 30
0.0
 10
123.6057668156705
 20
54.98830791964135
 30
0.0
 10
123.329624440824
 20
54.98830791964135
 30
0.0
  0
SPLINE
  5
A2
330
70
100
AcDbEntity
  8
Layer 1
 62
    18
420
        0
370
    25
100
AcDbSpline
210
0.0
220
0.0
230
1.0
 70
     9
 71
     3
 72
    29
 73
    25
 74
     0
 42
0.0000000001
 43
0.0000000001
 40
0.0
 40
0.0
 40
0.0
 40
0.0
 40
1.0
 40
1.0
 40
1.0
 40
2.0
 40
2.0
 40
2.0
 40
3.0
 40
3.0
 40
3.0
 40
4.0
 40
4.0
 40
4.0
 40
5.0
 40
5.0
 40
5.0
 40
6.0
 40
6.0
 40
6.0
 40
7.0
 40
7.0
 40
7.0
 40
8.0
 40
8.0
 40
8.0
 40
8.0
 10
104.2793734339842
 20
35.93829455766333
 30
0.0
 10
104.2793734339842
 20
35.93829455766333
 30
0.0
 10
-99.22062651513979
 20
35.93829455766333
 30
0.0
 10
-99.22062651513979
 20
35.93829455766333
 30
0.0
 10
-99.49676888998595
 20
35.93829455766333
 30
0.0
 10
-99.72062651501435
 20
36.16215218269205
 30
0.0
 10
-99.72062651501435
 20
36.4382945575379
 30
0.0
 10
-99.72062651501435
 20
36.4382945575379
 30
0.0
 10
-99.72062651501435
 20
49.43829455428815
 30
0.0
 10
-99.72062651501435
 20
49.43829455428815
 30
0.0
 10
-99.72062651501435
 20
49.71443692913401
 30
0.0
 10
-99.49676888998595
 20
49.93829455416271
 30
0.0
 10
-99.22062651513979
 20
49.93829455416271
 30
0.0
 10
-99.22062651513979
 20
49.93829455416271
 30
0.0
 10
104.2793734339842
 20
49.93829455416271
 30
0.0
 10
104.2793734339842
 20
49.93829455416271
 30
0.0
 10
104.5555158088313
 20
49.93829455416271
 30
0.0
 10
104.77937343386
 20
49.71443692913401
 30
0.0
 10
104.77937343386
 20
49.43829455428815
 30
0.0
 10
104.77937343386
 20
49.43829455428815
 30
0.0
 10
104.77937343386
 20
36.4382945575379
 30
0.0
 10
104.77937343386
 20
36.4382945575379
 30
0.0
 10
104.77937343386
 20
36.16215218269205
 30
0.0
 10
104.5555158088313
 20
35.93829455766333
 30
0.0
 10
104.2793734339842
 20
35.93829455766333
 30
0.0
  0
SPLINE
  5
A3
330
70
100
AcDbEntity
  8
Layer 1
 62
    18
420
        0
370
    25
100
AcDbSpline
210
0.0
220
0.0
230
1.0
 70
    11
 71
     3
 72
    68
 73
    64
 74
     0
 42
0.0000000001
 43
0.0000000001
 40
0.0
 40
0.0
 40
0.0
 40
0.0
 40
1.0
 40
1.0
 40
1.0
 40
2.0
 40
2.0
 40
2.0
 40
3.0
 40
3.0
 40
3.0
 40
4.0
 40
4.0
 40
4.0
 40
5.0
 40
5.0
 40
5.0
 40
6.0
 40
6.0
 40
6.0
 40
7.0
 40
7.0
 40
7.0
 40
8.0
 40
8.0
 40
8.0
 40
9.0
 40
9.0
 40
9.0
 40
10.0
 40
10.0
 40
10.0
 40
11.0
 40
11.0
 40
11.0
 40
12.0
 40
12.0
 40
12.0
 40
13.0
 40
13.0
 40
13.0
 40
14.0
 40
14.0
 40
14.0
 40
15.0
 40
15.0
 40
15.0
 40
16.0
 40
16.0
 40
16.0
 40
17.0
 40
17.0
 40
17.0
 40
18.0
 40
18.0
 40
18.0
 40
19.0
 40
19.0
 40
19.0
 40
20.0
 40
20.0
 40
20.0
 40
21.0
 40
21.0
 40
21.0
 40
21.0
 10
-0.9706274025937357
 20
30.88868853161686
 30
0.0
 10
-0.9706274025937357
 20
30.88868853161686
 30
0.0
 10
-15.43335028220687
 20
30.88868903383812
 30
0.0
 10
-15.43335028220687
 20
30.88868903383812
 30
0.0
 10
-15.43335028220687
 20
30.88868903383812
 30
0.0
 10
-15.43335028220687
 20
32.38868844781391
 30
0.0
 10
-15.43335028220687
 20
32.38868844781391
 30
0.0
 10
-15.43335028220687
 20
32.66483082266105
 30
0.0
 10
-15.65720790723558
 20
32.88868844768976
 30
0.0
 10
-15.93335028208143
 20
32.88868844768976
 30
0.0
 10
-15.93335028208143
 20
32.88868844768976
 30
0.0
 10
-21.93335028058136
 20
32.88868844768976
 30
0.0
 10
-21.93335028058136
 20
32.88868844768976
 30
0.0
 10
-22.20949265542849
 20
32.88868844768976
 30
0.0
 10
-22.4333502804572
 20
32.66483082266105
 30
0.0
 10
-22.4333502804572
 20
32.38868844781391
 30
0.0
 10
-22.4333502804572
 20
32.38868844781391
 30
0.0
 10
-22.4333502804572
 20
30.88868903383812
 30
0.0
 10
-22.43334803002252
 20
30.88868844781546
 30
0.0
 10
-22.43334803002252
 20
30.88868844781546
 30
0.0
 10
-23.02037027732598
 20
30.88868844781546
 30
0.0
 10
-23.02037027732598
 20
30.88868844781546
 30
0.0
 10
-23.29651265217183
 20
30.88868844781546
 30
0.0
 10
-23.52037027720054
 20
30.66483082278674
 30
0.0
 10
-23.52037027720054
 20
30.38868844793961
 30
0.0
 10
-23.52037027720054
 20
30.38868844793961
 30
0.0
 10
-23.52037027720054
 20
17.38868845119064
 30
0.0
 10
-23.52037027720054
 20
17.38868845119064
 30
0.0
 10
-23.52037027720054
 20
17.1125460763435
 30
0.0
 10
-23.29651265217183
 20
16.88868845131479
 30
0.0
 10
-23.02037027732598
 20
16.88868845131479
 30
0.0
 10
-23.02037027732598
 20
16.88868845131479
 30
0.0
 10
9.029629714662094
 20
16.88868845131479
 30
0.0
 10
9.029629714662094
 20
16.88868845131479
 30
0.0
 10
9.305772089507627
 20
16.88868845131479
 30
0.0
 10
9.529629714536339
 20
17.1125460763435
 30
0.0
 10
9.529629714536339
 20
17.38868845119064
 30
0.0
 10
9.529629714536339
 20
17.38868845119064
 30
0.0
 10
9.529629714536339
 20
30.38868844793961
 30
0.0
 10
9.529629714536339
 20
30.38868844793961
 30
0.0
 10
9.529629714536339
 20
30.66483082278674
 30
0.0
 10
9.305772089507627
 20
30.88868844781546
 30
0.0
 10
9.029629714662094
 20
30.88868844781546
 30
0.0
 10
9.029629714662094
 20
30.88868844781546
 30
0.0
 10
8.442649043820667
 20
30.88868844781546
 30
0.0
 10
8.442649043820667
 20
30.88868844781546
 30
0.0
 10
8.442649043820667
 20
30.88868844781546
 30
0.0
 10
8.442649717793319
 20
32.38868844781391
 30
0.0
 10
8.442649717793319
 20
32.38868844781391
 30
0.0
 10
8.442649717793319
 20
32.66483082266105
 30
0.0
 10
8.218792092764607
 20
32.88868844768976
 30
0.0
 10
7.942649717917469
 20
32.88868844768976
 30
0.0
 10
7.942649717917469
 20
32.88868844768976
 30
0.0
 10
-0.4706265398271137
 20
32.88868844762751
 30
0.0
 10
-0.4706265398271137
 20
32.88868844762751
 30
0.0
 10
-0.7467689146736088
 20
32.88868844762751
 30
0.0
 10
-0.9706265397023209
 20
32.6648308225988
 30
0.0
 10
-0.9706265397023209
 20
32.3886884477523
 30
0.0
 10
-0.9706265397023209
 20
32.3886884477523
 30
0.0
 10
-0.9706265397023209
 20
30.88868579053974
 30
0.0
 10
-0.9706265397023209
 20
30.88868579053974
 30
0.0
 10
-0.9706265397023209
 20
30.88868579053974
 30
0.0
 10
-0.9706274025937357
 20
30.88868853161686
 30
0.0
 10
-0.9706274025937357
 20
30.88868853161686
 30
0.0
  0
ENDSEC
  0
SECTION
  2
OBJECTS
  0
DICTIONARY
  5
C
330
0
100
AcDbDictionary
281
     1
  3
ACAD_COLOR
350
63
  3
ACAD_DETAILVIEWSTYLE
350
6A
  3
ACAD_GROUP
350
D
  3
ACAD_LAYOUT
350
62
  3
ACAD_MATERIAL
350
10
  3
ACAD_MLEADERSTYLE
350
66
  3
ACAD_MLINESTYLE
350
5F
  3
ACAD_PLOTSETTINGS
350
61
  3
ACAD_PLOTSTYLENAME
350
E
  3
ACAD_SCALELIST
350
42
  3
ACAD_SECTIONVIEWSTYLE
350
68
  3
ACAD_TABLESTYLE
350
64
  3
ACAD_VISUALSTYLE
350
29
  3
ACDB_RECOMPOSE_DATA
350
AC
  3
AcDbVariableDictionary
350
A4
  0
DICTIONARY
  5
63
102
{ACAD_REACTORS
330
C
102
}
330
C
100
AcDbDictionary
281
     1
  0
DICTIONARY
  5
6A
102
{ACAD_REACTORS
330
C
102
}
330
C
100
AcDbDictionary
281
     1
  3
Imperial24
350
6B
  0
DICTIONARY
  5
D
102
{ACAD_REACTORS
330
C
102
}
330
C
100
AcDbDictionary
281
     1
  0
DICTIONARY
  5
62
102
{ACAD_REACTORS
330
C
102
}
330
C
100
AcDbDictionary
281
     1
  3
Layout1
350
6F
  3
Layout2
350
77
  3
Model
350
73
  0
DICTIONARY
  5
10
102
{ACAD_REACTORS
330
C
102
}
330
C
100
AcDbDictionary
281
     1
  3
ByBlock
350
19
  3
ByLayer
350
11
  3
Global
350
21
  0
DICTIONARY
  5
66
102
{ACAD_REACTORS
330
C
102
}
330
C
100
AcDbDictionary
281
     1
  3
Standard
350
67
  0
DICTIONARY
  5
5F
102
{ACAD_REACTORS
330
C
102
}
330
C
100
AcDbDictionary
281
     1
  3
Standard
350
60
  0
DICTIONARY
  5
61
102
{ACAD_REACTORS
330
C
102
}
330
C
100
AcDbDictionary
281
     1
  0
ACDBDICTIONARYWDFLT
  5
E
102
{ACAD_REACTORS
330
C
102
}
330
C
100
AcDbDictionary
281
     1
  3
Normal
350
F
100
AcDbDictionaryWithDefault
340
F
  0
DICTIONARY
  5
42
102
{ACAD_REACTORS
330
C
102
}
330
C
100
AcDbDictionary
281
     1
  3
A0
350
43
  3
A1
350
44
  3
A2
350
45
  3
A3
350
46
  3
A4
350
47
  3
A5
350
48
  3
A6
350
49
  3
A7
350
4A
  3
A8
350
4B
  3
A9
350
4C
  3
B0
350
4D
  3
B1
350
4E
  3
B2
350
4F
  3
B3
350
50
  3
B4
350
51
  3
B5
350
52
  3
B6
350
53
  0
DICTIONARY
  5
68
102
{ACAD_REACTORS
330
C
102
}
330
C
100
AcDbDictionary
281
     1
  3
Imperial24
350
69
  0
DICTIONARY
  5
64
102
{ACAD_REACTORS
330
C
102
}
330
C
100
AcDbDictionary
281
     1
  3
Standard
350
65
  0
DICTIONARY
  5
29
102
{ACAD_REACTORS
330
C
102
}
330
C
100
AcDbDictionary
281
     1
  3
2dWireframe
350
2F
  3
Basic
350
2E
  3
Brighten
350
35
  3
ColorChange
350
39
  3
Conceptual
350
32
  3
Dim
350
34
  3
EdgeColorOff
350
41
  3
Facepattern
350
38
  3
Flat
350
2A
  3
FlatWithEdges
350
2B
  3
Gouraud
350
2C
  3
GouraudWithEdges
350
2D
  3
Hidden
350
31
  3
JitterOff
350
3F
  3
Linepattern
350
37
  3
OverhangOff
350
40
  3
Realistic
350
33
  3
Shaded
350
3E
  3
Shaded with edges
350
3D
  3
Shades of Gray
350
3A
  3
Sketchy
350
3B
  3
Thicken
350
36
  3
Wireframe
350
30
  3
X-Ray
350
3C
  0
XRECORD
  5
AC
102
{ACAD_REACTORS
330
C
102
}
330
C
100
AcDbXrecord
280
     1
 90
        1
330
65
  0
DICTIONARY
  5
A4
102
{ACAD_REACTORS
330
C
102
}
330
C
100
AcDbDictionary
281
     1
  3
CANNOSCALE
350
A9
  3
CMLEADERSTYLE
350
A6
  3
CTABLESTYLE
350
A5
  3
CVIEWDETAILSTYLE
350
A7
  3
CVIEWSECTIONSTYLE
350
A8
  0
ACDBDETAILVIEWSTYLE
  5
6B
102
{ACAD_REACTORS
330
6A
102
}
330
6A
100
AcDbModelDocViewStyle
 70
     0
  3
Imperial24
290
     1
300
Imperial24
 90
        0
100
AcDbDetailViewStyle
 70
     0
 71
     0
 90
        3
 71
     1
340
55
 62
   256
 40
0.24
340
0
 62
   256
 40
0.24
300

 40
0.36
280
     3
 71
     2
340
5D
 90
       25
 62
   256
 71
     3
340
55
 62
   256
 40
0.24
 90
        1
 40
0.75
 90
        1
300
%<\AcVar ViewType \f "%tc1">% %<\AcVar ViewDetailId>%\PSCALE %<\AcVar ViewScale \f "%sn">%
 71
     4
340
5D
 90
       25
 62
   256
340
5D
 90
       25
 62
   256
280
     0
  0
LAYOUT
  5
6F
102
{ACAD_REACTORS
330
62
102
}
330
62
100
AcDbPlotSettings
  1

  2

  4

  6

 40
0.0
 41
0.0
 42
0.0
 43
0.0
 44
0.0
 45
0.0
 46
0.0
 47
0.0
 48
0.0
 49
0.0
140
0.0
141
0.0
142
1.0
143
1.0
 70
   688
 72
     0
 73
     0
 74
     5
  7

 75
    16
147
1.0
 76
     0
 77
     2
 78
   300
148
0.0
149
0.0
100
AcDbLayout
  1
Layout1
 70
     1
 71
     1
 10
0.0
 20
0.0
 11
12.0
 21
9.0
 12
0.0
 22
0.0
 32
0.0
 14
0.0
 24
0.0
 34
0.0
 15
0.0
 25
0.0
 35
0.0
146
0.0
 13
0.0
 23
0.0
 33
0.0
 16
1.0
 26
0.0
 36
0.0
 17
0.0
 27
1.0
 37
0.0
 76
     0
330
6C
  0
LAYOUT
  5
77
102
{ACAD_REACTORS
330
62
102
}
330
62
100
AcDbPlotSettings
  1

  2

  4

  6

 40
0.0
 41
0.0
 42
0.0
 43
0.0
 44
0.0
 45
0.0
 46
0.0
 47
0.0
 48
0.0
 49
0.0
140
0.0
141
0.0
142
1.0
143
1.0
 70
   688
 72
     0
 73
     0
 74
     5
  7

 75
    16
147
1.0
 76
     0
 77
     2
 78
   300
148
0.0
149
0.0
100
AcDbLayout
  1
Layout2
 70
     1
 71
     2
 10
0.0
 20
0.0
 11
12.0
 21
9.0
 12
0.0
 22
0.0
 32
0.0
 14
0.0
 24
0.0
 34
0.0
 15
0.0
 25
0.0
 35
0.0
146
0.0
 13
0.0
 23
0.0
 33
0.0
 16
1.0
 26
0.0
 36
0.0
 17
0.0
 27
1.0
 37
0.0
 76
     0
330
74
  0
LAYOUT
  5
73
102
{ACAD_REACTORS
330
62
102
}
330
62
100
AcDbPlotSettings
  1

  2

  4

  6

 40
0.0
 41
0.0
 42
0.0
 43
0.0
 44
0.0
 45
0.0
 46
0.0
 47
0.0
 48
0.0
 49
0.0
140
0.0
141
0.0
142
1.0
143
1.0
 70
  1712
 72
     0
 73
     0
 74
     0
  7

 75
     0
147
1.0
 76
     0
 77
     2
 78
   300
148
0.0
149
0.0
100
AcDbLayout
  1
Model
 70
     1
 71
     0
 10
0.0
 20
0.0
 11
12.0
 21
9.0
 12
0.0
 22
0.0
 32
0.0
 14
0.0
 24
0.0
 34
0.0
 15
0.0
 25
0.0
 35
0.0
146
0.0
 13
0.0
 23
0.0
 33
0.0
 16
1.0
 26
0.0
 36
0.0
 17
0.0
 27
1.0
 37
0.0
 76
     0
330
70
  0
MATERIAL
  5
19
102
{ACAD_XDICTIONARY
360
1A
102
}
102
{ACAD_REACTORS
330
10
102
}
330
10
100
AcDbMaterial
  1
ByBlock
 72
     0
 43
0.0208333333333333
 43
0.0
 43
0.0
 43
0.0
 43
0.0
 43
0.0208333333333333
 43
0.0
 43
0.0
 43
0.0
 43
0.0
 43
1.0
 43
0.0
 43
0.0
 43
0.0
 43
0.0
 43
1.0
 77
     0
 47
0.0208333333333333
 47
0.0
 47
0.0
 47
0.0
 47
0.0
 47
0.0208333333333333
 47
0.0
 47
0.0
 47
0.0
 47
0.0
 47
1.0
 47
0.0
 47
0.0
 47
0.0
 47
0.0
 47
1.0
171
     0
 49
0.0208333333333333
 49
0.0
 49
0.0
 49
0.0
 49
0.0
 49
0.0208333333333333
 49
0.0
 49
0.0
 49
0.0
 49
0.0
 49
1.0
 49
0.0
 49
0.0
 49
0.0
 49
0.0
 49
1.0
175
     0
142
0.0208333333333333
142
0.0
142
0.0
142
0.0
142
0.0
142
0.0208333333333333
142
0.0
142
0.0
142
0.0
142
0.0
142
1.0
142
0.0
142
0.0
142
0.0
142
0.0
142
1.0
179
     0
144
0.0208333333333333
144
0.0
144
0.0
144
0.0
144
0.0
144
0.0208333333333333
144
0.0
144
0.0
144
0.0
144
0.0
144
1.0
144
0.0
144
0.0
144
0.0
144
0.0
144
1.0
147
0.0208333333333333
147
0.0
147
0.0
147
0.0
147
0.0
147
0.0208333333333333
147
0.0
147
0.0
147
0.0
147
0.0
147
1.0
147
0.0
147
0.0
147
0.0
147
0.0
147
1.0
  0
MATERIAL
  5
11
102
{ACAD_XDICTIONARY
360
12
102
}
102
{ACAD_REACTORS
330
10
102
}
330
10
100
AcDbMaterial
  1
ByLayer
 72
     0
 43
0.0208333333333333
 43
0.0
 43
0.0
 43
0.0
 43
0.0
 43
0.0208333333333333
 43
0.0
 43
0.0
 43
0.0
 43
0.0
 43
1.0
 43
0.0
 43
0.0
 43
0.0
 43
0.0
 43
1.0
 77
     0
 47
0.0208333333333333
 47
0.0
 47
0.0
 47
0.0
 47
0.0
 47
0.0208333333333333
 47
0.0
 47
0.0
 47
0.0
 47
0.0
 47
1.0
 47
0.0
 47
0.0
 47
0.0
 47
0.0
 47
1.0
171
     0
 49
0.0208333333333333
 49
0.0
 49
0.0
 49
0.0
 49
0.0
 49
0.0208333333333333
 49
0.0
 49
0.0
 49
0.0
 49
0.0
 49
1.0
 49
0.0
 49
0.0
 49
0.0
 49
0.0
 49
1.0
175
     0
142
0.0208333333333333
142
0.0
142
0.0
142
0.0
142
0.0
142
0.0208333333333333
142
0.0
142
0.0
142
0.0
142
0.0
142
1.0
142
0.0
142
0.0
142
0.0
142
0.0
142
1.0
179
     0
144
0.0208333333333333
144
0.0
144
0.0
144
0.0
144
0.0
144
0.0208333333333333
144
0.0
144
0.0
144
0.0
144
0.0
144
1.0
144
0.0
144
0.0
144
0.0
144
0.0
144
1.0
147
0.0208333333333333
147
0.0
147
0.0
147
0.0
147
0.0
147
0.0208333333333333
147
0.0
147
0.0
147
0.0
147
0.0
147
1.0
147
0.0
147
0.0
147
0.0
147
0.0
147
1.0
  0
MATERIAL
  5
21
102
{ACAD_XDICTIONARY
360
22
102
}
102
{ACAD_REACTORS
330
10
102
}
330
10
100
AcDbMaterial
  1
Global
 72
     0
 43
0.0208333333333333
 43
0.0
 43
0.0
 43
0.0
 43
0.0
 43
0.0208333333333333
 43
0.0
 43
0.0
 43
0.0
 43
0.0
 43
1.0
 43
0.0
 43
0.0
 43
0.0
 43
0.0
 43
1.0
 77
     0
 47
0.0208333333333333
 47
0.0
 47
0.0
 47
0.0
 47
0.0
 47
0.0208333333333333
 47
0.0
 47
0.0
 47
0.0
 47
0.0
 47
1.0
 47
0.0
 47
0.0
 47
0.0
 47
0.0
 47
1.0
171
     0
 49
0.0208333333333333
 49
0.0
 49
0.0
 49
0.0
 49
0.0
 49
0.0208333333333333
 49
0.0
 49
0.0
 49
0.0
 49
0.0
 49
1.0
 49
0.0
 49
0.0
 49
0.0
 49
0.0
 49
1.0
175
     0
142
0.0208333333333333
142
0.0
142
0.0
142
0.0
142
0.0
142
0.0208333333333333
142
0.0
142
0.0
142
0.0
142
0.0
142
1.0
142
0.0
142
0.0
142
0.0
142
0.0
142
1.0
179
     0
144
0.0208333333333333
144
0.0
144
0.0
144
0.0
144
0.0
144
0.0208333333333333
144
0.0
144
0.0
144
0.0
144
0.0
144
1.0
144
0.0
144
0.0
144
0.0
144
0.0
144
1.0
147
0.0208333333333333
147
0.0
147
0.0
147
0.0
147
0.0
147
0.0208333333333333
147
0.0
147
0.0
147
0.0
147
0.0
147
1.0
147
0.0
147
0.0
147
0.0
147
0.0
147
1.0
  0
MLEADERSTYLE
  5
67
102
{ACAD_REACTORS
330
66
102
}
330
66
100
AcDbMLeaderStyle
179
     2
170
     2
171
     1
172
     0
 90
        2
 40
0.0
 41
0.0
173
     1
 91
-1056964608
340
5B
 92
       -2
290
     1
 42
0.09
291
     1
 43
0.36
  3
Standard
 44
0.18
300

342
55
174
     1
178
     6
175
     1
176
     0
 93
-1056964608
 45
0.18
292
     0
297
     0
 46
0.18
 94
-1056964608
 47
1.0
 49
1.0
140
1.0
293
     1
141
0.0
294
     1
177
     0
142
1.0
295
     1
296
     0
143
0.125
271
     0
272
     9
273
     9
298
     1
  0
MLINESTYLE
  5
60
102
{ACAD_REACTORS
330
5F
102
}
330
5F
100
AcDbMlineStyle
  2
STANDARD
 70
     0
  3

 62
   256
 51
90.0
 52
90.0
 71
     2
 49
0.5
 62
   256
  6
BYLAYER
 49
-0.5
 62
   256
  6
BYLAYER
  0
ACDBPLACEHOLDER
  5
F
102
{ACAD_REACTORS
330
E
102
}
330
E
  0
SCALE
  5
43
102
{ACAD_REACTORS
330
42
102
}
330
42
100
AcDbScale
 70
     0
300
1:1
140
1.0
141
1.0
290
     1
  0
SCALE
  5
44
102
{ACAD_REACTORS
330
42
102
}
330
42
100
AcDbScale
 70
     0
300
1/128" = 1'-0"
140
0.0078125
141
12.0
290
     0
  0
SCALE
  5
45
102
{ACAD_REACTORS
330
42
102
}
330
42
100
AcDbScale
 70
     0
300
1/64" = 1'-0"
140
0.015625
141
12.0
290
     0
  0
SCALE
  5
46
102
{ACAD_REACTORS
330
42
102
}
330
42
100
AcDbScale
 70
     0
300
1/32" = 1'-0"
140
0.03125
141
12.0
290
     0
  0
SCALE
  5
47
102
{ACAD_REACTORS
330
42
102
}
330
42
100
AcDbScale
 70
     0
300
1/16" = 1'-0"
140
0.0625
141
12.0
290
     0
  0
SCALE
  5
48
102
{ACAD_REACTORS
330
42
102
}
330
42
100
AcDbScale
 70
     0
300
3/32" = 1'-0"
140
0.09375
141
12.0
290
     0
  0
SCALE
  5
49
102
{ACAD_REACTORS
330
42
102
}
330
42
100
AcDbScale
 70
     0
300
1/8" = 1'-0"
140
0.125
141
12.0
290
     0
  0
SCALE
  5
4A
102
{ACAD_REACTORS
330
42
102
}
330
42
100
AcDbScale
 70
     0
300
3/16" = 1'-0"
140
0.1875
141
12.0
290
     0
  0
SCALE
  5
4B
102
{ACAD_REACTORS
330
42
102
}
330
42
100
AcDbScale
 70
     0
300
1/4" = 1'-0"
140
0.25
141
12.0
290
     0
  0
SCALE
  5
4C
102
{ACAD_REACTORS
330
42
102
}
330
42
100
AcDbScale
 70
     0
300
3/8" = 1'-0"
140
0.375
141
12.0
290
     0
  0
SCALE
  5
4D
102
{ACAD_REACTORS
330
42
102
}
330
42
100
AcDbScale
 70
     0
300
1/2" = 1'-0"
140
0.5
141
12.0
290
     0
  0
SCALE
  5
4E
102
{ACAD_REACTORS
330
42
102
}
330
42
100
AcDbScale
 70
     0
300
3/4" = 1'-0"
140
0.75
141
12.0
290
     0
  0
SCALE
  5
4F
102
{ACAD_REACTORS
330
42
102
}
330
42
100
AcDbScale
 70
     0
300
1" = 1'-0"
140
1.0
141
12.0
290
     0
  0
SCALE
  5
50
102
{ACAD_REACTORS
330
42
102
}
330
42
100
AcDbScale
 70
     0
300
1-1/2" = 1'-0"
140
1.5
141
12.0
290
     0
  0
SCALE
  5
51
102
{ACAD_REACTORS
330
42
102
}
330
42
100
AcDbScale
 70
     0
300
3" = 1'-0"
140
3.0
141
12.0
290
     0
  0
SCALE
  5
52
102
{ACAD_REACTORS
330
42
102
}
330
42
100
AcDbScale
 70
     0
300
6" = 1'-0"
140
6.0
141
12.0
290
     0
  0
SCALE
  5
53
102
{ACAD_REACTORS
330
42
102
}
330
42
100
AcDbScale
 70
     0
300
1'-0" = 1'-0"
140
12.0
141
12.0
290
     0
  0
ACDBSECTIONVIEWSTYLE
  5
69
102
{ACAD_REACTORS
330
68
102
}
330
68
100
AcDbModelDocViewStyle
 70
     0
  3
Imperial24
290
     1
300
Imperial24
 90
        0
100
AcDbSectionViewStyle
 70
     0
 71
     0
 90
       78
 71
     1
340
55
 62
   256
 40
0.24
340
0
340
0
 62
   256
 40
0.24
300
I, O, Q, S, X, Z
 40
0.48
 90
        3
 40
0.18
 90
        1
 71
     2
340
5D
 90
       25
 62
   256
340
5D
 90
       50
 62
   256
 40
0.24
 40
0.0
 40
0.24
 71
     3
340
55
 62
   256
 40
0.24
 90
        1
 40
0.75
 90
        1
300
%<\AcVar ViewType \f "%tc1">% %<\AcVar ViewSectionStartId>%-%<\AcVar ViewSectionEndId>%\PSCALE %<\AcVar ViewScale \f "%sn">%
 71
     4
 62
   256
 62
   257
300
ANSI31
 40
1.0
 90
        0
290
     0
290
     0
 90
        6
 40
0.0
 40
1.570796326794896
 40
0.2617993877991494
 40
1.308996938995747
 40
-0.2617993877991494
 40
1.832595714594046
  0
TABLESTYLE
  5
65
102
{ACAD_XDICTIONARY
360
AA
102
}
102
{ACAD_REACTORS
330
64
102
}
330
64
100
AcDbTableStyle
280
     0
  3
Standard
 70
     0
 71
     0
 40
0.06
 41
0.06
280
     0
281
     0
  7
Standard
140
0.18
170
     2
 62
     0
 63
     7
283
     0
 90
      512
 91
        0
  1

274
    -2
284
     1
 64
     0
275
    -2
285
     1
 65
     0
276
    -2
286
     1
 66
     0
277
    -2
287
     1
 67
     0
278
    -2
288
     1
 68
     0
279
    -2
289
     1
 69
     0
  7
Standard
140
0.25
170
     5
 62
     0
 63
     7
283
     0
 90
      512
 91
        0
  1

274
    -2
284
     1
 64
     0
275
    -2
285
     1
 65
     0
276
    -2
286
     1
 66
     0
277
    -2
287
     1
 67
     0
278
    -2
288
     1
 68
     0
279
    -2
289
     1
 69
     0
  7
Standard
140
0.18
170
     5
 62
     0
 63
     7
283
     0
 90
      512
 91
        0
  1

274
    -2
284
     1
 64
     0
275
    -2
285
     1
 65
     0
276
    -2
286
     1
 66
     0
277
    -2
287
     1
 67
     0
278
    -2
288
     1
 68
     0
279
    -2
289
     1
 69
     0
  0
VISUALSTYLE
  5
2F
102
{ACAD_REACTORS
330
29
102
}
330
29
100
AcDbVisualStyle
  2
2dWireframe
 70
     4
177
     3
291
     0
 70
    58
 90
        0
176
     1
 90
        2
176
     1
 90
        0
176
     1
 90
        0
176
     1
 40
0.6
176
     1
 40
30.0
176
     1
 62
     7
420
 16777215
176
     1
 90
        1
176
     1
 90
        4
176
     1
 62
     7
176
     1
 62
   257
176
     1
 90
        1
176
     1
 90
        1
176
     1
 40
1.0
176
     1
 90
        0
176
     1
 62
   257
176
     1
 40
1.0
176
     1
 90
        1
176
     1
 90
        6
176
     1
 90
        2
176
     1
 62
     7
176
     1
 90
        5
176
     1
 90
        0
176
     1
 90
        0
176
     1
290
     0
176
     1
 90
        1
176
     1
 40
0.0
176
     1
 90
        0
176
     1
290
     1
176
     1
290
     1
176
     1
290
     0
176
     1
290
     0
176
     1
290
     0
176
     1
290
     0
176
     1
290
     0
176
     1
290
     0
176
     1
290
     0
176
     1
 90
       50
176
     1
 40
0.0
176
     1
 40
1.0
176
     1
 90
        0
176
     1
 62
    18
420
        0
176
     1
 90
       50
176
     1
 90
        3
176
     1
 62
     5
420
      255
176
     1
290
     0
176
     1
 90
       50
176
     1
 90
       50
176
     1
 90
       50
176
     1
290
     0
176
     1
 90
       50
176
     1
 62
   256
176
     0
 40
1.0
176
     0
 90
        2
176
     1
  1
strokes_ogs.tif
176
     1
290
     0
176
     1
 40
1.0
176
     1
 40
1.0
176
     1
  0
VISUALSTYLE
  5
2E
102
{ACAD_REACTORS
330
29
102
}
330
29
100
AcDbVisualStyle
  2
Basic
 70
     7
177
     3
291
     1
 70
    58
 90
        1
176
     1
 90
        0
176
     1
 90
        1
176
     1
 90
        0
176
     1
 40
0.6
176
     1
 40
30.0
176
     1
 62
     7
420
 16777215
176
     1
 90
        0
176
     1
 90
        4
176
     1
 62
     7
176
     1
 62
   257
176
     1
 90
        1
176
     1
 90
        1
176
     1
 40
1.0
176
     1
 90
        8
176
     1
 62
     7
176
     1
 40
1.0
176
     1
 90
        1
176
     1
 90
        6
176
     1
 90
        2
176
     1
 62
     7
176
     1
 90
        5
176
     1
 90
        0
176
     1
 90
        0
176
     1
290
     0
176
     1
 90
        1
176
     1
 40
0.0
176
     1
 90
        0
176
     1
290
     0
176
     1
290
     1
176
     1
290
     1
176
     1
290
     0
176
     1
290
     0
176
     1
290
     0
176
     1
290
     0
176
     1
290
     0
176
     1
290
     0
176
     1
 90
       50
176
     1
 40
0.0
176
     1
 40
1.0
176
     1
 90
        0
176
     1
 62
    18
420
        0
176
     1
 90
       50
176
     1
 90
        3
176
     1
 62
     5
420
      255
176
     1
290
     0
176
     1
 90
       50
176
     1
 90
       50
176
     1
 90
       50
176
     1
290
     0
176
     1
 90
       50
176
     1
 62
   256
176
     0
 40
1.0
176
     0
 90
        2
176
     1
  1
strokes_ogs.tif
176
     1
290
     0
176
     1
 40
1.0
176
     1
 40
1.0
176
     1
  0
VISUALSTYLE
  5
35
102
{ACAD_REACTORS
330
29
102
}
330
29
100
AcDbVisualStyle
  2
Brighten
 70
    12
177
     3
291
     1
 70
    58
 90
        2
176
     1
 90
        2
176
     1
 90
        0
176
     1
 90
        0
176
     1
 40
0.6
176
     1
 40
30.0
176
     1
 62
     7
420
 16777215
176
     1
 90
        1
176
     1
 90
        4
176
     1
 62
     7
176
     1
 62
   257
176
     1
 90
        1
176
     1
 90
        1
176
     1
 40
1.0
176
     1
 90
        8
176
     1
 62
     7
176
     1
 40
1.0
176
     1
 90
        1
176
     1
 90
        6
176
     1
 90
        2
176
     1
 62
     7
176
     1
 90
        5
176
     1
 90
        0
176
     1
 90
        0
176
     1
290
     0
176
     1
 90
        1
176
     1
 40
50.0
176
     1
 90
        0
176
     1
290
     0
176
     1
290
     1
176
     1
290
     1
176
     1
290
     0
176
     1
290
     0
176
     1
290
     0
176
     1
290
     0
176
     1
290
     0
176
     1
290
     0
176
     1
 90
       50
176
     1
 40
0.0
176
     1
 40
1.0
176
     1
 90
        0
176
     1
 62
    18
420
        0
176
     1
 90
       50
176
     1
 90
        3
176
     1
 62
     5
420
      255
176
     1
290
     0
176
     1
 90
       50
176
     1
 90
       50
176
     1
 90
       50
176
     1
290
     0
176
     1
 90
       50
176
     1
 62
   256
176
     0
 40
1.0
176
     0
 90
        2
176
     1
  1
strokes_ogs.tif
176
     1
290
     0
176
     1
 40
1.0
176
     1
 40
1.0
176
     1
  0
VISUALSTYLE
  5
39
102
{ACAD_REACTORS
330
29
102
}
330
29
100
AcDbVisualStyle
  2
ColorChange
 70
    16
177
     3
291
     1
 70
    58
 90
        2
176
     1
 90
        2
176
     1
 90
        3
176
     1
 90
        0
176
     1
 40
0.6
176
     1
 40
30.0
176
     1
 62
     8
420
  8421504
176
     1
 90
        1
176
     1
 90
        4
176
     1
 62
     7
176
     1
 62
   257
176
     1
 90
        1
176
     1
 90
        1
176
     1
 40
1.0
176
     1
 90
        8
176
     1
 62
     8
420
  8421504
176
     1
 40
1.0
176
     1
 90
        1
176
     1
 90
        6
176
     1
 90
        2
176
     1
 62
     7
176
     1
 90
        5
176
     1
 90
        0
176
     1
 90
        0
176
     1
290
     0
176
     1
 90
        1
176
     1
 40
0.0
176
     1
 90
        0
176
     1
290
     0
176
     1
290
     1
176
     1
290
     1
176
     1
290
     0
176
     1
290
     0
176
     1
290
     0
176
     1
290
     0
176
     1
290
     0
176
     1
290
     0
176
     1
 90
       50
176
     1
 40
0.0
176
     1
 40
1.0
176
     1
 90
        0
176
     1
 62
    18
420
        0
176
     1
 90
       50
176
     1
 90
        3
176
     1
 62
     5
420
      255
176
     1
290
     0
176
     1
 90
       50
176
     1
 90
       50
176
     1
 90
       50
176
     1
290
     0
176
     1
 90
       50
176
     1
 62
   256
176
     0
 40
1.0
176
     0
 90
        2
176
     1
  1
strokes_ogs.tif
176
     1
290
     0
176
     1
 40
1.0
176
     1
 40
1.0
176
     1
  0
VISUALSTYLE
  5
32
102
{ACAD_REACTORS
330
29
102
}
330
29
100
AcDbVisualStyle
  2
Conceptual
 70
     9
177
     3
291
     0
 70
    58
 90
        3
176
     1
 90
        2
176
     1
 90
        0
176
     1
 90
        0
176
     1
 40
0.6
176
     1
 40
30.0
176
     1
 62
     7
420
 16777215
176
     1
 90
        2
176
     1
 90
        2
176
     1
 62
     7
176
     1
 62
   257
176
     1
 90
        1
176
     1
 90
        1
176
     1
 40
179.0
176
     1
 90
        8
176
     1
 62
     7
176
     1
 40
1.0
176
     1
 90
        1
176
     1
 90
        6
176
     1
 90
        2
176
     1
 62
     7
176
     1
 90
        3
176
     1
 90
        0
176
     1
 90
        0
176
     1
290
     0
176
     1
 90
        1
176
     1
 40
0.0
176
     1
 90
        0
176
     1
290
     0
176
     1
290
     1
176
     1
290
     1
176
     1
290
     0
176
     1
290
     0
176
     1
290
     0
176
     1
290
     0
176
     1
290
     0
176
     1
290
     0
176
     1
 90
       50
176
     1
 40
0.0
176
     1
 40
1.0
176
     1
 90
        0
176
     1
 62
    18
420
        0
176
     1
 90
       50
176
     1
 90
        3
176
     1
 62
     5
420
      255
176
     1
290
     0
176
     1
 90
       50
176
     1
 90
       50
176
     1
 90
       50
176
     1
290
     0
176
     1
 90
       50
176
     1
 62
   256
176
     0
 40
1.0
176
     0
 90
        2
176
     1
  1
strokes_ogs.tif
176
     1
290
     0
176
     1
 40
1.0
176
     1
 40
1.0
176
     1
  0
VISUALSTYLE
  5
34
102
{ACAD_REACTORS
330
29
102
}
330
29
100
AcDbVisualStyle
  2
Dim
 70
    11
177
     3
291
     1
 70
    58
 90
        2
176
     1
 90
        2
176
     1
 90
        0
176
     1
 90
        0
176
     1
 40
0.6
176
     1
 40
30.0
176
     1
 62
     7
420
 16777215
176
     1
 90
        1
176
     1
 90
        4
176
     1
 62
     7
176
     1
 62
   257
176
     1
 90
        1
176
     1
 90
        1
176
     1
 40
1.0
176
     1
 90
        8
176
     1
 62
     7
176
     1
 40
1.0
176
     1
 90
        1
176
     1
 90
        6
176
     1
 90
        2
176
     1
 62
     7
176
     1
 90
        5
176
     1
 90
        0
176
     1
 90
        0
176
     1
290
     0
176
     1
 90
        1
176
     1
 40
-50.0
176
     1
 90
        0
176
     1
290
     0
176
     1
290
     1
176
     1
290
     1
176
     1
290
     0
176
     1
290
     0
176
     1
290
     0
176
     1
290
     0
176
     1
290
     0
176
     1
290
     0
176
     1
 90
       50
176
     1
 40
0.0
176
     1
 40
1.0
176
     1
 90
        0
176
     1
 62
    18
420
        0
176
     1
 90
       50
176
     1
 90
        3
176
     1
 62
     5
420
      255
176
     1
290
     0
176
     1
 90
       50
176
     1
 90
       50
176
     1
 90
       50
176
     1
290
     0
176
     1
 90
       50
176
     1
 62
   256
176
     0
 40
1.0
176
     0
 90
        2
176
     1
  1
strokes_ogs.tif
176
     1
290
     0
176
     1
 40
1.0
176
     1
 40
1.0
176
     1
  0
VISUALSTYLE
  5
41
102
{ACAD_REACTORS
330
29
102
}
330
29
100
AcDbVisualStyle
  2
EdgeColorOff
 70
    22
177
     3
291
     1
 70
    58
 90
        2
176
     0
 90
        2
176
     0
 90
        0
176
     0
 90
        0
176
     0
 40
0.6
176
     0
 40
30.0
176
     0
 62
     7
420
 16777215
176
     0
 90
        1
176
     0
 90
        4
176
     0
 62
     7
176
     0
 62
   257
176
     0
 90
        1
176
     0
 90
        1
176
     0
 40
1.0
176
     0
 90
        8
176
     2
 62
     7
176
     0
 40
1.0
176
     0
 90
        1
176
     0
 90
        6
176
     0
 90
        2
176
     0
 62
     7
176
     0
 90
        5
176
     0
 90
        0
176
     0
 90
        0
176
     0
290
     0
176
     0
 90
        1
176
     0
 40
0.0
176
     0
 90
        0
176
     0
290
     0
176
     0
290
     1
176
     0
290
     1
176
     0
290
     0
176
     0
290
     0
176
     0
290
     0
176
     0
290
     0
176
     0
290
     0
176
     0
290
     0
176
     0
 90
       50
176
     0
 40
0.0
176
     0
 40
1.0
176
     0
 90
        0
176
     0
 62
    18
420
        0
176
     0
 90
       50
176
     0
 90
        3
176
     0
 62
     5
420
      255
176
     0
290
     0
176
     0
 90
       50
176
     0
 90
       50
176
     0
 90
       50
176
     0
290
     0
176
     0
 90
       50
176
     0
 62
   256
176
     0
 40
1.0
176
     0
 90
        2
176
     0
  1
strokes_ogs.tif
176
     0
290
     0
176
     0
 40
1.0
176
     0
 40
1.0
176
     0
  0
VISUALSTYLE
  5
38
102
{ACAD_REACTORS
330
29
102
}
330
29
100
AcDbVisualStyle
  2
Facepattern
 70
    15
177
     3
291
     1
 70
    58
 90
        2
176
     1
 90
        2
176
     1
 90
        0
176
     1
 90
        0
176
     1
 40
0.6
176
     1
 40
30.0
176
     1
 62
     7
420
 16777215
176
     1
 90
        1
176
     1
 90
        4
176
     1
 62
     7
176
     1
 62
   257
176
     1
 90
        1
176
     1
 90
        1
176
     1
 40
1.0
176
     1
 90
        8
176
     1
 62
     7
176
     1
 40
1.0
176
     1
 90
        1
176
     1
 90
        6
176
     1
 90
        2
176
     1
 62
     7
176
     1
 90
        5
176
     1
 90
        0
176
     1
 90
        0
176
     1
290
     0
176
     1
 90
        1
176
     1
 40
0.0
176
     1
 90
        0
176
     1
290
     0
176
     1
290
     1
176
     1
290
     1
176
     1
290
     0
176
     1
290
     0
176
     1
290
     0
176
     1
290
     0
176
     1
290
     0
176
     1
290
     0
176
     1
 90
       50
176
     1
 40
0.0
176
     1
 40
1.0
176
     1
 90
        0
176
     1
 62
    18
420
        0
176
     1
 90
       50
176
     1
 90
        3
176
     1
 62
     5
420
      255
176
     1
290
     0
176
     1
 90
       50
176
     1
 90
       50
176
     1
 90
       50
176
     1
290
     0
176
     1
 90
       50
176
     1
 62
   256
176
     0
 40
1.0
176
     0
 90
        2
176
     1
  1
strokes_ogs.tif
176
     1
290
     0
176
     1
 40
1.0
176
     1
 40
1.0
176
     1
  0
VISUALSTYLE
  5
2A
102
{ACAD_REACTORS
330
29
102
}
330
29
100
AcDbVisualStyle
  2
Flat
 70
     0
177
     3
291
     1
 70
    58
 90
        2
176
     1
 90
        1
176
     1
 90
        1
176
     1
 90
        2
176
     1
 40
0.6
176
     1
 40
30.0
176
     1
 62
     7
420
 16777215
176
     1
 90
        0
176
     1
 90
        0
176
     1
 62
     7
176
     1
 62
   257
176
     1
 90
        1
176
     1
 90
        1
176
     1
 40
1.0
176
     1
 90
        8
176
     1
 62
     7
176
     1
 40
1.0
176
     1
 90
        1
176
     1
 90
        6
176
     1
 90
        2
176
     1
 62
     7
176
     1
 90
        5
176
     1
 90
        0
176
     1
 90
        0
176
     1
290
     0
176
     1
 90
       13
176
     1
 40
0.0
176
     1
 90
        0
176
     1
290
     0
176
     1
290
     1
176
     1
290
     1
176
     1
290
     0
176
     1
290
     0
176
     1
290
     0
176
     1
290
     0
176
     1
290
     0
176
     1
290
     0
176
     1
 90
       50
176
     1
 40
0.0
176
     1
 40
1.0
176
     1
 90
        0
176
     1
 62
    18
420
        0
176
     1
 90
       50
176
     1
 90
        3
176
     1
 62
     5
420
      255
176
     1
290
     0
176
     1
 90
       50
176
     1
 90
       50
176
     1
 90
       50
176
     1
290
     0
176
     1
 90
       50
176
     1
 62
   256
176
     0
 40
1.0
176
     0
 90
        2
176
     1
  1
strokes_ogs.tif
176
     1
290
     0
176
     1
 40
1.0
176
     1
 40
1.0
176
     1
  0
VISUALSTYLE
  5
2B
102
{ACAD_REACTORS
330
29
102
}
330
29
100
AcDbVisualStyle
  2
FlatWithEdges
 70
     1
177
     3
291
     1
 70
    58
 90
        2
176
     1
 90
        1
176
     1
 90
        1
176
     1
 90
        2
176
     1
 40
0.6
176
     1
 40
30.0
176
     1
 62
     7
420
 16777215
176
     1
 90
        1
176
     1
 90
        0
176
     1
 62
     7
176
     1
 62
   257
176
     1
 90
        1
176
     1
 90
        1
176
     1
 40
1.0
176
     1
 90
        0
176
     1
 62
   257
176
     1
 40
1.0
176
     1
 90
        1
176
     1
 90
        6
176
     1
 90
        2
176
     1
 62
     7
176
     1
 90
        5
176
     1
 90
        0
176
     1
 90
        0
176
     1
290
     0
176
     1
 90
       13
176
     1
 40
0.0
176
     1
 90
        0
176
     1
290
     0
176
     1
290
     1
176
     1
290
     1
176
     1
290
     0
176
     1
290
     0
176
     1
290
     0
176
     1
290
     0
176
     1
290
     0
176
     1
290
     0
176
     1
 90
       50
176
     1
 40
0.0
176
     1
 40
1.0
176
     1
 90
        0
176
     1
 62
    18
420
        0
176
     1
 90
       50
176
     1
 90
        3
176
     1
 62
     5
420
      255
176
     1
290
     0
176
     1
 90
       50
176
     1
 90
       50
176
     1
 90
       50
176
     1
290
     0
176
     1
 90
       50
176
     1
 62
   256
176
     0
 40
1.0
176
     0
 90
        2
176
     1
  1
strokes_ogs.tif
176
     1
290
     0
176
     1
 40
1.0
176
     1
 40
1.0
176
     1
  0
VISUALSTYLE
  5
2C
102
{ACAD_REACTORS
330
29
102
}
330
29
100
AcDbVisualStyle
  2
Gouraud
 70
     2
177
     3
291
     1
 70
    58
 90
        2
176
     1
 90
        2
176
     1
 90
        1
176
     1
 90
        2
176
     1
 40
0.6
176
     1
 40
30.0
176
     1
 62
     7
420
 16777215
176
     1
 90
        0
176
     1
 90
        0
176
     1
 62
     7
176
     1
 62
   257
176
     1
 90
        1
176
     1
 90
        1
176
     1
 40
1.0
176
     1
 90
        0
176
     1
 62
     7
176
     1
 40
1.0
176
     1
 90
        1
176
     1
 90
        6
176
     1
 90
        2
176
     1
 62
     7
176
     1
 90
        5
176
     1
 90
        0
176
     1
 90
        0
176
     1
290
     0
176
     1
 90
       13
176
     1
 40
0.0
176
     1
 90
        0
176
     1
290
     0
176
     1
290
     1
176
     1
290
     1
176
     1
290
     0
176
     1
290
     0
176
     1
290
     0
176
     1
290
     0
176
     1
290
     0
176
     1
290
     0
176
     1
 90
       50
176
     1
 40
0.0
176
     1
 40
1.0
176
     1
 90
        0
176
     1
 62
    18
420
        0
176
     1
 90
       50
176
     1
 90
        3
176
     1
 62
     5
420
      255
176
     1
290
     0
176
     1
 90
       50
176
     1
 90
       50
176
     1
 90
       50
176
     1
290
     0
176
     1
 90
       50
176
     1
 62
   256
176
     0
 40
1.0
176
     0
 90
        2
176
     1
  1
strokes_ogs.tif
176
     1
290
     0
176
     1
 40
1.0
176
     1
 40
1.0
176
     1
  0
VISUALSTYLE
  5
2D
102
{ACAD_REACTORS
330
29
102
}
330
29
100
AcDbVisualStyle
  2
GouraudWithEdges
 70
     3
177
     3
291
     1
 70
    58
 90
        2
176
     1
 90
        2
176
     1
 90
        1
176
     1
 90
        2
176
     1
 40
0.6
176
     1
 40
30.0
176
     1
 62
     7
420
 16777215
176
     1
 90
        1
176
     1
 90
        0
176
     1
 62
     7
176
     1
 62
   257
176
     1
 90
        1
176
     1
 90
        1
176
     1
 40
1.0
176
     1
 90
        0
176
     1
 62
   257
176
     1
 40
1.0
176
     1
 90
        1
176
     1
 90
        6
176
     1
 90
        2
176
     1
 62
     7
176
     1
 90
        5
176
     1
 90
        0
176
     1
 90
        0
176
     1
290
     0
176
     1
 90
       13
176
     1
 40
0.0
176
     1
 90
        0
176
     1
290
     0
176
     1
290
     1
176
     1
290
     1
176
     1
290
     0
176
     1
290
     0
176
     1
290
     0
176
     1
290
     0
176
     1
290
     0
176
     1
290
     0
176
     1
 90
       50
176
     1
 40
0.0
176
     1
 40
1.0
176
     1
 90
        0
176
     1
 62
    18
420
        0
176
     1
 90
       50
176
     1
 90
        3
176
     1
 62
     5
420
      255
176
     1
290
     0
176
     1
 90
       50
176
     1
 90
       50
176
     1
 90
       50
176
     1
290
     0
176
     1
 90
       50
176
     1
 62
   256
176
     0
 40
1.0
176
     0
 90
        2
176
     1
  1
strokes_ogs.tif
176
     1
290
     0
176
     1
 40
1.0
176
     1
 40
1.0
176
     1
  0
VISUALSTYLE
  5
31
102
{ACAD_REACTORS
330
29
102
}
330
29
100
AcDbVisualStyle
  2
Hidden
 70
     6
177
     3
291
     0
 70
    58
 90
        1
176
     1
 90
        2
176
     1
 90
        2
176
     1
 90
        0
176
     1
 40
0.6
176
     1
 40
30.0
176
     1
 62
     7
420
 16777215
176
     1
 90
        2
176
     1
 90
        2
176
     1
 62
     7
176
     1
 62
   257
176
     1
 90
        2
176
     1
 90
        1
176
     1
 40
40.0
176
     1
 90
        0
176
     1
 62
   257
176
     1
 40
1.0
176
     1
 90
        1
176
     1
 90
        6
176
     1
 90
        2
176
     1
 62
     7
176
     1
 90
        3
176
     1
 90
        0
176
     1
 90
        0
176
     1
290
     0
176
     1
 90
        1
176
     1
 40
0.0
176
     1
 90
        0
176
     1
290
     0
176
     1
290
     1
176
     1
290
     1
176
     1
290
     0
176
     1
290
     0
176
     1
290
     0
176
     1
290
     0
176
     1
290
     0
176
     1
290
     0
176
     1
 90
       50
176
     1
 40
0.0
176
     1
 40
1.0
176
     1
 90
        0
176
     1
 62
    18
420
        0
176
     1
 90
       50
176
     1
 90
        3
176
     1
 62
     5
420
      255
176
     1
290
     0
176
     1
 90
       50
176
     1
 90
       50
176
     1
 90
       50
176
     1
290
     0
176
     1
 90
       50
176
     1
 62
   256
176
     0
 40
1.0
176
     0
 90
        2
176
     1
  1
strokes_ogs.tif
176
     1
290
     0
176
     1
 40
1.0
176
     1
 40
1.0
176
     1
  0
VISUALSTYLE
  5
3F
102
{ACAD_REACTORS
330
29
102
}
330
29
100
AcDbVisualStyle
  2
JitterOff
 70
    20
177
     3
291
     1
 70
    58
 90
        2
176
     0
 90
        2
176
     0
 90
        0
176
     0
 90
        0
176
     0
 40
0.6
176
     0
 40
30.0
176
     0
 62
     7
420
 16777215
176
     0
 90
        1
176
     0
 90
        4
176
     0
 62
     7
176
     0
 62
   257
176
     0
 90
        1
176
     0
 90
        1
176
     0
 40
1.0
176
     0
 90
       10
176
     2
 62
     7
176
     0
 40
1.0
176
     0
 90
        1
176
     0
 90
        6
176
     0
 90
        2
176
     0
 62
     7
176
     0
 90
        5
176
     0
 90
        0
176
     0
 90
        0
176
     0
290
     0
176
     0
 90
        1
176
     0
 40
0.0
176
     0
 90
        0
176
     0
290
     0
176
     0
290
     1
176
     0
290
     1
176
     0
290
     0
176
     0
290
     0
176
     0
290
     0
176
     0
290
     0
176
     0
290
     0
176
     0
290
     0
176
     0
 90
       50
176
     0
 40
0.0
176
     0
 40
1.0
176
     0
 90
        0
176
     0
 62
    18
420
        0
176
     0
 90
       50
176
     0
 90
        3
176
     0
 62
     5
420
      255
176
     0
290
     0
176
     0
 90
       50
176
     0
 90
       50
176
     0
 90
       50
176
     0
290
     0
176
     0
 90
       50
176
     0
 62
   256
176
     0
 40
1.0
176
     0
 90
        2
176
     0
  1
strokes_ogs.tif
176
     0
290
     0
176
     0
 40
1.0
176
     0
 40
1.0
176
     0
  0
VISUALSTYLE
  5
37
102
{ACAD_REACTORS
330
29
102
}
330
29
100
AcDbVisualStyle
  2
Linepattern
 70
    14
177
     3
291
     1
 70
    58
 90
        2
176
     1
 90
        2
176
     1
 90
        0
176
     1
 90
        0
176
     1
 40
0.6
176
     1
 40
30.0
176
     1
 62
     7
420
 16777215
176
     1
 90
        1
176
     1
 90
        4
176
     1
 62
     7
176
     1
 62
   257
176
     1
 90
        7
176
     1
 90
        7
176
     1
 40
1.0
176
     1
 90
        8
176
     1
 62
     7
176
     1
 40
1.0
176
     1
 90
        1
176
     1
 90
        6
176
     1
 90
        2
176
     1
 62
     7
176
     1
 90
        5
176
     1
 90
        0
176
     1
 90
        0
176
     1
290
     0
176
     1
 90
        1
176
     1
 40
0.0
176
     1
 90
        0
176
     1
290
     0
176
     1
290
     1
176
     1
290
     1
176
     1
290
     0
176
     1
290
     0
176
     1
290
     0
176
     1
290
     0
176
     1
290
     0
176
     1
290
     0
176
     1
 90
       50
176
     1
 40
0.0
176
     1
 40
1.0
176
     1
 90
        0
176
     1
 62
    18
420
        0
176
     1
 90
       50
176
     1
 90
        3
176
     1
 62
     5
420
      255
176
     1
290
     0
176
     1
 90
       50
176
     1
 90
       50
176
     1
 90
       50
176
     1
290
     0
176
     1
 90
       50
176
     1
 62
   256
176
     0
 40
1.0
176
     0
 90
        2
176
     1
  1
strokes_ogs.tif
176
     1
290
     0
176
     1
 40
1.0
176
     1
 40
1.0
176
     1
  0
VISUALSTYLE
  5
40
102
{ACAD_REACTORS
330
29
102
}
330
29
100
AcDbVisualStyle
  2
OverhangOff
 70
    21
177
     3
291
     1
 70
    58
 90
        2
176
     0
 90
        2
176
     0
 90
        0
176
     0
 90
        0
176
     0
 40
0.6
176
     0
 40
30.0
176
     0
 62
     7
420
 16777215
176
     0
 90
        1
176
     0
 90
        4
176
     0
 62
     7
176
     0
 62
   257
176
     0
 90
        1
176
     0
 90
        1
176
     0
 40
1.0
176
     0
 90
        9
176
     2
 62
     7
176
     0
 40
1.0
176
     0
 90
        1
176
     0
 90
        6
176
     0
 90
        2
176
     0
 62
     7
176
     0
 90
        5
176
     0
 90
        0
176
     0
 90
        0
176
     0
290
     0
176
     0
 90
        1
176
     0
 40
0.0
176
     0
 90
        0
176
     0
290
     0
176
     0
290
     1
176
     0
290
     1
176
     0
290
     0
176
     0
290
     0
176
     0
290
     0
176
     0
290
     0
176
     0
290
     0
176
     0
290
     0
176
     0
 90
       50
176
     0
 40
0.0
176
     0
 40
1.0
176
     0
 90
        0
176
     0
 62
    18
420
        0
176
     0
 90
       50
176
     0
 90
        3
176
     0
 62
     5
420
      255
176
     0
290
     0
176
     0
 90
       50
176
     0
 90
       50
176
     0
 90
       50
176
     0
290
     0
176
     0
 90
       50
176
     0
 62
   256
176
     0
 40
1.0
176
     0
 90
        2
176
     0
  1
strokes_ogs.tif
176
     0
290
     0
176
     0
 40
1.0
176
     0
 40
1.0
176
     0
  0
VISUALSTYLE
  5
33
102
{ACAD_REACTORS
330
29
102
}
330
29
100
AcDbVisualStyle
  2
Realistic
 70
     8
177
     3
291
     0
 70
    58
 90
        2
176
     1
 90
        3
176
     1
 90
        0
176
     1
 90
        2
176
     1
 40
0.6
176
     1
 40
30.0
176
     1
 62
     7
420
 16777215
176
     1
 90
        0
176
     1
 90
        0
176
     1
 62
     7
176
     1
 62
   257
176
     1
 90
        1
176
     1
 90
        1
176
     1
 40
1.0
176
     1
 90
        8
176
     1
 62
   257
176
     1
 40
1.0
176
     1
 90
        1
176
     1
 90
        6
176
     1
 90
        2
176
     1
 62
     7
176
     1
 90
        3
176
     1
 90
        0
176
     1
 90
        0
176
     1
290
     0
176
     1
 90
       13
176
     1
 40
0.0
176
     1
 90
        0
176
     1
290
     0
176
     1
290
     1
176
     1
290
     1
176
     1
290
     0
176
     1
290
     0
176
     1
290
     0
176
     1
290
     0
176
     1
290
     0
176
     1
290
     0
176
     1
 90
       50
176
     1
 40
0.0
176
     1
 40
1.0
176
     1
 90
        0
176
     1
 62
    18
420
        0
176
     1
 90
       50
176
     1
 90
        3
176
     1
 62
     5
420
      255
176
     1
290
     0
176
     1
 90
       50
176
     1
 90
       50
176
     1
 90
       50
176
     1
290
     0
176
     1
 90
       50
176
     1
 62
   256
176
     0
 40
1.0
176
     0
 90
        2
176
     1
  1
strokes_ogs.tif
176
     1
290
     0
176
     1
 40
1.0
176
     1
 40
1.0
176
     1
  0
VISUALSTYLE
  5
3E
102
{ACAD_REACTORS
330
29
102
}
330
29
100
AcDbVisualStyle
  2
Shaded
 70
    27
177
     3
291
     0
 70
    58
 90
        2
176
     1
 90
        2
176
     1
 90
        1
176
     1
 90
        2
176
     1
 40
0.6
176
     1
 40
30.0
176
     1
 62
     7
420
 16777215
176
     1
 90
        0
176
     1
 90
        4
176
     1
 62
     7
176
     1
 62
   257
176
     1
 90
        1
176
     1
 90
        1
176
     1
 40
1.0
176
     1
 90
        8
176
     1
 62
   257
176
     1
 40
1.0
176
     1
 90
        1
176
     1
 90
        6
176
     1
 90
        2
176
     1
 62
     8
420
  7895160
176
     1
 90
        3
176
     1
 90
        0
176
     1
 90
        0
176
     1
290
     0
176
     1
 90
        5
176
     1
 40
0.0
176
     1
 90
        0
176
     1
290
     0
176
     1
290
     1
176
     1
290
     1
176
     1
290
     0
176
     1
290
     0
176
     1
290
     0
176
     1
290
     0
176
     1
290
     0
176
     1
290
     0
176
     1
 90
       50
176
     1
 40
0.0
176
     1
 40
1.0
176
     1
 90
        0
176
     1
 62
    18
420
        0
176
     1
 90
       50
176
     1
 90
        3
176
     1
 62
     5
420
      255
176
     1
290
     0
176
     1
 90
       50
176
     1
 90
       50
176
     1
 90
       50
176
     1
290
     0
176
     1
 90
       50
176
     1
 62
   256
176
     0
 40
1.0
176
     0
 90
        2
176
     1
  1
strokes_ogs.tif
176
     1
290
     0
176
     1
 40
1.0
176
     1
 40
1.0
176
     1
  0
VISUALSTYLE
  5
3D
102
{ACAD_REACTORS
330
29
102
}
330
29
100
AcDbVisualStyle
  2
Shaded with edges
 70
    26
177
     3
291
     0
 70
    58
 90
        2
176
     1
 90
        2
176
     1
 90
        1
176
     1
 90
        2
176
     1
 40
0.6
176
     1
 40
30.0
176
     1
 62
     7
420
 16777215
176
     1
 90
        1
176
     1
 90
        2
176
     1
 62
     7
176
     1
 62
   257
176
     1
 90
        2
176
     1
 90
        1
176
     1
 40
1.0
176
     1
 90
        8
176
     1
 62
   257
176
     1
 40
1.0
176
     1
 90
        1
176
     1
 90
        6
176
     1
 90
        2
176
     1
 62
     7
176
     1
 90
        3
176
     1
 90
        0
176
     1
 90
        0
176
     1
290
     0
176
     1
 90
        5
176
     1
 40
0.0
176
     1
 90
        0
176
     1
290
     0
176
     1
290
     1
176
     1
290
     1
176
     1
290
     0
176
     1
290
     0
176
     1
290
     0
176
     1
290
     0
176
     1
290
     0
176
     1
290
     0
176
     1
 90
       50
176
     1
 40
0.0
176
     1
 40
1.0
176
     1
 90
        0
176
     1
 62
    18
420
        0
176
     1
 90
       50
176
     1
 90
        3
176
     1
 62
     5
420
      255
176
     1
290
     0
176
     1
 90
       50
176
     1
 90
       50
176
     1
 90
       50
176
     1
290
     0
176
     1
 90
       50
176
     1
 62
   256
176
     0
 40
1.0
176
     0
 90
        2
176
     1
  1
strokes_ogs.tif
176
     1
290
     0
176
     1
 40
1.0
176
     1
 40
1.0
176
     1
  0
VISUALSTYLE
  5
3A
102
{ACAD_REACTORS
330
29
102
}
330
29
100
AcDbVisualStyle
  2
Shades of Gray
 70
    23
177
     3
291
     0
 70
    58
 90
        2
176
     1
 90
        2
176
     1
 90
        3
176
     1
 90
        0
176
     1
 40
0.6
176
     1
 40
30.0
176
     1
 62
     7
420
 16777215
176
     1
 90
        2
176
     1
 90
        2
176
     1
 62
     7
176
     1
 62
     7
176
     1
 90
        1
176
     1
 90
        1
176
     1
 40
40.0
176
     1
 90
        8
176
     1
 62
     7
176
     1
 40
1.0
176
     1
 90
        1
176
     1
 90
        6
176
     1
 90
        2
176
     1
 62
     7
176
     1
 90
        3
176
     1
 90
        0
176
     1
 90
        0
176
     1
290
     0
176
     1
 90
        1
176
     1
 40
0.0
176
     1
 90
        0
176
     1
290
     0
176
     1
290
     1
176
     1
290
     1
176
     1
290
     0
176
     1
290
     0
176
     1
290
     0
176
     1
290
     0
176
     1
290
     0
176
     1
290
     0
176
     1
 90
       50
176
     1
 40
0.0
176
     1
 40
1.0
176
     1
 90
        0
176
     1
 62
    18
420
        0
176
     1
 90
       50
176
     1
 90
        3
176
     1
 62
     5
420
      255
176
     1
290
     0
176
     1
 90
       50
176
     1
 90
       50
176
     1
 90
       50
176
     1
290
     0
176
     1
 90
       50
176
     1
 62
   256
176
     0
 40
1.0
176
     0
 90
        2
176
     1
  1
strokes_ogs.tif
176
     1
290
     0
176
     1
 40
1.0
176
     1
 40
1.0
176
     1
  0
VISUALSTYLE
  5
3B
102
{ACAD_REACTORS
330
29
102
}
330
29
100
AcDbVisualStyle
  2
Sketchy
 70
    24
177
     3
291
     0
 70
    58
 90
        1
176
     1
 90
        2
176
     1
 90
        2
176
     1
 90
        0
176
     1
 40
0.6
176
     1
 40
30.0
176
     1
 62
     7
420
 16777215
176
     1
 90
        2
176
     1
 90
        2
176
     1
 62
     7
176
     1
 62
     7
176
     1
 90
        1
176
     1
 90
        1
176
     1
 40
40.0
176
     1
 90
       11
176
     1
 62
     7
176
     1
 40
1.0
176
     1
 90
        1
176
     1
 90
        6
176
     1
 90
        2
176
     1
 62
     7
176
     1
 90
        6
176
     1
 90
        0
176
     1
 90
        0
176
     1
290
     0
176
     1
 90
        1
176
     1
 40
0.0
176
     1
 90
        0
176
     1
290
     0
176
     1
290
     1
176
     1
290
     1
176
     1
290
     0
176
     1
290
     0
176
     1
290
     0
176
     1
290
     0
176
     1
290
     0
176
     1
290
     0
176
     1
 90
       50
176
     1
 40
0.0
176
     1
 40
1.0
176
     1
 90
        0
176
     1
 62
    18
420
        0
176
     1
 90
       50
176
     1
 90
        3
176
     1
 62
     5
420
      255
176
     1
290
     0
176
     1
 90
       50
176
     1
 90
       50
176
     1
 90
       50
176
     1
290
     0
176
     1
 90
       50
176
     1
 62
   256
176
     0
 40
1.0
176
     0
 90
        2
176
     1
  1
strokes_ogs.tif
176
     1
290
     0
176
     1
 40
1.0
176
     1
 40
1.0
176
     1
  0
VISUALSTYLE
  5
36
102
{ACAD_REACTORS
330
29
102
}
330
29
100
AcDbVisualStyle
  2
Thicken
 70
    13
177
     3
291
     1
 70
    58
 90
        2
176
     1
 90
        2
176
     1
 90
        0
176
     1
 90
        0
176
     1
 40
0.6
176
     1
 40
30.0
176
     1
 62
     7
420
 16777215
176
     1
 90
        1
176
     1
 90
        4
176
     1
 62
     7
176
     1
 62
   257
176
     1
 90
        1
176
     1
 90
        1
176
     1
 40
1.0
176
     1
 90
       12
176
     1
 62
     7
176
     1
 40
1.0
176
     1
 90
        1
176
     1
 90
        6
176
     1
 90
        2
176
     1
 62
     7
176
     1
 90
        5
176
     1
 90
        0
176
     1
 90
        0
176
     1
290
     0
176
     1
 90
        1
176
     1
 40
0.0
176
     1
 90
        0
176
     1
290
     0
176
     1
290
     1
176
     1
290
     1
176
     1
290
     0
176
     1
290
     0
176
     1
290
     0
176
     1
290
     0
176
     1
290
     0
176
     1
290
     0
176
     1
 90
       50
176
     1
 40
0.0
176
     1
 40
1.0
176
     1
 90
        0
176
     1
 62
    18
420
        0
176
     1
 90
       50
176
     1
 90
        3
176
     1
 62
     5
420
      255
176
     1
290
     0
176
     1
 90
       50
176
     1
 90
       50
176
     1
 90
       50
176
     1
290
     0
176
     1
 90
       50
176
     1
 62
   256
176
     0
 40
1.0
176
     0
 90
        2
176
     1
  1
strokes_ogs.tif
176
     1
290
     0
176
     1
 40
1.0
176
     1
 40
1.0
176
     1
  0
VISUALSTYLE
  5
30
102
{ACAD_REACTORS
330
29
102
}
330
29
100
AcDbVisualStyle
  2
Wireframe
 70
     5
177
     3
291
     0
 70
    58
 90
        0
176
     1
 90
        2
176
     1
 90
        0
176
     1
 90
        0
176
     1
 40
0.6
176
     1
 40
30.0
176
     1
 62
     7
420
 16777215
176
     1
 90
        1
176
     1
 90
        4
176
     1
 62
     7
176
     1
 62
   257
176
     1
 90
        1
176
     1
 90
        1
176
     1
 40
1.0
176
     1
 90
        0
176
     1
 62
   257
176
     1
 40
1.0
176
     1
 90
        1
176
     1
 90
        6
176
     1
 90
        2
176
     1
 62
     7
176
     1
 90
        3
176
     1
 90
        0
176
     1
 90
        0
176
     1
290
     0
176
     1
 90
        1
176
     1
 40
0.0
176
     1
 90
        0
176
     1
290
     0
176
     1
290
     1
176
     1
290
     1
176
     1
290
     0
176
     1
290
     0
176
     1
290
     0
176
     1
290
     0
176
     1
290
     0
176
     1
290
     0
176
     1
 90
       50
176
     1
 40
0.0
176
     1
 40
1.0
176
     1
 90
        0
176
     1
 62
    18
420
        0
176
     1
 90
       50
176
     1
 90
        3
176
     1
 62
     5
420
      255
176
     1
290
     0
176
     1
 90
       50
176
     1
 90
       50
176
     1
 90
       50
176
     1
290
     0
176
     1
 90
       50
176
     1
 62
   256
176
     0
 40
1.0
176
     0
 90
        2
176
     1
  1
strokes_ogs.tif
176
     1
290
     0
176
     1
 40
1.0
176
     1
 40
1.0
176
     1
  0
VISUALSTYLE
  5
3C
102
{ACAD_REACTORS
330
29
102
}
330
29
100
AcDbVisualStyle
  2
X-Ray
 70
    25
177
     3
291
     0
 70
    58
 90
        2
176
     1
 90
        2
176
     1
 90
        1
176
     1
 90
        1
176
     1
 40
0.5
176
     1
 40
30.0
176
     1
 62
     7
420
 16777215
176
     1
 90
        1
176
     1
 90
        0
176
     1
 62
     7
176
     1
 62
   257
176
     1
 90
        1
176
     1
 90
        1
176
     1
 40
1.0
176
     1
 90
        8
176
     1
 62
     7
176
     1
 40
1.0
176
     1
 90
        1
176
     1
 90
        6
176
     1
 90
        2
176
     1
 62
     7
176
     1
 90
        3
176
     1
 90
        0
176
     1
 90
        0
176
     1
290
     0
176
     1
 90
       13
176
     1
 40
0.0
176
     1
 90
        0
176
     1
290
     0
176
     1
290
     1
176
     1
290
     1
176
     1
290
     0
176
     1
290
     0
176
     1
290
     0
176
     1
290
     0
176
     1
290
     0
176
     1
290
     0
176
     1
 90
       50
176
     1
 40
0.0
176
     1
 40
1.0
176
     1
 90
        0
176
     1
 62
    18
420
        0
176
     1
 90
       50
176
     1
 90
        3
176
     1
 62
     5
420
      255
176
     1
290
     0
176
     1
 90
       50
176
     1
 90
       50
176
     1
 90
       50
176
     1
290
     0
176
     1
 90
       50
176
     1
 62
   256
176
     0
 40
1.0
176
     0
 90
        2
176
     1
  1
strokes_ogs.tif
176
     1
290
     0
176
     1
 40
1.0
176
     1
 40
1.0
176
     1
  0
DICTIONARYVAR
  5
A9
102
{ACAD_REACTORS
330
A4
102
}
330
A4
100
DictionaryVariables
280
     0
  1
1:1
  0
DICTIONARYVAR
  5
A6
102
{ACAD_REACTORS
330
A4
102
}
330
A4
100
DictionaryVariables
280
     0
  1
STANDARD
  0
DICTIONARYVAR
  5
A5
102
{ACAD_REACTORS
330
A4
102
}
330
A4
100
DictionaryVariables
280
     0
  1
STANDARD
  0
DICTIONARYVAR
  5
A7
102
{ACAD_REACTORS
330
A4
102
}
330
A4
100
DictionaryVariables
280
     0
  1
Imperial24
  0
DICTIONARYVAR
  5
A8
102
{ACAD_REACTORS
330
A4
102
}
330
A4
100
DictionaryVariables
280
     0
  1
Imperial24
  0
DICTIONARY
  5
1A
330
19
100
AcDbDictionary
280
     1
281
     1
  3
BUMPTILE
360
1C
  3
DIFFUSETILE
360
1B
  3
OPACITYTILE
360
1F
  3
REFLECTIONTILE
360
1E
  3
REFRACTIONTILE
360
20
  3
SPECULARTILE
360
1D
  0
DICTIONARY
  5
12
330
11
100
AcDbDictionary
280
     1
281
     1
  3
BUMPTILE
360
14
  3
DIFFUSETILE
360
13
  3
OPACITYTILE
360
17
  3
REFLECTIONTILE
360
16
  3
REFRACTIONTILE
360
18
  3
SPECULARTILE
360
15
  0
DICTIONARY
  5
22
330
21
100
AcDbDictionary
280
     1
281
     1
  3
BUMPTILE
360
24
  3
DIFFUSETILE
360
23
  3
OPACITYTILE
360
27
  3
REFLECTIONTILE
360
26
  3
REFRACTIONTILE
360
28
  3
SPECULARTILE
360
25
  0
DICTIONARY
  5
AA
330
65
100
AcDbDictionary
280
     1
281
     1
  3
ACAD_ROUNDTRIP_2008_TABLESTYLE_CELLSTYLEMAP
360
AB
  0
XRECORD
  5
1C
102
{ACAD_REACTORS
330
1A
102
}
330
1A
100
AcDbXrecord
280
     1
270
     1
271
     1
  0
XRECORD
  5
1B
102
{ACAD_REACTORS
330
1A
102
}
330
1A
100
AcDbXrecord
280
     1
270
     1
271
     1
  0
XRECORD
  5
1F
102
{ACAD_REACTORS
330
1A
102
}
330
1A
100
AcDbXrecord
280
     1
270
     1
271
     1
  0
XRECORD
  5
1E
102
{ACAD_REACTORS
330
1A
102
}
330
1A
100
AcDbXrecord
280
     1
270
     1
271
     1
  0
XRECORD
  5
20
102
{ACAD_REACTORS
330
1A
102
}
330
1A
100
AcDbXrecord
280
     1
270
     1
271
     1
  0
XRECORD
  5
1D
102
{ACAD_REACTORS
330
1A
102
}
330
1A
100
AcDbXrecord
280
     1
270
     1
271
     1
  0
XRECORD
  5
14
102
{ACAD_REACTORS
330
12
102
}
330
12
100
AcDbXrecord
280
     1
270
     1
271
     1
  0
XRECORD
  5
13
102
{ACAD_REACTORS
330
12
102
}
330
12
100
AcDbXrecord
280
     1
270
     1
271
     1
  0
XRECORD
  5
17
102
{ACAD_REACTORS
330
12
102
}
330
12
100
AcDbXrecord
280
     1
270
     1
271
     1
  0
XRECORD
  5
16
102
{ACAD_REACTORS
330
12
102
}
330
12
100
AcDbXrecord
280
     1
270
     1
271
     1
  0
XRECORD
  5
18
102
{ACAD_REACTORS
330
12
102
}
330
12
100
AcDbXrecord
280
     1
270
     1
271
     1
  0
XRECORD
  5
15
102
{ACAD_REACTORS
330
12
102
}
330
12
100
AcDbXrecord
280
     1
270
     1
271
     1
  0
XRECORD
  5
24
102
{ACAD_REACTORS
330
22
102
}
330
22
100
AcDbXrecord
280
     1
270
     1
271
     1
  0
XRECORD
  5
23
102
{ACAD_REACTORS
330
22
102
}
330
22
100
AcDbXrecord
280
     1
270
     1
271
     1
  0
XRECORD
  5
27
102
{ACAD_REACTORS
330
22
102
}
330
22
100
AcDbXrecord
280
     1
270
     1
271
     1
  0
XRECORD
  5
26
102
{ACAD_REACTORS
330
22
102
}
330
22
100
AcDbXrecord
280
     1
270
     1
271
     1
  0
XRECORD
  5
28
102
{ACAD_REACTORS
330
22
102
}
330
22
100
AcDbXrecord
280
     1
270
     1
271
     1
  0
XRECORD
  5
25
102
{ACAD_REACTORS
330
22
102
}
330
22
100
AcDbXrecord
280
     1
270
     1
271
     1
  0
CELLSTYLEMAP
  5
AB
102
{ACAD_REACTORS
330
AA
102
}
330
AA
100
AcDbCellStyleMap
 90
        3
300
CELLSTYLE
  1
TABLEFORMAT_BEGIN
 90
        5
170
     1
 91
        0
 92
    32768
 62
   257
 93
        1
300
CONTENTFORMAT
  1
CONTENTFORMAT_BEGIN
 90
        0
 91
        0
 92
      512
 93
        0
300

 40
0.0
140
1.0
 94
        5
 62
     0
340
55
144
0.25
309
CONTENTFORMAT_END
171
     0
 94
        0
309
TABLEFORMAT_END
  1
CELLSTYLE_BEGIN
 90
        1
 91
        1
300
_TITLE
309
CELLSTYLE_END
300
CELLSTYLE
  1
TABLEFORMAT_BEGIN
 90
        5
170
     1
 91
        0
 92
        0
 62
   257
 93
        1
300
CONTENTFORMAT
  1
CONTENTFORMAT_BEGIN
 90
        0
 91
        0
 92
      512
 93
        0
300

 40
0.0
140
1.0
 94
        5
 62
     0
340
55
144
0.18
309
CONTENTFORMAT_END
171
     0
 94
        0
309
TABLEFORMAT_END
  1
CELLSTYLE_BEGIN
 90
        2
 91
        1
300
_HEADER
309
CELLSTYLE_END
300
CELLSTYLE
  1
TABLEFORMAT_BEGIN
 90
        5
170
     1
 91
        0
 92
        0
 62
   257
 93
        1
300
CONTENTFORMAT
  1
CONTENTFORMAT_BEGIN
 90
        0
 91
        0
 92
      512
 93
        0
300

 40
0.0
140
1.0
 94
        2
 62
     0
340
55
144
0.18
309
CONTENTFORMAT_END
171
     0
 94
        0
309
TABLEFORMAT_END
  1
CELLSTYLE_BEGIN
 90
        3
 91
        2
300
_DATA
309
CELLSTYLE_END
  0
ENDSEC
  0
EOF
