%TF.GenerationSoftware,KiCad,Pcbnew,8.0.2*%
%TF.CreationDate,2024-06-03T19:38:15-04:00*%
%TF.ProjectId,Q9-Chimera-Plate,51392d43-6869-46d6-9572-612d506c6174,rev?*%
%TF.SameCoordinates,Original*%
%TF.FileFunction,Drillmap*%
%TF.FilePolarity,Positive*%
%FSLAX45Y45*%
G04 Gerber Fmt 4.5, Leading zero omitted, Abs format (unit mm)*
G04 Created by KiCad (PCBNEW 8.0.2) date 2024-06-03 19:38:15*
%MOMM*%
%LPD*%
G01*
G04 APERTURE LIST*
%ADD10C,0.250000*%
%ADD11C,0.200000*%
G04 APERTURE END LIST*
D10*
X22069791Y-8433823D02*
X22062553Y-8459750D01*
X22043624Y-8477788D01*
X22019791Y-8483823D01*
X15004766Y-5178824D02*
X16304766Y-5178824D01*
D11*
X-84609Y-4811324D02*
X-584609Y-4811324D01*
D10*
X6779792Y-12293824D02*
X5479792Y-12293824D01*
D11*
X7515391Y-12661324D02*
X11715391Y-12661324D01*
D10*
X21261093Y-6578823D02*
X21261093Y-6728823D01*
D11*
X11665391Y-4811324D02*
X11565391Y-4811324D01*
D10*
X11194792Y-12293824D02*
X14399792Y-12293824D01*
X8093494Y-10693785D02*
X7493494Y-10693785D01*
X-285234Y-10338824D02*
X-285234Y-9038824D01*
X18814779Y-10893824D02*
X18788852Y-10901063D01*
X18770813Y-10919991D01*
X18764779Y-10943824D01*
D11*
X7465391Y-12961324D02*
X7465391Y-12711324D01*
X13115391Y-4811323D02*
X13095018Y-4810285D01*
X13075215Y-4807241D01*
X13046807Y-4799136D01*
X13020262Y-4787092D01*
X12995924Y-4771455D01*
X12974141Y-4752573D01*
X12955258Y-4730790D01*
X12939622Y-4706452D01*
X12927578Y-4679906D01*
X12919473Y-4651498D01*
X12916429Y-4631696D01*
X12915391Y-4611323D01*
D10*
X21911093Y-6778823D02*
X21937020Y-6771585D01*
X21955058Y-6752656D01*
X21961093Y-6728823D01*
X5479792Y-12293824D02*
X5453865Y-12286585D01*
X5435827Y-12267657D01*
X5429792Y-12243824D01*
D11*
X28282699Y-5061205D02*
X28257429Y-5059109D01*
X28233003Y-5054457D01*
X28209528Y-5047391D01*
X28187114Y-5038054D01*
X28165869Y-5026590D01*
X28145901Y-5013142D01*
X28127320Y-4997851D01*
X28110234Y-4980862D01*
X28094751Y-4962317D01*
X28080980Y-4942358D01*
X28069030Y-4921130D01*
X28059009Y-4898774D01*
X28051026Y-4875433D01*
X28045189Y-4851251D01*
X28041608Y-4826370D01*
X28040390Y-4800934D01*
D10*
X2969765Y-5178824D02*
X2995692Y-5186062D01*
X3013730Y-5204991D01*
X3019765Y-5228824D01*
D11*
X12140391Y-4636324D02*
X12141429Y-4656698D01*
X12144473Y-4676500D01*
X12152578Y-4704908D01*
X12164622Y-4731453D01*
X12180258Y-4755791D01*
X12199141Y-4777574D01*
X12220924Y-4796457D01*
X12245262Y-4812093D01*
X12271807Y-4824137D01*
X12300215Y-4832242D01*
X12320018Y-4835286D01*
X12340391Y-4836324D01*
X12490391Y-12636323D02*
X12510765Y-12637360D01*
X12530567Y-12640405D01*
X12558975Y-12648510D01*
X12585520Y-12660554D01*
X12609858Y-12676190D01*
X12631641Y-12695073D01*
X12650524Y-12716856D01*
X12666160Y-12741193D01*
X12678204Y-12767739D01*
X12686309Y-12796147D01*
X12689354Y-12815949D01*
X12690391Y-12836323D01*
D10*
X7384792Y-10893785D02*
X7358865Y-10901023D01*
X7340826Y-10919952D01*
X7334792Y-10943785D01*
X19573493Y-6578824D02*
X19615209Y-6578823D01*
X19646007Y-6578823D01*
X19684221Y-6578823D01*
X19729233Y-6578823D01*
X19780426Y-6578823D01*
X19837181Y-6578823D01*
X19898879Y-6578823D01*
X19964904Y-6578823D01*
X20034637Y-6578823D01*
X20107460Y-6578823D01*
X20182755Y-6578823D01*
X20259905Y-6578823D01*
X20338290Y-6578823D01*
X20417293Y-6578823D01*
X20496296Y-6578823D01*
X20574681Y-6578823D01*
X20651831Y-6578823D01*
X20727126Y-6578823D01*
X20799949Y-6578823D01*
X20869682Y-6578823D01*
X20935707Y-6578823D01*
X20997405Y-6578823D01*
X21054160Y-6578823D01*
X21105352Y-6578823D01*
X21150365Y-6578823D01*
X21188579Y-6578823D01*
X21219377Y-6578823D01*
X21256252Y-6578823D01*
X21261093Y-6578823D01*
X30166017Y-6528823D02*
X30158778Y-6554750D01*
X30139849Y-6572789D01*
X30116017Y-6578823D01*
X-285209Y-7133824D02*
X-276739Y-7107897D01*
X-257041Y-7091063D01*
X-232687Y-7084082D01*
X-226705Y-7083824D01*
X26434767Y-8483824D02*
X26408840Y-8476585D01*
X26390801Y-8457656D01*
X26384767Y-8433824D01*
D11*
X29426659Y-4811324D02*
X28586107Y-4811325D01*
D10*
X16909793Y-10893824D02*
X18209793Y-10893824D01*
X24529766Y-6578823D02*
X24503839Y-6571585D01*
X24485801Y-6552656D01*
X24479766Y-6528823D01*
X9239766Y-5228824D02*
X9247005Y-5202897D01*
X9265933Y-5184858D01*
X9289766Y-5178824D01*
X9589766Y-10743785D02*
X9589766Y-10893785D01*
X3019765Y-6528823D02*
X3012527Y-6554750D01*
X2993598Y-6572789D01*
X2969765Y-6578823D01*
X9289766Y-5178824D02*
X10589766Y-5178824D01*
X10481094Y-10693785D02*
X9639766Y-10693785D01*
X27734767Y-12293824D02*
X26434767Y-12293824D01*
D11*
X12915391Y-4611323D02*
X12915391Y-4611322D01*
D10*
X26384767Y-5228824D02*
X26392005Y-5202897D01*
X26410934Y-5184858D01*
X26434767Y-5178824D01*
X4924766Y-5228824D02*
X4924766Y-6528823D01*
X30116017Y-8960074D02*
X28816017Y-8960074D01*
X-235234Y-8988824D02*
X20114766Y-8988824D01*
X29689765Y-12243824D02*
X29682526Y-12269751D01*
X29663597Y-12287790D01*
X29639765Y-12293824D01*
X24529764Y-10388824D02*
X24503837Y-10381585D01*
X24485799Y-10362656D01*
X24479764Y-10338824D01*
D11*
X29758610Y-4841136D02*
X29747021Y-4859313D01*
X29730511Y-4875436D01*
X29709711Y-4889085D01*
X29690406Y-4897940D01*
X29669081Y-4904728D01*
X29646060Y-4909232D01*
X29621666Y-4911238D01*
X29615391Y-4911324D01*
D10*
X1064766Y-5178824D02*
X1090693Y-5186062D01*
X1108731Y-5204991D01*
X1114766Y-5228824D01*
D11*
X22540391Y-13011324D02*
X28890391Y-13011324D01*
D10*
X22019779Y-10893824D02*
X21961081Y-10893824D01*
X23974766Y-7133823D02*
X23974766Y-8433824D01*
X1114792Y-12243824D02*
X1107553Y-12269751D01*
X1088625Y-12287789D01*
X1064792Y-12293824D01*
X24529766Y-7083823D02*
X25829766Y-7083823D01*
X28816017Y-7560073D02*
X30116017Y-7560073D01*
X11144766Y-6528823D02*
X11144766Y-5228824D01*
X11144792Y-12243824D02*
X11152031Y-12269751D01*
X11170959Y-12287789D01*
X11194792Y-12293824D01*
X25771067Y-10893785D02*
X25771067Y-10743785D01*
X23974764Y-9038824D02*
X23974764Y-10338824D01*
D11*
X454124Y-12661324D02*
X965391Y-12661324D01*
X30465391Y-12661324D02*
X30485545Y-12659292D01*
X30508745Y-12651463D01*
X30529000Y-12638489D01*
X30545525Y-12621156D01*
X30557533Y-12600248D01*
X30564239Y-12576553D01*
X30565391Y-12561324D01*
D10*
X14449792Y-10943824D02*
X14442553Y-10917897D01*
X14423625Y-10899859D01*
X14399792Y-10893824D01*
X11194792Y-10893824D02*
X11168865Y-10901063D01*
X11150827Y-10919991D01*
X11144792Y-10943824D01*
X1619791Y-10943824D02*
X1627030Y-10917897D01*
X1645958Y-10899859D01*
X1669791Y-10893824D01*
D11*
X14797168Y-4841131D02*
X14784355Y-4823826D01*
X14766081Y-4813462D01*
X14751831Y-4811324D01*
D10*
X9589766Y-10893785D02*
X8143494Y-10893785D01*
X25829766Y-8483824D02*
X24529766Y-8483824D01*
D11*
X28990391Y-12661324D02*
X29426659Y-12661324D01*
D10*
X20431691Y-9038824D02*
X20440160Y-9012897D01*
X20459858Y-8996062D01*
X20484212Y-8989082D01*
X20490194Y-8988824D01*
X21961081Y-10743824D02*
X21953842Y-10717897D01*
X21934914Y-10699859D01*
X21911081Y-10693824D01*
D11*
X29965391Y-4861324D02*
X29965391Y-4861324D01*
D10*
X22574766Y-5228824D02*
X22582004Y-5202897D01*
X22600933Y-5184858D01*
X22624766Y-5178824D01*
X8143494Y-10893785D02*
X8143494Y-10743785D01*
X24479766Y-5228824D02*
X24487005Y-5202897D01*
X24505933Y-5184858D01*
X24529766Y-5178824D01*
X2969791Y-12293824D02*
X1669791Y-12293824D01*
X16354792Y-10943824D02*
X16354792Y-12243824D01*
X22624766Y-6578823D02*
X22598839Y-6571585D01*
X22580800Y-6552656D01*
X22574766Y-6528823D01*
X14399792Y-12293824D02*
X14425719Y-12286585D01*
X14443757Y-12267657D01*
X14449792Y-12243824D01*
X29639765Y-12293824D02*
X28339765Y-12293824D01*
X22019791Y-8483823D02*
X1669791Y-8483823D01*
X27784765Y-10338824D02*
X27777526Y-10364750D01*
X27758598Y-10382789D01*
X27734765Y-10388824D01*
X27784767Y-6528823D02*
X27777528Y-6554750D01*
X27758599Y-6572789D01*
X27734767Y-6578823D01*
X19573481Y-10893824D02*
X19573481Y-10743824D01*
X27734767Y-8483824D02*
X26434767Y-8483824D01*
X22019791Y-6578823D02*
X22045718Y-6571585D01*
X22063756Y-6552656D01*
X22069791Y-6528823D01*
X22069791Y-9038824D02*
X22069791Y-10338824D01*
X1669791Y-8483823D02*
X1643864Y-8476584D01*
X1625826Y-8457656D01*
X1619791Y-8433823D01*
D11*
X2365391Y-4961324D02*
X2365391Y-4961324D01*
D10*
X28289765Y-10943825D02*
X28297003Y-10917898D01*
X28315932Y-10899859D01*
X28339765Y-10893825D01*
X28766017Y-7610073D02*
X28773255Y-7584147D01*
X28792184Y-7566108D01*
X28816017Y-7560073D01*
D11*
X27979154Y-4461324D02*
X21676629Y-4461324D01*
D10*
X9639766Y-10693785D02*
X9613839Y-10701023D01*
X9595801Y-10719952D01*
X9589766Y-10743785D01*
X24479766Y-7133823D02*
X24487004Y-7107897D01*
X24505933Y-7089858D01*
X24529766Y-7083823D01*
X18259767Y-5228824D02*
X18259767Y-6528823D01*
X19573493Y-6728823D02*
X19573493Y-6578824D01*
D11*
X11715391Y-12661324D02*
X11735765Y-12662361D01*
X11755567Y-12665406D01*
X11783975Y-12673511D01*
X11810521Y-12685555D01*
X11834858Y-12701191D01*
X11856641Y-12720074D01*
X11875524Y-12741857D01*
X11891160Y-12766194D01*
X11903204Y-12792740D01*
X11911309Y-12821148D01*
X11914354Y-12840950D01*
X11915391Y-12861324D01*
D10*
X13641094Y-10743824D02*
X13641094Y-10893824D01*
D11*
X11515391Y-4761324D02*
X11515391Y-4511324D01*
X21676629Y-4461324D02*
X21655629Y-4465056D01*
X21637734Y-4475353D01*
X21624289Y-4490870D01*
X21616641Y-4510260D01*
X21615391Y-4522561D01*
D10*
X25829766Y-5178824D02*
X25855693Y-5186062D01*
X25873731Y-5204991D01*
X25879766Y-5228824D01*
X3524765Y-5228824D02*
X3532004Y-5202897D01*
X3550932Y-5184858D01*
X3574765Y-5178824D01*
X-235208Y-12293824D02*
X-261135Y-12286585D01*
X-279173Y-12267657D01*
X-285208Y-12243824D01*
X18764791Y-6528823D02*
X18772030Y-6554750D01*
X18790958Y-6572789D01*
X18814791Y-6578823D01*
D11*
X21554154Y-4811324D02*
X15129124Y-4811324D01*
X12690391Y-12836323D02*
X12690391Y-12861323D01*
D10*
X5479792Y-10893824D02*
X5779792Y-10893824D01*
X22019791Y-5178824D02*
X18814791Y-5178824D01*
X21261081Y-10743824D02*
X21261081Y-10893824D01*
X21961093Y-6728823D02*
X21961093Y-6578823D01*
D11*
X12915391Y-4611322D02*
X12914868Y-4590819D01*
X12913316Y-4570575D01*
X12910760Y-4550617D01*
X12902742Y-4511661D01*
X12891017Y-4474155D01*
X12875791Y-4438304D01*
X12857269Y-4404314D01*
X12835657Y-4372389D01*
X12811158Y-4342734D01*
X12783979Y-4315555D01*
X12754325Y-4291057D01*
X12722400Y-4269445D01*
X12688410Y-4250923D01*
X12652559Y-4235697D01*
X12615053Y-4223972D01*
X12576096Y-4215953D01*
X12556139Y-4213398D01*
X12535895Y-4211846D01*
X12515392Y-4211323D01*
D10*
X24529764Y-8988824D02*
X25829764Y-8988824D01*
X22069791Y-7133823D02*
X22069791Y-8433823D01*
D11*
X14940391Y-12561324D02*
X14965079Y-12562672D01*
X14988474Y-12566572D01*
X15010254Y-12572810D01*
X15030095Y-12581169D01*
X15047675Y-12591434D01*
X15065977Y-12606619D01*
X15079610Y-12624026D01*
X15083614Y-12631516D01*
D10*
X9239766Y-6528823D02*
X9239766Y-5228824D01*
X23383467Y-10743785D02*
X23376228Y-10717858D01*
X23357299Y-10699819D01*
X23333467Y-10693785D01*
X27734765Y-10388824D02*
X26434765Y-10388824D01*
X26434767Y-10893825D02*
X27734767Y-10893825D01*
D11*
X11715391Y-4761324D02*
X11710441Y-4782951D01*
X11697148Y-4799870D01*
X11677849Y-4809743D01*
X11665391Y-4811324D01*
D10*
X3524792Y-12243824D02*
X3524792Y-10943824D01*
X22624764Y-8988824D02*
X23924764Y-8988824D01*
X3019791Y-12243824D02*
X3012553Y-12269751D01*
X2993624Y-12287789D01*
X2969791Y-12293824D01*
X23383467Y-10893785D02*
X23383467Y-10743785D01*
X-235234Y-10388824D02*
X-261161Y-10381585D01*
X-279199Y-10362657D01*
X-285234Y-10338824D01*
X4924792Y-12243824D02*
X4917553Y-12269751D01*
X4898625Y-12287789D01*
X4874792Y-12293824D01*
X15004766Y-6578823D02*
X14978839Y-6571585D01*
X14960800Y-6552656D01*
X14954766Y-6528823D01*
X1114766Y-5228824D02*
X1114766Y-6528823D01*
X30116017Y-7560073D02*
X30141943Y-7567312D01*
X30159982Y-7586240D01*
X30166017Y-7610073D01*
D11*
X7415391Y-13011324D02*
X7437018Y-13006374D01*
X7453937Y-12993081D01*
X7463810Y-12973782D01*
X7465391Y-12961324D01*
D10*
X12494766Y-5178824D02*
X12520692Y-5186062D01*
X12538731Y-5204991D01*
X12544766Y-5228824D01*
X25879766Y-5228824D02*
X25879766Y-6528823D01*
X1619765Y-6528823D02*
X1619765Y-5228824D01*
X26434765Y-8988824D02*
X27734765Y-8988824D01*
X10639792Y-12243785D02*
X10639792Y-10943785D01*
X25829764Y-8988824D02*
X25855691Y-8996062D01*
X25873729Y-9014991D01*
X25879764Y-9038824D01*
X16304766Y-5178824D02*
X16330692Y-5186062D01*
X16348731Y-5204991D01*
X16354766Y-5228824D01*
X18209767Y-5178824D02*
X18235693Y-5186062D01*
X18253732Y-5204991D01*
X18259767Y-5228824D01*
X28816017Y-5178824D02*
X30116017Y-5178824D01*
D11*
X14751659Y-12661324D02*
X14772541Y-12656617D01*
X14789303Y-12643733D01*
X14797168Y-12631517D01*
D10*
X4874766Y-5178824D02*
X4900692Y-5186062D01*
X4918731Y-5204991D01*
X4924766Y-5228824D01*
X21961093Y-6578823D02*
X22019791Y-6578823D01*
X19523493Y-6778823D02*
X19549420Y-6771585D01*
X19567458Y-6752656D01*
X19573493Y-6728823D01*
X25879764Y-9038824D02*
X25879764Y-10338824D01*
X10639766Y-6528823D02*
X10632527Y-6554750D01*
X10613599Y-6572789D01*
X10589766Y-6578823D01*
D11*
X7465391Y-12711324D02*
X7470341Y-12689697D01*
X7483634Y-12672778D01*
X7502933Y-12662905D01*
X7515391Y-12661324D01*
D10*
X8684765Y-5178824D02*
X8710692Y-5186062D01*
X8728730Y-5204991D01*
X8734765Y-5228824D01*
D11*
X5165391Y-4861324D02*
X5165391Y-4861324D01*
D10*
X22574766Y-7133823D02*
X22582004Y-7107897D01*
X22600933Y-7089858D01*
X22624766Y-7083823D01*
X7384792Y-12293785D02*
X10589792Y-12293785D01*
X16859767Y-6528823D02*
X16859767Y-5228824D01*
D11*
X15129124Y-4811324D02*
X15108240Y-4816032D01*
X15091477Y-4828917D01*
X15083611Y-4841134D01*
D10*
X18259793Y-10943824D02*
X18259793Y-12243824D01*
X15354792Y-10693824D02*
X15954792Y-10693824D01*
X2969791Y-10893824D02*
X2995718Y-10901063D01*
X3013757Y-10919991D01*
X3019791Y-10943824D01*
X14954766Y-5228824D02*
X14962004Y-5202897D01*
X14980933Y-5184858D01*
X15004766Y-5178824D01*
X28766017Y-8910074D02*
X28766017Y-7610073D01*
D11*
X-684609Y-12561324D02*
X-682577Y-12581477D01*
X-674748Y-12604678D01*
X-661774Y-12624933D01*
X-644440Y-12641457D01*
X-623533Y-12653465D01*
X-599838Y-12660172D01*
X-584609Y-12661324D01*
D10*
X14954792Y-12243824D02*
X14954792Y-10943824D01*
X14399766Y-5178824D02*
X14425692Y-5186062D01*
X14443731Y-5204991D01*
X14449766Y-5228824D01*
X22011287Y-8988824D02*
X22036651Y-8993754D01*
X22058168Y-9008908D01*
X22069488Y-9033711D01*
X22069791Y-9038824D01*
D11*
X21615391Y-4522561D02*
X21615391Y-4750087D01*
X30565391Y-12561324D02*
X30565391Y-5111324D01*
X12340391Y-4411324D02*
X12320018Y-4412362D01*
X12300215Y-4415406D01*
X12271807Y-4423511D01*
X12245262Y-4435555D01*
X12220924Y-4451191D01*
X12199141Y-4470074D01*
X12180258Y-4491857D01*
X12164622Y-4516195D01*
X12152578Y-4542740D01*
X12144473Y-4571148D01*
X12141429Y-4590950D01*
X12140391Y-4611324D01*
D10*
X15004792Y-10893824D02*
X15304792Y-10893824D01*
X27734767Y-6578823D02*
X26434767Y-6578823D01*
X27734767Y-7083823D02*
X27760693Y-7091062D01*
X27778732Y-7109990D01*
X27784767Y-7133823D01*
X23974766Y-8433824D02*
X23967527Y-8459750D01*
X23948598Y-8477789D01*
X23924766Y-8483824D01*
D11*
X122169Y-12631515D02*
X133758Y-12613338D01*
X150268Y-12597214D01*
X171069Y-12583564D01*
X190374Y-12574709D01*
X211700Y-12567921D01*
X234721Y-12563416D01*
X259116Y-12561410D01*
X265391Y-12561324D01*
X-34609Y-4861324D02*
X-39559Y-4839697D01*
X-52851Y-4822778D01*
X-72151Y-4812905D01*
X-84609Y-4811324D01*
D10*
X12194792Y-10743824D02*
X12187553Y-10717897D01*
X12168625Y-10699859D01*
X12144792Y-10693824D01*
X1064792Y-12293824D02*
X-235208Y-12293824D01*
D11*
X76659Y-12661324D02*
X97542Y-12656617D01*
X114304Y-12643732D01*
X122169Y-12631515D01*
D10*
X-235234Y-6578823D02*
X-261161Y-6571585D01*
X-279199Y-6552656D01*
X-285234Y-6528823D01*
X24479766Y-8433824D02*
X24479766Y-7133823D01*
X1114766Y-6528823D02*
X1107527Y-6554750D01*
X1088599Y-6572789D01*
X1064766Y-6578823D01*
D11*
X1015391Y-12711324D02*
X1015391Y-12961324D01*
X5165391Y-4511324D02*
X5165391Y-4861324D01*
D10*
X22624764Y-10388824D02*
X22598837Y-10381585D01*
X22580799Y-10362656D01*
X22574764Y-10338824D01*
X18923481Y-10693824D02*
X18897554Y-10701063D01*
X18879515Y-10719991D01*
X18873481Y-10743824D01*
D11*
X12140391Y-12861323D02*
X12140391Y-12836323D01*
D10*
X16004792Y-10743824D02*
X16004792Y-10893824D01*
X22574764Y-10338824D02*
X22574764Y-9038824D01*
D11*
X15083611Y-4841134D02*
X15072023Y-4859311D01*
X15055513Y-4875435D01*
X15034713Y-4889084D01*
X15015407Y-4897940D01*
X14994082Y-4904727D01*
X14971061Y-4909232D01*
X14946666Y-4911238D01*
X14940391Y-4911324D01*
D10*
X16004792Y-10893824D02*
X16304792Y-10893824D01*
X8734765Y-5228824D02*
X8734765Y-6528823D01*
X25879765Y-10943785D02*
X25872526Y-10917858D01*
X25853597Y-10899819D01*
X25829765Y-10893785D01*
D11*
X30115391Y-5011324D02*
X30092627Y-5009587D01*
X30070913Y-5004551D01*
X30050509Y-4996474D01*
X30031675Y-4985616D01*
X30014670Y-4972237D01*
X29999754Y-4956596D01*
X29987187Y-4938952D01*
X29977227Y-4919566D01*
X29970135Y-4898697D01*
X29966169Y-4876604D01*
X29965391Y-4861324D01*
D10*
X30166017Y-8910074D02*
X30158778Y-8936000D01*
X30139849Y-8954039D01*
X30116017Y-8960074D01*
X-285208Y-10943824D02*
X-277969Y-10917897D01*
X-259041Y-10899859D01*
X-235208Y-10893824D01*
X11303494Y-10693824D02*
X11277567Y-10701063D01*
X11259529Y-10719991D01*
X11253494Y-10743824D01*
D11*
X12340391Y-13061323D02*
X12320018Y-13060285D01*
X12300215Y-13057241D01*
X12271807Y-13049135D01*
X12245262Y-13037092D01*
X12220924Y-13021455D01*
X12199141Y-13002573D01*
X12180258Y-12980789D01*
X12164622Y-12956452D01*
X12152578Y-12929906D01*
X12144473Y-12901498D01*
X12141429Y-12881696D01*
X12140391Y-12861323D01*
D10*
X11144792Y-10943824D02*
X11144792Y-12243824D01*
X11144766Y-5228824D02*
X11152004Y-5202897D01*
X11170933Y-5184858D01*
X11194766Y-5178824D01*
X18923493Y-6778823D02*
X19523493Y-6778823D01*
X10589766Y-6578823D02*
X9289766Y-6578823D01*
D11*
X12490391Y-4836324D02*
X12510765Y-4835286D01*
X12530567Y-4832242D01*
X12558975Y-4824137D01*
X12585520Y-4812093D01*
X12609858Y-4796457D01*
X12631641Y-4777574D01*
X12650524Y-4755791D01*
X12666160Y-4731453D01*
X12678204Y-4704908D01*
X12686309Y-4676500D01*
X12689354Y-4656698D01*
X12690391Y-4636324D01*
D10*
X22574766Y-8433824D02*
X22574766Y-7133823D01*
D11*
X21615391Y-4750087D02*
X21611660Y-4771086D01*
X21601362Y-4788981D01*
X21585846Y-4802426D01*
X21566455Y-4810074D01*
X21554154Y-4811324D01*
D10*
X25771067Y-10743785D02*
X25763828Y-10717858D01*
X25744899Y-10699819D01*
X25721067Y-10693785D01*
D11*
X29615391Y-12561324D02*
X29640078Y-12562672D01*
X29663472Y-12566572D01*
X29685251Y-12572809D01*
X29705091Y-12581167D01*
X29722670Y-12591432D01*
X29740972Y-12606616D01*
X29754605Y-12624021D01*
X29758609Y-12631512D01*
D10*
X-235208Y-10893824D02*
X1064792Y-10893824D01*
D11*
X2415391Y-4911324D02*
X2393764Y-4916274D01*
X2376846Y-4929567D01*
X2366972Y-4948866D01*
X2365391Y-4961324D01*
D10*
X16859767Y-5228824D02*
X16867005Y-5202897D01*
X16885934Y-5184858D01*
X16909767Y-5178824D01*
X16354766Y-6528823D02*
X16347527Y-6554750D01*
X16328598Y-6572789D01*
X16304766Y-6578823D01*
X22069791Y-10338824D02*
X22061321Y-10364750D01*
X22041623Y-10381585D01*
X22017269Y-10388565D01*
X22011287Y-10388824D01*
X1064792Y-10893824D02*
X1090719Y-10901063D01*
X1108757Y-10919991D01*
X1114792Y-10943824D01*
X5779792Y-10743785D02*
X5787030Y-10717858D01*
X5805959Y-10699819D01*
X5829792Y-10693785D01*
X7334792Y-10943785D02*
X7334792Y-12243785D01*
X30116017Y-6578823D02*
X28816017Y-6578823D01*
D11*
X11911653Y-4461291D02*
X11765380Y-4461324D01*
D10*
X26434765Y-10388824D02*
X26408838Y-10381585D01*
X26390800Y-10362656D01*
X26384765Y-10338824D01*
X6429792Y-10693785D02*
X6455719Y-10701023D01*
X6473757Y-10719952D01*
X6479792Y-10743785D01*
D11*
X30565391Y-5111324D02*
X30563350Y-5091236D01*
X30555491Y-5068069D01*
X30542482Y-5047810D01*
X30525125Y-5031258D01*
X30504219Y-5019215D01*
X30480567Y-5012482D01*
X30465391Y-5011324D01*
X11915391Y-12861324D02*
X11915391Y-12861324D01*
D10*
X27784765Y-9038824D02*
X27784765Y-10338824D01*
X18873493Y-6728823D02*
X18880732Y-6754750D01*
X18899660Y-6772789D01*
X18923493Y-6778823D01*
X-285208Y-12243824D02*
X-285208Y-10943824D01*
X18209767Y-6578823D02*
X16909767Y-6578823D01*
X12494766Y-6578823D02*
X11194766Y-6578823D01*
X6479792Y-10893824D02*
X6779792Y-10893824D01*
X11194766Y-5178824D02*
X12494766Y-5178824D01*
D11*
X12315391Y-4211323D02*
X12286283Y-4212379D01*
X12257725Y-4215498D01*
X12229789Y-4220606D01*
X12202550Y-4227629D01*
X12176081Y-4236493D01*
X12150457Y-4247124D01*
X12125751Y-4259448D01*
X12102038Y-4273392D01*
X12079391Y-4288882D01*
X12057884Y-4305843D01*
X12037591Y-4324201D01*
X12018587Y-4343883D01*
X12000945Y-4364815D01*
X11984738Y-4386923D01*
X11970042Y-4410132D01*
X11956929Y-4434370D01*
X11765380Y-4461324D02*
X11743758Y-4466278D01*
X11726843Y-4479571D01*
X11716972Y-4498869D01*
X11715391Y-4511324D01*
X28940391Y-12961324D02*
X28940391Y-12711324D01*
D10*
X16859793Y-12243824D02*
X16859793Y-10943824D01*
X3574765Y-5178824D02*
X4874766Y-5178824D01*
X24479764Y-9038824D02*
X24487003Y-9012897D01*
X24505931Y-8994858D01*
X24529764Y-8988824D01*
X22574764Y-9038824D02*
X22582003Y-9012897D01*
X22600931Y-8994858D01*
X22624764Y-8988824D01*
D11*
X12340391Y-12636323D02*
X12490391Y-12636323D01*
D10*
X25829766Y-6578823D02*
X24529766Y-6578823D01*
X20490194Y-10388824D02*
X20464830Y-10383893D01*
X20443313Y-10368739D01*
X20431993Y-10343936D01*
X20431691Y-10338824D01*
D11*
X5165391Y-4861324D02*
X5160441Y-4882951D01*
X5147148Y-4899870D01*
X5127849Y-4909743D01*
X5115391Y-4911324D01*
X2315391Y-5011324D02*
X1415391Y-5011324D01*
X22440391Y-12661324D02*
X22462018Y-12666274D01*
X22478937Y-12679567D01*
X22488810Y-12698866D01*
X22490391Y-12711324D01*
D10*
X18764779Y-10943824D02*
X18764779Y-12243824D01*
X21261093Y-6728823D02*
X21268332Y-6754750D01*
X21287260Y-6772789D01*
X21311093Y-6778823D01*
X27784767Y-7133823D02*
X27784767Y-8433824D01*
D11*
X29915391Y-4811324D02*
X29804124Y-4811324D01*
D10*
X22574766Y-6528823D02*
X22574766Y-5228824D01*
X13641094Y-10893824D02*
X12194792Y-10893824D01*
X18814791Y-5178824D02*
X18788864Y-5186062D01*
X18770826Y-5204991D01*
X18764791Y-5228824D01*
X16909793Y-12293824D02*
X16883866Y-12286585D01*
X16865828Y-12267657D01*
X16859793Y-12243824D01*
X5829792Y-10693785D02*
X6429792Y-10693785D01*
X5429766Y-5228824D02*
X5437004Y-5202897D01*
X5455933Y-5184858D01*
X5479766Y-5178824D01*
X10589766Y-5178824D02*
X10615693Y-5186062D01*
X10633731Y-5204991D01*
X10639766Y-5228824D01*
X18259767Y-6528823D02*
X18252528Y-6554750D01*
X18233600Y-6572789D01*
X18209767Y-6578823D01*
X25879766Y-6528823D02*
X25872527Y-6554750D01*
X25853599Y-6572789D01*
X25829766Y-6578823D01*
X22733467Y-10693785D02*
X22707540Y-10701023D01*
X22689501Y-10719952D01*
X22683467Y-10743785D01*
D11*
X12915391Y-12861324D02*
X12916429Y-12840950D01*
X12919473Y-12821148D01*
X12927578Y-12792740D01*
X12939622Y-12766195D01*
X12955258Y-12741857D01*
X12974141Y-12720074D01*
X12995924Y-12701191D01*
X13020262Y-12685555D01*
X13046807Y-12673511D01*
X13075215Y-12665406D01*
X13095018Y-12662361D01*
X13115391Y-12661324D01*
D10*
X25879766Y-7133823D02*
X25879766Y-8433824D01*
X11253494Y-10893824D02*
X11194792Y-10893824D01*
X14449766Y-6528823D02*
X14442527Y-6554750D01*
X14423598Y-6572789D01*
X14399766Y-6578823D01*
X-285234Y-9038824D02*
X-277995Y-9012897D01*
X-259067Y-8994859D01*
X-235234Y-8988824D01*
X7334792Y-12243785D02*
X7342030Y-12269711D01*
X7360959Y-12287750D01*
X7384792Y-12293785D01*
D11*
X11515391Y-4511324D02*
X11510441Y-4489697D01*
X11497148Y-4472778D01*
X11477849Y-4462905D01*
X11465391Y-4461324D01*
D10*
X28766017Y-6528823D02*
X28766017Y-5228824D01*
X22574765Y-10943785D02*
X22574765Y-12243785D01*
D11*
X28540391Y-7011324D02*
G75*
G02*
X28040391Y-7011324I-250000J0D01*
G01*
X28040391Y-7011324D02*
G75*
G02*
X28540391Y-7011324I250000J0D01*
G01*
D10*
X1619765Y-5228824D02*
X1627004Y-5202897D01*
X1645932Y-5184858D01*
X1669765Y-5178824D01*
X13691094Y-10693824D02*
X13665167Y-10701063D01*
X13647129Y-10719991D01*
X13641094Y-10743824D01*
X9289766Y-6578823D02*
X9263839Y-6571585D01*
X9245801Y-6552656D01*
X9239766Y-6528823D01*
X8734765Y-6528823D02*
X8727526Y-6554750D01*
X8708598Y-6572789D01*
X8684765Y-6578823D01*
X27734765Y-8988824D02*
X27760692Y-8996062D01*
X27778730Y-9014991D01*
X27784765Y-9038824D01*
X15954792Y-10693824D02*
X15980719Y-10701063D01*
X15998757Y-10719991D01*
X16004792Y-10743824D01*
X23974766Y-5228824D02*
X23974766Y-6528823D01*
D11*
X2365391Y-4961324D02*
X2360441Y-4982951D01*
X2347148Y-4999870D01*
X2327849Y-5009743D01*
X2315391Y-5011324D01*
D10*
X19573481Y-10743824D02*
X19566242Y-10717897D01*
X19547314Y-10699859D01*
X19523481Y-10693824D01*
X3574765Y-6578823D02*
X3548839Y-6571585D01*
X3530800Y-6552656D01*
X3524765Y-6528823D01*
X24479764Y-10338824D02*
X24479764Y-9038824D01*
X25829764Y-10388824D02*
X24529764Y-10388824D01*
X25829766Y-7083823D02*
X25855692Y-7091062D01*
X25873731Y-7109990D01*
X25879766Y-7133823D01*
X3574792Y-12293824D02*
X3548865Y-12286585D01*
X3530826Y-12267657D01*
X3524792Y-12243824D01*
D11*
X1415391Y-5011324D02*
X1393764Y-5006374D01*
X1376846Y-4993081D01*
X1366972Y-4973782D01*
X1365391Y-4961324D01*
D10*
X16909767Y-5178824D02*
X18209767Y-5178824D01*
X7493494Y-10693785D02*
X7467567Y-10701023D01*
X7449528Y-10719952D01*
X7443494Y-10743785D01*
X7334765Y-6528823D02*
X7334765Y-5228824D01*
X18873481Y-10893824D02*
X18814779Y-10893824D01*
X25829765Y-12293785D02*
X25855691Y-12286546D01*
X25873730Y-12267618D01*
X25879765Y-12243785D01*
X27734767Y-5178824D02*
X27760693Y-5186062D01*
X27778732Y-5204991D01*
X27784767Y-5228824D01*
X-285209Y-8433824D02*
X-285209Y-7133824D01*
X24479766Y-6528823D02*
X24479766Y-5228824D01*
D11*
X12490391Y-13061323D02*
X12340391Y-13061323D01*
D10*
X28766017Y-5228824D02*
X28773255Y-5202897D01*
X28792184Y-5184858D01*
X28816017Y-5178824D01*
X14449792Y-12243824D02*
X14449792Y-10943824D01*
X21911081Y-10693824D02*
X21311081Y-10693824D01*
X26384767Y-8433824D02*
X26384767Y-7133823D01*
D11*
X13115391Y-12661324D02*
X14751659Y-12661324D01*
D10*
X18814791Y-6578823D02*
X18873493Y-6578823D01*
X14291094Y-10693824D02*
X13691094Y-10693824D01*
X25829765Y-10893785D02*
X25771067Y-10893785D01*
X1352891Y-7133824D02*
X1352891Y-8433824D01*
X22019779Y-12293824D02*
X22045706Y-12286585D01*
X22063744Y-12267657D01*
X22069779Y-12243824D01*
X26384767Y-7133823D02*
X26392005Y-7107897D01*
X26410934Y-7089858D01*
X26434767Y-7083823D01*
X10639792Y-10943785D02*
X10632553Y-10917858D01*
X10613625Y-10899819D01*
X10589792Y-10893785D01*
X29639765Y-10893825D02*
X29665691Y-10901063D01*
X29683730Y-10919992D01*
X29689765Y-10943825D01*
X13099766Y-6578823D02*
X13073839Y-6571585D01*
X13055800Y-6552656D01*
X13049766Y-6528823D01*
D11*
X11565391Y-4811324D02*
X11543764Y-4806374D01*
X11526846Y-4793081D01*
X11516972Y-4773782D01*
X11515391Y-4761324D01*
D10*
X25879764Y-10338824D02*
X25872525Y-10364750D01*
X25853597Y-10382789D01*
X25829764Y-10388824D01*
X-226705Y-7083824D02*
X1294388Y-7083824D01*
D11*
X30465391Y-5011324D02*
X30115391Y-5011324D01*
D10*
X14341094Y-10893824D02*
X14341094Y-10743824D01*
D11*
X29758609Y-12631512D02*
X29771478Y-12648819D01*
X29789844Y-12659186D01*
X29804124Y-12661324D01*
D10*
X26434767Y-7083823D02*
X27734767Y-7083823D01*
X4924766Y-6528823D02*
X4917527Y-6554750D01*
X4898598Y-6572789D01*
X4874766Y-6578823D01*
X10639766Y-5228824D02*
X10639766Y-6528823D01*
D11*
X12915391Y-12861325D02*
X12915391Y-12861324D01*
D10*
X1114792Y-10943824D02*
X1114792Y-12243824D01*
X22069791Y-5228824D02*
X22062552Y-5202897D01*
X22043624Y-5184858D01*
X22019791Y-5178824D01*
X5429766Y-6528823D02*
X5429766Y-5228824D01*
D11*
X12315391Y-13261324D02*
X12515392Y-13261324D01*
D10*
X12144792Y-10693824D02*
X11303494Y-10693824D01*
X20431691Y-10338824D02*
X20431691Y-9038824D01*
X30166017Y-7610073D02*
X30166017Y-8910074D01*
X8684765Y-6578823D02*
X7384765Y-6578823D01*
X25071067Y-10743785D02*
X25071067Y-10893785D01*
X23924766Y-7083823D02*
X23950692Y-7091062D01*
X23968731Y-7109990D01*
X23974766Y-7133823D01*
X20164766Y-10338824D02*
X20157527Y-10364751D01*
X20138599Y-10382789D01*
X20114766Y-10388824D01*
X15004792Y-12293824D02*
X14978865Y-12286585D01*
X14960826Y-12267657D01*
X14954792Y-12243824D01*
X18873481Y-10743824D02*
X18873481Y-10772746D01*
X18873481Y-10797977D01*
X18873481Y-10825846D01*
X18873481Y-10852836D01*
X18873481Y-10879981D01*
X18873481Y-10893824D01*
X21311093Y-6778823D02*
X21911093Y-6778823D01*
X5429792Y-10943824D02*
X5437030Y-10917897D01*
X5455959Y-10899859D01*
X5479792Y-10893824D01*
D11*
X5215391Y-4461324D02*
X5193764Y-4466274D01*
X5176846Y-4479567D01*
X5166972Y-4498866D01*
X5165391Y-4511324D01*
D10*
X22019791Y-7083823D02*
X22045718Y-7091061D01*
X22063756Y-7109990D01*
X22069791Y-7133823D01*
X25071067Y-10893785D02*
X23383467Y-10893785D01*
X21961081Y-10893824D02*
X21961081Y-10743824D01*
D11*
X14751831Y-4811324D02*
X14725098Y-4811324D01*
X14692174Y-4811324D01*
X14653521Y-4811324D01*
X14609599Y-4811324D01*
X14560871Y-4811324D01*
X14507798Y-4811324D01*
X14450842Y-4811324D01*
X14390465Y-4811324D01*
X14327128Y-4811324D01*
X14261293Y-4811324D01*
X14193422Y-4811324D01*
X14123976Y-4811324D01*
X14053417Y-4811324D01*
X13982207Y-4811324D01*
X13910808Y-4811324D01*
X13839680Y-4811324D01*
X13769287Y-4811324D01*
X13700089Y-4811324D01*
X13632548Y-4811324D01*
X13567126Y-4811324D01*
X13504284Y-4811324D01*
X13444485Y-4811324D01*
X13388190Y-4811323D01*
X13335861Y-4811323D01*
X13287959Y-4811323D01*
X13244946Y-4811323D01*
X13207283Y-4811323D01*
X13175433Y-4811323D01*
X13149857Y-4811323D01*
X13119375Y-4811323D01*
X13115391Y-4811323D01*
D10*
X7334765Y-5228824D02*
X7342004Y-5202897D01*
X7360932Y-5184858D01*
X7384765Y-5178824D01*
X20114766Y-10388824D02*
X-235234Y-10388824D01*
X3574792Y-10893824D02*
X4874792Y-10893824D01*
D11*
X12515392Y-13261324D02*
X12535895Y-13260801D01*
X12556139Y-13259249D01*
X12576097Y-13256693D01*
X12615053Y-13248674D01*
X12652559Y-13236950D01*
X12688410Y-13221724D01*
X12722400Y-13203202D01*
X12754325Y-13181590D01*
X12783980Y-13157091D01*
X12811159Y-13129912D01*
X12835657Y-13100258D01*
X12857269Y-13068333D01*
X12875791Y-13034342D01*
X12891017Y-12998492D01*
X12902742Y-12960986D01*
X12910760Y-12922029D01*
X12913316Y-12902072D01*
X12914868Y-12881828D01*
X12915391Y-12861325D01*
D10*
X22624766Y-8483824D02*
X22598839Y-8476585D01*
X22580800Y-8457656D01*
X22574766Y-8433824D01*
X22624765Y-10893785D02*
X22598838Y-10901023D01*
X22580799Y-10919952D01*
X22574765Y-10943785D01*
X8143494Y-10743785D02*
X8136255Y-10717858D01*
X8117327Y-10699819D01*
X8093494Y-10693785D01*
X24529766Y-5178824D02*
X25829766Y-5178824D01*
X10531094Y-10743785D02*
X10523855Y-10717858D01*
X10504927Y-10699819D01*
X10481094Y-10693785D01*
X21261081Y-10893824D02*
X19573481Y-10893824D01*
X-226705Y-8483824D02*
X-252069Y-8478893D01*
X-273586Y-8463740D01*
X-284907Y-8438936D01*
X-285209Y-8433824D01*
X10589792Y-12293785D02*
X10615719Y-12286546D01*
X10633757Y-12267618D01*
X10639792Y-12243785D01*
D11*
X22490391Y-12711324D02*
X22490391Y-12961324D01*
D10*
X16304766Y-6578823D02*
X15004766Y-6578823D01*
X27734767Y-10893825D02*
X27760693Y-10901063D01*
X27778732Y-10919992D01*
X27784767Y-10943825D01*
X22624766Y-5178824D02*
X23924766Y-5178824D01*
X22624766Y-7083823D02*
X23924766Y-7083823D01*
D11*
X-34609Y-4861324D02*
X-34609Y-4861324D01*
D10*
X29689765Y-10943825D02*
X29689765Y-12243824D01*
X14399766Y-6578823D02*
X13099766Y-6578823D01*
X18764779Y-12243824D02*
X18772017Y-12269751D01*
X18790946Y-12287789D01*
X18814779Y-12293824D01*
D11*
X29804124Y-4811324D02*
X29783239Y-4816032D01*
X29766476Y-4828918D01*
X29758610Y-4841136D01*
D10*
X16859793Y-10943824D02*
X16867031Y-10917897D01*
X16885960Y-10899859D01*
X16909793Y-10893824D01*
X6779792Y-10893824D02*
X6805719Y-10901063D01*
X6823757Y-10919991D01*
X6829792Y-10943824D01*
D11*
X12690391Y-12861323D02*
X12689354Y-12881696D01*
X12686309Y-12901498D01*
X12678204Y-12929906D01*
X12666160Y-12956452D01*
X12650524Y-12980789D01*
X12631641Y-13002573D01*
X12609858Y-13021455D01*
X12585520Y-13037092D01*
X12558975Y-13049135D01*
X12530567Y-13057241D01*
X12510765Y-13060285D01*
X12490391Y-13061323D01*
D10*
X25721067Y-10693785D02*
X25121067Y-10693785D01*
D11*
X29472174Y-12631511D02*
X29483762Y-12613334D01*
X29500272Y-12597212D01*
X29521072Y-12583563D01*
X29540377Y-12574708D01*
X29561701Y-12567920D01*
X29584722Y-12563416D01*
X29609116Y-12561410D01*
X29615391Y-12561324D01*
D10*
X1294388Y-7083824D02*
X1319751Y-7088754D01*
X1341269Y-7103908D01*
X1352589Y-7128712D01*
X1352891Y-7133824D01*
D11*
X29615391Y-4911324D02*
X29590704Y-4909976D01*
X29567309Y-4906076D01*
X29545530Y-4899839D01*
X29525690Y-4891480D01*
X29508111Y-4881215D01*
X29489809Y-4866031D01*
X29476176Y-4848626D01*
X29472172Y-4841135D01*
D10*
X18209793Y-12293824D02*
X16909793Y-12293824D01*
X1064766Y-6578823D02*
X-235234Y-6578823D01*
D11*
X28040391Y-4550608D02*
X28039141Y-4529012D01*
X28034329Y-4506431D01*
X28024434Y-4485596D01*
X28008281Y-4469573D01*
X27988447Y-4462053D01*
X27979154Y-4461324D01*
D10*
X14341094Y-10743824D02*
X14333855Y-10717897D01*
X14314927Y-10699859D01*
X14291094Y-10693824D01*
X14954766Y-6528823D02*
X14954766Y-5228824D01*
D11*
X14797168Y-12631517D02*
X14808756Y-12613339D01*
X14825266Y-12597215D01*
X14846067Y-12583565D01*
X14865373Y-12574709D01*
X14886699Y-12567921D01*
X14909720Y-12563416D01*
X14934116Y-12561410D01*
X14940391Y-12561324D01*
X1015391Y-12961324D02*
X1020341Y-12982951D01*
X1033634Y-12999869D01*
X1052934Y-13009743D01*
X1065391Y-13011324D01*
D10*
X11253494Y-10743824D02*
X11253494Y-10893824D01*
X27784767Y-5228824D02*
X27784767Y-6528823D01*
X5429792Y-12243824D02*
X5429792Y-10943824D01*
X15304792Y-10893824D02*
X15304792Y-10743824D01*
X28339765Y-12293824D02*
X28313838Y-12286586D01*
X28295799Y-12267657D01*
X28289765Y-12243824D01*
D11*
X1315391Y-4911324D02*
X15391Y-4911324D01*
D10*
X23924766Y-6578823D02*
X22624766Y-6578823D01*
X23974766Y-6528823D02*
X23967527Y-6554750D01*
X23948598Y-6572789D01*
X23924766Y-6578823D01*
X27784767Y-10943825D02*
X27784767Y-12243824D01*
X23924766Y-5178824D02*
X23950692Y-5186062D01*
X23968731Y-5204991D01*
X23974766Y-5228824D01*
X1619791Y-8433823D02*
X1619791Y-7133823D01*
X26384765Y-9038824D02*
X26392004Y-9012897D01*
X26410932Y-8994858D01*
X26434765Y-8988824D01*
D11*
X29965391Y-4861324D02*
X29960441Y-4839697D01*
X29947148Y-4822779D01*
X29927849Y-4812905D01*
X29915391Y-4811324D01*
D10*
X19523481Y-10693824D02*
X18923481Y-10693824D01*
X22624765Y-12293785D02*
X25829765Y-12293785D01*
X-285234Y-6528823D02*
X-285234Y-5228824D01*
X22683467Y-10893785D02*
X22624765Y-10893785D01*
X16304792Y-12293824D02*
X15004792Y-12293824D01*
X7384765Y-6578823D02*
X7358838Y-6571585D01*
X7340800Y-6552656D01*
X7334765Y-6528823D01*
X1619791Y-12243824D02*
X1619791Y-10943824D01*
X3019765Y-5228824D02*
X3019765Y-6528823D01*
X16909767Y-6578823D02*
X16883840Y-6571585D01*
X16865801Y-6552656D01*
X16859767Y-6528823D01*
X7443494Y-10893785D02*
X7384792Y-10893785D01*
D11*
X12515392Y-4211323D02*
X12315391Y-4211323D01*
X12690391Y-4611324D02*
X12689354Y-4590950D01*
X12686309Y-4571148D01*
X12678204Y-4542740D01*
X12666160Y-4516195D01*
X12650524Y-4491857D01*
X12631641Y-4470074D01*
X12609858Y-4451191D01*
X12585520Y-4435555D01*
X12558975Y-4423511D01*
X12530567Y-4415406D01*
X12510765Y-4412362D01*
X12490391Y-4411324D01*
D10*
X21311081Y-10693824D02*
X21285154Y-10701063D01*
X21267115Y-10719991D01*
X21261081Y-10743824D01*
D11*
X28890391Y-13011324D02*
X28912018Y-13006374D01*
X28928937Y-12993081D01*
X28938810Y-12973782D01*
X28940391Y-12961324D01*
D10*
X23924764Y-10388824D02*
X22624764Y-10388824D01*
X18814779Y-12293824D02*
X22019779Y-12293824D01*
D11*
X28536664Y-4854543D02*
X28531761Y-4876666D01*
X28524951Y-4898005D01*
X28516329Y-4918467D01*
X28505991Y-4937955D01*
X28494031Y-4956374D01*
X28480544Y-4973629D01*
X28465627Y-4989625D01*
X28449375Y-5004267D01*
X28431882Y-5017459D01*
X28413243Y-5029105D01*
X28393555Y-5039111D01*
X28372912Y-5047382D01*
X28351410Y-5053822D01*
X28329144Y-5058336D01*
X28306208Y-5060829D01*
X28282699Y-5061205D01*
D10*
X4924792Y-10943824D02*
X4924792Y-12243824D01*
X23974764Y-10338824D02*
X23967525Y-10364750D01*
X23948597Y-10382789D01*
X23924764Y-10388824D01*
X16354792Y-12243824D02*
X16347553Y-12269751D01*
X16328625Y-12287789D01*
X16304792Y-12293824D01*
X26384767Y-6528823D02*
X26384767Y-5228824D01*
D11*
X12340391Y-4836324D02*
X12490391Y-4836324D01*
D10*
X20490194Y-8988824D02*
X22011287Y-8988824D01*
D11*
X12140391Y-12836323D02*
X12141429Y-12815949D01*
X12144473Y-12796147D01*
X12152578Y-12767739D01*
X12164622Y-12741193D01*
X12180258Y-12716856D01*
X12199141Y-12695073D01*
X12220924Y-12676190D01*
X12245262Y-12660554D01*
X12271807Y-12648510D01*
X12300215Y-12640405D01*
X12320018Y-12637360D01*
X12340391Y-12636323D01*
X28940391Y-12711324D02*
X28945341Y-12689697D01*
X28958634Y-12672778D01*
X28977933Y-12662905D01*
X28990391Y-12661324D01*
D10*
X6779766Y-5178824D02*
X6805692Y-5186062D01*
X6823731Y-5204991D01*
X6829766Y-5228824D01*
X18764791Y-5228824D02*
X18764791Y-6528823D01*
X6829766Y-6528823D02*
X6822527Y-6554750D01*
X6803598Y-6572789D01*
X6779766Y-6578823D01*
X6479792Y-10743785D02*
X6479792Y-10893824D01*
X7384765Y-5178824D02*
X8684765Y-5178824D01*
X2969765Y-6578823D02*
X1669765Y-6578823D01*
X1352891Y-8433824D02*
X1344421Y-8459751D01*
X1324724Y-8476585D01*
X1300369Y-8483566D01*
X1294388Y-8483824D01*
D11*
X29472172Y-4841135D02*
X29459304Y-4823828D01*
X29440937Y-4813462D01*
X29426659Y-4811324D01*
X15129124Y-12661324D02*
X22440391Y-12661324D01*
X22490391Y-12961324D02*
X22495341Y-12982951D01*
X22508634Y-12999869D01*
X22527933Y-13009743D01*
X22540391Y-13011324D01*
D10*
X5779792Y-10893824D02*
X5779792Y-10743785D01*
X25879765Y-12243785D02*
X25879765Y-10943785D01*
X22069779Y-12243824D02*
X22069779Y-10943824D01*
X1294388Y-8483824D02*
X-226705Y-8483824D01*
D11*
X408614Y-12631516D02*
X421481Y-12648821D01*
X439846Y-12659186D01*
X454124Y-12661324D01*
D10*
X12544766Y-5228824D02*
X12544766Y-6528823D01*
X-285234Y-5228824D02*
X-277996Y-5202897D01*
X-259067Y-5184858D01*
X-235234Y-5178824D01*
X3019791Y-10943824D02*
X3019791Y-12243824D01*
X12544766Y-6528823D02*
X12537527Y-6554750D01*
X12518598Y-6572789D01*
X12494766Y-6578823D01*
X1669791Y-7083823D02*
X22019791Y-7083823D01*
X26384765Y-10338824D02*
X26384765Y-9038824D01*
X18209793Y-10893824D02*
X18235720Y-10901063D01*
X18253758Y-10919991D01*
X18259793Y-10943824D01*
X1619791Y-7133823D02*
X1627030Y-7107896D01*
X1645958Y-7089857D01*
X1669791Y-7083823D01*
X-235234Y-5178824D02*
X1064766Y-5178824D01*
X26434767Y-5178824D02*
X27734767Y-5178824D01*
X28816017Y-6578823D02*
X28790090Y-6571585D01*
X28772051Y-6552656D01*
X28766017Y-6528823D01*
X13049766Y-5228824D02*
X13057004Y-5202897D01*
X13075933Y-5184858D01*
X13099766Y-5178824D01*
X4874792Y-12293824D02*
X3574792Y-12293824D01*
X28289765Y-12243824D02*
X28289765Y-10943825D01*
D11*
X1365391Y-4961324D02*
X1365391Y-4961324D01*
D10*
X15304792Y-10743824D02*
X15312030Y-10717897D01*
X15330959Y-10699859D01*
X15354792Y-10693824D01*
D11*
X265391Y-12561324D02*
X290079Y-12562672D01*
X313474Y-12566572D01*
X335254Y-12572809D01*
X355095Y-12581169D01*
X372674Y-12591434D01*
X390976Y-12606619D01*
X404609Y-12624025D01*
X408614Y-12631516D01*
X29804124Y-12661324D02*
X30465391Y-12661324D01*
D10*
X14954792Y-10943824D02*
X14962030Y-10917897D01*
X14980959Y-10899859D01*
X15004792Y-10893824D01*
X6779766Y-6578823D02*
X5479766Y-6578823D01*
X18259793Y-12243824D02*
X18252554Y-12269751D01*
X18233626Y-12287789D01*
X18209793Y-12293824D01*
X30116017Y-5178824D02*
X30141943Y-5186062D01*
X30159982Y-5204991D01*
X30166017Y-5228824D01*
X23333467Y-10693785D02*
X22733467Y-10693785D01*
X6829766Y-5228824D02*
X6829766Y-6528823D01*
X10589792Y-10893785D02*
X10531094Y-10893785D01*
X30166017Y-5228824D02*
X30166017Y-6528823D01*
X6829792Y-12243824D02*
X6822553Y-12269751D01*
X6803625Y-12287789D01*
X6779792Y-12293824D01*
D11*
X15083614Y-12631516D02*
X15096481Y-12648822D01*
X15114846Y-12659186D01*
X15129124Y-12661324D01*
D10*
X22069779Y-10943824D02*
X22062540Y-10917897D01*
X22043612Y-10899859D01*
X22019779Y-10893824D01*
D11*
X15391Y-4911324D02*
X-6236Y-4906374D01*
X-23154Y-4893081D01*
X-33028Y-4873782D01*
X-34609Y-4861324D01*
X11956929Y-4434370D02*
X11943887Y-4450317D01*
X11925511Y-4459460D01*
X11911653Y-4461291D01*
D10*
X12194792Y-10893824D02*
X12194792Y-10743824D01*
X22574765Y-12243785D02*
X22582003Y-12269711D01*
X22600932Y-12287750D01*
X22624765Y-12293785D01*
D11*
X29426659Y-12661324D02*
X29447544Y-12656616D01*
X29464308Y-12643729D01*
X29472174Y-12631511D01*
D10*
X26434767Y-12293824D02*
X26408840Y-12286586D01*
X26390801Y-12267657D01*
X26384767Y-12243824D01*
X23924766Y-8483824D02*
X22624766Y-8483824D01*
X24529766Y-8483824D02*
X24503839Y-8476585D01*
X24485800Y-8457656D01*
X24479766Y-8433824D01*
X28816017Y-8960074D02*
X28790090Y-8952835D01*
X28772051Y-8933906D01*
X28766017Y-8910074D01*
D11*
X965391Y-12661324D02*
X987018Y-12666274D01*
X1003937Y-12679567D01*
X1013810Y-12698866D01*
X1015391Y-12711324D01*
D10*
X26384767Y-10943825D02*
X26392005Y-10917898D01*
X26410934Y-10899859D01*
X26434767Y-10893825D01*
X1669791Y-10893824D02*
X2969791Y-10893824D01*
X11194766Y-6578823D02*
X11168839Y-6571585D01*
X11150800Y-6552656D01*
X11144766Y-6528823D01*
X28339765Y-10893825D02*
X29639765Y-10893825D01*
D11*
X1365391Y-4961324D02*
X1360441Y-4939697D01*
X1347148Y-4922778D01*
X1327849Y-4912905D01*
X1315391Y-4911324D01*
X14940391Y-4911324D02*
X14915703Y-4909976D01*
X14892308Y-4906076D01*
X14870528Y-4899838D01*
X14850687Y-4891479D01*
X14833107Y-4881213D01*
X14814805Y-4866028D01*
X14801172Y-4848622D01*
X14797168Y-4841131D01*
D10*
X23924764Y-8988824D02*
X23950691Y-8996062D01*
X23968729Y-9014991D01*
X23974764Y-9038824D01*
X3524765Y-6528823D02*
X3524765Y-5228824D01*
X13049766Y-6528823D02*
X13049766Y-5228824D01*
X25121067Y-10693785D02*
X25095140Y-10701023D01*
X25077101Y-10719952D01*
X25071067Y-10743785D01*
D11*
X29716017Y-9585024D02*
G75*
G02*
X29216017Y-9585024I-250000J0D01*
G01*
X29216017Y-9585024D02*
G75*
G02*
X29716017Y-9585024I250000J0D01*
G01*
D10*
X22683467Y-10743785D02*
X22683467Y-10772706D01*
X22683467Y-10797938D01*
X22683467Y-10825807D01*
X22683467Y-10852796D01*
X22683467Y-10879942D01*
X22683467Y-10893785D01*
X27784767Y-8433824D02*
X27777528Y-8459750D01*
X27758599Y-8477789D01*
X27734767Y-8483824D01*
X22011287Y-10388824D02*
X20490194Y-10388824D01*
D11*
X28040390Y-4800934D02*
X28040390Y-4779953D01*
X28040390Y-4758522D01*
X28040390Y-4736890D01*
X28040390Y-4715306D01*
X28040390Y-4694019D01*
X28040390Y-4673277D01*
X28040391Y-4643731D01*
X28040391Y-4616813D01*
X28040391Y-4593361D01*
X28040391Y-4568937D01*
X28040391Y-4550608D01*
X11715391Y-4511324D02*
X11715391Y-4761324D01*
X1065391Y-13011324D02*
X7415391Y-13011324D01*
D10*
X5479766Y-6578823D02*
X5453839Y-6571585D01*
X5435800Y-6552656D01*
X5429766Y-6528823D01*
X1669765Y-6578823D02*
X1643838Y-6571585D01*
X1625800Y-6552656D01*
X1619765Y-6528823D01*
X20114766Y-8988824D02*
X20140693Y-8996063D01*
X20158731Y-9014991D01*
X20164766Y-9038824D01*
X22069791Y-6528823D02*
X22069791Y-5228824D01*
X14399792Y-10893824D02*
X14341094Y-10893824D01*
X4874766Y-6578823D02*
X3574765Y-6578823D01*
D11*
X28586107Y-4811325D02*
X28566416Y-4815460D01*
X28549013Y-4828366D01*
X28538280Y-4847789D01*
X28536664Y-4854543D01*
D10*
X5479766Y-5178824D02*
X6779766Y-5178824D01*
X7443494Y-10743785D02*
X7443494Y-10772706D01*
X7443494Y-10797938D01*
X7443494Y-10825807D01*
X7443494Y-10852796D01*
X7443494Y-10879942D01*
X7443494Y-10893785D01*
D11*
X12140391Y-4611324D02*
X12140391Y-4636324D01*
D10*
X6829792Y-10943824D02*
X6829792Y-12243824D01*
D11*
X12690391Y-4636324D02*
X12690391Y-4611324D01*
D10*
X1669791Y-12293824D02*
X1643865Y-12286585D01*
X1625826Y-12267657D01*
X1619791Y-12243824D01*
D11*
X12490391Y-4411324D02*
X12340391Y-4411324D01*
D10*
X26434767Y-6578823D02*
X26408840Y-6571585D01*
X26390801Y-6552656D01*
X26384767Y-6528823D01*
X20164766Y-9038824D02*
X20164766Y-10338824D01*
X18873493Y-6578823D02*
X18873493Y-6607745D01*
X18873493Y-6632977D01*
X18873493Y-6660846D01*
X18873493Y-6687835D01*
X18873493Y-6714981D01*
X18873493Y-6728823D01*
D11*
X5115391Y-4911324D02*
X2415391Y-4911324D01*
X-584609Y-4811324D02*
X-604762Y-4813356D01*
X-627963Y-4821185D01*
X-648218Y-4834159D01*
X-664742Y-4851492D01*
X-676750Y-4872400D01*
X-683457Y-4896095D01*
X-684609Y-4911324D01*
D10*
X25879766Y-8433824D02*
X25872527Y-8459750D01*
X25853598Y-8477789D01*
X25829766Y-8483824D01*
X3524792Y-10943824D02*
X3532030Y-10917897D01*
X3550959Y-10899859D01*
X3574792Y-10893824D01*
X4874792Y-10893824D02*
X4900718Y-10901063D01*
X4918757Y-10919991D01*
X4924792Y-10943824D01*
X1669765Y-5178824D02*
X2969765Y-5178824D01*
D11*
X11915391Y-12861324D02*
X11915914Y-12881828D01*
X11917466Y-12902071D01*
X11920022Y-12922029D01*
X11928041Y-12960985D01*
X11939765Y-12998492D01*
X11954991Y-13034342D01*
X11973513Y-13068333D01*
X11995126Y-13100258D01*
X12019624Y-13129912D01*
X12046803Y-13157091D01*
X12076457Y-13181589D01*
X12108382Y-13203202D01*
X12142373Y-13221724D01*
X12178224Y-13236950D01*
X12215730Y-13248674D01*
X12254686Y-13256693D01*
X12274644Y-13259249D01*
X12294887Y-13260801D01*
X12315391Y-13261324D01*
D10*
X27784767Y-12243824D02*
X27777528Y-12269751D01*
X27758599Y-12287790D01*
X27734767Y-12293824D01*
X10531094Y-10893785D02*
X10531094Y-10743785D01*
X16354766Y-5228824D02*
X16354766Y-6528823D01*
D11*
X-584609Y-12661324D02*
X76659Y-12661324D01*
D10*
X14449766Y-5228824D02*
X14449766Y-6528823D01*
X26384767Y-12243824D02*
X26384767Y-10943825D01*
X16304792Y-10893824D02*
X16330719Y-10901063D01*
X16348757Y-10919991D01*
X16354792Y-10943824D01*
D11*
X-684609Y-4911324D02*
X-684609Y-12561324D01*
X11465391Y-4461324D02*
X5215391Y-4461324D01*
D10*
X13099766Y-5178824D02*
X14399766Y-5178824D01*
D11*
X-433832Y-13582808D02*
X-433832Y-13382808D01*
X-433832Y-13382808D02*
X-386213Y-13382808D01*
X-386213Y-13382808D02*
X-357641Y-13392332D01*
X-357641Y-13392332D02*
X-338594Y-13411379D01*
X-338594Y-13411379D02*
X-329070Y-13430427D01*
X-329070Y-13430427D02*
X-319546Y-13468522D01*
X-319546Y-13468522D02*
X-319546Y-13497093D01*
X-319546Y-13497093D02*
X-329070Y-13535189D01*
X-329070Y-13535189D02*
X-338594Y-13554236D01*
X-338594Y-13554236D02*
X-357641Y-13573284D01*
X-357641Y-13573284D02*
X-386213Y-13582808D01*
X-386213Y-13582808D02*
X-433832Y-13582808D01*
X-233832Y-13582808D02*
X-233832Y-13449474D01*
X-233832Y-13487570D02*
X-224308Y-13468522D01*
X-224308Y-13468522D02*
X-214784Y-13458998D01*
X-214784Y-13458998D02*
X-195737Y-13449474D01*
X-195737Y-13449474D02*
X-176689Y-13449474D01*
X-110022Y-13582808D02*
X-110022Y-13449474D01*
X-110022Y-13382808D02*
X-119546Y-13392332D01*
X-119546Y-13392332D02*
X-110022Y-13401855D01*
X-110022Y-13401855D02*
X-100499Y-13392332D01*
X-100499Y-13392332D02*
X-110022Y-13382808D01*
X-110022Y-13382808D02*
X-110022Y-13401855D01*
X13787Y-13582808D02*
X-5261Y-13573284D01*
X-5261Y-13573284D02*
X-14784Y-13554236D01*
X-14784Y-13554236D02*
X-14784Y-13382808D01*
X118549Y-13582808D02*
X99501Y-13573284D01*
X99501Y-13573284D02*
X89977Y-13554236D01*
X89977Y-13554236D02*
X89977Y-13382808D01*
X347120Y-13582808D02*
X347120Y-13382808D01*
X347120Y-13382808D02*
X413787Y-13525665D01*
X413787Y-13525665D02*
X480454Y-13382808D01*
X480454Y-13382808D02*
X480454Y-13582808D01*
X661406Y-13582808D02*
X661406Y-13478046D01*
X661406Y-13478046D02*
X651882Y-13458998D01*
X651882Y-13458998D02*
X632835Y-13449474D01*
X632835Y-13449474D02*
X594739Y-13449474D01*
X594739Y-13449474D02*
X575692Y-13458998D01*
X661406Y-13573284D02*
X642359Y-13582808D01*
X642359Y-13582808D02*
X594739Y-13582808D01*
X594739Y-13582808D02*
X575692Y-13573284D01*
X575692Y-13573284D02*
X566168Y-13554236D01*
X566168Y-13554236D02*
X566168Y-13535189D01*
X566168Y-13535189D02*
X575692Y-13516141D01*
X575692Y-13516141D02*
X594739Y-13506617D01*
X594739Y-13506617D02*
X642359Y-13506617D01*
X642359Y-13506617D02*
X661406Y-13497093D01*
X756644Y-13449474D02*
X756644Y-13649474D01*
X756644Y-13458998D02*
X775692Y-13449474D01*
X775692Y-13449474D02*
X813787Y-13449474D01*
X813787Y-13449474D02*
X832835Y-13458998D01*
X832835Y-13458998D02*
X842358Y-13468522D01*
X842358Y-13468522D02*
X851882Y-13487570D01*
X851882Y-13487570D02*
X851882Y-13544712D01*
X851882Y-13544712D02*
X842358Y-13563760D01*
X842358Y-13563760D02*
X832835Y-13573284D01*
X832835Y-13573284D02*
X813787Y-13582808D01*
X813787Y-13582808D02*
X775692Y-13582808D01*
X775692Y-13582808D02*
X756644Y-13573284D01*
X937597Y-13563760D02*
X947120Y-13573284D01*
X947120Y-13573284D02*
X937597Y-13582808D01*
X937597Y-13582808D02*
X928073Y-13573284D01*
X928073Y-13573284D02*
X937597Y-13563760D01*
X937597Y-13563760D02*
X937597Y-13582808D01*
X937597Y-13458998D02*
X947120Y-13468522D01*
X947120Y-13468522D02*
X937597Y-13478046D01*
X937597Y-13478046D02*
X928073Y-13468522D01*
X928073Y-13468522D02*
X937597Y-13458998D01*
X937597Y-13458998D02*
X937597Y-13478046D01*
M02*
