M48
; DRILL file {KiCad 8.0.2-1.fc39} date 2024-06-01T14:36:52-0400
; FORMAT={-:-/ absolute / metric / decimal}
; #@! TF.CreationDate,2024-06-01T14:36:52-04:00
; #@! TF.GenerationSoftware,Kicad,Pcbnew,8.0.2-1.fc39
; #@! TF.FileFunction,NonPlated,1,2,NPTH
FMAT,2
METRIC
; #@! TA.AperFunction,NonPlated,NPTH,ComponentDrill
T1C1.500
; #@! TA.AperFunction,NonPlated,NPTH,ComponentDrill
T2C1.750
; #@! TA.AperFunction,NonPlated,NPTH,ComponentDrill
T3C3.048
; #@! TA.AperFunction,NonPlated,NPTH,ComponentDrill
T4C3.988
%
G90
G05
T2
X20.32Y-25.4
X20.32Y-44.45
X20.32Y-63.5
X20.32Y-82.55
X30.48Y-25.4
X30.48Y-44.45
X30.48Y-63.5
X30.48Y-82.55
X39.37Y-25.4
X39.37Y-44.45
X39.37Y-63.5
X39.37Y-82.55
X49.53Y-25.4
X49.53Y-44.45
X49.53Y-63.5
X49.53Y-82.55
X58.42Y-25.4
X58.42Y-44.45
X58.42Y-63.5
X58.42Y-82.55
X68.58Y-25.4
X68.58Y-44.45
X68.58Y-63.5
X68.58Y-82.55
X77.47Y-25.4
X77.47Y-44.45
X77.47Y-63.5
X77.47Y-82.55
X87.63Y-25.4
X87.63Y-44.45
X87.63Y-63.5
X87.63Y-82.55
X96.52Y-25.4
X96.52Y-44.45
X96.52Y-63.5
X96.52Y-82.55
X106.045Y-82.55
X106.68Y-25.4
X106.68Y-44.45
X106.68Y-63.5
X106.68Y-82.55
X115.57Y-25.4
X115.57Y-44.45
X115.57Y-63.5
X115.57Y-82.55
X116.205Y-82.55
X125.73Y-25.4
X125.73Y-44.45
X125.73Y-63.5
X125.73Y-82.55
X134.62Y-25.4
X134.62Y-44.45
X134.62Y-63.5
X134.62Y-82.55
X144.145Y-82.55
X144.78Y-25.4
X144.78Y-44.45
X144.78Y-63.5
X144.78Y-82.55
X153.67Y-25.4
X153.67Y-44.45
X153.67Y-63.5
X153.67Y-82.55
X154.305Y-82.55
X163.83Y-25.4
X163.83Y-44.45
X163.83Y-63.5
X163.83Y-82.55
X172.72Y-25.4
X172.72Y-44.45
X172.72Y-63.5
X172.72Y-82.55
X182.88Y-25.4
X182.88Y-44.45
X182.88Y-63.5
X182.88Y-82.55
X191.77Y-25.4
X191.77Y-44.45
X191.77Y-63.5
X191.77Y-82.55
X201.295Y-82.55
X201.93Y-25.4
X201.93Y-44.45
X201.93Y-63.5
X201.93Y-82.55
X210.82Y-25.4
X210.82Y-44.45
X210.82Y-63.5
X210.82Y-82.55
X211.455Y-82.55
X220.345Y-82.55
X220.98Y-25.4
X220.98Y-44.45
X220.98Y-63.5
X220.98Y-82.55
X229.87Y-25.4
X229.87Y-44.45
X229.87Y-63.5
X229.87Y-82.55
X230.505Y-82.55
X240.03Y-25.4
X240.03Y-44.45
X240.03Y-63.5
X240.03Y-82.55
X248.92Y-25.4
X248.92Y-44.45
X248.92Y-63.5
X248.92Y-82.55
X258.445Y-82.55
X259.08Y-25.4
X259.08Y-44.45
X259.08Y-63.5
X259.08Y-82.55
X267.97Y-25.4
X267.97Y-44.45
X267.97Y-63.5
X267.97Y-82.55
X268.605Y-82.55
X278.13Y-25.4
X278.13Y-44.45
X278.13Y-63.5
X278.13Y-82.55
X287.02Y-25.4
X287.02Y-44.45
X287.02Y-63.5
X287.02Y-82.55
X297.18Y-25.4
X297.18Y-44.45
X297.18Y-63.5
X297.18Y-82.55
X306.07Y-82.55
X310.832Y-25.4
X310.832Y-49.212
X316.23Y-82.55
X320.993Y-25.4
X320.993Y-49.212
T3
X218.281Y-89.535
T4
X25.4Y-25.4
X25.4Y-44.45
X25.4Y-63.5
X25.4Y-82.55
X44.45Y-25.4
X44.45Y-44.45
X44.45Y-63.5
X44.45Y-82.55
X63.5Y-25.4
X63.5Y-44.45
X63.5Y-63.5
X63.5Y-82.55
X82.55Y-25.4
X82.55Y-44.45
X82.55Y-63.5
X82.55Y-82.55
X99.219Y-74.295
X101.6Y-25.4
X101.6Y-44.45
X101.6Y-63.5
X101.6Y-82.55
X111.125Y-82.55
X120.65Y-25.4
X120.65Y-44.45
X120.65Y-63.5
X120.65Y-82.55
X123.031Y-74.295
X137.319Y-74.295
X139.7Y-25.4
X139.7Y-44.45
X139.7Y-63.5
X139.7Y-82.55
X149.225Y-82.55
X158.75Y-25.4
X158.75Y-44.45
X158.75Y-63.5
X158.75Y-82.55
X161.131Y-74.295
X177.8Y-25.4
X177.8Y-44.45
X177.8Y-63.5
X177.8Y-82.55
X194.469Y-74.295
X196.85Y-25.4
X196.85Y-44.45
X196.85Y-63.5
X196.85Y-82.55
X206.375Y-82.55
X213.519Y-74.295
X215.9Y-25.4
X215.9Y-44.45
X215.9Y-63.5
X215.9Y-82.55
X218.281Y-74.295
X225.425Y-82.55
X234.95Y-25.4
X234.95Y-44.45
X234.95Y-63.5
X234.95Y-82.55
X237.331Y-74.295
X251.619Y-74.295
X254.0Y-25.4
X254.0Y-44.45
X254.0Y-63.5
X254.0Y-82.55
X263.525Y-82.55
X273.05Y-25.4
X273.05Y-44.45
X273.05Y-63.5
X273.05Y-82.55
X275.431Y-74.295
X292.1Y-25.4
X292.1Y-44.45
X292.1Y-63.5
X292.1Y-82.55
X311.15Y-82.55
X315.912Y-25.4
X315.912Y-49.212
T1
G00X310.312Y-26.05
M15
G01X310.312Y-24.75
M16
G05
G00X310.312Y-49.862
M15
G01X310.312Y-48.562
M16
G05
G00X321.512Y-26.05
M15
G01X321.512Y-24.75
M16
G05
G00X321.512Y-49.862
M15
G01X321.512Y-48.562
M16
G05
M30
