%TF.GenerationSoftware,KiCad,Pcbnew,8.0.2-1.fc39*%
%TF.CreationDate,2024-06-01T14:36:52-04:00*%
%TF.ProjectId,KeychronQ9OrthoIntegrated,4b657963-6872-46f6-9e51-394f7274686f,rev?*%
%TF.SameCoordinates,Original*%
%TF.FileFunction,Drillmap*%
%TF.FilePolarity,Positive*%
%FSLAX45Y45*%
G04 Gerber Fmt 4.5, Leading zero omitted, Abs format (unit mm)*
G04 Created by KiCad (PCBNEW 8.0.2-1.fc39) date 2024-06-01 14:36:52*
%MOMM*%
%LPD*%
G01*
G04 APERTURE LIST*
%ADD10C,0.050000*%
%ADD11C,0.200000*%
%ADD12C,0.100000*%
%ADD13C,0.300000*%
%ADD14C,0.304800*%
G04 APERTURE END LIST*
D10*
X1746250Y-9207500D02*
G75*
G02*
X1587500Y-9048750I0J158750D01*
G01*
X16629062Y-9207500D02*
G75*
G02*
X17502188Y-9207500I436563J-357187D01*
G01*
X1944687Y-9207500D02*
G75*
G02*
X2817812Y-9207500I436563J-357187D01*
G01*
X32186562Y-1587500D02*
G75*
G02*
X31313437Y-1587500I-436563J357187D01*
G01*
X32186562Y-9207500D02*
X32385000Y-9207500D01*
X17502188Y-9207500D02*
X31313437Y-9207500D01*
X32543750Y-9048750D02*
G75*
G02*
X32385000Y-9207500I-158750J0D01*
G01*
X7302500Y-1587500D02*
X7024687Y-1865312D01*
X1587500Y-1944687D02*
G75*
G02*
X1666875Y-1865310I79380J-3D01*
G01*
X1587500Y-1944687D02*
X1587500Y-9048750D01*
X17502188Y-1587500D02*
G75*
G02*
X16629062Y-1587500I-436563J357187D01*
G01*
X31313437Y-9207500D02*
G75*
G02*
X32186562Y-9207500I436563J-357187D01*
G01*
X1746250Y-9207500D02*
X1944687Y-9207500D01*
X7024687Y-1865312D02*
X1666875Y-1865312D01*
X32186562Y-1587500D02*
X32385000Y-1587500D01*
X17502188Y-1587500D02*
X31313437Y-1587500D01*
X16629062Y-1587500D02*
X7302500Y-1587500D01*
X32385000Y-1587500D02*
G75*
G02*
X32543750Y-1746250I0J-158750D01*
G01*
X16629062Y-9207500D02*
X2817812Y-9207500D01*
X32543750Y-1746250D02*
X32543750Y-9048750D01*
D11*
D12*
X1791405Y-2033240D02*
X1821405Y-2063240D01*
X1821405Y-2033240D02*
X1791405Y-2063240D01*
X2297420Y-7286869D02*
X2327420Y-7316869D01*
X2327420Y-7286869D02*
X2297420Y-7316869D01*
X2312303Y-5381870D02*
X2342303Y-5411870D01*
X2342303Y-5381870D02*
X2312303Y-5411870D01*
X3473161Y-4563316D02*
X3503161Y-4593316D01*
X3503161Y-4563316D02*
X3473161Y-4593316D01*
X3473161Y-4786558D02*
X3503161Y-4816558D01*
X3503161Y-4786558D02*
X3473161Y-4816558D01*
X3473161Y-7286869D02*
X3503161Y-7316869D01*
X3503161Y-7286869D02*
X3473161Y-7316869D01*
X3681520Y-3581052D02*
X3711520Y-3611052D01*
X3711520Y-3581052D02*
X3681520Y-3611052D01*
X3726169Y-4488902D02*
X3756169Y-4518902D01*
X3756169Y-4488902D02*
X3726169Y-4518902D01*
X3726169Y-6408784D02*
X3756169Y-6438784D01*
X3756169Y-6408784D02*
X3726169Y-6438784D01*
X4366129Y-3432224D02*
X4396129Y-3462224D01*
X4396129Y-3432224D02*
X4366129Y-3462224D01*
X4450443Y-5381870D02*
X4480443Y-5411870D01*
X4480443Y-5381870D02*
X4450443Y-5411870D01*
X4857262Y-3104802D02*
X4887262Y-3134802D01*
X4887262Y-3104802D02*
X4857262Y-3134802D01*
X5378160Y-2033240D02*
X5408160Y-2063240D01*
X5408160Y-2033240D02*
X5378160Y-2063240D01*
X5378160Y-7286869D02*
X5408160Y-7316869D01*
X5408160Y-7286869D02*
X5378160Y-7316869D01*
X7283158Y-7286869D02*
X7313158Y-7316869D01*
X7313158Y-7286869D02*
X7283158Y-7316869D01*
X9173274Y-7286869D02*
X9203274Y-7316869D01*
X9203274Y-7286869D02*
X9173274Y-7316869D01*
X9188156Y-1839764D02*
X9218156Y-1869764D01*
X9218156Y-1839764D02*
X9188156Y-1869764D01*
X9679289Y-8417962D02*
X9709289Y-8447962D01*
X9709289Y-8417962D02*
X9679289Y-8447962D01*
X10259718Y-8670969D02*
X10289718Y-8700969D01*
X10289718Y-8670969D02*
X10259718Y-8700969D01*
X11108038Y-5649761D02*
X11138038Y-5679761D01*
X11138038Y-5649761D02*
X11108038Y-5679761D01*
X12179599Y-8537024D02*
X12209599Y-8567024D01*
X12209599Y-8537024D02*
X12179599Y-8567024D01*
X12987608Y-8760892D02*
X13017608Y-8790892D01*
X13017608Y-8760892D02*
X12987608Y-8790892D01*
X12998153Y-5649761D02*
X13028153Y-5679761D01*
X13028153Y-5649761D02*
X12998153Y-5679761D01*
X13478740Y-8433471D02*
X13508740Y-8463471D01*
X13508740Y-8433471D02*
X13478740Y-8463471D01*
X13672216Y-8359057D02*
X13702216Y-8389057D01*
X13702216Y-8359057D02*
X13672216Y-8389057D01*
X13995301Y-7286869D02*
X14025301Y-7316869D01*
X14025301Y-7286869D02*
X13995301Y-7316869D01*
X14222880Y-8448354D02*
X14252880Y-8478354D01*
X14252880Y-8448354D02*
X14222880Y-8478354D01*
X14918034Y-5649761D02*
X14948034Y-5679761D01*
X14948034Y-5649761D02*
X14918034Y-5679761D01*
X15870534Y-3476872D02*
X15900534Y-3506872D01*
X15900534Y-3476872D02*
X15870534Y-3506872D01*
X15993933Y-8522768D02*
X16023933Y-8552768D01*
X16023933Y-8522768D02*
X15993933Y-8552768D01*
X18583540Y-7391675D02*
X18613540Y-7421675D01*
X18613540Y-7391675D02*
X18583540Y-7421675D01*
X18698266Y-3744762D02*
X18728266Y-3774762D01*
X18728266Y-3744762D02*
X18698266Y-3774762D01*
X18717500Y-8755938D02*
X18747500Y-8785938D01*
X18747500Y-8755938D02*
X18717500Y-8785938D01*
X18728031Y-5679526D02*
X18758031Y-5709526D01*
X18758031Y-5679526D02*
X18728031Y-5709526D01*
X19372329Y-8314408D02*
X19402329Y-8344408D01*
X19402329Y-8314408D02*
X19372329Y-8344408D01*
X20618147Y-3759645D02*
X20648147Y-3789645D01*
X20648147Y-3759645D02*
X20618147Y-3789645D01*
X21109279Y-8447727D02*
X21139279Y-8477727D01*
X21139279Y-8447727D02*
X21109279Y-8477727D01*
X21674826Y-8626321D02*
X21704826Y-8656321D01*
X21704826Y-8626321D02*
X21674826Y-8656321D01*
X22523145Y-3774528D02*
X22553145Y-3804528D01*
X22553145Y-3774528D02*
X22523145Y-3804528D01*
X22631662Y-7138667D02*
X22661662Y-7168667D01*
X22661662Y-7138667D02*
X22631662Y-7168667D01*
X24432500Y-7287500D02*
X24462500Y-7317500D01*
X24462500Y-7287500D02*
X24432500Y-7317500D01*
X24432500Y-8835313D02*
X24462500Y-8865313D01*
X24462500Y-8835313D02*
X24432500Y-8865313D01*
X24611074Y-8329291D02*
X24641074Y-8359291D01*
X24641074Y-8329291D02*
X24611074Y-8359291D01*
X24908750Y-8438438D02*
X24938750Y-8468438D01*
X24938750Y-8438438D02*
X24908750Y-8468438D01*
X25102207Y-8344174D02*
X25132207Y-8374174D01*
X25132207Y-8344174D02*
X25102207Y-8374174D01*
X25637988Y-8507885D02*
X25667988Y-8537885D01*
X25667988Y-8507885D02*
X25637988Y-8537885D01*
X26080130Y-4674375D02*
X26110130Y-4704375D01*
X26110130Y-4674375D02*
X26080130Y-4704375D01*
X26228962Y-3417309D02*
X26258962Y-3447309D01*
X26258962Y-3417309D02*
X26228962Y-3447309D01*
X26228962Y-3497309D02*
X26258962Y-3527309D01*
X26258962Y-3497309D02*
X26228962Y-3527309D01*
X26228962Y-3577310D02*
X26258962Y-3607310D01*
X26258962Y-3577310D02*
X26228962Y-3607310D01*
X26228962Y-3657310D02*
X26258962Y-3687310D01*
X26258962Y-3657310D02*
X26228962Y-3687310D01*
X26452204Y-3417309D02*
X26482204Y-3447309D01*
X26482204Y-3417309D02*
X26452204Y-3447309D01*
X26452204Y-3497309D02*
X26482204Y-3527309D01*
X26482204Y-3497309D02*
X26452204Y-3527309D01*
X26452204Y-3577310D02*
X26482204Y-3607310D01*
X26482204Y-3577310D02*
X26452204Y-3607310D01*
X26452204Y-3657310D02*
X26482204Y-3687310D01*
X26482204Y-3657310D02*
X26452204Y-3687310D01*
X26596068Y-4674375D02*
X26626068Y-4704375D01*
X26626068Y-4674375D02*
X26596068Y-4704375D01*
X26774062Y-8795625D02*
X26804062Y-8825625D01*
X26804062Y-8795625D02*
X26774062Y-8825625D01*
X26774062Y-9033750D02*
X26804062Y-9063750D01*
X26804062Y-9033750D02*
X26774062Y-9063750D01*
X27326617Y-8755938D02*
X27356617Y-8785938D01*
X27356617Y-8755938D02*
X27326617Y-8785938D01*
X27959704Y-8344174D02*
X27989704Y-8374174D01*
X27989704Y-8344174D02*
X27959704Y-8374174D01*
X28039078Y-4761749D02*
X28069078Y-4791749D01*
X28069078Y-4761749D02*
X28039078Y-4791749D01*
X28238140Y-3298278D02*
X28268140Y-3328278D01*
X28268140Y-3298278D02*
X28238140Y-3328278D01*
X28238140Y-3968004D02*
X28268140Y-3998004D01*
X28268140Y-3968004D02*
X28238140Y-3998004D01*
X28277203Y-4761749D02*
X28307203Y-4791749D01*
X28307203Y-4761749D02*
X28277203Y-4791749D01*
X28440914Y-4761749D02*
X28470914Y-4791749D01*
X28470914Y-4761749D02*
X28440914Y-4791749D01*
X29190640Y-7063627D02*
X29220640Y-7093627D01*
X29220640Y-7063627D02*
X29190640Y-7093627D01*
X29666889Y-5605112D02*
X29696889Y-5635112D01*
X29696889Y-5605112D02*
X29666889Y-5635112D01*
X29666889Y-6051596D02*
X29696889Y-6081596D01*
X29696889Y-6051596D02*
X29666889Y-6081596D01*
X29733303Y-8484375D02*
X29763303Y-8514375D01*
X29763303Y-8484375D02*
X29733303Y-8514375D01*
X29746889Y-5605112D02*
X29776889Y-5635112D01*
X29776889Y-5605112D02*
X29746889Y-5635112D01*
X29746889Y-6051596D02*
X29776889Y-6081596D01*
X29776889Y-6051596D02*
X29746889Y-6081596D01*
X29771069Y-4221012D02*
X29801069Y-4251012D01*
X29801069Y-4221012D02*
X29771069Y-4251012D01*
X29826890Y-5605112D02*
X29856890Y-5635112D01*
X29856890Y-5605112D02*
X29826890Y-5635112D01*
X29826890Y-6051596D02*
X29856890Y-6081596D01*
X29856890Y-6051596D02*
X29826890Y-6081596D01*
X29860366Y-7078510D02*
X29890366Y-7108510D01*
X29890366Y-7078510D02*
X29860366Y-7108510D01*
X29860366Y-7450580D02*
X29890366Y-7480580D01*
X29890366Y-7450580D02*
X29860366Y-7480580D01*
X29890130Y-4667495D02*
X29920130Y-4697495D01*
X29920130Y-4667495D02*
X29890130Y-4697495D01*
X29899428Y-4875855D02*
X29929428Y-4905855D01*
X29929428Y-4875855D02*
X29899428Y-4905855D01*
X29899428Y-5128863D02*
X29929428Y-5158863D01*
X29929428Y-5128863D02*
X29899428Y-5158863D01*
X29906890Y-5605112D02*
X29936890Y-5635112D01*
X29936890Y-5605112D02*
X29906890Y-5635112D01*
X29906890Y-6051596D02*
X29936890Y-6081596D01*
X29936890Y-6051596D02*
X29906890Y-6081596D01*
X29966890Y-6156707D02*
X29996890Y-6186707D01*
X29996890Y-6156707D02*
X29966890Y-6186707D01*
X29974264Y-6994377D02*
X30004264Y-7024377D01*
X30004264Y-6994377D02*
X29974264Y-7024377D01*
X29979428Y-4875855D02*
X30009428Y-4905855D01*
X30009428Y-4875855D02*
X29979428Y-4905855D01*
X29979428Y-5128863D02*
X30009428Y-5158863D01*
X30009428Y-5128863D02*
X29979428Y-5158863D01*
X29994311Y-6557612D02*
X30024311Y-6587612D01*
X30024311Y-6557612D02*
X29994311Y-6587612D01*
X30030833Y-6937808D02*
X30060833Y-6967808D01*
X30060833Y-6937808D02*
X30030833Y-6967808D01*
X30087401Y-6881239D02*
X30117401Y-6911239D01*
X30117401Y-6881239D02*
X30087401Y-6911239D01*
X30094311Y-7182689D02*
X30124311Y-7212689D01*
X30124311Y-7182689D02*
X30094311Y-7212689D01*
X30107787Y-5128863D02*
X30137787Y-5158863D01*
X30137787Y-5128863D02*
X30107787Y-5158863D01*
X30107792Y-4874988D02*
X30137792Y-4904988D01*
X30137792Y-4874988D02*
X30107792Y-4904988D01*
X30150929Y-6832616D02*
X30180929Y-6862616D01*
X30180929Y-6832616D02*
X30150929Y-6862616D01*
X30154311Y-7124989D02*
X30184311Y-7154989D01*
X30184311Y-7124989D02*
X30154311Y-7154989D01*
X30187787Y-4875855D02*
X30217787Y-4905855D01*
X30217787Y-4875855D02*
X30187787Y-4905855D01*
X30187787Y-5128863D02*
X30217787Y-5158863D01*
X30217787Y-5128863D02*
X30187787Y-5158863D01*
X30202670Y-5731616D02*
X30232670Y-5761616D01*
X30232670Y-5731616D02*
X30202670Y-5761616D01*
X30221151Y-7049659D02*
X30251151Y-7079659D01*
X30251151Y-7049659D02*
X30221151Y-7079659D01*
X30232436Y-4042418D02*
X30262436Y-4072418D01*
X30262436Y-4042418D02*
X30232436Y-4072418D01*
X30284173Y-7000382D02*
X30314173Y-7030382D01*
X30314173Y-7000382D02*
X30284173Y-7030382D01*
X30291967Y-4369840D02*
X30321967Y-4399840D01*
X30321967Y-4369840D02*
X30291967Y-4399840D01*
X30291967Y-7763118D02*
X30321967Y-7793118D01*
X30321967Y-7763118D02*
X30291967Y-7793118D01*
X30381264Y-5843237D02*
X30411264Y-5873237D01*
X30411264Y-5843237D02*
X30381264Y-5873237D01*
X30411029Y-3328044D02*
X30441029Y-3358044D01*
X30441029Y-3328044D02*
X30411029Y-3358044D01*
X30440795Y-5486050D02*
X30470795Y-5516050D01*
X30470795Y-5486050D02*
X30440795Y-5516050D01*
X30470560Y-7108275D02*
X30500560Y-7138275D01*
X30500560Y-7108275D02*
X30470560Y-7138275D01*
X30485443Y-5739058D02*
X30515443Y-5769058D01*
X30515443Y-5739058D02*
X30485443Y-5769058D01*
X30515209Y-4994918D02*
X30545209Y-5024918D01*
X30545209Y-4994918D02*
X30515209Y-5024918D01*
X30582741Y-8484375D02*
X30612741Y-8514375D01*
X30612741Y-8484375D02*
X30582741Y-8514375D01*
X30618451Y-6244135D02*
X30648451Y-6274135D01*
X30648451Y-6244135D02*
X30618451Y-6274135D01*
X30618451Y-6484135D02*
X30648451Y-6514135D01*
X30648451Y-6484135D02*
X30618451Y-6514135D01*
X30658451Y-6875830D02*
X30688451Y-6905830D01*
X30688451Y-6875830D02*
X30658451Y-6905830D01*
X30738451Y-6364135D02*
X30768451Y-6394135D01*
X30768451Y-6364135D02*
X30738451Y-6394135D01*
X30768216Y-4042418D02*
X30798216Y-4072418D01*
X30798216Y-4042418D02*
X30768216Y-4072418D01*
X30768216Y-5471167D02*
X30798216Y-5501167D01*
X30798216Y-5471167D02*
X30768216Y-5501167D01*
X30783099Y-5292574D02*
X30813099Y-5322574D01*
X30813099Y-5292574D02*
X30783099Y-5322574D01*
X30793697Y-5738829D02*
X30823697Y-5768829D01*
X30823697Y-5738829D02*
X30793697Y-5768829D01*
X30812865Y-7610460D02*
X30842865Y-7640460D01*
X30842865Y-7610460D02*
X30812865Y-7640460D01*
X30847279Y-5244815D02*
X30877279Y-5274815D01*
X30877279Y-5244815D02*
X30847279Y-5274815D01*
X30858451Y-6244135D02*
X30888451Y-6274135D01*
X30888451Y-6244135D02*
X30858451Y-6274135D01*
X30858451Y-6484135D02*
X30888451Y-6514135D01*
X30888451Y-6484135D02*
X30858451Y-6514135D01*
X30864955Y-7027565D02*
X30894955Y-7057565D01*
X30894955Y-7027565D02*
X30864955Y-7057565D01*
X30876733Y-4251404D02*
X30906733Y-4281404D01*
X30906733Y-4251404D02*
X30876733Y-4281404D01*
X31006341Y-7168952D02*
X31036341Y-7198952D01*
X31036341Y-7168952D02*
X31006341Y-7198952D01*
X31080755Y-7852415D02*
X31110755Y-7882415D01*
X31110755Y-7852415D02*
X31080755Y-7882415D01*
X31195250Y-3089919D02*
X31225250Y-3119919D01*
X31225250Y-3089919D02*
X31195250Y-3119919D01*
X31199818Y-6124135D02*
X31229818Y-6154135D01*
X31229818Y-6124135D02*
X31199818Y-6154135D01*
X31289114Y-2598787D02*
X31319114Y-2628787D01*
X31319114Y-2598787D02*
X31289114Y-2628787D01*
X31308334Y-6096871D02*
X31338334Y-6126871D01*
X31338334Y-6096871D02*
X31308334Y-6126871D01*
X31397631Y-6096871D02*
X31427631Y-6126871D01*
X31427631Y-6096871D02*
X31397631Y-6126871D01*
X31512356Y-4414488D02*
X31542356Y-4444488D01*
X31542356Y-4414488D02*
X31512356Y-4444488D01*
X31516694Y-6126637D02*
X31546694Y-6156637D01*
X31546694Y-6126637D02*
X31516694Y-6156637D01*
X31517318Y-2127495D02*
X31547318Y-2157495D01*
X31547318Y-2127495D02*
X31517318Y-2157495D01*
X31565833Y-6579512D02*
X31595833Y-6609512D01*
X31595833Y-6579512D02*
X31565833Y-6609512D01*
X31571888Y-7182689D02*
X31601888Y-7212689D01*
X31601888Y-7182689D02*
X31571888Y-7212689D01*
X31576225Y-3045897D02*
X31606225Y-3075897D01*
X31606225Y-3045897D02*
X31576225Y-3075897D01*
X31576225Y-5456911D02*
X31606225Y-5486911D01*
X31606225Y-5456911D02*
X31576225Y-5486911D01*
X31635756Y-5843864D02*
X31665756Y-5873864D01*
X31665756Y-5843864D02*
X31635756Y-5873864D01*
X31699855Y-5158628D02*
X31729855Y-5188628D01*
X31729855Y-5158628D02*
X31699855Y-5188628D01*
X31705833Y-8105423D02*
X31735833Y-8135423D01*
X31735833Y-8105423D02*
X31705833Y-8135423D01*
X31812989Y-6810619D02*
X31842989Y-6840619D01*
X31842989Y-6810619D02*
X31812989Y-6840619D01*
X31968137Y-7198198D02*
X31998137Y-7228198D01*
X31998137Y-7198198D02*
X31968137Y-7228198D01*
X32043957Y-7169808D02*
X32073957Y-7199808D01*
X32073957Y-7169808D02*
X32043957Y-7199808D01*
X32092786Y-5165625D02*
X32122786Y-5195625D01*
X32122786Y-5165625D02*
X32092786Y-5195625D01*
X32114856Y-3554762D02*
X32144856Y-3584762D01*
X32144856Y-3554762D02*
X32114856Y-3584762D01*
X32119948Y-7144799D02*
X32149948Y-7174799D01*
X32149948Y-7144799D02*
X32119948Y-7174799D01*
X32167200Y-4652613D02*
X32197200Y-4682613D01*
X32197200Y-4652613D02*
X32167200Y-4682613D01*
X32192005Y-2841870D02*
X32222005Y-2871870D01*
X32222005Y-2841870D02*
X32192005Y-2871870D01*
X32196965Y-7123158D02*
X32226965Y-7153158D01*
X32226965Y-7123158D02*
X32196965Y-7153158D01*
X32271379Y-7093392D02*
X32301379Y-7123392D01*
X32301379Y-7093392D02*
X32271379Y-7123392D01*
X32345793Y-7063627D02*
X32375793Y-7093627D01*
X32375793Y-7063627D02*
X32345793Y-7093627D01*
X32390442Y-3759645D02*
X32420442Y-3789645D01*
X32420442Y-3759645D02*
X32390442Y-3789645D01*
X29708443Y-8989211D02*
G75*
G02*
X29608443Y-8989211I-50000J0D01*
G01*
X29608443Y-8989211D02*
G75*
G02*
X29708443Y-8989211I50000J0D01*
G01*
X29962443Y-8989211D02*
G75*
G02*
X29862443Y-8989211I-50000J0D01*
G01*
X29862443Y-8989211D02*
G75*
G02*
X29962443Y-8989211I50000J0D01*
G01*
X30216443Y-8989211D02*
G75*
G02*
X30116443Y-8989211I-50000J0D01*
G01*
X30116443Y-8989211D02*
G75*
G02*
X30216443Y-8989211I50000J0D01*
G01*
X30470443Y-8989211D02*
G75*
G02*
X30370443Y-8989211I-50000J0D01*
G01*
X30370443Y-8989211D02*
G75*
G02*
X30470443Y-8989211I50000J0D01*
G01*
X30724443Y-8989211D02*
G75*
G02*
X30624443Y-8989211I-50000J0D01*
G01*
X30624443Y-8989211D02*
G75*
G02*
X30724443Y-8989211I50000J0D01*
G01*
X31391250Y-1840000D02*
G75*
G02*
X31291250Y-1840000I-50000J0D01*
G01*
X31291250Y-1840000D02*
G75*
G02*
X31391250Y-1840000I50000J0D01*
G01*
X31391250Y-3290000D02*
G75*
G02*
X31291250Y-3290000I-50000J0D01*
G01*
X31291250Y-3290000D02*
G75*
G02*
X31391250Y-3290000I50000J0D01*
G01*
X31391250Y-4221250D02*
G75*
G02*
X31291250Y-4221250I-50000J0D01*
G01*
X31291250Y-4221250D02*
G75*
G02*
X31391250Y-4221250I50000J0D01*
G01*
X31391250Y-5671250D02*
G75*
G02*
X31291250Y-5671250I-50000J0D01*
G01*
X31291250Y-5671250D02*
G75*
G02*
X31391250Y-5671250I50000J0D01*
G01*
X31641250Y-3290000D02*
G75*
G02*
X31541250Y-3290000I-50000J0D01*
G01*
X31541250Y-3290000D02*
G75*
G02*
X31641250Y-3290000I50000J0D01*
G01*
X31641250Y-5671250D02*
G75*
G02*
X31541250Y-5671250I-50000J0D01*
G01*
X31541250Y-5671250D02*
G75*
G02*
X31641250Y-5671250I50000J0D01*
G01*
X31891250Y-1840000D02*
G75*
G02*
X31791250Y-1840000I-50000J0D01*
G01*
X31791250Y-1840000D02*
G75*
G02*
X31891250Y-1840000I50000J0D01*
G01*
X31891250Y-3290000D02*
G75*
G02*
X31791250Y-3290000I-50000J0D01*
G01*
X31791250Y-3290000D02*
G75*
G02*
X31891250Y-3290000I50000J0D01*
G01*
X31891250Y-4221250D02*
G75*
G02*
X31791250Y-4221250I-50000J0D01*
G01*
X31791250Y-4221250D02*
G75*
G02*
X31891250Y-4221250I50000J0D01*
G01*
X31891250Y-5671250D02*
G75*
G02*
X31791250Y-5671250I-50000J0D01*
G01*
X31791250Y-5671250D02*
G75*
G02*
X31891250Y-5671250I50000J0D01*
G01*
D13*
X2159000Y-2136000D02*
X2159000Y-2436000D01*
X2009000Y-2286000D02*
X2309000Y-2286000D01*
X2159000Y-4041000D02*
X2159000Y-4341000D01*
X2009000Y-4191000D02*
X2309000Y-4191000D01*
X2159000Y-5946000D02*
X2159000Y-6246000D01*
X2009000Y-6096000D02*
X2309000Y-6096000D01*
X2159000Y-7851000D02*
X2159000Y-8151000D01*
X2009000Y-8001000D02*
X2309000Y-8001000D01*
X2794000Y-1882000D02*
X2794000Y-2182000D01*
X2644000Y-2032000D02*
X2944000Y-2032000D01*
X2794000Y-3787000D02*
X2794000Y-4087000D01*
X2644000Y-3937000D02*
X2944000Y-3937000D01*
X2794000Y-5692000D02*
X2794000Y-5992000D01*
X2644000Y-5842000D02*
X2944000Y-5842000D01*
X2794000Y-7597000D02*
X2794000Y-7897000D01*
X2644000Y-7747000D02*
X2944000Y-7747000D01*
X4064000Y-2136000D02*
X4064000Y-2436000D01*
X3914000Y-2286000D02*
X4214000Y-2286000D01*
X4064000Y-4041000D02*
X4064000Y-4341000D01*
X3914000Y-4191000D02*
X4214000Y-4191000D01*
X4064000Y-5946000D02*
X4064000Y-6246000D01*
X3914000Y-6096000D02*
X4214000Y-6096000D01*
X4064000Y-7851000D02*
X4064000Y-8151000D01*
X3914000Y-8001000D02*
X4214000Y-8001000D01*
X4699000Y-1882000D02*
X4699000Y-2182000D01*
X4549000Y-2032000D02*
X4849000Y-2032000D01*
X4699000Y-3787000D02*
X4699000Y-4087000D01*
X4549000Y-3937000D02*
X4849000Y-3937000D01*
X4699000Y-5692000D02*
X4699000Y-5992000D01*
X4549000Y-5842000D02*
X4849000Y-5842000D01*
X4699000Y-7597000D02*
X4699000Y-7897000D01*
X4549000Y-7747000D02*
X4849000Y-7747000D01*
X5969000Y-2136000D02*
X5969000Y-2436000D01*
X5819000Y-2286000D02*
X6119000Y-2286000D01*
X5969000Y-4041000D02*
X5969000Y-4341000D01*
X5819000Y-4191000D02*
X6119000Y-4191000D01*
X5969000Y-5946000D02*
X5969000Y-6246000D01*
X5819000Y-6096000D02*
X6119000Y-6096000D01*
X5969000Y-7851000D02*
X5969000Y-8151000D01*
X5819000Y-8001000D02*
X6119000Y-8001000D01*
X6604000Y-1882000D02*
X6604000Y-2182000D01*
X6454000Y-2032000D02*
X6754000Y-2032000D01*
X6604000Y-3787000D02*
X6604000Y-4087000D01*
X6454000Y-3937000D02*
X6754000Y-3937000D01*
X6604000Y-5692000D02*
X6604000Y-5992000D01*
X6454000Y-5842000D02*
X6754000Y-5842000D01*
X6604000Y-7597000D02*
X6604000Y-7897000D01*
X6454000Y-7747000D02*
X6754000Y-7747000D01*
X7874000Y-2136000D02*
X7874000Y-2436000D01*
X7724000Y-2286000D02*
X8024000Y-2286000D01*
X7874000Y-4041000D02*
X7874000Y-4341000D01*
X7724000Y-4191000D02*
X8024000Y-4191000D01*
X7874000Y-5946000D02*
X7874000Y-6246000D01*
X7724000Y-6096000D02*
X8024000Y-6096000D01*
X7874000Y-7851000D02*
X7874000Y-8151000D01*
X7724000Y-8001000D02*
X8024000Y-8001000D01*
X8509000Y-1882000D02*
X8509000Y-2182000D01*
X8359000Y-2032000D02*
X8659000Y-2032000D01*
X8509000Y-3787000D02*
X8509000Y-4087000D01*
X8359000Y-3937000D02*
X8659000Y-3937000D01*
X8509000Y-5692000D02*
X8509000Y-5992000D01*
X8359000Y-5842000D02*
X8659000Y-5842000D01*
X8509000Y-7597000D02*
X8509000Y-7897000D01*
X8359000Y-7747000D02*
X8659000Y-7747000D01*
X9779000Y-2136000D02*
X9779000Y-2436000D01*
X9629000Y-2286000D02*
X9929000Y-2286000D01*
X9779000Y-4041000D02*
X9779000Y-4341000D01*
X9629000Y-4191000D02*
X9929000Y-4191000D01*
X9779000Y-5946000D02*
X9779000Y-6246000D01*
X9629000Y-6096000D02*
X9929000Y-6096000D01*
X9779000Y-7851000D02*
X9779000Y-8151000D01*
X9629000Y-8001000D02*
X9929000Y-8001000D01*
X10414000Y-1882000D02*
X10414000Y-2182000D01*
X10264000Y-2032000D02*
X10564000Y-2032000D01*
X10414000Y-3787000D02*
X10414000Y-4087000D01*
X10264000Y-3937000D02*
X10564000Y-3937000D01*
X10414000Y-5692000D02*
X10414000Y-5992000D01*
X10264000Y-5842000D02*
X10564000Y-5842000D01*
X10414000Y-7597000D02*
X10414000Y-7897000D01*
X10264000Y-7747000D02*
X10564000Y-7747000D01*
X10858500Y-8613000D02*
X10858500Y-8913000D01*
X10708500Y-8763000D02*
X11008500Y-8763000D01*
X11493500Y-8359000D02*
X11493500Y-8659000D01*
X11343500Y-8509000D02*
X11643500Y-8509000D01*
X11684000Y-2136000D02*
X11684000Y-2436000D01*
X11534000Y-2286000D02*
X11834000Y-2286000D01*
X11684000Y-4041000D02*
X11684000Y-4341000D01*
X11534000Y-4191000D02*
X11834000Y-4191000D01*
X11684000Y-5946000D02*
X11684000Y-6246000D01*
X11534000Y-6096000D02*
X11834000Y-6096000D01*
X11684000Y-7851000D02*
X11684000Y-8151000D01*
X11534000Y-8001000D02*
X11834000Y-8001000D01*
X12319000Y-1882000D02*
X12319000Y-2182000D01*
X12169000Y-2032000D02*
X12469000Y-2032000D01*
X12319000Y-3787000D02*
X12319000Y-4087000D01*
X12169000Y-3937000D02*
X12469000Y-3937000D01*
X12319000Y-5692000D02*
X12319000Y-5992000D01*
X12169000Y-5842000D02*
X12469000Y-5842000D01*
X12319000Y-7597000D02*
X12319000Y-7897000D01*
X12169000Y-7747000D02*
X12469000Y-7747000D01*
X13589000Y-2136000D02*
X13589000Y-2436000D01*
X13439000Y-2286000D02*
X13739000Y-2286000D01*
X13589000Y-4041000D02*
X13589000Y-4341000D01*
X13439000Y-4191000D02*
X13739000Y-4191000D01*
X13589000Y-5946000D02*
X13589000Y-6246000D01*
X13439000Y-6096000D02*
X13739000Y-6096000D01*
X13589000Y-7851000D02*
X13589000Y-8151000D01*
X13439000Y-8001000D02*
X13739000Y-8001000D01*
X14224000Y-1882000D02*
X14224000Y-2182000D01*
X14074000Y-2032000D02*
X14374000Y-2032000D01*
X14224000Y-3787000D02*
X14224000Y-4087000D01*
X14074000Y-3937000D02*
X14374000Y-3937000D01*
X14224000Y-5692000D02*
X14224000Y-5992000D01*
X14074000Y-5842000D02*
X14374000Y-5842000D01*
X14224000Y-7597000D02*
X14224000Y-7897000D01*
X14074000Y-7747000D02*
X14374000Y-7747000D01*
X14668500Y-8613000D02*
X14668500Y-8913000D01*
X14518500Y-8763000D02*
X14818500Y-8763000D01*
X15303500Y-8359000D02*
X15303500Y-8659000D01*
X15153500Y-8509000D02*
X15453500Y-8509000D01*
X15494000Y-2136000D02*
X15494000Y-2436000D01*
X15344000Y-2286000D02*
X15644000Y-2286000D01*
X15494000Y-4041000D02*
X15494000Y-4341000D01*
X15344000Y-4191000D02*
X15644000Y-4191000D01*
X15494000Y-5946000D02*
X15494000Y-6246000D01*
X15344000Y-6096000D02*
X15644000Y-6096000D01*
X15494000Y-7851000D02*
X15494000Y-8151000D01*
X15344000Y-8001000D02*
X15644000Y-8001000D01*
X16129000Y-1882000D02*
X16129000Y-2182000D01*
X15979000Y-2032000D02*
X16279000Y-2032000D01*
X16129000Y-3787000D02*
X16129000Y-4087000D01*
X15979000Y-3937000D02*
X16279000Y-3937000D01*
X16129000Y-5692000D02*
X16129000Y-5992000D01*
X15979000Y-5842000D02*
X16279000Y-5842000D01*
X16129000Y-7597000D02*
X16129000Y-7897000D01*
X15979000Y-7747000D02*
X16279000Y-7747000D01*
X17399000Y-2136000D02*
X17399000Y-2436000D01*
X17249000Y-2286000D02*
X17549000Y-2286000D01*
X17399000Y-4041000D02*
X17399000Y-4341000D01*
X17249000Y-4191000D02*
X17549000Y-4191000D01*
X17399000Y-5946000D02*
X17399000Y-6246000D01*
X17249000Y-6096000D02*
X17549000Y-6096000D01*
X17399000Y-7851000D02*
X17399000Y-8151000D01*
X17249000Y-8001000D02*
X17549000Y-8001000D01*
X18034000Y-1882000D02*
X18034000Y-2182000D01*
X17884000Y-2032000D02*
X18184000Y-2032000D01*
X18034000Y-3787000D02*
X18034000Y-4087000D01*
X17884000Y-3937000D02*
X18184000Y-3937000D01*
X18034000Y-5692000D02*
X18034000Y-5992000D01*
X17884000Y-5842000D02*
X18184000Y-5842000D01*
X18034000Y-7597000D02*
X18034000Y-7897000D01*
X17884000Y-7747000D02*
X18184000Y-7747000D01*
X19304000Y-2136000D02*
X19304000Y-2436000D01*
X19154000Y-2286000D02*
X19454000Y-2286000D01*
X19304000Y-4041000D02*
X19304000Y-4341000D01*
X19154000Y-4191000D02*
X19454000Y-4191000D01*
X19304000Y-5946000D02*
X19304000Y-6246000D01*
X19154000Y-6096000D02*
X19454000Y-6096000D01*
X19304000Y-7851000D02*
X19304000Y-8151000D01*
X19154000Y-8001000D02*
X19454000Y-8001000D01*
X19939000Y-1882000D02*
X19939000Y-2182000D01*
X19789000Y-2032000D02*
X20089000Y-2032000D01*
X19939000Y-3787000D02*
X19939000Y-4087000D01*
X19789000Y-3937000D02*
X20089000Y-3937000D01*
X19939000Y-5692000D02*
X19939000Y-5992000D01*
X19789000Y-5842000D02*
X20089000Y-5842000D01*
X19939000Y-7597000D02*
X19939000Y-7897000D01*
X19789000Y-7747000D02*
X20089000Y-7747000D01*
X20383500Y-8613000D02*
X20383500Y-8913000D01*
X20233500Y-8763000D02*
X20533500Y-8763000D01*
X21018500Y-8359000D02*
X21018500Y-8659000D01*
X20868500Y-8509000D02*
X21168500Y-8509000D01*
X21209000Y-2136000D02*
X21209000Y-2436000D01*
X21059000Y-2286000D02*
X21359000Y-2286000D01*
X21209000Y-4041000D02*
X21209000Y-4341000D01*
X21059000Y-4191000D02*
X21359000Y-4191000D01*
X21209000Y-5946000D02*
X21209000Y-6246000D01*
X21059000Y-6096000D02*
X21359000Y-6096000D01*
X21209000Y-7851000D02*
X21209000Y-8151000D01*
X21059000Y-8001000D02*
X21359000Y-8001000D01*
X21844000Y-1882000D02*
X21844000Y-2182000D01*
X21694000Y-2032000D02*
X21994000Y-2032000D01*
X21844000Y-3787000D02*
X21844000Y-4087000D01*
X21694000Y-3937000D02*
X21994000Y-3937000D01*
X21844000Y-5692000D02*
X21844000Y-5992000D01*
X21694000Y-5842000D02*
X21994000Y-5842000D01*
X21844000Y-7597000D02*
X21844000Y-7897000D01*
X21694000Y-7747000D02*
X21994000Y-7747000D01*
X22288500Y-8613000D02*
X22288500Y-8913000D01*
X22138500Y-8763000D02*
X22438500Y-8763000D01*
X22923500Y-8359000D02*
X22923500Y-8659000D01*
X22773500Y-8509000D02*
X23073500Y-8509000D01*
X23114000Y-2136000D02*
X23114000Y-2436000D01*
X22964000Y-2286000D02*
X23264000Y-2286000D01*
X23114000Y-4041000D02*
X23114000Y-4341000D01*
X22964000Y-4191000D02*
X23264000Y-4191000D01*
X23114000Y-5946000D02*
X23114000Y-6246000D01*
X22964000Y-6096000D02*
X23264000Y-6096000D01*
X23114000Y-7851000D02*
X23114000Y-8151000D01*
X22964000Y-8001000D02*
X23264000Y-8001000D01*
X23749000Y-1882000D02*
X23749000Y-2182000D01*
X23599000Y-2032000D02*
X23899000Y-2032000D01*
X23749000Y-3787000D02*
X23749000Y-4087000D01*
X23599000Y-3937000D02*
X23899000Y-3937000D01*
X23749000Y-5692000D02*
X23749000Y-5992000D01*
X23599000Y-5842000D02*
X23899000Y-5842000D01*
X23749000Y-7597000D02*
X23749000Y-7897000D01*
X23599000Y-7747000D02*
X23899000Y-7747000D01*
X25019000Y-2136000D02*
X25019000Y-2436000D01*
X24869000Y-2286000D02*
X25169000Y-2286000D01*
X25019000Y-4041000D02*
X25019000Y-4341000D01*
X24869000Y-4191000D02*
X25169000Y-4191000D01*
X25019000Y-5946000D02*
X25019000Y-6246000D01*
X24869000Y-6096000D02*
X25169000Y-6096000D01*
X25019000Y-7851000D02*
X25019000Y-8151000D01*
X24869000Y-8001000D02*
X25169000Y-8001000D01*
X25654000Y-1882000D02*
X25654000Y-2182000D01*
X25504000Y-2032000D02*
X25804000Y-2032000D01*
X25654000Y-3787000D02*
X25654000Y-4087000D01*
X25504000Y-3937000D02*
X25804000Y-3937000D01*
X25654000Y-5692000D02*
X25654000Y-5992000D01*
X25504000Y-5842000D02*
X25804000Y-5842000D01*
X25654000Y-7597000D02*
X25654000Y-7897000D01*
X25504000Y-7747000D02*
X25804000Y-7747000D01*
X26098479Y-8613000D02*
X26098479Y-8913000D01*
X25948479Y-8763000D02*
X26248479Y-8763000D01*
X26733479Y-8359000D02*
X26733479Y-8659000D01*
X26583479Y-8509000D02*
X26883479Y-8509000D01*
X26924000Y-2136000D02*
X26924000Y-2436000D01*
X26774000Y-2286000D02*
X27074000Y-2286000D01*
X26924000Y-4041000D02*
X26924000Y-4341000D01*
X26774000Y-4191000D02*
X27074000Y-4191000D01*
X26924000Y-5946000D02*
X26924000Y-6246000D01*
X26774000Y-6096000D02*
X27074000Y-6096000D01*
X26924000Y-7851000D02*
X26924000Y-8151000D01*
X26774000Y-8001000D02*
X27074000Y-8001000D01*
X27559000Y-1882000D02*
X27559000Y-2182000D01*
X27409000Y-2032000D02*
X27709000Y-2032000D01*
X27559000Y-3787000D02*
X27559000Y-4087000D01*
X27409000Y-3937000D02*
X27709000Y-3937000D01*
X27559000Y-5692000D02*
X27559000Y-5992000D01*
X27409000Y-5842000D02*
X27709000Y-5842000D01*
X27559000Y-7597000D02*
X27559000Y-7897000D01*
X27409000Y-7747000D02*
X27709000Y-7747000D01*
X28829000Y-2136000D02*
X28829000Y-2436000D01*
X28679000Y-2286000D02*
X28979000Y-2286000D01*
X28829000Y-4041000D02*
X28829000Y-4341000D01*
X28679000Y-4191000D02*
X28979000Y-4191000D01*
X28829000Y-5946000D02*
X28829000Y-6246000D01*
X28679000Y-6096000D02*
X28979000Y-6096000D01*
X28829000Y-7851000D02*
X28829000Y-8151000D01*
X28679000Y-8001000D02*
X28979000Y-8001000D01*
X29464000Y-1882000D02*
X29464000Y-2182000D01*
X29314000Y-2032000D02*
X29614000Y-2032000D01*
X29464000Y-3787000D02*
X29464000Y-4087000D01*
X29314000Y-3937000D02*
X29614000Y-3937000D01*
X29464000Y-5692000D02*
X29464000Y-5992000D01*
X29314000Y-5842000D02*
X29614000Y-5842000D01*
X29464000Y-7597000D02*
X29464000Y-7897000D01*
X29314000Y-7747000D02*
X29614000Y-7747000D01*
X30734000Y-7851000D02*
X30734000Y-8151000D01*
X30584000Y-8001000D02*
X30884000Y-8001000D01*
X31210250Y-2136000D02*
X31210250Y-2436000D01*
X31060250Y-2286000D02*
X31360250Y-2286000D01*
X31210250Y-4517250D02*
X31210250Y-4817250D01*
X31060250Y-4667250D02*
X31360250Y-4667250D01*
X31369000Y-7597000D02*
X31369000Y-7897000D01*
X31219000Y-7747000D02*
X31519000Y-7747000D01*
X31845250Y-1882000D02*
X31845250Y-2182000D01*
X31695250Y-2032000D02*
X31995250Y-2032000D01*
X31845250Y-4263250D02*
X31845250Y-4563250D01*
X31695250Y-4413250D02*
X31995250Y-4413250D01*
D14*
X10029639Y-9061264D02*
X10029639Y-8845736D01*
X9814111Y-8845736D01*
X9814111Y-9061264D01*
X10029639Y-9061264D01*
X12410889Y-9061264D02*
X12410889Y-8845736D01*
X12195361Y-8845736D01*
X12195361Y-9061264D01*
X12410889Y-9061264D01*
X13839639Y-9061264D02*
X13839639Y-8845736D01*
X13624111Y-8845736D01*
X13624111Y-9061264D01*
X13839639Y-9061264D01*
X16220889Y-9061264D02*
X16220889Y-8845736D01*
X16005361Y-8845736D01*
X16005361Y-9061264D01*
X16220889Y-9061264D01*
X19554639Y-9061264D02*
X19554639Y-8845736D01*
X19339111Y-8845736D01*
X19339111Y-9061264D01*
X19554639Y-9061264D01*
X21459639Y-9061264D02*
X21459639Y-8845736D01*
X21244111Y-8845736D01*
X21244111Y-9061264D01*
X21459639Y-9061264D01*
X23840889Y-9061264D02*
X23840889Y-8845736D01*
X23625361Y-8845736D01*
X23625361Y-9061264D01*
X23840889Y-9061264D01*
X25269618Y-9061264D02*
X25269618Y-8845736D01*
X25054090Y-8845736D01*
X25054090Y-9061264D01*
X25269618Y-9061264D01*
X27650868Y-9061264D02*
X27650868Y-8845736D01*
X27435340Y-8845736D01*
X27435340Y-9061264D01*
X27650868Y-9061264D01*
D11*
X1845777Y-9521484D02*
X1845777Y-9321484D01*
X1845777Y-9321484D02*
X1893396Y-9321484D01*
X1893396Y-9321484D02*
X1921967Y-9331008D01*
X1921967Y-9331008D02*
X1941015Y-9350055D01*
X1941015Y-9350055D02*
X1950539Y-9369103D01*
X1950539Y-9369103D02*
X1960062Y-9407198D01*
X1960062Y-9407198D02*
X1960062Y-9435770D01*
X1960062Y-9435770D02*
X1950539Y-9473865D01*
X1950539Y-9473865D02*
X1941015Y-9492912D01*
X1941015Y-9492912D02*
X1921967Y-9511960D01*
X1921967Y-9511960D02*
X1893396Y-9521484D01*
X1893396Y-9521484D02*
X1845777Y-9521484D01*
X2045777Y-9521484D02*
X2045777Y-9388150D01*
X2045777Y-9426246D02*
X2055301Y-9407198D01*
X2055301Y-9407198D02*
X2064824Y-9397674D01*
X2064824Y-9397674D02*
X2083872Y-9388150D01*
X2083872Y-9388150D02*
X2102920Y-9388150D01*
X2169586Y-9521484D02*
X2169586Y-9388150D01*
X2169586Y-9321484D02*
X2160063Y-9331008D01*
X2160063Y-9331008D02*
X2169586Y-9340531D01*
X2169586Y-9340531D02*
X2179110Y-9331008D01*
X2179110Y-9331008D02*
X2169586Y-9321484D01*
X2169586Y-9321484D02*
X2169586Y-9340531D01*
X2293396Y-9521484D02*
X2274348Y-9511960D01*
X2274348Y-9511960D02*
X2264824Y-9492912D01*
X2264824Y-9492912D02*
X2264824Y-9321484D01*
X2398158Y-9521484D02*
X2379110Y-9511960D01*
X2379110Y-9511960D02*
X2369586Y-9492912D01*
X2369586Y-9492912D02*
X2369586Y-9321484D01*
X2626729Y-9521484D02*
X2626729Y-9321484D01*
X2626729Y-9321484D02*
X2693396Y-9464341D01*
X2693396Y-9464341D02*
X2760063Y-9321484D01*
X2760063Y-9321484D02*
X2760063Y-9521484D01*
X2941015Y-9521484D02*
X2941015Y-9416722D01*
X2941015Y-9416722D02*
X2931491Y-9397674D01*
X2931491Y-9397674D02*
X2912443Y-9388150D01*
X2912443Y-9388150D02*
X2874348Y-9388150D01*
X2874348Y-9388150D02*
X2855301Y-9397674D01*
X2941015Y-9511960D02*
X2921967Y-9521484D01*
X2921967Y-9521484D02*
X2874348Y-9521484D01*
X2874348Y-9521484D02*
X2855301Y-9511960D01*
X2855301Y-9511960D02*
X2845777Y-9492912D01*
X2845777Y-9492912D02*
X2845777Y-9473865D01*
X2845777Y-9473865D02*
X2855301Y-9454817D01*
X2855301Y-9454817D02*
X2874348Y-9445293D01*
X2874348Y-9445293D02*
X2921967Y-9445293D01*
X2921967Y-9445293D02*
X2941015Y-9435770D01*
X3036253Y-9388150D02*
X3036253Y-9588150D01*
X3036253Y-9397674D02*
X3055301Y-9388150D01*
X3055301Y-9388150D02*
X3093396Y-9388150D01*
X3093396Y-9388150D02*
X3112443Y-9397674D01*
X3112443Y-9397674D02*
X3121967Y-9407198D01*
X3121967Y-9407198D02*
X3131491Y-9426246D01*
X3131491Y-9426246D02*
X3131491Y-9483389D01*
X3131491Y-9483389D02*
X3121967Y-9502436D01*
X3121967Y-9502436D02*
X3112443Y-9511960D01*
X3112443Y-9511960D02*
X3093396Y-9521484D01*
X3093396Y-9521484D02*
X3055301Y-9521484D01*
X3055301Y-9521484D02*
X3036253Y-9511960D01*
X3217205Y-9502436D02*
X3226729Y-9511960D01*
X3226729Y-9511960D02*
X3217205Y-9521484D01*
X3217205Y-9521484D02*
X3207682Y-9511960D01*
X3207682Y-9511960D02*
X3217205Y-9502436D01*
X3217205Y-9502436D02*
X3217205Y-9521484D01*
X3217205Y-9397674D02*
X3226729Y-9407198D01*
X3226729Y-9407198D02*
X3217205Y-9416722D01*
X3217205Y-9416722D02*
X3207682Y-9407198D01*
X3207682Y-9407198D02*
X3217205Y-9397674D01*
X3217205Y-9397674D02*
X3217205Y-9416722D01*
D12*
X1555000Y-9835000D02*
X1585000Y-9865000D01*
X1585000Y-9835000D02*
X1555000Y-9865000D01*
D11*
X1883872Y-9741484D02*
X1902920Y-9741484D01*
X1902920Y-9741484D02*
X1921967Y-9751008D01*
X1921967Y-9751008D02*
X1931491Y-9760531D01*
X1931491Y-9760531D02*
X1941015Y-9779579D01*
X1941015Y-9779579D02*
X1950539Y-9817674D01*
X1950539Y-9817674D02*
X1950539Y-9865293D01*
X1950539Y-9865293D02*
X1941015Y-9903389D01*
X1941015Y-9903389D02*
X1931491Y-9922436D01*
X1931491Y-9922436D02*
X1921967Y-9931960D01*
X1921967Y-9931960D02*
X1902920Y-9941484D01*
X1902920Y-9941484D02*
X1883872Y-9941484D01*
X1883872Y-9941484D02*
X1864824Y-9931960D01*
X1864824Y-9931960D02*
X1855301Y-9922436D01*
X1855301Y-9922436D02*
X1845777Y-9903389D01*
X1845777Y-9903389D02*
X1836253Y-9865293D01*
X1836253Y-9865293D02*
X1836253Y-9817674D01*
X1836253Y-9817674D02*
X1845777Y-9779579D01*
X1845777Y-9779579D02*
X1855301Y-9760531D01*
X1855301Y-9760531D02*
X1864824Y-9751008D01*
X1864824Y-9751008D02*
X1883872Y-9741484D01*
X2036253Y-9922436D02*
X2045777Y-9931960D01*
X2045777Y-9931960D02*
X2036253Y-9941484D01*
X2036253Y-9941484D02*
X2026729Y-9931960D01*
X2026729Y-9931960D02*
X2036253Y-9922436D01*
X2036253Y-9922436D02*
X2036253Y-9941484D01*
X2112444Y-9741484D02*
X2236253Y-9741484D01*
X2236253Y-9741484D02*
X2169586Y-9817674D01*
X2169586Y-9817674D02*
X2198158Y-9817674D01*
X2198158Y-9817674D02*
X2217205Y-9827198D01*
X2217205Y-9827198D02*
X2226729Y-9836722D01*
X2226729Y-9836722D02*
X2236253Y-9855770D01*
X2236253Y-9855770D02*
X2236253Y-9903389D01*
X2236253Y-9903389D02*
X2226729Y-9922436D01*
X2226729Y-9922436D02*
X2217205Y-9931960D01*
X2217205Y-9931960D02*
X2198158Y-9941484D01*
X2198158Y-9941484D02*
X2141015Y-9941484D01*
X2141015Y-9941484D02*
X2121967Y-9931960D01*
X2121967Y-9931960D02*
X2112444Y-9922436D01*
X2360063Y-9741484D02*
X2379110Y-9741484D01*
X2379110Y-9741484D02*
X2398158Y-9751008D01*
X2398158Y-9751008D02*
X2407682Y-9760531D01*
X2407682Y-9760531D02*
X2417205Y-9779579D01*
X2417205Y-9779579D02*
X2426729Y-9817674D01*
X2426729Y-9817674D02*
X2426729Y-9865293D01*
X2426729Y-9865293D02*
X2417205Y-9903389D01*
X2417205Y-9903389D02*
X2407682Y-9922436D01*
X2407682Y-9922436D02*
X2398158Y-9931960D01*
X2398158Y-9931960D02*
X2379110Y-9941484D01*
X2379110Y-9941484D02*
X2360063Y-9941484D01*
X2360063Y-9941484D02*
X2341015Y-9931960D01*
X2341015Y-9931960D02*
X2331491Y-9922436D01*
X2331491Y-9922436D02*
X2321967Y-9903389D01*
X2321967Y-9903389D02*
X2312444Y-9865293D01*
X2312444Y-9865293D02*
X2312444Y-9817674D01*
X2312444Y-9817674D02*
X2321967Y-9779579D01*
X2321967Y-9779579D02*
X2331491Y-9760531D01*
X2331491Y-9760531D02*
X2341015Y-9751008D01*
X2341015Y-9751008D02*
X2360063Y-9741484D01*
X2550539Y-9741484D02*
X2569586Y-9741484D01*
X2569586Y-9741484D02*
X2588634Y-9751008D01*
X2588634Y-9751008D02*
X2598158Y-9760531D01*
X2598158Y-9760531D02*
X2607682Y-9779579D01*
X2607682Y-9779579D02*
X2617205Y-9817674D01*
X2617205Y-9817674D02*
X2617205Y-9865293D01*
X2617205Y-9865293D02*
X2607682Y-9903389D01*
X2607682Y-9903389D02*
X2598158Y-9922436D01*
X2598158Y-9922436D02*
X2588634Y-9931960D01*
X2588634Y-9931960D02*
X2569586Y-9941484D01*
X2569586Y-9941484D02*
X2550539Y-9941484D01*
X2550539Y-9941484D02*
X2531491Y-9931960D01*
X2531491Y-9931960D02*
X2521967Y-9922436D01*
X2521967Y-9922436D02*
X2512444Y-9903389D01*
X2512444Y-9903389D02*
X2502920Y-9865293D01*
X2502920Y-9865293D02*
X2502920Y-9817674D01*
X2502920Y-9817674D02*
X2512444Y-9779579D01*
X2512444Y-9779579D02*
X2521967Y-9760531D01*
X2521967Y-9760531D02*
X2531491Y-9751008D01*
X2531491Y-9751008D02*
X2550539Y-9741484D01*
X2702920Y-9941484D02*
X2702920Y-9808150D01*
X2702920Y-9827198D02*
X2712444Y-9817674D01*
X2712444Y-9817674D02*
X2731491Y-9808150D01*
X2731491Y-9808150D02*
X2760063Y-9808150D01*
X2760063Y-9808150D02*
X2779110Y-9817674D01*
X2779110Y-9817674D02*
X2788634Y-9836722D01*
X2788634Y-9836722D02*
X2788634Y-9941484D01*
X2788634Y-9836722D02*
X2798158Y-9817674D01*
X2798158Y-9817674D02*
X2817205Y-9808150D01*
X2817205Y-9808150D02*
X2845777Y-9808150D01*
X2845777Y-9808150D02*
X2864824Y-9817674D01*
X2864824Y-9817674D02*
X2874348Y-9836722D01*
X2874348Y-9836722D02*
X2874348Y-9941484D01*
X2969586Y-9941484D02*
X2969586Y-9808150D01*
X2969586Y-9827198D02*
X2979110Y-9817674D01*
X2979110Y-9817674D02*
X2998158Y-9808150D01*
X2998158Y-9808150D02*
X3026729Y-9808150D01*
X3026729Y-9808150D02*
X3045777Y-9817674D01*
X3045777Y-9817674D02*
X3055301Y-9836722D01*
X3055301Y-9836722D02*
X3055301Y-9941484D01*
X3055301Y-9836722D02*
X3064824Y-9817674D01*
X3064824Y-9817674D02*
X3083872Y-9808150D01*
X3083872Y-9808150D02*
X3112443Y-9808150D01*
X3112443Y-9808150D02*
X3131491Y-9817674D01*
X3131491Y-9817674D02*
X3141015Y-9836722D01*
X3141015Y-9836722D02*
X3141015Y-9941484D01*
X3531491Y-9731960D02*
X3360063Y-9989103D01*
X3788634Y-9741484D02*
X3807682Y-9741484D01*
X3807682Y-9741484D02*
X3826729Y-9751008D01*
X3826729Y-9751008D02*
X3836253Y-9760531D01*
X3836253Y-9760531D02*
X3845777Y-9779579D01*
X3845777Y-9779579D02*
X3855301Y-9817674D01*
X3855301Y-9817674D02*
X3855301Y-9865293D01*
X3855301Y-9865293D02*
X3845777Y-9903389D01*
X3845777Y-9903389D02*
X3836253Y-9922436D01*
X3836253Y-9922436D02*
X3826729Y-9931960D01*
X3826729Y-9931960D02*
X3807682Y-9941484D01*
X3807682Y-9941484D02*
X3788634Y-9941484D01*
X3788634Y-9941484D02*
X3769586Y-9931960D01*
X3769586Y-9931960D02*
X3760063Y-9922436D01*
X3760063Y-9922436D02*
X3750539Y-9903389D01*
X3750539Y-9903389D02*
X3741015Y-9865293D01*
X3741015Y-9865293D02*
X3741015Y-9817674D01*
X3741015Y-9817674D02*
X3750539Y-9779579D01*
X3750539Y-9779579D02*
X3760063Y-9760531D01*
X3760063Y-9760531D02*
X3769586Y-9751008D01*
X3769586Y-9751008D02*
X3788634Y-9741484D01*
X3941015Y-9922436D02*
X3950539Y-9931960D01*
X3950539Y-9931960D02*
X3941015Y-9941484D01*
X3941015Y-9941484D02*
X3931491Y-9931960D01*
X3931491Y-9931960D02*
X3941015Y-9922436D01*
X3941015Y-9922436D02*
X3941015Y-9941484D01*
X4074348Y-9741484D02*
X4093396Y-9741484D01*
X4093396Y-9741484D02*
X4112444Y-9751008D01*
X4112444Y-9751008D02*
X4121967Y-9760531D01*
X4121967Y-9760531D02*
X4131491Y-9779579D01*
X4131491Y-9779579D02*
X4141015Y-9817674D01*
X4141015Y-9817674D02*
X4141015Y-9865293D01*
X4141015Y-9865293D02*
X4131491Y-9903389D01*
X4131491Y-9903389D02*
X4121967Y-9922436D01*
X4121967Y-9922436D02*
X4112444Y-9931960D01*
X4112444Y-9931960D02*
X4093396Y-9941484D01*
X4093396Y-9941484D02*
X4074348Y-9941484D01*
X4074348Y-9941484D02*
X4055301Y-9931960D01*
X4055301Y-9931960D02*
X4045777Y-9922436D01*
X4045777Y-9922436D02*
X4036253Y-9903389D01*
X4036253Y-9903389D02*
X4026729Y-9865293D01*
X4026729Y-9865293D02*
X4026729Y-9817674D01*
X4026729Y-9817674D02*
X4036253Y-9779579D01*
X4036253Y-9779579D02*
X4045777Y-9760531D01*
X4045777Y-9760531D02*
X4055301Y-9751008D01*
X4055301Y-9751008D02*
X4074348Y-9741484D01*
X4331491Y-9941484D02*
X4217206Y-9941484D01*
X4274348Y-9941484D02*
X4274348Y-9741484D01*
X4274348Y-9741484D02*
X4255301Y-9770055D01*
X4255301Y-9770055D02*
X4236253Y-9789103D01*
X4236253Y-9789103D02*
X4217206Y-9798627D01*
X4521968Y-9941484D02*
X4407682Y-9941484D01*
X4464825Y-9941484D02*
X4464825Y-9741484D01*
X4464825Y-9741484D02*
X4445777Y-9770055D01*
X4445777Y-9770055D02*
X4426729Y-9789103D01*
X4426729Y-9789103D02*
X4407682Y-9798627D01*
X4636253Y-9827198D02*
X4617206Y-9817674D01*
X4617206Y-9817674D02*
X4607682Y-9808150D01*
X4607682Y-9808150D02*
X4598158Y-9789103D01*
X4598158Y-9789103D02*
X4598158Y-9779579D01*
X4598158Y-9779579D02*
X4607682Y-9760531D01*
X4607682Y-9760531D02*
X4617206Y-9751008D01*
X4617206Y-9751008D02*
X4636253Y-9741484D01*
X4636253Y-9741484D02*
X4674349Y-9741484D01*
X4674349Y-9741484D02*
X4693396Y-9751008D01*
X4693396Y-9751008D02*
X4702920Y-9760531D01*
X4702920Y-9760531D02*
X4712444Y-9779579D01*
X4712444Y-9779579D02*
X4712444Y-9789103D01*
X4712444Y-9789103D02*
X4702920Y-9808150D01*
X4702920Y-9808150D02*
X4693396Y-9817674D01*
X4693396Y-9817674D02*
X4674349Y-9827198D01*
X4674349Y-9827198D02*
X4636253Y-9827198D01*
X4636253Y-9827198D02*
X4617206Y-9836722D01*
X4617206Y-9836722D02*
X4607682Y-9846246D01*
X4607682Y-9846246D02*
X4598158Y-9865293D01*
X4598158Y-9865293D02*
X4598158Y-9903389D01*
X4598158Y-9903389D02*
X4607682Y-9922436D01*
X4607682Y-9922436D02*
X4617206Y-9931960D01*
X4617206Y-9931960D02*
X4636253Y-9941484D01*
X4636253Y-9941484D02*
X4674349Y-9941484D01*
X4674349Y-9941484D02*
X4693396Y-9931960D01*
X4693396Y-9931960D02*
X4702920Y-9922436D01*
X4702920Y-9922436D02*
X4712444Y-9903389D01*
X4712444Y-9903389D02*
X4712444Y-9865293D01*
X4712444Y-9865293D02*
X4702920Y-9846246D01*
X4702920Y-9846246D02*
X4693396Y-9836722D01*
X4693396Y-9836722D02*
X4674349Y-9827198D01*
X4788634Y-9741484D02*
X4788634Y-9779579D01*
X4864825Y-9741484D02*
X4864825Y-9779579D01*
X5160063Y-10017674D02*
X5150539Y-10008150D01*
X5150539Y-10008150D02*
X5131491Y-9979579D01*
X5131491Y-9979579D02*
X5121968Y-9960531D01*
X5121968Y-9960531D02*
X5112444Y-9931960D01*
X5112444Y-9931960D02*
X5102920Y-9884341D01*
X5102920Y-9884341D02*
X5102920Y-9846246D01*
X5102920Y-9846246D02*
X5112444Y-9798627D01*
X5112444Y-9798627D02*
X5121968Y-9770055D01*
X5121968Y-9770055D02*
X5131491Y-9751008D01*
X5131491Y-9751008D02*
X5150539Y-9722436D01*
X5150539Y-9722436D02*
X5160063Y-9712912D01*
X5341015Y-9941484D02*
X5226730Y-9941484D01*
X5283872Y-9941484D02*
X5283872Y-9741484D01*
X5283872Y-9741484D02*
X5264825Y-9770055D01*
X5264825Y-9770055D02*
X5245777Y-9789103D01*
X5245777Y-9789103D02*
X5226730Y-9798627D01*
X5521968Y-9741484D02*
X5426730Y-9741484D01*
X5426730Y-9741484D02*
X5417206Y-9836722D01*
X5417206Y-9836722D02*
X5426730Y-9827198D01*
X5426730Y-9827198D02*
X5445777Y-9817674D01*
X5445777Y-9817674D02*
X5493396Y-9817674D01*
X5493396Y-9817674D02*
X5512444Y-9827198D01*
X5512444Y-9827198D02*
X5521968Y-9836722D01*
X5521968Y-9836722D02*
X5531491Y-9855770D01*
X5531491Y-9855770D02*
X5531491Y-9903389D01*
X5531491Y-9903389D02*
X5521968Y-9922436D01*
X5521968Y-9922436D02*
X5512444Y-9931960D01*
X5512444Y-9931960D02*
X5493396Y-9941484D01*
X5493396Y-9941484D02*
X5445777Y-9941484D01*
X5445777Y-9941484D02*
X5426730Y-9931960D01*
X5426730Y-9931960D02*
X5417206Y-9922436D01*
X5721968Y-9941484D02*
X5607682Y-9941484D01*
X5664825Y-9941484D02*
X5664825Y-9741484D01*
X5664825Y-9741484D02*
X5645777Y-9770055D01*
X5645777Y-9770055D02*
X5626729Y-9789103D01*
X5626729Y-9789103D02*
X5607682Y-9798627D01*
X5960063Y-9941484D02*
X5960063Y-9741484D01*
X6045777Y-9941484D02*
X6045777Y-9836722D01*
X6045777Y-9836722D02*
X6036253Y-9817674D01*
X6036253Y-9817674D02*
X6017206Y-9808150D01*
X6017206Y-9808150D02*
X5988634Y-9808150D01*
X5988634Y-9808150D02*
X5969587Y-9817674D01*
X5969587Y-9817674D02*
X5960063Y-9827198D01*
X6169587Y-9941484D02*
X6150539Y-9931960D01*
X6150539Y-9931960D02*
X6141015Y-9922436D01*
X6141015Y-9922436D02*
X6131491Y-9903389D01*
X6131491Y-9903389D02*
X6131491Y-9846246D01*
X6131491Y-9846246D02*
X6141015Y-9827198D01*
X6141015Y-9827198D02*
X6150539Y-9817674D01*
X6150539Y-9817674D02*
X6169587Y-9808150D01*
X6169587Y-9808150D02*
X6198158Y-9808150D01*
X6198158Y-9808150D02*
X6217206Y-9817674D01*
X6217206Y-9817674D02*
X6226730Y-9827198D01*
X6226730Y-9827198D02*
X6236253Y-9846246D01*
X6236253Y-9846246D02*
X6236253Y-9903389D01*
X6236253Y-9903389D02*
X6226730Y-9922436D01*
X6226730Y-9922436D02*
X6217206Y-9931960D01*
X6217206Y-9931960D02*
X6198158Y-9941484D01*
X6198158Y-9941484D02*
X6169587Y-9941484D01*
X6350539Y-9941484D02*
X6331491Y-9931960D01*
X6331491Y-9931960D02*
X6321968Y-9912912D01*
X6321968Y-9912912D02*
X6321968Y-9741484D01*
X6502920Y-9931960D02*
X6483872Y-9941484D01*
X6483872Y-9941484D02*
X6445777Y-9941484D01*
X6445777Y-9941484D02*
X6426730Y-9931960D01*
X6426730Y-9931960D02*
X6417206Y-9912912D01*
X6417206Y-9912912D02*
X6417206Y-9836722D01*
X6417206Y-9836722D02*
X6426730Y-9817674D01*
X6426730Y-9817674D02*
X6445777Y-9808150D01*
X6445777Y-9808150D02*
X6483872Y-9808150D01*
X6483872Y-9808150D02*
X6502920Y-9817674D01*
X6502920Y-9817674D02*
X6512444Y-9836722D01*
X6512444Y-9836722D02*
X6512444Y-9855770D01*
X6512444Y-9855770D02*
X6417206Y-9874817D01*
X6588634Y-9931960D02*
X6607682Y-9941484D01*
X6607682Y-9941484D02*
X6645777Y-9941484D01*
X6645777Y-9941484D02*
X6664825Y-9931960D01*
X6664825Y-9931960D02*
X6674349Y-9912912D01*
X6674349Y-9912912D02*
X6674349Y-9903389D01*
X6674349Y-9903389D02*
X6664825Y-9884341D01*
X6664825Y-9884341D02*
X6645777Y-9874817D01*
X6645777Y-9874817D02*
X6617206Y-9874817D01*
X6617206Y-9874817D02*
X6598158Y-9865293D01*
X6598158Y-9865293D02*
X6588634Y-9846246D01*
X6588634Y-9846246D02*
X6588634Y-9836722D01*
X6588634Y-9836722D02*
X6598158Y-9817674D01*
X6598158Y-9817674D02*
X6617206Y-9808150D01*
X6617206Y-9808150D02*
X6645777Y-9808150D01*
X6645777Y-9808150D02*
X6664825Y-9817674D01*
X6741015Y-10017674D02*
X6750539Y-10008150D01*
X6750539Y-10008150D02*
X6769587Y-9979579D01*
X6769587Y-9979579D02*
X6779111Y-9960531D01*
X6779111Y-9960531D02*
X6788634Y-9931960D01*
X6788634Y-9931960D02*
X6798158Y-9884341D01*
X6798158Y-9884341D02*
X6798158Y-9846246D01*
X6798158Y-9846246D02*
X6788634Y-9798627D01*
X6788634Y-9798627D02*
X6779111Y-9770055D01*
X6779111Y-9770055D02*
X6769587Y-9751008D01*
X6769587Y-9751008D02*
X6750539Y-9722436D01*
X6750539Y-9722436D02*
X6741015Y-9712912D01*
D12*
X1585000Y-10114000D02*
G75*
G02*
X1485000Y-10114000I-50000J0D01*
G01*
X1485000Y-10114000D02*
G75*
G02*
X1585000Y-10114000I50000J0D01*
G01*
D11*
X1950539Y-10205484D02*
X1836253Y-10205484D01*
X1893396Y-10205484D02*
X1893396Y-10005484D01*
X1893396Y-10005484D02*
X1874348Y-10034055D01*
X1874348Y-10034055D02*
X1855301Y-10053103D01*
X1855301Y-10053103D02*
X1836253Y-10062627D01*
X2036253Y-10186436D02*
X2045777Y-10195960D01*
X2045777Y-10195960D02*
X2036253Y-10205484D01*
X2036253Y-10205484D02*
X2026729Y-10195960D01*
X2026729Y-10195960D02*
X2036253Y-10186436D01*
X2036253Y-10186436D02*
X2036253Y-10205484D01*
X2169586Y-10005484D02*
X2188634Y-10005484D01*
X2188634Y-10005484D02*
X2207682Y-10015008D01*
X2207682Y-10015008D02*
X2217205Y-10024531D01*
X2217205Y-10024531D02*
X2226729Y-10043579D01*
X2226729Y-10043579D02*
X2236253Y-10081674D01*
X2236253Y-10081674D02*
X2236253Y-10129293D01*
X2236253Y-10129293D02*
X2226729Y-10167389D01*
X2226729Y-10167389D02*
X2217205Y-10186436D01*
X2217205Y-10186436D02*
X2207682Y-10195960D01*
X2207682Y-10195960D02*
X2188634Y-10205484D01*
X2188634Y-10205484D02*
X2169586Y-10205484D01*
X2169586Y-10205484D02*
X2150539Y-10195960D01*
X2150539Y-10195960D02*
X2141015Y-10186436D01*
X2141015Y-10186436D02*
X2131491Y-10167389D01*
X2131491Y-10167389D02*
X2121967Y-10129293D01*
X2121967Y-10129293D02*
X2121967Y-10081674D01*
X2121967Y-10081674D02*
X2131491Y-10043579D01*
X2131491Y-10043579D02*
X2141015Y-10024531D01*
X2141015Y-10024531D02*
X2150539Y-10015008D01*
X2150539Y-10015008D02*
X2169586Y-10005484D01*
X2360063Y-10005484D02*
X2379110Y-10005484D01*
X2379110Y-10005484D02*
X2398158Y-10015008D01*
X2398158Y-10015008D02*
X2407682Y-10024531D01*
X2407682Y-10024531D02*
X2417205Y-10043579D01*
X2417205Y-10043579D02*
X2426729Y-10081674D01*
X2426729Y-10081674D02*
X2426729Y-10129293D01*
X2426729Y-10129293D02*
X2417205Y-10167389D01*
X2417205Y-10167389D02*
X2407682Y-10186436D01*
X2407682Y-10186436D02*
X2398158Y-10195960D01*
X2398158Y-10195960D02*
X2379110Y-10205484D01*
X2379110Y-10205484D02*
X2360063Y-10205484D01*
X2360063Y-10205484D02*
X2341015Y-10195960D01*
X2341015Y-10195960D02*
X2331491Y-10186436D01*
X2331491Y-10186436D02*
X2321967Y-10167389D01*
X2321967Y-10167389D02*
X2312444Y-10129293D01*
X2312444Y-10129293D02*
X2312444Y-10081674D01*
X2312444Y-10081674D02*
X2321967Y-10043579D01*
X2321967Y-10043579D02*
X2331491Y-10024531D01*
X2331491Y-10024531D02*
X2341015Y-10015008D01*
X2341015Y-10015008D02*
X2360063Y-10005484D01*
X2550539Y-10005484D02*
X2569586Y-10005484D01*
X2569586Y-10005484D02*
X2588634Y-10015008D01*
X2588634Y-10015008D02*
X2598158Y-10024531D01*
X2598158Y-10024531D02*
X2607682Y-10043579D01*
X2607682Y-10043579D02*
X2617205Y-10081674D01*
X2617205Y-10081674D02*
X2617205Y-10129293D01*
X2617205Y-10129293D02*
X2607682Y-10167389D01*
X2607682Y-10167389D02*
X2598158Y-10186436D01*
X2598158Y-10186436D02*
X2588634Y-10195960D01*
X2588634Y-10195960D02*
X2569586Y-10205484D01*
X2569586Y-10205484D02*
X2550539Y-10205484D01*
X2550539Y-10205484D02*
X2531491Y-10195960D01*
X2531491Y-10195960D02*
X2521967Y-10186436D01*
X2521967Y-10186436D02*
X2512444Y-10167389D01*
X2512444Y-10167389D02*
X2502920Y-10129293D01*
X2502920Y-10129293D02*
X2502920Y-10081674D01*
X2502920Y-10081674D02*
X2512444Y-10043579D01*
X2512444Y-10043579D02*
X2521967Y-10024531D01*
X2521967Y-10024531D02*
X2531491Y-10015008D01*
X2531491Y-10015008D02*
X2550539Y-10005484D01*
X2702920Y-10205484D02*
X2702920Y-10072150D01*
X2702920Y-10091198D02*
X2712444Y-10081674D01*
X2712444Y-10081674D02*
X2731491Y-10072150D01*
X2731491Y-10072150D02*
X2760063Y-10072150D01*
X2760063Y-10072150D02*
X2779110Y-10081674D01*
X2779110Y-10081674D02*
X2788634Y-10100722D01*
X2788634Y-10100722D02*
X2788634Y-10205484D01*
X2788634Y-10100722D02*
X2798158Y-10081674D01*
X2798158Y-10081674D02*
X2817205Y-10072150D01*
X2817205Y-10072150D02*
X2845777Y-10072150D01*
X2845777Y-10072150D02*
X2864824Y-10081674D01*
X2864824Y-10081674D02*
X2874348Y-10100722D01*
X2874348Y-10100722D02*
X2874348Y-10205484D01*
X2969586Y-10205484D02*
X2969586Y-10072150D01*
X2969586Y-10091198D02*
X2979110Y-10081674D01*
X2979110Y-10081674D02*
X2998158Y-10072150D01*
X2998158Y-10072150D02*
X3026729Y-10072150D01*
X3026729Y-10072150D02*
X3045777Y-10081674D01*
X3045777Y-10081674D02*
X3055301Y-10100722D01*
X3055301Y-10100722D02*
X3055301Y-10205484D01*
X3055301Y-10100722D02*
X3064824Y-10081674D01*
X3064824Y-10081674D02*
X3083872Y-10072150D01*
X3083872Y-10072150D02*
X3112443Y-10072150D01*
X3112443Y-10072150D02*
X3131491Y-10081674D01*
X3131491Y-10081674D02*
X3141015Y-10100722D01*
X3141015Y-10100722D02*
X3141015Y-10205484D01*
X3531491Y-9995960D02*
X3360063Y-10253103D01*
X3788634Y-10005484D02*
X3807682Y-10005484D01*
X3807682Y-10005484D02*
X3826729Y-10015008D01*
X3826729Y-10015008D02*
X3836253Y-10024531D01*
X3836253Y-10024531D02*
X3845777Y-10043579D01*
X3845777Y-10043579D02*
X3855301Y-10081674D01*
X3855301Y-10081674D02*
X3855301Y-10129293D01*
X3855301Y-10129293D02*
X3845777Y-10167389D01*
X3845777Y-10167389D02*
X3836253Y-10186436D01*
X3836253Y-10186436D02*
X3826729Y-10195960D01*
X3826729Y-10195960D02*
X3807682Y-10205484D01*
X3807682Y-10205484D02*
X3788634Y-10205484D01*
X3788634Y-10205484D02*
X3769586Y-10195960D01*
X3769586Y-10195960D02*
X3760063Y-10186436D01*
X3760063Y-10186436D02*
X3750539Y-10167389D01*
X3750539Y-10167389D02*
X3741015Y-10129293D01*
X3741015Y-10129293D02*
X3741015Y-10081674D01*
X3741015Y-10081674D02*
X3750539Y-10043579D01*
X3750539Y-10043579D02*
X3760063Y-10024531D01*
X3760063Y-10024531D02*
X3769586Y-10015008D01*
X3769586Y-10015008D02*
X3788634Y-10005484D01*
X3941015Y-10186436D02*
X3950539Y-10195960D01*
X3950539Y-10195960D02*
X3941015Y-10205484D01*
X3941015Y-10205484D02*
X3931491Y-10195960D01*
X3931491Y-10195960D02*
X3941015Y-10186436D01*
X3941015Y-10186436D02*
X3941015Y-10205484D01*
X4074348Y-10005484D02*
X4093396Y-10005484D01*
X4093396Y-10005484D02*
X4112444Y-10015008D01*
X4112444Y-10015008D02*
X4121967Y-10024531D01*
X4121967Y-10024531D02*
X4131491Y-10043579D01*
X4131491Y-10043579D02*
X4141015Y-10081674D01*
X4141015Y-10081674D02*
X4141015Y-10129293D01*
X4141015Y-10129293D02*
X4131491Y-10167389D01*
X4131491Y-10167389D02*
X4121967Y-10186436D01*
X4121967Y-10186436D02*
X4112444Y-10195960D01*
X4112444Y-10195960D02*
X4093396Y-10205484D01*
X4093396Y-10205484D02*
X4074348Y-10205484D01*
X4074348Y-10205484D02*
X4055301Y-10195960D01*
X4055301Y-10195960D02*
X4045777Y-10186436D01*
X4045777Y-10186436D02*
X4036253Y-10167389D01*
X4036253Y-10167389D02*
X4026729Y-10129293D01*
X4026729Y-10129293D02*
X4026729Y-10081674D01*
X4026729Y-10081674D02*
X4036253Y-10043579D01*
X4036253Y-10043579D02*
X4045777Y-10024531D01*
X4045777Y-10024531D02*
X4055301Y-10015008D01*
X4055301Y-10015008D02*
X4074348Y-10005484D01*
X4207682Y-10005484D02*
X4331491Y-10005484D01*
X4331491Y-10005484D02*
X4264825Y-10081674D01*
X4264825Y-10081674D02*
X4293396Y-10081674D01*
X4293396Y-10081674D02*
X4312444Y-10091198D01*
X4312444Y-10091198D02*
X4321968Y-10100722D01*
X4321968Y-10100722D02*
X4331491Y-10119770D01*
X4331491Y-10119770D02*
X4331491Y-10167389D01*
X4331491Y-10167389D02*
X4321968Y-10186436D01*
X4321968Y-10186436D02*
X4312444Y-10195960D01*
X4312444Y-10195960D02*
X4293396Y-10205484D01*
X4293396Y-10205484D02*
X4236253Y-10205484D01*
X4236253Y-10205484D02*
X4217206Y-10195960D01*
X4217206Y-10195960D02*
X4207682Y-10186436D01*
X4426729Y-10205484D02*
X4464825Y-10205484D01*
X4464825Y-10205484D02*
X4483872Y-10195960D01*
X4483872Y-10195960D02*
X4493396Y-10186436D01*
X4493396Y-10186436D02*
X4512444Y-10157865D01*
X4512444Y-10157865D02*
X4521968Y-10119770D01*
X4521968Y-10119770D02*
X4521968Y-10043579D01*
X4521968Y-10043579D02*
X4512444Y-10024531D01*
X4512444Y-10024531D02*
X4502920Y-10015008D01*
X4502920Y-10015008D02*
X4483872Y-10005484D01*
X4483872Y-10005484D02*
X4445777Y-10005484D01*
X4445777Y-10005484D02*
X4426729Y-10015008D01*
X4426729Y-10015008D02*
X4417206Y-10024531D01*
X4417206Y-10024531D02*
X4407682Y-10043579D01*
X4407682Y-10043579D02*
X4407682Y-10091198D01*
X4407682Y-10091198D02*
X4417206Y-10110246D01*
X4417206Y-10110246D02*
X4426729Y-10119770D01*
X4426729Y-10119770D02*
X4445777Y-10129293D01*
X4445777Y-10129293D02*
X4483872Y-10129293D01*
X4483872Y-10129293D02*
X4502920Y-10119770D01*
X4502920Y-10119770D02*
X4512444Y-10110246D01*
X4512444Y-10110246D02*
X4521968Y-10091198D01*
X4693396Y-10072150D02*
X4693396Y-10205484D01*
X4645777Y-9995960D02*
X4598158Y-10138817D01*
X4598158Y-10138817D02*
X4721968Y-10138817D01*
X4788634Y-10005484D02*
X4788634Y-10043579D01*
X4864825Y-10005484D02*
X4864825Y-10043579D01*
X5160063Y-10281674D02*
X5150539Y-10272150D01*
X5150539Y-10272150D02*
X5131491Y-10243579D01*
X5131491Y-10243579D02*
X5121968Y-10224531D01*
X5121968Y-10224531D02*
X5112444Y-10195960D01*
X5112444Y-10195960D02*
X5102920Y-10148341D01*
X5102920Y-10148341D02*
X5102920Y-10110246D01*
X5102920Y-10110246D02*
X5112444Y-10062627D01*
X5112444Y-10062627D02*
X5121968Y-10034055D01*
X5121968Y-10034055D02*
X5131491Y-10015008D01*
X5131491Y-10015008D02*
X5150539Y-9986436D01*
X5150539Y-9986436D02*
X5160063Y-9976912D01*
X5341015Y-10205484D02*
X5226730Y-10205484D01*
X5283872Y-10205484D02*
X5283872Y-10005484D01*
X5283872Y-10005484D02*
X5264825Y-10034055D01*
X5264825Y-10034055D02*
X5245777Y-10053103D01*
X5245777Y-10053103D02*
X5226730Y-10062627D01*
X5521968Y-10005484D02*
X5426730Y-10005484D01*
X5426730Y-10005484D02*
X5417206Y-10100722D01*
X5417206Y-10100722D02*
X5426730Y-10091198D01*
X5426730Y-10091198D02*
X5445777Y-10081674D01*
X5445777Y-10081674D02*
X5493396Y-10081674D01*
X5493396Y-10081674D02*
X5512444Y-10091198D01*
X5512444Y-10091198D02*
X5521968Y-10100722D01*
X5521968Y-10100722D02*
X5531491Y-10119770D01*
X5531491Y-10119770D02*
X5531491Y-10167389D01*
X5531491Y-10167389D02*
X5521968Y-10186436D01*
X5521968Y-10186436D02*
X5512444Y-10195960D01*
X5512444Y-10195960D02*
X5493396Y-10205484D01*
X5493396Y-10205484D02*
X5445777Y-10205484D01*
X5445777Y-10205484D02*
X5426730Y-10195960D01*
X5426730Y-10195960D02*
X5417206Y-10186436D01*
X5769587Y-10205484D02*
X5769587Y-10005484D01*
X5855301Y-10205484D02*
X5855301Y-10100722D01*
X5855301Y-10100722D02*
X5845777Y-10081674D01*
X5845777Y-10081674D02*
X5826730Y-10072150D01*
X5826730Y-10072150D02*
X5798158Y-10072150D01*
X5798158Y-10072150D02*
X5779110Y-10081674D01*
X5779110Y-10081674D02*
X5769587Y-10091198D01*
X5979110Y-10205484D02*
X5960063Y-10195960D01*
X5960063Y-10195960D02*
X5950539Y-10186436D01*
X5950539Y-10186436D02*
X5941015Y-10167389D01*
X5941015Y-10167389D02*
X5941015Y-10110246D01*
X5941015Y-10110246D02*
X5950539Y-10091198D01*
X5950539Y-10091198D02*
X5960063Y-10081674D01*
X5960063Y-10081674D02*
X5979110Y-10072150D01*
X5979110Y-10072150D02*
X6007682Y-10072150D01*
X6007682Y-10072150D02*
X6026730Y-10081674D01*
X6026730Y-10081674D02*
X6036253Y-10091198D01*
X6036253Y-10091198D02*
X6045777Y-10110246D01*
X6045777Y-10110246D02*
X6045777Y-10167389D01*
X6045777Y-10167389D02*
X6036253Y-10186436D01*
X6036253Y-10186436D02*
X6026730Y-10195960D01*
X6026730Y-10195960D02*
X6007682Y-10205484D01*
X6007682Y-10205484D02*
X5979110Y-10205484D01*
X6160063Y-10205484D02*
X6141015Y-10195960D01*
X6141015Y-10195960D02*
X6131491Y-10176912D01*
X6131491Y-10176912D02*
X6131491Y-10005484D01*
X6312444Y-10195960D02*
X6293396Y-10205484D01*
X6293396Y-10205484D02*
X6255301Y-10205484D01*
X6255301Y-10205484D02*
X6236253Y-10195960D01*
X6236253Y-10195960D02*
X6226730Y-10176912D01*
X6226730Y-10176912D02*
X6226730Y-10100722D01*
X6226730Y-10100722D02*
X6236253Y-10081674D01*
X6236253Y-10081674D02*
X6255301Y-10072150D01*
X6255301Y-10072150D02*
X6293396Y-10072150D01*
X6293396Y-10072150D02*
X6312444Y-10081674D01*
X6312444Y-10081674D02*
X6321968Y-10100722D01*
X6321968Y-10100722D02*
X6321968Y-10119770D01*
X6321968Y-10119770D02*
X6226730Y-10138817D01*
X6398158Y-10195960D02*
X6417206Y-10205484D01*
X6417206Y-10205484D02*
X6455301Y-10205484D01*
X6455301Y-10205484D02*
X6474349Y-10195960D01*
X6474349Y-10195960D02*
X6483872Y-10176912D01*
X6483872Y-10176912D02*
X6483872Y-10167389D01*
X6483872Y-10167389D02*
X6474349Y-10148341D01*
X6474349Y-10148341D02*
X6455301Y-10138817D01*
X6455301Y-10138817D02*
X6426730Y-10138817D01*
X6426730Y-10138817D02*
X6407682Y-10129293D01*
X6407682Y-10129293D02*
X6398158Y-10110246D01*
X6398158Y-10110246D02*
X6398158Y-10100722D01*
X6398158Y-10100722D02*
X6407682Y-10081674D01*
X6407682Y-10081674D02*
X6426730Y-10072150D01*
X6426730Y-10072150D02*
X6455301Y-10072150D01*
X6455301Y-10072150D02*
X6474349Y-10081674D01*
X6550539Y-10281674D02*
X6560063Y-10272150D01*
X6560063Y-10272150D02*
X6579111Y-10243579D01*
X6579111Y-10243579D02*
X6588634Y-10224531D01*
X6588634Y-10224531D02*
X6598158Y-10195960D01*
X6598158Y-10195960D02*
X6607682Y-10148341D01*
X6607682Y-10148341D02*
X6607682Y-10110246D01*
X6607682Y-10110246D02*
X6598158Y-10062627D01*
X6598158Y-10062627D02*
X6588634Y-10034055D01*
X6588634Y-10034055D02*
X6579111Y-10015008D01*
X6579111Y-10015008D02*
X6560063Y-9986436D01*
X6560063Y-9986436D02*
X6550539Y-9976912D01*
X1485000Y-10278000D02*
X1485000Y-10478000D01*
X1385000Y-10378000D02*
X1585000Y-10378000D01*
X1826729Y-10269484D02*
X1950539Y-10269484D01*
X1950539Y-10269484D02*
X1883872Y-10345674D01*
X1883872Y-10345674D02*
X1912443Y-10345674D01*
X1912443Y-10345674D02*
X1931491Y-10355198D01*
X1931491Y-10355198D02*
X1941015Y-10364722D01*
X1941015Y-10364722D02*
X1950539Y-10383770D01*
X1950539Y-10383770D02*
X1950539Y-10431389D01*
X1950539Y-10431389D02*
X1941015Y-10450436D01*
X1941015Y-10450436D02*
X1931491Y-10459960D01*
X1931491Y-10459960D02*
X1912443Y-10469484D01*
X1912443Y-10469484D02*
X1855301Y-10469484D01*
X1855301Y-10469484D02*
X1836253Y-10459960D01*
X1836253Y-10459960D02*
X1826729Y-10450436D01*
X2036253Y-10450436D02*
X2045777Y-10459960D01*
X2045777Y-10459960D02*
X2036253Y-10469484D01*
X2036253Y-10469484D02*
X2026729Y-10459960D01*
X2026729Y-10459960D02*
X2036253Y-10450436D01*
X2036253Y-10450436D02*
X2036253Y-10469484D01*
X2169586Y-10269484D02*
X2188634Y-10269484D01*
X2188634Y-10269484D02*
X2207682Y-10279008D01*
X2207682Y-10279008D02*
X2217205Y-10288531D01*
X2217205Y-10288531D02*
X2226729Y-10307579D01*
X2226729Y-10307579D02*
X2236253Y-10345674D01*
X2236253Y-10345674D02*
X2236253Y-10393293D01*
X2236253Y-10393293D02*
X2226729Y-10431389D01*
X2226729Y-10431389D02*
X2217205Y-10450436D01*
X2217205Y-10450436D02*
X2207682Y-10459960D01*
X2207682Y-10459960D02*
X2188634Y-10469484D01*
X2188634Y-10469484D02*
X2169586Y-10469484D01*
X2169586Y-10469484D02*
X2150539Y-10459960D01*
X2150539Y-10459960D02*
X2141015Y-10450436D01*
X2141015Y-10450436D02*
X2131491Y-10431389D01*
X2131491Y-10431389D02*
X2121967Y-10393293D01*
X2121967Y-10393293D02*
X2121967Y-10345674D01*
X2121967Y-10345674D02*
X2131491Y-10307579D01*
X2131491Y-10307579D02*
X2141015Y-10288531D01*
X2141015Y-10288531D02*
X2150539Y-10279008D01*
X2150539Y-10279008D02*
X2169586Y-10269484D01*
X2360063Y-10269484D02*
X2379110Y-10269484D01*
X2379110Y-10269484D02*
X2398158Y-10279008D01*
X2398158Y-10279008D02*
X2407682Y-10288531D01*
X2407682Y-10288531D02*
X2417205Y-10307579D01*
X2417205Y-10307579D02*
X2426729Y-10345674D01*
X2426729Y-10345674D02*
X2426729Y-10393293D01*
X2426729Y-10393293D02*
X2417205Y-10431389D01*
X2417205Y-10431389D02*
X2407682Y-10450436D01*
X2407682Y-10450436D02*
X2398158Y-10459960D01*
X2398158Y-10459960D02*
X2379110Y-10469484D01*
X2379110Y-10469484D02*
X2360063Y-10469484D01*
X2360063Y-10469484D02*
X2341015Y-10459960D01*
X2341015Y-10459960D02*
X2331491Y-10450436D01*
X2331491Y-10450436D02*
X2321967Y-10431389D01*
X2321967Y-10431389D02*
X2312444Y-10393293D01*
X2312444Y-10393293D02*
X2312444Y-10345674D01*
X2312444Y-10345674D02*
X2321967Y-10307579D01*
X2321967Y-10307579D02*
X2331491Y-10288531D01*
X2331491Y-10288531D02*
X2341015Y-10279008D01*
X2341015Y-10279008D02*
X2360063Y-10269484D01*
X2550539Y-10269484D02*
X2569586Y-10269484D01*
X2569586Y-10269484D02*
X2588634Y-10279008D01*
X2588634Y-10279008D02*
X2598158Y-10288531D01*
X2598158Y-10288531D02*
X2607682Y-10307579D01*
X2607682Y-10307579D02*
X2617205Y-10345674D01*
X2617205Y-10345674D02*
X2617205Y-10393293D01*
X2617205Y-10393293D02*
X2607682Y-10431389D01*
X2607682Y-10431389D02*
X2598158Y-10450436D01*
X2598158Y-10450436D02*
X2588634Y-10459960D01*
X2588634Y-10459960D02*
X2569586Y-10469484D01*
X2569586Y-10469484D02*
X2550539Y-10469484D01*
X2550539Y-10469484D02*
X2531491Y-10459960D01*
X2531491Y-10459960D02*
X2521967Y-10450436D01*
X2521967Y-10450436D02*
X2512444Y-10431389D01*
X2512444Y-10431389D02*
X2502920Y-10393293D01*
X2502920Y-10393293D02*
X2502920Y-10345674D01*
X2502920Y-10345674D02*
X2512444Y-10307579D01*
X2512444Y-10307579D02*
X2521967Y-10288531D01*
X2521967Y-10288531D02*
X2531491Y-10279008D01*
X2531491Y-10279008D02*
X2550539Y-10269484D01*
X2702920Y-10469484D02*
X2702920Y-10336150D01*
X2702920Y-10355198D02*
X2712444Y-10345674D01*
X2712444Y-10345674D02*
X2731491Y-10336150D01*
X2731491Y-10336150D02*
X2760063Y-10336150D01*
X2760063Y-10336150D02*
X2779110Y-10345674D01*
X2779110Y-10345674D02*
X2788634Y-10364722D01*
X2788634Y-10364722D02*
X2788634Y-10469484D01*
X2788634Y-10364722D02*
X2798158Y-10345674D01*
X2798158Y-10345674D02*
X2817205Y-10336150D01*
X2817205Y-10336150D02*
X2845777Y-10336150D01*
X2845777Y-10336150D02*
X2864824Y-10345674D01*
X2864824Y-10345674D02*
X2874348Y-10364722D01*
X2874348Y-10364722D02*
X2874348Y-10469484D01*
X2969586Y-10469484D02*
X2969586Y-10336150D01*
X2969586Y-10355198D02*
X2979110Y-10345674D01*
X2979110Y-10345674D02*
X2998158Y-10336150D01*
X2998158Y-10336150D02*
X3026729Y-10336150D01*
X3026729Y-10336150D02*
X3045777Y-10345674D01*
X3045777Y-10345674D02*
X3055301Y-10364722D01*
X3055301Y-10364722D02*
X3055301Y-10469484D01*
X3055301Y-10364722D02*
X3064824Y-10345674D01*
X3064824Y-10345674D02*
X3083872Y-10336150D01*
X3083872Y-10336150D02*
X3112443Y-10336150D01*
X3112443Y-10336150D02*
X3131491Y-10345674D01*
X3131491Y-10345674D02*
X3141015Y-10364722D01*
X3141015Y-10364722D02*
X3141015Y-10469484D01*
X3531491Y-10259960D02*
X3360063Y-10517103D01*
X3788634Y-10269484D02*
X3807682Y-10269484D01*
X3807682Y-10269484D02*
X3826729Y-10279008D01*
X3826729Y-10279008D02*
X3836253Y-10288531D01*
X3836253Y-10288531D02*
X3845777Y-10307579D01*
X3845777Y-10307579D02*
X3855301Y-10345674D01*
X3855301Y-10345674D02*
X3855301Y-10393293D01*
X3855301Y-10393293D02*
X3845777Y-10431389D01*
X3845777Y-10431389D02*
X3836253Y-10450436D01*
X3836253Y-10450436D02*
X3826729Y-10459960D01*
X3826729Y-10459960D02*
X3807682Y-10469484D01*
X3807682Y-10469484D02*
X3788634Y-10469484D01*
X3788634Y-10469484D02*
X3769586Y-10459960D01*
X3769586Y-10459960D02*
X3760063Y-10450436D01*
X3760063Y-10450436D02*
X3750539Y-10431389D01*
X3750539Y-10431389D02*
X3741015Y-10393293D01*
X3741015Y-10393293D02*
X3741015Y-10345674D01*
X3741015Y-10345674D02*
X3750539Y-10307579D01*
X3750539Y-10307579D02*
X3760063Y-10288531D01*
X3760063Y-10288531D02*
X3769586Y-10279008D01*
X3769586Y-10279008D02*
X3788634Y-10269484D01*
X3941015Y-10450436D02*
X3950539Y-10459960D01*
X3950539Y-10459960D02*
X3941015Y-10469484D01*
X3941015Y-10469484D02*
X3931491Y-10459960D01*
X3931491Y-10459960D02*
X3941015Y-10450436D01*
X3941015Y-10450436D02*
X3941015Y-10469484D01*
X4141015Y-10469484D02*
X4026729Y-10469484D01*
X4083872Y-10469484D02*
X4083872Y-10269484D01*
X4083872Y-10269484D02*
X4064825Y-10298055D01*
X4064825Y-10298055D02*
X4045777Y-10317103D01*
X4045777Y-10317103D02*
X4026729Y-10326627D01*
X4331491Y-10469484D02*
X4217206Y-10469484D01*
X4274348Y-10469484D02*
X4274348Y-10269484D01*
X4274348Y-10269484D02*
X4255301Y-10298055D01*
X4255301Y-10298055D02*
X4236253Y-10317103D01*
X4236253Y-10317103D02*
X4217206Y-10326627D01*
X4445777Y-10355198D02*
X4426729Y-10345674D01*
X4426729Y-10345674D02*
X4417206Y-10336150D01*
X4417206Y-10336150D02*
X4407682Y-10317103D01*
X4407682Y-10317103D02*
X4407682Y-10307579D01*
X4407682Y-10307579D02*
X4417206Y-10288531D01*
X4417206Y-10288531D02*
X4426729Y-10279008D01*
X4426729Y-10279008D02*
X4445777Y-10269484D01*
X4445777Y-10269484D02*
X4483872Y-10269484D01*
X4483872Y-10269484D02*
X4502920Y-10279008D01*
X4502920Y-10279008D02*
X4512444Y-10288531D01*
X4512444Y-10288531D02*
X4521968Y-10307579D01*
X4521968Y-10307579D02*
X4521968Y-10317103D01*
X4521968Y-10317103D02*
X4512444Y-10336150D01*
X4512444Y-10336150D02*
X4502920Y-10345674D01*
X4502920Y-10345674D02*
X4483872Y-10355198D01*
X4483872Y-10355198D02*
X4445777Y-10355198D01*
X4445777Y-10355198D02*
X4426729Y-10364722D01*
X4426729Y-10364722D02*
X4417206Y-10374246D01*
X4417206Y-10374246D02*
X4407682Y-10393293D01*
X4407682Y-10393293D02*
X4407682Y-10431389D01*
X4407682Y-10431389D02*
X4417206Y-10450436D01*
X4417206Y-10450436D02*
X4426729Y-10459960D01*
X4426729Y-10459960D02*
X4445777Y-10469484D01*
X4445777Y-10469484D02*
X4483872Y-10469484D01*
X4483872Y-10469484D02*
X4502920Y-10459960D01*
X4502920Y-10459960D02*
X4512444Y-10450436D01*
X4512444Y-10450436D02*
X4521968Y-10431389D01*
X4521968Y-10431389D02*
X4521968Y-10393293D01*
X4521968Y-10393293D02*
X4512444Y-10374246D01*
X4512444Y-10374246D02*
X4502920Y-10364722D01*
X4502920Y-10364722D02*
X4483872Y-10355198D01*
X4712444Y-10469484D02*
X4598158Y-10469484D01*
X4655301Y-10469484D02*
X4655301Y-10269484D01*
X4655301Y-10269484D02*
X4636253Y-10298055D01*
X4636253Y-10298055D02*
X4617206Y-10317103D01*
X4617206Y-10317103D02*
X4598158Y-10326627D01*
X4788634Y-10269484D02*
X4788634Y-10307579D01*
X4864825Y-10269484D02*
X4864825Y-10307579D01*
X5160063Y-10545674D02*
X5150539Y-10536150D01*
X5150539Y-10536150D02*
X5131491Y-10507579D01*
X5131491Y-10507579D02*
X5121968Y-10488531D01*
X5121968Y-10488531D02*
X5112444Y-10459960D01*
X5112444Y-10459960D02*
X5102920Y-10412341D01*
X5102920Y-10412341D02*
X5102920Y-10374246D01*
X5102920Y-10374246D02*
X5112444Y-10326627D01*
X5112444Y-10326627D02*
X5121968Y-10298055D01*
X5121968Y-10298055D02*
X5131491Y-10279008D01*
X5131491Y-10279008D02*
X5150539Y-10250436D01*
X5150539Y-10250436D02*
X5160063Y-10240912D01*
X5341015Y-10469484D02*
X5226730Y-10469484D01*
X5283872Y-10469484D02*
X5283872Y-10269484D01*
X5283872Y-10269484D02*
X5264825Y-10298055D01*
X5264825Y-10298055D02*
X5245777Y-10317103D01*
X5245777Y-10317103D02*
X5226730Y-10326627D01*
X5407682Y-10269484D02*
X5531491Y-10269484D01*
X5531491Y-10269484D02*
X5464825Y-10345674D01*
X5464825Y-10345674D02*
X5493396Y-10345674D01*
X5493396Y-10345674D02*
X5512444Y-10355198D01*
X5512444Y-10355198D02*
X5521968Y-10364722D01*
X5521968Y-10364722D02*
X5531491Y-10383770D01*
X5531491Y-10383770D02*
X5531491Y-10431389D01*
X5531491Y-10431389D02*
X5521968Y-10450436D01*
X5521968Y-10450436D02*
X5512444Y-10459960D01*
X5512444Y-10459960D02*
X5493396Y-10469484D01*
X5493396Y-10469484D02*
X5436253Y-10469484D01*
X5436253Y-10469484D02*
X5417206Y-10459960D01*
X5417206Y-10459960D02*
X5407682Y-10450436D01*
X5702920Y-10269484D02*
X5664825Y-10269484D01*
X5664825Y-10269484D02*
X5645777Y-10279008D01*
X5645777Y-10279008D02*
X5636253Y-10288531D01*
X5636253Y-10288531D02*
X5617206Y-10317103D01*
X5617206Y-10317103D02*
X5607682Y-10355198D01*
X5607682Y-10355198D02*
X5607682Y-10431389D01*
X5607682Y-10431389D02*
X5617206Y-10450436D01*
X5617206Y-10450436D02*
X5626729Y-10459960D01*
X5626729Y-10459960D02*
X5645777Y-10469484D01*
X5645777Y-10469484D02*
X5683872Y-10469484D01*
X5683872Y-10469484D02*
X5702920Y-10459960D01*
X5702920Y-10459960D02*
X5712444Y-10450436D01*
X5712444Y-10450436D02*
X5721968Y-10431389D01*
X5721968Y-10431389D02*
X5721968Y-10383770D01*
X5721968Y-10383770D02*
X5712444Y-10364722D01*
X5712444Y-10364722D02*
X5702920Y-10355198D01*
X5702920Y-10355198D02*
X5683872Y-10345674D01*
X5683872Y-10345674D02*
X5645777Y-10345674D01*
X5645777Y-10345674D02*
X5626729Y-10355198D01*
X5626729Y-10355198D02*
X5617206Y-10364722D01*
X5617206Y-10364722D02*
X5607682Y-10383770D01*
X5960063Y-10469484D02*
X5960063Y-10269484D01*
X6045777Y-10469484D02*
X6045777Y-10364722D01*
X6045777Y-10364722D02*
X6036253Y-10345674D01*
X6036253Y-10345674D02*
X6017206Y-10336150D01*
X6017206Y-10336150D02*
X5988634Y-10336150D01*
X5988634Y-10336150D02*
X5969587Y-10345674D01*
X5969587Y-10345674D02*
X5960063Y-10355198D01*
X6169587Y-10469484D02*
X6150539Y-10459960D01*
X6150539Y-10459960D02*
X6141015Y-10450436D01*
X6141015Y-10450436D02*
X6131491Y-10431389D01*
X6131491Y-10431389D02*
X6131491Y-10374246D01*
X6131491Y-10374246D02*
X6141015Y-10355198D01*
X6141015Y-10355198D02*
X6150539Y-10345674D01*
X6150539Y-10345674D02*
X6169587Y-10336150D01*
X6169587Y-10336150D02*
X6198158Y-10336150D01*
X6198158Y-10336150D02*
X6217206Y-10345674D01*
X6217206Y-10345674D02*
X6226730Y-10355198D01*
X6226730Y-10355198D02*
X6236253Y-10374246D01*
X6236253Y-10374246D02*
X6236253Y-10431389D01*
X6236253Y-10431389D02*
X6226730Y-10450436D01*
X6226730Y-10450436D02*
X6217206Y-10459960D01*
X6217206Y-10459960D02*
X6198158Y-10469484D01*
X6198158Y-10469484D02*
X6169587Y-10469484D01*
X6350539Y-10469484D02*
X6331491Y-10459960D01*
X6331491Y-10459960D02*
X6321968Y-10440912D01*
X6321968Y-10440912D02*
X6321968Y-10269484D01*
X6502920Y-10459960D02*
X6483872Y-10469484D01*
X6483872Y-10469484D02*
X6445777Y-10469484D01*
X6445777Y-10469484D02*
X6426730Y-10459960D01*
X6426730Y-10459960D02*
X6417206Y-10440912D01*
X6417206Y-10440912D02*
X6417206Y-10364722D01*
X6417206Y-10364722D02*
X6426730Y-10345674D01*
X6426730Y-10345674D02*
X6445777Y-10336150D01*
X6445777Y-10336150D02*
X6483872Y-10336150D01*
X6483872Y-10336150D02*
X6502920Y-10345674D01*
X6502920Y-10345674D02*
X6512444Y-10364722D01*
X6512444Y-10364722D02*
X6512444Y-10383770D01*
X6512444Y-10383770D02*
X6417206Y-10402817D01*
X6588634Y-10459960D02*
X6607682Y-10469484D01*
X6607682Y-10469484D02*
X6645777Y-10469484D01*
X6645777Y-10469484D02*
X6664825Y-10459960D01*
X6664825Y-10459960D02*
X6674349Y-10440912D01*
X6674349Y-10440912D02*
X6674349Y-10431389D01*
X6674349Y-10431389D02*
X6664825Y-10412341D01*
X6664825Y-10412341D02*
X6645777Y-10402817D01*
X6645777Y-10402817D02*
X6617206Y-10402817D01*
X6617206Y-10402817D02*
X6598158Y-10393293D01*
X6598158Y-10393293D02*
X6588634Y-10374246D01*
X6588634Y-10374246D02*
X6588634Y-10364722D01*
X6588634Y-10364722D02*
X6598158Y-10345674D01*
X6598158Y-10345674D02*
X6617206Y-10336150D01*
X6617206Y-10336150D02*
X6645777Y-10336150D01*
X6645777Y-10336150D02*
X6664825Y-10345674D01*
X6741015Y-10545674D02*
X6750539Y-10536150D01*
X6750539Y-10536150D02*
X6769587Y-10507579D01*
X6769587Y-10507579D02*
X6779111Y-10488531D01*
X6779111Y-10488531D02*
X6788634Y-10459960D01*
X6788634Y-10459960D02*
X6798158Y-10412341D01*
X6798158Y-10412341D02*
X6798158Y-10374246D01*
X6798158Y-10374246D02*
X6788634Y-10326627D01*
X6788634Y-10326627D02*
X6779111Y-10298055D01*
X6779111Y-10298055D02*
X6769587Y-10279008D01*
X6769587Y-10279008D02*
X6750539Y-10250436D01*
X6750539Y-10250436D02*
X6741015Y-10240912D01*
X1555711Y-10768711D02*
X1555711Y-10627289D01*
X1414289Y-10627289D01*
X1414289Y-10768711D01*
X1555711Y-10768711D01*
X1826729Y-10589484D02*
X1950539Y-10589484D01*
X1950539Y-10589484D02*
X1883872Y-10665674D01*
X1883872Y-10665674D02*
X1912443Y-10665674D01*
X1912443Y-10665674D02*
X1931491Y-10675198D01*
X1931491Y-10675198D02*
X1941015Y-10684722D01*
X1941015Y-10684722D02*
X1950539Y-10703770D01*
X1950539Y-10703770D02*
X1950539Y-10751389D01*
X1950539Y-10751389D02*
X1941015Y-10770436D01*
X1941015Y-10770436D02*
X1931491Y-10779960D01*
X1931491Y-10779960D02*
X1912443Y-10789484D01*
X1912443Y-10789484D02*
X1855301Y-10789484D01*
X1855301Y-10789484D02*
X1836253Y-10779960D01*
X1836253Y-10779960D02*
X1826729Y-10770436D01*
X2036253Y-10770436D02*
X2045777Y-10779960D01*
X2045777Y-10779960D02*
X2036253Y-10789484D01*
X2036253Y-10789484D02*
X2026729Y-10779960D01*
X2026729Y-10779960D02*
X2036253Y-10770436D01*
X2036253Y-10770436D02*
X2036253Y-10789484D01*
X2169586Y-10589484D02*
X2188634Y-10589484D01*
X2188634Y-10589484D02*
X2207682Y-10599008D01*
X2207682Y-10599008D02*
X2217205Y-10608531D01*
X2217205Y-10608531D02*
X2226729Y-10627579D01*
X2226729Y-10627579D02*
X2236253Y-10665674D01*
X2236253Y-10665674D02*
X2236253Y-10713293D01*
X2236253Y-10713293D02*
X2226729Y-10751389D01*
X2226729Y-10751389D02*
X2217205Y-10770436D01*
X2217205Y-10770436D02*
X2207682Y-10779960D01*
X2207682Y-10779960D02*
X2188634Y-10789484D01*
X2188634Y-10789484D02*
X2169586Y-10789484D01*
X2169586Y-10789484D02*
X2150539Y-10779960D01*
X2150539Y-10779960D02*
X2141015Y-10770436D01*
X2141015Y-10770436D02*
X2131491Y-10751389D01*
X2131491Y-10751389D02*
X2121967Y-10713293D01*
X2121967Y-10713293D02*
X2121967Y-10665674D01*
X2121967Y-10665674D02*
X2131491Y-10627579D01*
X2131491Y-10627579D02*
X2141015Y-10608531D01*
X2141015Y-10608531D02*
X2150539Y-10599008D01*
X2150539Y-10599008D02*
X2169586Y-10589484D01*
X2407682Y-10656150D02*
X2407682Y-10789484D01*
X2360063Y-10579960D02*
X2312444Y-10722817D01*
X2312444Y-10722817D02*
X2436253Y-10722817D01*
X2541015Y-10675198D02*
X2521967Y-10665674D01*
X2521967Y-10665674D02*
X2512444Y-10656150D01*
X2512444Y-10656150D02*
X2502920Y-10637103D01*
X2502920Y-10637103D02*
X2502920Y-10627579D01*
X2502920Y-10627579D02*
X2512444Y-10608531D01*
X2512444Y-10608531D02*
X2521967Y-10599008D01*
X2521967Y-10599008D02*
X2541015Y-10589484D01*
X2541015Y-10589484D02*
X2579110Y-10589484D01*
X2579110Y-10589484D02*
X2598158Y-10599008D01*
X2598158Y-10599008D02*
X2607682Y-10608531D01*
X2607682Y-10608531D02*
X2617205Y-10627579D01*
X2617205Y-10627579D02*
X2617205Y-10637103D01*
X2617205Y-10637103D02*
X2607682Y-10656150D01*
X2607682Y-10656150D02*
X2598158Y-10665674D01*
X2598158Y-10665674D02*
X2579110Y-10675198D01*
X2579110Y-10675198D02*
X2541015Y-10675198D01*
X2541015Y-10675198D02*
X2521967Y-10684722D01*
X2521967Y-10684722D02*
X2512444Y-10694246D01*
X2512444Y-10694246D02*
X2502920Y-10713293D01*
X2502920Y-10713293D02*
X2502920Y-10751389D01*
X2502920Y-10751389D02*
X2512444Y-10770436D01*
X2512444Y-10770436D02*
X2521967Y-10779960D01*
X2521967Y-10779960D02*
X2541015Y-10789484D01*
X2541015Y-10789484D02*
X2579110Y-10789484D01*
X2579110Y-10789484D02*
X2598158Y-10779960D01*
X2598158Y-10779960D02*
X2607682Y-10770436D01*
X2607682Y-10770436D02*
X2617205Y-10751389D01*
X2617205Y-10751389D02*
X2617205Y-10713293D01*
X2617205Y-10713293D02*
X2607682Y-10694246D01*
X2607682Y-10694246D02*
X2598158Y-10684722D01*
X2598158Y-10684722D02*
X2579110Y-10675198D01*
X2702920Y-10789484D02*
X2702920Y-10656150D01*
X2702920Y-10675198D02*
X2712444Y-10665674D01*
X2712444Y-10665674D02*
X2731491Y-10656150D01*
X2731491Y-10656150D02*
X2760063Y-10656150D01*
X2760063Y-10656150D02*
X2779110Y-10665674D01*
X2779110Y-10665674D02*
X2788634Y-10684722D01*
X2788634Y-10684722D02*
X2788634Y-10789484D01*
X2788634Y-10684722D02*
X2798158Y-10665674D01*
X2798158Y-10665674D02*
X2817205Y-10656150D01*
X2817205Y-10656150D02*
X2845777Y-10656150D01*
X2845777Y-10656150D02*
X2864824Y-10665674D01*
X2864824Y-10665674D02*
X2874348Y-10684722D01*
X2874348Y-10684722D02*
X2874348Y-10789484D01*
X2969586Y-10789484D02*
X2969586Y-10656150D01*
X2969586Y-10675198D02*
X2979110Y-10665674D01*
X2979110Y-10665674D02*
X2998158Y-10656150D01*
X2998158Y-10656150D02*
X3026729Y-10656150D01*
X3026729Y-10656150D02*
X3045777Y-10665674D01*
X3045777Y-10665674D02*
X3055301Y-10684722D01*
X3055301Y-10684722D02*
X3055301Y-10789484D01*
X3055301Y-10684722D02*
X3064824Y-10665674D01*
X3064824Y-10665674D02*
X3083872Y-10656150D01*
X3083872Y-10656150D02*
X3112443Y-10656150D01*
X3112443Y-10656150D02*
X3131491Y-10665674D01*
X3131491Y-10665674D02*
X3141015Y-10684722D01*
X3141015Y-10684722D02*
X3141015Y-10789484D01*
X3531491Y-10579960D02*
X3360063Y-10837103D01*
X3788634Y-10589484D02*
X3807682Y-10589484D01*
X3807682Y-10589484D02*
X3826729Y-10599008D01*
X3826729Y-10599008D02*
X3836253Y-10608531D01*
X3836253Y-10608531D02*
X3845777Y-10627579D01*
X3845777Y-10627579D02*
X3855301Y-10665674D01*
X3855301Y-10665674D02*
X3855301Y-10713293D01*
X3855301Y-10713293D02*
X3845777Y-10751389D01*
X3845777Y-10751389D02*
X3836253Y-10770436D01*
X3836253Y-10770436D02*
X3826729Y-10779960D01*
X3826729Y-10779960D02*
X3807682Y-10789484D01*
X3807682Y-10789484D02*
X3788634Y-10789484D01*
X3788634Y-10789484D02*
X3769586Y-10779960D01*
X3769586Y-10779960D02*
X3760063Y-10770436D01*
X3760063Y-10770436D02*
X3750539Y-10751389D01*
X3750539Y-10751389D02*
X3741015Y-10713293D01*
X3741015Y-10713293D02*
X3741015Y-10665674D01*
X3741015Y-10665674D02*
X3750539Y-10627579D01*
X3750539Y-10627579D02*
X3760063Y-10608531D01*
X3760063Y-10608531D02*
X3769586Y-10599008D01*
X3769586Y-10599008D02*
X3788634Y-10589484D01*
X3941015Y-10770436D02*
X3950539Y-10779960D01*
X3950539Y-10779960D02*
X3941015Y-10789484D01*
X3941015Y-10789484D02*
X3931491Y-10779960D01*
X3931491Y-10779960D02*
X3941015Y-10770436D01*
X3941015Y-10770436D02*
X3941015Y-10789484D01*
X4141015Y-10789484D02*
X4026729Y-10789484D01*
X4083872Y-10789484D02*
X4083872Y-10589484D01*
X4083872Y-10589484D02*
X4064825Y-10618055D01*
X4064825Y-10618055D02*
X4045777Y-10637103D01*
X4045777Y-10637103D02*
X4026729Y-10646627D01*
X4217206Y-10608531D02*
X4226729Y-10599008D01*
X4226729Y-10599008D02*
X4245777Y-10589484D01*
X4245777Y-10589484D02*
X4293396Y-10589484D01*
X4293396Y-10589484D02*
X4312444Y-10599008D01*
X4312444Y-10599008D02*
X4321968Y-10608531D01*
X4321968Y-10608531D02*
X4331491Y-10627579D01*
X4331491Y-10627579D02*
X4331491Y-10646627D01*
X4331491Y-10646627D02*
X4321968Y-10675198D01*
X4321968Y-10675198D02*
X4207682Y-10789484D01*
X4207682Y-10789484D02*
X4331491Y-10789484D01*
X4455301Y-10589484D02*
X4474349Y-10589484D01*
X4474349Y-10589484D02*
X4493396Y-10599008D01*
X4493396Y-10599008D02*
X4502920Y-10608531D01*
X4502920Y-10608531D02*
X4512444Y-10627579D01*
X4512444Y-10627579D02*
X4521968Y-10665674D01*
X4521968Y-10665674D02*
X4521968Y-10713293D01*
X4521968Y-10713293D02*
X4512444Y-10751389D01*
X4512444Y-10751389D02*
X4502920Y-10770436D01*
X4502920Y-10770436D02*
X4493396Y-10779960D01*
X4493396Y-10779960D02*
X4474349Y-10789484D01*
X4474349Y-10789484D02*
X4455301Y-10789484D01*
X4455301Y-10789484D02*
X4436253Y-10779960D01*
X4436253Y-10779960D02*
X4426729Y-10770436D01*
X4426729Y-10770436D02*
X4417206Y-10751389D01*
X4417206Y-10751389D02*
X4407682Y-10713293D01*
X4407682Y-10713293D02*
X4407682Y-10665674D01*
X4407682Y-10665674D02*
X4417206Y-10627579D01*
X4417206Y-10627579D02*
X4426729Y-10608531D01*
X4426729Y-10608531D02*
X4436253Y-10599008D01*
X4436253Y-10599008D02*
X4455301Y-10589484D01*
X4645777Y-10589484D02*
X4664825Y-10589484D01*
X4664825Y-10589484D02*
X4683872Y-10599008D01*
X4683872Y-10599008D02*
X4693396Y-10608531D01*
X4693396Y-10608531D02*
X4702920Y-10627579D01*
X4702920Y-10627579D02*
X4712444Y-10665674D01*
X4712444Y-10665674D02*
X4712444Y-10713293D01*
X4712444Y-10713293D02*
X4702920Y-10751389D01*
X4702920Y-10751389D02*
X4693396Y-10770436D01*
X4693396Y-10770436D02*
X4683872Y-10779960D01*
X4683872Y-10779960D02*
X4664825Y-10789484D01*
X4664825Y-10789484D02*
X4645777Y-10789484D01*
X4645777Y-10789484D02*
X4626729Y-10779960D01*
X4626729Y-10779960D02*
X4617206Y-10770436D01*
X4617206Y-10770436D02*
X4607682Y-10751389D01*
X4607682Y-10751389D02*
X4598158Y-10713293D01*
X4598158Y-10713293D02*
X4598158Y-10665674D01*
X4598158Y-10665674D02*
X4607682Y-10627579D01*
X4607682Y-10627579D02*
X4617206Y-10608531D01*
X4617206Y-10608531D02*
X4626729Y-10599008D01*
X4626729Y-10599008D02*
X4645777Y-10589484D01*
X4788634Y-10589484D02*
X4788634Y-10627579D01*
X4864825Y-10589484D02*
X4864825Y-10627579D01*
X5160063Y-10865674D02*
X5150539Y-10856150D01*
X5150539Y-10856150D02*
X5131491Y-10827579D01*
X5131491Y-10827579D02*
X5121968Y-10808531D01*
X5121968Y-10808531D02*
X5112444Y-10779960D01*
X5112444Y-10779960D02*
X5102920Y-10732341D01*
X5102920Y-10732341D02*
X5102920Y-10694246D01*
X5102920Y-10694246D02*
X5112444Y-10646627D01*
X5112444Y-10646627D02*
X5121968Y-10618055D01*
X5121968Y-10618055D02*
X5131491Y-10599008D01*
X5131491Y-10599008D02*
X5150539Y-10570436D01*
X5150539Y-10570436D02*
X5160063Y-10560912D01*
X5245777Y-10789484D02*
X5283872Y-10789484D01*
X5283872Y-10789484D02*
X5302920Y-10779960D01*
X5302920Y-10779960D02*
X5312444Y-10770436D01*
X5312444Y-10770436D02*
X5331491Y-10741865D01*
X5331491Y-10741865D02*
X5341015Y-10703770D01*
X5341015Y-10703770D02*
X5341015Y-10627579D01*
X5341015Y-10627579D02*
X5331491Y-10608531D01*
X5331491Y-10608531D02*
X5321968Y-10599008D01*
X5321968Y-10599008D02*
X5302920Y-10589484D01*
X5302920Y-10589484D02*
X5264825Y-10589484D01*
X5264825Y-10589484D02*
X5245777Y-10599008D01*
X5245777Y-10599008D02*
X5236253Y-10608531D01*
X5236253Y-10608531D02*
X5226730Y-10627579D01*
X5226730Y-10627579D02*
X5226730Y-10675198D01*
X5226730Y-10675198D02*
X5236253Y-10694246D01*
X5236253Y-10694246D02*
X5245777Y-10703770D01*
X5245777Y-10703770D02*
X5264825Y-10713293D01*
X5264825Y-10713293D02*
X5302920Y-10713293D01*
X5302920Y-10713293D02*
X5321968Y-10703770D01*
X5321968Y-10703770D02*
X5331491Y-10694246D01*
X5331491Y-10694246D02*
X5341015Y-10675198D01*
X5579111Y-10789484D02*
X5579111Y-10589484D01*
X5664825Y-10789484D02*
X5664825Y-10684722D01*
X5664825Y-10684722D02*
X5655301Y-10665674D01*
X5655301Y-10665674D02*
X5636253Y-10656150D01*
X5636253Y-10656150D02*
X5607682Y-10656150D01*
X5607682Y-10656150D02*
X5588634Y-10665674D01*
X5588634Y-10665674D02*
X5579111Y-10675198D01*
X5788634Y-10789484D02*
X5769587Y-10779960D01*
X5769587Y-10779960D02*
X5760063Y-10770436D01*
X5760063Y-10770436D02*
X5750539Y-10751389D01*
X5750539Y-10751389D02*
X5750539Y-10694246D01*
X5750539Y-10694246D02*
X5760063Y-10675198D01*
X5760063Y-10675198D02*
X5769587Y-10665674D01*
X5769587Y-10665674D02*
X5788634Y-10656150D01*
X5788634Y-10656150D02*
X5817206Y-10656150D01*
X5817206Y-10656150D02*
X5836253Y-10665674D01*
X5836253Y-10665674D02*
X5845777Y-10675198D01*
X5845777Y-10675198D02*
X5855301Y-10694246D01*
X5855301Y-10694246D02*
X5855301Y-10751389D01*
X5855301Y-10751389D02*
X5845777Y-10770436D01*
X5845777Y-10770436D02*
X5836253Y-10779960D01*
X5836253Y-10779960D02*
X5817206Y-10789484D01*
X5817206Y-10789484D02*
X5788634Y-10789484D01*
X5969587Y-10789484D02*
X5950539Y-10779960D01*
X5950539Y-10779960D02*
X5941015Y-10760912D01*
X5941015Y-10760912D02*
X5941015Y-10589484D01*
X6121968Y-10779960D02*
X6102920Y-10789484D01*
X6102920Y-10789484D02*
X6064825Y-10789484D01*
X6064825Y-10789484D02*
X6045777Y-10779960D01*
X6045777Y-10779960D02*
X6036253Y-10760912D01*
X6036253Y-10760912D02*
X6036253Y-10684722D01*
X6036253Y-10684722D02*
X6045777Y-10665674D01*
X6045777Y-10665674D02*
X6064825Y-10656150D01*
X6064825Y-10656150D02*
X6102920Y-10656150D01*
X6102920Y-10656150D02*
X6121968Y-10665674D01*
X6121968Y-10665674D02*
X6131491Y-10684722D01*
X6131491Y-10684722D02*
X6131491Y-10703770D01*
X6131491Y-10703770D02*
X6036253Y-10722817D01*
X6207682Y-10779960D02*
X6226730Y-10789484D01*
X6226730Y-10789484D02*
X6264825Y-10789484D01*
X6264825Y-10789484D02*
X6283872Y-10779960D01*
X6283872Y-10779960D02*
X6293396Y-10760912D01*
X6293396Y-10760912D02*
X6293396Y-10751389D01*
X6293396Y-10751389D02*
X6283872Y-10732341D01*
X6283872Y-10732341D02*
X6264825Y-10722817D01*
X6264825Y-10722817D02*
X6236253Y-10722817D01*
X6236253Y-10722817D02*
X6217206Y-10713293D01*
X6217206Y-10713293D02*
X6207682Y-10694246D01*
X6207682Y-10694246D02*
X6207682Y-10684722D01*
X6207682Y-10684722D02*
X6217206Y-10665674D01*
X6217206Y-10665674D02*
X6236253Y-10656150D01*
X6236253Y-10656150D02*
X6264825Y-10656150D01*
X6264825Y-10656150D02*
X6283872Y-10665674D01*
X6360063Y-10865674D02*
X6369587Y-10856150D01*
X6369587Y-10856150D02*
X6388634Y-10827579D01*
X6388634Y-10827579D02*
X6398158Y-10808531D01*
X6398158Y-10808531D02*
X6407682Y-10779960D01*
X6407682Y-10779960D02*
X6417206Y-10732341D01*
X6417206Y-10732341D02*
X6417206Y-10694246D01*
X6417206Y-10694246D02*
X6407682Y-10646627D01*
X6407682Y-10646627D02*
X6398158Y-10618055D01*
X6398158Y-10618055D02*
X6388634Y-10599008D01*
X6388634Y-10599008D02*
X6369587Y-10570436D01*
X6369587Y-10570436D02*
X6360063Y-10560912D01*
M02*
