G04 #@! TF.GenerationSoftware,KiCad,Pcbnew,8.0.2-1.fc39*
G04 #@! TF.CreationDate,2024-06-01T14:36:52-04:00*
G04 #@! TF.ProjectId,KeychronQ9OrthoIntegrated,4b657963-6872-46f6-9e51-394f7274686f,rev?*
G04 #@! TF.SameCoordinates,Original*
G04 #@! TF.FileFunction,Legend,Top*
G04 #@! TF.FilePolarity,Positive*
%FSLAX46Y46*%
G04 Gerber Fmt 4.6, Leading zero omitted, Abs format (unit mm)*
G04 Created by KiCad (PCBNEW 8.0.2-1.fc39) date 2024-06-01 14:36:52*
%MOMM*%
%LPD*%
G01*
G04 APERTURE LIST*
%ADD10C,0.150000*%
%ADD11C,0.120000*%
%ADD12C,3.987800*%
%ADD13C,1.750000*%
%ADD14C,3.300000*%
%ADD15C,4.000000*%
%ADD16R,1.700000X1.700000*%
%ADD17O,1.700000X1.700000*%
G04 APERTURE END LIST*
D10*
X320329167Y-42619700D02*
X320472024Y-42667319D01*
X320472024Y-42667319D02*
X320710119Y-42667319D01*
X320710119Y-42667319D02*
X320805357Y-42619700D01*
X320805357Y-42619700D02*
X320852976Y-42572080D01*
X320852976Y-42572080D02*
X320900595Y-42476842D01*
X320900595Y-42476842D02*
X320900595Y-42381604D01*
X320900595Y-42381604D02*
X320852976Y-42286366D01*
X320852976Y-42286366D02*
X320805357Y-42238747D01*
X320805357Y-42238747D02*
X320710119Y-42191128D01*
X320710119Y-42191128D02*
X320519643Y-42143509D01*
X320519643Y-42143509D02*
X320424405Y-42095890D01*
X320424405Y-42095890D02*
X320376786Y-42048271D01*
X320376786Y-42048271D02*
X320329167Y-41953033D01*
X320329167Y-41953033D02*
X320329167Y-41857795D01*
X320329167Y-41857795D02*
X320376786Y-41762557D01*
X320376786Y-41762557D02*
X320424405Y-41714938D01*
X320424405Y-41714938D02*
X320519643Y-41667319D01*
X320519643Y-41667319D02*
X320757738Y-41667319D01*
X320757738Y-41667319D02*
X320900595Y-41714938D01*
X321233929Y-41667319D02*
X321472024Y-42667319D01*
X321472024Y-42667319D02*
X321662500Y-41953033D01*
X321662500Y-41953033D02*
X321852976Y-42667319D01*
X321852976Y-42667319D02*
X322091072Y-41667319D01*
X322424405Y-41762557D02*
X322472024Y-41714938D01*
X322472024Y-41714938D02*
X322567262Y-41667319D01*
X322567262Y-41667319D02*
X322805357Y-41667319D01*
X322805357Y-41667319D02*
X322900595Y-41714938D01*
X322900595Y-41714938D02*
X322948214Y-41762557D01*
X322948214Y-41762557D02*
X322995833Y-41857795D01*
X322995833Y-41857795D02*
X322995833Y-41953033D01*
X322995833Y-41953033D02*
X322948214Y-42095890D01*
X322948214Y-42095890D02*
X322376786Y-42667319D01*
X322376786Y-42667319D02*
X322995833Y-42667319D01*
X320329167Y-18807200D02*
X320472024Y-18854819D01*
X320472024Y-18854819D02*
X320710119Y-18854819D01*
X320710119Y-18854819D02*
X320805357Y-18807200D01*
X320805357Y-18807200D02*
X320852976Y-18759580D01*
X320852976Y-18759580D02*
X320900595Y-18664342D01*
X320900595Y-18664342D02*
X320900595Y-18569104D01*
X320900595Y-18569104D02*
X320852976Y-18473866D01*
X320852976Y-18473866D02*
X320805357Y-18426247D01*
X320805357Y-18426247D02*
X320710119Y-18378628D01*
X320710119Y-18378628D02*
X320519643Y-18331009D01*
X320519643Y-18331009D02*
X320424405Y-18283390D01*
X320424405Y-18283390D02*
X320376786Y-18235771D01*
X320376786Y-18235771D02*
X320329167Y-18140533D01*
X320329167Y-18140533D02*
X320329167Y-18045295D01*
X320329167Y-18045295D02*
X320376786Y-17950057D01*
X320376786Y-17950057D02*
X320424405Y-17902438D01*
X320424405Y-17902438D02*
X320519643Y-17854819D01*
X320519643Y-17854819D02*
X320757738Y-17854819D01*
X320757738Y-17854819D02*
X320900595Y-17902438D01*
X321233929Y-17854819D02*
X321472024Y-18854819D01*
X321472024Y-18854819D02*
X321662500Y-18140533D01*
X321662500Y-18140533D02*
X321852976Y-18854819D01*
X321852976Y-18854819D02*
X322091072Y-17854819D01*
X322995833Y-18854819D02*
X322424405Y-18854819D01*
X322710119Y-18854819D02*
X322710119Y-17854819D01*
X322710119Y-17854819D02*
X322614881Y-17997676D01*
X322614881Y-17997676D02*
X322519643Y-18092914D01*
X322519643Y-18092914D02*
X322424405Y-18140533D01*
D11*
G04 #@! TO.C,SW2*
X310012500Y-43112500D02*
X311012500Y-43112500D01*
X310012500Y-44112500D02*
X310012500Y-43112500D01*
X310012500Y-54312500D02*
X310012500Y-55312500D01*
X310012500Y-55312500D02*
X311012500Y-55312500D01*
X315412500Y-43112500D02*
X316412500Y-43112500D01*
X315412500Y-55312500D02*
X316412500Y-55312500D01*
X320812500Y-43112500D02*
X321812500Y-43112500D01*
X321812500Y-43112500D02*
X321812500Y-44112500D01*
X321812500Y-54312500D02*
X321812500Y-55312500D01*
X321812500Y-55312500D02*
X320812500Y-55312500D01*
X315912500Y-55110608D02*
X315672500Y-54780608D01*
X316152500Y-54780608D01*
X315912500Y-55110608D01*
G36*
X315912500Y-55110608D02*
G01*
X315672500Y-54780608D01*
X316152500Y-54780608D01*
X315912500Y-55110608D01*
G37*
G04 #@! TO.C,SW1*
X310012500Y-19300000D02*
X311012500Y-19300000D01*
X310012500Y-20300000D02*
X310012500Y-19300000D01*
X310012500Y-30500000D02*
X310012500Y-31500000D01*
X310012500Y-31500000D02*
X311012500Y-31500000D01*
X315412500Y-19300000D02*
X316412500Y-19300000D01*
X315412500Y-31500000D02*
X316412500Y-31500000D01*
X320812500Y-19300000D02*
X321812500Y-19300000D01*
X321812500Y-19300000D02*
X321812500Y-20300000D01*
X321812500Y-30500000D02*
X321812500Y-31500000D01*
X321812500Y-31500000D02*
X320812500Y-31500000D01*
X315912500Y-31298108D02*
X315672500Y-30968108D01*
X316152500Y-30968108D01*
X315912500Y-31298108D01*
G36*
X315912500Y-31298108D02*
G01*
X315672500Y-30968108D01*
X316152500Y-30968108D01*
X315912500Y-31298108D01*
G37*
G04 #@! TD*
%LPC*%
D12*
G04 #@! TO.C,S3*
X161131250Y-74295000D03*
X137318750Y-74295000D03*
G04 #@! TD*
G04 #@! TO.C,S4*
X275431042Y-74295000D03*
X251618542Y-74295000D03*
G04 #@! TD*
D13*
G04 #@! TO.C,MX54*
X125730000Y-82550000D03*
D12*
X120650000Y-82550000D03*
D13*
X115570000Y-82550000D03*
D14*
X116840000Y-80010000D03*
X123190000Y-77470000D03*
G04 #@! TD*
D13*
G04 #@! TO.C,MX9*
X182880000Y-25400000D03*
D12*
X177800000Y-25400000D03*
D13*
X172720000Y-25400000D03*
D14*
X173990000Y-22860000D03*
X180340000Y-20320000D03*
G04 #@! TD*
D13*
G04 #@! TO.C,MX37*
X106680000Y-63500000D03*
D12*
X101600000Y-63500000D03*
D13*
X96520000Y-63500000D03*
D14*
X97790000Y-60960000D03*
X104140000Y-58420000D03*
G04 #@! TD*
D13*
G04 #@! TO.C,MX20*
X87630000Y-44450000D03*
D12*
X82550000Y-44450000D03*
D13*
X77470000Y-44450000D03*
D14*
X78740000Y-41910000D03*
X85090000Y-39370000D03*
G04 #@! TD*
D13*
G04 #@! TO.C,MX49*
X49530000Y-82550000D03*
D12*
X44450000Y-82550000D03*
D13*
X39370000Y-82550000D03*
D14*
X40640000Y-80010000D03*
X46990000Y-77470000D03*
G04 #@! TD*
D13*
G04 #@! TO.C,MX36*
X87630000Y-63500000D03*
D12*
X82550000Y-63500000D03*
D13*
X77470000Y-63500000D03*
D14*
X78740000Y-60960000D03*
X85090000Y-58420000D03*
G04 #@! TD*
D13*
G04 #@! TO.C,MX16*
X320992500Y-25400000D03*
D12*
X315912500Y-25400000D03*
D13*
X310832500Y-25400000D03*
D14*
X312102500Y-22860000D03*
X318452500Y-20320000D03*
G04 #@! TD*
D13*
G04 #@! TO.C,MX5*
X106680000Y-25400000D03*
D12*
X101600000Y-25400000D03*
D13*
X96520000Y-25400000D03*
D14*
X97790000Y-22860000D03*
X104140000Y-20320000D03*
G04 #@! TD*
D13*
G04 #@! TO.C,MX35*
X68580000Y-63500000D03*
D12*
X63500000Y-63500000D03*
D13*
X58420000Y-63500000D03*
D14*
X59690000Y-60960000D03*
X66040000Y-58420000D03*
G04 #@! TD*
D13*
G04 #@! TO.C,MX59*
X220980000Y-82550000D03*
D12*
X215900000Y-82550000D03*
D13*
X210820000Y-82550000D03*
D14*
X212090000Y-80010000D03*
X218440000Y-77470000D03*
G04 #@! TD*
D13*
G04 #@! TO.C,MX30*
X278130000Y-44450000D03*
D12*
X273050000Y-44450000D03*
D13*
X267970000Y-44450000D03*
D14*
X269240000Y-41910000D03*
X275590000Y-39370000D03*
G04 #@! TD*
D13*
G04 #@! TO.C,MX44*
X240030000Y-63500000D03*
D12*
X234950000Y-63500000D03*
D13*
X229870000Y-63500000D03*
D14*
X231140000Y-60960000D03*
X237490000Y-58420000D03*
G04 #@! TD*
D13*
G04 #@! TO.C,MX50*
X68580000Y-82550000D03*
D12*
X63500000Y-82550000D03*
D13*
X58420000Y-82550000D03*
D14*
X59690000Y-80010000D03*
X66040000Y-77470000D03*
G04 #@! TD*
D13*
G04 #@! TO.C,MX56*
X163830000Y-82550000D03*
D12*
X158750000Y-82550000D03*
D13*
X153670000Y-82550000D03*
D14*
X154940000Y-80010000D03*
X161290000Y-77470000D03*
G04 #@! TD*
D13*
G04 #@! TO.C,MX47*
X297180000Y-63500000D03*
D12*
X292100000Y-63500000D03*
D13*
X287020000Y-63500000D03*
D14*
X288290000Y-60960000D03*
X294640000Y-58420000D03*
G04 #@! TD*
D13*
G04 #@! TO.C,MX42*
X201930000Y-63500000D03*
D12*
X196850000Y-63500000D03*
D13*
X191770000Y-63500000D03*
D14*
X193040000Y-60960000D03*
X199390000Y-58420000D03*
G04 #@! TD*
D13*
G04 #@! TO.C,MX1*
X30480000Y-25400000D03*
D12*
X25400000Y-25400000D03*
D13*
X20320000Y-25400000D03*
D14*
X21590000Y-22860000D03*
X27940000Y-20320000D03*
G04 #@! TD*
D13*
G04 #@! TO.C,MX65*
X316230000Y-82550000D03*
D12*
X311150000Y-82550000D03*
D13*
X306070000Y-82550000D03*
D14*
X307340000Y-80010000D03*
X313690000Y-77470000D03*
G04 #@! TD*
D13*
G04 #@! TO.C,MX40*
X163830000Y-63500000D03*
D12*
X158750000Y-63500000D03*
D13*
X153670000Y-63500000D03*
D14*
X154940000Y-60960000D03*
X161290000Y-58420000D03*
G04 #@! TD*
D13*
G04 #@! TO.C,MX28*
X240030000Y-44450000D03*
D12*
X234950000Y-44450000D03*
D13*
X229870000Y-44450000D03*
D14*
X231140000Y-41910000D03*
X237490000Y-39370000D03*
G04 #@! TD*
D13*
G04 #@! TO.C,MX67*
X258444793Y-82550000D03*
D12*
X263524792Y-82550000D03*
D13*
X268604791Y-82550000D03*
D14*
X267334792Y-85090000D03*
X260984792Y-87630000D03*
G04 #@! TD*
D13*
G04 #@! TO.C,MX63*
X278130000Y-82550000D03*
D12*
X273050000Y-82550000D03*
D13*
X267970000Y-82550000D03*
D14*
X269240000Y-80010000D03*
X275590000Y-77470000D03*
G04 #@! TD*
D13*
G04 #@! TO.C,MX19*
X68580000Y-44450000D03*
D12*
X63500000Y-44450000D03*
D13*
X58420000Y-44450000D03*
D14*
X59690000Y-41910000D03*
X66040000Y-39370000D03*
G04 #@! TD*
D12*
G04 #@! TO.C,S5*
X194468749Y-74295000D03*
D15*
X194468750Y-89535000D03*
X218281250Y-89535000D03*
D12*
X218281251Y-74295000D03*
G04 #@! TD*
D13*
G04 #@! TO.C,MX51*
X87630000Y-82550000D03*
D12*
X82550000Y-82550000D03*
D13*
X77470000Y-82550000D03*
D14*
X78740000Y-80010000D03*
X85090000Y-77470000D03*
G04 #@! TD*
D12*
G04 #@! TO.C,S2*
X213518750Y-74295000D03*
D15*
X213518750Y-89535000D03*
D12*
X237331250Y-74295000D03*
D15*
X237331250Y-89535000D03*
G04 #@! TD*
D13*
G04 #@! TO.C,MX31*
X297180000Y-44450000D03*
D12*
X292100000Y-44450000D03*
D13*
X287020000Y-44450000D03*
D14*
X288290000Y-41910000D03*
X294640000Y-39370000D03*
G04 #@! TD*
D13*
G04 #@! TO.C,MX10*
X201930000Y-25400000D03*
D12*
X196850000Y-25400000D03*
D13*
X191770000Y-25400000D03*
D14*
X193040000Y-22860000D03*
X199390000Y-20320000D03*
G04 #@! TD*
D13*
G04 #@! TO.C,MX12*
X240030000Y-25400000D03*
D12*
X234950000Y-25400000D03*
D13*
X229870000Y-25400000D03*
D14*
X231140000Y-22860000D03*
X237490000Y-20320000D03*
G04 #@! TD*
D13*
G04 #@! TO.C,MX23*
X144780000Y-44450000D03*
D12*
X139700000Y-44450000D03*
D13*
X134620000Y-44450000D03*
D14*
X135890000Y-41910000D03*
X142240000Y-39370000D03*
G04 #@! TD*
D13*
G04 #@! TO.C,MX17*
X30480000Y-44450000D03*
D12*
X25400000Y-44450000D03*
D13*
X20320000Y-44450000D03*
D14*
X21590000Y-41910000D03*
X27940000Y-39370000D03*
G04 #@! TD*
D13*
G04 #@! TO.C,MX24*
X163830000Y-44450000D03*
D12*
X158750000Y-44450000D03*
D13*
X153670000Y-44450000D03*
D14*
X154940000Y-41910000D03*
X161290000Y-39370000D03*
G04 #@! TD*
D13*
G04 #@! TO.C,MX27*
X220980000Y-44450000D03*
D12*
X215900000Y-44450000D03*
D13*
X210820000Y-44450000D03*
D14*
X212090000Y-41910000D03*
X218440000Y-39370000D03*
G04 #@! TD*
D13*
G04 #@! TO.C,MX26*
X201930000Y-44450000D03*
D12*
X196850000Y-44450000D03*
D13*
X191770000Y-44450000D03*
D14*
X193040000Y-41910000D03*
X199390000Y-39370000D03*
G04 #@! TD*
D13*
G04 #@! TO.C,MX13*
X259080000Y-25400000D03*
D12*
X254000000Y-25400000D03*
D13*
X248920000Y-25400000D03*
D14*
X250190000Y-22860000D03*
X256540000Y-20320000D03*
G04 #@! TD*
D13*
G04 #@! TO.C,MX53*
X106045000Y-82550000D03*
D12*
X111125000Y-82550000D03*
D13*
X116205000Y-82550000D03*
D14*
X114935000Y-85090000D03*
X108585000Y-87630000D03*
G04 #@! TD*
D13*
G04 #@! TO.C,MX62*
X259080000Y-82550000D03*
D12*
X254000000Y-82550000D03*
D13*
X248920000Y-82550000D03*
D14*
X250190000Y-80010000D03*
X256540000Y-77470000D03*
G04 #@! TD*
D13*
G04 #@! TO.C,MX4*
X87630000Y-25400000D03*
D12*
X82550000Y-25400000D03*
D13*
X77470000Y-25400000D03*
D14*
X78740000Y-22860000D03*
X85090000Y-20320000D03*
G04 #@! TD*
D13*
G04 #@! TO.C,MX43*
X220980000Y-63500000D03*
D12*
X215900000Y-63500000D03*
D13*
X210820000Y-63500000D03*
D14*
X212090000Y-60960000D03*
X218440000Y-58420000D03*
G04 #@! TD*
D13*
G04 #@! TO.C,MX52*
X106680000Y-82550000D03*
D12*
X101600000Y-82550000D03*
D13*
X96520000Y-82550000D03*
D14*
X97790000Y-80010000D03*
X104140000Y-77470000D03*
G04 #@! TD*
D13*
G04 #@! TO.C,MX41*
X182880000Y-63500000D03*
D12*
X177800000Y-63500000D03*
D13*
X172720000Y-63500000D03*
D14*
X173990000Y-60960000D03*
X180340000Y-58420000D03*
G04 #@! TD*
D13*
G04 #@! TO.C,MX15*
X297180000Y-25400000D03*
D12*
X292100000Y-25400000D03*
D13*
X287020000Y-25400000D03*
D14*
X288290000Y-22860000D03*
X294640000Y-20320000D03*
G04 #@! TD*
D13*
G04 #@! TO.C,MX57*
X182880000Y-82550000D03*
D12*
X177800000Y-82550000D03*
D13*
X172720000Y-82550000D03*
D14*
X173990000Y-80010000D03*
X180340000Y-77470000D03*
G04 #@! TD*
D13*
G04 #@! TO.C,MX38*
X125730000Y-63500000D03*
D12*
X120650000Y-63500000D03*
D13*
X115570000Y-63500000D03*
D14*
X116840000Y-60960000D03*
X123190000Y-58420000D03*
G04 #@! TD*
D13*
G04 #@! TO.C,MX66*
X144145001Y-82550000D03*
D12*
X149225000Y-82550000D03*
D13*
X154304999Y-82550000D03*
D14*
X153035000Y-85090000D03*
X146685000Y-87630000D03*
G04 #@! TD*
D13*
G04 #@! TO.C,MX14*
X278130000Y-25400000D03*
D12*
X273050000Y-25400000D03*
D13*
X267970000Y-25400000D03*
D14*
X269240000Y-22860000D03*
X275590000Y-20320000D03*
G04 #@! TD*
D13*
G04 #@! TO.C,MX11*
X220980000Y-25400000D03*
D12*
X215900000Y-25400000D03*
D13*
X210820000Y-25400000D03*
D14*
X212090000Y-22860000D03*
X218440000Y-20320000D03*
G04 #@! TD*
D13*
G04 #@! TO.C,MX48*
X30480000Y-82550000D03*
D12*
X25400000Y-82550000D03*
D13*
X20320000Y-82550000D03*
D14*
X21590000Y-80010000D03*
X27940000Y-77470000D03*
G04 #@! TD*
D13*
G04 #@! TO.C,MX21*
X106680000Y-44450000D03*
D12*
X101600000Y-44450000D03*
D13*
X96520000Y-44450000D03*
D14*
X97790000Y-41910000D03*
X104140000Y-39370000D03*
G04 #@! TD*
D13*
G04 #@! TO.C,MX25*
X182880000Y-44450000D03*
D12*
X177800000Y-44450000D03*
D13*
X172720000Y-44450000D03*
D14*
X173990000Y-41910000D03*
X180340000Y-39370000D03*
G04 #@! TD*
D13*
G04 #@! TO.C,MX32*
X320992500Y-49212500D03*
D12*
X315912500Y-49212500D03*
D13*
X310832500Y-49212500D03*
D14*
X312102500Y-46672500D03*
X318452500Y-44132500D03*
G04 #@! TD*
D13*
G04 #@! TO.C,MX22*
X125730000Y-44450000D03*
D12*
X120650000Y-44450000D03*
D13*
X115570000Y-44450000D03*
D14*
X116840000Y-41910000D03*
X123190000Y-39370000D03*
G04 #@! TD*
D13*
G04 #@! TO.C,MX46*
X278130000Y-63500000D03*
D12*
X273050000Y-63500000D03*
D13*
X267970000Y-63500000D03*
D14*
X269240000Y-60960000D03*
X275590000Y-58420000D03*
G04 #@! TD*
D13*
G04 #@! TO.C,MX39*
X144780000Y-63500000D03*
D12*
X139700000Y-63500000D03*
D13*
X134620000Y-63500000D03*
D14*
X135890000Y-60960000D03*
X142240000Y-58420000D03*
G04 #@! TD*
D13*
G04 #@! TO.C,MX29*
X259080000Y-44450000D03*
D12*
X254000000Y-44450000D03*
D13*
X248920000Y-44450000D03*
D14*
X250190000Y-41910000D03*
X256540000Y-39370000D03*
G04 #@! TD*
D13*
G04 #@! TO.C,MX61*
X240030000Y-82550000D03*
D12*
X234950000Y-82550000D03*
D13*
X229870000Y-82550000D03*
D14*
X231140000Y-80010000D03*
X237490000Y-77470000D03*
G04 #@! TD*
D13*
G04 #@! TO.C,MX33*
X30480000Y-63500000D03*
D12*
X25400000Y-63500000D03*
D13*
X20320000Y-63500000D03*
D14*
X21590000Y-60960000D03*
X27940000Y-58420000D03*
G04 #@! TD*
D13*
G04 #@! TO.C,MX34*
X49530000Y-63500000D03*
D12*
X44450000Y-63500000D03*
D13*
X39370000Y-63500000D03*
D14*
X40640000Y-60960000D03*
X46990000Y-58420000D03*
G04 #@! TD*
D12*
G04 #@! TO.C,S1*
X99218750Y-74295000D03*
D15*
X99218750Y-89535000D03*
D12*
X123031250Y-74295000D03*
D15*
X123031250Y-89535000D03*
G04 #@! TD*
D16*
G04 #@! TO.C,J3*
X296584432Y-89892112D03*
D17*
X299124432Y-89892112D03*
X301664432Y-89892112D03*
X304204432Y-89892112D03*
X306744432Y-89892112D03*
G04 #@! TD*
D13*
G04 #@! TO.C,MX45*
X259080000Y-63500000D03*
D12*
X254000000Y-63500000D03*
D13*
X248920000Y-63500000D03*
D14*
X250190000Y-60960000D03*
X256540000Y-58420000D03*
G04 #@! TD*
D13*
G04 #@! TO.C,MX68*
X201295001Y-82550000D03*
D12*
X206375000Y-82550000D03*
D13*
X211454999Y-82550000D03*
D14*
X210185000Y-85090000D03*
X203835000Y-87630000D03*
G04 #@! TD*
D13*
G04 #@! TO.C,MX64*
X297180000Y-82550000D03*
D12*
X292100000Y-82550000D03*
D13*
X287020000Y-82550000D03*
D14*
X288290000Y-80010000D03*
X294640000Y-77470000D03*
G04 #@! TD*
D13*
G04 #@! TO.C,MX18*
X49530000Y-44450000D03*
D12*
X44450000Y-44450000D03*
D13*
X39370000Y-44450000D03*
D14*
X40640000Y-41910000D03*
X46990000Y-39370000D03*
G04 #@! TD*
D13*
G04 #@! TO.C,MX55*
X144780000Y-82550000D03*
D12*
X139700000Y-82550000D03*
D13*
X134620000Y-82550000D03*
D14*
X135890000Y-80010000D03*
X142240000Y-77470000D03*
G04 #@! TD*
D13*
G04 #@! TO.C,MX60*
X220345000Y-82550000D03*
D12*
X225425000Y-82550000D03*
D13*
X230505000Y-82550000D03*
D14*
X229235000Y-85090000D03*
X222885000Y-87630000D03*
G04 #@! TD*
D13*
G04 #@! TO.C,MX2*
X49530000Y-25400000D03*
D12*
X44450000Y-25400000D03*
D13*
X39370000Y-25400000D03*
D14*
X40640000Y-22860000D03*
X46990000Y-20320000D03*
G04 #@! TD*
D13*
G04 #@! TO.C,MX58*
X201930000Y-82550000D03*
D12*
X196850000Y-82550000D03*
D13*
X191770000Y-82550000D03*
D14*
X193040000Y-80010000D03*
X199390000Y-77470000D03*
G04 #@! TD*
D13*
G04 #@! TO.C,MX6*
X125730000Y-25400000D03*
D12*
X120650000Y-25400000D03*
D13*
X115570000Y-25400000D03*
D14*
X116840000Y-22860000D03*
X123190000Y-20320000D03*
G04 #@! TD*
D13*
G04 #@! TO.C,MX8*
X163830000Y-25400000D03*
D12*
X158750000Y-25400000D03*
D13*
X153670000Y-25400000D03*
D14*
X154940000Y-22860000D03*
X161290000Y-20320000D03*
G04 #@! TD*
D13*
G04 #@! TO.C,MX7*
X144780000Y-25400000D03*
D12*
X139700000Y-25400000D03*
D13*
X134620000Y-25400000D03*
D14*
X135890000Y-22860000D03*
X142240000Y-20320000D03*
G04 #@! TD*
D13*
G04 #@! TO.C,MX3*
X68580000Y-25400000D03*
D12*
X63500000Y-25400000D03*
D13*
X58420000Y-25400000D03*
D14*
X59690000Y-22860000D03*
X66040000Y-20320000D03*
G04 #@! TD*
%LPD*%
M02*
